<svg xmlns="http://www.w3.org/2000/svg" xmlns:xlink="http://www.w3.org/1999/xlink" width="103" height="103" viewBox="0 0 103 103">
  <defs>
    <filter id="Trazado_982547" x="0" y="0" width="103" height="103" filterUnits="userSpaceOnUse">
      <feOffset dy="3" input="SourceAlpha"/>
      <feGaussianBlur stdDeviation="3" result="blur"/>
      <feFlood flood-opacity="0.161"/>
      <feComposite operator="in" in2="blur"/>
      <feComposite in="SourceGraphic"/>
    </filter>
  </defs>
  <g id="Grupo_1226951" data-name="Grupo 1226951" transform="translate(-191 -4082.801)">
    <g id="Grupo_1226406" data-name="Grupo 1226406" transform="translate(200 4088.801)">
      <g id="Grupo_1225608" data-name="Grupo 1225608">
        <g id="Grupo_1225482" data-name="Grupo 1225482">
          <g id="Grupo_1210959" data-name="Grupo 1210959">
            <g id="Grupo_1210290" data-name="Grupo 1210290">
              <g id="Grupo_1207485" data-name="Grupo 1207485">
                <g id="Grupo_1207313" data-name="Grupo 1207313">
                  <g id="Grupo_1202212" data-name="Grupo 1202212">
                    <g id="Grupo_1174813" data-name="Grupo 1174813">
                      <g id="Grupo_1201680" data-name="Grupo 1201680">
                        <g id="Grupo_1201330" data-name="Grupo 1201330">
                          <g id="Grupo_1172010" data-name="Grupo 1172010">
                            <g id="Grupo_1171046" data-name="Grupo 1171046">
                              <g id="Grupo_1148525" data-name="Grupo 1148525">
                                <g transform="matrix(1, 0, 0, 1, -9, -6)" filter="url(#Trazado_982547)">
                                  <g id="Trazado_982547-2" data-name="Trazado 982547" transform="translate(9 6)" fill="#fdf6e4">
                                    <path d="M 42.5 83.5 C 36.96437835693359 83.5 31.59512901306152 82.41617584228516 26.54141235351562 80.27863311767578 C 21.65934181213379 78.21369171142578 17.27447128295898 75.25723266601562 13.50862312316895 71.49137878417969 C 9.742764472961426 67.72553253173828 6.786305904388428 63.34066009521484 4.721364498138428 58.45858764648438 C 2.583823442459106 53.40486907958984 1.5 48.03562164306641 1.5 42.5 C 1.5 36.96437835693359 2.583823442459106 31.59512901306152 4.721364498138428 26.54141235351562 C 6.786305904388428 21.65934181213379 9.742764472961426 17.27448272705078 13.50862312316895 13.50862312316895 C 17.27447128295898 9.742776870727539 21.65934181213379 6.786305904388428 26.54141235351562 4.721364498138428 C 31.59512901306152 2.583823442459106 36.96437835693359 1.5 42.5 1.5 C 48.03562164306641 1.5 53.40486907958984 2.583823442459106 58.45858764648438 4.721364498138428 C 63.34066009521484 6.786305904388428 67.72553253173828 9.742776870727539 71.49137878417969 13.50862312316895 C 75.25723266601562 17.27448272705078 78.21369171142578 21.65934181213379 80.27863311767578 26.54141235351562 C 82.41617584228516 31.59512901306152 83.5 36.96437835693359 83.5 42.5 C 83.5 48.03562164306641 82.41617584228516 53.40486907958984 80.27863311767578 58.45858764648438 C 78.21369171142578 63.34066009521484 75.25723266601562 67.72553253173828 71.49137878417969 71.49137878417969 C 67.72553253173828 75.25723266601562 63.34066009521484 78.21369171142578 58.45858764648438 80.27863311767578 C 53.40486907958984 82.41617584228516 48.03562164306641 83.5 42.5 83.5 Z" stroke="none"/>
                                    <path d="M 42.5 3 C 37.16621398925781 3 31.99356079101562 4.043960571289062 27.125732421875 6.102882385253906 C 22.42246627807617 8.092185974121094 18.19785308837891 10.94070434570312 14.56928253173828 14.56928253173828 C 10.94070434570312 18.19785308837891 8.092185974121094 22.42246627807617 6.102882385253906 27.125732421875 C 4.043960571289062 31.99356079101562 3 37.16621398925781 3 42.5 C 3 47.83378601074219 4.043960571289062 53.00643920898438 6.102882385253906 57.874267578125 C 8.092185974121094 62.57753372192383 10.94070434570312 66.80214691162109 14.56928253173828 70.43071746826172 C 18.19785308837891 74.05929565429688 22.42246627807617 76.90781402587891 27.125732421875 78.89711761474609 C 31.99356079101562 80.95603942871094 37.16621398925781 82 42.5 82 C 47.83378601074219 82 53.00643920898438 80.95603942871094 57.874267578125 78.89711761474609 C 62.57753372192383 76.90781402587891 66.80214691162109 74.05929565429688 70.43071746826172 70.43071746826172 C 74.05929565429688 66.80214691162109 76.90781402587891 62.57753372192383 78.89711761474609 57.874267578125 C 80.95603942871094 53.00643920898438 82 47.83378601074219 82 42.5 C 82 37.16621398925781 80.95603942871094 31.99356079101562 78.89711761474609 27.125732421875 C 76.90781402587891 22.42246627807617 74.05929565429688 18.19785308837891 70.43071746826172 14.56928253173828 C 66.80214691162109 10.94070434570312 62.57753372192383 8.092185974121094 57.874267578125 6.102882385253906 C 53.00643920898438 4.043960571289062 47.83378601074219 3 42.5 3 M 42.5 0 C 65.97210693359375 0 85 19.02789306640625 85 42.5 C 85 65.97210693359375 65.97210693359375 85 42.5 85 C 19.02789306640625 85 0 65.97210693359375 0 42.5 C 0 19.02789306640625 19.02789306640625 0 42.5 0 Z" stroke="none" fill="#856002"/>
                                  </g>
                                </g>
                              </g>
                            </g>
                          </g>
                        </g>
                      </g>
                    </g>
                  </g>
                </g>
              </g>
            </g>
          </g>
        </g>
      </g>
    </g>
    <g id="Filled_outline" data-name="Filled outline" transform="translate(217.778 4106.579)">
      <g id="Color" transform="translate(0.579 0.579)">
        <path id="Trazado_1058606" data-name="Trazado 1058606" d="M11.977,27.5H47.9a3.477,3.477,0,0,1,3.477,3.477V59.948H8.5V30.977A3.477,3.477,0,0,1,11.977,27.5Z" transform="translate(-5.796 -17.457)" fill="#455a64"/>
        <rect id="Rectángulo_422748" data-name="Rectángulo 422748" width="25.881" height="36.697" rx="3" transform="translate(42.491 13.134) rotate(90)" fill="#4dd0e1"/>
        <path id="Trazado_1058607" data-name="Trazado 1058607" d="M1.5,112.659v1.159a3.477,3.477,0,0,0,3.477,3.477H46.308a3.477,3.477,0,0,0,3.477-3.477v-1.159a1.159,1.159,0,0,0-1.159-1.159H2.659A1.159,1.159,0,0,0,1.5,112.659Z" transform="translate(-1.5 -69.009)" fill="#546e7a"/>
        <path id="Trazado_1058608" data-name="Trazado 1058608" d="M31.514,111.5a2.318,2.318,0,0,1-2.318,2.318H22.2a2.318,2.318,0,0,1-2.318-2.318H2.659A1.159,1.159,0,0,0,1.5,112.659v1.159a3.477,3.477,0,0,0,3.477,3.477H46.308a3.477,3.477,0,0,0,3.477-3.477v-1.159a1.159,1.159,0,0,0-1.159-1.159Z" transform="translate(-1.5 -69.009)" fill="#78909c"/>
        <rect id="Rectángulo_422749" data-name="Rectángulo 422749" width="28.971" height="35.538" rx="9" transform="translate(9.657)" fill="#eee"/>
        <rect id="Rectángulo_422750" data-name="Rectángulo 422750" width="11.975" height="10.816" rx="4.368" transform="translate(18.155 8.884)" fill="#ffc107"/>
        <rect id="Rectángulo_422751" data-name="Rectángulo 422751" width="21.632" height="6.567" rx="3.283" transform="translate(13.52 23.177)" fill="#cddc39"/>
      </g>
      <g id="Outline">
        <path id="Trazado_1058609" data-name="Trazado 1058609" d="M47.706,42.491H46.74V14.1a4.061,4.061,0,0,0-4.056-4.056h-2.9V4.056A4.061,4.061,0,0,0,35.731,0H13.713A4.061,4.061,0,0,0,9.657,4.056v5.987H6.76A4.061,4.061,0,0,0,2.7,14.1V42.491H1.738A1.74,1.74,0,0,0,0,44.229v1.159a4.061,4.061,0,0,0,4.056,4.056H45.388a4.061,4.061,0,0,0,4.056-4.056V44.229A1.74,1.74,0,0,0,47.706,42.491ZM10.816,4.056a2.9,2.9,0,0,1,2.9-2.9H35.731a2.9,2.9,0,0,1,2.9,2.9V32.641a2.9,2.9,0,0,1-2.9,2.9H13.713a2.9,2.9,0,0,1-2.9-2.9Zm2.9,32.641H35.731a4.061,4.061,0,0,0,4.056-4.056V14.292h2.125a.579.579,0,0,1,.579.579V38.435a.579.579,0,0,1-.579.579H7.532a.579.579,0,0,1-.579-.579V14.872a.579.579,0,0,1,.579-.579H9.657V32.641A4.061,4.061,0,0,0,13.713,36.7ZM3.863,14.1a2.9,2.9,0,0,1,2.9-2.9h2.9v1.931H7.532a1.74,1.74,0,0,0-1.738,1.738V38.435a1.74,1.74,0,0,0,1.738,1.738H41.911a1.74,1.74,0,0,0,1.738-1.738V14.872a1.74,1.74,0,0,0-1.738-1.738H39.787V11.2h2.9a2.9,2.9,0,0,1,2.9,2.9V42.491H3.863ZM29.907,43.65a1.736,1.736,0,0,1-1.632,1.159H21.284a1.735,1.735,0,0,1-1.631-1.159Zm18.378,1.738a2.9,2.9,0,0,1-2.9,2.9H4.056a2.9,2.9,0,0,1-2.9-2.9V44.229a.579.579,0,0,1,.579-.579H18.445a2.9,2.9,0,0,0,2.839,2.318h6.992a2.9,2.9,0,0,0,2.839-2.318H47.706a.579.579,0,0,1,.579.579Z"/>
        <path id="Trazado_1058610" data-name="Trazado 1058610" d="M49.267,26.85h8.6a2.269,2.269,0,0,0,2.267-2.267V17.142A2.269,2.269,0,0,0,58.2,14.9c0-.193,0-.378,0-.486a4.636,4.636,0,1,0-9.271-.046c0,.116,0,.322,0,.533A2.268,2.268,0,0,0,47,17.142v7.441A2.269,2.269,0,0,0,49.267,26.85Zm.824-12.46a3.477,3.477,0,1,1,6.953.048c0,.1,0,.263,0,.438H50.088C50.088,14.682,50.09,14.5,50.09,14.39Zm-1.931,2.752a1.109,1.109,0,0,1,1.108-1.108h8.6a1.109,1.109,0,0,1,1.108,1.108v7.441a1.109,1.109,0,0,1-1.108,1.108h-8.6a1.109,1.109,0,0,1-1.108-1.108Z" transform="translate(-28.845 -5.991)"/>
        <path id="Trazado_1058611" data-name="Trazado 1058611" d="M61,36.763h1.3a.831.831,0,0,0,.815-.994l-.547-2.735a1.243,1.243,0,1,0-1.831,0l-.547,2.735a.831.831,0,0,0,.815.994Z" transform="translate(-36.929 -18.994)"/>
        <path id="Trazado_1058612" data-name="Trazado 1058612" d="M37.9,67.726h17a2.9,2.9,0,0,0,2.9-2.9V62.9a2.9,2.9,0,0,0-2.9-2.9h-17A2.9,2.9,0,0,0,35,62.9v1.931A2.9,2.9,0,0,0,37.9,67.726ZM36.159,62.9A1.74,1.74,0,0,1,37.9,61.159h17A1.74,1.74,0,0,1,56.632,62.9v1.931a1.74,1.74,0,0,1-1.738,1.738h-17a1.74,1.74,0,0,1-1.738-1.738Z" transform="translate(-21.48 -36.823)"/>
        <circle id="Elipse_13548" data-name="Elipse 13548" cx="0.773" cy="0.773" r="0.773" transform="translate(17.189 26.267)"/>
        <path id="Trazado_1058613" data-name="Trazado 1058613" d="M68.773,69.545A.773.773,0,1,0,68,68.773.773.773,0,0,0,68.773,69.545Z" transform="translate(-41.733 -41.733)"/>
        <path id="Trazado_1058614" data-name="Trazado 1058614" d="M56.773,69.545A.773.773,0,1,0,56,68.773.773.773,0,0,0,56.773,69.545Z" transform="translate(-34.368 -41.733)"/>
        <circle id="Elipse_13549" data-name="Elipse 13549" cx="0.773" cy="0.773" r="0.773" transform="translate(30.709 26.267)"/>
      </g>
    </g>
  </g>
</svg>
