<svg xmlns="http://www.w3.org/2000/svg" xmlns:xlink="http://www.w3.org/1999/xlink" width="103" height="103" viewBox="0 0 103 103">
  <defs>
    <filter id="Trazado_982547" x="0" y="0" width="103" height="103" filterUnits="userSpaceOnUse">
      <feOffset dy="3" input="SourceAlpha"/>
      <feGaussianBlur stdDeviation="3" result="blur"/>
      <feFlood flood-opacity="0.161"/>
      <feComposite operator="in" in2="blur"/>
      <feComposite in="SourceGraphic"/>
    </filter>
  </defs>
  <g id="Grupo_1226958" data-name="Grupo 1226958" transform="translate(-506 -4082.801)">
    <g id="Grupo_1226407" data-name="Grupo 1226407" transform="translate(515 4088.801)">
      <g id="Grupo_1225608" data-name="Grupo 1225608">
        <g id="Grupo_1225482" data-name="Grupo 1225482">
          <g id="Grupo_1210959" data-name="Grupo 1210959">
            <g id="Grupo_1210290" data-name="Grupo 1210290">
              <g id="Grupo_1207485" data-name="Grupo 1207485">
                <g id="Grupo_1207313" data-name="Grupo 1207313">
                  <g id="Grupo_1202212" data-name="Grupo 1202212">
                    <g id="Grupo_1174813" data-name="Grupo 1174813">
                      <g id="Grupo_1201680" data-name="Grupo 1201680">
                        <g id="Grupo_1201330" data-name="Grupo 1201330">
                          <g id="Grupo_1172010" data-name="Grupo 1172010">
                            <g id="Grupo_1171046" data-name="Grupo 1171046">
                              <g id="Grupo_1148525" data-name="Grupo 1148525">
                                <g transform="matrix(1, 0, 0, 1, -9, -6)" filter="url(#Trazado_982547)">
                                  <g id="Trazado_982547-2" data-name="Trazado 982547" transform="translate(9 6)" fill="#fdf6e4">
                                    <path d="M 42.5 83.5 C 36.96437835693359 83.5 31.59512901306152 82.41617584228516 26.54141235351562 80.27863311767578 C 21.65934181213379 78.21369171142578 17.27447128295898 75.25723266601562 13.50862312316895 71.49137878417969 C 9.742764472961426 67.72553253173828 6.786305904388428 63.34066009521484 4.721364498138428 58.45858764648438 C 2.583823442459106 53.40486907958984 1.5 48.03562164306641 1.5 42.5 C 1.5 36.96437835693359 2.583823442459106 31.59512901306152 4.721364498138428 26.54141235351562 C 6.786305904388428 21.65934181213379 9.742764472961426 17.27448272705078 13.50862312316895 13.50862312316895 C 17.27447128295898 9.742776870727539 21.65934181213379 6.786305904388428 26.54141235351562 4.721364498138428 C 31.59512901306152 2.583823442459106 36.96437835693359 1.5 42.5 1.5 C 48.03562164306641 1.5 53.40486907958984 2.583823442459106 58.45858764648438 4.721364498138428 C 63.34066009521484 6.786305904388428 67.72553253173828 9.742776870727539 71.49137878417969 13.50862312316895 C 75.25723266601562 17.27448272705078 78.21369171142578 21.65934181213379 80.27863311767578 26.54141235351562 C 82.41617584228516 31.59512901306152 83.5 36.96437835693359 83.5 42.5 C 83.5 48.03562164306641 82.41617584228516 53.40486907958984 80.27863311767578 58.45858764648438 C 78.21369171142578 63.34066009521484 75.25723266601562 67.72553253173828 71.49137878417969 71.49137878417969 C 67.72553253173828 75.25723266601562 63.34066009521484 78.21369171142578 58.45858764648438 80.27863311767578 C 53.40486907958984 82.41617584228516 48.03562164306641 83.5 42.5 83.5 Z" stroke="none"/>
                                    <path d="M 42.5 3 C 37.16621398925781 3 31.99356079101562 4.043960571289062 27.125732421875 6.102882385253906 C 22.42246627807617 8.092185974121094 18.19785308837891 10.94070434570312 14.56928253173828 14.56928253173828 C 10.94070434570312 18.19785308837891 8.092185974121094 22.42246627807617 6.102882385253906 27.125732421875 C 4.043960571289062 31.99356079101562 3 37.16621398925781 3 42.5 C 3 47.83378601074219 4.043960571289062 53.00643920898438 6.102882385253906 57.874267578125 C 8.092185974121094 62.57753372192383 10.94070434570312 66.80214691162109 14.56928253173828 70.43071746826172 C 18.19785308837891 74.05929565429688 22.42246627807617 76.90781402587891 27.125732421875 78.89711761474609 C 31.99356079101562 80.95603942871094 37.16621398925781 82 42.5 82 C 47.83378601074219 82 53.00643920898438 80.95603942871094 57.874267578125 78.89711761474609 C 62.57753372192383 76.90781402587891 66.80214691162109 74.05929565429688 70.43071746826172 70.43071746826172 C 74.05929565429688 66.80214691162109 76.90781402587891 62.57753372192383 78.89711761474609 57.874267578125 C 80.95603942871094 53.00643920898438 82 47.83378601074219 82 42.5 C 82 37.16621398925781 80.95603942871094 31.99356079101562 78.89711761474609 27.125732421875 C 76.90781402587891 22.42246627807617 74.05929565429688 18.19785308837891 70.43071746826172 14.56928253173828 C 66.80214691162109 10.94070434570312 62.57753372192383 8.092185974121094 57.874267578125 6.102882385253906 C 53.00643920898438 4.043960571289062 47.83378601074219 3 42.5 3 M 42.5 0 C 65.97210693359375 0 85 19.02789306640625 85 42.5 C 85 65.97210693359375 65.97210693359375 85 42.5 85 C 19.02789306640625 85 0 65.97210693359375 0 42.5 C 0 19.02789306640625 19.02789306640625 0 42.5 0 Z" stroke="none" fill="#856002"/>
                                  </g>
                                </g>
                              </g>
                            </g>
                          </g>
                        </g>
                      </g>
                    </g>
                  </g>
                </g>
              </g>
            </g>
          </g>
        </g>
      </g>
    </g>
    <g id="cifrado_2_" data-name="cifrado (2)" transform="translate(533.982 4103.985)">
      <g id="Grupo_1226956" data-name="Grupo 1226956" transform="translate(0.798 0.869)">
        <g id="Grupo_1226953" data-name="Grupo 1226953">
          <path id="Trazado_1058615" data-name="Trazado 1058615" d="M121.818,7.571h6.3a.745.745,0,0,1,.527.218l3.088,3.088-9.381.936a.745.745,0,0,1-.527-.218Z" transform="translate(-109.652 -7.571)" fill="#d7ecfe"/>
          <path id="Trazado_1058616" data-name="Trazado 1058616" d="M39.781,57.157H8.245a.745.745,0,0,1-.745-.745V8.316a.745.745,0,0,1,.745-.745H19.666l3.088,3.088a.745.745,0,0,0,.527.218H39.036a.745.745,0,0,1,.745.745Z" transform="translate(-7.5 -7.571)" fill="#f0fcff"/>
          <g id="Grupo_1226952" data-name="Grupo 1226952" transform="translate(30.312 3.306)">
            <path id="Trazado_1058617" data-name="Trazado 1058617" d="M295.516,38.634h-3.193a.745.745,0,0,1,.745.745V84.914h2.448a.745.745,0,0,0,.745-.745V39.379A.745.745,0,0,0,295.516,38.634Z" transform="translate(-292.323 -38.634)" fill="#d7ecfe"/>
          </g>
        </g>
        <g id="Grupo_1226954" data-name="Grupo 1226954" transform="translate(9.78 14.877)">
          <circle id="Elipse_13550" data-name="Elipse 13550" cx="1.653" cy="1.653" r="1.653" transform="translate(0 21.487)" fill="#fd8087"/>
          <circle id="Elipse_13551" data-name="Elipse 13551" cx="1.653" cy="1.653" r="1.653" transform="translate(3.3 28.098)" fill="#fd8087"/>
          <circle id="Elipse_13552" data-name="Elipse 13552" cx="1.653" cy="1.653" r="1.653" transform="translate(28.173)" fill="#fd8087"/>
          <circle id="Elipse_13553" data-name="Elipse 13553" cx="1.653" cy="1.653" r="1.653" transform="translate(34.943 3.306)" fill="#fd8087"/>
          <circle id="Elipse_13554" data-name="Elipse 13554" cx="1.653" cy="1.653" r="1.653" transform="translate(39.822 23.14)" fill="#fd8087"/>
        </g>
        <g id="Grupo_1226955" data-name="Grupo 1226955" transform="translate(24.36 26.766)">
          <path id="Trazado_1058618" data-name="Trazado 1058618" d="M246.318,259.08s-4.611,3.914-9.917,3.914v6.289a17.929,17.929,0,0,0,7.207,14.368l3.416-.216c9.155-4.5,8.27-19.165,8.27-19.165l-2.308-1.731A19.335,19.335,0,0,1,246.318,259.08Z" transform="translate(-236.401 -259.08)" fill="#abdc94"/>
          <path id="Trazado_1058619" data-name="Trazado 1058619" d="M313.5,291.581v6.744c0,6.141-3.139,10.43-8.233,13.7-.3.19-.778.462-1.145.665a17.913,17.913,0,0,0,2.319,1.467.749.749,0,0,0,.711,0c.375-.206.965-.534,1.307-.754a17.923,17.923,0,0,0,8.233-15.078v-6.289A12.471,12.471,0,0,1,313.5,291.581Z" transform="translate(-296.914 -288.122)" fill="#8ccf75"/>
        </g>
        <path id="Trazado_1058620" data-name="Trazado 1058620" d="M304.872,338.537a3.306,3.306,0,1,0-4.959,2.863v2.1a1.653,1.653,0,0,0,3.306,0v-2.1A3.3,3.3,0,0,0,304.872,338.537Z" transform="translate(-267.317 -300.36)" fill="#808b95"/>
      </g>
      <g id="Grupo_1226957" data-name="Grupo 1226957" transform="translate(0 0.071)">
        <path id="Trazado_1058621" data-name="Trazado 1058621" d="M.8,24.3a.8.8,0,0,0,.8-.8V1.667H12.634c3.024,3.021,2.889,2.9,3.027,3a1.531,1.531,0,0,0,.918.3h9.975a.8.8,0,0,0,0-1.6H23.212L20.358.523A1.533,1.533,0,0,0,19.267.071H1.543A1.545,1.545,0,0,0,0,1.614V23.5A.8.8,0,0,0,.8,24.3ZM19.245,1.667l1.709,1.709H16.6L14.891,1.667Z" transform="translate(0 -0.071)"/>
        <path id="Trazado_1058622" data-name="Trazado 1058622" d="M35.257,31.927a.8.8,0,1,0-.8.8A.8.8,0,0,0,35.257,31.927Z" transform="translate(-30.079 -27.824)"/>
        <path id="Trazado_1058623" data-name="Trazado 1058623" d="M67.357,31.934a.8.8,0,1,0-.8.8A.8.8,0,0,0,67.357,31.934Z" transform="translate(-58.762 -27.831)"/>
        <path id="Trazado_1058624" data-name="Trazado 1058624" d="M98.659,32.734a.8.8,0,1,0-.8-.8A.8.8,0,0,0,98.659,32.734Z" transform="translate(-87.446 -27.831)"/>
        <path id="Trazado_1058625" data-name="Trazado 1058625" d="M96.517,95.68h.123v3.51a.8.8,0,1,0,1.6,0V94.882a.8.8,0,0,0-.8-.8h-.921a.8.8,0,1,0,0,1.6Z" transform="translate(-85.532 -84.079)"/>
        <path id="Trazado_1058626" data-name="Trazado 1058626" d="M254.03,94.882a.8.8,0,0,0,.8.8h.123v3.51a.8.8,0,1,0,1.6,0V94.882a.8.8,0,0,0-.8-.8h-.921A.8.8,0,0,0,254.03,94.882Z" transform="translate(-226.995 -84.079)"/>
        <path id="Trazado_1058627" data-name="Trazado 1058627" d="M40.751,95.3a2.044,2.044,0,0,0-4.088,0v1.993a2.044,2.044,0,0,0,4.088,0Zm-1.6,1.993a.448.448,0,0,1-.9,0V95.3a.448.448,0,0,1,.9,0Z" transform="translate(-32.761 -83.341)"/>
        <path id="Trazado_1058628" data-name="Trazado 1058628" d="M142.126,99.339a2.046,2.046,0,0,0,2.044-2.044V95.3a2.044,2.044,0,0,0-4.088,0v1.993A2.047,2.047,0,0,0,142.126,99.339Zm-.448-4.037a.448.448,0,0,1,.9,0v1.993a.448.448,0,0,1-.9,0Z" transform="translate(-125.174 -83.341)"/>
        <path id="Trazado_1058629" data-name="Trazado 1058629" d="M201.647,95.3a2.044,2.044,0,0,0-4.088,0v1.993a2.044,2.044,0,0,0,4.088,0Zm-1.6,1.993a.448.448,0,1,1-.9,0V95.3a.448.448,0,1,1,.9,0Z" transform="translate(-176.534 -83.341)"/>
        <path id="Trazado_1058630" data-name="Trazado 1058630" d="M210.985,182.1a.8.8,0,0,0,.8-.8V177a.8.8,0,0,0-.8-.8h-.921a.8.8,0,0,0,0,1.6h.123v3.51A.8.8,0,0,0,210.985,182.1Z" transform="translate(-186.995 -157.453)"/>
        <path id="Trazado_1058631" data-name="Trazado 1058631" d="M255.749,182.1a.8.8,0,0,0,.8-.8V177a.8.8,0,0,0-.8-.8h-.921a.8.8,0,0,0,0,1.6h.123v3.51A.8.8,0,0,0,255.749,182.1Z" transform="translate(-226.995 -157.453)"/>
        <path id="Trazado_1058632" data-name="Trazado 1058632" d="M40.751,179.407v-1.993a2.044,2.044,0,0,0-4.088,0v1.993a2.044,2.044,0,1,0,4.088,0Zm-1.6,0a.448.448,0,0,1-.9,0v-1.993a.448.448,0,1,1,.9,0Z" transform="translate(-32.761 -156.714)"/>
        <path id="Trazado_1058633" data-name="Trazado 1058633" d="M99.753,179.407v-1.993a2.044,2.044,0,0,0-4.088,0v1.993a2.044,2.044,0,1,0,4.088,0Zm-1.6,0a.448.448,0,0,1-.9,0v-1.993a.448.448,0,1,1,.9,0Z" transform="translate(-85.484 -156.714)"/>
        <path id="Trazado_1058634" data-name="Trazado 1058634" d="M158.878,179.407v-1.993a2.044,2.044,0,0,0-4.088,0v1.993a2.044,2.044,0,1,0,4.088,0Zm-2.492,0v-1.993a.448.448,0,1,1,.9,0v1.993a.448.448,0,1,1-.9,0Z" transform="translate(-138.317 -156.714)"/>
        <path id="Trazado_1058635" data-name="Trazado 1058635" d="M38.381,264.214a.8.8,0,0,0,.8-.8v-4.308a.8.8,0,0,0-.8-.8H37.46a.8.8,0,1,0,0,1.6h.123v3.51A.8.8,0,0,0,38.381,264.214Z" transform="translate(-32.76 -230.826)"/>
        <path id="Trazado_1058636" data-name="Trazado 1058636" d="M141.8,264.214a.8.8,0,0,0,.8-.8v-4.308a.8.8,0,0,0-.8-.8h-.921a.8.8,0,1,0,0,1.6H141v3.51A.8.8,0,0,0,141.8,264.214Z" transform="translate(-125.174 -230.826)"/>
        <path id="Trazado_1058637" data-name="Trazado 1058637" d="M84.012,259.526v1.993a2.044,2.044,0,1,0,4.088,0v-1.993a2.044,2.044,0,1,0-4.088,0Zm2.492,0v1.993a.448.448,0,1,1-.9,0v-1.993a.448.448,0,1,1,.9,0Z" transform="translate(-75.071 -230.087)"/>
        <path id="Trazado_1058638" data-name="Trazado 1058638" d="M294.865,339.245a2.454,2.454,0,0,0,2.451-2.451v-1.667a4.1,4.1,0,1,0-4.9,0v1.667A2.454,2.454,0,0,0,294.865,339.245Zm-2.508-7.41a2.508,2.508,0,1,1,3.761,2.173.8.8,0,0,0-.4.691v2.1a.855.855,0,1,1-1.709,0v-2.1a.8.8,0,0,0-.4-.691,2.518,2.518,0,0,1-1.254-2.173Z" transform="translate(-259.817 -292.86)"/>
        <path id="Trazado_1058639" data-name="Trazado 1058639" d="M52.053,65.844A2.455,2.455,0,0,0,49.735,67.5h-4.1c.162-1.58.072-2.24.1-8.191a.8.8,0,0,0-.794-.8,12.161,12.161,0,0,1-3.739-.655V54.218h5.972a.8.8,0,0,0,.8-.8V50.78a2.451,2.451,0,1,0-1.6,0v1.842H41.2V47.473a2.451,2.451,0,1,0-1.6,0v9.754a19.724,19.724,0,0,1-3.759-2.242V32.677A1.545,1.545,0,0,0,34.3,31.134h-4.27a.8.8,0,0,0,0,1.6h4.217v22.3c-1.088.83-4.89,3.479-9.091,3.479a.8.8,0,0,0-.8.8c0,6.617,0,6.311,0,6.538H14.548a2.451,2.451,0,1,0,0,1.6h6.8v5.015h-3.5a2.451,2.451,0,1,0,0,1.6h4.294a.8.8,0,0,0,.8-.8V67.441h1.51a18.669,18.669,0,0,0,4.1,9.974H1.6V54.733a.8.8,0,1,0-1.6,0V77.468a1.545,1.545,0,0,0,1.543,1.543H30.016a18.761,18.761,0,0,0,4.295,3.124,1.544,1.544,0,0,0,1.468-.007A18.362,18.362,0,0,0,41.126,77.9a.8.8,0,0,0-1.2-1.049,16.824,16.824,0,0,1-4.885,3.866A17.085,17.085,0,0,1,25.957,65.6V60.078a18.3,18.3,0,0,0,9.119-3.669,18.334,18.334,0,0,0,9.063,3.665V65.6a17.147,17.147,0,0,1-2.284,8.544.8.8,0,1,0,1.383.8A18.736,18.736,0,0,0,45.4,69.094h4.331a2.451,2.451,0,1,0,2.318-3.249ZM47.174,47.608a.854.854,0,1,1-.855.855A.856.856,0,0,1,47.174,47.608ZM40.4,44.3a.855.855,0,1,1-.855.855A.856.856,0,0,1,40.4,44.3ZM15.531,74.109a.855.855,0,1,1,.855-.855A.856.856,0,0,1,15.531,74.109Zm-3.3-6.611a.855.855,0,1,1,.855-.855A.856.856,0,0,1,12.231,67.5ZM52.053,69.15a.855.855,0,1,1,.855-.855A.856.856,0,0,1,52.053,69.15Z" transform="translate(0 -27.828)"/>
      </g>
    </g>
  </g>
</svg>
