<svg xmlns="http://www.w3.org/2000/svg" xmlns:xlink="http://www.w3.org/1999/xlink" width="103" height="103" viewBox="0 0 103 103">
  <defs>
    <filter id="Trazado_982547" x="0" y="0" width="103" height="103" filterUnits="userSpaceOnUse">
      <feOffset dy="3" input="SourceAlpha"/>
      <feGaussianBlur stdDeviation="3" result="blur"/>
      <feFlood flood-opacity="0.161"/>
      <feComposite operator="in" in2="blur"/>
      <feComposite in="SourceGraphic"/>
    </filter>
  </defs>
  <g id="Grupo_1226967" data-name="Grupo 1226967" transform="translate(-821 -4082.801)">
    <g id="Grupo_1226408" data-name="Grupo 1226408" transform="translate(830 4088.801)">
      <g id="Grupo_1225608" data-name="Grupo 1225608">
        <g id="Grupo_1225482" data-name="Grupo 1225482">
          <g id="Grupo_1210959" data-name="Grupo 1210959">
            <g id="Grupo_1210290" data-name="Grupo 1210290">
              <g id="Grupo_1207485" data-name="Grupo 1207485">
                <g id="Grupo_1207313" data-name="Grupo 1207313">
                  <g id="Grupo_1202212" data-name="Grupo 1202212">
                    <g id="Grupo_1174813" data-name="Grupo 1174813">
                      <g id="Grupo_1201680" data-name="Grupo 1201680">
                        <g id="Grupo_1201330" data-name="Grupo 1201330">
                          <g id="Grupo_1172010" data-name="Grupo 1172010">
                            <g id="Grupo_1171046" data-name="Grupo 1171046">
                              <g id="Grupo_1148525" data-name="Grupo 1148525">
                                <g transform="matrix(1, 0, 0, 1, -9, -6)" filter="url(#Trazado_982547)">
                                  <g id="Trazado_982547-2" data-name="Trazado 982547" transform="translate(9 6)" fill="#fdf6e4">
                                    <path d="M 42.5 83.5 C 36.96437835693359 83.5 31.59512901306152 82.41617584228516 26.54141235351562 80.27863311767578 C 21.65934181213379 78.21369171142578 17.27447128295898 75.25723266601562 13.50862312316895 71.49137878417969 C 9.742764472961426 67.72553253173828 6.786305904388428 63.34066009521484 4.721364498138428 58.45858764648438 C 2.583823442459106 53.40486907958984 1.5 48.03562164306641 1.5 42.5 C 1.5 36.96437835693359 2.583823442459106 31.59512901306152 4.721364498138428 26.54141235351562 C 6.786305904388428 21.65934181213379 9.742764472961426 17.27448272705078 13.50862312316895 13.50862312316895 C 17.27447128295898 9.742776870727539 21.65934181213379 6.786305904388428 26.54141235351562 4.721364498138428 C 31.59512901306152 2.583823442459106 36.96437835693359 1.5 42.5 1.5 C 48.03562164306641 1.5 53.40486907958984 2.583823442459106 58.45858764648438 4.721364498138428 C 63.34066009521484 6.786305904388428 67.72553253173828 9.742776870727539 71.49137878417969 13.50862312316895 C 75.25723266601562 17.27448272705078 78.21369171142578 21.65934181213379 80.27863311767578 26.54141235351562 C 82.41617584228516 31.59512901306152 83.5 36.96437835693359 83.5 42.5 C 83.5 48.03562164306641 82.41617584228516 53.40486907958984 80.27863311767578 58.45858764648438 C 78.21369171142578 63.34066009521484 75.25723266601562 67.72553253173828 71.49137878417969 71.49137878417969 C 67.72553253173828 75.25723266601562 63.34066009521484 78.21369171142578 58.45858764648438 80.27863311767578 C 53.40486907958984 82.41617584228516 48.03562164306641 83.5 42.5 83.5 Z" stroke="none"/>
                                    <path d="M 42.5 3 C 37.16621398925781 3 31.99356079101562 4.043960571289062 27.125732421875 6.102882385253906 C 22.42246627807617 8.092185974121094 18.19785308837891 10.94070434570312 14.56928253173828 14.56928253173828 C 10.94070434570312 18.19785308837891 8.092185974121094 22.42246627807617 6.102882385253906 27.125732421875 C 4.043960571289062 31.99356079101562 3 37.16621398925781 3 42.5 C 3 47.83378601074219 4.043960571289062 53.00643920898438 6.102882385253906 57.874267578125 C 8.092185974121094 62.57753372192383 10.94070434570312 66.80214691162109 14.56928253173828 70.43071746826172 C 18.19785308837891 74.05929565429688 22.42246627807617 76.90781402587891 27.125732421875 78.89711761474609 C 31.99356079101562 80.95603942871094 37.16621398925781 82 42.5 82 C 47.83378601074219 82 53.00643920898438 80.95603942871094 57.874267578125 78.89711761474609 C 62.57753372192383 76.90781402587891 66.80214691162109 74.05929565429688 70.43071746826172 70.43071746826172 C 74.05929565429688 66.80214691162109 76.90781402587891 62.57753372192383 78.89711761474609 57.874267578125 C 80.95603942871094 53.00643920898438 82 47.83378601074219 82 42.5 C 82 37.16621398925781 80.95603942871094 31.99356079101562 78.89711761474609 27.125732421875 C 76.90781402587891 22.42246627807617 74.05929565429688 18.19785308837891 70.43071746826172 14.56928253173828 C 66.80214691162109 10.94070434570312 62.57753372192383 8.092185974121094 57.874267578125 6.102882385253906 C 53.00643920898438 4.043960571289062 47.83378601074219 3 42.5 3 M 42.5 0 C 65.97210693359375 0 85 19.02789306640625 85 42.5 C 85 65.97210693359375 65.97210693359375 85 42.5 85 C 19.02789306640625 85 0 65.97210693359375 0 42.5 C 0 19.02789306640625 19.02789306640625 0 42.5 0 Z" stroke="none" fill="#856002"/>
                                  </g>
                                </g>
                              </g>
                            </g>
                          </g>
                        </g>
                      </g>
                    </g>
                  </g>
                </g>
              </g>
            </g>
          </g>
        </g>
      </g>
    </g>
    <g id="interfaces" transform="translate(824.937 4100.42)">
      <g id="Grupo_1226965" data-name="Grupo 1226965" transform="translate(26.03 4.828)">
        <g id="Grupo_1226959" data-name="Grupo 1226959" transform="translate(0 0)">
          <path id="Trazado_1058640" data-name="Trazado 1058640" d="M71.067,10.726v32.01c0,.523-.562,1.025-1.581,1.482a12.461,12.461,0,0,1-1.507.551V30.253a1.884,1.884,0,0,0-1.886-1.884H32.974a1.884,1.884,0,0,0-1.886,1.884V44.769a12.461,12.461,0,0,1-1.507-.551C28.562,43.761,28,43.259,28,42.736V10.726C28,8.551,37.641,6.79,49.534,6.79s21.534,1.761,21.534,3.936Z" transform="translate(-28 -6.79)" fill="#fc5d3d"/>
          <path id="Trazado_1058641" data-name="Trazado 1058641" d="M75.246,103.392v13.965a12.462,12.462,0,0,1-1.507.551V103.392a1.884,1.884,0,0,0-1.886-1.884H38.734a1.884,1.884,0,0,0-1.886,1.884v14.516a12.461,12.461,0,0,1-1.507-.551V103.392A3.4,3.4,0,0,1,38.734,100H71.852A3.4,3.4,0,0,1,75.246,103.392Z" transform="translate(-33.759 -79.928)" fill="#b34f33"/>
        </g>
        <g id="Grupo_1226963" data-name="Grupo 1226963" transform="translate(0.713 21.579)">
          <g id="Grupo_1226962" data-name="Grupo 1226962">
            <g id="Grupo_1226961" data-name="Grupo 1226961">
              <g id="Grupo_1226960" data-name="Grupo 1226960">
                <path id="Trazado_1058642" data-name="Trazado 1058642" d="M72.169,131.539h-1.59V108.884A1.884,1.884,0,0,0,68.693,107H35.574a1.884,1.884,0,0,0-1.886,1.884v22.655H32.1a.785.785,0,0,0-.784.786v.994a4.207,4.207,0,0,0,4.207,4.207H68.746a4.207,4.207,0,0,0,4.207-4.207v-.994A.784.784,0,0,0,72.169,131.539Z" transform="translate(-31.313 -107)" fill="#72c2e9"/>
                <path id="Trazado_1058643" data-name="Trazado 1058643" d="M116.438,220.958v1.092a1.459,1.459,0,0,1-1.459,1.459h-5.828a1.459,1.459,0,0,1-1.459-1.459v-1.092Z" transform="translate(-91.245 -196.419)" fill="#4ba5c8"/>
                <path id="Trazado_1058644" data-name="Trazado 1058644" d="M55.467,122.2v18.442H86.7V122.2Z" transform="translate(-50.266 -118.926)" fill="#f0c020"/>
              </g>
            </g>
          </g>
        </g>
        <g id="Grupo_1226964" data-name="Grupo 1226964" transform="translate(7.534 26.471)">
          <path id="Trazado_1058645" data-name="Trazado 1058645" d="M90.452,144.928H66.258a.538.538,0,0,1,0-1.077H89.914v-13.6a.538.538,0,0,1,1.077,0v14.136A.538.538,0,0,1,90.452,144.928Zm-26.348,0h-.584a.538.538,0,0,1,0-1.077H64.1A.538.538,0,0,1,64.1,144.928Z" transform="translate(-62.987 -129.72)" fill="#f8e5b0"/>
        </g>
        <path id="Trazado_1058646" data-name="Trazado 1058646" d="M90.451,40.729a.538.538,0,0,0,.039-1.074h0a.538.538,0,1,0-.034,1.074Z" transform="translate(-76.581 -32.577)"/>
        <circle id="Elipse_13555" data-name="Elipse 13555" cx="0.538" cy="0.538" r="0.538" transform="translate(31.523 24.314)"/>
        <path id="Trazado_1058647" data-name="Trazado 1058647" d="M84.745,119.7H81.808a.538.538,0,0,0,0,1.077h2.4v17.365H54.047V120.777H77.5a.538.538,0,0,0,0-1.077H53.508a.537.537,0,0,0-.538.538V138.68a.537.537,0,0,0,.538.538H84.745a.537.537,0,0,0,.538-.538V120.238A.537.537,0,0,0,84.745,119.7Z" transform="translate(-47.593 -95.386)"/>
        <path id="Trazado_1058648" data-name="Trazado 1058648" d="M132.3,170.463a.538.538,0,0,0,0,1.077h3.088a.538.538,0,0,0,0-1.077h-1.006v-4.094a.538.538,0,0,0-.78-.48l-1.454.728a.538.538,0,0,0,.482.963l.674-.338v3.221H132.3Z" transform="translate(-109.418 -131.584)"/>
        <path id="Trazado_1058649" data-name="Trazado 1058649" d="M135.9,134.85a2.082,2.082,0,0,0-4.165,0v1.544a2.082,2.082,0,0,0,4.165,0Zm-1.077,1.544a1.006,1.006,0,0,1-2.011,0V134.85a1.006,1.006,0,0,1,2.011,0Z" transform="translate(-109.401 -105.655)"/>
        <path id="Trazado_1058650" data-name="Trazado 1058650" d="M160.418,132.753l-1.454.73a.538.538,0,0,0,.482.963l.674-.338v3.221h-1.006a.538.538,0,0,0,0,1.077H162.2a.538.538,0,0,0,0-1.077H161.2v-4.094A.54.54,0,0,0,160.418,132.753Z" transform="translate(-130.462 -105.584)"/>
        <path id="Trazado_1058651" data-name="Trazado 1058651" d="M158.56,167.978v1.544a2.082,2.082,0,0,0,4.165,0v-1.544A2.082,2.082,0,0,0,158.56,167.978Zm3.088,1.544a1.007,1.007,0,0,1-2.013,0v-1.544a1.007,1.007,0,0,1,2.013,0Z" transform="translate(-130.446 -131.649)"/>
        <path id="Trazado_1058652" data-name="Trazado 1058652" d="M78.655,170.463a.538.538,0,0,0,0,1.077h3.088a.538.538,0,0,0,0-1.077H80.738V166.37a.537.537,0,0,0-.78-.48l-1.451.728a.538.538,0,0,0,.482.963l.672-.338v3.221H78.655Z" transform="translate(-67.329 -131.584)"/>
        <path id="Trazado_1058653" data-name="Trazado 1058653" d="M82.265,136.392v-1.544a2.082,2.082,0,0,0-4.165,0v1.544A2.082,2.082,0,0,0,82.265,136.392Zm-3.088-1.544a1.006,1.006,0,0,1,2.011,0v1.544a1.006,1.006,0,0,1-2.011,0Z" transform="translate(-67.312 -105.653)"/>
        <path id="Trazado_1058654" data-name="Trazado 1058654" d="M108.563,137.329h-1.006v-4.094a.539.539,0,0,0-.78-.482l-1.454.73a.538.538,0,0,0,.482.963l.674-.338v3.221h-1.006a.538.538,0,0,0,0,1.077h3.088A.538.538,0,0,0,108.563,137.329Z" transform="translate(-88.373 -105.584)"/>
        <path id="Trazado_1058655" data-name="Trazado 1058655" d="M104.92,167.98v1.544a2.082,2.082,0,0,0,4.165,0V167.98A2.082,2.082,0,0,0,104.92,167.98Zm3.088,1.544a1.006,1.006,0,0,1-2.011,0V167.98a1.006,1.006,0,0,1,2.011,0Z" transform="translate(-88.356 -131.65)"/>
      </g>
      <g id="Grupo_1226966" data-name="Grupo 1226966" transform="translate(25.49 4.29)">
        <circle id="Elipse_13556" data-name="Elipse 13556" cx="0.538" cy="0.538" r="0.538" transform="translate(13.454 52.105)"/>
        <path id="Trazado_1058656" data-name="Trazado 1058656" d="M47.564,4.29c-22.752,0-22.072,4.473-22.072,4.473V40.774c0,1.281,1.856,2.022,3.088,2.427v7.207H27.529A1.329,1.329,0,0,0,26.2,51.733v.993a4.754,4.754,0,0,0,4.746,4.746h6.378a.538.538,0,0,0,0-1.077h-6.38a3.683,3.683,0,0,1-3.669-3.669v-.993a.245.245,0,0,1,.248-.247H42.652v.553a2,2,0,0,0,2,2h5.827a2,2,0,0,0,2-2v-.553H67.6a.245.245,0,0,1,.248.247v.993a3.683,3.683,0,0,1-3.669,3.669H41.634a.538.538,0,0,0,0,1.077H64.177a4.752,4.752,0,0,0,4.746-4.746v-.993A1.327,1.327,0,0,0,67.6,50.409H66.548V43.2c1.219-.4,3.088-1.141,3.088-2.427V8.763c0-3.975-17.927-4.473-22.072-4.473Zm-21,36.484V31.786a8.265,8.265,0,0,0,2.011.9v9.374c-.485-.172-2.011-.78-2.011-1.29ZM51.4,52.039a.927.927,0,0,1-.922.921H44.651a.927.927,0,0,1-.922-.921v-.553H51.4Zm-21.743-1.63V28.291A1.351,1.351,0,0,1,31,26.946H64.123a1.351,1.351,0,0,1,1.348,1.346V50.409H29.657Zm38.9-9.634c0,.51-1.522,1.115-2.011,1.29V32.673a8.352,8.352,0,0,0,2.011-.9Zm0-10.629c0,.172-.159.739-2.011,1.393V28.291a2.43,2.43,0,0,0-2.425-2.423H31a2.428,2.428,0,0,0-2.425,2.423v3.262c-1.852-.655-2.011-1.234-2.011-1.408v-9C32.2,24.87,62.9,24.859,68.559,21.129ZM42.026,13.106c11.068.543,23.1-.607,26.534-2.806v9.21c0,4.367-41.991,4.367-41.991,0V10.3C28.9,11.816,34.93,12.546,37.7,12.8a.538.538,0,0,0,.1-1.072c-1.723-.162-11.228-1.258-11.234-2.967.013-2.39,14.824-3.4,21-3.4,13.459,0,20.991,2.138,21,3.4.041,1.57-11.075,4.012-26.482,3.267A.538.538,0,0,0,42.026,13.106Z" transform="translate(-25.49 -4.29)"/>
      </g>
    </g>
  </g>
</svg>
