<svg xmlns="http://www.w3.org/2000/svg" xmlns:xlink="http://www.w3.org/1999/xlink" width="103" height="103" viewBox="0 0 103 103">
  <defs>
    <filter id="Trazado_982547" x="0" y="0" width="103" height="103" filterUnits="userSpaceOnUse">
      <feOffset dy="3" input="SourceAlpha"/>
      <feGaussianBlur stdDeviation="3" result="blur"/>
      <feFlood flood-opacity="0.161"/>
      <feComposite operator="in" in2="blur"/>
      <feComposite in="SourceGraphic"/>
    </filter>
  </defs>
  <g id="Grupo_1226969" data-name="Grupo 1226969" transform="translate(-1136 -4082.801)">
    <g id="Grupo_1226409" data-name="Grupo 1226409" transform="translate(1145 4088.801)">
      <g id="Grupo_1225608" data-name="Grupo 1225608">
        <g id="Grupo_1225482" data-name="Grupo 1225482">
          <g id="Grupo_1210959" data-name="Grupo 1210959">
            <g id="Grupo_1210290" data-name="Grupo 1210290">
              <g id="Grupo_1207485" data-name="Grupo 1207485">
                <g id="Grupo_1207313" data-name="Grupo 1207313">
                  <g id="Grupo_1202212" data-name="Grupo 1202212">
                    <g id="Grupo_1174813" data-name="Grupo 1174813">
                      <g id="Grupo_1201680" data-name="Grupo 1201680">
                        <g id="Grupo_1201330" data-name="Grupo 1201330">
                          <g id="Grupo_1172010" data-name="Grupo 1172010">
                            <g id="Grupo_1171046" data-name="Grupo 1171046">
                              <g id="Grupo_1148525" data-name="Grupo 1148525">
                                <g transform="matrix(1, 0, 0, 1, -9, -6)" filter="url(#Trazado_982547)">
                                  <g id="Trazado_982547-2" data-name="Trazado 982547" transform="translate(9 6)" fill="#fdf6e4">
                                    <path d="M 42.5 83.5 C 36.96437835693359 83.5 31.59512901306152 82.41617584228516 26.54141235351562 80.27863311767578 C 21.65934181213379 78.21369171142578 17.27447128295898 75.25723266601562 13.50862312316895 71.49137878417969 C 9.742764472961426 67.72553253173828 6.786305904388428 63.34066009521484 4.721364498138428 58.45858764648438 C 2.583823442459106 53.40486907958984 1.5 48.03562164306641 1.5 42.5 C 1.5 36.96437835693359 2.583823442459106 31.59512901306152 4.721364498138428 26.54141235351562 C 6.786305904388428 21.65934181213379 9.742764472961426 17.27448272705078 13.50862312316895 13.50862312316895 C 17.27447128295898 9.742776870727539 21.65934181213379 6.786305904388428 26.54141235351562 4.721364498138428 C 31.59512901306152 2.583823442459106 36.96437835693359 1.5 42.5 1.5 C 48.03562164306641 1.5 53.40486907958984 2.583823442459106 58.45858764648438 4.721364498138428 C 63.34066009521484 6.786305904388428 67.72553253173828 9.742776870727539 71.49137878417969 13.50862312316895 C 75.25723266601562 17.27448272705078 78.21369171142578 21.65934181213379 80.27863311767578 26.54141235351562 C 82.41617584228516 31.59512901306152 83.5 36.96437835693359 83.5 42.5 C 83.5 48.03562164306641 82.41617584228516 53.40486907958984 80.27863311767578 58.45858764648438 C 78.21369171142578 63.34066009521484 75.25723266601562 67.72553253173828 71.49137878417969 71.49137878417969 C 67.72553253173828 75.25723266601562 63.34066009521484 78.21369171142578 58.45858764648438 80.27863311767578 C 53.40486907958984 82.41617584228516 48.03562164306641 83.5 42.5 83.5 Z" stroke="none"/>
                                    <path d="M 42.5 3 C 37.16621398925781 3 31.99356079101562 4.043960571289062 27.125732421875 6.102882385253906 C 22.42246627807617 8.092185974121094 18.19785308837891 10.94070434570312 14.56928253173828 14.56928253173828 C 10.94070434570312 18.19785308837891 8.092185974121094 22.42246627807617 6.102882385253906 27.125732421875 C 4.043960571289062 31.99356079101562 3 37.16621398925781 3 42.5 C 3 47.83378601074219 4.043960571289062 53.00643920898438 6.102882385253906 57.874267578125 C 8.092185974121094 62.57753372192383 10.94070434570312 66.80214691162109 14.56928253173828 70.43071746826172 C 18.19785308837891 74.05929565429688 22.42246627807617 76.90781402587891 27.125732421875 78.89711761474609 C 31.99356079101562 80.95603942871094 37.16621398925781 82 42.5 82 C 47.83378601074219 82 53.00643920898438 80.95603942871094 57.874267578125 78.89711761474609 C 62.57753372192383 76.90781402587891 66.80214691162109 74.05929565429688 70.43071746826172 70.43071746826172 C 74.05929565429688 66.80214691162109 76.90781402587891 62.57753372192383 78.89711761474609 57.874267578125 C 80.95603942871094 53.00643920898438 82 47.83378601074219 82 42.5 C 82 37.16621398925781 80.95603942871094 31.99356079101562 78.89711761474609 27.125732421875 C 76.90781402587891 22.42246627807617 74.05929565429688 18.19785308837891 70.43071746826172 14.56928253173828 C 66.80214691162109 10.94070434570312 62.57753372192383 8.092185974121094 57.874267578125 6.102882385253906 C 53.00643920898438 4.043960571289062 47.83378601074219 3 42.5 3 M 42.5 0 C 65.97210693359375 0 85 19.02789306640625 85 42.5 C 85 65.97210693359375 65.97210693359375 85 42.5 85 C 19.02789306640625 85 0 65.97210693359375 0 42.5 C 0 19.02789306640625 19.02789306640625 0 42.5 0 Z" stroke="none" fill="#856002"/>
                                  </g>
                                </g>
                              </g>
                            </g>
                          </g>
                        </g>
                      </g>
                    </g>
                  </g>
                </g>
              </g>
            </g>
          </g>
        </g>
      </g>
    </g>
    <g id="codigo-binario_1_" data-name="codigo-binario (1)" transform="translate(1128.613 4104.149)">
      <path id="Trazado_1058657" data-name="Trazado 1058657" d="M79.061,60.212H44.7a1.7,1.7,0,0,1-1.7-1.7V9.2a1.7,1.7,0,0,1,1.7-1.7H79.061a1.7,1.7,0,0,1,1.7,1.7V58.515A1.7,1.7,0,0,1,79.061,60.212Z" transform="translate(-6.705 -6.705)" fill="#eaf6ff"/>
      <path id="Trazado_1058658" data-name="Trazado 1058658" d="M356.182,7.5H353a1.7,1.7,0,0,1,1.7,1.7V58.515a1.7,1.7,0,0,1-1.7,1.7h3.182a1.7,1.7,0,0,0,1.7-1.7V9.2A1.7,1.7,0,0,0,356.182,7.5Z" transform="translate(-283.826 -6.705)" fill="#d8ecfe"/>
      <path id="Trazado_1058659" data-name="Trazado 1058659" d="M80.758,13.864H43V9.2a1.7,1.7,0,0,1,1.7-1.7H79.061a1.7,1.7,0,0,1,1.7,1.7Z" transform="translate(-6.705 -6.705)" fill="#2abcc8"/>
      <path id="Trazado_1058660" data-name="Trazado 1058660" d="M356.182,7.5H353a1.7,1.7,0,0,1,1.7,1.7v4.667h3.182V9.2A1.7,1.7,0,0,0,356.182,7.5Z" transform="translate(-283.826 -6.705)" fill="#0cacba"/>
      <path id="Trazado_1058661" data-name="Trazado 1058661" d="M81.924,10.894A1.591,1.591,0,0,1,80.333,9.3V7.5h3.182V9.3A1.591,1.591,0,0,1,81.924,10.894Z" transform="translate(-40.078 -6.705)" fill="#fe7ab6"/>
      <path id="Trazado_1058662" data-name="Trazado 1058662" d="M137.258,10.894A1.591,1.591,0,0,1,135.667,9.3V7.5h3.182V9.3A1.591,1.591,0,0,1,137.258,10.894Z" transform="translate(-89.543 -6.705)" fill="#fdb441"/>
      <path id="Trazado_1058663" data-name="Trazado 1058663" d="M192.591,10.894A1.591,1.591,0,0,1,191,9.3V7.5h3.182V9.3A1.591,1.591,0,0,1,192.591,10.894Z" transform="translate(-139.008 -6.705)" fill="#edf9d9"/>
      <path id="Trazado_1058664" data-name="Trazado 1058664" d="M258.121,232.076H236.7a1.7,1.7,0,0,1-1.7-1.7V206.2a1.7,1.7,0,0,1,1.7-1.7h21.424a1.7,1.7,0,0,1,1.7,1.7v24.182A1.7,1.7,0,0,1,258.121,232.076Z" transform="translate(-178.341 -182.811)" fill="#d8ecfe"/>
      <path id="Trazado_1058665" data-name="Trazado 1058665" d="M426.182,204.5H423a1.7,1.7,0,0,1,1.7,1.7v24.182a1.7,1.7,0,0,1-1.7,1.7h3.182a1.7,1.7,0,0,0,1.7-1.7V206.2A1.7,1.7,0,0,0,426.182,204.5Z" transform="translate(-346.401 -182.811)" fill="#c4e2ff"/>
      <path id="Trazado_1058666" data-name="Trazado 1058666" d="M265.634,393.3a1.8,1.8,0,0,1,1.8-1.8h14.424a1.8,1.8,0,0,1,0,3.606H267.437A1.8,1.8,0,0,1,265.634,393.3Z" transform="translate(-205.726 -349.977)" fill="#fdb441"/>
      <path id="Trazado_1058667" data-name="Trazado 1058667" d="M391.816,391.5h-3.182a1.8,1.8,0,0,1,0,3.606h3.182a1.8,1.8,0,1,0,0-3.606Z" transform="translate(-315.68 -349.977)" fill="#fe9738"/>
      <path id="Trazado_1058668" data-name="Trazado 1058668" d="M259.818,210.652H235V206.2a1.7,1.7,0,0,1,1.7-1.7h21.424a1.7,1.7,0,0,1,1.7,1.7Z" transform="translate(-178.341 -182.811)" fill="#2abcc8"/>
      <path id="Trazado_1058669" data-name="Trazado 1058669" d="M426.182,204.5H423a1.7,1.7,0,0,1,1.7,1.7v4.455h3.182V206.2A1.7,1.7,0,0,0,426.182,204.5Z" transform="translate(-346.401 -182.811)" fill="#0cacba"/>
      <path id="Trazado_1058670" data-name="Trazado 1058670" d="M94.546,274.7H85.06a.56.56,0,0,1-.56-.56V257.226a.56.56,0,0,1,.56-.56h9.487a.56.56,0,0,1,.56.56v16.911A.56.56,0,0,1,94.546,274.7Z" transform="translate(-43.803 -229.444)" fill="#fe7ab6"/>
      <path id="Trazado_1058671" data-name="Trazado 1058671" d="M152.4,256.667h-3.182a.56.56,0,0,1,.56.56v16.911a.56.56,0,0,1-.56.56H152.4a.56.56,0,0,0,.56-.56V257.227A.56.56,0,0,0,152.4,256.667Z" transform="translate(-101.661 -229.445)" fill="#fe5ca7"/>
      <g id="Grupo_1226968" data-name="Grupo 1226968" transform="translate(35.5)">
        <path id="Trazado_1058672" data-name="Trazado 1058672" d="M289.344,292.7h5.144a.8.8,0,0,0,0-1.591h-5.144A.8.8,0,0,0,289.344,292.7Z" transform="translate(-261.716 -260.235)"/>
        <path id="Trazado_1058673" data-name="Trazado 1058673" d="M289.344,318.924h12.727a.8.8,0,0,0,0-1.591H289.344A.8.8,0,0,0,289.344,318.924Z" transform="translate(-261.716 -283.676)"/>
        <path id="Trazado_1058674" data-name="Trazado 1058674" d="M289.344,345.147h10.977a.8.8,0,0,0,0-1.591H289.344A.8.8,0,0,0,289.344,345.147Z" transform="translate(-261.716 -307.118)"/>
        <path id="Trazado_1058675" data-name="Trazado 1058675" d="M79.78,20.894H74.849V2.492A2.5,2.5,0,0,0,72.356,0H37.992A2.5,2.5,0,0,0,35.5,2.492V12.648a.8.8,0,0,0,1.591,0V7.955H73.258V20.894h-14.9a2.5,2.5,0,0,0-2.492,2.492V47.568a2.5,2.5,0,0,0,2.492,2.492h7.177a.8.8,0,0,0,0-1.591H58.356a.9.9,0,0,1-.9-.9V28.636H80.682V47.568a.9.9,0,0,1-.9.9H69.316a.8.8,0,0,0,0,1.591h3.942v1.75a.9.9,0,0,1-.9.9H37.992a.9.9,0,0,1-.9-.9V16.652a.8.8,0,0,0-1.591,0V51.811A2.5,2.5,0,0,0,37.992,54.3H72.356a2.5,2.5,0,0,0,2.492-2.492v-1.75H79.78a2.5,2.5,0,0,0,2.492-2.492V23.386A2.5,2.5,0,0,0,79.78,20.894Zm-25.4-19.3V2.6a.8.8,0,0,1-1.591,0V1.591Zm-5.869,0V2.6a.8.8,0,0,1-1.591,0V1.591Zm-5.869,0V2.6a.8.8,0,0,1-1.591,0V1.591Zm-5.55,4.773V2.492a.9.9,0,0,1,.9-.9H39.46V2.6a2.386,2.386,0,0,0,4.773,0V1.591h1.1V2.6a2.386,2.386,0,0,0,4.773,0V1.591h1.1V2.6a2.386,2.386,0,0,0,4.773,0V1.591H72.356a.9.9,0,0,1,.9.9V6.364ZM57.455,27.046V23.386a.9.9,0,0,1,.9-.9H79.78a.9.9,0,0,1,.9.9v3.659Z" transform="translate(-35.5)"/>
        <path id="Trazado_1058676" data-name="Trazado 1058676" d="M258.134,386.6a2.6,2.6,0,0,0,2.6,2.6h14.424a2.6,2.6,0,0,0,0-5.2H260.732A2.6,2.6,0,0,0,258.134,386.6Zm18.03,0a1.009,1.009,0,0,1-1.008,1.008H260.732a1.008,1.008,0,0,1,0-2.015h14.424A1.009,1.009,0,0,1,276.164,386.6Z" transform="translate(-234.521 -343.273)"/>
        <path id="Trazado_1058677" data-name="Trazado 1058677" d="M77,250.521v16.911a1.357,1.357,0,0,0,1.355,1.355h9.487a1.357,1.357,0,0,0,1.355-1.355V250.521a1.357,1.357,0,0,0-1.355-1.355H78.355A1.357,1.357,0,0,0,77,250.521Zm1.591.236h9.015V267.2H78.591Z" transform="translate(-72.598 -222.739)"/>
        <path id="Trazado_1058678" data-name="Trazado 1058678" d="M106.19,283.758h2.616a.8.8,0,0,0,0-1.591H106.19A.8.8,0,0,0,106.19,283.758Z" transform="translate(-97.987 -252.24)"/>
        <path id="Trazado_1058679" data-name="Trazado 1058679" d="M108.806,379.5H106.19a.8.8,0,0,0,0,1.591h2.616A.8.8,0,0,0,108.806,379.5Z" transform="translate(-97.987 -339.25)"/>
        <path id="Trazado_1058680" data-name="Trazado 1058680" d="M110.608,306.5H106.19a.8.8,0,0,0,0,1.591h4.418A.8.8,0,0,0,110.608,306.5Z" transform="translate(-97.987 -273.992)"/>
        <path id="Trazado_1058681" data-name="Trazado 1058681" d="M110.608,330.833H106.19a.8.8,0,0,0,0,1.591h4.418A.8.8,0,0,0,110.608,330.833Z" transform="translate(-97.987 -295.745)"/>
        <path id="Trazado_1058682" data-name="Trazado 1058682" d="M86.7,118.8v-1.061a2.6,2.6,0,0,0-5.2,0V118.8A2.6,2.6,0,0,0,86.7,118.8Zm-3.606,0v-1.061a1.008,1.008,0,0,1,2.015,0V118.8A1.008,1.008,0,0,1,83.091,118.8Z" transform="translate(-76.621 -102.946)"/>
        <path id="Trazado_1058683" data-name="Trazado 1058683" d="M149.091,120.011v-4.667a.8.8,0,0,0-1.591,0v4.667A.8.8,0,0,0,149.091,120.011Z" transform="translate(-135.621 -102.405)"/>
        <path id="Trazado_1058684" data-name="Trazado 1058684" d="M184.7,118.8v-1.061a2.6,2.6,0,0,0-5.2,0V118.8A2.6,2.6,0,0,0,184.7,118.8Zm-3.606,0v-1.061a1.008,1.008,0,0,1,2.015,0V118.8A1.008,1.008,0,0,1,181.091,118.8Z" transform="translate(-164.227 -102.946)"/>
        <path id="Trazado_1058685" data-name="Trazado 1058685" d="M247.091,120.011v-4.667a.8.8,0,0,0-1.591,0v4.667A.8.8,0,0,0,247.091,120.011Z" transform="translate(-223.227 -102.405)"/>
        <path id="Trazado_1058686" data-name="Trazado 1058686" d="M282.7,118.8v-1.061a2.6,2.6,0,0,0-5.2,0V118.8A2.6,2.6,0,0,0,282.7,118.8Zm-3.606,0v-1.061a1.008,1.008,0,0,1,2.015,0V118.8A1.008,1.008,0,0,1,279.091,118.8Z" transform="translate(-251.833 -102.946)"/>
        <path id="Trazado_1058687" data-name="Trazado 1058687" d="M345.091,120.011v-4.667a.8.8,0,0,0-1.591,0v4.667A.8.8,0,0,0,345.091,120.011Z" transform="translate(-310.833 -102.405)"/>
      </g>
    </g>
  </g>
</svg>
