<svg xmlns="http://www.w3.org/2000/svg" xmlns:xlink="http://www.w3.org/1999/xlink" width="400" height="128.016" viewBox="0 0 400 128.016">
  <defs>
    <clipPath id="clip-path">
      <path id="Trazado_1058455" data-name="Trazado 1058455" d="M2697.844,1361.282c-3.078-.5-3.341,4.365-1.462,7.4,2.875,4.638,5.693.782,6.314-.969C2703.832,1364.507,2701.616,1361.9,2697.844,1361.282Z" transform="translate(-2695.198 -1361.246)"/>
    </clipPath>
  </defs>
  <g id="Grupo_1226927" data-name="Grupo 1226927" transform="translate(-1019.656 -1186.984)">
    <g id="Grupo_1226323" data-name="Grupo 1226323" transform="translate(-0.344 -10986.124)">
      <g id="Grupo_1225644" data-name="Grupo 1225644" transform="translate(1020 12197.344)">
        <rect id="equipo-de-desarrolladores-haciendo-una-tormenta-de-ideas-para-optimizar-el-codigo" width="400" height="89.78" rx="5" transform="translate(0 7)" fill="#3b2a76"/>
        <rect id="equipo-de-desarrolladores-haciendo-una-tormenta-de-ideas-para-optimizar-el-codigo-2" data-name="equipo-de-desarrolladores-haciendo-una-tormenta-de-ideas-para-optimizar-el-codigo" width="326" height="103.78" rx="5" transform="translate(37 0)" fill="#00dcfd"/>
      </g>
    </g>
    <g id="Grupo_1226926" data-name="Grupo 1226926" transform="translate(-7106.222 612.063)">
      <g id="windows" transform="translate(8167.597 574.921)">
        <g id="Grupo_1226831" data-name="Grupo 1226831" transform="translate(66.857 5.14)">
          <rect id="Rectángulo_422576" data-name="Rectángulo 422576" width="66.015" height="50.079" transform="translate(0 5.654)" fill="#aae0ff"/>
          <g id="Grupo_1226818" data-name="Grupo 1226818" transform="translate(4.439 11.162)">
            <rect id="Rectángulo_422577" data-name="Rectángulo 422577" width="1.441" height="1.99" fill="#fff"/>
            <rect id="Rectángulo_422578" data-name="Rectángulo 422578" width="1.441" height="1.99" transform="translate(0 3.192)" fill="#fff"/>
            <rect id="Rectángulo_422579" data-name="Rectángulo 422579" width="1.441" height="1.99" transform="translate(0 6.384)" fill="#fff"/>
            <rect id="Rectángulo_422580" data-name="Rectángulo 422580" width="1.441" height="1.99" transform="translate(0 9.575)" fill="#fff"/>
            <rect id="Rectángulo_422581" data-name="Rectángulo 422581" width="1.441" height="1.99" transform="translate(0 12.767)" fill="#fff"/>
            <rect id="Rectángulo_422582" data-name="Rectángulo 422582" width="1.441" height="1.99" transform="translate(0 15.959)" fill="#fff"/>
            <rect id="Rectángulo_422583" data-name="Rectángulo 422583" width="1.441" height="1.99" transform="translate(0 19.151)" fill="#fff"/>
            <rect id="Rectángulo_422584" data-name="Rectángulo 422584" width="1.441" height="1.99" transform="translate(0 22.342)" fill="#fff"/>
            <rect id="Rectángulo_422585" data-name="Rectángulo 422585" width="1.441" height="1.99" transform="translate(0 25.534)" fill="#fff"/>
            <rect id="Rectángulo_422586" data-name="Rectángulo 422586" width="1.441" height="1.99" transform="translate(0 28.726)" fill="#fff"/>
            <rect id="Rectángulo_422587" data-name="Rectángulo 422587" width="1.441" height="1.99" transform="translate(0 31.918)" fill="#fff"/>
            <rect id="Rectángulo_422588" data-name="Rectángulo 422588" width="1.441" height="1.99" transform="translate(0 35.11)" fill="#fff"/>
            <rect id="Rectángulo_422589" data-name="Rectángulo 422589" width="1.441" height="1.99" transform="translate(0 38.301)" fill="#fff"/>
          </g>
          <g id="Grupo_1226819" data-name="Grupo 1226819" transform="translate(8.921 11.162)">
            <rect id="Rectángulo_422590" data-name="Rectángulo 422590" width="13.435" height="1.99" fill="#407bd6"/>
            <rect id="Rectángulo_422591" data-name="Rectángulo 422591" width="13.435" height="1.99" transform="translate(21.131)" fill="#407bd6"/>
            <rect id="Rectángulo_422592" data-name="Rectángulo 422592" width="5.806" height="1.99" transform="translate(14.312)" fill="#407bd6"/>
            <rect id="Rectángulo_422593" data-name="Rectángulo 422593" width="5.806" height="1.99" transform="translate(35.51)" fill="#407bd6"/>
          </g>
          <g id="Grupo_1226820" data-name="Grupo 1226820" transform="translate(8.921 14.425)">
            <rect id="Rectángulo_422594" data-name="Rectángulo 422594" width="8.527" height="1.99" fill="#407bd6"/>
            <rect id="Rectángulo_422595" data-name="Rectángulo 422595" width="12.31" height="1.99" transform="translate(17.984)" fill="#f7440c"/>
            <rect id="Rectángulo_422596" data-name="Rectángulo 422596" width="7.567" height="1.99" transform="translate(9.404)" fill="#407bd6"/>
            <rect id="Rectángulo_422597" data-name="Rectángulo 422597" width="7.054" height="1.99" transform="translate(31.239)" fill="#407bd6"/>
          </g>
          <g id="Grupo_1226821" data-name="Grupo 1226821" transform="translate(8.921 17.767)">
            <rect id="Rectángulo_422598" data-name="Rectángulo 422598" width="11.487" height="1.99" fill="#407bd6"/>
            <rect id="Rectángulo_422599" data-name="Rectángulo 422599" width="7.472" height="1.99" transform="translate(18.678)" fill="#407bd6"/>
            <rect id="Rectángulo_422600" data-name="Rectángulo 422600" width="5.228" height="1.99" transform="translate(12.398)" fill="#407bd6"/>
          </g>
          <g id="Grupo_1226822" data-name="Grupo 1226822" transform="translate(12.87 21.138)">
            <rect id="Rectángulo_422601" data-name="Rectángulo 422601" width="9.485" height="1.99" fill="#407bd6"/>
            <rect id="Rectángulo_422602" data-name="Rectángulo 422602" width="13.435" height="1.99" transform="translate(17.182)" fill="#407bd6"/>
            <rect id="Rectángulo_422603" data-name="Rectángulo 422603" width="5.806" height="1.99" transform="translate(10.363)" fill="#407bd6"/>
            <rect id="Rectángulo_422604" data-name="Rectángulo 422604" width="5.806" height="1.99" transform="translate(31.561)" fill="#407bd6"/>
          </g>
          <g id="Grupo_1226823" data-name="Grupo 1226823" transform="translate(18.325 24.401)">
            <rect id="Rectángulo_422605" data-name="Rectángulo 422605" width="12.31" height="1.99" transform="translate(8.58)" fill="#407bd6"/>
            <rect id="Rectángulo_422606" data-name="Rectángulo 422606" width="7.567" height="1.99" fill="#f7440c"/>
            <rect id="Rectángulo_422607" data-name="Rectángulo 422607" width="7.054" height="1.99" transform="translate(21.835)" fill="#407bd6"/>
          </g>
          <g id="Grupo_1226824" data-name="Grupo 1226824" transform="translate(8.921 31.114)">
            <rect id="Rectángulo_422608" data-name="Rectángulo 422608" width="13.435" height="1.99" fill="#407bd6"/>
            <rect id="Rectángulo_422609" data-name="Rectángulo 422609" width="13.435" height="1.99" transform="translate(21.131)" fill="#407bd6"/>
            <rect id="Rectángulo_422610" data-name="Rectángulo 422610" width="5.806" height="1.99" transform="translate(14.312)" fill="#407bd6"/>
          </g>
          <g id="Grupo_1226825" data-name="Grupo 1226825" transform="translate(18.325 34.377)">
            <rect id="Rectángulo_422611" data-name="Rectángulo 422611" width="8.527" height="1.99" transform="translate(0.002 3.629)" fill="#407bd6"/>
            <rect id="Rectángulo_422612" data-name="Rectángulo 422612" width="12.31" height="1.99" transform="translate(8.58)" fill="#407bd6"/>
            <rect id="Rectángulo_422613" data-name="Rectángulo 422613" width="7.567" height="1.99" fill="#407bd6"/>
            <rect id="Rectángulo_422614" data-name="Rectángulo 422614" width="7.054" height="1.99" transform="translate(21.835)" fill="#407bd6"/>
          </g>
          <g id="Grupo_1226826" data-name="Grupo 1226826" transform="translate(8.921 42.846)">
            <rect id="Rectángulo_422615" data-name="Rectángulo 422615" width="13.435" height="1.99" fill="#407bd6"/>
            <rect id="Rectángulo_422616" data-name="Rectángulo 422616" width="5.806" height="1.99" transform="translate(14.312)" fill="#407bd6"/>
          </g>
          <g id="Grupo_1226827" data-name="Grupo 1226827" transform="translate(8.921 46.109)">
            <rect id="Rectángulo_422617" data-name="Rectángulo 422617" width="8.527" height="1.99" fill="#407bd6"/>
            <rect id="Rectángulo_422618" data-name="Rectángulo 422618" width="12.31" height="1.99" transform="translate(17.984)" fill="#f7440c"/>
            <rect id="Rectángulo_422619" data-name="Rectángulo 422619" width="7.567" height="1.99" transform="translate(9.404)" fill="#407bd6"/>
          </g>
          <g id="Grupo_1226828" data-name="Grupo 1226828" transform="translate(8.921 49.452)">
            <rect id="Rectángulo_422620" data-name="Rectángulo 422620" width="11.487" height="1.99" fill="#407bd6"/>
            <rect id="Rectángulo_422621" data-name="Rectángulo 422621" width="7.472" height="1.99" transform="translate(18.678)" fill="#407bd6"/>
            <rect id="Rectángulo_422622" data-name="Rectángulo 422622" width="5.228" height="1.99" transform="translate(12.398)" fill="#407bd6"/>
            <rect id="Rectángulo_422623" data-name="Rectángulo 422623" width="12.64" height="1.99" transform="translate(27.131)" fill="#407bd6"/>
          </g>
          <g id="Grupo_1226830" data-name="Grupo 1226830">
            <g id="Grupo_1226829" data-name="Grupo 1226829">
              <rect id="Rectángulo_422624" data-name="Rectángulo 422624" width="66.012" height="5.654" fill="#fff"/>
              <path id="Trazado_1058399" data-name="Trazado 1058399" d="M1047.48,327.339v5.654h66.012v-5.654Zm65.83,5.472h-65.647v-5.289h65.647Z" transform="translate(-1047.48 -327.339)" fill="#aae0ff"/>
            </g>
            <circle id="Elipse_13526" data-name="Elipse 13526" cx="0.964" cy="0.964" r="0.964" transform="translate(62.251 1.875)" fill="#aae0ff"/>
            <circle id="Elipse_13527" data-name="Elipse 13527" cx="0.964" cy="0.964" r="0.964" transform="translate(58.738 1.875)" fill="#aae0ff"/>
            <circle id="Elipse_13528" data-name="Elipse 13528" cx="0.964" cy="0.964" r="0.964" transform="translate(55.155 1.875)" fill="#aae0ff"/>
          </g>
        </g>
        <g id="Grupo_1226845" data-name="Grupo 1226845" transform="translate(0 29.789)">
          <rect id="Rectángulo_422625" data-name="Rectángulo 422625" width="51.556" height="39.111" transform="translate(0 4.415)" fill="#aae0ff"/>
          <g id="Grupo_1226832" data-name="Grupo 1226832" transform="translate(3.467 8.717)">
            <rect id="Rectángulo_422626" data-name="Rectángulo 422626" width="1.125" height="1.554" fill="#fff"/>
            <rect id="Rectángulo_422627" data-name="Rectángulo 422627" width="1.125" height="1.554" transform="translate(0 2.493)" fill="#fff"/>
            <rect id="Rectángulo_422628" data-name="Rectángulo 422628" width="1.125" height="1.554" transform="translate(0 4.985)" fill="#fff"/>
            <rect id="Rectángulo_422629" data-name="Rectángulo 422629" width="1.125" height="1.554" transform="translate(0 7.478)" fill="#fff"/>
            <rect id="Rectángulo_422630" data-name="Rectángulo 422630" width="1.125" height="1.554" transform="translate(0 9.971)" fill="#fff"/>
            <rect id="Rectángulo_422631" data-name="Rectángulo 422631" width="1.125" height="1.554" transform="translate(0 12.464)" fill="#fff"/>
            <rect id="Rectángulo_422632" data-name="Rectángulo 422632" width="1.125" height="1.554" transform="translate(0 14.956)" fill="#fff"/>
            <rect id="Rectángulo_422633" data-name="Rectángulo 422633" width="1.125" height="1.554" transform="translate(0 17.449)" fill="#fff"/>
            <rect id="Rectángulo_422634" data-name="Rectángulo 422634" width="1.125" height="1.554" transform="translate(0 19.942)" fill="#fff"/>
            <rect id="Rectángulo_422635" data-name="Rectángulo 422635" width="1.125" height="1.554" transform="translate(0 22.434)" fill="#fff"/>
            <rect id="Rectángulo_422636" data-name="Rectángulo 422636" width="1.125" height="1.554" transform="translate(0 24.927)" fill="#fff"/>
            <rect id="Rectángulo_422637" data-name="Rectángulo 422637" width="1.125" height="1.554" transform="translate(0 27.42)" fill="#fff"/>
            <rect id="Rectángulo_422638" data-name="Rectángulo 422638" width="1.125" height="1.554" transform="translate(0 29.913)" fill="#fff"/>
          </g>
          <g id="Grupo_1226833" data-name="Grupo 1226833" transform="translate(6.966 8.717)">
            <rect id="Rectángulo_422639" data-name="Rectángulo 422639" width="10.492" height="1.554" fill="#407bd6"/>
            <rect id="Rectángulo_422640" data-name="Rectángulo 422640" width="10.492" height="1.554" transform="translate(16.503)" fill="#407bd6"/>
            <rect id="Rectángulo_422641" data-name="Rectángulo 422641" width="4.534" height="1.554" transform="translate(11.178)" fill="#407bd6"/>
            <rect id="Rectángulo_422642" data-name="Rectángulo 422642" width="4.534" height="1.554" transform="translate(27.733)" fill="#407bd6"/>
          </g>
          <g id="Grupo_1226834" data-name="Grupo 1226834" transform="translate(6.966 11.265)">
            <rect id="Rectángulo_422643" data-name="Rectángulo 422643" width="6.659" height="1.554" fill="#407bd6"/>
            <rect id="Rectángulo_422644" data-name="Rectángulo 422644" width="9.614" height="1.554" transform="translate(14.045)" fill="#f7440c"/>
            <rect id="Rectángulo_422645" data-name="Rectángulo 422645" width="5.91" height="1.554" transform="translate(7.345)" fill="#407bd6"/>
            <rect id="Rectángulo_422646" data-name="Rectángulo 422646" width="5.509" height="1.554" transform="translate(24.398)" fill="#407bd6"/>
          </g>
          <g id="Grupo_1226835" data-name="Grupo 1226835" transform="translate(6.966 13.876)">
            <rect id="Rectángulo_422647" data-name="Rectángulo 422647" width="8.971" height="1.554" fill="#407bd6"/>
            <rect id="Rectángulo_422648" data-name="Rectángulo 422648" width="5.835" height="1.554" transform="translate(14.587)" fill="#407bd6"/>
            <rect id="Rectángulo_422649" data-name="Rectángulo 422649" width="4.083" height="1.554" transform="translate(9.683)" fill="#407bd6"/>
          </g>
          <g id="Grupo_1226836" data-name="Grupo 1226836" transform="translate(10.051 16.508)">
            <rect id="Rectángulo_422650" data-name="Rectángulo 422650" width="7.408" height="1.554" fill="#407bd6"/>
            <rect id="Rectángulo_422651" data-name="Rectángulo 422651" width="10.492" height="1.554" transform="translate(13.419)" fill="#407bd6"/>
            <rect id="Rectángulo_422652" data-name="Rectángulo 422652" width="4.534" height="1.554" transform="translate(8.093)" fill="#407bd6"/>
            <rect id="Rectángulo_422653" data-name="Rectángulo 422653" width="4.534" height="1.554" transform="translate(24.649)" fill="#407bd6"/>
          </g>
          <g id="Grupo_1226837" data-name="Grupo 1226837" transform="translate(14.311 19.057)">
            <rect id="Rectángulo_422654" data-name="Rectángulo 422654" width="9.614" height="1.554" transform="translate(6.7)" fill="#407bd6"/>
            <rect id="Rectángulo_422655" data-name="Rectángulo 422655" width="5.91" height="1.554" fill="#f7440c"/>
            <rect id="Rectángulo_422656" data-name="Rectángulo 422656" width="5.509" height="1.554" transform="translate(17.053)" fill="#407bd6"/>
          </g>
          <g id="Grupo_1226838" data-name="Grupo 1226838" transform="translate(6.966 24.3)">
            <rect id="Rectángulo_422657" data-name="Rectángulo 422657" width="10.492" height="1.554" fill="#407bd6"/>
            <rect id="Rectángulo_422658" data-name="Rectángulo 422658" width="10.492" height="1.554" transform="translate(16.503)" fill="#407bd6"/>
            <rect id="Rectángulo_422659" data-name="Rectángulo 422659" width="4.534" height="1.554" transform="translate(11.178)" fill="#407bd6"/>
          </g>
          <g id="Grupo_1226839" data-name="Grupo 1226839" transform="translate(14.311 26.848)">
            <rect id="Rectángulo_422660" data-name="Rectángulo 422660" width="6.659" height="1.554" transform="translate(0.001 2.834)" fill="#407bd6"/>
            <rect id="Rectángulo_422661" data-name="Rectángulo 422661" width="9.614" height="1.554" transform="translate(6.7)" fill="#407bd6"/>
            <rect id="Rectángulo_422662" data-name="Rectángulo 422662" width="5.91" height="1.554" fill="#407bd6"/>
            <rect id="Rectángulo_422663" data-name="Rectángulo 422663" width="5.509" height="1.554" transform="translate(17.053)" fill="#407bd6"/>
          </g>
          <g id="Grupo_1226840" data-name="Grupo 1226840" transform="translate(6.966 33.462)">
            <rect id="Rectángulo_422664" data-name="Rectángulo 422664" width="10.492" height="1.554" fill="#407bd6"/>
            <rect id="Rectángulo_422665" data-name="Rectángulo 422665" width="4.534" height="1.554" transform="translate(11.178)" fill="#407bd6"/>
          </g>
          <g id="Grupo_1226841" data-name="Grupo 1226841" transform="translate(6.966 36.01)">
            <rect id="Rectángulo_422666" data-name="Rectángulo 422666" width="6.659" height="1.554" fill="#407bd6"/>
            <rect id="Rectángulo_422667" data-name="Rectángulo 422667" width="9.614" height="1.554" transform="translate(14.045)" fill="#f7440c"/>
            <rect id="Rectángulo_422668" data-name="Rectángulo 422668" width="5.91" height="1.554" transform="translate(7.345)" fill="#407bd6"/>
          </g>
          <g id="Grupo_1226842" data-name="Grupo 1226842" transform="translate(6.966 38.621)">
            <rect id="Rectángulo_422669" data-name="Rectángulo 422669" width="8.971" height="1.554" fill="#407bd6"/>
            <rect id="Rectángulo_422670" data-name="Rectángulo 422670" width="5.835" height="1.554" transform="translate(14.587)" fill="#407bd6"/>
            <rect id="Rectángulo_422671" data-name="Rectángulo 422671" width="4.083" height="1.554" transform="translate(9.683)" fill="#407bd6"/>
            <rect id="Rectángulo_422672" data-name="Rectángulo 422672" width="9.871" height="1.554" transform="translate(21.189)" fill="#407bd6"/>
          </g>
          <g id="Grupo_1226844" data-name="Grupo 1226844">
            <g id="Grupo_1226843" data-name="Grupo 1226843">
              <rect id="Rectángulo_422673" data-name="Rectángulo 422673" width="51.554" height="4.415" fill="#fff"/>
              <path id="Trazado_1058400" data-name="Trazado 1058400" d="M313.6,597.908v4.415h51.554v-4.415Zm51.412,4.273H313.739V598.05h51.269Z" transform="translate(-313.597 -597.908)" fill="#aae0ff"/>
            </g>
            <circle id="Elipse_13529" data-name="Elipse 13529" cx="0.753" cy="0.753" r="0.753" transform="matrix(0.313, -0.95, 0.95, 0.313, 48.42, 2.697)" fill="#aae0ff"/>
            <circle id="Elipse_13530" data-name="Elipse 13530" cx="0.753" cy="0.753" r="0.753" transform="matrix(0.231, -0.973, 0.973, 0.231, 45.724, 2.775)" fill="#aae0ff"/>
            <circle id="Elipse_13531" data-name="Elipse 13531" cx="0.753" cy="0.753" r="0.753" transform="translate(42.762 2.217) rotate(-45)" fill="#aae0ff"/>
          </g>
        </g>
        <g id="Grupo_1226851" data-name="Grupo 1226851" transform="translate(20.544 80.684)">
          <g id="Grupo_1226848" data-name="Grupo 1226848">
            <rect id="Rectángulo_422674" data-name="Rectángulo 422674" width="23.124" height="19.575" transform="translate(0 3.423)" fill="#aae0ff"/>
            <g id="Grupo_1226847" data-name="Grupo 1226847">
              <g id="Grupo_1226846" data-name="Grupo 1226846">
                <rect id="Rectángulo_422675" data-name="Rectángulo 422675" width="23.123" height="3.422" fill="#fff"/>
                <path id="Trazado_1058401" data-name="Trazado 1058401" d="M539.1,1156.57v3.422h23.123v-3.422Zm23.012,3.313h-22.9v-3.2h22.9Z" transform="translate(-539.105 -1156.57)" fill="#aae0ff"/>
              </g>
              <path id="Trazado_1058402" data-name="Trazado 1058402" d="M769.1,1169.616a.584.584,0,1,1-.584-.584A.584.584,0,0,1,769.1,1169.616Z" transform="translate(-747.083 -1167.897)" fill="#aae0ff"/>
              <path id="Trazado_1058403" data-name="Trazado 1058403" d="M745.752,1169.616a.584.584,0,1,1-.584-.584A.584.584,0,0,1,745.752,1169.616Z" transform="translate(-725.866 -1167.897)" fill="#aae0ff"/>
              <path id="Trazado_1058404" data-name="Trazado 1058404" d="M721.951,1169.616a.584.584,0,1,1-.584-.584A.584.584,0,0,1,721.951,1169.616Z" transform="translate(-704.232 -1167.897)" fill="#aae0ff"/>
            </g>
          </g>
          <g id="Grupo_1226849" data-name="Grupo 1226849" transform="translate(2.705 6.742)">
            <path id="Trazado_1058405" data-name="Trazado 1058405" d="M578.675,1238.759a4.973,4.973,0,0,0,.664-1.848l.2.03.4.059h.005a5.566,5.566,0,0,0-.1-2.165l-.593.147a4.976,4.976,0,0,0-.839-1.775l.492-.365a5.543,5.543,0,0,0-1.6-1.458l-.317.525a4.96,4.96,0,0,0-1.848-.664l.089-.606a5.6,5.6,0,0,0-2.165.1l.147.593a4.973,4.973,0,0,0-1.775.839l-.365-.492a5.541,5.541,0,0,0-1.459,1.6l.525.317a4.964,4.964,0,0,0-.664,1.848l-.428-.063-.175-.024h0a5.6,5.6,0,0,0,.1,2.165l.593-.147a4.983,4.983,0,0,0,.841,1.776l-.492.365a5.534,5.534,0,0,0,1.6,1.457l.317-.525a4.975,4.975,0,0,0,1.85.665l-.07.471-.019.135a5.6,5.6,0,0,0,2.163-.106l-.147-.593a5.024,5.024,0,0,0,1.778-.84l.365.491a5.574,5.574,0,0,0,1.455-1.6ZM573,1238.5a2.709,2.709,0,1,1,3.719-.923A2.709,2.709,0,0,1,573,1238.5Z" transform="translate(-568.797 -1230.578)" fill="#407bd6"/>
          </g>
          <g id="Grupo_1226850" data-name="Grupo 1226850" transform="translate(14.723 13.66)">
            <path id="Trazado_1058406" data-name="Trazado 1058406" d="M705.719,1310.657a2.517,2.517,0,0,0,.336-.936l.1.015.2.03h0a2.817,2.817,0,0,0-.053-1.1l-.3.074a2.52,2.52,0,0,0-.425-.9l.249-.185a2.809,2.809,0,0,0-.813-.739l-.16.266a2.511,2.511,0,0,0-.936-.336l.045-.307a2.837,2.837,0,0,0-1.1.053l.074.3a2.519,2.519,0,0,0-.9.425l-.185-.249a2.809,2.809,0,0,0-.739.813l.266.16a2.516,2.516,0,0,0-.337.936l-.217-.032-.089-.012h0a2.84,2.84,0,0,0,.053,1.1l.3-.074a2.525,2.525,0,0,0,.426.9l-.249.185a2.8,2.8,0,0,0,.812.738l.16-.266a2.519,2.519,0,0,0,.937.337l-.035.238-.01.068a2.83,2.83,0,0,0,1.1-.054l-.074-.3a2.547,2.547,0,0,0,.9-.425l.185.249a2.822,2.822,0,0,0,.737-.813Zm-2.875-.129a1.373,1.373,0,1,1,1.884-.467A1.372,1.372,0,0,1,702.845,1310.527Z" transform="translate(-700.715 -1306.512)" fill="#407bd6"/>
          </g>
        </g>
        <g id="Grupo_1226854" data-name="Grupo 1226854" transform="translate(23.675 45.806)">
          <g id="Grupo_1226852" data-name="Grupo 1226852">
            <path id="Trazado_1058407" data-name="Trazado 1058407" d="M581.05,774.224l-7.442,12.89a1,1,0,0,0,.868,1.5h14.884a1,1,0,0,0,.868-1.5l-7.442-12.89A1,1,0,0,0,581.05,774.224Z" transform="translate(-573.472 -773.723)" fill="#ffd145"/>
          </g>
          <path id="Trazado_1058408" data-name="Trazado 1058408" d="M595.714,794.427H580.831a.366.366,0,0,1-.316-.548l7.442-12.889a.374.374,0,0,1,.632,0l7.441,12.888a.366.366,0,0,1-.316.548ZM580.934,794h14.678l-7.339-12.71Zm7.287-12.8h0Zm.1,0Z" transform="translate(-579.827 -780.169)"/>
          <g id="Grupo_1226853" data-name="Grupo 1226853" transform="translate(7.404 4.796)">
            <path id="Trazado_1058409" data-name="Trazado 1058409" d="M655.807,831.9h0a.813.813,0,0,1-.811-.757l-.249-3.636a1.063,1.063,0,0,1,1.06-1.136h0a1.063,1.063,0,0,1,1.06,1.136l-.25,3.636A.813.813,0,0,1,655.807,831.9Z" transform="translate(-654.744 -826.369)"/>
            <circle id="Elipse_13532" data-name="Elipse 13532" cx="0.802" cy="0.802" r="0.802" transform="translate(0.261 6.172)"/>
          </g>
        </g>
        <g id="Grupo_1226857" data-name="Grupo 1226857" transform="translate(111.422 22.283)">
          <g id="Grupo_1226855" data-name="Grupo 1226855">
            <path id="Trazado_1058410" data-name="Trazado 1058410" d="M1544.24,516.023l-7.442,12.89a1,1,0,0,0,.868,1.5h14.884a1,1,0,0,0,.868-1.5l-7.442-12.89A1,1,0,0,0,1544.24,516.023Z" transform="translate(-1536.662 -515.522)" fill="#ffd145"/>
          </g>
          <path id="Trazado_1058411" data-name="Trazado 1058411" d="M1558.9,536.227h-14.884a.366.366,0,0,1-.316-.548l7.443-12.889a.374.374,0,0,1,.632,0l7.441,12.888a.365.365,0,0,1-.316.548Zm-14.78-.425H1558.8l-7.339-12.71Zm7.287-12.8h0Zm.1,0Z" transform="translate(-1543.015 -521.969)"/>
          <g id="Grupo_1226856" data-name="Grupo 1226856" transform="translate(7.404 4.796)">
            <path id="Trazado_1058412" data-name="Trazado 1058412" d="M1619,573.7h0a.813.813,0,0,1-.811-.757l-.25-3.636a1.063,1.063,0,0,1,1.06-1.136h0a1.063,1.063,0,0,1,1.06,1.136l-.25,3.636A.813.813,0,0,1,1619,573.7Z" transform="translate(-1617.933 -568.169)"/>
            <circle id="Elipse_13533" data-name="Elipse 13533" cx="0.802" cy="0.802" r="0.802" transform="translate(0.261 6.172)"/>
          </g>
        </g>
        <g id="Grupo_1226860" data-name="Grupo 1226860" transform="translate(98.323 66.349)">
          <g id="Grupo_1226858" data-name="Grupo 1226858">
            <path id="Trazado_1058413" data-name="Trazado 1058413" d="M1400.022,999.691l-7.026,12.17a.946.946,0,0,0,.819,1.419h14.053a.946.946,0,0,0,.819-1.419l-7.026-12.17A.946.946,0,0,0,1400.022,999.691Z" transform="translate(-1392.867 -999.218)" fill="#ffd145"/>
          </g>
          <path id="Trazado_1058414" data-name="Trazado 1058414" d="M1413.868,1018.767h-14.053a.346.346,0,0,1-.3-.518l7.027-12.17a.353.353,0,0,1,.6,0l7.025,12.169a.345.345,0,0,1-.3.518Zm-13.956-.4h13.858l-6.929-12Zm6.881-12.085h0Zm.1,0Z" transform="translate(-1398.868 -1005.306)"/>
          <g id="Grupo_1226859" data-name="Grupo 1226859" transform="translate(6.921 4.528)">
            <path id="Trazado_1058415" data-name="Trazado 1058415" d="M1470.6,1054.142h0a.767.767,0,0,1-.766-.715l-.235-3.433a1,1,0,0,1,1-1.072h0a1,1,0,0,1,1,1.072l-.236,3.433A.767.767,0,0,1,1470.6,1054.142Z" transform="translate(-1469.526 -1048.922)"/>
            <circle id="Elipse_13534" data-name="Elipse 13534" cx="0.757" cy="0.757" r="0.757" transform="translate(0 6.585) rotate(-45)"/>
          </g>
        </g>
        <g id="Grupo_1226878" data-name="Grupo 1226878" transform="translate(190.47 0)">
          <g id="Grupo_1226874" data-name="Grupo 1226874">
            <rect id="Rectángulo_422676" data-name="Rectángulo 422676" width="59.024" height="44.776" transform="translate(0 5.055)" fill="#aae0ff"/>
            <g id="Grupo_1226861" data-name="Grupo 1226861" transform="translate(3.969 9.98)">
              <rect id="Rectángulo_422677" data-name="Rectángulo 422677" width="1.288" height="1.779" fill="#fff"/>
              <rect id="Rectángulo_422678" data-name="Rectángulo 422678" width="1.288" height="1.779" transform="translate(0 2.854)" fill="#fff"/>
              <rect id="Rectángulo_422679" data-name="Rectángulo 422679" width="1.288" height="1.779" transform="translate(0 5.708)" fill="#fff"/>
              <rect id="Rectángulo_422680" data-name="Rectángulo 422680" width="1.288" height="1.779" transform="translate(0 8.561)" fill="#fff"/>
              <rect id="Rectángulo_422681" data-name="Rectángulo 422681" width="1.288" height="1.779" transform="translate(0 11.415)" fill="#fff"/>
              <rect id="Rectángulo_422682" data-name="Rectángulo 422682" width="1.288" height="1.779" transform="translate(0 14.269)" fill="#fff"/>
              <rect id="Rectángulo_422683" data-name="Rectángulo 422683" width="1.288" height="1.779" transform="translate(0 17.123)" fill="#fff"/>
              <rect id="Rectángulo_422684" data-name="Rectángulo 422684" width="1.288" height="1.779" transform="translate(0 19.977)" fill="#fff"/>
              <rect id="Rectángulo_422685" data-name="Rectángulo 422685" width="1.288" height="1.779" transform="translate(0 22.83)" fill="#fff"/>
              <rect id="Rectángulo_422686" data-name="Rectángulo 422686" width="1.288" height="1.779" transform="translate(0 25.684)" fill="#fff"/>
              <rect id="Rectángulo_422687" data-name="Rectángulo 422687" width="1.288" height="1.779" transform="translate(0 28.538)" fill="#fff"/>
              <rect id="Rectángulo_422688" data-name="Rectángulo 422688" width="1.288" height="1.779" transform="translate(0 31.392)" fill="#fff"/>
              <rect id="Rectángulo_422689" data-name="Rectángulo 422689" width="1.288" height="1.779" transform="translate(0 34.246)" fill="#fff"/>
            </g>
            <g id="Grupo_1226862" data-name="Grupo 1226862" transform="translate(7.976 9.98)">
              <rect id="Rectángulo_422690" data-name="Rectángulo 422690" width="12.012" height="1.779" fill="#407bd6"/>
              <rect id="Rectángulo_422691" data-name="Rectángulo 422691" width="12.012" height="1.779" transform="translate(18.893)" fill="#407bd6"/>
              <rect id="Rectángulo_422692" data-name="Rectángulo 422692" width="5.191" height="1.779" transform="translate(12.797)" fill="#407bd6"/>
              <rect id="Rectángulo_422693" data-name="Rectángulo 422693" width="5.191" height="1.779" transform="translate(31.751)" fill="#407bd6"/>
            </g>
            <g id="Grupo_1226863" data-name="Grupo 1226863" transform="translate(7.976 12.897)">
              <rect id="Rectángulo_422694" data-name="Rectángulo 422694" width="7.624" height="1.779" fill="#407bd6"/>
              <rect id="Rectángulo_422695" data-name="Rectángulo 422695" width="11.007" height="1.779" transform="translate(16.079)" fill="#f7440c"/>
              <rect id="Rectángulo_422696" data-name="Rectángulo 422696" width="6.766" height="1.779" transform="translate(8.409)" fill="#407bd6"/>
              <rect id="Rectángulo_422697" data-name="Rectángulo 422697" width="6.307" height="1.779" transform="translate(27.932)" fill="#407bd6"/>
            </g>
            <g id="Grupo_1226864" data-name="Grupo 1226864" transform="translate(7.976 15.886)">
              <rect id="Rectángulo_422698" data-name="Rectángulo 422698" width="10.27" height="1.779" fill="#407bd6"/>
              <rect id="Rectángulo_422699" data-name="Rectángulo 422699" width="6.681" height="1.779" transform="translate(16.7)" fill="#407bd6"/>
              <rect id="Rectángulo_422700" data-name="Rectángulo 422700" width="4.674" height="1.779" transform="translate(11.085)" fill="#407bd6"/>
            </g>
            <g id="Grupo_1226865" data-name="Grupo 1226865" transform="translate(11.507 18.9)">
              <rect id="Rectángulo_422701" data-name="Rectángulo 422701" width="8.481" height="1.779" fill="#407bd6"/>
              <rect id="Rectángulo_422702" data-name="Rectángulo 422702" width="12.012" height="1.779" transform="translate(15.362)" fill="#407bd6"/>
              <rect id="Rectángulo_422703" data-name="Rectángulo 422703" width="5.191" height="1.779" transform="translate(9.266)" fill="#407bd6"/>
              <rect id="Rectángulo_422704" data-name="Rectángulo 422704" width="5.191" height="1.779" transform="translate(28.219)" fill="#407bd6"/>
            </g>
            <g id="Grupo_1226866" data-name="Grupo 1226866" transform="translate(16.385 21.817)">
              <rect id="Rectángulo_422705" data-name="Rectángulo 422705" width="11.007" height="1.779" transform="translate(7.671)" fill="#407bd6"/>
              <rect id="Rectángulo_422706" data-name="Rectángulo 422706" width="6.766" height="1.779" fill="#f7440c"/>
              <rect id="Rectángulo_422707" data-name="Rectángulo 422707" width="6.307" height="1.779" transform="translate(19.523)" fill="#407bd6"/>
            </g>
            <g id="Grupo_1226867" data-name="Grupo 1226867" transform="translate(7.976 27.82)">
              <rect id="Rectángulo_422708" data-name="Rectángulo 422708" width="12.012" height="1.779" fill="#407bd6"/>
              <rect id="Rectángulo_422709" data-name="Rectángulo 422709" width="12.012" height="1.779" transform="translate(18.893)" fill="#407bd6"/>
              <rect id="Rectángulo_422710" data-name="Rectángulo 422710" width="5.191" height="1.779" transform="translate(12.797)" fill="#407bd6"/>
            </g>
            <g id="Grupo_1226868" data-name="Grupo 1226868" transform="translate(16.385 30.737)">
              <rect id="Rectángulo_422711" data-name="Rectángulo 422711" width="7.624" height="1.779" transform="translate(0.002 3.244)" fill="#407bd6"/>
              <rect id="Rectángulo_422712" data-name="Rectángulo 422712" width="11.007" height="1.779" transform="translate(7.671)" fill="#407bd6"/>
              <rect id="Rectángulo_422713" data-name="Rectángulo 422713" width="6.766" height="1.779" fill="#407bd6"/>
              <rect id="Rectángulo_422714" data-name="Rectángulo 422714" width="6.307" height="1.779" transform="translate(19.523)" fill="#407bd6"/>
            </g>
            <g id="Grupo_1226869" data-name="Grupo 1226869" transform="translate(7.976 38.309)">
              <rect id="Rectángulo_422715" data-name="Rectángulo 422715" width="12.012" height="1.779" fill="#407bd6"/>
              <rect id="Rectángulo_422716" data-name="Rectángulo 422716" width="5.191" height="1.779" transform="translate(12.797)" fill="#407bd6"/>
            </g>
            <g id="Grupo_1226870" data-name="Grupo 1226870" transform="translate(7.976 41.227)">
              <rect id="Rectángulo_422717" data-name="Rectángulo 422717" width="7.624" height="1.779" fill="#407bd6"/>
              <rect id="Rectángulo_422718" data-name="Rectángulo 422718" width="11.007" height="1.779" transform="translate(16.079)" fill="#f7440c"/>
              <rect id="Rectángulo_422719" data-name="Rectángulo 422719" width="6.766" height="1.779" transform="translate(8.409)" fill="#407bd6"/>
            </g>
            <g id="Grupo_1226871" data-name="Grupo 1226871" transform="translate(7.976 44.216)">
              <rect id="Rectángulo_422720" data-name="Rectángulo 422720" width="10.27" height="1.779" fill="#407bd6"/>
              <rect id="Rectángulo_422721" data-name="Rectángulo 422721" width="6.681" height="1.779" transform="translate(16.7)" fill="#407bd6"/>
              <rect id="Rectángulo_422722" data-name="Rectángulo 422722" width="4.674" height="1.779" transform="translate(11.085)" fill="#407bd6"/>
              <rect id="Rectángulo_422723" data-name="Rectángulo 422723" width="11.301" height="1.779" transform="translate(24.258)" fill="#407bd6"/>
            </g>
            <g id="Grupo_1226873" data-name="Grupo 1226873">
              <g id="Grupo_1226872" data-name="Grupo 1226872">
                <rect id="Rectángulo_422724" data-name="Rectángulo 422724" width="59.022" height="5.055" transform="translate(0 0)" fill="#fff"/>
                <path id="Trazado_1058416" data-name="Trazado 1058416" d="M2404.35,270.921v5.055h59.022v-5.055Zm58.859,4.892h-58.7v-4.729h58.7Z" transform="translate(-2404.35 -270.921)" fill="#aae0ff"/>
              </g>
              <circle id="Elipse_13535" data-name="Elipse 13535" cx="0.862" cy="0.862" r="0.862" transform="translate(55.401 2.068) rotate(-22.5)" fill="#aae0ff"/>
              <circle id="Elipse_13536" data-name="Elipse 13536" cx="0.862" cy="0.862" r="0.862" transform="translate(52.259 2.068) rotate(-22.5)" fill="#aae0ff"/>
              <circle id="Elipse_13537" data-name="Elipse 13537" cx="0.862" cy="0.862" r="0.862" transform="translate(48.955 2.54) rotate(-45)" fill="#aae0ff"/>
            </g>
          </g>
          <g id="Grupo_1226877" data-name="Grupo 1226877" transform="translate(39.98 25.167)">
            <g id="Grupo_1226875" data-name="Grupo 1226875">
              <path id="Trazado_1058417" data-name="Trazado 1058417" d="M2851.551,547.724l-8.2,14.2a1.1,1.1,0,0,0,.956,1.656h16.4a1.1,1.1,0,0,0,.956-1.656l-8.2-14.2A1.1,1.1,0,0,0,2851.551,547.724Z" transform="translate(-2843.2 -547.172)" fill="#ffd145"/>
            </g>
            <path id="Trazado_1058418" data-name="Trazado 1058418" d="M2867.717,569.988h-16.4a.4.4,0,0,1-.348-.6l8.2-14.2a.412.412,0,0,1,.7,0l8.2,14.2a.4.4,0,0,1-.348.6Zm-16.288-.469H2867.6l-8.087-14.007Zm8.03-14.106h0Zm.116,0Z" transform="translate(-2850.209 -554.276)"/>
            <g id="Grupo_1226876" data-name="Grupo 1226876" transform="translate(8.159 5.285)">
              <path id="Trazado_1058419" data-name="Trazado 1058419" d="M2933.934,611.279h0a.9.9,0,0,1-.893-.834l-.275-4.007a1.171,1.171,0,0,1,1.168-1.251h0a1.171,1.171,0,0,1,1.168,1.251l-.275,4.007A.9.9,0,0,1,2933.934,611.279Z" transform="translate(-2932.763 -605.187)"/>
              <circle id="Elipse_13538" data-name="Elipse 13538" cx="0.884" cy="0.884" r="0.884" transform="translate(0.287 6.802)"/>
            </g>
          </g>
        </g>
        <g id="Grupo_1226887" data-name="Grupo 1226887" transform="translate(271.08 35.992)">
          <g id="Grupo_1226884" data-name="Grupo 1226884">
            <g id="Grupo_1226881" data-name="Grupo 1226881">
              <rect id="Rectángulo_422725" data-name="Rectángulo 422725" width="34.013" height="28.793" transform="translate(0 5.034)" fill="#aae0ff"/>
              <g id="Grupo_1226880" data-name="Grupo 1226880">
                <g id="Grupo_1226879" data-name="Grupo 1226879">
                  <rect id="Rectángulo_422726" data-name="Rectángulo 422726" width="34.011" height="5.034" fill="#fff"/>
                  <path id="Trazado_1058420" data-name="Trazado 1058420" d="M3289.19,666v5.034H3323.2V666Zm33.849,4.871h-33.687v-4.709h33.687Z" transform="translate(-3289.19 -665.997)" fill="#aae0ff"/>
                </g>
                <circle id="Elipse_13539" data-name="Elipse 13539" cx="0.859" cy="0.859" r="0.859" transform="translate(30.5 3.185) rotate(-76.714)" fill="#aae0ff"/>
                <circle id="Elipse_13540" data-name="Elipse 13540" cx="0.859" cy="0.859" r="0.859" transform="translate(27.372 3.185) rotate(-76.714)" fill="#aae0ff"/>
                <circle id="Elipse_13541" data-name="Elipse 13541" cx="0.859" cy="0.859" r="0.859" transform="translate(23.986 2.529) rotate(-45)" fill="#aae0ff"/>
              </g>
            </g>
            <g id="Grupo_1226882" data-name="Grupo 1226882" transform="translate(3.978 9.917)">
              <path id="Trazado_1058421" data-name="Trazado 1058421" d="M3347.385,786.887a7.312,7.312,0,0,0,.977-2.718l.3.044.586.086h.007a8.18,8.18,0,0,0-.154-3.185l-.872.216a7.317,7.317,0,0,0-1.234-2.611l.723-.537a8.153,8.153,0,0,0-2.361-2.145l-.465.772a7.3,7.3,0,0,0-2.718-.977l.13-.891a8.242,8.242,0,0,0-3.185.154l.216.872a7.316,7.316,0,0,0-2.611,1.234l-.537-.723a8.151,8.151,0,0,0-2.146,2.36l.772.466a7.3,7.3,0,0,0-.977,2.718l-.63-.093-.258-.036,0,0a8.239,8.239,0,0,0,.154,3.185l.872-.216a7.334,7.334,0,0,0,1.237,2.613l-.723.537a8.139,8.139,0,0,0,2.357,2.144l.466-.772a7.319,7.319,0,0,0,2.721.979l-.1.692-.028.2a8.225,8.225,0,0,0,3.181-.156l-.216-.872a7.4,7.4,0,0,0,2.616-1.235l.537.723a8.2,8.2,0,0,0,2.141-2.359Zm-8.345-.377a3.985,3.985,0,1,1,5.47-1.357A3.985,3.985,0,0,1,3339.041,786.509Z" transform="translate(-3332.856 -774.853)" fill="#407bd6"/>
            </g>
            <g id="Grupo_1226883" data-name="Grupo 1226883" transform="translate(21.655 20.092)">
              <path id="Trazado_1058422" data-name="Trazado 1058422" d="M3534.257,892.64a3.717,3.717,0,0,0,.5-1.377l.15.022.3.044h0a4.146,4.146,0,0,0-.078-1.613l-.442.109a3.705,3.705,0,0,0-.625-1.323l.366-.272a4.127,4.127,0,0,0-1.2-1.087l-.236.391a3.7,3.7,0,0,0-1.377-.495l.066-.451a4.174,4.174,0,0,0-1.613.078l.109.442a3.708,3.708,0,0,0-1.323.625l-.272-.366a4.136,4.136,0,0,0-1.087,1.2l.391.236a3.7,3.7,0,0,0-.495,1.377l-.319-.047-.131-.018h0a4.178,4.178,0,0,0,.078,1.613l.442-.109a3.711,3.711,0,0,0,.627,1.324l-.366.272a4.128,4.128,0,0,0,1.194,1.086l.236-.391a3.711,3.711,0,0,0,1.378.5l-.052.351-.014.1a4.169,4.169,0,0,0,1.612-.079l-.109-.442a3.745,3.745,0,0,0,1.325-.626l.272.366a4.159,4.159,0,0,0,1.085-1.2Zm-4.228-.191a2.019,2.019,0,1,1,2.771-.687A2.019,2.019,0,0,1,3530.029,892.448Z" transform="translate(-3526.895 -886.543)" fill="#407bd6"/>
            </g>
          </g>
          <g id="Grupo_1226886" data-name="Grupo 1226886" transform="translate(17.974 22.307)">
            <circle id="Elipse_13542" data-name="Elipse 13542" cx="8.229" cy="8.229" r="8.229" transform="translate(0 11.637) rotate(-45)" fill="#ffd145"/>
            <g id="Grupo_1226885" data-name="Grupo 1226885" transform="translate(8.435 7.011)">
              <path id="Trazado_1058423" data-name="Trazado 1058423" d="M3579.07,1026.49l1.651,4.2c.184.467,5.891-1.778,5.707-2.245l-1.651-4.2Zm4.019.994.468,1.19a.31.31,0,1,1-.577.227l-.469-1.193a.754.754,0,1,1,.578-.224Z" transform="translate(-3579.07 -1020.926)"/>
              <path id="Trazado_1058424" data-name="Trazado 1058424" d="M3585.6,991l-.615-.087.042-.3a1.909,1.909,0,1,0-3.78-.534l-.042.3-.615-.087.042-.3a2.529,2.529,0,1,1,5.009.707Z" transform="translate(-3580.454 -987.816)"/>
            </g>
          </g>
        </g>
      </g>
      <g id="hacker" transform="translate(8372.638 627.539)">
        <g id="Grupo_1226889" data-name="Grupo 1226889" transform="translate(0 27.663)">
          <path id="Trazado_1058425" data-name="Trazado 1058425" d="M2746.2,1211.058s-6.529,4.953-6.754,24.54c-9.465-2.386-13.489-2.57-14.4,4.927-1.48,12.14,32.19,8.581,32.19,8.581C2762.64,1212.511,2754.86,1206.669,2746.2,1211.058Z" transform="translate(-2710.353 -1204.55)" fill="#1c4787"/>
          <path id="Trazado_1058426" data-name="Trazado 1058426" d="M2987.7,1198.4h-41.9c-9.274-6.181-3.524-29.75-6.511-35.357,3.93-14.514,23.8-14.293,32.156-.673A156.29,156.29,0,0,1,2987.7,1198.4Z" transform="translate(-2905.124 -1152.151)" fill="#1c4787"/>
          <path id="Trazado_1058427" data-name="Trazado 1058427" d="M2937.686,1306.6a.228.228,0,0,1-.227-.213c-.121-1.9-.03-4.384.059-6.782.165-4.478.351-9.553-.989-9.983a.228.228,0,0,1,.139-.434c1.669.535,1.5,5.122,1.3,10.434-.088,2.387-.179,4.856-.059,6.736a.227.227,0,0,1-.213.242Z" transform="translate(-2902.474 -1276.695)" fill="#2d74d9"/>
          <g id="Grupo_1226888" data-name="Grupo 1226888" transform="translate(0 31.558)">
            <path id="Trazado_1058428" data-name="Trazado 1058428" d="M2598.788,1523.76l-5.139.639a5.364,5.364,0,0,0-1.709,1.472c-.237,2.433-2.664,1.764-2.664,1.764a18.2,18.2,0,0,1,3.252-5.319,41.43,41.43,0,0,1,6.177-2.686C2601.254,1519.339,2602.18,1523.349,2598.788,1523.76Z" transform="translate(-2587.001 -1517.698)" fill="#0e0e0e"/>
            <path id="Trazado_1058429" data-name="Trazado 1058429" d="M2639.577,1527.849l-4.744.365a5.583,5.583,0,0,0-1.367,1.832c-.011,1.062-1.217,3.157-2.223,2.681-.073-2.32.583-3.979,2.072-6.287,1.609-1.611,6.18-2.721,6.18-2.721C2642.042,1523.427,2642.968,1527.438,2639.577,1527.849Z" transform="translate(-2625.138 -1521.414)" fill="#0e0e0e"/>
            <path id="Trazado_1058430" data-name="Trazado 1058430" d="M2667.637,1547.779a5.166,5.166,0,0,1,.467-1.979l.286-.165-1.634-1.52a4.679,4.679,0,0,0-.458.857,8.929,8.929,0,0,0,.481,5.788C2667.74,1550.753,2667.988,1548.627,2667.637,1547.779Z" transform="translate(-2656.78 -1539.965)" fill="#0e0e0e"/>
            <path id="Trazado_1058431" data-name="Trazado 1058431" d="M2574.968,1527.239l-4.7-.585a11.356,11.356,0,0,0-2.669.94c-.621.832-2.781,1.7-3.3.667,1.28-1.88,2.755-2.761,5.262-3.613a45.439,45.439,0,0,1,6.354-1.122C2578.435,1523.975,2578.338,1527.814,2574.968,1527.239Z" transform="translate(-2564.292 -1521.252)" fill="#0e0e0e"/>
            <path id="Trazado_1058432" data-name="Trazado 1058432" d="M2658.247,1501.108c.256,2.122-.731,4.28-4.942,4.078a11.429,11.429,0,0,1-6.387-2.273l.083-2.422c2.844-.3,3.618-.317,5.459-1.348C2655.268,1497.776,2657.992,1498.985,2658.247,1501.108Z" transform="translate(-2639.391 -1498.563)" fill="#0e0e0e"/>
            <path id="Trazado_1058433" data-name="Trazado 1058433" d="M2605.99,1504.261l1.876,1.257a9.675,9.675,0,0,0,6.936,1.433l-2.505-4.809s-4.132-.111-5.291-.265-4.97-.06-5.112-.069C2601.508,1504.531,2605.99,1504.261,2605.99,1504.261Z" transform="translate(-2598.447 -1501.494)" fill="#0e0e0e"/>
          </g>
        </g>
        <g id="Grupo_1226892" data-name="Grupo 1226892" transform="translate(16.313 0)">
          <path id="Trazado_1058434" data-name="Trazado 1058434" d="M2747.514,875.867s-11.221-17.076,8.94-25.763c19.929-8.586,21.478,19.67,19.992,26.819-1.6,7.7-10.89,13-13.734,12.191C2762.711,889.114,2753.935,886.757,2747.514,875.867Z" transform="translate(-2744.305 -848.496)" fill="#1c4787"/>
          <g id="Grupo_1226891" data-name="Grupo 1226891" transform="translate(0 6.605)">
            <path id="Trazado_1058435" data-name="Trazado 1058435" d="M2891.643,1261.741a.317.317,0,0,1-.082-.011,18.33,18.33,0,0,1-5.614-3.089.319.319,0,0,1,.4-.5,18.039,18.039,0,0,0,5.376,2.968.319.319,0,0,1-.082.627Z" transform="translate(-2872.849 -1227.366)" fill="#2d74d9"/>
            <g id="Grupo_1226890" data-name="Grupo 1226890">
              <path id="Trazado_1058436" data-name="Trazado 1058436" d="M2747.922,932.243c-2.437,8.058,2.635,19.068,9.656,21.191s13.331-5.446,15.768-13.5-1.28-16.311-8.3-18.434S2750.358,924.185,2747.922,932.243Z" transform="translate(-2746.944 -920.995)" fill="#f7a594"/>
              <path id="Trazado_1058437" data-name="Trazado 1058437" d="M2766.849,1035.62c-7.4,2.659-17.078,3.11-22.478.246a11.342,11.342,0,0,0-.345,8.442c10.172,8.1,25.569-.036,25.569-.036Z" transform="translate(-2743.356 -1025.178)" fill="#19407a"/>
            </g>
          </g>
          <path id="Trazado_1058438" data-name="Trazado 1058438" d="M2794.4,1169.537a1.867,1.867,0,0,1-.934-.237,1.423,1.423,0,0,1-.708-1.464,1.32,1.32,0,0,1,.538-.944,2.443,2.443,0,0,1,1.684-.268.18.18,0,0,1-.071.352,2.116,2.116,0,0,0-1.405.209.964.964,0,0,0-.39.7,1.06,1.06,0,0,0,.531,1.106,2.029,2.029,0,0,0,2.215-.37.18.18,0,1,1,.218.286A2.778,2.778,0,0,1,2794.4,1169.537Z" transform="translate(-2788.243 -1137.601)" fill="#803221"/>
          <path id="Trazado_1058439" data-name="Trazado 1058439" d="M2854.866,1099.269a1.9,1.9,0,0,0,1.454,2.407c2.4.393,3.318-3.194,2.2-3.559C2857.627,1098.445,2855.941,1098.854,2854.866,1099.269Z" transform="translate(-2844.632 -1075.375)" fill="#fff"/>
          <path id="Trazado_1058440" data-name="Trazado 1058440" d="M2755.868,1068.946a1.955,1.955,0,0,0,1.081,2.449c.991.419,2.482.434,2.877-.5a11.057,11.057,0,0,1-2.134-2.569C2757.112,1067.336,2756.254,1067.762,2755.868,1068.946Z" transform="translate(-2754.633 -1047.798)" fill="#fff"/>
          <path id="Trazado_1058441" data-name="Trazado 1058441" d="M2869.348,1112.576c.027.511.283.913.572.9s.5-.442.475-.953-.283-.913-.572-.9S2869.322,1112.065,2869.348,1112.576Z" transform="translate(-2857.868 -1087.651)" fill="#0e0e0e"/>
          <path id="Trazado_1058442" data-name="Trazado 1058442" d="M2768.8,1085.143c.054.509.332.9.619.866s.478-.468.423-.977-.332-.9-.619-.866S2768.745,1084.634,2768.8,1085.143Z" transform="translate(-2766.473 -1062.695)" fill="#0e0e0e"/>
          <path id="Trazado_1058443" data-name="Trazado 1058443" d="M2840.868,1199.59a10.124,10.124,0,0,1-8.812.831c1.014,3.916,2.955,4.323,2.955,4.323A8.761,8.761,0,0,0,2840.868,1199.59Z" transform="translate(-2823.976 -1167.605)" fill="#fff"/>
          <path id="Trazado_1058444" data-name="Trazado 1058444" d="M2926.052,1185.222a.18.18,0,0,1-.146-.284,1.182,1.182,0,0,0-.016-1.077,1.292,1.292,0,0,0-1.1-.767.18.18,0,1,1,.031-.358,1.656,1.656,0,0,1,1.393.974,1.522,1.522,0,0,1-.017,1.436A.179.179,0,0,1,2926.052,1185.222Z" transform="translate(-2908.113 -1152.286)" fill="#bd4a31"/>
          <path id="Trazado_1058445" data-name="Trazado 1058445" d="M2935.89,1160.528l3.071,2.023c3.011-2.09,5.416-4.645,5.652-8.862l-1.4-1.884Z" transform="translate(-2918.35 -1124.173)" fill="#f7a594"/>
          <path id="Trazado_1058446" data-name="Trazado 1058446" d="M2767.656,956.865a3.908,3.908,0,0,0,.059,5.2c-.177-3.013,2.813-4.574,2.813-4.574s-.745,3.452,1.914,5.342c.059-4.2,2.957-4.683,2.957-4.683s.745,4.233,3.129,5.805a13.5,13.5,0,0,1,.573-4.639,9.991,9.991,0,0,1,3.585,5.006s4.5-8.419-5.937-10.1C2769.865,953.109,2767.656,956.865,2767.656,956.865Z" transform="translate(-2764.551 -944.401)" fill="#b35e00"/>
        </g>
        <g id="Grupo_1226894" data-name="Grupo 1226894" transform="translate(17.823 31.503)">
          <g id="Grupo_1226893" data-name="Grupo 1226893" transform="translate(1.316)">
            <path id="Trazado_1058447" data-name="Trazado 1058447" d="M2795.1,1205.19l-1.47,15.092c-2.22-2.209-9.572-8.289-15.184-6.613l-4.058,5.485c-.418,5.087,16.215,18.368,21.938,16.326,13.347-1.97,20.446-28.283,19.908-33.83C2815.531,1193.9,2797.871,1188.643,2795.1,1205.19Z" transform="translate(-2774.38 -1194.297)" fill="#2b6dcc"/>
          </g>
          <path id="Trazado_1058448" data-name="Trazado 1058448" d="M2763.956,1392.134s1.73-1.145,2.925,0c2.779,2.662-1.208,10.1-5.792,7.957C2758.017,1398.657,2761.82,1393.684,2763.956,1392.134Z" transform="translate(-2759.936 -1373.648)" fill="#2b6dcc"/>
          <path id="Trazado_1058449" data-name="Trazado 1058449" d="M2831.34,1407.325a.119.119,0,0,1-.1-.187c2.407-3.5.687-5.772.669-5.795a.119.119,0,0,1,.188-.148c.019.024,1.851,2.43-.66,6.078A.118.118,0,0,1,2831.34,1407.325Z" transform="translate(-2824.727 -1382.306)" fill="#153566"/>
        </g>
        <g id="Grupo_1226899" data-name="Grupo 1226899" transform="translate(10.855 41.076)">
          <g id="Grupo_1226895" data-name="Grupo 1226895" transform="translate(3.286 3.901)">
            <path id="Trazado_1058450" data-name="Trazado 1058450" d="M2725.9,1354.461c-.762.406-2.03-.157-2.973-1.437-.783-1.063-1.506-2.943-1.934-6.163-3.178-4.118-.445-5.377.937-4.3,4.335,3.378,5.3,4.063,6.539,4.962C2729.517,1348.288,2729.4,1353.367,2725.9,1354.461Z" transform="translate(-2719.516 -1342.195)" fill="#0e0e0e"/>
            <path id="Trazado_1058451" data-name="Trazado 1058451" d="M2758.772,1436.4a3.49,3.49,0,0,1-1.807-1.416.036.036,0,0,1-.01-.024s1.091-.364,2.029-2.617C2758.984,1432.341,2757.748,1435.762,2758.772,1436.4Z" transform="translate(-2753.544 -1424.129)" fill="#0e0e0e"/>
          </g>
          <path id="Trazado_1058452" data-name="Trazado 1058452" d="M2689.644,1304.008s-2.553-1.821-5.813-4.631c-1.062.637.177,4.124,2.354,5.323C2687.674,1305.52,2689.326,1305,2689.644,1304.008Z" transform="translate(-2683.445 -1299.377)" fill="#0e0e0e"/>
          <g id="Grupo_1226898" data-name="Grupo 1226898" transform="translate(1.071 5.636)">
            <path id="Trazado_1058453" data-name="Trazado 1058453" d="M2697.844,1361.282c-3.078-.5-3.341,4.365-1.462,7.4,2.875,4.638,5.693.782,6.314-.969C2703.832,1364.507,2701.616,1361.9,2697.844,1361.282Z" transform="translate(-2695.198 -1361.246)" fill="#0e0e0e"/>
            <g id="Grupo_1226896" data-name="Grupo 1226896" clip-path="url(#clip-path)">
              <path id="Trazado_1058454" data-name="Trazado 1058454" d="M2739.522,1412.7a.132.132,0,0,1-.03-.005,1.321,1.321,0,0,1-.787-.9,5.8,5.8,0,0,1,.7-4.566.132.132,0,0,1,.219.146,5.507,5.507,0,0,0-.669,4.331,1.115,1.115,0,0,0,.616.738.132.132,0,0,1-.047.258Z" transform="translate(-2734.558 -1402.985)" fill="#595959"/>
            </g>
            <g id="Grupo_1226897" data-name="Grupo 1226897" clip-path="url(#clip-path)">
              <path id="Trazado_1058456" data-name="Trazado 1058456" d="M2711.216,1399.325a.131.131,0,0,1-.064-.022c-2.4-1.6-2.7-5.115-1.461-7.27a.132.132,0,0,1,.229.131c-1.18,2.054-.9,5.4,1.378,6.919a.132.132,0,0,1,.037.183A.129.129,0,0,1,2711.216,1399.325Z" transform="translate(-2707.72 -1389.169)" fill="#595959"/>
            </g>
          </g>
        </g>
        <path id="Trazado_1058458" data-name="Trazado 1058458" d="M2750.656,878.882s0-4.446,5.6-6.034c6.59-1.867,17.717,3.809,14.372,26.108,3.169,1.219,4.185.224,8.594-9.326,3.149-7.03.675-27.873-11.642-27.733C2756.853,862.019,2749.171,872.7,2750.656,878.882Z" transform="translate(-2733.511 -860.675)" fill="#1c4787"/>
        <path id="Trazado_1058459" data-name="Trazado 1058459" d="M2946.3,1066.666a.319.319,0,0,1-.306-.407c3.054-10.584.292-19.755-1.6-23.125a.319.319,0,1,1,.556-.312c1.933,3.451,4.765,12.827,1.652,23.613A.32.32,0,0,1,2946.3,1066.666Z" transform="translate(-2909.729 -1024.97)" fill="#2d74d9"/>
        <g id="box" transform="translate(61.068 49.665)">
          <g id="Grupo_1226901" data-name="Grupo 1226901" transform="translate(3.841)">
            <g id="Grupo_1226900" data-name="Grupo 1226900">
              <path id="Trazado_1058460" data-name="Trazado 1058460" d="M3285.167,1397.917l-.219-.768a.732.732,0,0,0-.823-.51l-6.844,1.291a.587.587,0,0,0-.462.753l3.883,13.58,17.7-3.341-3.663-12.812Z" transform="translate(-3276.793 -1395.888)" fill="#1150b3"/>
              <path id="Trazado_1058461" data-name="Trazado 1058461" d="M3310.158,1399.71l-17.358,3.276,2.45,12.549,17.616-3.324Z" transform="translate(-3291.342 -1399.159)" fill="#fff"/>
              <path id="Trazado_1058462" data-name="Trazado 1058462" d="M3321.3,1406.7l-17.7,3.341-1.607-12.546a.674.674,0,0,1,.557-.759l16.2-3.057a.841.841,0,0,1,.974.7Z" transform="translate(-3299.692 -1393.663)" fill="#40b0ff"/>
            </g>
          </g>
          <g id="Grupo_1226905" data-name="Grupo 1226905" transform="translate(16.502 1.147)">
            <g id="Grupo_1226902" data-name="Grupo 1226902" transform="translate(0 1.657)">
              <rect id="Rectángulo_422727" data-name="Rectángulo 422727" width="13.838" height="10.517" transform="translate(11.373 0.667) rotate(93.635)" fill="#cfd9e8"/>
              <rect id="Rectángulo_422728" data-name="Rectángulo 422728" width="12.528" height="9.225" transform="translate(10.687 1.28) rotate(93.635)" fill="#086cd3"/>
              <path id="Trazado_1058463" data-name="Trazado 1058463" d="M3432.945,1441.17l-.535,8.421,4.722-4.31Z" transform="translate(-3430.894 -1439.647)" fill="#bcc5d3"/>
              <path id="Trazado_1058464" data-name="Trazado 1058464" d="M3431.12,1483.2l-.45,7.075,3.9-3.6Z" transform="translate(-3429.313 -1477.848)" fill="#bcc5d3"/>
              <path id="Trazado_1058465" data-name="Trazado 1058465" d="M3483.289,1507.091a.977.977,0,1,1,1.037-.913A.977.977,0,0,1,3483.289,1507.091Z" transform="translate(-3476.306 -1497.788)" fill="#bcc5d3"/>
            </g>
            <g id="Grupo_1226904" data-name="Grupo 1226904" transform="translate(2.753 0)">
              <g id="Grupo_1226903" data-name="Grupo 1226903" transform="translate(0)">
                <rect id="Rectángulo_422729" data-name="Rectángulo 422729" width="13.838" height="10.517" transform="matrix(-0.536, 0.844, -0.844, -0.536, 16.299, 5.642)" fill="#e3eeff"/>
                <rect id="Rectángulo_422730" data-name="Rectángulo 422730" width="12.528" height="9.225" transform="matrix(-0.536, 0.844, -0.844, -0.536, 15.402, 5.848)" fill="#3397ff"/>
                <path id="Trazado_1058466" data-name="Trazado 1058466" d="M3485.527,1427.18,3481,1434.3l6.215-1.5Z" transform="translate(-3477.81 -1425.274)" fill="#e3eeff"/>
                <path id="Trazado_1058467" data-name="Trazado 1058467" d="M3470.153,1462.72l-3.8,5.983,5.154-1.269Z" transform="translate(-3464.495 -1457.576)" fill="#e3eeff"/>
                <path id="Trazado_1058468" data-name="Trazado 1058468" d="M3532.46,1510.122a.977.977,0,1,1,1.349-.3A.978.978,0,0,1,3532.46,1510.122Z" transform="translate(-3524.171 -1499.022)" fill="#e3eeff"/>
              </g>
            </g>
          </g>
          <rect id="Rectángulo_422731" data-name="Rectángulo 422731" width="24.962" height="10.87" transform="translate(9.868 12.43)" fill="#ea7b00"/>
          <rect id="Rectángulo_422732" data-name="Rectángulo 422732" width="6.433" height="10.87" transform="translate(3.435 12.43)" fill="#b35e00"/>
          <path id="Trazado_1058469" data-name="Trazado 1058469" d="M3367.913,1487.782H3342.95l4.322-4.242h24.963Z" transform="translate(-3333.082 -1475.352)" fill="#cc6b00"/>
          <path id="Trazado_1058470" data-name="Trazado 1058470" d="M3241.063,1536.193h-6.433l3.435-6.093h6.433Z" transform="translate(-3234.63 -1517.67)" fill="#ea7b00"/>
          <rect id="Rectángulo_422733" data-name="Rectángulo 422733" width="5.566" height="2.439" transform="translate(28.126 20.116)" fill="#ff9e33"/>
        </g>
      </g>
      <g id="programer" transform="translate(8200.022 619.523)">
        <g id="Grupo_1226916" data-name="Grupo 1226916" transform="translate(0 0)">
          <g id="Grupo_1226913" data-name="Grupo 1226913">
            <g id="Grupo_1226907" data-name="Grupo 1226907" transform="translate(32.334 32.931)">
              <path id="Trazado_1058471" data-name="Trazado 1058471" d="M1062.331,1351.66l2.308,17.768,8.741,2.257.742,7.231h-16.391c-8.9,0-11.793-27.441-11.793-27.441Z" transform="translate(-1043.98 -1330.567)" fill="#fc856c"/>
              <path id="Trazado_1058472" data-name="Trazado 1058472" d="M1044.991,1144.893c-1.942-11.289-2.986-22.132-10.62-22.913-7.915,1.423-9.972,11.661-9.925,22.913Z" transform="translate(-1024.445 -1121.98)" fill="#007880"/>
              <g id="Grupo_1226906" data-name="Grupo 1226906" transform="translate(25.154 37.18)">
                <path id="Trazado_1058473" data-name="Trazado 1058473" d="M1300.982,1572.277c-1.025-1.481-.44-6.872,4.156-7.707,8.026-1.457,10.932,2.946,11.691,6.095a1.333,1.333,0,0,1-1.238,1.612,1.356,1.356,0,0,1-1.292-1.09,3.105,3.105,0,0,0-1.4-2.168c.83,1.626.483,3.258-1.777,3.258Z" transform="translate(-1300.551 -1561.169)" fill="#fc856c"/>
                <path id="Trazado_1058474" data-name="Trazado 1058474" d="M1327.966,1534s6.037-1.541,9.34-3.8a1.419,1.419,0,0,1,1.76,1.94c-.645,1.368-4.879,3.423-6.779,3.929C1328.649,1537.039,1325.7,1536.186,1327.966,1534Z" transform="translate(-1324.747 -1530.098)" fill="#fc856c"/>
                <path id="Trazado_1058475" data-name="Trazado 1058475" d="M1312.69,1616.682c-.061,0-.1,0-.107,0h-9.262a.14.14,0,1,1,0-.28h9.27a2.642,2.642,0,0,0,1.718-.527,1.406,1.406,0,0,0,.418-1.067,1.094,1.094,0,0,0-.355-.84c-.942-.883-3.517-.719-5.055-.621a7.01,7.01,0,0,1-1.264.026.14.14,0,0,1,.055-.275,7.564,7.564,0,0,0,1.191-.031c1.686-.108,4.235-.27,5.265.7a1.378,1.378,0,0,1,.444,1.045,1.675,1.675,0,0,1-.507,1.271A2.773,2.773,0,0,1,1312.69,1616.682Z" transform="translate(-1302.941 -1605.432)" fill="#cc5f47"/>
              </g>
            </g>
            <path id="Trazado_1058476" data-name="Trazado 1058476" d="M713.469,1077.094c-8.8,19.608-1.479,34.823-1.479,34.823H669.522c0-.167,0-.329,0-.5.273-37.929,19.618-53.351,30.229-53.351C711.549,1058.07,713.469,1064.782,713.469,1077.094Z" transform="translate(-669.519 -1030.961)" fill="#007880"/>
            <g id="Grupo_1226908" data-name="Grupo 1226908" transform="translate(28.339 19.862)">
              <path id="Trazado_1058477" data-name="Trazado 1058477" d="M980.829,988.451c-1.752,3.135,6.484,10.466,11.4,8.888a3.98,3.98,0,0,0,1.947-1.352l6.878-7.474-9.528-9.982-.915.85Z" transform="translate(-980.589 -978.531)" fill="#f7a594"/>
              <path id="Trazado_1058478" data-name="Trazado 1058478" d="M1083.953,1026.078l4.81-5.112-11.8-6.561C1074.927,1019.5,1080.324,1028.372,1083.953,1026.078Z" transform="translate(-1067.778 -1011.137)" fill="#d97661"/>
            </g>
            <g id="Grupo_1226912" data-name="Grupo 1226912" transform="translate(31.807)">
              <path id="Trazado_1058479" data-name="Trazado 1058479" d="M1048.819,802.955c2.1,8.716,11.247,14.036,17.011,12.594s11.5-10.252,9.392-18.968-9.72-14.354-17.011-12.594S1046.714,794.24,1048.819,802.955Z" transform="translate(-1045.578 -781.556)" fill="#f7a594"/>
              <path id="Trazado_1058480" data-name="Trazado 1058480" d="M1042.275,765c6.205-7.46,12-4.2,17.475-.528,3.843,2.578,6.576,4.439,10.136,3.863-3.867,10.339-18.672,9.125-25.448,2.2,1.112,4.826-3.166,10.5-7.143,11.292C1034.367,777.011,1034.573,765.28,1042.275,765Z" transform="translate(-1034.014 -760.505)" fill="#0e0e0e"/>
              <circle id="Elipse_13543" data-name="Elipse 13543" cx="3.568" cy="3.568" r="3.568" transform="translate(0 22.513) rotate(-62.902)" fill="#f7a594"/>
              <g id="Grupo_1226909" data-name="Grupo 1226909" transform="translate(14.502 19.255)">
                <path id="Trazado_1058481" data-name="Trazado 1058481" d="M1245.3,987.495a4.745,4.745,0,0,1-1.922-.376.183.183,0,1,1,.14-.339c.478.2,1.817.609,2.261.148.053-.055.276-.467-.559-3.154-.448-1.441-.98-2.822-.985-2.836a.183.183,0,1,1,.342-.132c.005.014.541,1.4.993,2.858.835,2.687.692,3.291.474,3.518A1.157,1.157,0,0,1,1245.3,987.495Z" transform="translate(-1237.308 -979.885)" fill="#bd4a31"/>
                <path id="Trazado_1058482" data-name="Trazado 1058482" d="M1178.451,972.137c-.122-.092-.245-.182-.371-.269a2.122,2.122,0,0,0-.236.963c-.02.733.258,1.335.621,1.345s.673-.576.693-1.309c0-.06,0-.119,0-.177Q1178.808,972.408,1178.451,972.137Z" transform="translate(-1177.844 -971.868)" fill="#0e0e0e"/>
                <path id="Trazado_1058483" data-name="Trazado 1058483" d="M1307.7,976.244c-.136.176-.269.356-.4.535s-.243.336-.36.507l-.042.061c0,.024,0,.047,0,.071-.019.684.241,1.246.58,1.255s.629-.538.647-1.221A1.4,1.4,0,0,0,1307.7,976.244Z" transform="translate(-1295.135 -975.845)" fill="#0e0e0e"/>
              </g>
              <path id="Trazado_1058484" data-name="Trazado 1058484" d="M1065.834,982.919h-.01a.183.183,0,0,1-.191-.175,2.2,2.2,0,0,0-.667-1.607,2.6,2.6,0,0,0-1.7-.575.183.183,0,0,1-.022-.366,2.946,2.946,0,0,1,1.97.668,2.55,2.55,0,0,1,.788,1.863A.183.183,0,0,1,1065.834,982.919Z" transform="translate(-1059.023 -960.181)" fill="#bd4a31"/>
              <g id="Grupo_1226911" data-name="Grupo 1226911" transform="translate(6.523 15.582)">
                <g id="Grupo_1226910" data-name="Grupo 1226910" transform="translate(4.147)">
                  <path id="Trazado_1058485" data-name="Trazado 1058485" d="M1140.386,940.742a4.6,4.6,0,1,1,4.6-4.6A4.6,4.6,0,0,1,1140.386,940.742Zm0-8.8a4.2,4.2,0,1,0,4.2,4.2A4.2,4.2,0,0,0,1140.386,931.945Z" transform="translate(-1135.789 -931.548)" fill="#0e0e0e"/>
                  <path id="Trazado_1058486" data-name="Trazado 1058486" d="M1281.07,948.563a4.6,4.6,0,1,1,4.236-4.589A4.428,4.428,0,0,1,1281.07,948.563Zm0-8.8a4.224,4.224,0,1,0,3.854,4.207A4.047,4.047,0,0,0,1281.07,939.767Z" transform="translate(-1263.985 -938.671)" fill="#0e0e0e"/>
                  <path id="Trazado_1058487" data-name="Trazado 1058487" d="M1238.36,962.315a3.211,3.211,0,0,0-4.023-.035l-.2-.324a3.6,3.6,0,0,1,4.46.06Z" transform="translate(-1225.177 -958.51)" fill="#0e0e0e"/>
                </g>
                <path id="Trazado_1058488" data-name="Trazado 1058488" d="M1094.387,955.282a.2.2,0,0,1-.076-.015l-3.923-1.63a.2.2,0,0,1,.153-.367l3.923,1.63a.2.2,0,0,1-.076.383Z" transform="translate(-1090.265 -951.276)" fill="#0e0e0e"/>
              </g>
            </g>
          </g>
          <path id="Trazado_1058489" data-name="Trazado 1058489" d="M836.723,1219.813s13.7,18.865,21.376,19.038,23.236-18.522,23.236-18.522c.927-2.781-2.792-6.211-6.351-2.712-4.1,2.835-9.283,2.921-15.159,9.2l-10.468-16.143Z" transform="translate(-821.49 -1169.665)" fill="#f7a594"/>
          <path id="Trazado_1058490" data-name="Trazado 1058490" d="M1174.272,963.358a.182.182,0,0,1-.142-.068c-.007-.009-.745-.922-1.315-1.492-.809-.809-1.405-.252-1.43-.228a.182.182,0,0,1-.253-.262,1.337,1.337,0,0,1,1.941.232c.584.584,1.31,1.483,1.341,1.521a.182.182,0,0,1-.142.3Z" transform="translate(-1125.384 -942.733)" fill="#0e0e0e"/>
          <path id="Trazado_1058491" data-name="Trazado 1058491" d="M1305.983,966.018a.182.182,0,0,1-.156-.275l.164-.279a8.267,8.267,0,0,1,1.115-1.58,1.1,1.1,0,0,1,1.142-.381.6.6,0,0,1,.4.563.182.182,0,0,1-.364.012.235.235,0,0,0-.162-.233.745.745,0,0,0-.746.284,7.972,7.972,0,0,0-1.07,1.52l-.165.28A.181.181,0,0,1,1305.983,966.018Z" transform="translate(-1247.835 -944.967)" fill="#0e0e0e"/>
          <g id="Grupo_1226914" data-name="Grupo 1226914" transform="translate(45.724 27.109)">
            <path id="Trazado_1058492" data-name="Trazado 1058492" d="M1173.427,1058.08l5.459,1.411c.832.3-.591,3.116-1.879,3.04l-5.437-1.48C1170.917,1060.255,1172.59,1058.146,1173.427,1058.08Z" transform="translate(-1171.423 -1058.08)" fill="#fff"/>
            <path id="Trazado_1058493" data-name="Trazado 1058493" d="M1184.312,1075.856h0a41.928,41.928,0,0,1-6.593-1.683.023.023,0,0,1,.014-.043,41.9,41.9,0,0,0,6.585,1.681.023.023,0,0,1,.019.026A.022.022,0,0,1,1184.312,1075.856Z" transform="translate(-1177.128 -1072.667)" fill="#bfbfbf"/>
          </g>
          <path id="Trazado_1058494" data-name="Trazado 1058494" d="M1154.23,1069.87a.1.1,0,0,1-.055-.017,1.231,1.231,0,0,1-.511-.839,1.613,1.613,0,0,1,.59-1.27.1.1,0,0,1,.143.142,1.431,1.431,0,0,0-.532,1.105,1.042,1.042,0,0,0,.422.694.1.1,0,0,1,.028.14A.1.1,0,0,1,1154.23,1069.87Z" transform="translate(-1109.553 -1039.727)" fill="#db6a58"/>
          <path id="Trazado_1058495" data-name="Trazado 1058495" d="M822.975,1153.718l8.76,12.154c-2.316,6.433-6.47,9.75-12.042,11.968,0,0-12.578-9.293-9.95-17.834S821.6,1152.018,822.975,1153.718Z" transform="translate(-796.641 -1116.965)" fill="#007880"/>
          <g id="Grupo_1226915" data-name="Grupo 1226915" transform="translate(52.56 39.909)">
            <path id="Trazado_1058496" data-name="Trazado 1058496" d="M1247.161,1206.408s-1.014-2.786-.609-3.893a1.784,1.784,0,0,1,1.745-1.023s-.368-1.819.693-2.564,5.065-.535,7.01,2.94-1.718,7.693-3.1,7.986S1247.809,1209.493,1247.161,1206.408Z" transform="translate(-1246.457 -1198.576)" fill="#f7a594"/>
            <path id="Trazado_1058497" data-name="Trazado 1058497" d="M1266.412,1219.852a.78.78,0,0,1-.383-.1,1.179,1.179,0,0,1-.5-.677.1.1,0,0,1,.2-.052h0a.986.986,0,0,0,.4.549.664.664,0,0,0,.536.029,1.409,1.409,0,0,0,.889-1.58.1.1,0,0,1,.2-.049,1.6,1.6,0,0,1-1.026,1.824A1.049,1.049,0,0,1,1266.412,1219.852Z" transform="translate(-1263.792 -1216.137)" fill="#c76c59"/>
          </g>
          <path id="Trazado_1058498" data-name="Trazado 1058498" d="M839.708,1293.418l-.112-.082a35.448,35.448,0,0,1-7.91-8.417.273.273,0,0,1,.448-.314,35.117,35.117,0,0,0,7.672,8.207,21.372,21.372,0,0,0,6.7-4,16.454,16.454,0,0,0,4.442-5.464l-2.317-3.33a.273.273,0,1,1,.449-.312l2.486,3.573-.054.137c-1.485,3.73-7.045,8.48-11.665,9.965Z" transform="translate(-816.866 -1232.295)" fill="#005157"/>
        </g>
        <g id="Grupo_1226919" data-name="Grupo 1226919" transform="translate(4.711 65.896)">
          <g id="Grupo_1226918" data-name="Grupo 1226918" transform="translate(4.077)">
            <g id="Grupo_1226917" data-name="Grupo 1226917">
              <path id="Trazado_1058499" data-name="Trazado 1058499" d="M780.208,1498.533h-13.38l-.845-14.7h15.069Z" transform="translate(-765.984 -1483.83)" fill="#fff"/>
              <path id="Trazado_1058500" data-name="Trazado 1058500" d="M891.14,1527.76a3.986,3.986,0,1,0,3.987,3.986A3.987,3.987,0,0,0,891.14,1527.76Zm0,6.273a2.287,2.287,0,1,1,2.287-2.287A2.287,2.287,0,0,1,891.14,1534.033Z" transform="translate(-876.115 -1523.758)" fill="#fff"/>
            </g>
          </g>
          <path id="Trazado_1058501" data-name="Trazado 1058501" d="M743.586,1632.474h-20.96l-1.4-1.564h23.76Z" transform="translate(-721.226 -1617.511)" fill="#fff"/>
        </g>
      </g>
      <g id="laptop" transform="translate(8176.952 615.796)">
        <g id="Grupo_1226922" data-name="Grupo 1226922" transform="translate(70.377 0)">
          <path id="Trazado_1058502" data-name="Trazado 1058502" d="M1533.79,1183.671a2.874,2.874,0,0,1-2.016.76h-22.08a1.134,1.134,0,0,1,0-2.269h22.211a.427.427,0,0,0,.355-.182.468.468,0,0,0,.091-.4l-7.961-34.284-1.711-7.363h-4.051v-2.36h4.851v.02a1.121,1.121,0,0,1,1.185.851l1.317,5.672,8.568,36.938A2.713,2.713,0,0,1,1533.79,1183.671Z" transform="translate(-1479.429 -1099.499)" fill="#5e5e5e"/>
          <path id="Trazado_1058503" data-name="Trazado 1058503" d="M1626.42,1144.114l-1.59,3.18-1.712-7.363h-4.051v-2.36h4.851v.02a1.121,1.121,0,0,1,1.185.851Z" transform="translate(-1579.869 -1099.493)" fill="#404040"/>
          <g id="Grupo_1226920" data-name="Grupo 1226920" transform="translate(0 83.099)">
            <path id="Trazado_1058504" data-name="Trazado 1058504" d="M1189.461,1638.533h23.32a.666.666,0,0,0,.666-.666h0a.666.666,0,0,0-.666-.667h-23.32a.666.666,0,0,0-.666.667h0A.666.666,0,0,0,1189.461,1638.533Z" transform="translate(-1188.795 -1636.704)" fill="#4f4f4f"/>
            <rect id="Rectángulo_422734" data-name="Rectángulo 422734" width="2.392" height="1.034" transform="translate(1.38)" fill="#4f4f4f"/>
            <rect id="Rectángulo_422735" data-name="Rectángulo 422735" width="2.392" height="1.034" transform="translate(5.215)" fill="#4f4f4f"/>
            <rect id="Rectángulo_422736" data-name="Rectángulo 422736" width="2.392" height="1.034" transform="translate(9.051)" fill="#4f4f4f"/>
            <rect id="Rectángulo_422737" data-name="Rectángulo 422737" width="2.392" height="1.034" transform="translate(12.887)" fill="#4f4f4f"/>
            <rect id="Rectángulo_422738" data-name="Rectángulo 422738" width="2.392" height="1.034" transform="translate(16.722)" fill="#4f4f4f"/>
            <rect id="Rectángulo_422739" data-name="Rectángulo 422739" width="2.392" height="1.034" transform="translate(20.558)" fill="#4f4f4f"/>
          </g>
          <g id="Grupo_1226921" data-name="Grupo 1226921" transform="translate(22.772)">
            <path id="Trazado_1058505" data-name="Trazado 1058505" d="M1469.273,720.539l-2.531-.942-27.98,75.222,2.532.942c.365-.434.717-.877,1.065-1.323l26.915-73.882Z" transform="translate(-1438.762 -719.597)" fill="#a6a6a6"/>
            <path id="Trazado_1058506" data-name="Trazado 1058506" d="M1478.24,804.013a46.284,46.284,0,0,0,6.9-12.339l17.194-46.226a44.99,44.99,0,0,0,2.819-15.11l0-.207Z" transform="translate(-1474.643 -729.171)" fill="#5e5e5e"/>
          </g>
        </g>
        <g id="Grupo_1226924" data-name="Grupo 1226924" transform="translate(164.739 0)">
          <path id="Trazado_1058507" data-name="Trazado 1058507" d="M2225.434,1183.671a2.875,2.875,0,0,0,2.016.76h22.08a1.134,1.134,0,0,0,0-2.269h-22.211a.427.427,0,0,1-.354-.182.47.47,0,0,1-.091-.4l7.961-34.284,1.712-7.363h4.052v-2.36h-4.852v.02a1.121,1.121,0,0,0-1.185.851l-1.317,5.672-8.569,36.938A2.714,2.714,0,0,0,2225.434,1183.671Z" transform="translate(-2224.594 -1099.499)" fill="#5e5e5e"/>
          <path id="Trazado_1058508" data-name="Trazado 1058508" d="M2319.54,1144.114l1.59,3.18,1.711-7.363h4.052v-2.36h-4.852v.02a1.121,1.121,0,0,0-1.185.851Z" transform="translate(-2310.89 -1099.493)" fill="#404040"/>
          <g id="Grupo_1226923" data-name="Grupo 1226923" transform="translate(1.917)">
            <path id="Trazado_1058509" data-name="Trazado 1058509" d="M2245.64,720.539l2.531-.942,27.98,75.222-2.531.942c-.365-.434-.717-.877-1.065-1.323l-26.915-73.882Z" transform="translate(-2245.64 -719.597)" fill="#a6a6a6"/>
            <path id="Trazado_1058510" data-name="Trazado 1058510" d="M2272.559,804.013a46.3,46.3,0,0,1-6.9-12.339l-17.194-46.226a45.005,45.005,0,0,1-2.819-15.11l0-.207Z" transform="translate(-2245.644 -729.171)" fill="#5e5e5e"/>
          </g>
        </g>
        <g id="Grupo_1226925" data-name="Grupo 1226925" transform="translate(193.01 83.099)">
          <path id="Trazado_1058511" data-name="Trazado 1058511" d="M2558.9,1638.533h-23.32a.666.666,0,0,1-.666-.666h0a.666.666,0,0,1,.666-.667h23.32a.666.666,0,0,1,.667.667h0A.666.666,0,0,1,2558.9,1638.533Z" transform="translate(-2534.918 -1636.704)" fill="#4f4f4f"/>
          <rect id="Rectángulo_422740" data-name="Rectángulo 422740" width="2.392" height="1.034" transform="translate(23.274 1.034) rotate(180)" fill="#4f4f4f"/>
          <rect id="Rectángulo_422741" data-name="Rectángulo 422741" width="2.392" height="1.034" transform="translate(19.437 1.034) rotate(180)" fill="#4f4f4f"/>
          <rect id="Rectángulo_422742" data-name="Rectángulo 422742" width="2.392" height="1.034" transform="translate(15.602 1.034) rotate(180)" fill="#4f4f4f"/>
          <rect id="Rectángulo_422743" data-name="Rectángulo 422743" width="2.392" height="1.034" transform="translate(11.766 1.034) rotate(180)" fill="#4f4f4f"/>
          <rect id="Rectángulo_422744" data-name="Rectángulo 422744" width="2.392" height="1.034" transform="translate(7.93 1.034) rotate(180)" fill="#4f4f4f"/>
          <rect id="Rectángulo_422745" data-name="Rectángulo 422745" width="2.392" height="1.034" transform="translate(4.094 1.034) rotate(180)" fill="#4f4f4f"/>
        </g>
        <path id="Trazado_1058512" data-name="Trazado 1058512" d="M2329.382,1652.979a1.1,1.1,0,0,0-1.1-1.1h-144.6a1.119,1.119,0,1,0,0,2.209h144.6a1.1,1.1,0,0,0,1.1-1.1Z" transform="translate(-2021.487 -1566.943)" fill="#0e0e0e"/>
        <path id="Trazado_1058513" data-name="Trazado 1058513" d="M547.079,1652.979a1.1,1.1,0,0,0-1.1-1.1H417.581a1.119,1.119,0,1,0,0,2.209H545.974a1.1,1.1,0,0,0,1.105-1.1Z" transform="translate(-416.281 -1566.943)" fill="#0e0e0e"/>
      </g>
    </g>
  </g>
</svg>
