<svg xmlns="http://www.w3.org/2000/svg" xmlns:xlink="http://www.w3.org/1999/xlink" width="113" height="113" viewBox="0 0 113 113">
  <defs>
    <filter id="Trazado_982547" x="0" y="0" width="113" height="113" filterUnits="userSpaceOnUse">
      <feOffset dy="3" input="SourceAlpha"/>
      <feGaussianBlur stdDeviation="3" result="blur"/>
      <feFlood flood-opacity="0.161"/>
      <feComposite operator="in" in2="blur"/>
      <feComposite in="SourceGraphic"/>
    </filter>
  </defs>
  <g id="Grupo_1226970" data-name="Grupo 1226970" transform="translate(-324 -7266.819)">
    <g id="Grupo_1226448" data-name="Grupo 1226448" transform="translate(333 7272.819)">
      <g id="Grupo_1225528" data-name="Grupo 1225528" transform="translate(0)">
        <g id="Grupo_1225173" data-name="Grupo 1225173">
          <g id="Grupo_1224643" data-name="Grupo 1224643">
            <g id="Grupo_1224291" data-name="Grupo 1224291">
              <g id="Grupo_1224091" data-name="Grupo 1224091">
                <g id="Grupo_1223183" data-name="Grupo 1223183">
                  <g id="Grupo_1211217" data-name="Grupo 1211217">
                    <g id="Grupo_1210736" data-name="Grupo 1210736">
                      <g id="Grupo_1210537" data-name="Grupo 1210537">
                        <g id="Grupo_1164202" data-name="Grupo 1164202">
                          <g id="Grupo_1158168" data-name="Grupo 1158168">
                            <g id="Grupo_1152576" data-name="Grupo 1152576">
                              <g id="Grupo_1148633" data-name="Grupo 1148633">
                                <g id="Grupo_1148525" data-name="Grupo 1148525">
                                  <g transform="matrix(1, 0, 0, 1, -9, -6)" filter="url(#Trazado_982547)">
                                    <g id="Trazado_982547-2" data-name="Trazado 982547" transform="translate(9 6)" fill="#fdf6e4">
                                      <path d="M 47.49999618530273 93.5 C 41.28936767578125 93.5 35.26533126831055 92.28396606445312 29.59518241882324 89.88570404052734 C 24.11771583557129 87.56893157958984 19.19812965393066 84.251953125 14.97308921813965 80.02690124511719 C 10.74803638458252 75.80186462402344 7.431062698364258 70.88227844238281 5.114289283752441 65.40480804443359 C 2.716022968292236 59.73466110229492 1.499996185302734 53.71062469482422 1.499996185302734 47.49999618530273 C 1.499996185302734 41.28936767578125 2.716022968292236 35.26533126831055 5.114289283752441 29.59518241882324 C 7.431062698364258 24.11771583557129 10.74803638458252 19.19812965393066 14.97308921813965 14.97308921813965 C 19.19812965393066 10.74803638458252 24.11771583557129 7.431062698364258 29.59518241882324 5.114289283752441 C 35.26533126831055 2.716022968292236 41.28936767578125 1.499996185302734 47.49999618530273 1.499996185302734 C 53.71062469482422 1.499996185302734 59.73466110229492 2.716022968292236 65.40480804443359 5.114289283752441 C 70.88227844238281 7.431062698364258 75.80186462402344 10.74803638458252 80.02690124511719 14.97308921813965 C 84.251953125 19.19812965393066 87.56893157958984 24.11771583557129 89.88570404052734 29.59518241882324 C 92.28396606445312 35.26533126831055 93.5 41.28936767578125 93.5 47.49999618530273 C 93.5 53.71062469482422 92.28396606445312 59.73466110229492 89.88570404052734 65.40480804443359 C 87.56893157958984 70.88227844238281 84.251953125 75.80186462402344 80.02690124511719 80.02690124511719 C 75.80186462402344 84.251953125 70.88227844238281 87.56893157958984 65.40480804443359 89.88570404052734 C 59.73466110229492 92.28396606445312 53.71062469482422 93.5 47.49999618530273 93.5 Z" stroke="none"/>
                                      <path d="M 47.49999618530273 2.999992370605469 C 41.4912109375 2.999992370605469 35.66376495361328 4.1761474609375 30.17950439453125 6.495796203613281 C 24.88084411621094 8.736953735351562 20.12152099609375 11.94598388671875 16.03375244140625 16.03375244140625 C 11.94598388671875 20.12152099609375 8.736953735351562 24.88084411621094 6.495796203613281 30.17950439453125 C 4.1761474609375 35.66376495361328 2.999992370605469 41.4912109375 2.999992370605469 47.49999618530273 C 2.999992370605469 53.50878143310547 4.1761474609375 59.33622741699219 6.495796203613281 64.82048797607422 C 8.736953735351562 70.11914825439453 11.94598388671875 74.87847137451172 16.03375244140625 78.96623992919922 C 20.12152099609375 83.05400848388672 24.88084411621094 86.26304626464844 30.17950439453125 88.50419616699219 C 35.66376495361328 90.82384490966797 41.4912109375 92 47.49999618530273 92 C 53.50878143310547 92 59.33622741699219 90.82384490966797 64.82048797607422 88.50419616699219 C 70.11914825439453 86.26304626464844 74.87847137451172 83.05400848388672 78.96623992919922 78.96623992919922 C 83.05400848388672 74.87847137451172 86.26304626464844 70.11914825439453 88.50419616699219 64.82048797607422 C 90.82384490966797 59.33622741699219 92 53.50878143310547 92 47.49999618530273 C 92 41.4912109375 90.82384490966797 35.66376495361328 88.50419616699219 30.17950439453125 C 86.26304626464844 24.88084411621094 83.05400848388672 20.12152099609375 78.96623992919922 16.03375244140625 C 74.87847137451172 11.94598388671875 70.11914825439453 8.736953735351562 64.82048797607422 6.495796203613281 C 59.33622741699219 4.1761474609375 53.50878143310547 2.999992370605469 47.49999618530273 2.999992370605469 M 47.49999618530273 -7.62939453125e-06 C 73.7335205078125 -7.62939453125e-06 95 21.26647186279297 95 47.49999618530273 C 95 73.7335205078125 73.7335205078125 95 47.49999618530273 95 C 21.26647186279297 95 -7.62939453125e-06 73.7335205078125 -7.62939453125e-06 47.49999618530273 C -7.62939453125e-06 21.26647186279297 21.26647186279297 -7.62939453125e-06 47.49999618530273 -7.62939453125e-06 Z" stroke="none" fill="#f5b104"/>
                                    </g>
                                  </g>
                                </g>
                              </g>
                            </g>
                          </g>
                        </g>
                      </g>
                    </g>
                  </g>
                </g>
              </g>
            </g>
          </g>
        </g>
      </g>
    </g>
    <g id="proteger_13_" data-name="proteger (13)" transform="translate(327.302 7291.73)">
      <path id="Trazado_1058688" data-name="Trazado 1058688" d="M62.569,67.96l-2.785,1.464a1.53,1.53,0,0,1-1.424,0L55.576,67.96c-15.29-8.037-24.705-22.866-24.705-38.913v-9.8a1.522,1.522,0,0,1,1.349-1.519c5.27-.556,9.46-4.329,10.128-9.1a1.539,1.539,0,0,1,1.518-1.339H74.279A1.539,1.539,0,0,1,75.8,8.626c.668,4.772,4.858,8.545,10.128,9.1a1.522,1.522,0,0,1,1.349,1.519v9.8C87.275,45.093,77.859,59.923,62.569,67.96Z" transform="translate(-6.374 -6.374)" fill="#e1e6e9"/>
      <path id="Trazado_1058689" data-name="Trazado 1058689" d="M279.862,17.726c-5.27-.556-9.46-4.329-10.128-9.1a1.539,1.539,0,0,0-1.518-1.339h-2.071c.3,6.616,5.012,11.308,10.113,11.846a1.521,1.521,0,0,1,1.349,1.519v9.8c0,16.046-9.415,30.876-24.705,38.913l-.321.169a1.528,1.528,0,0,0,1.14-.112l2.785-1.464c15.29-8.036,24.705-22.866,24.705-38.913v-9.8A1.522,1.522,0,0,0,279.862,17.726Z" transform="translate(-200.311 -6.373)" fill="#cbcbcb"/>
      <path id="Trazado_1058690" data-name="Trazado 1058690" d="M89.35,93.551A43.809,43.809,0,0,1,72.672,78.4a37.954,37.954,0,0,1-6.008-20.345V52.5A1.964,1.964,0,0,1,67.9,50.668a17.24,17.24,0,0,0,9.271-8.521,1.96,1.96,0,0,1,1.772-1.111h22.875a1.96,1.96,0,0,1,1.772,1.111,17.24,17.24,0,0,0,9.271,8.521A1.964,1.964,0,0,1,114.1,52.5v5.563A37.954,37.954,0,0,1,108.092,78.4,43.81,43.81,0,0,1,91.414,93.551l-.115.061a1.97,1.97,0,0,1-1.833,0Z" transform="translate(-37.683 -35.895)" fill="#4ad194"/>
      <path id="Trazado_1058691" data-name="Trazado 1058691" d="M278.481,50.667l-.1-.039-.16-.066-.272-.115-.156-.068q-.145-.064-.287-.131l-.13-.06q-.206-.1-.409-.2l-.03-.016q-.188-.1-.373-.2l-.131-.072c-.09-.049-.179-.1-.268-.15l-.147-.085-.25-.148-.144-.088c-.087-.053-.172-.108-.258-.163l-.125-.08q-.175-.115-.347-.233l-.026-.017q-.185-.128-.365-.26L274.4,48.4c-.083-.062-.165-.123-.247-.186l-.131-.1q-.113-.089-.225-.179l-.13-.106q-.114-.095-.227-.191l-.116-.1q-.139-.121-.275-.246l-.057-.051q-.163-.15-.322-.3l-.091-.09q-.113-.111-.224-.224l-.112-.116q-.1-.1-.2-.208l-.113-.123q-.1-.107-.193-.215l-.1-.117c-.075-.086-.148-.173-.221-.261l-.064-.076q-.14-.17-.275-.344l-.068-.09q-.1-.13-.2-.262l-.092-.128q-.084-.116-.166-.233l-.095-.137q-.08-.118-.158-.237l-.087-.133c-.058-.09-.115-.182-.171-.273l-.062-.1q-.114-.188-.222-.378l-.045-.081q-.085-.151-.167-.3l-.071-.136q-.067-.128-.132-.258l-.073-.149c-.018-.038-.038-.075-.056-.113a1.96,1.96,0,0,0-1.772-1.111H256v52.8a1.969,1.969,0,0,0,.917-.226l.115-.061A43.809,43.809,0,0,0,273.711,78.4a37.954,37.954,0,0,0,6.008-20.345V52.495A1.964,1.964,0,0,0,278.481,50.667Z" transform="translate(-203.302 -35.895)" fill="#35b79e"/>
      <path id="Trazado_1058692" data-name="Trazado 1058692" d="M278.481,50.667l-.1-.039-.16-.066-.272-.115-.156-.068q-.144-.064-.287-.131l-.13-.06q-.206-.1-.409-.2l-.03-.016q-.188-.1-.373-.2l-.13-.072c-.09-.049-.179-.1-.268-.15l-.147-.085-.25-.148-.144-.088c-.087-.053-.172-.108-.258-.163l-.125-.08q-.175-.115-.347-.233l-.026-.017q-.185-.128-.365-.26L274.4,48.4q-.124-.092-.247-.186l-.131-.1q-.113-.089-.225-.179l-.13-.106q-.114-.095-.227-.191l-.116-.1q-.139-.121-.275-.246l-.057-.051q-.163-.15-.322-.3l-.091-.09q-.113-.111-.224-.224l-.112-.116q-.1-.1-.2-.208l-.113-.123q-.1-.107-.193-.215l-.1-.117c-.075-.086-.148-.173-.221-.261l-.064-.076q-.14-.17-.275-.344l-.068-.09q-.1-.13-.2-.262l-.092-.128q-.084-.116-.166-.233l-.095-.137q-.08-.118-.158-.237l-.087-.133c-.058-.09-.115-.182-.171-.273l-.062-.1q-.114-.188-.222-.378l-.045-.081q-.085-.151-.167-.3c-.024-.045-.047-.091-.071-.136-.045-.086-.089-.171-.132-.258l-.073-.149c-.018-.038-.037-.075-.055-.113a1.96,1.96,0,0,0-1.772-1.111h-3.165a17.568,17.568,0,0,1,1.391,2.1c.021.036.037.075.055.113l.073.149q.065.13.132.258l.071.136q.082.153.167.3l.045.081q.108.191.222.378l.062.1q.084.137.171.273l.087.133c.052.08.1.159.159.237l.095.137q.082.117.166.233l.092.128c.065.088.131.175.2.262l.068.09q.135.174.275.344l.064.076c.073.088.146.175.221.261l.1.117q.1.108.193.215l.113.123q.1.1.2.208l.112.116c.074.075.149.15.224.224l.091.09q.159.154.322.3l.057.051q.136.124.275.246l.115.1q.113.1.227.191l.13.106q.112.091.225.179l.131.1q.123.094.247.186l.112.083q.181.132.365.26l.026.017q.172.118.347.233l.125.08q.128.082.258.163l.144.088.25.148.147.085q.133.076.268.15l.131.072q.185.1.373.2l.03.016q.2.1.409.2l.13.06c.1.044.191.088.287.131l.156.068.272.115.16.066.1.039a1.964,1.964,0,0,1,1.237,1.828v5.563a37.954,37.954,0,0,1-6.008,20.345A46.744,46.744,0,0,1,256,93.785v.052a1.969,1.969,0,0,0,.917-.226l.115-.061A43.809,43.809,0,0,0,273.711,78.4a37.954,37.954,0,0,0,6.008-20.345V52.495A1.964,1.964,0,0,0,278.481,50.667Z" transform="translate(-203.302 -35.895)" fill="#1e9690"/>
      <path id="Trazado_1058693" data-name="Trazado 1058693" d="M180.044,206.2H159.2a1.99,1.99,0,0,1-1.99-1.99V191.142a1.99,1.99,0,0,1,1.99-1.99h20.84a1.99,1.99,0,0,1,1.99,1.99v13.069A1.99,1.99,0,0,1,180.044,206.2Z" transform="translate(-116.89 -165.457)" fill="#636a75"/>
      <path id="Trazado_1058694" data-name="Trazado 1058694" d="M314.3,189.152h-3.6a1.99,1.99,0,0,1,1.99,1.99v13.069a1.99,1.99,0,0,1-1.99,1.99h3.6a1.99,1.99,0,0,0,1.99-1.99V191.142A1.99,1.99,0,0,0,314.3,189.152Z" transform="translate(-251.145 -165.457)" fill="#515a66"/>
      <path id="Trazado_1058695" data-name="Trazado 1058695" d="M240.439,236.324v2.6a.913.913,0,0,0,1.826,0v-2.6a2.138,2.138,0,1,0-1.826,0Z" transform="translate(-188.618 -203.161)"/>
      <path id="Trazado_1058696" data-name="Trazado 1058696" d="M82.553,87.985h0l.115.061a2.883,2.883,0,0,0,2.682,0l.116-.061A44.723,44.723,0,0,0,102.49,72.519a38.865,38.865,0,0,0,6.15-20.834V46.122a2.861,2.861,0,0,0-1.814-2.677,16.231,16.231,0,0,1-8.782-8.064,2.885,2.885,0,0,0-2.6-1.632H72.572a2.884,2.884,0,0,0-2.6,1.632,16.231,16.231,0,0,1-8.782,8.064,2.861,2.861,0,0,0-1.814,2.677v5.563a38.864,38.864,0,0,0,6.15,20.834A44.722,44.722,0,0,0,82.553,87.985ZM61.2,51.685V46.122a1.045,1.045,0,0,1,.661-.979,18.049,18.049,0,0,0,9.759-8.977,1.05,1.05,0,0,1,.948-.59H95.447a1.051,1.051,0,0,1,.948.59,18.051,18.051,0,0,0,9.759,8.977,1.045,1.045,0,0,1,.661.979v5.563a37.043,37.043,0,0,1-5.866,19.856A42.9,42.9,0,0,1,84.617,86.369l-.116.061a1.057,1.057,0,0,1-.984,0l-.115-.061A42.9,42.9,0,0,1,67.07,71.541,37.043,37.043,0,0,1,61.2,51.685Z" transform="translate(-31.311 -29.521)"/>
      <path id="Trazado_1058697" data-name="Trazado 1058697" d="M87.066,245.561a.912.912,0,0,0-1.091.689c-2.78,12.3-11.247,22.964-23.229,29.262l-2.785,1.464a.617.617,0,0,1-.574,0L56.6,275.513c-12-6.308-20.472-16.992-23.241-29.313a.913.913,0,0,0-1.781.4c2.886,12.844,11.7,23.971,24.172,30.529l2.785,1.464a2.442,2.442,0,0,0,2.273,0l2.785-1.464c12.457-6.547,21.263-17.655,24.161-30.476A.913.913,0,0,0,87.066,245.561Z" transform="translate(-6.974 -214.735)"/>
      <path id="Trazado_1058698" data-name="Trazado 1058698" d="M79.647,10.445c-4.874-.514-8.707-3.935-9.32-8.32A2.465,2.465,0,0,0,67.905,0H37.492A2.465,2.465,0,0,0,35.07,2.125c-.614,4.384-4.446,7.805-9.32,8.32a2.426,2.426,0,0,0-2.166,2.427v9.8a42.017,42.017,0,0,0,.219,4.28.913.913,0,0,0,.907.82.925.925,0,0,0,.094,0,.913.913,0,0,0,.815-1,40.2,40.2,0,0,1-.21-4.093v-9.8a.612.612,0,0,1,.532-.611c5.709-.6,10.206-4.666,10.936-9.882a.624.624,0,0,1,.614-.552H67.905a.624.624,0,0,1,.614.552c.73,5.216,5.227,9.28,10.936,9.882a.612.612,0,0,1,.532.611v9.8a40.212,40.212,0,0,1-.205,4.051.913.913,0,0,0,1.816.185,42.027,42.027,0,0,0,.215-4.236v-9.8A2.426,2.426,0,0,0,79.647,10.445Z" transform="translate(0)"/>
      <path id="Trazado_1058699" data-name="Trazado 1058699" d="M173.67,108.036a2.906,2.906,0,0,0,2.9-2.9V92.064a2.906,2.906,0,0,0-2.9-2.9h-1.5V84.8a8.919,8.919,0,0,0-17.838,0v4.357h-1.5a2.906,2.906,0,0,0-2.9,2.9v13.069a2.906,2.906,0,0,0,2.9,2.9ZM156.156,84.8a7.093,7.093,0,0,1,14.187,0v4.357H156.156Zm-4.4,20.329V92.064a1.079,1.079,0,0,1,1.077-1.077h20.84a1.079,1.079,0,0,1,1.077,1.077v13.069a1.079,1.079,0,0,1-1.077,1.077H152.83A1.079,1.079,0,0,1,151.753,105.133Z" transform="translate(-110.516 -66.379)"/>
    </g>
  </g>
</svg>
