<svg xmlns="http://www.w3.org/2000/svg" xmlns:xlink="http://www.w3.org/1999/xlink" width="113" height="113" viewBox="0 0 113 113">
  <defs>
    <filter id="Trazado_982547" x="0" y="0" width="113" height="113" filterUnits="userSpaceOnUse">
      <feOffset dy="3" input="SourceAlpha"/>
      <feGaussianBlur stdDeviation="3" result="blur"/>
      <feFlood flood-opacity="0.161"/>
      <feComposite operator="in" in2="blur"/>
      <feComposite in="SourceGraphic"/>
    </filter>
  </defs>
  <g id="Grupo_1226989" data-name="Grupo 1226989" transform="translate(-744 -7266.819)">
    <g id="Grupo_1226447" data-name="Grupo 1226447" transform="translate(753 7272.819)">
      <g id="Grupo_1225528" data-name="Grupo 1225528" transform="translate(0)">
        <g id="Grupo_1225173" data-name="Grupo 1225173">
          <g id="Grupo_1224643" data-name="Grupo 1224643">
            <g id="Grupo_1224291" data-name="Grupo 1224291">
              <g id="Grupo_1224091" data-name="Grupo 1224091">
                <g id="Grupo_1223183" data-name="Grupo 1223183">
                  <g id="Grupo_1211217" data-name="Grupo 1211217">
                    <g id="Grupo_1210736" data-name="Grupo 1210736">
                      <g id="Grupo_1210537" data-name="Grupo 1210537">
                        <g id="Grupo_1164202" data-name="Grupo 1164202">
                          <g id="Grupo_1158168" data-name="Grupo 1158168">
                            <g id="Grupo_1152576" data-name="Grupo 1152576">
                              <g id="Grupo_1148633" data-name="Grupo 1148633">
                                <g id="Grupo_1148525" data-name="Grupo 1148525">
                                  <g transform="matrix(1, 0, 0, 1, -9, -6)" filter="url(#Trazado_982547)">
                                    <g id="Trazado_982547-2" data-name="Trazado 982547" transform="translate(9 6)" fill="#fdf6e4">
                                      <path d="M 47.49999618530273 93.5 C 41.28936767578125 93.5 35.26533126831055 92.28396606445312 29.59518241882324 89.88570404052734 C 24.11771583557129 87.56893157958984 19.19812965393066 84.251953125 14.97308921813965 80.02690124511719 C 10.74803638458252 75.80186462402344 7.431062698364258 70.88227844238281 5.114289283752441 65.40480804443359 C 2.716022968292236 59.73466110229492 1.499996185302734 53.71062469482422 1.499996185302734 47.49999618530273 C 1.499996185302734 41.28936767578125 2.716022968292236 35.26533126831055 5.114289283752441 29.59518241882324 C 7.431062698364258 24.11771583557129 10.74803638458252 19.19812965393066 14.97308921813965 14.97308921813965 C 19.19812965393066 10.74803638458252 24.11771583557129 7.431062698364258 29.59518241882324 5.114289283752441 C 35.26533126831055 2.716022968292236 41.28936767578125 1.499996185302734 47.49999618530273 1.499996185302734 C 53.71062469482422 1.499996185302734 59.73466110229492 2.716022968292236 65.40480804443359 5.114289283752441 C 70.88227844238281 7.431062698364258 75.80186462402344 10.74803638458252 80.02690124511719 14.97308921813965 C 84.251953125 19.19812965393066 87.56893157958984 24.11771583557129 89.88570404052734 29.59518241882324 C 92.28396606445312 35.26533126831055 93.5 41.28936767578125 93.5 47.49999618530273 C 93.5 53.71062469482422 92.28396606445312 59.73466110229492 89.88570404052734 65.40480804443359 C 87.56893157958984 70.88227844238281 84.251953125 75.80186462402344 80.02690124511719 80.02690124511719 C 75.80186462402344 84.251953125 70.88227844238281 87.56893157958984 65.40480804443359 89.88570404052734 C 59.73466110229492 92.28396606445312 53.71062469482422 93.5 47.49999618530273 93.5 Z" stroke="none"/>
                                      <path d="M 47.49999618530273 2.999992370605469 C 41.4912109375 2.999992370605469 35.66376495361328 4.1761474609375 30.17950439453125 6.495796203613281 C 24.88084411621094 8.736953735351562 20.12152099609375 11.94598388671875 16.03375244140625 16.03375244140625 C 11.94598388671875 20.12152099609375 8.736953735351562 24.88084411621094 6.495796203613281 30.17950439453125 C 4.1761474609375 35.66376495361328 2.999992370605469 41.4912109375 2.999992370605469 47.49999618530273 C 2.999992370605469 53.50878143310547 4.1761474609375 59.33622741699219 6.495796203613281 64.82048797607422 C 8.736953735351562 70.11914825439453 11.94598388671875 74.87847137451172 16.03375244140625 78.96623992919922 C 20.12152099609375 83.05400848388672 24.88084411621094 86.26304626464844 30.17950439453125 88.50419616699219 C 35.66376495361328 90.82384490966797 41.4912109375 92 47.49999618530273 92 C 53.50878143310547 92 59.33622741699219 90.82384490966797 64.82048797607422 88.50419616699219 C 70.11914825439453 86.26304626464844 74.87847137451172 83.05400848388672 78.96623992919922 78.96623992919922 C 83.05400848388672 74.87847137451172 86.26304626464844 70.11914825439453 88.50419616699219 64.82048797607422 C 90.82384490966797 59.33622741699219 92 53.50878143310547 92 47.49999618530273 C 92 41.4912109375 90.82384490966797 35.66376495361328 88.50419616699219 30.17950439453125 C 86.26304626464844 24.88084411621094 83.05400848388672 20.12152099609375 78.96623992919922 16.03375244140625 C 74.87847137451172 11.94598388671875 70.11914825439453 8.736953735351562 64.82048797607422 6.495796203613281 C 59.33622741699219 4.1761474609375 53.50878143310547 2.999992370605469 47.49999618530273 2.999992370605469 M 47.49999618530273 -7.62939453125e-06 C 73.7335205078125 -7.62939453125e-06 95 21.26647186279297 95 47.49999618530273 C 95 73.7335205078125 73.7335205078125 95 47.49999618530273 95 C 21.26647186279297 95 -7.62939453125e-06 73.7335205078125 -7.62939453125e-06 47.49999618530273 C -7.62939453125e-06 21.26647186279297 21.26647186279297 -7.62939453125e-06 47.49999618530273 -7.62939453125e-06 Z" stroke="none" fill="#f5b104"/>
                                    </g>
                                  </g>
                                </g>
                              </g>
                            </g>
                          </g>
                        </g>
                      </g>
                    </g>
                  </g>
                </g>
              </g>
            </g>
          </g>
        </g>
      </g>
    </g>
    <g id="computadora" transform="translate(769.794 7273.253)">
      <g id="Grupo_1226982" data-name="Grupo 1226982" transform="translate(0.885 20)">
        <g id="Grupo_1226972" data-name="Grupo 1226972" transform="translate(21.228 43.798)">
          <g id="Grupo_1226971" data-name="Grupo 1226971">
            <path id="Trazado_1058700" data-name="Trazado 1058700" d="M189.1,397.8l-1.69,10.334H203.6l-1.69-10.334Z" transform="translate(-187.41 -397.803)" fill="#596c76"/>
          </g>
        </g>
        <g id="Grupo_1226973" data-name="Grupo 1226973" transform="translate(30.721 43.798)">
          <path id="Trazado_1058701" data-name="Trazado 1058701" d="M272.862,397.8h-5l1.69,10.334h5Z" transform="translate(-267.858 -397.803)" fill="#465a61"/>
        </g>
        <path id="Trazado_1058702" data-name="Trazado 1058702" d="M63.193,88.085H49.823a1.173,1.173,0,0,1-.29.477l-1.7,1.7a1.182,1.182,0,0,0-.222,1.358,11.938,11.938,0,0,1,.564,1.358,1.182,1.182,0,0,0,1.116.8H51.7a1.18,1.18,0,0,1,1.18,1.18v3.846a1.18,1.18,0,0,1-1.18,1.18h-2.41a1.182,1.182,0,0,0-1.116.8,11.915,11.915,0,0,1-.564,1.358,1.182,1.182,0,0,0,.222,1.358l1.7,1.7a1.18,1.18,0,0,1,0,1.669L46.814,109.6a1.18,1.18,0,0,1-1.669,0l-1.7-1.7a1.182,1.182,0,0,0-1.358-.222,11.918,11.918,0,0,1-1.358.564,1.182,1.182,0,0,0-.8,1.116v2.41a1.18,1.18,0,0,1-1.18,1.18H34.9a1.18,1.18,0,0,1-1.18-1.18v-2.41a1.182,1.182,0,0,0-.8-1.116,11.927,11.927,0,0,1-1.358-.564,1.182,1.182,0,0,0-1.358.222l-1.7,1.7a1.18,1.18,0,0,1-1.669,0l-2.719-2.719a1.18,1.18,0,0,1,0-1.669l1.7-1.7a1.182,1.182,0,0,0,.222-1.358,11.915,11.915,0,0,1-.564-1.358,1.182,1.182,0,0,0-1.116-.8h-2.41a1.18,1.18,0,0,1-1.18-1.18V94.963a1.18,1.18,0,0,1,1.18-1.18h2.41a1.182,1.182,0,0,0,1.116-.8,11.918,11.918,0,0,1,.564-1.358,1.182,1.182,0,0,0-.222-1.358L24.11,88.562a1.173,1.173,0,0,1-.29-.477H10.45a2.95,2.95,0,0,0-2.95,2.95v26.549H66.143V91.035A2.95,2.95,0,0,0,63.193,88.085Z" transform="translate(-7.5 -80.832)" fill="#fff"/>
        <g id="Grupo_1226974" data-name="Grupo 1226974" transform="translate(49.027 7.253)">
          <path id="Trazado_1058703" data-name="Trazado 1058703" d="M429.667,88.085H423a2.95,2.95,0,0,1,2.95,2.95v26.549h6.667V91.035A2.95,2.95,0,0,0,429.667,88.085Z" transform="translate(-423 -88.085)" fill="#f5f8f9"/>
        </g>
        <g id="Grupo_1226975" data-name="Grupo 1226975" transform="translate(0 36.751)">
          <path id="Trazado_1058704" data-name="Trazado 1058704" d="M10.45,345.248H63.193a2.95,2.95,0,0,0,2.95-2.95v-4.215H7.5V342.3A2.95,2.95,0,0,0,10.45,345.248Z" transform="translate(-7.5 -338.083)" fill="#7a8c98"/>
        </g>
        <g id="Grupo_1226976" data-name="Grupo 1226976" transform="translate(49.027 36.752)">
          <path id="Trazado_1058705" data-name="Trazado 1058705" d="M425.95,338.084V342.3a2.95,2.95,0,0,1-2.95,2.95h6.667a2.95,2.95,0,0,0,2.95-2.95v-4.215Z" transform="translate(-423 -338.084)" fill="#596c76"/>
        </g>
        <g id="Grupo_1226981" data-name="Grupo 1226981" transform="translate(13.268 0)">
          <g id="Grupo_1226977" data-name="Grupo 1226977">
            <path id="Trazado_1058706" data-name="Trazado 1058706" d="M152.051,44.592V40.746a1.18,1.18,0,0,0-1.18-1.18h-2.41a1.182,1.182,0,0,1-1.116-.8,11.913,11.913,0,0,0-.564-1.358A1.182,1.182,0,0,1,147,36.05l1.7-1.7a1.18,1.18,0,0,0,0-1.669l-2.719-2.719a1.18,1.18,0,0,0-1.669,0l-1.7,1.7a1.182,1.182,0,0,1-1.358.222,11.9,11.9,0,0,0-1.358-.564,1.182,1.182,0,0,1-.8-1.116v-2.41a1.18,1.18,0,0,0-1.18-1.18h-3.846a1.18,1.18,0,0,0-1.18,1.18V30.2a1.182,1.182,0,0,1-.8,1.116,11.937,11.937,0,0,0-1.358.564,1.182,1.182,0,0,1-1.358-.222l-1.7-1.7a1.18,1.18,0,0,0-1.669,0l-2.719,2.72a1.18,1.18,0,0,0,0,1.669l1.7,1.7a1.182,1.182,0,0,1,.222,1.358,11.908,11.908,0,0,0-.564,1.358,1.182,1.182,0,0,1-1.116.8h-2.41a1.18,1.18,0,0,0-1.18,1.18v3.846a1.18,1.18,0,0,0,1.18,1.18h2.41a1.182,1.182,0,0,1,1.116.8,11.936,11.936,0,0,0,.564,1.358,1.182,1.182,0,0,1-.222,1.358l-1.7,1.7a1.18,1.18,0,0,0,0,1.669L126,55.381a1.18,1.18,0,0,0,1.669,0l1.7-1.7a1.182,1.182,0,0,1,1.358-.222,11.9,11.9,0,0,0,1.358.564,1.182,1.182,0,0,1,.8,1.116v2.41a1.18,1.18,0,0,0,1.18,1.18h3.846a1.18,1.18,0,0,0,1.18-1.18v-2.41a1.182,1.182,0,0,1,.8-1.116,11.908,11.908,0,0,0,1.358-.564,1.182,1.182,0,0,1,1.358.222l1.7,1.7a1.18,1.18,0,0,0,1.669,0l2.719-2.719a1.18,1.18,0,0,0,0-1.669l-1.7-1.7a1.182,1.182,0,0,1-.222-1.358,11.915,11.915,0,0,0,.564-1.358,1.182,1.182,0,0,1,1.116-.8h2.41A1.18,1.18,0,0,0,152.051,44.592Z" transform="translate(-119.943 -26.615)" fill="#c5d3dd"/>
          </g>
          <path id="Trazado_1058707" data-name="Trazado 1058707" d="M247.68,39.566h-2.41a1.182,1.182,0,0,1-1.116-.8,11.908,11.908,0,0,0-.564-1.358,1.182,1.182,0,0,1,.222-1.358l1.7-1.7a1.18,1.18,0,0,0,0-1.669L242.8,29.957a1.18,1.18,0,0,0-1.669,0l-1.7,1.7a1.182,1.182,0,0,1-1.358.222,11.894,11.894,0,0,0-1.358-.564,1.182,1.182,0,0,1-.8-1.116v-2.41a1.18,1.18,0,0,0-1.18-1.18h-3.846a1.18,1.18,0,0,0-1.18,1.18v.127a16.106,16.106,0,0,1,8.37,8.318,8.3,8.3,0,0,1,0,12.857,16.105,16.105,0,0,1-8.37,8.318v.127a1.18,1.18,0,0,0,1.18,1.18h3.846a1.18,1.18,0,0,0,1.18-1.18v-2.41a1.182,1.182,0,0,1,.8-1.116,11.908,11.908,0,0,0,1.358-.564,1.182,1.182,0,0,1,1.358.222l1.7,1.7a1.18,1.18,0,0,0,1.669,0l2.719-2.719a1.18,1.18,0,0,0,0-1.669l-1.7-1.7a1.182,1.182,0,0,1-.222-1.358,11.916,11.916,0,0,0,.564-1.358,1.182,1.182,0,0,1,1.116-.8h2.41a1.18,1.18,0,0,0,1.18-1.18V40.746a1.18,1.18,0,0,0-1.18-1.18Z" transform="translate(-216.752 -26.615)" fill="#b6c4cf"/>
          <g id="Grupo_1226978" data-name="Grupo 1226978" transform="translate(7.506 7.489)">
            <circle id="Elipse_13557" data-name="Elipse 13557" cx="7.43" cy="7.43" r="7.43" transform="matrix(0.163, -0.987, 0.987, 0.163, 0, 14.667)" fill="#f5f8f9"/>
          </g>
          <g id="Grupo_1226979" data-name="Grupo 1226979" transform="translate(13.222 13.222)">
            <circle id="Elipse_13558" data-name="Elipse 13558" cx="2.832" cy="2.832" r="2.832" fill="#c5d3dd"/>
          </g>
          <g id="Grupo_1226980" data-name="Grupo 1226980" transform="translate(14.756 13.222)">
            <path id="Trazado_1058708" data-name="Trazado 1058708" d="M246.3,138.672a2.819,2.819,0,0,0-1.3.315,2.832,2.832,0,0,1,0,5.033,2.832,2.832,0,1,0,1.3-5.349Z" transform="translate(-245 -138.672)" fill="#b6c4cf"/>
          </g>
        </g>
      </g>
      <g id="Grupo_1226987" data-name="Grupo 1226987" transform="translate(50.207 31.727)">
        <g id="Grupo_1226983" data-name="Grupo 1226983" transform="translate(0 7.67)">
          <path id="Trazado_1058709" data-name="Trazado 1058709" d="M429.512,195.6H426.09a.59.59,0,0,1-.59-.59V191.59a.59.59,0,0,1,.59-.59h3.422a.59.59,0,0,1,.59.59v3.422A.59.59,0,0,1,429.512,195.6Z" transform="translate(-425.5 -191)" fill="#ffe177"/>
        </g>
        <g id="Grupo_1226986" data-name="Grupo 1226986">
          <g id="Grupo_1226984" data-name="Grupo 1226984">
            <path id="Trazado_1058710" data-name="Trazado 1058710" d="M429.512,130.6H426.09a.59.59,0,0,1-.59-.59V126.59a.59.59,0,0,1,.59-.59h3.422a.59.59,0,0,1,.59.59v3.422A.59.59,0,0,1,429.512,130.6Z" transform="translate(-425.5 -126)" fill="#fd4755"/>
          </g>
          <g id="Grupo_1226985" data-name="Grupo 1226985" transform="translate(0 15.339)">
            <path id="Trazado_1058711" data-name="Trazado 1058711" d="M429.512,260.6H426.09a.59.59,0,0,1-.59-.59V256.59a.59.59,0,0,1,.59-.59h3.422a.59.59,0,0,1,.59.59v3.422A.59.59,0,0,1,429.512,260.6Z" transform="translate(-425.5 -256)" fill="#6cf5c2"/>
          </g>
        </g>
      </g>
      <g id="Grupo_1226988" data-name="Grupo 1226988" transform="translate(0 19.115)">
        <path id="Trazado_1058712" data-name="Trazado 1058712" d="M56.578,26.368h-12.5a2.05,2.05,0,0,0-.535-.932l-2.719-2.719a2.065,2.065,0,0,0-2.92,0l-1.7,1.7a.3.3,0,0,1-.343.053,12.846,12.846,0,0,0-1.459-.606.3.3,0,0,1-.2-.279V21.18a2.067,2.067,0,0,0-2.065-2.065H28.284a2.067,2.067,0,0,0-2.065,2.065v2.41a.3.3,0,0,1-.2.279,12.872,12.872,0,0,0-1.459.606.3.3,0,0,1-.343-.053l-1.7-1.7a2.065,2.065,0,0,0-2.92,0l-2.719,2.719a2.05,2.05,0,0,0-.535.932H12.389a.885.885,0,1,0,0,1.77h4.293a2.093,2.093,0,0,0,.187.218l1.7,1.7a.3.3,0,0,1,.053.343,12.859,12.859,0,0,0-.606,1.459.3.3,0,0,1-.279.2H15.333a2.067,2.067,0,0,0-2.065,2.065v3.846a2.067,2.067,0,0,0,2.065,2.065h2.41a.3.3,0,0,1,.279.2,12.856,12.856,0,0,0,.606,1.459.3.3,0,0,1-.053.343l-1.7,1.7a2.065,2.065,0,0,0,0,2.92l2.719,2.719a2.065,2.065,0,0,0,2.92,0l1.7-1.7a.3.3,0,0,1,.343-.053,12.849,12.849,0,0,0,1.459.606.3.3,0,0,1,.2.279v2.41a2.067,2.067,0,0,0,2.065,2.065h3.846a2.067,2.067,0,0,0,2.065-2.065v-2.41a.3.3,0,0,1,.2-.279,12.851,12.851,0,0,0,1.459-.606.3.3,0,0,1,.343.053l1.7,1.7a2.065,2.065,0,0,0,2.92,0l2.719-2.719a2.065,2.065,0,0,0,0-2.92l-1.7-1.7a.3.3,0,0,1-.053-.343,12.851,12.851,0,0,0,.605-1.459.3.3,0,0,1,.279-.2h2.41a2.067,2.067,0,0,0,2.065-2.065V34.131a2.067,2.067,0,0,0-2.065-2.065h-2.41a.3.3,0,0,1-.279-.2,12.851,12.851,0,0,0-.606-1.459.3.3,0,0,1,.053-.343l1.7-1.7a2.091,2.091,0,0,0,.187-.218H56.578A2.067,2.067,0,0,1,58.643,30.2V55.866H1.77V30.2a2.067,2.067,0,0,1,2.065-2.065H8.26a.885.885,0,1,0,0-1.77H3.835A3.839,3.839,0,0,0,0,30.2V60.966A3.839,3.839,0,0,0,3.835,64.8H22.743l-1.381,8.446H14.816a.885.885,0,1,0,0,1.77H45.6a.885.885,0,0,0,0-1.77H39.052L37.671,64.8H42.95a.885.885,0,1,0,0-1.77H3.835A2.067,2.067,0,0,1,1.77,60.966v-3.33H58.643v3.33a2.067,2.067,0,0,1-2.065,2.065h-9.5a.885.885,0,1,0,0,1.77h9.5a3.839,3.839,0,0,0,3.835-3.835V30.2a3.839,3.839,0,0,0-3.835-3.835ZM42.292,27.1l-1.7,1.7a2.068,2.068,0,0,0-.391,2.372,11.081,11.081,0,0,1,.522,1.257,2.068,2.068,0,0,0,1.953,1.4h2.41a.3.3,0,0,1,.295.295v3.846a.3.3,0,0,1-.295.295h-2.41a2.068,2.068,0,0,0-1.953,1.4,11.073,11.073,0,0,1-.522,1.257,2.069,2.069,0,0,0,.391,2.373l1.7,1.7a.3.3,0,0,1,0,.417L39.573,48.14a.3.3,0,0,1-.417,0l-1.7-1.7a2.069,2.069,0,0,0-2.372-.391,11.081,11.081,0,0,1-1.257.522,2.068,2.068,0,0,0-1.4,1.953v2.41a.3.3,0,0,1-.295.295H28.284a.3.3,0,0,1-.295-.295v-2.41a2.068,2.068,0,0,0-1.4-1.953,11.081,11.081,0,0,1-1.257-.522,2.07,2.07,0,0,0-2.372.391l-1.7,1.7a.3.3,0,0,1-.417,0L18.121,45.42a.3.3,0,0,1,0-.417l1.7-1.7a2.068,2.068,0,0,0,.391-2.372,11.09,11.09,0,0,1-.522-1.257,2.068,2.068,0,0,0-1.953-1.4h-2.41a.3.3,0,0,1-.295-.295V34.131a.3.3,0,0,1,.295-.295h2.409a2.068,2.068,0,0,0,1.953-1.4,11.091,11.091,0,0,1,.522-1.257,2.068,2.068,0,0,0-.391-2.372l-1.7-1.7a.3.3,0,0,1,0-.417l2.719-2.719a.3.3,0,0,1,.417,0l1.7,1.7a2.069,2.069,0,0,0,2.373.391,11.066,11.066,0,0,1,1.257-.522,2.068,2.068,0,0,0,1.4-1.953V21.18a.3.3,0,0,1,.295-.295h3.846a.3.3,0,0,1,.295.295v2.41a2.068,2.068,0,0,0,1.4,1.953,11.07,11.07,0,0,1,1.257.522,2.069,2.069,0,0,0,2.372-.391l1.7-1.7a.295.295,0,0,1,.417,0l2.719,2.719a.3.3,0,0,1,0,.417ZM24.536,64.8H35.877l1.381,8.446h-14.1Z" transform="translate(0 -19.115)"/>
        <path id="Trazado_1058713" data-name="Trazado 1058713" d="M195.827,92.2a8.332,8.332,0,0,0-8.018,6.114.885.885,0,1,0,1.707.468,6.543,6.543,0,1,1,.049,3.639.885.885,0,0,0-1.693.514,8.383,8.383,0,0,0,2.96,4.226,8.315,8.315,0,1,0,5-14.961Z" transform="translate(-165.621 -83.58)"/>
        <path id="Trazado_1058714" data-name="Trazado 1058714" d="M231.934,134.889a3.717,3.717,0,1,0-3.717,3.717A3.721,3.721,0,0,0,231.934,134.889Zm-5.664,0a1.947,1.947,0,1,1,1.947,1.947A1.949,1.949,0,0,1,226.27,134.889Z" transform="translate(-198.01 -117.95)"/>
        <path id="Trazado_1058715" data-name="Trazado 1058715" d="M47.729,223.5H40.885a.885.885,0,1,0,0,1.77h6.844a.885.885,0,1,0,0-1.77Z" transform="translate(-35.28 -199.384)"/>
        <path id="Trazado_1058716" data-name="Trazado 1058716" d="M40.885,257.27h3.481a.885.885,0,0,0,0-1.77H40.885a.885.885,0,0,0,0,1.77Z" transform="translate(-35.28 -227.608)"/>
        <path id="Trazado_1058717" data-name="Trazado 1058717" d="M40.885,289.27h6.844a.885.885,0,0,0,0-1.77H40.885a.885.885,0,0,0,0,1.77Z" transform="translate(-35.28 -255.832)"/>
        <path id="Trazado_1058718" data-name="Trazado 1058718" d="M418,188.4a1.477,1.477,0,0,0,1.475,1.475H422.9a1.477,1.477,0,0,0,1.475-1.475v-3.422A1.477,1.477,0,0,0,422.9,183.5h-3.422A1.477,1.477,0,0,0,418,184.975Zm1.77-3.127H422.6V188.1H419.77Z" transform="translate(-368.678 -164.104)"/>
        <path id="Trazado_1058719" data-name="Trazado 1058719" d="M419.475,124.872H422.9a1.476,1.476,0,0,0,1.475-1.475v-3.422A1.476,1.476,0,0,0,422.9,118.5h-3.422A1.477,1.477,0,0,0,418,119.975V123.4A1.477,1.477,0,0,0,419.475,124.872Zm.295-4.6H422.6V123.1H419.77Z" transform="translate(-368.678 -106.773)"/>
        <path id="Trazado_1058720" data-name="Trazado 1058720" d="M418,253.4a1.477,1.477,0,0,0,1.475,1.475H422.9a1.477,1.477,0,0,0,1.475-1.475v-3.422A1.477,1.477,0,0,0,422.9,248.5h-3.422A1.477,1.477,0,0,0,418,249.975Zm1.77-3.127H422.6V253.1H419.77Z" transform="translate(-368.678 -221.434)"/>
        <path id="Trazado_1058721" data-name="Trazado 1058721" d="M40,119.385a.885.885,0,0,0,.885.885h3.953a.885.885,0,1,0,0-1.77H40.885A.885.885,0,0,0,40,119.385Z" transform="translate(-35.28 -106.773)"/>
        <path id="Trazado_1058722" data-name="Trazado 1058722" d="M93.152,255.5h-.767a.885.885,0,1,0,0,1.77h.767a.885.885,0,0,0,0-1.77Z" transform="translate(-80.704 -227.608)"/>
        <path id="Trazado_1058723" data-name="Trazado 1058723" d="M224.385,360.5a.885.885,0,0,0,0,1.77h5.9a.885.885,0,1,0,0-1.77Z" transform="translate(-197.128 -320.219)"/>
      </g>
    </g>
  </g>
</svg>
