<svg xmlns="http://www.w3.org/2000/svg" xmlns:xlink="http://www.w3.org/1999/xlink" width="113" height="113" viewBox="0 0 113 113">
  <defs>
    <filter id="Trazado_982547" x="0" y="0" width="113" height="113" filterUnits="userSpaceOnUse">
      <feOffset dy="3" input="SourceAlpha"/>
      <feGaussianBlur stdDeviation="3" result="blur"/>
      <feFlood flood-opacity="0.161"/>
      <feComposite operator="in" in2="blur"/>
      <feComposite in="SourceGraphic"/>
    </filter>
  </defs>
  <g id="Grupo_1227003" data-name="Grupo 1227003" transform="translate(-1164 -7266.819)">
    <g id="Grupo_1226446" data-name="Grupo 1226446" transform="translate(1173 7272.819)">
      <g id="Grupo_1225528" data-name="Grupo 1225528" transform="translate(0)">
        <g id="Grupo_1225173" data-name="Grupo 1225173">
          <g id="Grupo_1224643" data-name="Grupo 1224643">
            <g id="Grupo_1224291" data-name="Grupo 1224291">
              <g id="Grupo_1224091" data-name="Grupo 1224091">
                <g id="Grupo_1223183" data-name="Grupo 1223183">
                  <g id="Grupo_1211217" data-name="Grupo 1211217">
                    <g id="Grupo_1210736" data-name="Grupo 1210736">
                      <g id="Grupo_1210537" data-name="Grupo 1210537">
                        <g id="Grupo_1164202" data-name="Grupo 1164202">
                          <g id="Grupo_1158168" data-name="Grupo 1158168">
                            <g id="Grupo_1152576" data-name="Grupo 1152576">
                              <g id="Grupo_1148633" data-name="Grupo 1148633">
                                <g id="Grupo_1148525" data-name="Grupo 1148525">
                                  <g transform="matrix(1, 0, 0, 1, -9, -6)" filter="url(#Trazado_982547)">
                                    <g id="Trazado_982547-2" data-name="Trazado 982547" transform="translate(9 6)" fill="#fdf6e4">
                                      <path d="M 47.49999618530273 93.5 C 41.28936767578125 93.5 35.26533126831055 92.28396606445312 29.59518241882324 89.88570404052734 C 24.11771583557129 87.56893157958984 19.19812965393066 84.251953125 14.97308921813965 80.02690124511719 C 10.74803638458252 75.80186462402344 7.431062698364258 70.88227844238281 5.114289283752441 65.40480804443359 C 2.716022968292236 59.73466110229492 1.499996185302734 53.71062469482422 1.499996185302734 47.49999618530273 C 1.499996185302734 41.28936767578125 2.716022968292236 35.26533126831055 5.114289283752441 29.59518241882324 C 7.431062698364258 24.11771583557129 10.74803638458252 19.19812965393066 14.97308921813965 14.97308921813965 C 19.19812965393066 10.74803638458252 24.11771583557129 7.431062698364258 29.59518241882324 5.114289283752441 C 35.26533126831055 2.716022968292236 41.28936767578125 1.499996185302734 47.49999618530273 1.499996185302734 C 53.71062469482422 1.499996185302734 59.73466110229492 2.716022968292236 65.40480804443359 5.114289283752441 C 70.88227844238281 7.431062698364258 75.80186462402344 10.74803638458252 80.02690124511719 14.97308921813965 C 84.251953125 19.19812965393066 87.56893157958984 24.11771583557129 89.88570404052734 29.59518241882324 C 92.28396606445312 35.26533126831055 93.5 41.28936767578125 93.5 47.49999618530273 C 93.5 53.71062469482422 92.28396606445312 59.73466110229492 89.88570404052734 65.40480804443359 C 87.56893157958984 70.88227844238281 84.251953125 75.80186462402344 80.02690124511719 80.02690124511719 C 75.80186462402344 84.251953125 70.88227844238281 87.56893157958984 65.40480804443359 89.88570404052734 C 59.73466110229492 92.28396606445312 53.71062469482422 93.5 47.49999618530273 93.5 Z" stroke="none"/>
                                      <path d="M 47.49999618530273 2.999992370605469 C 41.4912109375 2.999992370605469 35.66376495361328 4.1761474609375 30.17950439453125 6.495796203613281 C 24.88084411621094 8.736953735351562 20.12152099609375 11.94598388671875 16.03375244140625 16.03375244140625 C 11.94598388671875 20.12152099609375 8.736953735351562 24.88084411621094 6.495796203613281 30.17950439453125 C 4.1761474609375 35.66376495361328 2.999992370605469 41.4912109375 2.999992370605469 47.49999618530273 C 2.999992370605469 53.50878143310547 4.1761474609375 59.33622741699219 6.495796203613281 64.82048797607422 C 8.736953735351562 70.11914825439453 11.94598388671875 74.87847137451172 16.03375244140625 78.96623992919922 C 20.12152099609375 83.05400848388672 24.88084411621094 86.26304626464844 30.17950439453125 88.50419616699219 C 35.66376495361328 90.82384490966797 41.4912109375 92 47.49999618530273 92 C 53.50878143310547 92 59.33622741699219 90.82384490966797 64.82048797607422 88.50419616699219 C 70.11914825439453 86.26304626464844 74.87847137451172 83.05400848388672 78.96623992919922 78.96623992919922 C 83.05400848388672 74.87847137451172 86.26304626464844 70.11914825439453 88.50419616699219 64.82048797607422 C 90.82384490966797 59.33622741699219 92 53.50878143310547 92 47.49999618530273 C 92 41.4912109375 90.82384490966797 35.66376495361328 88.50419616699219 30.17950439453125 C 86.26304626464844 24.88084411621094 83.05400848388672 20.12152099609375 78.96623992919922 16.03375244140625 C 74.87847137451172 11.94598388671875 70.11914825439453 8.736953735351562 64.82048797607422 6.495796203613281 C 59.33622741699219 4.1761474609375 53.50878143310547 2.999992370605469 47.49999618530273 2.999992370605469 M 47.49999618530273 -7.62939453125e-06 C 73.7335205078125 -7.62939453125e-06 95 21.26647186279297 95 47.49999618530273 C 95 73.7335205078125 73.7335205078125 95 47.49999618530273 95 C 21.26647186279297 95 -7.62939453125e-06 73.7335205078125 -7.62939453125e-06 47.49999618530273 C -7.62939453125e-06 21.26647186279297 21.26647186279297 -7.62939453125e-06 47.49999618530273 -7.62939453125e-06 Z" stroke="none" fill="#f5b104"/>
                                    </g>
                                  </g>
                                </g>
                              </g>
                            </g>
                          </g>
                        </g>
                      </g>
                    </g>
                  </g>
                </g>
              </g>
            </g>
          </g>
        </g>
      </g>
    </g>
    <g id="tecnologia_3_" data-name="tecnologia (3)" transform="translate(1191.781 7292.1)">
      <g id="Grupo_1227001" data-name="Grupo 1227001" transform="translate(0.91 0.91)">
        <g id="Grupo_1226990" data-name="Grupo 1226990" transform="translate(37.322)">
          <path id="Trazado_1058724" data-name="Trazado 1058724" d="M51.1,1V8.282H42V1Z" transform="translate(-42 -1)" fill="#f0d0b4"/>
        </g>
        <g id="Grupo_1226991" data-name="Grupo 1226991" transform="translate(8.193)">
          <path id="Trazado_1058725" data-name="Trazado 1058725" d="M19.1,1V8.282H10V1Z" transform="translate(-10 -1)" fill="#f0d0b4"/>
        </g>
        <g id="Grupo_1226992" data-name="Grupo 1226992" transform="translate(22.757)">
          <path id="Trazado_1058726" data-name="Trazado 1058726" d="M35.1,1V8.282H26V1Z" transform="translate(-26 -1)" fill="#f0d0b4"/>
        </g>
        <g id="Grupo_1226993" data-name="Grupo 1226993" transform="translate(3.641 12.744)">
          <path id="Trazado_1058727" data-name="Trazado 1058727" d="M52.335,49.591H5V18.641A3.641,3.641,0,0,1,8.641,15H48.694a3.641,3.641,0,0,1,3.641,3.641Z" transform="translate(-5 -15)" fill="#ccd1d9"/>
        </g>
        <g id="Grupo_1226994" data-name="Grupo 1226994" transform="translate(7.282 16.385)">
          <path id="Trazado_1058728" data-name="Trazado 1058728" d="M48.143,46.309H9.91A.911.911,0,0,1,9,45.4V19.91A.911.911,0,0,1,9.91,19H48.143a.911.911,0,0,1,.91.91V45.4A.911.911,0,0,1,48.143,46.309Z" transform="translate(-9 -19)" fill="#69d6f4"/>
        </g>
        <g id="Grupo_1226995" data-name="Grupo 1226995" transform="translate(0 47.335)">
          <path id="Trazado_1058729" data-name="Trazado 1058729" d="M53.8,53H2.821a1.78,1.78,0,0,0-1.284.537A1.78,1.78,0,0,0,1,54.821a5.466,5.466,0,0,0,5.462,5.462H50.156a5.47,5.47,0,0,0,5.462-5.462A1.826,1.826,0,0,0,53.8,53Z" transform="translate(-1 -53)" fill="#969faa"/>
        </g>
        <g id="Grupo_1226996" data-name="Grupo 1226996" transform="translate(45.515 50.977)">
          <path id="Trazado_1058730" data-name="Trazado 1058730" d="M51,57h3.641v3.641H51Z" transform="translate(-51 -57)" fill="#ff826e"/>
        </g>
        <g id="Grupo_1226997" data-name="Grupo 1226997" transform="translate(38.233 50.977)">
          <path id="Trazado_1058731" data-name="Trazado 1058731" d="M43,57h3.641v3.641H43Z" transform="translate(-43 -57)" fill="#ff826e"/>
        </g>
        <g id="Grupo_1226998" data-name="Grupo 1226998" transform="translate(20.937 47.335)">
          <path id="Trazado_1058732" data-name="Trazado 1058732" d="M36.744,53v1.821a1.826,1.826,0,0,1-1.821,1.821h-9.1A1.826,1.826,0,0,1,24,54.821V53Z" transform="translate(-24 -53)" fill="#ff826e"/>
        </g>
        <g id="Grupo_1226999" data-name="Grupo 1226999" transform="translate(12.744 26.399)">
          <path id="Trazado_1058733" data-name="Trazado 1058733" d="M44.13,41.834V47.3H38.258v-.027a9.1,9.1,0,1,0-17.8-2.7,9.019,9.019,0,0,0,.419,2.731H15V41.834l2.312-.737a13.225,13.225,0,0,1,1.129-2.749L17.33,36.2,21.2,32.33l2.148,1.111A13.226,13.226,0,0,1,26.1,32.312L26.834,30H32.3l.737,2.312a13.226,13.226,0,0,1,2.749,1.129L37.93,32.33,41.8,36.2l-1.111,2.148A13.226,13.226,0,0,1,41.817,41.1Z" transform="translate(-15 -30)" fill="#ffc729"/>
        </g>
        <g id="Grupo_1227000" data-name="Grupo 1227000" transform="translate(18.206 31.86)">
          <path id="Trazado_1058734" data-name="Trazado 1058734" d="M39.206,45.1a9.125,9.125,0,0,1-.41,2.7v.027h-6.29A3.6,3.6,0,0,0,33.744,45.1a3.641,3.641,0,0,0-7.282,0A3.6,3.6,0,0,0,27.7,47.834H21.419A9.1,9.1,0,1,1,39.206,45.1Z" transform="translate(-21 -36)" fill="#fcd770"/>
        </g>
      </g>
      <g id="Grupo_1227002" data-name="Grupo 1227002">
        <path id="Trazado_1058735" data-name="Trazado 1058735" d="M53.708,48.591H52.8V18.551A4.557,4.557,0,0,0,48.246,14H45.515v1.821h2.731a2.734,2.734,0,0,1,2.731,2.731v30.04H5.462V18.551a2.734,2.734,0,0,1,2.731-2.731h2.731V14H8.193a4.557,4.557,0,0,0-4.551,4.551v30.04h-.91A2.734,2.734,0,0,0,0,51.322a6.38,6.38,0,0,0,6.372,6.372H50.066a6.38,6.38,0,0,0,6.372-6.372A2.734,2.734,0,0,0,53.708,48.591Zm-30.95,1.821H33.681v.91a.911.911,0,0,1-.91.91h-9.1a.911.911,0,0,1-.91-.91Zm19.116,5.462H40.053V54.053h1.821Zm7.282,0H47.335V54.053h1.821Zm1.821-.092V52.233H45.515v3.641H43.694V52.233H38.233v3.641H6.372a4.557,4.557,0,0,1-4.551-4.551.911.911,0,0,1,.91-.91H20.937v.91a2.734,2.734,0,0,0,2.731,2.731h9.1A2.734,2.734,0,0,0,35.5,51.322v-.91H53.708a.911.911,0,0,1,.91.91,4.56,4.56,0,0,1-3.641,4.46Z" transform="translate(0 -1.256)"/>
        <path id="Trazado_1058736" data-name="Trazado 1058736" d="M20.744,19.821V18H9.821A1.822,1.822,0,0,0,8,19.821V45.309A1.822,1.822,0,0,0,9.821,47.13H48.053a1.822,1.822,0,0,0,1.821-1.821V19.821A1.822,1.822,0,0,0,48.053,18H37.13v1.821H48.053V45.309H44.412V40.094l-2.489-.8a13.709,13.709,0,0,0-.837-2.029l1.194-2.32-4.8-4.8L35.16,31.34a13.75,13.75,0,0,0-2.029-.837l-.8-2.491h-6.79l-.8,2.489a13.71,13.71,0,0,0-2.029.837l-2.32-1.194-4.8,4.8,1.194,2.32a13.75,13.75,0,0,0-.837,2.029l-2.49.8v5.215H9.821V19.821Zm0,23.668A8.193,8.193,0,1,1,36.9,45.309h-3.8a4.551,4.551,0,1,0-8.337,0h-3.8A8.2,8.2,0,0,1,20.744,43.488Zm5.462,0a2.731,2.731,0,1,1,4.744,1.821H26.922a2.722,2.722,0,0,1-.716-1.821ZM15.282,41.421l2.145-.686.133-.471a11.734,11.734,0,0,1,1.05-2.546l.238-.427-1.029-2,2.924-2.924,2,1.029.427-.238a11.733,11.733,0,0,1,2.546-1.05l.471-.133.685-2.144H31l.686,2.145.471.133a11.734,11.734,0,0,1,2.546,1.05l.427.239,2-1.029,2.924,2.924-1.029,2,.238.427a11.734,11.734,0,0,1,1.05,2.546l.133.471,2.145.685v3.888H38.778a10.013,10.013,0,1,0-19.682,0H15.282Z" transform="translate(-0.718 -1.615)"/>
        <path id="Trazado_1058737" data-name="Trazado 1058737" d="M13,4h3.641V5.821H13Z" transform="translate(-1.166 -0.359)"/>
        <path id="Trazado_1058738" data-name="Trazado 1058738" d="M29,4h3.641V5.821H29Z" transform="translate(-2.601 -0.359)"/>
        <path id="Trazado_1058739" data-name="Trazado 1058739" d="M45,4h3.641V5.821H45Z" transform="translate(-4.037 -0.359)"/>
        <path id="Trazado_1058740" data-name="Trazado 1058740" d="M29.551,24.578h1.821V9.1h4.551V0H25V9.1h4.551ZM26.821,1.821H34.1V7.282H26.821Z" transform="translate(-2.243)"/>
        <path id="Trazado_1058741" data-name="Trazado 1058741" d="M45.1,12.744H36V24.578h1.821V14.565h9.1V9.1h4.551V0H40.551V9.1H45.1ZM42.372,1.821h7.282V7.282H42.372Z" transform="translate(-3.229)"/>
        <path id="Trazado_1058742" data-name="Trazado 1058742" d="M13.551,14.565h9.1V24.578h1.821V12.744h-9.1V9.1h4.551V0H9V9.1h4.551ZM10.821,1.821H18.1V7.282H10.821Z" transform="translate(-0.807)"/>
      </g>
    </g>
  </g>
</svg>
