<svg xmlns="http://www.w3.org/2000/svg" xmlns:xlink="http://www.w3.org/1999/xlink" width="103" height="103" viewBox="0 0 103 103">
  <defs>
    <filter id="Trazado_982547" x="0" y="0" width="103" height="103" filterUnits="userSpaceOnUse">
      <feOffset dy="3" input="SourceAlpha"/>
      <feGaussianBlur stdDeviation="3" result="blur"/>
      <feFlood flood-opacity="0.161"/>
      <feComposite operator="in" in2="blur"/>
      <feComposite in="SourceGraphic"/>
    </filter>
  </defs>
  <g id="Grupo_1226937" data-name="Grupo 1226937" transform="translate(-191 -1404)">
    <g id="Grupo_1226319" data-name="Grupo 1226319" transform="translate(200 1410)">
      <g id="Grupo_1225608" data-name="Grupo 1225608">
        <g id="Grupo_1225482" data-name="Grupo 1225482">
          <g id="Grupo_1210959" data-name="Grupo 1210959">
            <g id="Grupo_1210290" data-name="Grupo 1210290">
              <g id="Grupo_1207485" data-name="Grupo 1207485">
                <g id="Grupo_1207313" data-name="Grupo 1207313">
                  <g id="Grupo_1202212" data-name="Grupo 1202212">
                    <g id="Grupo_1174813" data-name="Grupo 1174813">
                      <g id="Grupo_1201680" data-name="Grupo 1201680">
                        <g id="Grupo_1201330" data-name="Grupo 1201330">
                          <g id="Grupo_1172010" data-name="Grupo 1172010">
                            <g id="Grupo_1171046" data-name="Grupo 1171046">
                              <g id="Grupo_1148525" data-name="Grupo 1148525">
                                <g transform="matrix(1, 0, 0, 1, -9, -6)" filter="url(#Trazado_982547)">
                                  <g id="Trazado_982547-2" data-name="Trazado 982547" transform="translate(9 6)" fill="#fdf6e4">
                                    <path d="M 42.5 83.5 C 36.96437835693359 83.5 31.59512901306152 82.41617584228516 26.54141235351562 80.27863311767578 C 21.65934181213379 78.21369171142578 17.27447128295898 75.25723266601562 13.50862312316895 71.49137878417969 C 9.742764472961426 67.72553253173828 6.786305904388428 63.34066009521484 4.721364498138428 58.45858764648438 C 2.583823442459106 53.40486907958984 1.5 48.03562164306641 1.5 42.5 C 1.5 36.96437835693359 2.583823442459106 31.59512901306152 4.721364498138428 26.54141235351562 C 6.786305904388428 21.65934181213379 9.742764472961426 17.27448272705078 13.50862312316895 13.50862312316895 C 17.27447128295898 9.742776870727539 21.65934181213379 6.786305904388428 26.54141235351562 4.721364498138428 C 31.59512901306152 2.583823442459106 36.96437835693359 1.5 42.5 1.5 C 48.03562164306641 1.5 53.40486907958984 2.583823442459106 58.45858764648438 4.721364498138428 C 63.34066009521484 6.786305904388428 67.72553253173828 9.742776870727539 71.49137878417969 13.50862312316895 C 75.25723266601562 17.27448272705078 78.21369171142578 21.65934181213379 80.27863311767578 26.54141235351562 C 82.41617584228516 31.59512901306152 83.5 36.96437835693359 83.5 42.5 C 83.5 48.03562164306641 82.41617584228516 53.40486907958984 80.27863311767578 58.45858764648438 C 78.21369171142578 63.34066009521484 75.25723266601562 67.72553253173828 71.49137878417969 71.49137878417969 C 67.72553253173828 75.25723266601562 63.34066009521484 78.21369171142578 58.45858764648438 80.27863311767578 C 53.40486907958984 82.41617584228516 48.03562164306641 83.5 42.5 83.5 Z" stroke="none"/>
                                    <path d="M 42.5 3 C 37.16621398925781 3 31.99356079101562 4.043960571289062 27.125732421875 6.102882385253906 C 22.42246627807617 8.092185974121094 18.19785308837891 10.94070434570312 14.56928253173828 14.56928253173828 C 10.94070434570312 18.19785308837891 8.092185974121094 22.42246627807617 6.102882385253906 27.125732421875 C 4.043960571289062 31.99356079101562 3 37.16621398925781 3 42.5 C 3 47.83378601074219 4.043960571289062 53.00643920898438 6.102882385253906 57.874267578125 C 8.092185974121094 62.57753372192383 10.94070434570312 66.80214691162109 14.56928253173828 70.43071746826172 C 18.19785308837891 74.05929565429688 22.42246627807617 76.90781402587891 27.125732421875 78.89711761474609 C 31.99356079101562 80.95603942871094 37.16621398925781 82 42.5 82 C 47.83378601074219 82 53.00643920898438 80.95603942871094 57.874267578125 78.89711761474609 C 62.57753372192383 76.90781402587891 66.80214691162109 74.05929565429688 70.43071746826172 70.43071746826172 C 74.05929565429688 66.80214691162109 76.90781402587891 62.57753372192383 78.89711761474609 57.874267578125 C 80.95603942871094 53.00643920898438 82 47.83378601074219 82 42.5 C 82 37.16621398925781 80.95603942871094 31.99356079101562 78.89711761474609 27.125732421875 C 76.90781402587891 22.42246627807617 74.05929565429688 18.19785308837891 70.43071746826172 14.56928253173828 C 66.80214691162109 10.94070434570312 62.57753372192383 8.092185974121094 57.874267578125 6.102882385253906 C 53.00643920898438 4.043960571289062 47.83378601074219 3 42.5 3 M 42.5 0 C 65.97210693359375 0 85 19.02789306640625 85 42.5 C 85 65.97210693359375 65.97210693359375 85 42.5 85 C 19.02789306640625 85 0 65.97210693359375 0 42.5 C 0 19.02789306640625 19.02789306640625 0 42.5 0 Z" stroke="none" fill="#856002"/>
                                  </g>
                                </g>
                              </g>
                            </g>
                          </g>
                        </g>
                      </g>
                    </g>
                  </g>
                </g>
              </g>
            </g>
          </g>
        </g>
      </g>
    </g>
    <g id="escaneo-qr" transform="translate(172.75 1423.186)">
      <g id="Grupo_1226936" data-name="Grupo 1226936" transform="translate(48.109 0.859)">
        <g id="Grupo_1226933" data-name="Grupo 1226933" transform="translate(0)">
          <g id="Grupo_1226932" data-name="Grupo 1226932">
            <g id="Grupo_1226931" data-name="Grupo 1226931">
              <g id="Grupo_1226930" data-name="Grupo 1226930">
                <g id="Grupo_1226929" data-name="Grupo 1226929">
                  <g id="Grupo_1226928" data-name="Grupo 1226928">
                    <path id="Trazado_1058514" data-name="Trazado 1058514" d="M85.438,64.411H59.33a4.58,4.58,0,0,1-4.58-4.58V12.08A4.58,4.58,0,0,1,59.33,7.5H85.438a4.58,4.58,0,0,1,4.58,4.58V59.83A4.58,4.58,0,0,1,85.438,64.411Z" transform="translate(-54.75 -7.5)" fill="#3d6d93"/>
                    <path id="Trazado_1058515" data-name="Trazado 1058515" d="M296.185,7.5H292.75a4.58,4.58,0,0,1,4.58,4.58V59.83a4.58,4.58,0,0,1-4.58,4.58h3.435a4.58,4.58,0,0,0,4.58-4.58V12.08A4.58,4.58,0,0,0,296.185,7.5Z" transform="translate(-265.497 -7.5)" fill="#335e80"/>
                    <path id="Trazado_1058516" data-name="Trazado 1058516" d="M107.36,38.416a1.548,1.548,0,0,1-1.548,1.548H92.086a1.548,1.548,0,0,1-1.548-1.548.916.916,0,0,0-.916-.916H86.468a1.718,1.718,0,0,0-1.718,1.718v46.6a1.718,1.718,0,0,0,1.718,1.718H111.43a1.718,1.718,0,0,0,1.718-1.718v-46.6A1.718,1.718,0,0,0,111.43,37.5h-3.154A.916.916,0,0,0,107.36,38.416Z" transform="translate(-81.315 -34.065)" fill="#f9f7f8"/>
                  </g>
                  <circle id="Elipse_13544" data-name="Elipse 13544" cx="0.859" cy="0.859" r="0.859" transform="translate(16.775 2.091)" fill="#335e80"/>
                </g>
              </g>
            </g>
          </g>
        </g>
        <g id="Grupo_1226934" data-name="Grupo 1226934" transform="translate(12.023 15.974)">
          <path id="Trazado_1058517" data-name="Trazado 1058517" d="M160.208,150.68h2.764a.458.458,0,0,0,.458-.458v-2.764a.458.458,0,0,0-.458-.458h-2.764a.458.458,0,0,0-.458.458v2.764A.458.458,0,0,0,160.208,150.68Z" transform="translate(-159.75 -147)" fill="#8fd8fa"/>
          <path id="Trazado_1058518" data-name="Trazado 1058518" d="M226.073,150.68h2.764a.458.458,0,0,0,.458-.458v-2.764a.458.458,0,0,0-.458-.458h-2.764a.458.458,0,0,0-.458.458v2.764A.458.458,0,0,0,226.073,150.68Z" transform="translate(-218.073 -147)" fill="#8fd8fa"/>
          <path id="Trazado_1058519" data-name="Trazado 1058519" d="M240.468,147H238.75a.458.458,0,0,1,.458.458v2.764a.458.458,0,0,1-.458.458h1.718a.458.458,0,0,0,.458-.458v-2.764A.458.458,0,0,0,240.468,147Z" transform="translate(-229.704 -147)" fill="#6bcdfe"/>
          <path id="Trazado_1058520" data-name="Trazado 1058520" d="M174.6,147h-1.718a.458.458,0,0,1,.458.458v2.764a.458.458,0,0,1-.458.458H174.6a.458.458,0,0,0,.458-.458v-2.764A.458.458,0,0,0,174.6,147Z" transform="translate(-171.381 -147)" fill="#6bcdfe"/>
          <path id="Trazado_1058521" data-name="Trazado 1058521" d="M160.208,216.545h2.764a.458.458,0,0,0,.458-.458v-2.764a.458.458,0,0,0-.458-.458h-2.764a.458.458,0,0,0-.458.458v2.764A.458.458,0,0,0,160.208,216.545Z" transform="translate(-159.75 -205.323)" fill="#8fd8fa"/>
          <path id="Trazado_1058522" data-name="Trazado 1058522" d="M174.6,212.865h-1.718a.458.458,0,0,1,.458.458v2.764a.458.458,0,0,1-.458.458H174.6a.458.458,0,0,0,.458-.458v-2.764A.458.458,0,0,0,174.6,212.865Z" transform="translate(-171.381 -205.323)" fill="#6bcdfe"/>
        </g>
        <g id="Grupo_1226935" data-name="Grupo 1226935" transform="translate(13.03 36.076)">
          <path id="Trazado_1058523" data-name="Trazado 1058523" d="M199.771,334.342H170.376a1.832,1.832,0,0,1-1.832-1.832v-8.124a1.832,1.832,0,0,1,1.832-1.832h29.395a1.832,1.832,0,0,1,1.832,1.832v8.124A1.832,1.832,0,0,1,199.771,334.342Z" transform="translate(-168.544 -322.554)" fill="#f58a97"/>
          <path id="Trazado_1058524" data-name="Trazado 1058524" d="M414.685,322.554H411.25a1.832,1.832,0,0,1,1.832,1.832v8.124a1.832,1.832,0,0,1-1.832,1.832h3.435a1.832,1.832,0,0,0,1.832-1.832v-8.124a1.832,1.832,0,0,0-1.832-1.832Z" transform="translate(-383.458 -322.554)" fill="#f07281"/>
        </g>
      </g>
      <path id="Trazado_1058525" data-name="Trazado 1058525" d="M74.789,26.951a.859.859,0,0,0-.859.859v2.821H71.109a.859.859,0,0,0,0,1.718h2.878a1.662,1.662,0,0,0,1.66-1.66V27.81A.859.859,0,0,0,74.789,26.951Zm-3.68-12.695H73.93v2.821a.859.859,0,0,0,1.718,0V14.2a1.662,1.662,0,0,0-1.66-1.66H71.109a.859.859,0,1,0,0,1.718Zm-2.977,7.115H70.9a1.318,1.318,0,0,0,1.317-1.317V17.291A1.318,1.318,0,0,0,70.9,15.974H68.132a1.318,1.318,0,0,0-1.317,1.317v2.764A1.318,1.318,0,0,0,68.132,21.371Zm.4-3.68H70.5v1.962H68.533Zm3.68,10.363a.859.859,0,0,0-.859-.859h-3.68a.859.859,0,1,0,0,1.718h3.68A.859.859,0,0,0,72.213,28.055Zm0-2.474V24.375a.859.859,0,1,0-1.718,0V25.58a.859.859,0,1,0,1.718,0ZM65.743,4.667a.859.859,0,1,0-.859-.859A.859.859,0,0,0,65.743,4.667ZM63.354,23.516H60.59a1.318,1.318,0,0,0-1.317,1.317V27.6a1.318,1.318,0,0,0,1.317,1.317h2.764A1.318,1.318,0,0,0,64.671,27.6V24.833A1.318,1.318,0,0,0,63.354,23.516Zm-.4,3.68H60.991V25.233h1.962ZM90.658,39.2h-.008a.859.859,0,0,0-.85.867l.027,2.832-2.291-3.318a.859.859,0,0,0-1.565.488V45.6a.859.859,0,1,0,1.718,0V42.825l2.172,3.146a.93.93,0,0,0,1.051.383.958.958,0,0,0,.658-.951l-.052-5.352a.859.859,0,0,0-.859-.85Zm-8.556.633a.981.981,0,0,0-.92-.633h0a.981.981,0,0,0-.91.612c-.007.018-2.08,5.46-2.087,5.48a.859.859,0,1,0,1.605.611L80.1,45.1h2.156l.3.8a.859.859,0,0,0,1.607-.607ZM80.751,43.38l.429-1.126L81.6,43.38ZM67.336,42.067c-.651-.24-1.259-.5-1.476-.6a.216.216,0,0,1-.061-.194.41.41,0,0,1,.324-.308,1.68,1.68,0,0,1,1.371.322.859.859,0,0,0,1.1-1.319,3.346,3.346,0,0,0-2.966-.647A2.113,2.113,0,0,0,64.1,41.033a1.925,1.925,0,0,0,.859,1.906,9.975,9.975,0,0,0,1.783.74c.327.121.662.333.62.569a.776.776,0,0,1-.8.492,1.76,1.76,0,0,1-1.294-.539.859.859,0,1,0-1.273,1.153,3.455,3.455,0,0,0,2.566,1.1,2.45,2.45,0,0,0,2.495-1.908A2.243,2.243,0,0,0,67.336,42.067Zm9.28,2.092a.859.859,0,0,0-1.21.106,1.324,1.324,0,0,1-1.087.475,1.911,1.911,0,1,1,1.068-3.5.859.859,0,0,0,.961-1.423,3.628,3.628,0,1,0-2.029,6.636,3.037,3.037,0,0,0,2.4-1.089A.859.859,0,0,0,76.617,44.159Zm15.75-8.082h-8.13V5.439A5.445,5.445,0,0,0,78.8,0H52.689A5.445,5.445,0,0,0,47.25,5.439v47.75a5.445,5.445,0,0,0,5.439,5.439H78.8a5.445,5.445,0,0,0,5.439-5.439V49.582h8.13a2.694,2.694,0,0,0,2.691-2.691V38.767A2.694,2.694,0,0,0,92.366,36.076Zm.973,10.815a.974.974,0,0,1-.973.973H75.119a.859.859,0,1,0,0,1.718h3.964v3.034a.86.86,0,0,1-.859.859H53.262a.86.86,0,0,1-.859-.859V17.837a.859.859,0,0,0-1.718,0V52.616a2.579,2.579,0,0,0,2.576,2.576H78.224A2.579,2.579,0,0,0,80.8,52.616V49.582h1.718v3.607A3.726,3.726,0,0,1,78.8,56.911H52.689a3.726,3.726,0,0,1-3.722-3.722V5.439a3.726,3.726,0,0,1,3.722-3.722H78.8a3.726,3.726,0,0,1,3.722,3.722V36.076H80.8V6.012a2.579,2.579,0,0,0-2.576-2.576H75.07A1.777,1.777,0,0,0,73.295,5.21a.69.69,0,0,1-.689.689H58.881a.69.69,0,0,1-.689-.689,1.774,1.774,0,0,0-1.775-1.775H53.262a2.579,2.579,0,0,0-2.576,2.576V13.83a.859.859,0,1,0,1.718,0V6.012a.86.86,0,0,1,.859-.859h3.155a.058.058,0,0,1,.041.016.055.055,0,0,1,.016.041,2.41,2.41,0,0,0,2.407,2.407H72.606A2.41,2.41,0,0,0,75.012,5.21a.057.057,0,0,1,.057-.057h3.155a.86.86,0,0,1,.859.859V36.076H62.971a2.694,2.694,0,0,0-2.691,2.691v8.124a2.694,2.694,0,0,0,2.691,2.691h8.14a.859.859,0,1,0,0-1.718h-8.14A.974.974,0,0,1,62,46.891V38.767a.974.974,0,0,1,.973-.973h29.4a.974.974,0,0,1,.973.973Zm-34.066-29.6v2.764a1.318,1.318,0,0,0,1.317,1.317h2.764a1.318,1.318,0,0,0,1.317-1.317V17.291a1.318,1.318,0,0,0-1.317-1.317H60.59A1.318,1.318,0,0,0,59.273,17.291Zm1.718.4h1.962v1.962H60.991Zm7.542,5.824H66.815v1.718h1.718ZM56.7,17.936a.859.859,0,0,0,.859-.859V14.256h2.821a.859.859,0,0,0,0-1.718H57.5a1.662,1.662,0,0,0-1.66,1.66v2.878A.859.859,0,0,0,56.7,17.936ZM61.235,31.49a.859.859,0,0,0-.859-.859H57.556V27.81a.859.859,0,1,0-1.718,0v2.878a1.662,1.662,0,0,0,1.66,1.66h2.878A.859.859,0,0,0,61.235,31.49Z" transform="translate(0 0)"/>
    </g>
  </g>
</svg>
