<svg xmlns="http://www.w3.org/2000/svg" xmlns:xlink="http://www.w3.org/1999/xlink" width="113" height="113" viewBox="0 0 113 113">
  <defs>
    <filter id="Trazado_982547" x="0" y="-0.001" width="113" height="113" filterUnits="userSpaceOnUse">
      <feOffset dy="3" input="SourceAlpha"/>
      <feGaussianBlur stdDeviation="3" result="blur"/>
      <feFlood flood-opacity="0.161"/>
      <feComposite operator="in" in2="blur"/>
      <feComposite in="SourceGraphic"/>
    </filter>
  </defs>
  <g id="Grupo_1227004" data-name="Grupo 1227004" transform="translate(-270.884 -10289.803)">
    <g id="Grupo_1226491" data-name="Grupo 1226491" transform="translate(-0.429 325.326)">
      <g id="Grupo_1225528" data-name="Grupo 1225528" transform="translate(0.313 8669.134)">
        <g id="Grupo_1225173" data-name="Grupo 1225173" transform="translate(0 -3445.654)">
          <g id="Grupo_1224643" data-name="Grupo 1224643" transform="translate(0 1927)">
            <g id="Grupo_1224291" data-name="Grupo 1224291" transform="translate(0 859.245)">
              <g id="Grupo_1224091" data-name="Grupo 1224091" transform="translate(-84.49 -2620.317)">
                <g id="Grupo_1223183" data-name="Grupo 1223183" transform="translate(364.49 4581.069)">
                  <g id="Grupo_1211217" data-name="Grupo 1211217" transform="translate(0)">
                    <g id="Grupo_1210736" data-name="Grupo 1210736">
                      <g id="Grupo_1210537" data-name="Grupo 1210537">
                        <g id="Grupo_1164202" data-name="Grupo 1164202">
                          <g id="Grupo_1158168" data-name="Grupo 1158168">
                            <g id="Grupo_1152576" data-name="Grupo 1152576">
                              <g id="Grupo_1148633" data-name="Grupo 1148633">
                                <g id="Grupo_1148525" data-name="Grupo 1148525">
                                  <g transform="matrix(1, 0, 0, 1, -9, -6)" filter="url(#Trazado_982547)">
                                    <g id="Trazado_982547-2" data-name="Trazado 982547" transform="translate(9 6)" fill="#fdf6e4">
                                      <path d="M 47.49999618530273 93.5 C 41.28936767578125 93.5 35.26533126831055 92.28396606445312 29.59518241882324 89.88570404052734 C 24.11771583557129 87.56893157958984 19.19812965393066 84.251953125 14.97308921813965 80.02690124511719 C 10.74803638458252 75.80186462402344 7.431062698364258 70.88227844238281 5.114289283752441 65.40480804443359 C 2.716022968292236 59.73466110229492 1.499996185302734 53.71062469482422 1.499996185302734 47.49999618530273 C 1.499996185302734 41.28936767578125 2.716022968292236 35.26533126831055 5.114289283752441 29.59518241882324 C 7.431062698364258 24.11771583557129 10.74803638458252 19.19812965393066 14.97308921813965 14.97308921813965 C 19.19812965393066 10.74803638458252 24.11771583557129 7.431062698364258 29.59518241882324 5.114289283752441 C 35.26533126831055 2.716022968292236 41.28936767578125 1.499996185302734 47.49999618530273 1.499996185302734 C 53.71062469482422 1.499996185302734 59.73466110229492 2.716022968292236 65.40480804443359 5.114289283752441 C 70.88227844238281 7.431062698364258 75.80186462402344 10.74803638458252 80.02690124511719 14.97308921813965 C 84.251953125 19.19812965393066 87.56893157958984 24.11771583557129 89.88570404052734 29.59518241882324 C 92.28396606445312 35.26533126831055 93.5 41.28936767578125 93.5 47.49999618530273 C 93.5 53.71062469482422 92.28396606445312 59.73466110229492 89.88570404052734 65.40480804443359 C 87.56893157958984 70.88227844238281 84.251953125 75.80186462402344 80.02690124511719 80.02690124511719 C 75.80186462402344 84.251953125 70.88227844238281 87.56893157958984 65.40480804443359 89.88570404052734 C 59.73466110229492 92.28396606445312 53.71062469482422 93.5 47.49999618530273 93.5 Z" stroke="none"/>
                                      <path d="M 47.49999618530273 2.999992370605469 C 41.4912109375 2.999992370605469 35.66376495361328 4.1761474609375 30.17950439453125 6.495796203613281 C 24.88084411621094 8.736953735351562 20.12152099609375 11.94598388671875 16.03375244140625 16.03375244140625 C 11.94598388671875 20.12152099609375 8.736953735351562 24.88084411621094 6.495796203613281 30.17950439453125 C 4.1761474609375 35.66376495361328 2.999992370605469 41.4912109375 2.999992370605469 47.49999618530273 C 2.999992370605469 53.50878143310547 4.1761474609375 59.33622741699219 6.495796203613281 64.82048797607422 C 8.736953735351562 70.11914825439453 11.94598388671875 74.87847137451172 16.03375244140625 78.96623992919922 C 20.12152099609375 83.05400848388672 24.88084411621094 86.26304626464844 30.17950439453125 88.50419616699219 C 35.66376495361328 90.82384490966797 41.4912109375 92 47.49999618530273 92 C 53.50878143310547 92 59.33622741699219 90.82384490966797 64.82048797607422 88.50419616699219 C 70.11914825439453 86.26304626464844 74.87847137451172 83.05400848388672 78.96623992919922 78.96623992919922 C 83.05400848388672 74.87847137451172 86.26304626464844 70.11914825439453 88.50419616699219 64.82048797607422 C 90.82384490966797 59.33622741699219 92 53.50878143310547 92 47.49999618530273 C 92 41.4912109375 90.82384490966797 35.66376495361328 88.50419616699219 30.17950439453125 C 86.26304626464844 24.88084411621094 83.05400848388672 20.12152099609375 78.96623992919922 16.03375244140625 C 74.87847137451172 11.94598388671875 70.11914825439453 8.736953735351562 64.82048797607422 6.495796203613281 C 59.33622741699219 4.1761474609375 53.50878143310547 2.999992370605469 47.49999618530273 2.999992370605469 M 47.49999618530273 -7.62939453125e-06 C 73.7335205078125 -7.62939453125e-06 95 21.26647186279297 95 47.49999618530273 C 95 73.7335205078125 73.7335205078125 95 47.49999618530273 95 C 21.26647186279297 95 -7.62939453125e-06 73.7335205078125 -7.62939453125e-06 47.49999618530273 C -7.62939453125e-06 21.26647186279297 21.26647186279297 -7.62939453125e-06 47.49999618530273 -7.62939453125e-06 Z" stroke="none" fill="#f5b104"/>
                                    </g>
                                  </g>
                                </g>
                              </g>
                            </g>
                          </g>
                        </g>
                      </g>
                    </g>
                  </g>
                </g>
              </g>
            </g>
          </g>
        </g>
      </g>
    </g>
    <g id="FilledOutline" transform="translate(283.454 10313.977)">
      <path id="Trazado_1058743" data-name="Trazado 1058743" d="M113.069,241.855V237.8l-3.633-1.292c-.489-1.179-.735-1.774-1.223-2.953l1.656-3.483L107,227.2l-3.483,1.656-2.953-1.223L99.271,224H95.214l-1.292,3.633-2.954,1.223L87.486,227.2l-2.869,2.869,1.656,3.483-1.223,2.953L81.416,237.8v4.057l3.633,1.292c.489,1.179.735,1.774,1.223,2.953l-1.656,3.484,2.869,2.869,3.482-1.656,2.953,1.223,1.293,3.633h4.057l1.292-3.633,2.953-1.223L107,252.452l2.869-2.869-1.656-3.483,1.223-2.953Zm-15.827,5.419a7.448,7.448,0,1,1,7.448-7.448A7.448,7.448,0,0,1,97.243,247.274Z" transform="translate(-57.803 -197.932)" fill="#ef5249"/>
      <path id="Trazado_1058744" data-name="Trazado 1058744" d="M247.653,49.855V45.8l-3.633-1.292L242.8,41.553l1.656-3.483L241.583,35.2,238.1,36.857l-2.953-1.223L233.855,32H229.8l-1.292,3.633-2.953,1.223L222.07,35.2,219.2,38.07l1.655,3.483-1.223,2.953L218,45.7c0,2.026-2,2.128-2,4.154l3.633,1.292,1.223,2.953L219.2,57.583l2.869,2.869,3.483-1.656,2.953,1.223,1.292,3.633h4.057l1.292-3.633L238.1,58.8l3.483,1.656,2.869-2.869L242.8,54.1l1.223-2.953Zm-15.827,5.419a7.448,7.448,0,1,1,7.448-7.448A7.448,7.448,0,0,1,231.827,55.274Z" transform="translate(-176.725 -28.276)" fill="#88bf40"/>
      <path id="Trazado_1058745" data-name="Trazado 1058745" d="M55.653,25.855V21.8L52.02,20.506,50.8,17.553l1.656-3.483L49.583,11.2,46.1,12.857l-2.953-1.223L41.855,8H37.8l-1.292,3.633-2.953,1.223L30.07,11.2,27.2,14.07l1.656,3.483-1.223,2.953L24,21.8v4.057l3.633,1.292L28.857,30.1,27.2,33.583l2.869,2.869L33.553,34.8l2.953,1.223L37.8,39.653h4.057l1.292-3.633L46.1,34.8l3.483,1.656,2.869-2.869L50.8,30.1l1.223-2.953ZM39.827,31.274a7.448,7.448,0,1,1,7.448-7.448A7.448,7.448,0,0,1,39.827,31.274Z" transform="translate(-7.069 -7.069)" fill="#ffc119"/>
      <path id="Trazado_1058746" data-name="Trazado 1058746" d="M333.586,279.274v-5.586l-5.007-5.007a1.975,1.975,0,1,1,2.793-2.793l2.215,2.215V257.862a1.862,1.862,0,1,1,3.724,0v4.655h4.043a5.266,5.266,0,0,1,3.724,8.99l-2.181,2.181v5.586Z" transform="translate(-275.692 -226.209)" fill="#f5be9a"/>
      <path id="Trazado_1058747" data-name="Trazado 1058747" d="M360,432h13.034v8.379H360Z" transform="translate(-303.968 -381.727)" fill="#0093ba"/>
      <path id="Trazado_1058748" data-name="Trazado 1058748" d="M23.4,30.224l3.109-1.478,2.189.907L29.852,32.9a.931.931,0,0,0,.877.619h4.057a.931.931,0,0,0,.877-.619l1.153-3.244,2.188-.907,3.109,1.478a.932.932,0,0,0,1.058-.183l2.869-2.869a.931.931,0,0,0,.183-1.058l-1.478-3.109.907-2.188L48.9,19.664a.931.931,0,0,0,.619-.877V14.729a.931.931,0,0,0-.619-.877L45.653,12.7l-.907-2.189L46.224,7.4a.931.931,0,0,0-.183-1.058L43.173,3.474a.931.931,0,0,0-1.058-.183L39.006,4.769l-2.189-.907L35.663.619A.931.931,0,0,0,34.786,0H30.729a.931.931,0,0,0-.877.619L28.7,3.863l-2.189.907L23.4,3.291a.931.931,0,0,0-1.059.183L19.474,6.342A.931.931,0,0,0,19.291,7.4l1.478,3.109L19.863,12.7l-3.244,1.153a.931.931,0,0,0-.619.877v4.057a.931.931,0,0,0,.619.877l3.244,1.153.907,2.189-1.478,3.109a.931.931,0,0,0,.183,1.058l2.869,2.869a.932.932,0,0,0,1.059.183Zm-.754-7.549-1.223-2.953a.93.93,0,0,0-.548-.521l-3.014-1.072V15.386l3.014-1.072a.93.93,0,0,0,.548-.521l1.224-2.953a.931.931,0,0,0-.019-.756L21.255,7.194l1.939-1.939,2.889,1.373a.93.93,0,0,0,.756.019l2.953-1.223a.93.93,0,0,0,.52-.548l1.072-3.014h2.743L35.2,4.876a.93.93,0,0,0,.521.548l2.953,1.224a.93.93,0,0,0,.756-.019l2.889-1.373,1.94,1.94-1.373,2.889a.931.931,0,0,0-.019.756l1.223,2.953a.93.93,0,0,0,.548.52l3.014,1.072v2.743L44.639,19.2a.93.93,0,0,0-.548.521l-1.224,2.953a.931.931,0,0,0,.019.756l1.373,2.889-1.94,1.94-2.889-1.373a.93.93,0,0,0-.756-.019l-2.953,1.223a.93.93,0,0,0-.52.548l-1.072,3.014H31.386l-1.072-3.014a.93.93,0,0,0-.521-.548L26.84,26.868a.93.93,0,0,0-.756.019L23.194,28.26l-1.939-1.939,1.373-2.889a.931.931,0,0,0,.02-.756Z" transform="translate(0 0)"/>
      <path id="Trazado_1058749" data-name="Trazado 1058749" d="M96.379,88.758A8.379,8.379,0,1,0,88,80.379,8.379,8.379,0,0,0,96.379,88.758Zm0-14.9a6.517,6.517,0,1,1-6.517,6.517A6.517,6.517,0,0,1,96.379,73.862Z" transform="translate(-63.621 -63.621)"/>
      <path id="Trazado_1058750" data-name="Trazado 1058750" d="M101.51,285.843l-1.223,2.953a.931.931,0,0,0,.019.756l1.373,2.889-1.94,1.94-2.889-1.373a.931.931,0,0,0-.756-.019l-2.952,1.223a.931.931,0,0,0-.521.548l-1.072,3.014H88.805l-1.072-3.014a.93.93,0,0,0-.521-.548l-2.953-1.223a.93.93,0,0,0-.756.019l-2.889,1.373-1.94-1.94,1.373-2.889a.931.931,0,0,0,.019-.756l-1.223-2.953a.931.931,0,0,0-.547-.52l-3.014-1.072v-2.744l3.014-1.072a.931.931,0,0,0,.548-.521l1.223-2.953a.931.931,0,0,0-.019-.756l-1.656-3.483-1.681.8,1.478,3.109-.906,2.188-3.244,1.153a.931.931,0,0,0-.619.877v4.057a.931.931,0,0,0,.619.877l3.243,1.153.906,2.189-1.478,3.109a.931.931,0,0,0,.183,1.058l2.869,2.868a.931.931,0,0,0,1.058.183l3.109-1.478,2.188.907,1.154,3.244a.931.931,0,0,0,.878.619h4.057a.931.931,0,0,0,.877-.619l1.153-3.243,2.189-.907,3.109,1.478a.931.931,0,0,0,1.058-.183l2.869-2.869a.931.931,0,0,0,.183-1.058l-1.478-3.109,1.065-2.571Z" transform="translate(-50.738 -240.985)"/>
      <path id="Trazado_1058751" data-name="Trazado 1058751" d="M275.3,246.648l-2.869-2.869a.931.931,0,0,0-1.058-.183l-3.483,1.656.8,1.682,2.889-1.373,1.94,1.94-1.373,2.889a.931.931,0,0,0-.019.756l1.056,2.55,1.72-.713-.9-2.168,1.478-3.109A.931.931,0,0,0,275.3,246.648Z" transform="translate(-222.58 -215.169)"/>
      <path id="Trazado_1058752" data-name="Trazado 1058752" d="M153.795,304.758a8.379,8.379,0,1,0-8.379-8.379A8.379,8.379,0,0,0,153.795,304.758Zm0-14.9a6.517,6.517,0,1,1-6.517,6.517A6.517,6.517,0,0,1,153.795,289.862Z" transform="translate(-114.356 -254.485)"/>
      <path id="Trazado_1058753" data-name="Trazado 1058753" d="M317.8,37.852,314.552,36.7l-.907-2.189,1.478-3.109a.931.931,0,0,0-.183-1.058l-2.869-2.869a.931.931,0,0,0-1.058-.183l-3.109,1.478-2.188-.907-1.153-3.244a.931.931,0,0,0-.878-.619h-4.057a.931.931,0,0,0-.877.619L297.6,27.863l-2.571,1.065.713,1.72,2.953-1.223a.931.931,0,0,0,.521-.548l1.072-3.014h2.743l1.073,3.014a.93.93,0,0,0,.521.548l2.953,1.224a.931.931,0,0,0,.756-.019l2.889-1.373,1.94,1.94-1.373,2.889a.931.931,0,0,0-.019.756l1.223,2.953a.931.931,0,0,0,.548.52l3.014,1.072v2.743L313.539,43.2a.931.931,0,0,0-.548.521l-1.224,2.953a.931.931,0,0,0,.019.756l1.373,2.889-2.4,2.4,1.317,1.316,2.869-2.869a.931.931,0,0,0,.183-1.058l-1.478-3.109.907-2.189,3.244-1.153a.931.931,0,0,0,.619-.878V38.729a.931.931,0,0,0-.619-.877Z" transform="translate(-246.556 -21.207)"/>
      <path id="Trazado_1058754" data-name="Trazado 1058754" d="M293.006,110.893a6.493,6.493,0,0,1-6.043-4.073l-1.726.7a8.379,8.379,0,1,0,3.579-10.4l.933,1.612a6.517,6.517,0,1,1,3.258,12.163Z" transform="translate(-237.904 -84.825)"/>
      <path id="Trazado_1058755" data-name="Trazado 1058755" d="M334.283,254.517h-3.112v-3.724a2.793,2.793,0,1,0-5.586,0v7.993l-.625-.625a2.906,2.906,0,0,0-4.11,4.11l4.735,4.735v1.476h-.931a.931.931,0,0,0-.931.931v8.379h1.862v-7.448h11.172v7.448h1.862v-8.379a.931.931,0,0,0-.931-.931h-.931v-1.476l1.909-1.909a6.2,6.2,0,0,0-4.382-10.58Zm3.066,9.263-2.181,2.181a.931.931,0,0,0-.273.658v1.862h-7.448V266.62a.931.931,0,0,0-.273-.658l-5.007-5.008a1.044,1.044,0,0,1,1.476-1.476l2.215,2.214a.931.931,0,0,0,1.589-.658V250.793a.931.931,0,1,1,1.862,0v4.655a.931.931,0,0,0,.931.931h4.043a4.335,4.335,0,0,1,3.066,7.4Z" transform="translate(-268.622 -219.14)"/>
      <path id="Trazado_1058756" data-name="Trazado 1058756" d="M432,456h1.862v1.862H432Z" transform="translate(-367.589 -402.934)"/>
    </g>
  </g>
</svg>
