<svg xmlns="http://www.w3.org/2000/svg" xmlns:xlink="http://www.w3.org/1999/xlink" width="113" height="113" viewBox="0 0 113 113">
  <defs>
    <filter id="Trazado_982547" x="0" y="-0.001" width="113" height="113" filterUnits="userSpaceOnUse">
      <feOffset dy="3" input="SourceAlpha"/>
      <feGaussianBlur stdDeviation="3" result="blur"/>
      <feFlood flood-opacity="0.161"/>
      <feComposite operator="in" in2="blur"/>
      <feComposite in="SourceGraphic"/>
    </filter>
  </defs>
  <g id="Grupo_1227005" data-name="Grupo 1227005" transform="translate(-585.393 -10289.803)">
    <g id="Grupo_1226492" data-name="Grupo 1226492" transform="translate(-0.429 325.326)">
      <g id="Grupo_1225529" data-name="Grupo 1225529" transform="translate(0.313 8669.134)">
        <g id="Grupo_1225176" data-name="Grupo 1225176" transform="translate(0 -3445.654)">
          <g id="Grupo_1224647" data-name="Grupo 1224647" transform="translate(0 1927)">
            <g id="Grupo_1224292" data-name="Grupo 1224292" transform="translate(0 859.245)">
              <g id="Grupo_1224092" data-name="Grupo 1224092" transform="translate(-88.49 -2620.317)">
                <g id="Grupo_1223184" data-name="Grupo 1223184" transform="translate(683 4581.069)">
                  <g id="Grupo_1211216" data-name="Grupo 1211216" transform="translate(0)">
                    <g id="Grupo_1210737" data-name="Grupo 1210737">
                      <g id="Grupo_1210537" data-name="Grupo 1210537">
                        <g id="Grupo_1164202" data-name="Grupo 1164202">
                          <g id="Grupo_1158168" data-name="Grupo 1158168">
                            <g id="Grupo_1152576" data-name="Grupo 1152576">
                              <g id="Grupo_1148633" data-name="Grupo 1148633">
                                <g id="Grupo_1148525" data-name="Grupo 1148525">
                                  <g transform="matrix(1, 0, 0, 1, -9, -6)" filter="url(#Trazado_982547)">
                                    <g id="Trazado_982547-2" data-name="Trazado 982547" transform="translate(9 6)" fill="#fdf6e4">
                                      <path d="M 47.49999618530273 93.5 C 41.28936767578125 93.5 35.26533126831055 92.28396606445312 29.59518241882324 89.88570404052734 C 24.11771583557129 87.56893157958984 19.19812965393066 84.251953125 14.97308921813965 80.02690124511719 C 10.74803638458252 75.80186462402344 7.431062698364258 70.88227844238281 5.114289283752441 65.40480804443359 C 2.716022968292236 59.73466110229492 1.499996185302734 53.71062469482422 1.499996185302734 47.49999618530273 C 1.499996185302734 41.28936767578125 2.716022968292236 35.26533126831055 5.114289283752441 29.59518241882324 C 7.431062698364258 24.11771583557129 10.74803638458252 19.19812965393066 14.97308921813965 14.97308921813965 C 19.19812965393066 10.74803638458252 24.11771583557129 7.431062698364258 29.59518241882324 5.114289283752441 C 35.26533126831055 2.716022968292236 41.28936767578125 1.499996185302734 47.49999618530273 1.499996185302734 C 53.71062469482422 1.499996185302734 59.73466110229492 2.716022968292236 65.40480804443359 5.114289283752441 C 70.88227844238281 7.431062698364258 75.80186462402344 10.74803638458252 80.02690124511719 14.97308921813965 C 84.251953125 19.19812965393066 87.56893157958984 24.11771583557129 89.88570404052734 29.59518241882324 C 92.28396606445312 35.26533126831055 93.5 41.28936767578125 93.5 47.49999618530273 C 93.5 53.71062469482422 92.28396606445312 59.73466110229492 89.88570404052734 65.40480804443359 C 87.56893157958984 70.88227844238281 84.251953125 75.80186462402344 80.02690124511719 80.02690124511719 C 75.80186462402344 84.251953125 70.88227844238281 87.56893157958984 65.40480804443359 89.88570404052734 C 59.73466110229492 92.28396606445312 53.71062469482422 93.5 47.49999618530273 93.5 Z" stroke="none"/>
                                      <path d="M 47.49999618530273 2.999992370605469 C 41.4912109375 2.999992370605469 35.66376495361328 4.1761474609375 30.17950439453125 6.495796203613281 C 24.88084411621094 8.736953735351562 20.12152099609375 11.94598388671875 16.03375244140625 16.03375244140625 C 11.94598388671875 20.12152099609375 8.736953735351562 24.88084411621094 6.495796203613281 30.17950439453125 C 4.1761474609375 35.66376495361328 2.999992370605469 41.4912109375 2.999992370605469 47.49999618530273 C 2.999992370605469 53.50878143310547 4.1761474609375 59.33622741699219 6.495796203613281 64.82048797607422 C 8.736953735351562 70.11914825439453 11.94598388671875 74.87847137451172 16.03375244140625 78.96623992919922 C 20.12152099609375 83.05400848388672 24.88084411621094 86.26304626464844 30.17950439453125 88.50419616699219 C 35.66376495361328 90.82384490966797 41.4912109375 92 47.49999618530273 92 C 53.50878143310547 92 59.33622741699219 90.82384490966797 64.82048797607422 88.50419616699219 C 70.11914825439453 86.26304626464844 74.87847137451172 83.05400848388672 78.96623992919922 78.96623992919922 C 83.05400848388672 74.87847137451172 86.26304626464844 70.11914825439453 88.50419616699219 64.82048797607422 C 90.82384490966797 59.33622741699219 92 53.50878143310547 92 47.49999618530273 C 92 41.4912109375 90.82384490966797 35.66376495361328 88.50419616699219 30.17950439453125 C 86.26304626464844 24.88084411621094 83.05400848388672 20.12152099609375 78.96623992919922 16.03375244140625 C 74.87847137451172 11.94598388671875 70.11914825439453 8.736953735351562 64.82048797607422 6.495796203613281 C 59.33622741699219 4.1761474609375 53.50878143310547 2.999992370605469 47.49999618530273 2.999992370605469 M 47.49999618530273 -7.62939453125e-06 C 73.7335205078125 -7.62939453125e-06 95 21.26647186279297 95 47.49999618530273 C 95 73.7335205078125 73.7335205078125 95 47.49999618530273 95 C 21.26647186279297 95 -7.62939453125e-06 73.7335205078125 -7.62939453125e-06 47.49999618530273 C -7.62939453125e-06 21.26647186279297 21.26647186279297 -7.62939453125e-06 47.49999618530273 -7.62939453125e-06 Z" stroke="none" fill="#f5b104"/>
                                    </g>
                                  </g>
                                </g>
                              </g>
                            </g>
                          </g>
                        </g>
                      </g>
                    </g>
                  </g>
                </g>
              </g>
            </g>
          </g>
        </g>
      </g>
    </g>
    <g id="Page-1" transform="translate(611.892 10313.31)">
      <g id="_039---Positive-Interactions" data-name="039---Positive-Interactions" transform="translate(-1 -1)">
        <g id="Icons_copy" transform="translate(1 1)">
          <path id="Shape" d="M45,30a15.517,15.517,0,0,1-.31,3.07,15.214,15.214,0,0,1-2.01,4.94,14.537,14.537,0,0,1-2.25,2.75v.01a14.987,14.987,0,0,1-7.36,3.92A15.517,15.517,0,0,1,30,45,15.005,15.005,0,0,1,15,30a15.517,15.517,0,0,1,.31-3.07A15.091,15.091,0,0,1,26.93,15.31,15.517,15.517,0,0,1,30,15,15.005,15.005,0,0,1,45,30Z" fill="#60a917"/>
          <path id="Shape-2" data-name="Shape" d="M30,15c-.5,0-1,.028-1.488.076A15.008,15.008,0,0,1,42,30a15.517,15.517,0,0,1-.31,3.07,15.214,15.214,0,0,1-2.01,4.94,14.537,14.537,0,0,1-2.25,2.75v.01a14.987,14.987,0,0,1-7.36,3.92c-.517.1-1.046.181-1.582.234.5.049,1,.076,1.512.076a15.517,15.517,0,0,0,3.07-.31,14.987,14.987,0,0,0,7.36-3.92v-.01a14.537,14.537,0,0,0,2.25-2.75,15.214,15.214,0,0,0,2.01-4.94A15.517,15.517,0,0,0,45,30,15.005,15.005,0,0,0,30,15Z" fill="#549414"/>
          <circle id="Oval" cx="6" cy="6" r="6" transform="translate(8 5)" fill="#ffe0b2"/>
          <path id="Shape-3" data-name="Shape" d="M14,5a5.983,5.983,0,0,0-1.5.2,5.992,5.992,0,0,1,0,11.606A6,6,0,1,0,14,5Z" fill="#dfc49c"/>
          <path id="Shape-4" data-name="Shape" d="M27,14a11.377,11.377,0,0,1-.07,1.31,14.909,14.909,0,0,0-6.77,3.38A5.916,5.916,0,0,0,16,17H14a6,6,0,1,0-6-6,6,6,0,0,0,6,6H12a6,6,0,0,0-6,6v1.24A13,13,0,1,1,27,14Z" fill="#00bcd4"/>
          <path id="Shape-5" data-name="Shape" d="M14,1a13.032,13.032,0,0,0-1.5.093A13,13,0,0,1,24,14a11.377,11.377,0,0,1-.07,1.31,14.94,14.94,0,0,0-5.348,2.281,5.874,5.874,0,0,1,1.578,1.1,14.909,14.909,0,0,1,6.77-3.38A11.377,11.377,0,0,0,27,14,13,13,0,0,0,14,1Z" fill="#00838f"/>
          <path id="Shape-6" data-name="Shape" d="M20.16,18.69a14.927,14.927,0,0,0-4.85,8.24A11.377,11.377,0,0,1,14,27a12.9,12.9,0,0,1-8-2.76V23a6,6,0,0,1,6-6h4A5.916,5.916,0,0,1,20.16,18.69Z" fill="#ef314c"/>
          <path id="Shape-7" data-name="Shape" d="M16,17H13a5.916,5.916,0,0,1,4.16,1.69,14.919,14.919,0,0,0-4.837,8.191A13.056,13.056,0,0,0,14,27a11.377,11.377,0,0,0,1.31-.07,14.927,14.927,0,0,1,4.85-8.24A5.916,5.916,0,0,0,16,17Z" fill="#bb193b"/>
          <path id="Shape-8" data-name="Shape" d="M46,49H44a6,6,0,0,0-6,6v1.24A12.963,12.963,0,0,1,33,46a11.376,11.376,0,0,1,.07-1.31,14.987,14.987,0,0,0,7.36-3.92A5.9,5.9,0,0,0,40,43a6,6,0,0,0,6,6Z" fill="#00bcd4"/>
          <path id="Shape-9" data-name="Shape" d="M52,43a6,6,0,0,1-12,0,5.9,5.9,0,0,1,.43-2.23v-.01a14.537,14.537,0,0,0,2.25-2.75A5.914,5.914,0,0,1,46,37a6,6,0,0,1,6,6Z" fill="#ffe0b2"/>
          <path id="Shape-10" data-name="Shape" d="M46,37a5.912,5.912,0,0,0-1.485.2A5.992,5.992,0,0,1,44.5,48.8,6,6,0,1,0,46,37Z" fill="#dfc49c"/>
          <path id="Shape-11" data-name="Shape" d="M59,46a12.963,12.963,0,0,1-5,10.24V55a6,6,0,0,0-6-6H46a6,6,0,0,0,0-12,5.914,5.914,0,0,0-3.32,1.01,15.214,15.214,0,0,0,2.01-4.94A11.376,11.376,0,0,1,46,33,13,13,0,0,1,59,46Z" fill="#00bcd4"/>
          <path id="Shape-12" data-name="Shape" d="M46,33a11.376,11.376,0,0,0-1.31.07.23.23,0,0,1-.013.05,12.969,12.969,0,0,1,9.071,20.168A5.977,5.977,0,0,1,54,55v1.24A13,13,0,0,0,46,33Z" fill="#00838f"/>
          <path id="Shape-13" data-name="Shape" d="M54,55v1.24a12.974,12.974,0,0,1-16,0V55a6,6,0,0,1,6-6h4a6,6,0,0,1,6,6Z" fill="#ff9801"/>
          <path id="Shape-14" data-name="Shape" d="M48,49H45a6,6,0,0,1,6,6v1.24a12.882,12.882,0,0,1-6.5,2.66A13.03,13.03,0,0,0,46,59a12.9,12.9,0,0,0,8-2.76V55A6,6,0,0,0,48,49Z" fill="#f57c00"/>
        </g>
        <g id="Icons">
          <path id="Shape-15" data-name="Shape" d="M35.293,26.293,28,33.586l-1.293-1.293a1,1,0,0,0-1.414,1.414l2,2a1,1,0,0,0,1.414,0l8-8a1,1,0,0,0-1.414-1.414Z"/>
          <path id="Shape-16" data-name="Shape" d="M47,33h-.139A15.9,15.9,0,0,0,29,15.139V15A14,14,0,1,0,6.288,25.94c.016.017.039.026.056.042a13.98,13.98,0,0,0,4.245,2.3c.02.009.041.015.062.023A13.936,13.936,0,0,0,15,29h.139A15.9,15.9,0,0,0,33,46.861V47a13.975,13.975,0,0,0,5.288,10.94c.016.017.039.026.056.042a13.98,13.98,0,0,0,4.245,2.3c.02.009.041.015.062.023a13.86,13.86,0,0,0,8.7,0c.021-.008.042-.014.062-.023a13.963,13.963,0,0,0,4.244-2.3c.018-.016.041-.025.057-.042A13.987,13.987,0,0,0,47,33Zm0,16a4.975,4.975,0,0,1-4.7-6.688,16.044,16.044,0,0,0,2.066-2.548A4.923,4.923,0,0,1,47,39a5,5,0,0,1,0,10ZM3,15a12,12,0,0,1,24,0c0,.187-.006.36-.013.53a15.928,15.928,0,0,0-5.809,2.87,6.838,6.838,0,0,0-1.771-.965,7,7,0,1,0-8.811,0A7.011,7.011,0,0,0,6.08,23,11.94,11.94,0,0,1,3,15Zm7-3a5,5,0,1,1,5,5A5,5,0,0,1,10,12Zm5,15a11.926,11.926,0,0,1-3-.4V24a1,1,0,0,0-2,0v1.9a12,12,0,0,1-2-1.168V24a5.006,5.006,0,0,1,5-5h4a4.923,4.923,0,0,1,2.631.759,15.987,15.987,0,0,0-4.1,7.228c-.172.007-.345.013-.531.013Zm2,4A14,14,0,1,1,31,45,14,14,0,0,1,17,31ZM35,47c0-.187.006-.36.013-.53a15.892,15.892,0,0,0,5-2.26A6.988,6.988,0,0,0,42.6,49.434,7.011,7.011,0,0,0,38.08,55,11.94,11.94,0,0,1,35,47Zm9,11.6V56a1,1,0,0,0-2,0v1.9a12,12,0,0,1-2-1.168V56a5.006,5.006,0,0,1,5-5h4a5.006,5.006,0,0,1,5,5v.727A12,12,0,0,1,52,57.9V56a1,1,0,1,0-2,0v2.6a11.59,11.59,0,0,1-6,0ZM55.92,55a7.011,7.011,0,0,0-4.52-5.566A7,7,0,0,0,47,37a6.893,6.893,0,0,0-1.221.119,15.961,15.961,0,0,0,.691-2.106c.171-.007.344-.013.53-.013a11.98,11.98,0,0,1,8.92,20Z"/>
          <path id="Shape-17" data-name="Shape" d="M36.707,2.293a1,1,0,0,0-1.414,0l-3,3a1,1,0,0,0,0,1.414l3,3a1,1,0,0,0,1.414-1.414L35.463,7.049A24.028,24.028,0,0,1,58,31a1,1,0,0,0,2,0A26.032,26.032,0,0,0,35.377,5.037l1.33-1.33a1,1,0,0,0,0-1.414Z"/>
          <path id="Shape-18" data-name="Shape" d="M4,31a1,1,0,0,0-2,0A26.032,26.032,0,0,0,26.623,56.963l-1.33,1.33a1,1,0,1,0,1.414,1.414l3-3a1,1,0,0,0,0-1.414l-3-3a1,1,0,0,0-1.414,1.414l1.244,1.244A24.028,24.028,0,0,1,4,31Z"/>
        </g>
      </g>
    </g>
  </g>
</svg>
