<svg xmlns="http://www.w3.org/2000/svg" xmlns:xlink="http://www.w3.org/1999/xlink" width="113" height="113" viewBox="0 0 113 113">
  <defs>
    <filter id="Trazado_982547" x="0" y="-0.001" width="113" height="113" filterUnits="userSpaceOnUse">
      <feOffset dy="3" input="SourceAlpha"/>
      <feGaussianBlur stdDeviation="3" result="blur"/>
      <feFlood flood-opacity="0.161"/>
      <feComposite operator="in" in2="blur"/>
      <feComposite in="SourceGraphic"/>
    </filter>
  </defs>
  <g id="Grupo_1227030" data-name="Grupo 1227030" transform="translate(-900.393 -10289.803)">
    <g id="Grupo_1226493" data-name="Grupo 1226493" transform="translate(-0.429 325.326)">
      <g id="Grupo_1225530" data-name="Grupo 1225530" transform="translate(0.313 8669.134)">
        <g id="Grupo_1225177" data-name="Grupo 1225177" transform="translate(0 -3445.654)">
          <g id="Grupo_1224648" data-name="Grupo 1224648" transform="translate(0 1927)">
            <g id="Grupo_1224293" data-name="Grupo 1224293" transform="translate(0 859.245)">
              <g id="Grupo_1224093" data-name="Grupo 1224093" transform="translate(226.51 -2620.317)">
                <g id="Grupo_1223184" data-name="Grupo 1223184" transform="translate(683 4581.069)">
                  <g id="Grupo_1211216" data-name="Grupo 1211216" transform="translate(0)">
                    <g id="Grupo_1210737" data-name="Grupo 1210737">
                      <g id="Grupo_1210537" data-name="Grupo 1210537">
                        <g id="Grupo_1164202" data-name="Grupo 1164202">
                          <g id="Grupo_1158168" data-name="Grupo 1158168">
                            <g id="Grupo_1152576" data-name="Grupo 1152576">
                              <g id="Grupo_1148633" data-name="Grupo 1148633">
                                <g id="Grupo_1148525" data-name="Grupo 1148525">
                                  <g transform="matrix(1, 0, 0, 1, -9, -6)" filter="url(#Trazado_982547)">
                                    <g id="Trazado_982547-2" data-name="Trazado 982547" transform="translate(9 6)" fill="#fdf6e4">
                                      <path d="M 47.49999618530273 93.5 C 41.28936767578125 93.5 35.26533126831055 92.28396606445312 29.59518241882324 89.88570404052734 C 24.11771583557129 87.56893157958984 19.19812965393066 84.251953125 14.97308921813965 80.02690124511719 C 10.74803638458252 75.80186462402344 7.431062698364258 70.88227844238281 5.114289283752441 65.40480804443359 C 2.716022968292236 59.73466110229492 1.499996185302734 53.71062469482422 1.499996185302734 47.49999618530273 C 1.499996185302734 41.28936767578125 2.716022968292236 35.26533126831055 5.114289283752441 29.59518241882324 C 7.431062698364258 24.11771583557129 10.74803638458252 19.19812965393066 14.97308921813965 14.97308921813965 C 19.19812965393066 10.74803638458252 24.11771583557129 7.431062698364258 29.59518241882324 5.114289283752441 C 35.26533126831055 2.716022968292236 41.28936767578125 1.499996185302734 47.49999618530273 1.499996185302734 C 53.71062469482422 1.499996185302734 59.73466110229492 2.716022968292236 65.40480804443359 5.114289283752441 C 70.88227844238281 7.431062698364258 75.80186462402344 10.74803638458252 80.02690124511719 14.97308921813965 C 84.251953125 19.19812965393066 87.56893157958984 24.11771583557129 89.88570404052734 29.59518241882324 C 92.28396606445312 35.26533126831055 93.5 41.28936767578125 93.5 47.49999618530273 C 93.5 53.71062469482422 92.28396606445312 59.73466110229492 89.88570404052734 65.40480804443359 C 87.56893157958984 70.88227844238281 84.251953125 75.80186462402344 80.02690124511719 80.02690124511719 C 75.80186462402344 84.251953125 70.88227844238281 87.56893157958984 65.40480804443359 89.88570404052734 C 59.73466110229492 92.28396606445312 53.71062469482422 93.5 47.49999618530273 93.5 Z" stroke="none"/>
                                      <path d="M 47.49999618530273 2.999992370605469 C 41.4912109375 2.999992370605469 35.66376495361328 4.1761474609375 30.17950439453125 6.495796203613281 C 24.88084411621094 8.736953735351562 20.12152099609375 11.94598388671875 16.03375244140625 16.03375244140625 C 11.94598388671875 20.12152099609375 8.736953735351562 24.88084411621094 6.495796203613281 30.17950439453125 C 4.1761474609375 35.66376495361328 2.999992370605469 41.4912109375 2.999992370605469 47.49999618530273 C 2.999992370605469 53.50878143310547 4.1761474609375 59.33622741699219 6.495796203613281 64.82048797607422 C 8.736953735351562 70.11914825439453 11.94598388671875 74.87847137451172 16.03375244140625 78.96623992919922 C 20.12152099609375 83.05400848388672 24.88084411621094 86.26304626464844 30.17950439453125 88.50419616699219 C 35.66376495361328 90.82384490966797 41.4912109375 92 47.49999618530273 92 C 53.50878143310547 92 59.33622741699219 90.82384490966797 64.82048797607422 88.50419616699219 C 70.11914825439453 86.26304626464844 74.87847137451172 83.05400848388672 78.96623992919922 78.96623992919922 C 83.05400848388672 74.87847137451172 86.26304626464844 70.11914825439453 88.50419616699219 64.82048797607422 C 90.82384490966797 59.33622741699219 92 53.50878143310547 92 47.49999618530273 C 92 41.4912109375 90.82384490966797 35.66376495361328 88.50419616699219 30.17950439453125 C 86.26304626464844 24.88084411621094 83.05400848388672 20.12152099609375 78.96623992919922 16.03375244140625 C 74.87847137451172 11.94598388671875 70.11914825439453 8.736953735351562 64.82048797607422 6.495796203613281 C 59.33622741699219 4.1761474609375 53.50878143310547 2.999992370605469 47.49999618530273 2.999992370605469 M 47.49999618530273 -7.62939453125e-06 C 73.7335205078125 -7.62939453125e-06 95 21.26647186279297 95 47.49999618530273 C 95 73.7335205078125 73.7335205078125 95 47.49999618530273 95 C 21.26647186279297 95 -7.62939453125e-06 73.7335205078125 -7.62939453125e-06 47.49999618530273 C -7.62939453125e-06 21.26647186279297 21.26647186279297 -7.62939453125e-06 47.49999618530273 -7.62939453125e-06 Z" stroke="none" fill="#f5b104"/>
                                    </g>
                                  </g>
                                </g>
                              </g>
                            </g>
                          </g>
                        </g>
                      </g>
                    </g>
                  </g>
                </g>
              </g>
            </g>
          </g>
        </g>
      </g>
    </g>
    <g id="obediente_19_" data-name="obediente (19)" transform="translate(913.963 10313.707)">
      <g id="Grupo_1227006" data-name="Grupo 1227006" transform="translate(26.782 0.867)">
        <path id="Trazado_1058757" data-name="Trazado 1058757" d="M153.708,7.5H116.893a.578.578,0,0,0-.578.578V24.1h3.791a2.833,2.833,0,0,1,.2,5.659v3.515h0a1.155,1.155,0,0,1,.98,1.141v7.176a1.155,1.155,0,0,1-.98,1.141h0v3.515a2.833,2.833,0,0,1-.2,5.659h-3.791v4.744h7.978a1.156,1.156,0,0,1,1.156,1.156v2.3s0,0,0,0h.881a1.156,1.156,0,0,1,1.156,1.156v3.687h26.8V8.078A.578.578,0,0,0,153.708,7.5Z" transform="translate(-116.315 -7.5)" fill="#fff3de"/>
      </g>
      <g id="Grupo_1227007" data-name="Grupo 1227007" transform="translate(26.782 0.867)">
        <path id="Trazado_1058758" data-name="Trazado 1058758" d="M120.106,24.1l.1,0V8.078a.578.578,0,0,1,.578-.578h-3.894a.578.578,0,0,0-.578.578V24.1Z" transform="translate(-116.315 -7.5)" fill="#ffe5c2"/>
        <path id="Trazado_1058759" data-name="Trazado 1058759" d="M120.106,391.63h-3.791v4.744h3.894v-4.747Z" transform="translate(-116.315 -347.22)" fill="#ffe5c2"/>
      </g>
      <g id="Grupo_1227025" data-name="Grupo 1227025" transform="translate(15.945 17.471)">
        <g id="Grupo_1227008" data-name="Grupo 1227008" transform="translate(15.805 11.926)">
          <path id="Trazado_1058760" data-name="Trazado 1058760" d="M159.3,254.29h5.351v3.953H159.3Z" transform="translate(-159.296 -254.29)" fill="#883f2e"/>
          <path id="Trazado_1058761" data-name="Trazado 1058761" d="M237.5,254.29h7.643v3.953H237.5Z" transform="translate(-228.461 -254.29)" fill="#883f2e"/>
        </g>
        <g id="Grupo_1227009" data-name="Grupo 1227009" transform="translate(15.805 13.973)">
          <path id="Trazado_1058762" data-name="Trazado 1058762" d="M159.3,272h5.351v1.906H159.3Z" transform="translate(-159.296 -272)" fill="#6d3326"/>
          <path id="Trazado_1058763" data-name="Trazado 1058763" d="M237.5,272h7.643v1.906H237.5Z" transform="translate(-228.461 -272)" fill="#6d3326"/>
        </g>
        <g id="Grupo_1227010" data-name="Grupo 1227010" transform="translate(32.49 11.004)">
          <path id="Trazado_1058764" data-name="Trazado 1058764" d="M325.1,249.209a2.9,2.9,0,0,1-2.9,2.9H304.275a.659.659,0,0,1-.659-.659v-4.481a.659.659,0,0,1,.659-.659H322.2A2.9,2.9,0,0,1,325.1,249.209Z" transform="translate(-303.616 -246.31)" fill="#ca6e59"/>
        </g>
        <g id="Grupo_1227011" data-name="Grupo 1227011" transform="translate(32.49 11.004)">
          <path id="Trazado_1058765" data-name="Trazado 1058765" d="M307.556,249.627a.659.659,0,0,1-.659-.659V246.31h-2.622a.659.659,0,0,0-.659.659v4.481a.659.659,0,0,0,.659.659H322.2a2.9,2.9,0,0,0,2.869-2.482Z" transform="translate(-303.616 -246.31)" fill="#bb5d4c"/>
        </g>
        <g id="Grupo_1227012" data-name="Grupo 1227012" transform="translate(21.157 11.004)">
          <path id="Trazado_1058766" data-name="Trazado 1058766" d="M209.275,246.889v4.642a.578.578,0,0,1-.578.578h-2.534a.578.578,0,0,1-.578-.578v-4.642a.578.578,0,0,1,.578-.578H208.7A.578.578,0,0,1,209.275,246.889Z" transform="translate(-205.585 -246.311)" fill="#ca6e59"/>
        </g>
        <g id="Grupo_1227013" data-name="Grupo 1227013" transform="translate(21.157 11.004)">
          <path id="Trazado_1058767" data-name="Trazado 1058767" d="M207.261,251.531v-4.642a.578.578,0,0,1,.578-.578h-1.676a.578.578,0,0,0-.578.578v4.642a.578.578,0,0,0,.578.578h1.676A.578.578,0,0,1,207.261,251.531Z" transform="translate(-205.585 -246.311)" fill="#bb5d4c"/>
        </g>
        <g id="Grupo_1227014" data-name="Grupo 1227014" transform="translate(7.182 5.659)">
          <path id="Trazado_1058768" data-name="Trazado 1058768" d="M92.17,312.312H84.879a1.161,1.161,0,0,1-.176-.015v3.515c.065,0,.131-.008.2-.008h7.248c.066,0,.132,0,.2.008V312.3A1.153,1.153,0,0,1,92.17,312.312Z" transform="translate(-84.703 -299.324)" fill="#883f2e"/>
          <path id="Trazado_1058769" data-name="Trazado 1058769" d="M84.879,312.312a1.161,1.161,0,0,1-.176-.015v3.515c.065,0,.131-.008.2-.008h2.713v-3.492H84.879Z" transform="translate(-84.703 -299.324)" fill="#6d3326"/>
          <path id="Trazado_1058770" data-name="Trazado 1058770" d="M84.879,203.579H92.17a1.161,1.161,0,0,1,.176.015v-3.515c-.065,0-.131.008-.2.008H84.9c-.066,0-.132,0-.2-.008v3.515A1.162,1.162,0,0,1,84.879,203.579Z" transform="translate(-84.703 -200.079)" fill="#883f2e"/>
          <path id="Trazado_1058771" data-name="Trazado 1058771" d="M84.879,203.578h2.735v-3.492H84.9c-.066,0-.132,0-.2-.008v3.515A1.173,1.173,0,0,1,84.879,203.578Z" transform="translate(-84.703 -200.078)" fill="#6d3326"/>
        </g>
        <g id="Grupo_1227015" data-name="Grupo 1227015" transform="translate(6.202 9.159)">
          <path id="Trazado_1058772" data-name="Trazado 1058772" d="M85.828,231.508v7.176a1.156,1.156,0,0,1-1.156,1.156H77.381a1.156,1.156,0,0,1-1.156-1.156v-7.176a1.156,1.156,0,0,1,1.156-1.156h7.291A1.156,1.156,0,0,1,85.828,231.508Z" transform="translate(-76.225 -230.352)" fill="#ca6e59"/>
        </g>
        <g id="Grupo_1227016" data-name="Grupo 1227016" transform="translate(6.202 9.159)">
          <path id="Trazado_1058773" data-name="Trazado 1058773" d="M80.13,238.684v-7.176a1.156,1.156,0,0,1,1.156-1.156h-3.9a1.156,1.156,0,0,0-1.156,1.156v7.176a1.156,1.156,0,0,0,1.156,1.156h3.9A1.156,1.156,0,0,1,80.13,238.684Z" transform="translate(-76.225 -230.352)" fill="#bb5d4c"/>
        </g>
        <g id="Grupo_1227019" data-name="Grupo 1227019" transform="translate(0 32.55)">
          <path id="Trazado_1058774" data-name="Trazado 1058774" d="M58.123,436.26a1.182,1.182,0,0,0,.006-.119v-2.3a1.156,1.156,0,0,0-1.156-1.156H41.351a1.156,1.156,0,0,0-1.156,1.156v2.3a1.181,1.181,0,0,0,.006.119Z" transform="translate(-38.158 -432.685)" fill="#ca6e59"/>
          <path id="Trazado_1058775" data-name="Trazado 1058775" d="M44.109,436.26a1.18,1.18,0,0,1-.006-.119v-2.3a1.156,1.156,0,0,1,1.156-1.156H41.351a1.156,1.156,0,0,0-1.156,1.156v2.3a1.181,1.181,0,0,0,.006.119Z" transform="translate(-38.158 -432.685)" fill="#bb5d4c"/>
          <g id="Grupo_1227017" data-name="Grupo 1227017" transform="translate(0 3.459)">
            <path id="Trazado_1058776" data-name="Trazado 1058776" d="M44.585,467.451H23.156a.578.578,0,0,1-.578-.578v-3.109a1.156,1.156,0,0,1,1.156-1.156h19.7a1.156,1.156,0,0,1,1.156,1.156Z" transform="translate(-22.578 -462.608)" fill="#883f2e"/>
          </g>
          <g id="Grupo_1227018" data-name="Grupo 1227018" transform="translate(0 3.459)">
            <path id="Trazado_1058777" data-name="Trazado 1058777" d="M26.442,466.873v-3.109a1.156,1.156,0,0,1,1.156-1.156H23.734a1.156,1.156,0,0,0-1.156,1.156v3.109a.578.578,0,0,0,.578.578H27.02A.578.578,0,0,1,26.442,466.873Z" transform="translate(-22.578 -462.608)" fill="#6d3326"/>
          </g>
        </g>
        <g id="Grupo_1227024" data-name="Grupo 1227024" transform="translate(4.546)">
          <g id="Grupo_1227020" data-name="Grupo 1227020" transform="translate(0 22.139)">
            <path id="Trazado_1058778" data-name="Trazado 1058778" d="M74.819,345.466a2.833,2.833,0,0,1-2.833,2.833H64.738a2.833,2.833,0,0,1,0-5.667h7.248A2.833,2.833,0,0,1,74.819,345.466Z" transform="translate(-61.905 -342.633)" fill="#ca6e59"/>
          </g>
          <g id="Grupo_1227021" data-name="Grupo 1227021" transform="translate(0 22.139)">
            <path id="Trazado_1058779" data-name="Trazado 1058779" d="M65.764,345.466a2.833,2.833,0,0,1,2.833-2.833H64.738a2.833,2.833,0,0,0,0,5.667H68.6A2.833,2.833,0,0,1,65.764,345.466Z" transform="translate(-61.905 -342.633)" fill="#bb5d4c"/>
          </g>
          <g id="Grupo_1227022" data-name="Grupo 1227022" transform="translate(0)">
            <path id="Trazado_1058780" data-name="Trazado 1058780" d="M74.819,153.961a2.833,2.833,0,0,1-2.833,2.833H64.738a2.833,2.833,0,0,1,0-5.667h7.248A2.833,2.833,0,0,1,74.819,153.961Z" transform="translate(-61.905 -151.128)" fill="#ca6e59"/>
          </g>
          <g id="Grupo_1227023" data-name="Grupo 1227023">
            <path id="Trazado_1058781" data-name="Trazado 1058781" d="M65.764,153.961a2.833,2.833,0,0,1,2.833-2.833H64.738a2.833,2.833,0,0,0,0,5.667H68.6A2.833,2.833,0,0,1,65.764,153.961Z" transform="translate(-61.905 -151.128)" fill="#bb5d4c"/>
          </g>
        </g>
      </g>
      <g id="Grupo_1227028" data-name="Grupo 1227028" transform="translate(37.655 6.255)">
        <g id="Grupo_1227026" data-name="Grupo 1227026" transform="translate(0)">
          <circle id="Elipse_13559" data-name="Elipse 13559" cx="8.112" cy="8.112" r="8.112" fill="#4fc123"/>
        </g>
        <g id="Grupo_1227027" data-name="Grupo 1227027" transform="translate(0)">
          <path id="Trazado_1058782" data-name="Trazado 1058782" d="M214.26,62.219a8.114,8.114,0,0,1,6.168-7.876,8.112,8.112,0,1,0,0,15.752A8.114,8.114,0,0,1,214.26,62.219Z" transform="translate(-210.372 -54.107)" fill="#47a920"/>
        </g>
      </g>
      <g id="Grupo_1227029" data-name="Grupo 1227029" transform="translate(15.078 0)">
        <path id="Trazado_1058783" data-name="Trazado 1058783" d="M67.016,27.608h-1.4V12.6a.867.867,0,0,0-.894-.867.891.891,0,0,0-.84.9v14.97H58.074a.867.867,0,0,0,0,1.734h8.941a2.032,2.032,0,0,1,0,4.064H49.3V29.342h4.726a.867.867,0,0,0,0-1.734H49.094a1.528,1.528,0,0,0-1.4.922H41.559a1.446,1.446,0,0,0-1.346-.922H37.68a1.446,1.446,0,0,0-1.346.922H32.617v-.744a2.022,2.022,0,0,0-.98-1.73V23.848A3.7,3.7,0,0,0,30.573,16.6H27.648V1.734H63.885V8.555a.867.867,0,0,0,.894.867.891.891,0,0,0,.84-.9V1.445A1.445,1.445,0,0,0,64.174,0H27.359a1.445,1.445,0,0,0-1.445,1.445V16.6h-2.59a3.7,3.7,0,0,0-1.065,7.244v2.208a2.022,2.022,0,0,0-.98,1.73v7.176a2.022,2.022,0,0,0,.98,1.73V38.9a3.7,3.7,0,0,0,1.065,7.244h2.59v3.01H19.138a2.025,2.025,0,0,0-2.023,2.023v1.436H17.1a2.025,2.025,0,0,0-2.023,2.023v3.109a1.447,1.447,0,0,0,1.445,1.445H64.174a1.445,1.445,0,0,0,1.445-1.445V35.14h1.4a3.766,3.766,0,0,0,0-7.532ZM41.659,30.264h5.909v2.219H41.659Zm-3.69-.922h1.956v4.064H37.969Zm-5.351.922h3.617v2.219H32.617ZM21.359,20.3a1.968,1.968,0,0,1,1.966-1.966h7.248a1.966,1.966,0,1,1,0,3.932H23.325A1.968,1.968,0,0,1,21.359,20.3ZM23.3,35.251a.289.289,0,0,1-.289-.289V27.786A.289.289,0,0,1,23.3,27.5h7.291a.289.289,0,0,1,.289.289v7.176a.289.289,0,0,1-.289.289Zm6.6,1.734v1.758H23.994V36.985ZM23.994,25.763V24H29.9v1.758ZM23.325,44.41a1.966,1.966,0,1,1,0-3.932h7.248a1.966,1.966,0,1,1,0,3.932ZM37.085,57.456H16.812v-2.82a.289.289,0,0,1,.289-.289h5.367a.867.867,0,0,0,0-1.734H18.849V51.177a.289.289,0,0,1,.289-.289H34.76a.289.289,0,0,1,.289.289v1.436H26.514a.867.867,0,1,0,0,1.734H36.8a.289.289,0,0,1,.289.289Zm26.8,0H38.819v-2.82A2.025,2.025,0,0,0,36.8,52.613h-.014V51.177a2.025,2.025,0,0,0-2.023-2.023H27.648v-3.01h2.924A3.7,3.7,0,0,0,31.637,38.9V36.692a2.022,2.022,0,0,0,.98-1.73v-.744h3.716a1.446,1.446,0,0,0,1.346.922h2.534a1.446,1.446,0,0,0,1.346-.922h6.133a1.528,1.528,0,0,0,1.4.922H63.885V57.456Z" transform="translate(-15.078 0)"/>
        <path id="Trazado_1058784" data-name="Trazado 1058784" d="M202.872,55.586a8.979,8.979,0,1,0,8.979-8.979A8.989,8.989,0,0,0,202.872,55.586Zm16.224,0a7.245,7.245,0,1,1-7.245-7.245A7.253,7.253,0,0,1,219.1,55.586Z" transform="translate(-181.162 -41.219)"/>
        <path id="Trazado_1058785" data-name="Trazado 1058785" d="M247.823,102.88a.867.867,0,0,0-1.226,1.226l2.667,2.667a.867.867,0,0,0,1.226,0l4.134-4.134a.867.867,0,1,0-1.226-1.226l-3.521,3.521Z" transform="translate(-219.608 -89.465)"/>
        <path id="Trazado_1058786" data-name="Trazado 1058786" d="M243.681,327.936a.867.867,0,0,0,.867.867h15.945a.867.867,0,1,0,0-1.734H244.548A.867.867,0,0,0,243.681,327.936Z" transform="translate(-217.253 -289.258)"/>
        <path id="Trazado_1058787" data-name="Trazado 1058787" d="M319.588,363.546h-8.221a.867.867,0,0,0,0,1.734h8.221a.867.867,0,0,0,0-1.734Z" transform="translate(-276.348 -321.518)"/>
        <path id="Trazado_1058788" data-name="Trazado 1058788" d="M244.548,365.28h4.719a.867.867,0,0,0,0-1.734h-4.719a.867.867,0,0,0,0,1.734Z" transform="translate(-217.253 -321.518)"/>
        <path id="Trazado_1058789" data-name="Trazado 1058789" d="M260.493,400.023H244.547a.867.867,0,1,0,0,1.734h15.945a.867.867,0,0,0,0-1.734Z" transform="translate(-217.252 -353.778)"/>
        <path id="Trazado_1058790" data-name="Trazado 1058790" d="M350.542,436.5h-4.175a.867.867,0,1,0,0,1.734h4.175a.867.867,0,1,0,0-1.734Z" transform="translate(-307.301 -386.038)"/>
        <path id="Trazado_1058791" data-name="Trazado 1058791" d="M253.66,436.5h-9.112a.867.867,0,1,0,0,1.734h9.112a.867.867,0,0,0,0-1.734Z" transform="translate(-217.253 -386.038)"/>
      </g>
    </g>
  </g>
</svg>
