<svg xmlns="http://www.w3.org/2000/svg" xmlns:xlink="http://www.w3.org/1999/xlink" width="113" height="113" viewBox="0 0 113 113">
  <defs>
    <filter id="Trazado_982547" x="0" y="-0.001" width="113" height="113" filterUnits="userSpaceOnUse">
      <feOffset dy="3" input="SourceAlpha"/>
      <feGaussianBlur stdDeviation="3" result="blur"/>
      <feFlood flood-opacity="0.161"/>
      <feComposite operator="in" in2="blur"/>
      <feComposite in="SourceGraphic"/>
    </filter>
  </defs>
  <g id="Grupo_1227033" data-name="Grupo 1227033" transform="translate(-1216.116 -10289.803)">
    <g id="Grupo_1226494" data-name="Grupo 1226494" transform="translate(-0.429 325.326)">
      <g id="Grupo_1225531" data-name="Grupo 1225531" transform="translate(0.313 8669.134)">
        <g id="Grupo_1225179" data-name="Grupo 1225179" transform="translate(0 -3445.654)">
          <g id="Grupo_1224650" data-name="Grupo 1224650" transform="translate(0 1927)">
            <g id="Grupo_1224294" data-name="Grupo 1224294" transform="translate(0.723 859.245)">
              <g id="Grupo_1224094" data-name="Grupo 1224094" transform="translate(541.51 -2620.317)">
                <g id="Grupo_1223184" data-name="Grupo 1223184" transform="translate(683 4581.069)">
                  <g id="Grupo_1211216" data-name="Grupo 1211216" transform="translate(0)">
                    <g id="Grupo_1210737" data-name="Grupo 1210737">
                      <g id="Grupo_1210537" data-name="Grupo 1210537">
                        <g id="Grupo_1164202" data-name="Grupo 1164202">
                          <g id="Grupo_1158168" data-name="Grupo 1158168">
                            <g id="Grupo_1152576" data-name="Grupo 1152576">
                              <g id="Grupo_1148633" data-name="Grupo 1148633">
                                <g id="Grupo_1148525" data-name="Grupo 1148525">
                                  <g transform="matrix(1, 0, 0, 1, -9, -6)" filter="url(#Trazado_982547)">
                                    <g id="Trazado_982547-2" data-name="Trazado 982547" transform="translate(9 6)" fill="#fdf6e4">
                                      <path d="M 47.49999618530273 93.5 C 41.28936767578125 93.5 35.26533126831055 92.28396606445312 29.59518241882324 89.88570404052734 C 24.11771583557129 87.56893157958984 19.19812965393066 84.251953125 14.97308921813965 80.02690124511719 C 10.74803638458252 75.80186462402344 7.431062698364258 70.88227844238281 5.114289283752441 65.40480804443359 C 2.716022968292236 59.73466110229492 1.499996185302734 53.71062469482422 1.499996185302734 47.49999618530273 C 1.499996185302734 41.28936767578125 2.716022968292236 35.26533126831055 5.114289283752441 29.59518241882324 C 7.431062698364258 24.11771583557129 10.74803638458252 19.19812965393066 14.97308921813965 14.97308921813965 C 19.19812965393066 10.74803638458252 24.11771583557129 7.431062698364258 29.59518241882324 5.114289283752441 C 35.26533126831055 2.716022968292236 41.28936767578125 1.499996185302734 47.49999618530273 1.499996185302734 C 53.71062469482422 1.499996185302734 59.73466110229492 2.716022968292236 65.40480804443359 5.114289283752441 C 70.88227844238281 7.431062698364258 75.80186462402344 10.74803638458252 80.02690124511719 14.97308921813965 C 84.251953125 19.19812965393066 87.56893157958984 24.11771583557129 89.88570404052734 29.59518241882324 C 92.28396606445312 35.26533126831055 93.5 41.28936767578125 93.5 47.49999618530273 C 93.5 53.71062469482422 92.28396606445312 59.73466110229492 89.88570404052734 65.40480804443359 C 87.56893157958984 70.88227844238281 84.251953125 75.80186462402344 80.02690124511719 80.02690124511719 C 75.80186462402344 84.251953125 70.88227844238281 87.56893157958984 65.40480804443359 89.88570404052734 C 59.73466110229492 92.28396606445312 53.71062469482422 93.5 47.49999618530273 93.5 Z" stroke="none"/>
                                      <path d="M 47.49999618530273 2.999992370605469 C 41.4912109375 2.999992370605469 35.66376495361328 4.1761474609375 30.17950439453125 6.495796203613281 C 24.88084411621094 8.736953735351562 20.12152099609375 11.94598388671875 16.03375244140625 16.03375244140625 C 11.94598388671875 20.12152099609375 8.736953735351562 24.88084411621094 6.495796203613281 30.17950439453125 C 4.1761474609375 35.66376495361328 2.999992370605469 41.4912109375 2.999992370605469 47.49999618530273 C 2.999992370605469 53.50878143310547 4.1761474609375 59.33622741699219 6.495796203613281 64.82048797607422 C 8.736953735351562 70.11914825439453 11.94598388671875 74.87847137451172 16.03375244140625 78.96623992919922 C 20.12152099609375 83.05400848388672 24.88084411621094 86.26304626464844 30.17950439453125 88.50419616699219 C 35.66376495361328 90.82384490966797 41.4912109375 92 47.49999618530273 92 C 53.50878143310547 92 59.33622741699219 90.82384490966797 64.82048797607422 88.50419616699219 C 70.11914825439453 86.26304626464844 74.87847137451172 83.05400848388672 78.96623992919922 78.96623992919922 C 83.05400848388672 74.87847137451172 86.26304626464844 70.11914825439453 88.50419616699219 64.82048797607422 C 90.82384490966797 59.33622741699219 92 53.50878143310547 92 47.49999618530273 C 92 41.4912109375 90.82384490966797 35.66376495361328 88.50419616699219 30.17950439453125 C 86.26304626464844 24.88084411621094 83.05400848388672 20.12152099609375 78.96623992919922 16.03375244140625 C 74.87847137451172 11.94598388671875 70.11914825439453 8.736953735351562 64.82048797607422 6.495796203613281 C 59.33622741699219 4.1761474609375 53.50878143310547 2.999992370605469 47.49999618530273 2.999992370605469 M 47.49999618530273 -7.62939453125e-06 C 73.7335205078125 -7.62939453125e-06 95 21.26647186279297 95 47.49999618530273 C 95 73.7335205078125 73.7335205078125 95 47.49999618530273 95 C 21.26647186279297 95 -7.62939453125e-06 73.7335205078125 -7.62939453125e-06 47.49999618530273 C -7.62939453125e-06 21.26647186279297 21.26647186279297 -7.62939453125e-06 47.49999618530273 -7.62939453125e-06 Z" stroke="none" fill="#f5b104"/>
                                    </g>
                                  </g>
                                </g>
                              </g>
                            </g>
                          </g>
                        </g>
                      </g>
                    </g>
                  </g>
                </g>
              </g>
            </g>
          </g>
        </g>
      </g>
    </g>
    <g id="disminucion" transform="translate(1167.225 10305.871)">
      <circle id="Elipse_13560" data-name="Elipse 13560" cx="24.61" cy="24.61" r="24.61" transform="translate(81.282 24.545)" fill="#f6e266"/>
      <path id="Trazado_1058792" data-name="Trazado 1058792" d="M245.418,167.87q-.914,0-1.812.067a24.61,24.61,0,0,1,0,49.086q.9.065,1.812.067a24.61,24.61,0,1,0,0-49.219Z" transform="translate(-139.526 -143.325)" fill="#ecbe6b"/>
      <path id="Trazado_1058793" data-name="Trazado 1058793" d="M215.309,18.94,206.9,27.259l-8.408-8.318H202.2a.876.876,0,0,0,.876-.876V7.5h7.653V18.064a.876.876,0,0,0,.876.876h3.705Z" transform="translate(-101.008 -6.403)" fill="#dd636e"/>
      <g id="Grupo_1227031" data-name="Grupo 1227031" transform="translate(104.375 1.097)">
        <path id="Trazado_1058794" data-name="Trazado 1058794" d="M261.414,18.064V7.5h3.035V18.064a.876.876,0,0,0,.876.876H262.29A.877.877,0,0,1,261.414,18.064Z" transform="translate(-259.105 -7.5)" fill="#c63d4f"/>
        <path id="Trazado_1058795" data-name="Trazado 1058795" d="M247.139,94.065l-1.518-1.5,6.891-6.817h3.035Z" transform="translate(-245.621 -74.305)" fill="#c63d4f"/>
      </g>
      <g id="Grupo_1227032" data-name="Grupo 1227032" transform="translate(80.186 0)">
        <path id="Trazado_1058796" data-name="Trazado 1058796" d="M143.741,243.151a19.224,19.224,0,1,0-19.225-19.224A19.246,19.246,0,0,0,143.741,243.151Zm0-36.256a17.031,17.031,0,1,1-17.031,17.031A17.051,17.051,0,0,1,143.741,206.9Z" transform="translate(-118.034 -174.772)"/>
        <path id="Trazado_1058797" data-name="Trazado 1058797" d="M218.765,276.344a6.905,6.905,0,0,0,3.82,1.322v1.308a1.1,1.1,0,0,0,2.193,0v-1.393a5.6,5.6,0,0,0,4.448-4.607,4.917,4.917,0,0,0-3.386-5.626c-.349-.123-.706-.253-1.062-.388v-5.653a6.281,6.281,0,0,1,2.288.742,1.1,1.1,0,0,0,1.166-1.858,8.377,8.377,0,0,0-3.453-1.091v-1.124a1.1,1.1,0,1,0-2.193,0v1.254c-.187.04-.376.087-.567.145a4.651,4.651,0,0,0-3.185,3.649,4.088,4.088,0,0,0,1.336,4.028,11.184,11.184,0,0,0,2.416,1.379v7.039a4.787,4.787,0,0,1-2.62-.962,1.1,1.1,0,1,0-1.2,1.835Zm2.758-11.017a1.923,1.923,0,0,1-.534-1.9,2.493,2.493,0,0,1,1.6-1.932V266A7.211,7.211,0,0,1,221.523,265.327Zm3.587,4.089a2.755,2.755,0,0,1,1.954,3.195,3.455,3.455,0,0,1-2.285,2.706V269.3Z" transform="translate(-198.079 -219.321)"/>
        <path id="Trazado_1058798" data-name="Trazado 1058798" d="M315.453,97.142a1.1,1.1,0,0,0,.172,1.541l3.158,2.523a1.1,1.1,0,0,0,1.369,0l3.158-2.523a1.1,1.1,0,1,0-1.369-1.713l-1.377,1.1V91.1a1.1,1.1,0,0,0-2.193,0V98.07l-1.377-1.1A1.1,1.1,0,0,0,315.453,97.142Z" transform="translate(-280.849 -76.841)"/>
        <path id="Trazado_1058799" data-name="Trazado 1058799" d="M139.005,98.684l3.158,2.523a1.1,1.1,0,0,0,1.369,0l3.158-2.523a1.1,1.1,0,1,0-1.369-1.713l-1.377,1.1V91.1a1.1,1.1,0,1,0-2.193,0V98.07l-1.377-1.1a1.1,1.1,0,0,0-1.369,1.713Z" transform="translate(-130.053 -76.841)"/>
        <path id="Trazado_1058800" data-name="Trazado 1058800" d="M105.892,160.37A25.7,25.7,0,0,0,87.18,203.7a1.1,1.1,0,0,0,1.6-1.5,23.485,23.485,0,1,1,3.138,2.788,1.1,1.1,0,1,0-1.305,1.762,25.706,25.706,0,1,0,15.283-46.376Z" transform="translate(-80.186 -136.922)"/>
        <path id="Trazado_1058801" data-name="Trazado 1058801" d="M229.713,17.321a1.1,1.1,0,0,0,.008,1.551l2.793,2.763a1.1,1.1,0,0,0,1.542,0l8.408-8.319a1.1,1.1,0,0,0-.771-1.876h-3.485V1.1a1.1,1.1,0,1,0-2.193,0V11.661a1.975,1.975,0,0,0,1.973,1.973h1.038l-5.741,5.679-2.022-2a1.1,1.1,0,0,0-1.551.008Z" transform="translate(-207.58 0)"/>
        <path id="Trazado_1058802" data-name="Trazado 1058802" d="M193.815,15.788a1.1,1.1,0,1,0,1.542-1.559l-.6-.6h1.038a1.975,1.975,0,0,0,1.973-1.973V1.1a1.1,1.1,0,1,0-2.193,0V11.44h-3.485a1.1,1.1,0,0,0-.771,1.876Z" transform="translate(-174.79 0)"/>
      </g>
    </g>
  </g>
</svg>
