<svg xmlns="http://www.w3.org/2000/svg" xmlns:xlink="http://www.w3.org/1999/xlink" width="103" height="103" viewBox="0 0 103 103">
  <defs>
    <filter id="Trazado_982547" x="0" y="0" width="103" height="103" filterUnits="userSpaceOnUse">
      <feOffset dy="3" input="SourceAlpha"/>
      <feGaussianBlur stdDeviation="3" result="blur"/>
      <feFlood flood-opacity="0.161"/>
      <feComposite operator="in" in2="blur"/>
      <feComposite in="SourceGraphic"/>
    </filter>
  </defs>
  <g id="Grupo_1226941" data-name="Grupo 1226941" transform="translate(-611 -1404)">
    <g id="Grupo_1226318" data-name="Grupo 1226318" transform="translate(620 1410)">
      <g id="Grupo_1225641" data-name="Grupo 1225641">
        <g id="Grupo_1225483" data-name="Grupo 1225483">
          <g id="Grupo_1210960" data-name="Grupo 1210960">
            <g id="Grupo_1210290" data-name="Grupo 1210290">
              <g id="Grupo_1207485" data-name="Grupo 1207485">
                <g id="Grupo_1207313" data-name="Grupo 1207313">
                  <g id="Grupo_1202212" data-name="Grupo 1202212">
                    <g id="Grupo_1174813" data-name="Grupo 1174813">
                      <g id="Grupo_1201680" data-name="Grupo 1201680">
                        <g id="Grupo_1201330" data-name="Grupo 1201330">
                          <g id="Grupo_1172010" data-name="Grupo 1172010">
                            <g id="Grupo_1171046" data-name="Grupo 1171046">
                              <g id="Grupo_1148525" data-name="Grupo 1148525">
                                <g transform="matrix(1, 0, 0, 1, -9, -6)" filter="url(#Trazado_982547)">
                                  <g id="Trazado_982547-2" data-name="Trazado 982547" transform="translate(9 6)" fill="#fdf6e4">
                                    <path d="M 42.5 83.5 C 36.96437835693359 83.5 31.59512901306152 82.41617584228516 26.54141235351562 80.27863311767578 C 21.65934181213379 78.21369171142578 17.27447128295898 75.25723266601562 13.50862312316895 71.49137878417969 C 9.742764472961426 67.72553253173828 6.786305904388428 63.34066009521484 4.721364498138428 58.45858764648438 C 2.583823442459106 53.40486907958984 1.5 48.03562164306641 1.5 42.5 C 1.5 36.96437835693359 2.583823442459106 31.59512901306152 4.721364498138428 26.54141235351562 C 6.786305904388428 21.65934181213379 9.742764472961426 17.27448272705078 13.50862312316895 13.50862312316895 C 17.27447128295898 9.742776870727539 21.65934181213379 6.786305904388428 26.54141235351562 4.721364498138428 C 31.59512901306152 2.583823442459106 36.96437835693359 1.5 42.5 1.5 C 48.03562164306641 1.5 53.40486907958984 2.583823442459106 58.45858764648438 4.721364498138428 C 63.34066009521484 6.786305904388428 67.72553253173828 9.742776870727539 71.49137878417969 13.50862312316895 C 75.25723266601562 17.27448272705078 78.21369171142578 21.65934181213379 80.27863311767578 26.54141235351562 C 82.41617584228516 31.59512901306152 83.5 36.96437835693359 83.5 42.5 C 83.5 48.03562164306641 82.41617584228516 53.40486907958984 80.27863311767578 58.45858764648438 C 78.21369171142578 63.34066009521484 75.25723266601562 67.72553253173828 71.49137878417969 71.49137878417969 C 67.72553253173828 75.25723266601562 63.34066009521484 78.21369171142578 58.45858764648438 80.27863311767578 C 53.40486907958984 82.41617584228516 48.03562164306641 83.5 42.5 83.5 Z" stroke="none"/>
                                    <path d="M 42.5 3 C 37.16621398925781 3 31.99356079101562 4.043960571289062 27.125732421875 6.102882385253906 C 22.42246627807617 8.092185974121094 18.19785308837891 10.94070434570312 14.56928253173828 14.56928253173828 C 10.94070434570312 18.19785308837891 8.092185974121094 22.42246627807617 6.102882385253906 27.125732421875 C 4.043960571289062 31.99356079101562 3 37.16621398925781 3 42.5 C 3 47.83378601074219 4.043960571289062 53.00643920898438 6.102882385253906 57.874267578125 C 8.092185974121094 62.57753372192383 10.94070434570312 66.80214691162109 14.56928253173828 70.43071746826172 C 18.19785308837891 74.05929565429688 22.42246627807617 76.90781402587891 27.125732421875 78.89711761474609 C 31.99356079101562 80.95603942871094 37.16621398925781 82 42.5 82 C 47.83378601074219 82 53.00643920898438 80.95603942871094 57.874267578125 78.89711761474609 C 62.57753372192383 76.90781402587891 66.80214691162109 74.05929565429688 70.43071746826172 70.43071746826172 C 74.05929565429688 66.80214691162109 76.90781402587891 62.57753372192383 78.89711761474609 57.874267578125 C 80.95603942871094 53.00643920898438 82 47.83378601074219 82 42.5 C 82 37.16621398925781 80.95603942871094 31.99356079101562 78.89711761474609 27.125732421875 C 76.90781402587891 22.42246627807617 74.05929565429688 18.19785308837891 70.43071746826172 14.56928253173828 C 66.80214691162109 10.94070434570312 62.57753372192383 8.092185974121094 57.874267578125 6.102882385253906 C 53.00643920898438 4.043960571289062 47.83378601074219 3 42.5 3 M 42.5 0 C 65.97210693359375 0 85 19.02789306640625 85 42.5 C 85 65.97210693359375 65.97210693359375 85 42.5 85 C 19.02789306640625 85 0 65.97210693359375 0 42.5 C 0 19.02789306640625 19.02789306640625 0 42.5 0 Z" stroke="none" fill="#856002"/>
                                  </g>
                                </g>
                              </g>
                            </g>
                          </g>
                        </g>
                      </g>
                    </g>
                  </g>
                </g>
              </g>
            </g>
          </g>
        </g>
      </g>
    </g>
    <g id="identificion-de-toque" transform="translate(635.349 1425.348)">
      <g id="Grupo_1226939" data-name="Grupo 1226939" transform="translate(0.795 0.796)">
        <circle id="Elipse_13545" data-name="Elipse 13545" cx="7.805" cy="7.805" r="7.805" transform="translate(7.865)" fill="#e490d0"/>
        <path id="Trazado_1058526" data-name="Trazado 1058526" d="M0,0H23.01V9.66H0Z" transform="translate(37.404 52.712) rotate(180)" fill="#ffddce"/>
        <path id="Trazado_1058527" data-name="Trazado 1058527" d="M0,0H6.733V9.66H0Z" transform="translate(21.127 52.712) rotate(180)" fill="#ffcbbe"/>
        <path id="Trazado_1058528" data-name="Trazado 1058528" d="M46.51,59.682a3.867,3.867,0,0,0-3.97,3.865V62.128a3.867,3.867,0,1,0-7.733,0V60.294a3.866,3.866,0,1,0-7.732,0V45.156a3.867,3.867,0,0,0-7.733,0V66.308h0V70.52l-4.111-4.111a4.529,4.529,0,1,0-6.4,6.406l9.662,9.66a11.415,11.415,0,0,0,8.445,3.349H38.823A11.451,11.451,0,0,0,50.274,74.372V63.61A3.907,3.907,0,0,0,46.51,59.682Z" transform="translate(-7.5 -37.705)" fill="#ffddce"/>
        <g id="Grupo_1226938" data-name="Grupo 1226938" transform="translate(11.843 3.585)">
          <path id="Trazado_1058529" data-name="Trazado 1058529" d="M124.342,41.522a3.872,3.872,0,0,0-2.553,3.638V71.218a6.51,6.51,0,0,0-1.517.418l-1.111-1.111V45.161a3.871,3.871,0,0,1,5.181-3.638Z" transform="translate(-119.161 -41.294)" fill="#ffcbbe"/>
          <path id="Trazado_1058530" data-name="Trazado 1058530" d="M197.26,184.25a3.872,3.872,0,0,0-2.553,3.638v1.718a2.052,2.052,0,0,1-2.052,2.052h-.576v-3.77a3.871,3.871,0,0,1,5.181-3.638Z" transform="translate(-184.345 -168.884)" fill="#ffcbbe"/>
          <path id="Trazado_1058531" data-name="Trazado 1058531" d="M270.153,201.539a3.872,3.872,0,0,0-2.553,3.638,1.937,1.937,0,0,1-1.937,1.937h-.691v-1.937a3.871,3.871,0,0,1,5.181-3.638Z" transform="translate(-249.507 -184.34)" fill="#ffcbbe"/>
          <path id="Trazado_1058532" data-name="Trazado 1058532" d="M343.066,214.92a3.876,3.876,0,0,0-2.457,2.78l0,.008a1.712,1.712,0,0,1-1.67,1.367h-1.051v-.517a3.871,3.871,0,0,1,5.181-3.638Z" transform="translate(-314.687 -196.302)" fill="#ffcbbe"/>
        </g>
        <path id="Trazado_1058533" data-name="Trazado 1058533" d="M27.571,273.6a6.542,6.542,0,0,0-7.117-1.424l-1.112-1.112-4.111-4.111a4.529,4.529,0,1,0-6.4,6.405l9.662,9.66a11.415,11.415,0,0,0,8.445,3.349h0" transform="translate(-7.5 -238.254)" fill="#ffddce"/>
        <path id="Trazado_1058534" data-name="Trazado 1058534" d="M26.847,286.375a11.413,11.413,0,0,1-8.356-3.35l-9.661-9.661a4.528,4.528,0,0,1,5.012-7.353,4.526,4.526,0,0,0-1.394,7.353l9.661,9.661a15.92,15.92,0,0,0,4.738,3.35Z" transform="translate(-7.503 -238.256)" fill="#ffcbbe"/>
        <path id="Trazado_1058535" data-name="Trazado 1058535" d="M322.694,170.5h-13.9a3.618,3.618,0,0,1-3.618-3.618V148.511a3.618,3.618,0,0,1,3.618-3.618h13.9a3.618,3.618,0,0,1,3.618,3.618v18.374A3.618,3.618,0,0,1,322.694,170.5Z" transform="translate(-273.601 -130.321)" fill="#f9f6f9"/>
        <path id="Trazado_1058536" data-name="Trazado 1058536" d="M311.934,170.507H308.79a3.617,3.617,0,0,1-3.618-3.618V148.515a3.617,3.617,0,0,1,3.618-3.618h3.145a3.618,3.618,0,0,0-3.619,3.618v18.375A3.618,3.618,0,0,0,311.934,170.507Z" transform="translate(-273.601 -130.324)" fill="#dddaec"/>
      </g>
      <g id="Grupo_1226940" data-name="Grupo 1226940" transform="translate(0 0.001)">
        <path id="Trazado_1058537" data-name="Trazado 1058537" d="M49.889,14.572h-13.9a4.419,4.419,0,0,0-4.414,4.414v1.588a4.65,4.65,0,0,0-2.9,1.357,4.658,4.658,0,0,0-7.5-2.052V15.8A8.6,8.6,0,0,0,16.466,0a8.541,8.541,0,0,0-4.852,1.5.8.8,0,1,0,.9,1.312A7.01,7.01,0,0,1,23.476,8.6a7.039,7.039,0,0,1-2.31,5.2V8.247a4.662,4.662,0,1,0-9.325,0v5.622a7.01,7.01,0,0,1-1.3-9.012A.8.8,0,0,0,9.2,4a8.6,8.6,0,0,0,2.644,11.85V31.69L9.09,28.938a5.324,5.324,0,1,0-7.53,7.53l9.662,9.661a12.22,12.22,0,0,0,3.173,2.292v5.087a.8.8,0,0,0,1.591,0V47.918a.8.8,0,0,0-.469-.726A10.629,10.629,0,0,1,12.347,45L2.685,35.343a3.733,3.733,0,1,1,5.28-5.28l4.111,4.111a.8.8,0,0,0,1.358-.563V8.247a3.071,3.071,0,0,1,6.143,0V23.38s0,0,0,.005v3.77a.8.8,0,0,0,1.591,0V23.39s0,0,0-.005a3.07,3.07,0,1,1,6.141,0v1.834s0,0,0,0v1.932a.8.8,0,0,0,1.591,0V25.216a3.075,3.075,0,0,1,2.673-3.042V37.361a4.419,4.419,0,0,0,4.414,4.413h5.877a10.7,10.7,0,0,1-4.086,4.718.8.8,0,0,0-.372.674v6.341a.8.8,0,0,0,1.591,0V47.6a12.284,12.284,0,0,0,4.587-5.822H48.3a.8.8,0,1,0,0-1.591H35.985a2.826,2.826,0,0,1-2.823-2.822V18.986a2.826,2.826,0,0,1,2.823-2.823h13.9a2.826,2.826,0,0,1,2.822,2.823V37.361A2.839,2.839,0,0,1,51.1,39.912a.8.8,0,1,0,.684,1.436A4.437,4.437,0,0,0,54.3,37.361V18.986a4.419,4.419,0,0,0-4.413-4.414Z" transform="translate(0 -0.001)"/>
        <path id="Trazado_1058538" data-name="Trazado 1058538" d="M359.175,181.836a6.193,6.193,0,0,0-5.3,2.96.8.8,0,1,0,1.353.836,4.633,4.633,0,0,1,8.579,2.429v2.916a.8.8,0,1,0,1.591,0v-2.916a6.232,6.232,0,0,0-6.225-6.225Z" transform="translate(-316.239 -162.551)"/>
        <path id="Trazado_1058539" data-name="Trazado 1058539" d="M346.937,233.03a.8.8,0,0,0-.8.8v5.324a6.224,6.224,0,0,0,11.571,3.186.8.8,0,1,0-1.365-.816,4.633,4.633,0,0,1-8.615-2.37v-5.324A.8.8,0,0,0,346.937,233.03Z" transform="translate(-309.431 -208.315)"/>
        <path id="Trazado_1058540" data-name="Trazado 1058540" d="M374.716,206.836a3.578,3.578,0,0,0-3.574,3.574v5.324a.8.8,0,0,0,1.591,0V210.41a1.983,1.983,0,0,1,3.965,0,.8.8,0,1,0,1.591,0,3.578,3.578,0,0,0-3.574-3.574Z" transform="translate(-331.779 -184.899)"/>
        <path id="Trazado_1058541" data-name="Trazado 1058541" d="M388.814,268.114a.8.8,0,0,0,.491,1.012,3.574,3.574,0,0,0,4.743-3.377V263.58a.8.8,0,1,0-1.591,0v2.169a1.983,1.983,0,0,1-2.63,1.874A.8.8,0,0,0,388.814,268.114Z" transform="translate(-347.537 -234.914)"/>
        <path id="Trazado_1058542" data-name="Trazado 1058542" d="M398.131,239.945a.8.8,0,0,0,.8-.8v-5.324a.8.8,0,0,0-1.591,0v5.324A.8.8,0,0,0,398.131,239.945Z" transform="translate(-355.195 -208.315)"/>
      </g>
    </g>
  </g>
</svg>
