<svg xmlns="http://www.w3.org/2000/svg" xmlns:xlink="http://www.w3.org/1999/xlink" width="103" height="103" viewBox="0 0 103 103">
  <defs>
    <filter id="Trazado_982547" x="0" y="0" width="103" height="103" filterUnits="userSpaceOnUse">
      <feOffset dy="3" input="SourceAlpha"/>
      <feGaussianBlur stdDeviation="3" result="blur"/>
      <feFlood flood-opacity="0.161"/>
      <feComposite operator="in" in2="blur"/>
      <feComposite in="SourceGraphic"/>
    </filter>
  </defs>
  <g id="Grupo_1226942" data-name="Grupo 1226942" transform="translate(-1035 -1404)">
    <g id="Grupo_1226317" data-name="Grupo 1226317" transform="translate(1044 1410)">
      <g id="Grupo_1225643" data-name="Grupo 1225643">
        <g id="Grupo_1225484" data-name="Grupo 1225484">
          <g id="Grupo_1210961" data-name="Grupo 1210961">
            <g id="Grupo_1210290" data-name="Grupo 1210290">
              <g id="Grupo_1207485" data-name="Grupo 1207485">
                <g id="Grupo_1207313" data-name="Grupo 1207313">
                  <g id="Grupo_1202212" data-name="Grupo 1202212">
                    <g id="Grupo_1174813" data-name="Grupo 1174813">
                      <g id="Grupo_1201680" data-name="Grupo 1201680">
                        <g id="Grupo_1201330" data-name="Grupo 1201330">
                          <g id="Grupo_1172010" data-name="Grupo 1172010">
                            <g id="Grupo_1171046" data-name="Grupo 1171046">
                              <g id="Grupo_1148525" data-name="Grupo 1148525">
                                <g transform="matrix(1, 0, 0, 1, -9, -6)" filter="url(#Trazado_982547)">
                                  <g id="Trazado_982547-2" data-name="Trazado 982547" transform="translate(9 6)" fill="#fdf6e4">
                                    <path d="M 42.5 83.5 C 36.96437835693359 83.5 31.59512901306152 82.41617584228516 26.54141235351562 80.27863311767578 C 21.65934181213379 78.21369171142578 17.27447128295898 75.25723266601562 13.50862312316895 71.49137878417969 C 9.742764472961426 67.72553253173828 6.786305904388428 63.34066009521484 4.721364498138428 58.45858764648438 C 2.583823442459106 53.40486907958984 1.5 48.03562164306641 1.5 42.5 C 1.5 36.96437835693359 2.583823442459106 31.59512901306152 4.721364498138428 26.54141235351562 C 6.786305904388428 21.65934181213379 9.742764472961426 17.27448272705078 13.50862312316895 13.50862312316895 C 17.27447128295898 9.742776870727539 21.65934181213379 6.786305904388428 26.54141235351562 4.721364498138428 C 31.59512901306152 2.583823442459106 36.96437835693359 1.5 42.5 1.5 C 48.03562164306641 1.5 53.40486907958984 2.583823442459106 58.45858764648438 4.721364498138428 C 63.34066009521484 6.786305904388428 67.72553253173828 9.742776870727539 71.49137878417969 13.50862312316895 C 75.25723266601562 17.27448272705078 78.21369171142578 21.65934181213379 80.27863311767578 26.54141235351562 C 82.41617584228516 31.59512901306152 83.5 36.96437835693359 83.5 42.5 C 83.5 48.03562164306641 82.41617584228516 53.40486907958984 80.27863311767578 58.45858764648438 C 78.21369171142578 63.34066009521484 75.25723266601562 67.72553253173828 71.49137878417969 71.49137878417969 C 67.72553253173828 75.25723266601562 63.34066009521484 78.21369171142578 58.45858764648438 80.27863311767578 C 53.40486907958984 82.41617584228516 48.03562164306641 83.5 42.5 83.5 Z" stroke="none"/>
                                    <path d="M 42.5 3 C 37.16621398925781 3 31.99356079101562 4.043960571289062 27.125732421875 6.102882385253906 C 22.42246627807617 8.092185974121094 18.19785308837891 10.94070434570312 14.56928253173828 14.56928253173828 C 10.94070434570312 18.19785308837891 8.092185974121094 22.42246627807617 6.102882385253906 27.125732421875 C 4.043960571289062 31.99356079101562 3 37.16621398925781 3 42.5 C 3 47.83378601074219 4.043960571289062 53.00643920898438 6.102882385253906 57.874267578125 C 8.092185974121094 62.57753372192383 10.94070434570312 66.80214691162109 14.56928253173828 70.43071746826172 C 18.19785308837891 74.05929565429688 22.42246627807617 76.90781402587891 27.125732421875 78.89711761474609 C 31.99356079101562 80.95603942871094 37.16621398925781 82 42.5 82 C 47.83378601074219 82 53.00643920898438 80.95603942871094 57.874267578125 78.89711761474609 C 62.57753372192383 76.90781402587891 66.80214691162109 74.05929565429688 70.43071746826172 70.43071746826172 C 74.05929565429688 66.80214691162109 76.90781402587891 62.57753372192383 78.89711761474609 57.874267578125 C 80.95603942871094 53.00643920898438 82 47.83378601074219 82 42.5 C 82 37.16621398925781 80.95603942871094 31.99356079101562 78.89711761474609 27.125732421875 C 76.90781402587891 22.42246627807617 74.05929565429688 18.19785308837891 70.43071746826172 14.56928253173828 C 66.80214691162109 10.94070434570312 62.57753372192383 8.092185974121094 57.874267578125 6.102882385253906 C 53.00643920898438 4.043960571289062 47.83378601074219 3 42.5 3 M 42.5 0 C 65.97210693359375 0 85 19.02789306640625 85 42.5 C 85 65.97210693359375 65.97210693359375 85 42.5 85 C 19.02789306640625 85 0 65.97210693359375 0 42.5 C 0 19.02789306640625 19.02789306640625 0 42.5 0 Z" stroke="none" fill="#856002"/>
                                  </g>
                                </g>
                              </g>
                            </g>
                          </g>
                        </g>
                      </g>
                    </g>
                  </g>
                </g>
              </g>
            </g>
          </g>
        </g>
      </g>
    </g>
    <g id="configuracion-de-la-nube" transform="translate(1059.671 1423.172)">
      <g id="Flat" transform="translate(2.828 2.828)">
        <path id="Trazado_1058543" data-name="Trazado 1058543" d="M20.9,12.1V8.793H19a5.788,5.788,0,0,0-.454-1.1l1.341-1.341-2.34-2.34L16.2,5.352A5.788,5.788,0,0,0,15.1,4.9V3h-3.31V4.9a5.734,5.734,0,0,0-1.1.454L9.352,4.011l-2.34,2.34L8.352,7.693a5.788,5.788,0,0,0-.454,1.1H6V12.1H7.9a5.788,5.788,0,0,0,.454,1.1L7.011,14.545l2.34,2.34,1.341-1.341a5.788,5.788,0,0,0,1.1.454v1.9H15.1V16a5.788,5.788,0,0,0,1.1-.454l1.341,1.341,2.34-2.34L18.545,13.2A5.788,5.788,0,0,0,19,12.1Z" transform="translate(-3.517 -3)" fill="#f19332"/>
        <path id="Trazado_1058544" data-name="Trazado 1058544" d="M44.449,12.1A9.1,9.1,0,0,0,27.263,7.925,4.961,4.961,0,0,0,19.621,12.1a6.621,6.621,0,0,0,0,13.242H44.449a6.621,6.621,0,0,0,0-13.242Z" transform="translate(-4.724 -3)" fill="#33a4db"/>
        <path id="Trazado_1058545" data-name="Trazado 1058545" d="M46.55,13.138a.827.827,0,0,1-.818-.709,4.957,4.957,0,0,0-.842-2.126.828.828,0,0,1,1.356-.949,6.617,6.617,0,0,1,1.123,2.84.826.826,0,0,1-.82.945Z" transform="translate(-10.195 -4.034)" fill="#51c4f2"/>
        <path id="Trazado_1058546" data-name="Trazado 1058546" d="M42.483,8.227a.826.826,0,0,1-.356-.08,4.906,4.906,0,0,0-1.417-.429.827.827,0,0,1,.236-1.638,6.568,6.568,0,0,1,1.894.573.828.828,0,0,1-.356,1.575Z" transform="translate(-9.378 -3.53)" fill="#51c4f2"/>
        <path id="Trazado_1058547" data-name="Trazado 1058547" d="M37.9,60.31H26.31A3.311,3.311,0,0,1,23,57H41.208A3.311,3.311,0,0,1,37.9,60.31Z" transform="translate(-6.448 -12.309)" fill="#ccc"/>
        <path id="Trazado_1058548" data-name="Trazado 1058548" d="M26.655,43H38.242A1.656,1.656,0,0,1,39.9,44.655v9.931H25V44.655A1.656,1.656,0,0,1,26.655,43Z" transform="translate(-6.792 -9.895)" fill="#5fd5f9"/>
        <rect id="Rect치ngulo_422746" data-name="Rect치ngulo 422746" width="10" height="15" rx="2" transform="translate(37.829 32.829)" fill="#5fd5f9"/>
        <path id="Trazado_1058549" data-name="Trazado 1058549" d="M58.931,55v3.31a1.66,1.66,0,0,1-1.655,1.655H50.655A1.66,1.66,0,0,1,49,58.31V55Z" transform="translate(-10.93 -11.964)" fill="#ccc"/>
        <path id="Trazado_1058550" data-name="Trazado 1058550" d="M55.483,58.655H53.828a.828.828,0,0,1,0-1.655h1.655a.828.828,0,1,1,0,1.655Z" transform="translate(-11.619 -12.309)" fill="#afafaf"/>
        <rect id="Rect치ngulo_422747" data-name="Rect치ngulo 422747" width="13" height="12" rx="2" transform="translate(-0.171 32.829)" fill="#5fd5f9"/>
        <circle id="Elipse_13546" data-name="Elipse 13546" cx="2.5" cy="2.5" r="2.5" transform="translate(7.829 4.829)" fill="#e57510"/>
        <path id="Trazado_1058551" data-name="Trazado 1058551" d="M47.243,35.483H30.69V33.828a.828.828,0,1,0-1.655,0v1.655H10.828A.827.827,0,0,0,10,36.31v1.655a.828.828,0,0,0,1.655,0v-.828h17.38v.828a.828.828,0,0,0,1.655,0v-.828H46.415v.828a.828.828,0,0,0,1.655,0V36.31A.827.827,0,0,0,47.243,35.483Z" transform="translate(-4.207 -8.172)" fill="#f19332"/>
        <path id="Trazado_1058552" data-name="Trazado 1058552" d="M16.242,53v1.655a1.66,1.66,0,0,1-1.655,1.655H4.655A1.66,1.66,0,0,1,3,54.655V53Z" transform="translate(-3 -11.619)" fill="#ccc"/>
        <path id="Trazado_1058553" data-name="Trazado 1058553" d="M12.966,60.31H8L8.828,57h3.31Z" transform="translate(-3.862 -12.309)" fill="#ccc"/>
        <path id="Trazado_1058554" data-name="Trazado 1058554" d="M12.474,57.828H8.75L8.957,57h3.31Z" transform="translate(-3.991 -12.309)" fill="#afafaf"/>
        <path id="Trazado_1058555" data-name="Trazado 1058555" d="M25,56H39.9v.828H25Z" transform="translate(-6.792 -12.136)" fill="#45c0dd"/>
      </g>
      <g id="Outline" transform="translate(2 2)">
        <path id="Trazado_1058556" data-name="Trazado 1058556" d="M45.732,12.428a.828.828,0,0,0,1.64-.235,6.618,6.618,0,0,0-1.124-2.84.828.828,0,0,0-1.356.949,4.945,4.945,0,0,1,.842,2.126Z" transform="translate(-9.368 -3.207)"/>
        <path id="Trazado_1058557" data-name="Trazado 1058557" d="M40.709,7.718a4.911,4.911,0,0,1,1.418.429.828.828,0,0,0,.711-1.495,6.563,6.563,0,0,0-1.893-.573.827.827,0,1,0-.236,1.638Z" transform="translate(-8.55 -2.702)"/>
        <path id="Trazado_1058558" data-name="Trazado 1058558" d="M37.725,42H26.138a2.486,2.486,0,0,0-2.483,2.483v9.1h-.828a.827.827,0,0,0-.828.828,4.143,4.143,0,0,0,4.138,4.138H37.725a4.143,4.143,0,0,0,4.138-4.138.827.827,0,0,0-.828-.828h-.828v-9.1A2.486,2.486,0,0,0,37.725,42ZM25.31,44.483a.828.828,0,0,1,.828-.828H37.725a.828.828,0,0,1,.828.828v9.1H25.31ZM37.725,56.9H26.138A2.488,2.488,0,0,1,23.8,55.242H40.066A2.488,2.488,0,0,1,37.725,56.9Z" transform="translate(-5.448 -8.895)"/>
        <path id="Trazado_1058559" data-name="Trazado 1058559" d="M57.1,42H50.483A2.486,2.486,0,0,0,48,44.483V56.069a2.486,2.486,0,0,0,2.483,2.483H57.1a2.486,2.486,0,0,0,2.483-2.483V44.483A2.486,2.486,0,0,0,57.1,42Zm-6.621,1.655H57.1a.828.828,0,0,1,.828.828v7.449H49.655V44.483A.828.828,0,0,1,50.483,43.655ZM57.1,56.9H50.483a.828.828,0,0,1-.828-.828V53.587h8.276v2.483A.828.828,0,0,1,57.1,56.9Z" transform="translate(-9.93 -8.895)"/>
        <path id="Trazado_1058560" data-name="Trazado 1058560" d="M55.483,57H53.828a.828.828,0,0,0,0,1.655h1.655a.828.828,0,1,0,0-1.655Z" transform="translate(-10.792 -11.481)"/>
        <path id="Trazado_1058561" data-name="Trazado 1058561" d="M4.483,55.242H6.734l-.57,2.282a.828.828,0,0,0,.8,1.029h4.966a.828.828,0,0,0,.8-1.029l-.57-2.282h2.251A2.486,2.486,0,0,0,16.9,52.759V44.483A2.486,2.486,0,0,0,14.416,42H4.483A2.486,2.486,0,0,0,2,44.483v8.276a2.486,2.486,0,0,0,2.483,2.483ZM10.871,56.9H8.026l.414-1.655h2.018Zm3.543-3.31H4.483a.828.828,0,0,1-.828-.828v-.828H15.242v.828A.828.828,0,0,1,14.414,53.587ZM4.483,43.655h9.931a.828.828,0,0,1,.828.828v5.793H3.655V44.483A.828.828,0,0,1,4.483,43.655Z" transform="translate(-2 -8.895)"/>
        <path id="Trazado_1058562" data-name="Trazado 1058562" d="M5.828,7.793A.827.827,0,0,0,5,8.621v3.31a.827.827,0,0,0,.828.828H7.135l.042.1-.925.926a.827.827,0,0,0,0,1.17L8.594,17.3a.827.827,0,0,0,1.17,0l.926-.925c.034.015.068.029.1.042v1.308a.814.814,0,0,0,.031.157c-.02.221-.031.444-.031.67A7.457,7.457,0,0,0,18.242,26H43.07a7.449,7.449,0,0,0,.8-14.855,9.927,9.927,0,0,0-18.3-4.5,5.768,5.768,0,0,0-5.721.576l.454-.455a.827.827,0,0,0,0-1.17L17.958,3.252a.827.827,0,0,0-1.17,0l-.926.925c-.034-.015-.068-.029-.1-.042V2.828A.827.827,0,0,0,14.931,2h-3.31a.827.827,0,0,0-.828.828V4.135l-.1.042-.926-.925a.827.827,0,0,0-1.17,0L6.252,5.594a.827.827,0,0,0,0,1.17l.925.926-.042.1H5.828Zm19.61.656a.828.828,0,0,0,1.182-.316,8.273,8.273,0,0,1,15.624,3.8.827.827,0,0,0,.828.828,5.793,5.793,0,0,1,0,11.587H18.242a5.793,5.793,0,1,1,0-11.587.827.827,0,0,0,.828-.828A4.133,4.133,0,0,1,25.437,8.45ZM13.276,11.931a1.655,1.655,0,1,1,1.655-1.655A1.657,1.657,0,0,1,13.276,11.931ZM7.723,9.449a.829.829,0,0,0,.794-.592A4.687,4.687,0,0,1,8.9,7.917a.827.827,0,0,0-.142-.982l-.756-.756L9.179,5.008l.756.756a.827.827,0,0,0,.983.141,4.755,4.755,0,0,1,.94-.387.827.827,0,0,0,.591-.793V3.656H14.1V4.724a.827.827,0,0,0,.591.793,4.755,4.755,0,0,1,.94.387.826.826,0,0,0,.983-.141l.756-.756,1.172,1.172-.756.756a.828.828,0,0,0-.142.982,4.736,4.736,0,0,1,.388.939.816.816,0,0,0,.121.245,5.752,5.752,0,0,0-.689,2.042,7.31,7.31,0,0,0-1.073.2,3.266,3.266,0,0,0,.192-1.068,3.31,3.31,0,1,0-3.842,3.257,7.5,7.5,0,0,0-1.032,1.452,4.724,4.724,0,0,1-.8-.337.828.828,0,0,0-.983.141l-.756.756L8.008,14.373l.756-.756a.828.828,0,0,0,.142-.982,4.736,4.736,0,0,1-.388-.939.829.829,0,0,0-.794-.592H6.655V9.449Z" transform="translate(-2.517 -2)"/>
        <path id="Trazado_1058563" data-name="Trazado 1058563" d="M47.243,38.793a.827.827,0,0,0,.828-.828V36.31a.827.827,0,0,0-.828-.828H30.69V33.828a.828.828,0,1,0-1.655,0v1.655H10.828A.827.827,0,0,0,10,36.31v1.655a.828.828,0,0,0,1.655,0v-.828h17.38v.828a.828.828,0,0,0,1.655,0v-.828H46.415v.828A.827.827,0,0,0,47.243,38.793Z" transform="translate(-3.379 -7.344)"/>
      </g>
    </g>
  </g>
</svg>
