<svg xmlns="http://www.w3.org/2000/svg" xmlns:xlink="http://www.w3.org/1999/xlink" width="113" height="113" viewBox="0 0 113 113">
  <defs>
    <filter id="Trazado_982547" x="0" y="0" width="113" height="113" filterUnits="userSpaceOnUse">
      <feOffset dy="3" input="SourceAlpha"/>
      <feGaussianBlur stdDeviation="3" result="blur"/>
      <feFlood flood-opacity="0.161"/>
      <feComposite operator="in" in2="blur"/>
      <feComposite in="SourceGraphic"/>
    </filter>
  </defs>
  <g id="Grupo_1226943" data-name="Grupo 1226943" transform="translate(-324 -1665.827)">
    <g id="Grupo_1226324" data-name="Grupo 1226324" transform="translate(333 1671.827)">
      <g id="Grupo_1225528" data-name="Grupo 1225528" transform="translate(0)">
        <g id="Grupo_1225173" data-name="Grupo 1225173">
          <g id="Grupo_1224643" data-name="Grupo 1224643">
            <g id="Grupo_1224291" data-name="Grupo 1224291">
              <g id="Grupo_1224091" data-name="Grupo 1224091">
                <g id="Grupo_1223183" data-name="Grupo 1223183">
                  <g id="Grupo_1211217" data-name="Grupo 1211217">
                    <g id="Grupo_1210736" data-name="Grupo 1210736">
                      <g id="Grupo_1210537" data-name="Grupo 1210537">
                        <g id="Grupo_1164202" data-name="Grupo 1164202">
                          <g id="Grupo_1158168" data-name="Grupo 1158168">
                            <g id="Grupo_1152576" data-name="Grupo 1152576">
                              <g id="Grupo_1148633" data-name="Grupo 1148633">
                                <g id="Grupo_1148525" data-name="Grupo 1148525">
                                  <g transform="matrix(1, 0, 0, 1, -9, -6)" filter="url(#Trazado_982547)">
                                    <g id="Trazado_982547-2" data-name="Trazado 982547" transform="translate(9 6)" fill="#fdf6e4">
                                      <path d="M 47.49999618530273 93.5 C 41.28936767578125 93.5 35.26533126831055 92.28396606445312 29.59518241882324 89.88570404052734 C 24.11771583557129 87.56893157958984 19.19812965393066 84.251953125 14.97308921813965 80.02690124511719 C 10.74803638458252 75.80186462402344 7.431062698364258 70.88227844238281 5.114289283752441 65.40480804443359 C 2.716022968292236 59.73466110229492 1.499996185302734 53.71062469482422 1.499996185302734 47.49999618530273 C 1.499996185302734 41.28936767578125 2.716022968292236 35.26533126831055 5.114289283752441 29.59518241882324 C 7.431062698364258 24.11771583557129 10.74803638458252 19.19812965393066 14.97308921813965 14.97308921813965 C 19.19812965393066 10.74803638458252 24.11771583557129 7.431062698364258 29.59518241882324 5.114289283752441 C 35.26533126831055 2.716022968292236 41.28936767578125 1.499996185302734 47.49999618530273 1.499996185302734 C 53.71062469482422 1.499996185302734 59.73466110229492 2.716022968292236 65.40480804443359 5.114289283752441 C 70.88227844238281 7.431062698364258 75.80186462402344 10.74803638458252 80.02690124511719 14.97308921813965 C 84.251953125 19.19812965393066 87.56893157958984 24.11771583557129 89.88570404052734 29.59518241882324 C 92.28396606445312 35.26533126831055 93.5 41.28936767578125 93.5 47.49999618530273 C 93.5 53.71062469482422 92.28396606445312 59.73466110229492 89.88570404052734 65.40480804443359 C 87.56893157958984 70.88227844238281 84.251953125 75.80186462402344 80.02690124511719 80.02690124511719 C 75.80186462402344 84.251953125 70.88227844238281 87.56893157958984 65.40480804443359 89.88570404052734 C 59.73466110229492 92.28396606445312 53.71062469482422 93.5 47.49999618530273 93.5 Z" stroke="none"/>
                                      <path d="M 47.49999618530273 2.999992370605469 C 41.4912109375 2.999992370605469 35.66376495361328 4.1761474609375 30.17950439453125 6.495796203613281 C 24.88084411621094 8.736953735351562 20.12152099609375 11.94598388671875 16.03375244140625 16.03375244140625 C 11.94598388671875 20.12152099609375 8.736953735351562 24.88084411621094 6.495796203613281 30.17950439453125 C 4.1761474609375 35.66376495361328 2.999992370605469 41.4912109375 2.999992370605469 47.49999618530273 C 2.999992370605469 53.50878143310547 4.1761474609375 59.33622741699219 6.495796203613281 64.82048797607422 C 8.736953735351562 70.11914825439453 11.94598388671875 74.87847137451172 16.03375244140625 78.96623992919922 C 20.12152099609375 83.05400848388672 24.88084411621094 86.26304626464844 30.17950439453125 88.50419616699219 C 35.66376495361328 90.82384490966797 41.4912109375 92 47.49999618530273 92 C 53.50878143310547 92 59.33622741699219 90.82384490966797 64.82048797607422 88.50419616699219 C 70.11914825439453 86.26304626464844 74.87847137451172 83.05400848388672 78.96623992919922 78.96623992919922 C 83.05400848388672 74.87847137451172 86.26304626464844 70.11914825439453 88.50419616699219 64.82048797607422 C 90.82384490966797 59.33622741699219 92 53.50878143310547 92 47.49999618530273 C 92 41.4912109375 90.82384490966797 35.66376495361328 88.50419616699219 30.17950439453125 C 86.26304626464844 24.88084411621094 83.05400848388672 20.12152099609375 78.96623992919922 16.03375244140625 C 74.87847137451172 11.94598388671875 70.11914825439453 8.736953735351562 64.82048797607422 6.495796203613281 C 59.33622741699219 4.1761474609375 53.50878143310547 2.999992370605469 47.49999618530273 2.999992370605469 M 47.49999618530273 -7.62939453125e-06 C 73.7335205078125 -7.62939453125e-06 95 21.26647186279297 95 47.49999618530273 C 95 73.7335205078125 73.7335205078125 95 47.49999618530273 95 C 21.26647186279297 95 -7.62939453125e-06 73.7335205078125 -7.62939453125e-06 47.49999618530273 C -7.62939453125e-06 21.26647186279297 21.26647186279297 -7.62939453125e-06 47.49999618530273 -7.62939453125e-06 Z" stroke="none" fill="#f5b104"/>
                                    </g>
                                  </g>
                                </g>
                              </g>
                            </g>
                          </g>
                        </g>
                      </g>
                    </g>
                  </g>
                </g>
              </g>
            </g>
          </g>
        </g>
      </g>
    </g>
    <g id="Page-1" transform="translate(352.719 1691.546)">
      <g id="_080---Login" data-name="080---Login">
        <g id="Icons" transform="translate(0.926 0.926)">
          <path id="Path" d="M53.709,14V51.041a3.7,3.7,0,0,1-3.7,3.7H3.7a3.7,3.7,0,0,1-3.7-3.7V14Z" transform="translate(0 -1.036)" fill="#f5f5f5" fill-rule="evenodd"/>
          <path id="Path-2" data-name="Path" d="M54.7,14V51.041a3.7,3.7,0,0,1-3.7,3.7h2.778a3.7,3.7,0,0,0,3.7-3.7V14Z" transform="translate(-3.773 -1.036)" fill="#cfd8dc" fill-rule="evenodd"/>
          <path id="Path-3" data-name="Path" d="M53.709,9.556v3.7H0V4H23.151A1.858,1.858,0,0,1,25,5.852V7.7a1.858,1.858,0,0,0,1.852,1.852Z" transform="translate(0 -0.296)" fill="#02a9f4" fill-rule="evenodd"/>
          <path id="Rectangle" d="M55,10h2.778v3.7H55Z" transform="translate(-4.069 -0.74)" fill="#0377bc" fill-rule="evenodd"/>
          <path id="Path-4" data-name="Path" d="M53.709,3.7V9.26H26.855A1.858,1.858,0,0,1,25,7.408V5.556A1.858,1.858,0,0,0,23.151,3.7H0A3.7,3.7,0,0,1,3.7,0h46.3A3.7,3.7,0,0,1,53.709,3.7Z" fill="#3f51b5" fill-rule="evenodd"/>
          <path id="Path-5" data-name="Path" d="M53.778,0H51a3.7,3.7,0,0,1,3.7,3.7V9.26h2.778V3.7A3.7,3.7,0,0,0,53.778,0Z" transform="translate(-3.773)" fill="#283593" fill-rule="evenodd"/>
          <rect id="Rectangle-2" data-name="Rectangle" width="44.405" height="12.687" rx="5" transform="translate(4.36 37.136)" fill="#e91e63"/>
          <path id="Path-6" data-name="Path" d="M47.778,40H45a4.63,4.63,0,0,1,4.63,4.63v3.7A4.63,4.63,0,0,1,45,52.964h2.778a4.63,4.63,0,0,0,4.63-4.63v-3.7A4.63,4.63,0,0,0,47.778,40Z" transform="translate(-3.329 -2.959)" fill="#ad1457" fill-rule="evenodd"/>
          <ellipse id="Oval" cx="8.458" cy="7.93" rx="8.458" ry="7.93" transform="translate(18.105 17.048)" fill="#ff9801"/>
          <path id="Path-7" data-name="Path" d="M28.889,18a8.376,8.376,0,0,0-1.389.125,8.324,8.324,0,0,1,0,16.418A8.334,8.334,0,1,0,28.889,18Z" transform="translate(-2.034 -1.332)" fill="#f57c00" fill-rule="evenodd"/>
          <circle id="Oval-2" data-name="Oval" cx="3.7" cy="3.7" r="3.7" transform="translate(23.391 20.219)" fill="#ffe0b2"/>
          <path id="Path-8" data-name="Path" d="M33.26,32.778v1.371a8.319,8.319,0,0,1-9.26,0V32.778A2.778,2.778,0,0,1,26.778,30h3.7A2.778,2.778,0,0,1,33.26,32.778Z" transform="translate(-1.775 -2.219)" fill="#ffdc00" fill-rule="evenodd"/>
        </g>
        <g id="Icons_copy">
          <path id="Shape" d="M50.931,0H4.63A4.636,4.636,0,0,0,0,4.63v46.3a4.636,4.636,0,0,0,4.63,4.63h46.3a4.636,4.636,0,0,0,4.63-4.63V4.63A4.636,4.636,0,0,0,50.931,0ZM1.852,5.556H24.077A.926.926,0,0,1,25,6.482V8.334a2.778,2.778,0,0,0,2.778,2.778H53.709v1.852H1.852Zm2.778-3.7h46.3A2.778,2.778,0,0,1,53.709,4.63V9.26H27.781a.926.926,0,0,1-.926-.926V6.482A2.778,2.778,0,0,0,24.077,3.7H2.022A2.778,2.778,0,0,1,4.63,1.852Zm46.3,51.857H4.63a2.778,2.778,0,0,1-2.778-2.778V14.816H53.709V50.931A2.778,2.778,0,0,1,50.931,53.709Z"/>
          <path id="Path-9" data-name="Path" d="M16.112,9H5.926a.926.926,0,0,0,0,1.852H16.112a.926.926,0,1,0,0-1.852Z" transform="translate(-0.37 -0.666)" fill-rule="evenodd"/>
          <path id="Path-10" data-name="Path" d="M24.432,8.271a.926.926,0,0,0-1.309,0l-.271.271-.271-.271A.926.926,0,0,0,21.27,9.581l.271.271-.271.271a.926.926,0,1,0,1.309,1.309l.271-.271.271.271a.926.926,0,0,0,1.309-1.309l-.271-.271.271-.271a.926.926,0,0,0,0-1.309Z" transform="translate(-1.553 -0.592)" fill-rule="evenodd"/>
          <ellipse id="Oval-3" data-name="Oval" cx="0.529" cy="1.057" rx="0.529" ry="1.057" transform="translate(48.634 4.229)"/>
          <circle id="Oval-4" data-name="Oval" cx="1.057" cy="1.057" r="1.057" transform="translate(44.405 4.229)"/>
          <ellipse id="Oval-5" data-name="Oval" cx="0.529" cy="1.057" rx="0.529" ry="1.057" transform="translate(41.233 4.229)"/>
          <path id="Shape-2" data-name="Shape" d="M45.745,40H10.556A5.562,5.562,0,0,0,5,45.556v3.7a5.562,5.562,0,0,0,5.556,5.556H45.745A5.562,5.562,0,0,0,51.3,49.26v-3.7A5.562,5.562,0,0,0,45.745,40Zm3.7,9.26a3.7,3.7,0,0,1-3.7,3.7H10.556a3.7,3.7,0,0,1-3.7-3.7v-3.7a3.7,3.7,0,0,1,3.7-3.7H45.745a3.7,3.7,0,0,1,3.7,3.7Z" transform="translate(-0.37 -2.959)"/>
          <path id="Path-11" data-name="Path" d="M17.941,45.852a.926.926,0,0,0-1.265-.339l-1.019.587V44.926a.926.926,0,1,0-1.852,0V46.1l-1.019-.587a.926.926,0,0,0-.926,1.6l1.02.587-1.019.587a.926.926,0,1,0,.926,1.6l1.019-.587v1.174a.926.926,0,1,0,1.852,0V49.308l1.019.587a.926.926,0,1,0,.926-1.6L16.585,47.7l1.019-.587a.926.926,0,0,0,.337-1.265Z" transform="translate(-0.843 -3.255)" fill-rule="evenodd"/>
          <path id="Path-12" data-name="Path" d="M27.941,45.852a.926.926,0,0,0-1.265-.339l-1.019.587V44.926a.926.926,0,0,0-1.852,0V46.1l-1.019-.587a.926.926,0,0,0-.926,1.6l1.02.587-1.019.587a.926.926,0,1,0,.926,1.6l1.019-.587v1.174a.926.926,0,1,0,1.852,0V49.308l1.019.587a.926.926,0,1,0,.926-1.6L26.585,47.7l1.019-.587a.926.926,0,0,0,.337-1.265Z" transform="translate(-1.583 -3.255)" fill-rule="evenodd"/>
          <path id="Path-13" data-name="Path" d="M37.941,45.852a.926.926,0,0,0-1.265-.339l-1.019.587V44.926a.926.926,0,0,0-1.852,0V46.1l-1.019-.587a.926.926,0,0,0-.926,1.6l1.02.587-1.019.587a.926.926,0,1,0,.926,1.6l1.019-.587v1.174a.926.926,0,1,0,1.852,0V49.308l1.019.587a.926.926,0,1,0,.926-1.6L36.585,47.7l1.019-.587a.926.926,0,0,0,.337-1.265Z" transform="translate(-2.322 -3.255)" fill-rule="evenodd"/>
          <path id="Path-14" data-name="Path" d="M47.941,45.852a.926.926,0,0,0-1.265-.339l-1.019.587V44.926a.926.926,0,1,0-1.852,0V46.1l-1.019-.587a.926.926,0,0,0-.926,1.6l1.02.587-1.019.587a.926.926,0,1,0,.926,1.6l1.019-.587v1.174a.926.926,0,1,0,1.852,0V49.308l1.019.587a.926.926,0,1,0,.926-1.6L46.585,47.7l1.019-.587a.926.926,0,0,0,.337-1.265Z" transform="translate(-3.062 -3.255)" fill-rule="evenodd"/>
          <path id="Shape-3" data-name="Shape" d="M29.26,36.521A9.26,9.26,0,1,0,20,27.26,9.26,9.26,0,0,0,29.26,36.521Zm-3.7-2.855v-.849a1.852,1.852,0,0,1,1.852-1.852h3.7a1.852,1.852,0,0,1,1.852,1.852v.849A7.342,7.342,0,0,1,25.556,33.666Zm3.7-4.553a2.778,2.778,0,1,1,2.778-2.778A2.778,2.778,0,0,1,29.26,29.112Zm0-9.26a7.4,7.4,0,0,1,5.5,12.359,3.7,3.7,0,0,0-2.1-2.752,4.63,4.63,0,1,0-6.788,0,3.7,3.7,0,0,0-2.1,2.752,7.4,7.4,0,0,1,5.5-12.359Z" transform="translate(-1.479 -1.332)"/>
        </g>
      </g>
    </g>
  </g>
</svg>
