<svg xmlns="http://www.w3.org/2000/svg" xmlns:xlink="http://www.w3.org/1999/xlink" width="113" height="113" viewBox="0 0 113 113">
  <defs>
    <filter id="Trazado_982547" x="0" y="0" width="113" height="113" filterUnits="userSpaceOnUse">
      <feOffset dy="3" input="SourceAlpha"/>
      <feGaussianBlur stdDeviation="3" result="blur"/>
      <feFlood flood-opacity="0.161"/>
      <feComposite operator="in" in2="blur"/>
      <feComposite in="SourceGraphic"/>
    </filter>
  </defs>
  <g id="Grupo_1226948" data-name="Grupo 1226948" transform="translate(-744 -1665.827)">
    <g id="Grupo_1226325" data-name="Grupo 1226325" transform="translate(753 1671.827)">
      <g id="Grupo_1225528" data-name="Grupo 1225528" transform="translate(0)">
        <g id="Grupo_1225173" data-name="Grupo 1225173">
          <g id="Grupo_1224643" data-name="Grupo 1224643">
            <g id="Grupo_1224291" data-name="Grupo 1224291">
              <g id="Grupo_1224091" data-name="Grupo 1224091">
                <g id="Grupo_1223183" data-name="Grupo 1223183">
                  <g id="Grupo_1211217" data-name="Grupo 1211217">
                    <g id="Grupo_1210736" data-name="Grupo 1210736">
                      <g id="Grupo_1210537" data-name="Grupo 1210537">
                        <g id="Grupo_1164202" data-name="Grupo 1164202">
                          <g id="Grupo_1158168" data-name="Grupo 1158168">
                            <g id="Grupo_1152576" data-name="Grupo 1152576">
                              <g id="Grupo_1148633" data-name="Grupo 1148633">
                                <g id="Grupo_1148525" data-name="Grupo 1148525">
                                  <g transform="matrix(1, 0, 0, 1, -9, -6)" filter="url(#Trazado_982547)">
                                    <g id="Trazado_982547-2" data-name="Trazado 982547" transform="translate(9 6)" fill="#fdf6e4">
                                      <path d="M 47.49999618530273 93.5 C 41.28936767578125 93.5 35.26533126831055 92.28396606445312 29.59518241882324 89.88570404052734 C 24.11771583557129 87.56893157958984 19.19812965393066 84.251953125 14.97308921813965 80.02690124511719 C 10.74803638458252 75.80186462402344 7.431062698364258 70.88227844238281 5.114289283752441 65.40480804443359 C 2.716022968292236 59.73466110229492 1.499996185302734 53.71062469482422 1.499996185302734 47.49999618530273 C 1.499996185302734 41.28936767578125 2.716022968292236 35.26533126831055 5.114289283752441 29.59518241882324 C 7.431062698364258 24.11771583557129 10.74803638458252 19.19812965393066 14.97308921813965 14.97308921813965 C 19.19812965393066 10.74803638458252 24.11771583557129 7.431062698364258 29.59518241882324 5.114289283752441 C 35.26533126831055 2.716022968292236 41.28936767578125 1.499996185302734 47.49999618530273 1.499996185302734 C 53.71062469482422 1.499996185302734 59.73466110229492 2.716022968292236 65.40480804443359 5.114289283752441 C 70.88227844238281 7.431062698364258 75.80186462402344 10.74803638458252 80.02690124511719 14.97308921813965 C 84.251953125 19.19812965393066 87.56893157958984 24.11771583557129 89.88570404052734 29.59518241882324 C 92.28396606445312 35.26533126831055 93.5 41.28936767578125 93.5 47.49999618530273 C 93.5 53.71062469482422 92.28396606445312 59.73466110229492 89.88570404052734 65.40480804443359 C 87.56893157958984 70.88227844238281 84.251953125 75.80186462402344 80.02690124511719 80.02690124511719 C 75.80186462402344 84.251953125 70.88227844238281 87.56893157958984 65.40480804443359 89.88570404052734 C 59.73466110229492 92.28396606445312 53.71062469482422 93.5 47.49999618530273 93.5 Z" stroke="none"/>
                                      <path d="M 47.49999618530273 2.999992370605469 C 41.4912109375 2.999992370605469 35.66376495361328 4.1761474609375 30.17950439453125 6.495796203613281 C 24.88084411621094 8.736953735351562 20.12152099609375 11.94598388671875 16.03375244140625 16.03375244140625 C 11.94598388671875 20.12152099609375 8.736953735351562 24.88084411621094 6.495796203613281 30.17950439453125 C 4.1761474609375 35.66376495361328 2.999992370605469 41.4912109375 2.999992370605469 47.49999618530273 C 2.999992370605469 53.50878143310547 4.1761474609375 59.33622741699219 6.495796203613281 64.82048797607422 C 8.736953735351562 70.11914825439453 11.94598388671875 74.87847137451172 16.03375244140625 78.96623992919922 C 20.12152099609375 83.05400848388672 24.88084411621094 86.26304626464844 30.17950439453125 88.50419616699219 C 35.66376495361328 90.82384490966797 41.4912109375 92 47.49999618530273 92 C 53.50878143310547 92 59.33622741699219 90.82384490966797 64.82048797607422 88.50419616699219 C 70.11914825439453 86.26304626464844 74.87847137451172 83.05400848388672 78.96623992919922 78.96623992919922 C 83.05400848388672 74.87847137451172 86.26304626464844 70.11914825439453 88.50419616699219 64.82048797607422 C 90.82384490966797 59.33622741699219 92 53.50878143310547 92 47.49999618530273 C 92 41.4912109375 90.82384490966797 35.66376495361328 88.50419616699219 30.17950439453125 C 86.26304626464844 24.88084411621094 83.05400848388672 20.12152099609375 78.96623992919922 16.03375244140625 C 74.87847137451172 11.94598388671875 70.11914825439453 8.736953735351562 64.82048797607422 6.495796203613281 C 59.33622741699219 4.1761474609375 53.50878143310547 2.999992370605469 47.49999618530273 2.999992370605469 M 47.49999618530273 -7.62939453125e-06 C 73.7335205078125 -7.62939453125e-06 95 21.26647186279297 95 47.49999618530273 C 95 73.7335205078125 73.7335205078125 95 47.49999618530273 95 C 21.26647186279297 95 -7.62939453125e-06 73.7335205078125 -7.62939453125e-06 47.49999618530273 C -7.62939453125e-06 21.26647186279297 21.26647186279297 -7.62939453125e-06 47.49999618530273 -7.62939453125e-06 Z" stroke="none" fill="#f5b104"/>
                                    </g>
                                  </g>
                                </g>
                              </g>
                            </g>
                          </g>
                        </g>
                      </g>
                    </g>
                  </g>
                </g>
              </g>
            </g>
          </g>
        </g>
      </g>
    </g>
    <g id="seguridad_1_" data-name="seguridad (1)" transform="translate(753.049 1679.999)">
      <g id="Grupo_1226947" data-name="Grupo 1226947" transform="translate(13.031 9.081)">
        <g id="Grupo_1226944" data-name="Grupo 1226944" transform="translate(9.485 0)">
          <path id="Trazado_1058564" data-name="Trazado 1058564" d="M117.34,16l12.087,5.18-3.762,3.2-1.956,4.535,2.516,2.705-.867,4.377,7.634,3.669-2.8-5.4.548-2.759-1.43-3.068,6.406-4.556,8.746,3.748v21.93a31.656,31.656,0,0,1-26.134,31.068l-.987.172-.987-.172a31.265,31.265,0,0,1-9.337-3.208l2.05-3.4,4.173.586,1.632-8.663L111.2,70.984,107.27,70.4l-3.327,5.145A31.635,31.635,0,0,1,90.219,49.552V27.623Z" transform="translate(-90.219 -16)" fill="#8ac9fe" fill-rule="evenodd"/>
          <path id="Trazado_1058565" data-name="Trazado 1058565" d="M193.605,16l12.087,5.18-.905.769-12.532-5.371Zm17.36,8.6,1.015-.722,8.746,3.748v21.93a31.656,31.656,0,0,1-26.134,31.068l-.987.172-.987-.172-.368-.067a31.656,31.656,0,0,0,25.776-31V27.623ZM183.3,70.766l-3.09,4.778q-.937-.646-1.823-1.356l2.45-3.789Z" transform="translate(-166.485 -16)" fill="#60b7ff" fill-rule="evenodd"/>
          <path id="Trazado_1058566" data-name="Trazado 1058566" d="M151.94,59.518l-21.721,9.309V87.2a26.235,26.235,0,0,0,11.258,21.455l.394-.609,3.929.585,3.671-5.049-1.572,8.342a25.878,25.878,0,0,0,3.981,1.025l.06.011.06-.011A26.254,26.254,0,0,0,173.661,87.2V68.827l-8.5-3.643-1.252.891,1.43,3.068L164.79,71.9l2.8,5.4-7.634-3.669.867-4.377-2.516-2.705,1.568-3.636Z" transform="translate(-124.82 -53.644)" fill="#eceff1" fill-rule="evenodd"/>
          <path id="Trazado_1058567" data-name="Trazado 1058567" d="M151.94,59.518l-21.721,9.309V87.2a26.235,26.235,0,0,0,11.258,21.455l.394-.609,1.547.23A26.224,26.224,0,0,1,132.687,87.2V68.827l20.487-8.78Zm-7.818,48.86.217-.335,1.7.254-.241.332Zm3.777,3.543,1.534-8.142.934,8.142a25.846,25.846,0,0,0,2.807.792q-.582.129-1.174.233l-.06.011-.06-.011a25.88,25.88,0,0,1-3.981-1.025Zm18.8-46.076-1.54-.66-1.252.891,1.43,3.068-.548,2.759,2.8,5.4,2.8,1.7-3.137-7.1.548-2.759-1.43-3.068Z" transform="translate(-124.82 -53.644)" fill="#d1d1d6" fill-rule="evenodd"/>
        </g>
        <g id="Grupo_1226945" data-name="Grupo 1226945" transform="translate(26.666 18.698)">
          <path id="Trazado_1058568" data-name="Trazado 1058568" d="M250.368,163.5h1.884a.676.676,0,0,0,.675-.675v-1.238a7.064,7.064,0,0,0-14.129,0v6.879h3.234v-6.879a3.83,3.83,0,0,1,7.661,0v1.238a.677.677,0,0,0,.675.675Z" transform="translate(-235.923 -154.522)" fill="#8d9ca8" fill-rule="evenodd"/>
          <path id="Trazado_1058569" data-name="Trazado 1058569" d="M250.37,163.5h1.35a.676.676,0,0,1-.675-.675v-1.238a3.849,3.849,0,0,0-3.83-3.83,3.792,3.792,0,0,0-.675.06,3.854,3.854,0,0,1,3.155,3.77v1.238A.676.676,0,0,0,250.37,163.5Zm-3.83-8.945a7.088,7.088,0,0,0-6.389,7.032v6.879H238.8v-6.879a7.084,7.084,0,0,1,7.064-7.064C246.092,154.522,246.317,154.533,246.539,154.555Z" transform="translate(-235.925 -154.522)" fill="#8192a5" fill-rule="evenodd"/>
          <path id="Trazado_1058570" data-name="Trazado 1058570" d="M218.79,239.422h17.3a1.293,1.293,0,0,1,1.291,1.291v13.748a1.293,1.293,0,0,1-1.291,1.291h-17.3a1.293,1.293,0,0,1-1.291-1.291V240.713A1.293,1.293,0,0,1,218.79,239.422Z" transform="translate(-217.499 -227.962)" fill="#837683" fill-rule="evenodd"/>
          <path id="Trazado_1058571" data-name="Trazado 1058571" d="M339.185,239.422h2.163a1.293,1.293,0,0,1,1.291,1.291v13.748a1.293,1.293,0,0,1-1.291,1.291h-2.163a1.293,1.293,0,0,0,1.291-1.291V240.713A1.293,1.293,0,0,0,339.185,239.422Z" transform="translate(-322.759 -227.962)" fill="#685e68" fill-rule="evenodd"/>
          <path id="Trazado_1058572" data-name="Trazado 1058572" d="M271.981,263.391a2.989,2.989,0,0,1,1.568,5.534v2.756a1.568,1.568,0,0,1-3.136,0v-2.756a2.989,2.989,0,0,1,1.568-5.534Z" transform="translate(-262.041 -248.695)" fill="#eceff1" fill-rule="evenodd"/>
          <path id="Trazado_1058573" data-name="Trazado 1058573" d="M271.979,263.391a3,3,0,0,1,.675.077,2.99,2.99,0,0,0-.893,5.458v2.756a1.573,1.573,0,0,0,.893,1.414,1.554,1.554,0,0,1-.675.154,1.573,1.573,0,0,1-1.568-1.568v-2.756a2.989,2.989,0,0,1,1.568-5.534Z" transform="translate(-262.039 -248.695)" fill="#d1d1d6" fill-rule="evenodd"/>
        </g>
        <g id="Grupo_1226946" data-name="Grupo 1226946" transform="translate(0 0.137)">
          <circle id="Elipse_13547" data-name="Elipse 13547" cx="13.99" cy="13.99" r="13.99" transform="translate(0 0)" fill="#ffe177"/>
          <path id="Trazado_1058574" data-name="Trazado 1058574" d="M114.939,17.018a13.99,13.99,0,1,1,0,27.98c-.455,0-.906-.023-1.35-.065a13.99,13.99,0,0,0,0-27.85c.444-.043.894-.065,1.35-.065Z" transform="translate(-100.949 -17.018)" fill="#ffd064" fill-rule="evenodd"/>
          <path id="Trazado_1058575" data-name="Trazado 1058575" d="M111.942,63.891a1.818,1.818,0,1,1-1.818,1.818A1.818,1.818,0,0,1,111.942,63.891Zm0-3.245a1.419,1.419,0,0,1-1.418-1.368l-.359-9.931a1.419,1.419,0,0,1,1.418-1.47h.717a1.419,1.419,0,0,1,1.418,1.47l-.359,9.931A1.419,1.419,0,0,1,111.942,60.646Z" transform="translate(-97.952 -43.712)" fill="#fe646f" fill-rule="evenodd"/>
          <path id="Trazado_1058576" data-name="Trazado 1058576" d="M111.942,63.891a1.817,1.817,0,0,1,.56.088,1.818,1.818,0,0,0,0,3.459,1.818,1.818,0,1,1-.56-3.547Zm0-3.245a1.419,1.419,0,0,1-1.418-1.368l-.359-9.931a1.419,1.419,0,0,1,1.418-1.47h.717a1.554,1.554,0,0,1,.2.013,1.422,1.422,0,0,0-1.217,1.457l.359,9.931a1.419,1.419,0,0,0,.858,1.253A1.412,1.412,0,0,1,111.942,60.646Z" transform="translate(-97.952 -43.712)" fill="#fd4755" fill-rule="evenodd"/>
        </g>
      </g>
      <path id="Trazado_1058577" data-name="Trazado 1058577" d="M50.637,47.09a1.082,1.082,0,0,0-.513.919v2.757a.488.488,0,1,1-.976,0V48.009a1.082,1.082,0,0,0-.513-.919,1.91,1.91,0,1,1,2,0Zm-1-5.7a4.07,4.07,0,0,0-2.648,7.16v2.211a2.648,2.648,0,1,0,5.3,0V48.554a4.069,4.069,0,0,0-2.647-7.16Zm-8.86,12.883a.214.214,0,0,0,.21.212h17.3a.215.215,0,0,0,.211-.212V40.531a.215.215,0,0,0-.211-.212h-17.3a.214.214,0,0,0-.21.212Zm2.875-19.434a5.984,5.984,0,1,1,11.969,0v.833H54.547v-.833a4.91,4.91,0,1,0-9.821,0v3.315H43.652Zm17,19.434V40.531a2.374,2.374,0,0,0-2.37-2.372h-11.4V34.844a2.75,2.75,0,1,1,5.5,0v1.913a1.079,1.079,0,0,0,1.08,1.08H56.7a1.08,1.08,0,0,0,1.08-1.08V34.844a8.144,8.144,0,1,0-16.289,0v3.315h-.5a2.374,2.374,0,0,0-2.37,2.372V54.278a2.373,2.373,0,0,0,2.37,2.372h17.3A2.373,2.373,0,0,0,60.655,54.278ZM26.282,31.214a.738.738,0,1,1,.738.738A.739.739,0,0,1,26.282,31.214Zm3.635,0a2.9,2.9,0,1,0-2.9,2.9A2.9,2.9,0,0,0,29.917,31.214Zm-3.5-16.648a.3.3,0,0,1,.243-.1h.719a.3.3,0,0,1,.243.1.3.3,0,0,1,.1.248l-.359,9.931a.339.339,0,0,1-.678,0l-.359-9.931a.3.3,0,0,1,.1-.248Zm.6,12.666a2.49,2.49,0,0,0,2.5-2.408l.358-9.931a2.5,2.5,0,0,0-2.5-2.589h-.719a2.5,2.5,0,0,0-2.5,2.589l.359,9.931A2.49,2.49,0,0,0,27.02,27.232Zm48.657,15.4V21.416l-7.534-3.229-3.092,2.2,6.732,2.886a1.08,1.08,0,0,1,.654.992v18.37A27.33,27.33,0,0,1,49.822,69.457a1.078,1.078,0,0,1-.371,0,27.335,27.335,0,0,1-3.416-.821,1.064,1.064,0,0,1-.649.112l-3.467-.486-1.083,1.8a31.88,31.88,0,0,0,8.8,2.718c15.344-2.757,26.041-15.126,26.041-30.143ZM43.008,62.9l3.286-4.519a1.08,1.08,0,0,1,1.934.834l-1.394,7.408a25.258,25.258,0,0,0,2.8.672,25.05,25.05,0,0,0,20.64-24.662V24.977l-7.288-3.124-.025.017,1.05,2.253a1.076,1.076,0,0,1,.079.667l-.473,2.388,2.627,5.069a1.08,1.08,0,0,1-1.427,1.47l-7.635-3.669a1.078,1.078,0,0,1-.591-1.182l.76-3.836-2.14-2.3a1.078,1.078,0,0,1-.2-1.162l1.139-2.643-6.517-2.793-7.994,3.427A15.075,15.075,0,0,1,28.995,38.148v4.486a25.114,25.114,0,0,0,9.96,19.957,1.088,1.088,0,0,1,.771-.18Zm-7.06,4.187A30.5,30.5,0,0,1,23.6,42.634V37.885a15.072,15.072,0,0,0,3.24.39v4.359A27.282,27.282,0,0,0,37.712,64.36ZM14.11,23.208a12.91,12.91,0,1,1,12.91,12.91,12.924,12.924,0,0,1-12.91-12.91ZM49.636,10.257,59.7,14.567l-2.434,2.068a1.048,1.048,0,0,0-.248.308l-6.952-2.979a1.074,1.074,0,0,0-.852,0L40.964,17.5a15.05,15.05,0,0,0-1.555-2.858Zm27.546,9.454-8.746-3.747a1.078,1.078,0,0,0-1.051.112l-6.4,4.557a1.077,1.077,0,0,0-.354,1.335l1.281,2.748-.479,2.414a1.079,1.079,0,0,0,.1.707l1.314,2.534-3.966-1.906.7-3.557a1.078,1.078,0,0,0-.269-.945l-2.035-2.189,1.577-3.657,3.57-3.033a1.08,1.08,0,0,0-.274-1.816L50.062,8.088a1.084,1.084,0,0,0-.852,0L38,12.894A15.066,15.066,0,1,0,21.436,37.2v5.429A32.674,32.674,0,0,0,35.627,69.513a1.08,1.08,0,0,0,1.52-.3L40.1,64.65l3.241.483A1.08,1.08,0,0,0,44.37,64.7l.846-1.165-.552,2.932-3.151-.443a1.077,1.077,0,0,0-1.074.511l-2.051,3.4a1.08,1.08,0,0,0,.417,1.51,33.326,33.326,0,0,0,10.646,3.491,1.094,1.094,0,0,0,.185.016,1.08,1.08,0,0,0,.186-.016A34.679,34.679,0,0,0,69.854,63.986a31.715,31.715,0,0,0,7.983-21.352V20.7a1.082,1.082,0,0,0-.655-.994Z" fill-rule="evenodd"/>
    </g>
  </g>
</svg>
