<svg xmlns="http://www.w3.org/2000/svg" xmlns:xlink="http://www.w3.org/1999/xlink" width="113" height="113" viewBox="0 0 113 113">
  <defs>
    <filter id="Trazado_982547" x="0" y="0" width="113" height="113" filterUnits="userSpaceOnUse">
      <feOffset dy="3" input="SourceAlpha"/>
      <feGaussianBlur stdDeviation="3" result="blur"/>
      <feFlood flood-opacity="0.161"/>
      <feComposite operator="in" in2="blur"/>
      <feComposite in="SourceGraphic"/>
    </filter>
  </defs>
  <g id="Grupo_1226950" data-name="Grupo 1226950" transform="translate(-1164 -1665.827)">
    <g id="Grupo_1226326" data-name="Grupo 1226326" transform="translate(1173 1671.827)">
      <g id="Grupo_1225528" data-name="Grupo 1225528" transform="translate(0)">
        <g id="Grupo_1225173" data-name="Grupo 1225173">
          <g id="Grupo_1224643" data-name="Grupo 1224643">
            <g id="Grupo_1224291" data-name="Grupo 1224291">
              <g id="Grupo_1224091" data-name="Grupo 1224091">
                <g id="Grupo_1223183" data-name="Grupo 1223183">
                  <g id="Grupo_1211217" data-name="Grupo 1211217">
                    <g id="Grupo_1210736" data-name="Grupo 1210736">
                      <g id="Grupo_1210537" data-name="Grupo 1210537">
                        <g id="Grupo_1164202" data-name="Grupo 1164202">
                          <g id="Grupo_1158168" data-name="Grupo 1158168">
                            <g id="Grupo_1152576" data-name="Grupo 1152576">
                              <g id="Grupo_1148633" data-name="Grupo 1148633">
                                <g id="Grupo_1148525" data-name="Grupo 1148525">
                                  <g transform="matrix(1, 0, 0, 1, -9, -6)" filter="url(#Trazado_982547)">
                                    <g id="Trazado_982547-2" data-name="Trazado 982547" transform="translate(9 6)" fill="#fdf6e4">
                                      <path d="M 47.49999618530273 93.5 C 41.28936767578125 93.5 35.26533126831055 92.28396606445312 29.59518241882324 89.88570404052734 C 24.11771583557129 87.56893157958984 19.19812965393066 84.251953125 14.97308921813965 80.02690124511719 C 10.74803638458252 75.80186462402344 7.431062698364258 70.88227844238281 5.114289283752441 65.40480804443359 C 2.716022968292236 59.73466110229492 1.499996185302734 53.71062469482422 1.499996185302734 47.49999618530273 C 1.499996185302734 41.28936767578125 2.716022968292236 35.26533126831055 5.114289283752441 29.59518241882324 C 7.431062698364258 24.11771583557129 10.74803638458252 19.19812965393066 14.97308921813965 14.97308921813965 C 19.19812965393066 10.74803638458252 24.11771583557129 7.431062698364258 29.59518241882324 5.114289283752441 C 35.26533126831055 2.716022968292236 41.28936767578125 1.499996185302734 47.49999618530273 1.499996185302734 C 53.71062469482422 1.499996185302734 59.73466110229492 2.716022968292236 65.40480804443359 5.114289283752441 C 70.88227844238281 7.431062698364258 75.80186462402344 10.74803638458252 80.02690124511719 14.97308921813965 C 84.251953125 19.19812965393066 87.56893157958984 24.11771583557129 89.88570404052734 29.59518241882324 C 92.28396606445312 35.26533126831055 93.5 41.28936767578125 93.5 47.49999618530273 C 93.5 53.71062469482422 92.28396606445312 59.73466110229492 89.88570404052734 65.40480804443359 C 87.56893157958984 70.88227844238281 84.251953125 75.80186462402344 80.02690124511719 80.02690124511719 C 75.80186462402344 84.251953125 70.88227844238281 87.56893157958984 65.40480804443359 89.88570404052734 C 59.73466110229492 92.28396606445312 53.71062469482422 93.5 47.49999618530273 93.5 Z" stroke="none"/>
                                      <path d="M 47.49999618530273 2.999992370605469 C 41.4912109375 2.999992370605469 35.66376495361328 4.1761474609375 30.17950439453125 6.495796203613281 C 24.88084411621094 8.736953735351562 20.12152099609375 11.94598388671875 16.03375244140625 16.03375244140625 C 11.94598388671875 20.12152099609375 8.736953735351562 24.88084411621094 6.495796203613281 30.17950439453125 C 4.1761474609375 35.66376495361328 2.999992370605469 41.4912109375 2.999992370605469 47.49999618530273 C 2.999992370605469 53.50878143310547 4.1761474609375 59.33622741699219 6.495796203613281 64.82048797607422 C 8.736953735351562 70.11914825439453 11.94598388671875 74.87847137451172 16.03375244140625 78.96623992919922 C 20.12152099609375 83.05400848388672 24.88084411621094 86.26304626464844 30.17950439453125 88.50419616699219 C 35.66376495361328 90.82384490966797 41.4912109375 92 47.49999618530273 92 C 53.50878143310547 92 59.33622741699219 90.82384490966797 64.82048797607422 88.50419616699219 C 70.11914825439453 86.26304626464844 74.87847137451172 83.05400848388672 78.96623992919922 78.96623992919922 C 83.05400848388672 74.87847137451172 86.26304626464844 70.11914825439453 88.50419616699219 64.82048797607422 C 90.82384490966797 59.33622741699219 92 53.50878143310547 92 47.49999618530273 C 92 41.4912109375 90.82384490966797 35.66376495361328 88.50419616699219 30.17950439453125 C 86.26304626464844 24.88084411621094 83.05400848388672 20.12152099609375 78.96623992919922 16.03375244140625 C 74.87847137451172 11.94598388671875 70.11914825439453 8.736953735351562 64.82048797607422 6.495796203613281 C 59.33622741699219 4.1761474609375 53.50878143310547 2.999992370605469 47.49999618530273 2.999992370605469 M 47.49999618530273 -7.62939453125e-06 C 73.7335205078125 -7.62939453125e-06 95 21.26647186279297 95 47.49999618530273 C 95 73.7335205078125 73.7335205078125 95 47.49999618530273 95 C 21.26647186279297 95 -7.62939453125e-06 73.7335205078125 -7.62939453125e-06 47.49999618530273 C -7.62939453125e-06 21.26647186279297 21.26647186279297 -7.62939453125e-06 47.49999618530273 -7.62939453125e-06 Z" stroke="none" fill="#f5b104"/>
                                    </g>
                                  </g>
                                </g>
                              </g>
                            </g>
                          </g>
                        </g>
                      </g>
                    </g>
                  </g>
                </g>
              </g>
            </g>
          </g>
        </g>
      </g>
    </g>
    <g id="cifrado_1_" data-name="cifrado (1)" transform="translate(1191.204 1692.471)">
      <path id="Trazado_1058578" data-name="Trazado 1058578" d="M57.058,59.463H9.906A2.4,2.4,0,0,1,7.5,57.058V9.906A2.406,2.406,0,0,1,9.906,7.5H57.058a2.4,2.4,0,0,1,2.405,2.406V57.058A2.4,2.4,0,0,1,57.058,59.463Zm0,0" transform="translate(-6.642 -6.643)" fill="#e9feff"/>
      <path id="Trazado_1058579" data-name="Trazado 1058579" d="M64.566,174.887V147.605a1.11,1.11,0,0,1,1.11-1.11h36.684a1.11,1.11,0,0,1,1.11,1.11v27.282a1.11,1.11,0,0,1-1.11,1.109H65.676A1.109,1.109,0,0,1,64.566,174.887Zm0,0" transform="translate(-57.178 -129.732)" fill="#71d6a2"/>
      <path id="Trazado_1058580" data-name="Trazado 1058580" d="M408.65,7.5h-4.122V59.463h4.122a2.4,2.4,0,0,0,2.405-2.405V9.906A2.4,2.4,0,0,0,408.65,7.5Zm0,0" transform="translate(-358.234 -6.643)" fill="#c4f2f2"/>
      <path id="Trazado_1058581" data-name="Trazado 1058581" d="M57.058,7.5H9.906A2.4,2.4,0,0,0,7.5,9.905V17H59.464V9.906A2.406,2.406,0,0,0,57.058,7.5Zm0,0" transform="translate(-6.642 -6.643)" fill="#67dde0"/>
      <path id="Trazado_1058582" data-name="Trazado 1058582" d="M408.65,7.5h-4.122V17h6.528V9.906A2.4,2.4,0,0,0,408.65,7.5Zm0,0" transform="translate(-358.234 -6.643)" fill="#20aba7"/>
      <path id="Trazado_1058583" data-name="Trazado 1058583" d="M344.053,314.349H332.2a4.173,4.173,0,0,1-4.173-4.173V299.458a4.173,4.173,0,0,1,4.173-4.173h11.849a4.173,4.173,0,0,1,4.173,4.173v10.718A4.173,4.173,0,0,1,344.053,314.349Zm0,0" transform="translate(-290.492 -261.494)" fill="#fc5c5a"/>
      <path id="Trazado_1058584" data-name="Trazado 1058584" d="M452.469,295.285h-2.012v19.064h2.012a4.173,4.173,0,0,0,4.173-4.173V299.458A4.173,4.173,0,0,0,452.469,295.285Zm0,0" transform="translate(-398.907 -261.494)" fill="#d84444"/>
      <path id="Trazado_1058585" data-name="Trazado 1058585" d="M385.876,379.8h-7.568a.632.632,0,0,1-.632-.633v-4.614a.632.632,0,0,1,.632-.633h7.568a.633.633,0,0,1,.633.633v4.614A.633.633,0,0,1,385.876,379.8Zm0,0" transform="translate(-334.455 -331.132)" fill="#ffeb7d"/>
      <g id="Grupo_1226949" data-name="Grupo 1226949" transform="translate(40.659 4.743)">
        <path id="Trazado_1058586" data-name="Trazado 1058586" d="M416.859,42.311a.861.861,0,1,1-.861-.861A.862.862,0,0,1,416.859,42.311Zm0,0" transform="translate(-408.288 -41.449)" fill="#e9feff"/>
        <path id="Trazado_1058587" data-name="Trazado 1058587" d="M386.938,42.311a.861.861,0,1,1-.861-.861A.862.862,0,0,1,386.938,42.311Zm0,0" transform="translate(-381.791 -41.449)" fill="#e9feff"/>
        <path id="Trazado_1058588" data-name="Trazado 1058588" d="M357.016,42.311a.861.861,0,1,1-.861-.861A.862.862,0,0,1,357.016,42.311Zm0,0" transform="translate(-355.293 -41.449)" fill="#e9feff"/>
      </g>
      <path id="Trazado_1058589" data-name="Trazado 1058589" d="M111.435,200.176l-.305.305a.346.346,0,0,1-.229.086.46.46,0,0,1-.4-.5.535.535,0,0,1,.239-.448l1.126-.859a.387.387,0,0,1,.257-.1c.257,0,.553.153.553.4v6.2c0,.257-.315.391-.62.391s-.62-.134-.62-.391Zm0,0" transform="translate(-97.855 -175.934)"/>
      <path id="Trazado_1058590" data-name="Trazado 1058590" d="M142.184,203.683v-2.662a2.238,2.238,0,0,1,4.475,0v2.662a2.238,2.238,0,0,1-4.475,0Zm3.234-2.662c0-.754-.382-1.1-1-1.1s-.992.344-.992,1.1v2.662c0,.754.363,1.1.992,1.1s1-.343,1-1.1Zm0,0" transform="translate(-125.913 -176.082)"/>
      <path id="Trazado_1058591" data-name="Trazado 1058591" d="M190.388,200.176l-.305.305a.346.346,0,0,1-.229.086.46.46,0,0,1-.4-.5.535.535,0,0,1,.239-.448l1.126-.859a.387.387,0,0,1,.257-.1c.257,0,.553.153.553.4v6.2c0,.257-.315.391-.62.391s-.62-.134-.62-.391Zm0,0" transform="translate(-167.772 -175.934)"/>
      <path id="Trazado_1058592" data-name="Trazado 1058592" d="M218.486,200.176l-.305.305a.346.346,0,0,1-.229.086.46.46,0,0,1-.4-.5.536.536,0,0,1,.238-.448l1.126-.859a.388.388,0,0,1,.257-.1c.258,0,.553.153.553.4v6.2c0,.257-.315.391-.62.391s-.62-.134-.62-.391Zm0,0" transform="translate(-192.655 -175.934)"/>
      <path id="Trazado_1058593" data-name="Trazado 1058593" d="M249.23,203.683v-2.662a2.238,2.238,0,0,1,4.475,0v2.662a2.238,2.238,0,0,1-4.475,0Zm3.234-2.662c0-.754-.381-1.1-1-1.1s-.992.344-.992,1.1v2.662c0,.754.363,1.1.992,1.1s1-.343,1-1.1Zm0,0" transform="translate(-220.709 -176.082)"/>
      <path id="Trazado_1058594" data-name="Trazado 1058594" d="M297.439,200.176l-.305.305a.345.345,0,0,1-.229.086.46.46,0,0,1-.4-.5.536.536,0,0,1,.238-.448l1.126-.859a.387.387,0,0,1,.257-.1c.258,0,.553.153.553.4v6.2c0,.257-.315.391-.62.391s-.62-.134-.62-.391Zm0,0" transform="translate(-262.573 -175.934)"/>
      <path id="Trazado_1058595" data-name="Trazado 1058595" d="M325.533,200.176l-.305.305a.346.346,0,0,1-.229.086.46.46,0,0,1-.4-.5.535.535,0,0,1,.239-.448l1.126-.859a.387.387,0,0,1,.257-.1c.258,0,.553.153.553.4v6.2c0,.257-.315.391-.62.391s-.62-.134-.62-.391Zm0,0" transform="translate(-287.452 -175.934)"/>
      <path id="Trazado_1058596" data-name="Trazado 1058596" d="M114.086,303.73v-2.662a2.238,2.238,0,0,1,4.475,0v2.662a2.238,2.238,0,0,1-4.475,0Zm3.235-2.662c0-.754-.382-1.1-1-1.1s-.992.344-.992,1.1v2.662c0,.754.363,1.1.992,1.1s1-.343,1-1.1Zm0,0" transform="translate(-101.03 -264.68)"/>
      <path id="Trazado_1058597" data-name="Trazado 1058597" d="M162.29,300.223l-.305.305a.346.346,0,0,1-.229.086.46.46,0,0,1-.4-.5.536.536,0,0,1,.239-.448l1.126-.859a.387.387,0,0,1,.257-.1c.257,0,.553.153.553.4v6.2c0,.258-.315.391-.62.391s-.62-.134-.62-.391Zm0,0" transform="translate(-142.89 -264.531)"/>
      <path id="Trazado_1058598" data-name="Trazado 1058598" d="M190.388,300.223l-.305.305a.346.346,0,0,1-.229.086.46.46,0,0,1-.4-.5.535.535,0,0,1,.239-.448l1.126-.859a.387.387,0,0,1,.257-.1c.257,0,.553.153.553.4v6.2c0,.258-.315.391-.62.391s-.62-.134-.62-.391Zm0,0" transform="translate(-167.772 -264.531)"/>
      <path id="Trazado_1058599" data-name="Trazado 1058599" d="M221.137,303.73v-2.662a2.238,2.238,0,0,1,4.475,0v2.662a2.238,2.238,0,0,1-4.475,0Zm3.234-2.662c0-.754-.382-1.1-1-1.1s-.992.344-.992,1.1v2.662c0,.754.363,1.1.992,1.1s1-.343,1-1.1Zm0,0" transform="translate(-195.83 -264.68)"/>
      <path id="Trazado_1058600" data-name="Trazado 1058600" d="M269.341,300.223l-.305.305a.346.346,0,0,1-.229.086.46.46,0,0,1-.4-.5.535.535,0,0,1,.239-.448l1.126-.859a.388.388,0,0,1,.257-.1c.258,0,.553.153.553.4v6.2c0,.258-.315.391-.62.391s-.62-.134-.62-.391Zm0,0" transform="translate(-237.69 -264.531)"/>
      <path id="Trazado_1058601" data-name="Trazado 1058601" d="M45.651,43.209H68.042a.858.858,0,0,0,0-1.717H45.651a.858.858,0,0,0,0,1.717Zm0,0" transform="translate(-39.667 -36.745)"/>
      <path id="Trazado_1058602" data-name="Trazado 1058602" d="M337.411,287.785H325.562a5.037,5.037,0,0,0-5.031,5.031v10.718a5.037,5.037,0,0,0,5.031,5.031h11.849a5.037,5.037,0,0,0,5.031-5.031V292.816A5.037,5.037,0,0,0,337.411,287.785Zm3.315,15.749a3.318,3.318,0,0,1-3.315,3.315H325.562a3.318,3.318,0,0,1-3.315-3.315V292.816a3.318,3.318,0,0,1,3.315-3.315h11.849a3.318,3.318,0,0,1,3.315,3.315Zm0,0" transform="translate(-283.85 -254.852)"/>
      <path id="Trazado_1058603" data-name="Trazado 1058603" d="M379.428,329.189v-.851a3.975,3.975,0,0,0-7.949,0v.851a1.492,1.492,0,0,0-1.3,1.478v4.614a1.492,1.492,0,0,0,1.49,1.491h7.567a1.492,1.492,0,0,0,1.491-1.491v-4.614a1.493,1.493,0,0,0-1.3-1.478Zm-3.975-3.109a2.261,2.261,0,0,1,2.258,2.258v.839H373.2v-.839A2.261,2.261,0,0,1,375.454,326.08Zm3.558,8.976H371.9v-4.163h7.116Zm0,0" transform="translate(-327.817 -287.244)"/>
      <path id="Trazado_1058604" data-name="Trazado 1058604" d="M36.29,51.963H3.264a1.549,1.549,0,0,1-1.548-1.547v-39.2H51.964V30.355a.858.858,0,0,0,1.717,0V3.263A3.268,3.268,0,0,0,50.416,0H3.264A3.268,3.268,0,0,0,0,3.263V50.415a3.268,3.268,0,0,0,3.264,3.264H36.29a.858.858,0,1,0,0-1.717ZM3.264,1.716H50.416a1.549,1.549,0,0,1,1.547,1.547V9.5H1.716V3.263A1.549,1.549,0,0,1,3.264,1.716Zm0,0" transform="translate(0 0)"/>
      <path id="Trazado_1058605" data-name="Trazado 1058605" d="M96.827,154.31a.858.858,0,0,0,.858-.858V140.967A1.97,1.97,0,0,0,95.718,139H59.034a1.97,1.97,0,0,0-1.968,1.967v27.282a1.97,1.97,0,0,0,1.968,1.967H84.642a.858.858,0,1,0,0-1.717H59.034a.251.251,0,0,1-.251-.251V140.967a.251.251,0,0,1,.251-.251H95.718a.251.251,0,0,1,.251.251v12.485A.858.858,0,0,0,96.827,154.31Zm0,0" transform="translate(-50.536 -123.093)"/>
    </g>
  </g>
</svg>
