<svg xmlns="http://www.w3.org/2000/svg" xmlns:xlink="http://www.w3.org/1999/xlink" width="103" height="103" viewBox="0 0 103 103">
  <defs>
    <filter id="Trazado_982547" x="0" y="0" width="103" height="103" filterUnits="userSpaceOnUse">
      <feOffset dy="3" input="SourceAlpha"/>
      <feGaussianBlur stdDeviation="3" result="blur"/>
      <feFlood flood-opacity="0.161"/>
      <feComposite operator="in" in2="blur"/>
      <feComposite in="SourceGraphic"/>
    </filter>
  </defs>
  <g id="Grupo_1226300" data-name="Grupo 1226300" transform="translate(-191.313 -5470.455)">
    <g id="Grupo_1225608" data-name="Grupo 1225608" transform="translate(200.313 5476.455)">
      <g id="Grupo_1225482" data-name="Grupo 1225482">
        <g id="Grupo_1210959" data-name="Grupo 1210959">
          <g id="Grupo_1210290" data-name="Grupo 1210290">
            <g id="Grupo_1207485" data-name="Grupo 1207485">
              <g id="Grupo_1207313" data-name="Grupo 1207313">
                <g id="Grupo_1202212" data-name="Grupo 1202212">
                  <g id="Grupo_1174813" data-name="Grupo 1174813">
                    <g id="Grupo_1201680" data-name="Grupo 1201680">
                      <g id="Grupo_1201330" data-name="Grupo 1201330">
                        <g id="Grupo_1172010" data-name="Grupo 1172010">
                          <g id="Grupo_1171046" data-name="Grupo 1171046">
                            <g id="Grupo_1148525" data-name="Grupo 1148525">
                              <g transform="matrix(1, 0, 0, 1, -9, -6)" filter="url(#Trazado_982547)">
                                <g id="Trazado_982547-2" data-name="Trazado 982547" transform="translate(9 6)" fill="#fdf6e4">
                                  <path d="M 42.5 83.5 C 36.96437835693359 83.5 31.59512901306152 82.41617584228516 26.54141235351562 80.27863311767578 C 21.65934181213379 78.21369171142578 17.27447128295898 75.25723266601562 13.50862312316895 71.49137878417969 C 9.742764472961426 67.72553253173828 6.786305904388428 63.34066009521484 4.721364498138428 58.45858764648438 C 2.583823442459106 53.40486907958984 1.5 48.03562164306641 1.5 42.5 C 1.5 36.96437835693359 2.583823442459106 31.59512901306152 4.721364498138428 26.54141235351562 C 6.786305904388428 21.65934181213379 9.742764472961426 17.27448272705078 13.50862312316895 13.50862312316895 C 17.27447128295898 9.742776870727539 21.65934181213379 6.786305904388428 26.54141235351562 4.721364498138428 C 31.59512901306152 2.583823442459106 36.96437835693359 1.5 42.5 1.5 C 48.03562164306641 1.5 53.40486907958984 2.583823442459106 58.45858764648438 4.721364498138428 C 63.34066009521484 6.786305904388428 67.72553253173828 9.742776870727539 71.49137878417969 13.50862312316895 C 75.25723266601562 17.27448272705078 78.21369171142578 21.65934181213379 80.27863311767578 26.54141235351562 C 82.41617584228516 31.59512901306152 83.5 36.96437835693359 83.5 42.5 C 83.5 48.03562164306641 82.41617584228516 53.40486907958984 80.27863311767578 58.45858764648438 C 78.21369171142578 63.34066009521484 75.25723266601562 67.72553253173828 71.49137878417969 71.49137878417969 C 67.72553253173828 75.25723266601562 63.34066009521484 78.21369171142578 58.45858764648438 80.27863311767578 C 53.40486907958984 82.41617584228516 48.03562164306641 83.5 42.5 83.5 Z" stroke="none"/>
                                  <path d="M 42.5 3 C 37.16621398925781 3 31.99356079101562 4.043960571289062 27.125732421875 6.102882385253906 C 22.42246627807617 8.092185974121094 18.19785308837891 10.94070434570312 14.56928253173828 14.56928253173828 C 10.94070434570312 18.19785308837891 8.092185974121094 22.42246627807617 6.102882385253906 27.125732421875 C 4.043960571289062 31.99356079101562 3 37.16621398925781 3 42.5 C 3 47.83378601074219 4.043960571289062 53.00643920898438 6.102882385253906 57.874267578125 C 8.092185974121094 62.57753372192383 10.94070434570312 66.80214691162109 14.56928253173828 70.43071746826172 C 18.19785308837891 74.05929565429688 22.42246627807617 76.90781402587891 27.125732421875 78.89711761474609 C 31.99356079101562 80.95603942871094 37.16621398925781 82 42.5 82 C 47.83378601074219 82 53.00643920898438 80.95603942871094 57.874267578125 78.89711761474609 C 62.57753372192383 76.90781402587891 66.80214691162109 74.05929565429688 70.43071746826172 70.43071746826172 C 74.05929565429688 66.80214691162109 76.90781402587891 62.57753372192383 78.89711761474609 57.874267578125 C 80.95603942871094 53.00643920898438 82 47.83378601074219 82 42.5 C 82 37.16621398925781 80.95603942871094 31.99356079101562 78.89711761474609 27.125732421875 C 76.90781402587891 22.42246627807617 74.05929565429688 18.19785308837891 70.43071746826172 14.56928253173828 C 66.80214691162109 10.94070434570312 62.57753372192383 8.092185974121094 57.874267578125 6.102882385253906 C 53.00643920898438 4.043960571289062 47.83378601074219 3 42.5 3 M 42.5 0 C 65.97210693359375 0 85 19.02789306640625 85 42.5 C 85 65.97210693359375 65.97210693359375 85 42.5 85 C 19.02789306640625 85 0 65.97210693359375 0 42.5 C 0 19.02789306640625 19.02789306640625 0 42.5 0 Z" stroke="none" fill="#856002"/>
                                </g>
                              </g>
                            </g>
                          </g>
                        </g>
                      </g>
                    </g>
                  </g>
                </g>
              </g>
            </g>
          </g>
        </g>
      </g>
    </g>
    <g id="data-complexity_18280143" transform="translate(192.891 5463.149)">
      <g id="Grupo_1226299" data-name="Grupo 1226299" transform="translate(24.214 30.914)">
        <path id="Trazado_1058264" data-name="Trazado 1058264" d="M51.277,166.1H33.071a1.78,1.78,0,0,0-1.771,1.771v3.371a1.78,1.78,0,0,0,1.771,1.771H51.277a1.78,1.78,0,0,0,1.771-1.771v-3.371A1.773,1.773,0,0,0,51.277,166.1Z" transform="translate(-31.3 -151.46)" fill="#dd6e42" fill-rule="evenodd"/>
        <path id="Trazado_1058265" data-name="Trazado 1058265" d="M51.277,233.614H33.071a1.78,1.78,0,0,1-1.771-1.771v-3.371a1.78,1.78,0,0,1,1.771-1.771H51.277a1.78,1.78,0,0,1,1.771,1.771v3.371A1.773,1.773,0,0,1,51.277,233.614Z" transform="translate(-31.3 -205.135)" fill="#f9a13f" fill-rule="evenodd"/>
        <path id="Trazado_1058266" data-name="Trazado 1058266" d="M51.277,287.2H33.071a1.78,1.78,0,0,0-1.771,1.771v3.371a1.78,1.78,0,0,0,1.771,1.771H51.277a1.78,1.78,0,0,0,1.771-1.771v-3.371A1.766,1.766,0,0,0,51.277,287.2Z" transform="translate(-31.3 -258.72)" fill="#80311a" fill-rule="evenodd"/>
        <path id="Trazado_1058267" data-name="Trazado 1058267" d="M160.491,144.1A12.891,12.891,0,1,1,147.6,156.991,12.891,12.891,0,0,1,160.491,144.1Z" transform="translate(-134.309 -131.974)" fill="#d71b5a" fill-rule="evenodd"/>
        <path id="Trazado_1058268" data-name="Trazado 1058268" d="M195.108,186.24l.537-1.44h1.966l.537,1.44a6.981,6.981,0,0,1,2.206.914l1.394-.64,1.383,1.383-.64,1.394a6.83,6.83,0,0,1,.914,2.206l1.44.537v1.954l-1.44.537a7.093,7.093,0,0,1-.914,2.206l.64,1.394-1.383,1.383-1.394-.64a6.829,6.829,0,0,1-2.206.914l-.537,1.44h-1.966l-.537-1.44a6.981,6.981,0,0,1-2.206-.914l-1.394.64-1.394-1.383.64-1.394a6.83,6.83,0,0,1-.914-2.206l-1.44-.537v-1.954l1.44-.537a6.726,6.726,0,0,1,.914-2.206l-.64-1.394,1.394-1.383,1.394.64A6.981,6.981,0,0,1,195.108,186.24Z" transform="translate(-170.446 -168.023)" fill="#fff" fill-rule="evenodd"/>
        <path id="Trazado_1058269" data-name="Trazado 1058269" d="M232.677,225.6a3.583,3.583,0,1,0,3.577,3.577A3.575,3.575,0,0,0,232.677,225.6Z" transform="translate(-206.495 -204.16)" fill="#d71b5a" fill-rule="evenodd"/>
        <path id="Trazado_1058270" data-name="Trazado 1058270" d="M231.506,38.1h3.417a1.81,1.81,0,0,1,1.806,1.806v3.406a1.81,1.81,0,0,1-1.806,1.806h-3.417a1.81,1.81,0,0,1-1.806-1.806V39.906A1.81,1.81,0,0,1,231.506,38.1Zm0,42.754h3.417a1.81,1.81,0,0,1,1.806,1.806v3.417a1.81,1.81,0,0,1-1.806,1.806h-3.417a1.81,1.81,0,0,1-1.806-1.806V82.659A1.817,1.817,0,0,1,231.506,80.854Z" transform="translate(-207.026 -38.089)" fill="#00b2ca" fill-rule="evenodd"/>
        <path id="Trazado_1058271" data-name="Trazado 1058271" d="M371.8,49.954v-11.1a.856.856,0,0,1,.857-.857H382.2a.856.856,0,0,1,.857.857V51.68a.856.856,0,0,1-.857.857h-7.806Z" transform="translate(-332.886 -38)" fill="#f8be9a" fill-rule="evenodd"/>
        <path id="Trazado_1058272" data-name="Trazado 1058272" d="M371.8,349.094v11.1a.856.856,0,0,0,.857.857H382.2a.856.856,0,0,0,.857-.857V347.357a.856.856,0,0,0-.857-.857h-7.806Z" transform="translate(-332.886 -311.243)" fill="#f8be9a" fill-rule="evenodd"/>
        <path id="Trazado_1058273" data-name="Trazado 1058273" d="M421.606,226.1h3.417a1.81,1.81,0,0,1,1.806,1.806v3.406a1.809,1.809,0,0,1-1.806,1.806h-3.417a1.809,1.809,0,0,1-1.806-1.806v-3.394A1.834,1.834,0,0,1,421.606,226.1Z" transform="translate(-375.401 -204.603)" fill="#00b2ca" fill-rule="evenodd"/>
      </g>
      <path id="Trazado_1058274" data-name="Trazado 1058274" d="M70.419,51.508h.331a20.408,20.408,0,0,0-1.726-4.891.649.649,0,0,1-.08-.251H65.7a.9.9,0,0,1-.651-.274L62.477,43.52a.909.909,0,0,1-.274-.651v-4.1a20.737,20.737,0,0,0-7.394-3.2v.571a2.726,2.726,0,0,1-2.72,2.72H48.671a2.726,2.726,0,0,1-2.72-2.72v-.571a20.793,20.793,0,0,0-11.36,6.766.915.915,0,1,1-1.383-1.2,22.673,22.673,0,0,1,12.743-7.44V32.72A2.726,2.726,0,0,1,48.671,30h3.417a2.726,2.726,0,0,1,2.72,2.72v.971A22.833,22.833,0,0,1,62.2,36.583V31.771a1.761,1.761,0,0,1,1.76-1.76h9.543a1.761,1.761,0,0,1,1.76,1.76V44.594a1.761,1.761,0,0,1-1.76,1.76H70.922A22.4,22.4,0,0,1,72.6,51.5h1.223a2.726,2.726,0,0,1,2.72,2.72v3.406a2.726,2.726,0,0,1-2.72,2.72H72.6a22.411,22.411,0,0,1-1.577,4.914h2.48a1.761,1.761,0,0,1,1.76,1.76V79.839a1.761,1.761,0,0,1-1.76,1.76H63.962a1.761,1.761,0,0,1-1.76-1.76V75.245a22.732,22.732,0,0,1-7.394,2.891v.754a2.726,2.726,0,0,1-2.72,2.72H48.671a2.726,2.726,0,0,1-2.72-2.72v-.754a22.726,22.726,0,0,1-8.857-3.863l-1.109,1.109a.913.913,0,0,1-1.543-.457l-1.177-4.4a.921.921,0,0,1,1.131-1.12l4.434,1.189a.917.917,0,0,1,.411,1.531l-.834.834a20.884,20.884,0,0,0,7.543,3.314v-.8a2.726,2.726,0,0,1,2.72-2.72h3.417a2.726,2.726,0,0,1,2.72,2.72v.8a20.737,20.737,0,0,0,7.394-3.2V68.742a.928.928,0,0,1,.274-.651l2.571-2.571a.9.9,0,0,1,.651-.274h3.314c.011-.011.011-.011.011-.023a21.447,21.447,0,0,0,1.726-4.891h-.331a2.726,2.726,0,0,1-2.72-2.72V54.228a2.726,2.726,0,0,1,2.72-2.72Zm3.417,1.817H70.419a.893.893,0,0,0-.891.891v3.406a.893.893,0,0,0,.891.891h3.417a.893.893,0,0,0,.891-.891V54.228A.9.9,0,0,0,73.836,53.325ZM36.157,71.782l-.7-.183.366,1.383,1.017-1.017ZM52.111,31.84H48.694a.893.893,0,0,0-.891.891v3.406a.893.893,0,0,0,.891.891h3.417A.893.893,0,0,0,53,36.137V32.731A.908.908,0,0,0,52.111,31.84Zm0,42.765H48.694a.893.893,0,0,0-.891.891v3.417a.893.893,0,0,0,.891.891h3.417A.893.893,0,0,0,53,78.914V75.5A.908.908,0,0,0,52.111,74.605ZM50.4,42.126a13.806,13.806,0,1,1-7.954,25.1H25.986A2.7,2.7,0,0,1,23.3,64.537V61.165a2.644,2.644,0,0,1,.674-1.771,2.7,2.7,0,0,1-.674-1.771V54.251a2.644,2.644,0,0,1,.674-1.771,2.7,2.7,0,0,1-.674-1.771V47.337a2.7,2.7,0,0,1,2.686-2.686H42.443A13.752,13.752,0,0,1,50.4,42.126ZM40.34,65.382A13.854,13.854,0,0,1,37.3,60.3H25.986a.863.863,0,0,0-.857.857v3.371a.863.863,0,0,0,.857.857Zm-3.509-6.9a14.086,14.086,0,0,1,0-5.086H25.986a.863.863,0,0,0-.857.857v3.371a.863.863,0,0,0,.857.857Zm.469-6.926a13.855,13.855,0,0,1,3.04-5.086H25.986a.863.863,0,0,0-.857.857V50.7a.863.863,0,0,0,.857.857Zm21.565-4.091a11.976,11.976,0,1,0,0,16.937A11.981,11.981,0,0,0,58.865,47.463ZM27.7,61.931a.914.914,0,0,1,0,1.829h-.114a.914.914,0,0,1,0-1.829Zm3.12,0a.914.914,0,1,1,0,1.829h-.114a.914.914,0,0,1,0-1.829Zm3.12,0a.914.914,0,0,1,0,1.829h-.114a.914.914,0,1,1,0-1.829ZM27.7,55.017a.914.914,0,1,1,0,1.829h-.114a.914.914,0,1,1,0-1.829Zm3.12,0a.914.914,0,1,1,0,1.829h-.114a.914.914,0,1,1,0-1.829Zm3.12,0a.914.914,0,1,1,0,1.829h-.114a.914.914,0,1,1,0-1.829ZM27.7,48.1a.914.914,0,1,1,0,1.829h-.114a.914.914,0,1,1,0-1.829Zm3.12,0a.914.914,0,1,1,0,1.829h-.114a.914.914,0,1,1,0-1.829Zm3.12,0a.914.914,0,1,1,0,1.829h-.114a.914.914,0,1,1,0-1.829ZM50.4,53.257A2.664,2.664,0,1,0,53.06,55.92,2.667,2.667,0,0,0,50.4,53.257Zm-3.177-.5a4.493,4.493,0,1,1,0,6.354,4.5,4.5,0,0,1,0-6.354Zm.971-4.389.366-.983a.922.922,0,0,1,.857-.594H51.38a.909.909,0,0,1,.88.674l.343.914a7.909,7.909,0,0,1,1.577.651l.96-.446a.9.9,0,0,1,1.017.183l1.394,1.394a.907.907,0,0,1,.16,1.074l-.411.914a7.909,7.909,0,0,1,.651,1.577l.983.377a.911.911,0,0,1,.594.857v1.954a.909.909,0,0,1-.674.88l-.914.343a7.909,7.909,0,0,1-.651,1.577l.434.96a.9.9,0,0,1-.183,1.017l-1.394,1.383a.9.9,0,0,1-1.074.16l-.914-.411a6.7,6.7,0,0,1-.766.366,8.465,8.465,0,0,1-.811.286l-.377.983a.911.911,0,0,1-.857.594H49.38a.909.909,0,0,1-.88-.674l-.343-.914a7.909,7.909,0,0,1-1.577-.651l-.971.446a.924.924,0,0,1-1.017-.183l-1.383-1.383a.907.907,0,0,1-.16-1.074l.411-.914a7.879,7.879,0,0,1-.366-.766,8.467,8.467,0,0,1-.286-.811l-.994-.366a.922.922,0,0,1-.594-.857V54.948a.909.909,0,0,1,.674-.88l.914-.343a7.909,7.909,0,0,1,.651-1.577l-.434-.96a.9.9,0,0,1,.183-1.017l1.383-1.394a.924.924,0,0,1,1.074-.16l.914.411A10.19,10.19,0,0,1,48.191,48.365Zm1.851.251-.309.834a.891.891,0,0,1-.663.571,5.9,5.9,0,0,0-1.92.8.9.9,0,0,1-.869.057L45.46,50.5l-.491.491.354.789c.32.674-.206.994-.514,1.783a6.224,6.224,0,0,0-.331,1.017.921.921,0,0,1-.571.674l-.834.309v.709l.834.309a.913.913,0,0,1,.571.663,8.282,8.282,0,0,0,.309.994,5.491,5.491,0,0,0,.48.926.879.879,0,0,1,.057.857l-.343.834.491.491.789-.354a.913.913,0,0,1,.9.046,6.016,6.016,0,0,0,1.9.789.921.921,0,0,1,.674.571l.309.834h.709l.32-.834a.893.893,0,0,1,.651-.571,8.281,8.281,0,0,0,.994-.309,5.491,5.491,0,0,0,.926-.48.9.9,0,0,1,.869-.057l.823.377.491-.491-.354-.789a.913.913,0,0,1,.046-.9,6.016,6.016,0,0,0,.789-1.9.921.921,0,0,1,.571-.674l.834-.309v-.709l-.834-.309a.913.913,0,0,1-.571-.663,5.9,5.9,0,0,0-.8-1.92.879.879,0,0,1-.057-.857l.377-.823-.491-.491-.777.354c-.674.32-1.006-.206-1.783-.514a6.223,6.223,0,0,0-1.017-.331.921.921,0,0,1-.674-.571l-.32-.834h-.72ZM65.711,35.44a.914.914,0,0,1,0-1.829H69.7a.914.914,0,1,1,0,1.829Zm0,6.617a.914.914,0,0,1,0-1.829h6.08a.914.914,0,1,1,0,1.829Zm0-3.314a.914.914,0,0,1,0-1.829h5.84a.914.914,0,1,1,0,1.829Zm-1.669-6.9V42.5l2.046,2.046h7.371V31.84Zm1.669,46.194a.914.914,0,0,1,0-1.829H69.7a.914.914,0,1,1,0,1.829Zm0-6.628a.914.914,0,0,1,0-1.829h6.08a.914.914,0,0,1,0,1.829Zm0,3.314a.914.914,0,0,1,0-1.829h5.84a.914.914,0,1,1,0,1.829Zm-1.669-5.577V79.805h9.417V67.1H66.088Z"/>
    </g>
  </g>
</svg>
