<svg xmlns="http://www.w3.org/2000/svg" xmlns:xlink="http://www.w3.org/1999/xlink" width="103" height="103" viewBox="0 0 103 103">
  <defs>
    <filter id="Trazado_982547" x="0" y="0" width="103" height="103" filterUnits="userSpaceOnUse">
      <feOffset dy="3" input="SourceAlpha"/>
      <feGaussianBlur stdDeviation="3" result="blur"/>
      <feFlood flood-opacity="0.161"/>
      <feComposite operator="in" in2="blur"/>
      <feComposite in="SourceGraphic"/>
    </filter>
  </defs>
  <g id="Grupo_1226303" data-name="Grupo 1226303" transform="translate(-611.313 -5470.455)">
    <g id="Grupo_1225641" data-name="Grupo 1225641" transform="translate(620.313 5476.455)">
      <g id="Grupo_1225483" data-name="Grupo 1225483">
        <g id="Grupo_1210960" data-name="Grupo 1210960">
          <g id="Grupo_1210290" data-name="Grupo 1210290">
            <g id="Grupo_1207485" data-name="Grupo 1207485">
              <g id="Grupo_1207313" data-name="Grupo 1207313">
                <g id="Grupo_1202212" data-name="Grupo 1202212">
                  <g id="Grupo_1174813" data-name="Grupo 1174813">
                    <g id="Grupo_1201680" data-name="Grupo 1201680">
                      <g id="Grupo_1201330" data-name="Grupo 1201330">
                        <g id="Grupo_1172010" data-name="Grupo 1172010">
                          <g id="Grupo_1171046" data-name="Grupo 1171046">
                            <g id="Grupo_1148525" data-name="Grupo 1148525">
                              <g transform="matrix(1, 0, 0, 1, -9, -6)" filter="url(#Trazado_982547)">
                                <g id="Trazado_982547-2" data-name="Trazado 982547" transform="translate(9 6)" fill="#fdf6e4">
                                  <path d="M 42.5 83.5 C 36.96437835693359 83.5 31.59512901306152 82.41617584228516 26.54141235351562 80.27863311767578 C 21.65934181213379 78.21369171142578 17.27447128295898 75.25723266601562 13.50862312316895 71.49137878417969 C 9.742764472961426 67.72553253173828 6.786305904388428 63.34066009521484 4.721364498138428 58.45858764648438 C 2.583823442459106 53.40486907958984 1.5 48.03562164306641 1.5 42.5 C 1.5 36.96437835693359 2.583823442459106 31.59512901306152 4.721364498138428 26.54141235351562 C 6.786305904388428 21.65934181213379 9.742764472961426 17.27448272705078 13.50862312316895 13.50862312316895 C 17.27447128295898 9.742776870727539 21.65934181213379 6.786305904388428 26.54141235351562 4.721364498138428 C 31.59512901306152 2.583823442459106 36.96437835693359 1.5 42.5 1.5 C 48.03562164306641 1.5 53.40486907958984 2.583823442459106 58.45858764648438 4.721364498138428 C 63.34066009521484 6.786305904388428 67.72553253173828 9.742776870727539 71.49137878417969 13.50862312316895 C 75.25723266601562 17.27448272705078 78.21369171142578 21.65934181213379 80.27863311767578 26.54141235351562 C 82.41617584228516 31.59512901306152 83.5 36.96437835693359 83.5 42.5 C 83.5 48.03562164306641 82.41617584228516 53.40486907958984 80.27863311767578 58.45858764648438 C 78.21369171142578 63.34066009521484 75.25723266601562 67.72553253173828 71.49137878417969 71.49137878417969 C 67.72553253173828 75.25723266601562 63.34066009521484 78.21369171142578 58.45858764648438 80.27863311767578 C 53.40486907958984 82.41617584228516 48.03562164306641 83.5 42.5 83.5 Z" stroke="none"/>
                                  <path d="M 42.5 3 C 37.16621398925781 3 31.99356079101562 4.043960571289062 27.125732421875 6.102882385253906 C 22.42246627807617 8.092185974121094 18.19785308837891 10.94070434570312 14.56928253173828 14.56928253173828 C 10.94070434570312 18.19785308837891 8.092185974121094 22.42246627807617 6.102882385253906 27.125732421875 C 4.043960571289062 31.99356079101562 3 37.16621398925781 3 42.5 C 3 47.83378601074219 4.043960571289062 53.00643920898438 6.102882385253906 57.874267578125 C 8.092185974121094 62.57753372192383 10.94070434570312 66.80214691162109 14.56928253173828 70.43071746826172 C 18.19785308837891 74.05929565429688 22.42246627807617 76.90781402587891 27.125732421875 78.89711761474609 C 31.99356079101562 80.95603942871094 37.16621398925781 82 42.5 82 C 47.83378601074219 82 53.00643920898438 80.95603942871094 57.874267578125 78.89711761474609 C 62.57753372192383 76.90781402587891 66.80214691162109 74.05929565429688 70.43071746826172 70.43071746826172 C 74.05929565429688 66.80214691162109 76.90781402587891 62.57753372192383 78.89711761474609 57.874267578125 C 80.95603942871094 53.00643920898438 82 47.83378601074219 82 42.5 C 82 37.16621398925781 80.95603942871094 31.99356079101562 78.89711761474609 27.125732421875 C 76.90781402587891 22.42246627807617 74.05929565429688 18.19785308837891 70.43071746826172 14.56928253173828 C 66.80214691162109 10.94070434570312 62.57753372192383 8.092185974121094 57.874267578125 6.102882385253906 C 53.00643920898438 4.043960571289062 47.83378601074219 3 42.5 3 M 42.5 0 C 65.97210693359375 0 85 19.02789306640625 85 42.5 C 85 65.97210693359375 65.97210693359375 85 42.5 85 C 19.02789306640625 85 0 65.97210693359375 0 42.5 C 0 19.02789306640625 19.02789306640625 0 42.5 0 Z" stroke="none" fill="#856002"/>
                                </g>
                              </g>
                            </g>
                          </g>
                        </g>
                      </g>
                    </g>
                  </g>
                </g>
              </g>
            </g>
          </g>
        </g>
      </g>
    </g>
    <g id="algorithm_490273" transform="translate(635.046 5483.545)">
      <path id="Trazado_1058275" data-name="Trazado 1058275" d="M185.637,33.637V16H168V33.637h17.637Z" transform="translate(-149.481 -7.118)" fill="#f6bf58"/>
      <path id="Trazado_1058276" data-name="Trazado 1058276" d="M169.7,239.055h6.173L179.4,232H163.527L160,239.055Z" transform="translate(-142.363 -199.309)" fill="#f9ecde"/>
      <g id="Grupo_1226301" data-name="Grupo 1226301" transform="translate(0.592 12.409)">
        <ellipse id="Elipse_12627" data-name="Elipse 12627" cx="5.413" cy="5.094" rx="5.413" ry="5.094" transform="translate(0 37.329)" fill="#66cedb"/>
        <circle id="Elipse_12628" data-name="Elipse 12628" cx="5.094" cy="5.094" r="5.094" transform="translate(14.646 37.329)" fill="#66cedb"/>
        <circle id="Elipse_12629" data-name="Elipse 12629" cx="5.094" cy="5.094" r="5.094" transform="translate(28.655 37.329)" fill="#66cedb"/>
        <ellipse id="Elipse_12630" data-name="Elipse 12630" cx="5.413" cy="5.094" rx="5.413" ry="5.094" transform="translate(42.664 37.329)" fill="#66cedb"/>
        <path id="Trazado_1058277" data-name="Trazado 1058277" d="M378.582,48H368v7.055h10.582Z" transform="translate(-328.028 -48)" fill="#66cedb"/>
      </g>
      <g id="Grupo_1226302" data-name="Grupo 1226302" transform="translate(0 8)">
        <rect id="Rectángulo_422438" data-name="Rectángulo 422438" width="12.736" height="1.91" transform="translate(20.969 3.531)" fill="#010133"/>
        <rect id="Rectángulo_422439" data-name="Rectángulo 422439" width="12.736" height="1.274" transform="translate(20.969 7.352)" fill="#010133"/>
        <rect id="Rectángulo_422440" data-name="Rectángulo 422440" width="12.736" height="1.91" transform="translate(20.969 10.535)" fill="#010133"/>
        <rect id="Rectángulo_422441" data-name="Rectángulo 422441" width="12.736" height="1.274" transform="translate(20.969 14.356)" fill="#010133"/>
        <path id="Trazado_1058278" data-name="Trazado 1058278" d="M49.383,48.635v-3.6a.881.881,0,0,0-.882-.882H28.219V40.628H33.51a.883.883,0,0,0,.789-.488l3.527-7.055a.882.882,0,0,0-.789-1.276H28.219V27.4h7.937a.881.881,0,0,0,.882-.882v-9.7h2.646v2.646a.881.881,0,0,0,.882.882H51.146a.881.881,0,0,0,.882-.882V12.409a.881.881,0,0,0-.882-.882H40.564a.881.881,0,0,0-.882.882v2.646H37.037V8.882A.881.881,0,0,0,36.155,8H18.519a.881.881,0,0,0-.882.882v4.926l-2.022-2.022-1.247,1.247,2.022,2.022H7.937v1.764H16.39L14.368,18.84l1.247,1.247,2.022-2.022v8.453a.881.881,0,0,0,.882.882h7.937V31.81H21.164a.883.883,0,0,0-.789.488l-3.527,7.055a.882.882,0,0,0,.789,1.276h8.818v3.527H6.173a.881.881,0,0,0-.882.882v3.6a6.173,6.173,0,1,0,1.764,0V45.919H19.4v2.716a6.173,6.173,0,1,0,1.764,0V45.919H33.51v2.716a6.173,6.173,0,1,0,1.764,0V45.919H47.619v2.716a6.173,6.173,0,1,0,1.764,0ZM41.446,13.291h8.818v5.291H41.446ZM19.4,9.764H35.273V25.637H19.4Zm2.309,23.81h13.9l-2.646,5.291h-13.9ZM10.582,54.737a4.409,4.409,0,1,1-4.409-4.409A4.414,4.414,0,0,1,10.582,54.737Zm14.109,0a4.409,4.409,0,1,1-4.409-4.409A4.414,4.414,0,0,1,24.691,54.737Zm14.109,0a4.409,4.409,0,1,1-4.409-4.409A4.414,4.414,0,0,1,38.8,54.737Zm9.7,4.409a4.409,4.409,0,1,1,4.409-4.409A4.414,4.414,0,0,1,48.5,59.146Z" transform="translate(0 -8)" fill="#010133"/>
        <rect id="Rectángulo_422442" data-name="Rectángulo 422442" width="1.274" height="1.274" transform="translate(45.167 14.356)" fill="#010133"/>
        <rect id="Rectángulo_422443" data-name="Rectángulo 422443" width="1.274" height="1.91" transform="translate(45.167 17.54)" fill="#010133"/>
        <rect id="Rectángulo_422444" data-name="Rectángulo 422444" width="1.274" height="1.274" transform="translate(45.167 21.361)" fill="#010133"/>
        <rect id="Rectángulo_422445" data-name="Rectángulo 422445" width="1.274" height="1.91" transform="translate(45.167 24.545)" fill="#010133"/>
        <rect id="Rectángulo_422446" data-name="Rectángulo 422446" width="1.274" height="1.91" transform="translate(45.167 28.365)" fill="#010133"/>
        <rect id="Rectángulo_422447" data-name="Rectángulo 422447" width="1.91" height="1.91" transform="translate(41.346 28.365)" fill="#010133"/>
        <rect id="Rectángulo_422448" data-name="Rectángulo 422448" width="1.274" height="1.91" transform="translate(38.162 28.365)" fill="#010133"/>
        <rect id="Rectángulo_422449" data-name="Rectángulo 422449" width="1.91" height="1.274" transform="translate(4.413 7.352)" fill="#010133"/>
        <rect id="Rectángulo_422450" data-name="Rectángulo 422450" width="1.91" height="1.274" transform="translate(0.592 7.352)" fill="#010133"/>
        <rect id="Rectángulo_422451" data-name="Rectángulo 422451" width="8.915" height="1.91" transform="translate(22.879 27.092)" fill="#010133"/>
      </g>
    </g>
  </g>
</svg>
