<svg xmlns="http://www.w3.org/2000/svg" xmlns:xlink="http://www.w3.org/1999/xlink" width="103" height="103" viewBox="0 0 103 103">
  <defs>
    <filter id="Trazado_982547" x="0" y="0" width="103" height="103" filterUnits="userSpaceOnUse">
      <feOffset dy="3" input="SourceAlpha"/>
      <feGaussianBlur stdDeviation="3" result="blur"/>
      <feFlood flood-opacity="0.161"/>
      <feComposite operator="in" in2="blur"/>
      <feComposite in="SourceGraphic"/>
    </filter>
  </defs>
  <g id="Grupo_1226305" data-name="Grupo 1226305" transform="translate(-1035.313 -5470.455)">
    <g id="Grupo_1225643" data-name="Grupo 1225643" transform="translate(1044.313 5476.455)">
      <g id="Grupo_1225484" data-name="Grupo 1225484">
        <g id="Grupo_1210961" data-name="Grupo 1210961">
          <g id="Grupo_1210290" data-name="Grupo 1210290">
            <g id="Grupo_1207485" data-name="Grupo 1207485">
              <g id="Grupo_1207313" data-name="Grupo 1207313">
                <g id="Grupo_1202212" data-name="Grupo 1202212">
                  <g id="Grupo_1174813" data-name="Grupo 1174813">
                    <g id="Grupo_1201680" data-name="Grupo 1201680">
                      <g id="Grupo_1201330" data-name="Grupo 1201330">
                        <g id="Grupo_1172010" data-name="Grupo 1172010">
                          <g id="Grupo_1171046" data-name="Grupo 1171046">
                            <g id="Grupo_1148525" data-name="Grupo 1148525">
                              <g transform="matrix(1, 0, 0, 1, -9, -6)" filter="url(#Trazado_982547)">
                                <g id="Trazado_982547-2" data-name="Trazado 982547" transform="translate(9 6)" fill="#fdf6e4">
                                  <path d="M 42.5 83.5 C 36.96437835693359 83.5 31.59512901306152 82.41617584228516 26.54141235351562 80.27863311767578 C 21.65934181213379 78.21369171142578 17.27447128295898 75.25723266601562 13.50862312316895 71.49137878417969 C 9.742764472961426 67.72553253173828 6.786305904388428 63.34066009521484 4.721364498138428 58.45858764648438 C 2.583823442459106 53.40486907958984 1.5 48.03562164306641 1.5 42.5 C 1.5 36.96437835693359 2.583823442459106 31.59512901306152 4.721364498138428 26.54141235351562 C 6.786305904388428 21.65934181213379 9.742764472961426 17.27448272705078 13.50862312316895 13.50862312316895 C 17.27447128295898 9.742776870727539 21.65934181213379 6.786305904388428 26.54141235351562 4.721364498138428 C 31.59512901306152 2.583823442459106 36.96437835693359 1.5 42.5 1.5 C 48.03562164306641 1.5 53.40486907958984 2.583823442459106 58.45858764648438 4.721364498138428 C 63.34066009521484 6.786305904388428 67.72553253173828 9.742776870727539 71.49137878417969 13.50862312316895 C 75.25723266601562 17.27448272705078 78.21369171142578 21.65934181213379 80.27863311767578 26.54141235351562 C 82.41617584228516 31.59512901306152 83.5 36.96437835693359 83.5 42.5 C 83.5 48.03562164306641 82.41617584228516 53.40486907958984 80.27863311767578 58.45858764648438 C 78.21369171142578 63.34066009521484 75.25723266601562 67.72553253173828 71.49137878417969 71.49137878417969 C 67.72553253173828 75.25723266601562 63.34066009521484 78.21369171142578 58.45858764648438 80.27863311767578 C 53.40486907958984 82.41617584228516 48.03562164306641 83.5 42.5 83.5 Z" stroke="none"/>
                                  <path d="M 42.5 3 C 37.16621398925781 3 31.99356079101562 4.043960571289062 27.125732421875 6.102882385253906 C 22.42246627807617 8.092185974121094 18.19785308837891 10.94070434570312 14.56928253173828 14.56928253173828 C 10.94070434570312 18.19785308837891 8.092185974121094 22.42246627807617 6.102882385253906 27.125732421875 C 4.043960571289062 31.99356079101562 3 37.16621398925781 3 42.5 C 3 47.83378601074219 4.043960571289062 53.00643920898438 6.102882385253906 57.874267578125 C 8.092185974121094 62.57753372192383 10.94070434570312 66.80214691162109 14.56928253173828 70.43071746826172 C 18.19785308837891 74.05929565429688 22.42246627807617 76.90781402587891 27.125732421875 78.89711761474609 C 31.99356079101562 80.95603942871094 37.16621398925781 82 42.5 82 C 47.83378601074219 82 53.00643920898438 80.95603942871094 57.874267578125 78.89711761474609 C 62.57753372192383 76.90781402587891 66.80214691162109 74.05929565429688 70.43071746826172 70.43071746826172 C 74.05929565429688 66.80214691162109 76.90781402587891 62.57753372192383 78.89711761474609 57.874267578125 C 80.95603942871094 53.00643920898438 82 47.83378601074219 82 42.5 C 82 37.16621398925781 80.95603942871094 31.99356079101562 78.89711761474609 27.125732421875 C 76.90781402587891 22.42246627807617 74.05929565429688 18.19785308837891 70.43071746826172 14.56928253173828 C 66.80214691162109 10.94070434570312 62.57753372192383 8.092185974121094 57.874267578125 6.102882385253906 C 53.00643920898438 4.043960571289062 47.83378601074219 3 42.5 3 M 42.5 0 C 65.97210693359375 0 85 19.02789306640625 85 42.5 C 85 65.97210693359375 65.97210693359375 85 42.5 85 C 19.02789306640625 85 0 65.97210693359375 0 42.5 C 0 19.02789306640625 19.02789306640625 0 42.5 0 Z" stroke="none" fill="#856002"/>
                                </g>
                              </g>
                            </g>
                          </g>
                        </g>
                      </g>
                    </g>
                  </g>
                </g>
              </g>
            </g>
          </g>
        </g>
      </g>
    </g>
    <g id="calendar_14148158" transform="translate(1059.293 5494.113)">
      <path id="Trazado_1058279" data-name="Trazado 1058279" d="M50.61,10H4.7A1.7,1.7,0,0,0,3,11.7V45.708a1.7,1.7,0,0,0,1.7,1.7H43.809v-11.9h8.5V11.7A1.7,1.7,0,0,0,50.61,10Z" transform="translate(-0.15 -1.049)" fill="#e5e5e5"/>
      <path id="Trazado_1058280" data-name="Trazado 1058280" d="M49.761,53.676a14.275,14.275,0,0,1-3.673,1.53,3.511,3.511,0,0,0-6.971,0,14.275,14.275,0,0,1-3.673-1.53,3.5,3.5,0,0,0-4.923-4.914A14.555,14.555,0,0,1,29,45.089a3.511,3.511,0,0,0,0-6.972,14.555,14.555,0,0,1,1.522-3.673,3.511,3.511,0,0,0,4.923-4.923A14.555,14.555,0,0,1,39.117,28a3.511,3.511,0,0,0,6.972,0,14.555,14.555,0,0,1,3.673,1.522,3.511,3.511,0,0,0,4.923,4.923,14.555,14.555,0,0,1,1.522,3.673,3.511,3.511,0,0,0,0,6.972,14.555,14.555,0,0,1-1.522,3.673,3.5,3.5,0,0,0-4.923,4.914Z" transform="translate(-4.045 -3.745)" fill="#c6b87d"/>
      <path id="Trazado_1058281" data-name="Trazado 1058281" d="M55.525,41.6A3.52,3.52,0,0,1,58.6,38.117a14.555,14.555,0,0,0-1.522-3.673,3.511,3.511,0,0,1-4.923-4.923A14.555,14.555,0,0,0,48.486,28,3.52,3.52,0,0,1,45,31.078V52.128a3.52,3.52,0,0,1,3.486,3.078,14.274,14.274,0,0,0,3.673-1.53,3.5,3.5,0,0,1,4.923-4.914A14.555,14.555,0,0,0,58.6,45.089,3.52,3.52,0,0,1,55.525,41.6Z" transform="translate(-6.442 -3.745)" fill="#a59965"/>
      <circle id="Elipse_12631" data-name="Elipse 12631" cx="6.801" cy="6.801" r="6.801" transform="translate(31.756 31.056)" fill="#4a8cdd"/>
      <path id="Trazado_1058282" data-name="Trazado 1058282" d="M45,36V49.6A6.8,6.8,0,0,0,45,36Z" transform="translate(-6.442 -4.944)" fill="#356baa"/>
      <ellipse id="Elipse_12632" data-name="Elipse 12632" cx="0.791" cy="1.624" rx="0.791" ry="1.624" transform="translate(44.069 32.16) rotate(-45)" fill="#f7f7f7"/>
      <circle id="Elipse_12633" data-name="Elipse 12633" cx="0.85" cy="0.85" r="0.85" transform="translate(46.209 34.457)" fill="#f7f7f7"/>
      <g id="Grupo_1226304" data-name="Grupo 1226304" transform="translate(6.251 20.854)">
        <path id="Trazado_1058283" data-name="Trazado 1058283" d="M7,44h5.1v5.1H7Z" transform="translate(-7 -26.996)" fill="#bcae73"/>
        <path id="Trazado_1058284" data-name="Trazado 1058284" d="M17,34h5.1v5.1H17Z" transform="translate(-8.498 -25.498)" fill="#bcae73"/>
        <path id="Trazado_1058285" data-name="Trazado 1058285" d="M7,34h5.1v5.1H7Z" transform="translate(-7 -25.498)" fill="#bcae73"/>
        <path id="Trazado_1058286" data-name="Trazado 1058286" d="M27,24h5.1v5.1H27Z" transform="translate(-9.996 -24)" fill="#bcae73"/>
        <path id="Trazado_1058287" data-name="Trazado 1058287" d="M17,24h5.1v5.1H17Z" transform="translate(-8.498 -24)" fill="#bcae73"/>
      </g>
      <path id="Trazado_1058288" data-name="Trazado 1058288" d="M20,24h2.551v5.1H20Z" transform="translate(-2.697 -3.146)" fill="#8e845a"/>
      <path id="Trazado_1058289" data-name="Trazado 1058289" d="M30,24h2.551v5.1H30Z" transform="translate(-4.195 -3.146)" fill="#8e845a"/>
      <path id="Trazado_1058290" data-name="Trazado 1058290" d="M10,34h2.551v5.1H10Z" transform="translate(-1.199 -4.644)" fill="#8e845a"/>
      <path id="Trazado_1058291" data-name="Trazado 1058291" d="M10,44h2.551v5.1H10Z" transform="translate(-1.199 -6.143)" fill="#8e845a"/>
      <path id="Trazado_1058292" data-name="Trazado 1058292" d="M20,34h2.551v5.1H20Z" transform="translate(-2.697 -4.644)" fill="#8e845a"/>
      <path id="Trazado_1058293" data-name="Trazado 1058293" d="M52.311,18.5H3V11.7A1.7,1.7,0,0,1,4.7,10H50.61a1.7,1.7,0,0,1,1.7,1.7Z" transform="translate(-0.15 -1.049)" fill="#c6b87d"/>
      <circle id="Elipse_12634" data-name="Elipse 12634" cx="2.551" cy="2.551" r="2.551" transform="translate(6.251 10.652)" fill="#60676d"/>
      <circle id="Elipse_12635" data-name="Elipse 12635" cx="2.551" cy="2.551" r="2.551" transform="translate(13.903 10.652)" fill="#60676d"/>
      <circle id="Elipse_12636" data-name="Elipse 12636" cx="2.551" cy="2.551" r="2.551" transform="translate(36.007 10.652)" fill="#60676d"/>
      <circle id="Elipse_12637" data-name="Elipse 12637" cx="2.551" cy="2.551" r="2.551" transform="translate(43.659 10.652)" fill="#60676d"/>
      <rect id="Rectángulo_422452" data-name="Rectángulo 422452" width="3.401" height="8.502" rx="1.7" transform="translate(7.101 3.85)" fill="#a5a5a5"/>
      <rect id="Rectángulo_422453" data-name="Rectángulo 422453" width="3.401" height="8.502" rx="1.7" transform="translate(14.753 3.85)" fill="#a5a5a5"/>
      <rect id="Rectángulo_422454" data-name="Rectángulo 422454" width="3.401" height="8.502" rx="1.7" transform="translate(36.857 3.85)" fill="#a5a5a5"/>
      <rect id="Rectángulo_422455" data-name="Rectángulo 422455" width="3.401" height="8.502" rx="1.7" transform="translate(44.509 3.85)" fill="#a5a5a5"/>
      <path id="Trazado_1058294" data-name="Trazado 1058294" d="M50.46,8.1h-1.7V5.551a2.551,2.551,0,1,0-5.1,0V8.1H41.108V5.551a2.551,2.551,0,0,0-5.1,0V8.1H19V5.551a2.551,2.551,0,0,0-5.1,0V8.1H11.352V5.551a2.551,2.551,0,1,0-5.1,0V8.1h-1.7A2.551,2.551,0,0,0,2,10.652V44.659a2.551,2.551,0,0,0,2.551,2.551H20.7v-1.7H4.551a.85.85,0,0,1-.85-.85V18.3h47.61v6.8h1.7V10.652A2.551,2.551,0,0,0,50.46,8.1ZM47.91,13.2a1.7,1.7,0,1,1-3.4,0,1.581,1.581,0,0,1,.111-.57,2.5,2.5,0,0,0,3.18,0,1.581,1.581,0,0,1,.111.57ZM45.359,5.551a.85.85,0,0,1,1.7,0v5.1a.85.85,0,1,1-1.7,0Zm-5.1,7.652a1.7,1.7,0,1,1-3.4,0,1.581,1.581,0,0,1,.111-.57,2.5,2.5,0,0,0,3.18,0,1.581,1.581,0,0,1,.111.57ZM37.708,5.551a.85.85,0,1,1,1.7,0v5.1a.85.85,0,1,1-1.7,0ZM18.153,13.2a1.7,1.7,0,0,1-3.4,0,1.581,1.581,0,0,1,.111-.57,2.5,2.5,0,0,0,3.18,0A1.581,1.581,0,0,1,18.153,13.2ZM15.6,5.551a.85.85,0,1,1,1.7,0v5.1a.85.85,0,1,1-1.7,0ZM10.5,13.2a1.7,1.7,0,0,1-3.4,0,1.581,1.581,0,0,1,.111-.57,2.5,2.5,0,0,0,3.18,0A1.581,1.581,0,0,1,10.5,13.2ZM7.951,5.551a.85.85,0,1,1,1.7,0v5.1a.85.85,0,1,1-1.7,0ZM46.209,16.6H3.7V10.652a.85.85,0,0,1,.85-.85h1.7v.85a1.777,1.777,0,0,0,0,.3A3.316,3.316,0,0,0,5.4,13.2a3.4,3.4,0,0,0,6.8,0,3.316,3.316,0,0,0-.85-2.253,1.777,1.777,0,0,0,0-.3V9.8H13.9v.85a1.777,1.777,0,0,0,0,.3,3.316,3.316,0,0,0-.85,2.253,3.4,3.4,0,0,0,6.8,0A3.316,3.316,0,0,0,19,10.949a1.778,1.778,0,0,0,0-.3V9.8h17v.85a1.777,1.777,0,0,0,0,.3,3.316,3.316,0,0,0-.85,2.253,3.4,3.4,0,0,0,6.8,0,3.316,3.316,0,0,0-.85-2.253,1.778,1.778,0,0,0,0-.3V9.8h2.551v.85a1.776,1.776,0,0,0,0,.3,3.316,3.316,0,0,0-.85,2.253,3.4,3.4,0,0,0,6.8,0,3.316,3.316,0,0,0-.85-2.253,1.777,1.777,0,0,0,0-.3V9.8h1.7a.85.85,0,0,1,.85.85V16.6Z"/>
      <path id="Trazado_1058295" data-name="Trazado 1058295" d="M16.85,29.8h5.1a.85.85,0,0,0,.85-.85v-5.1a.85.85,0,0,0-.85-.85h-5.1a.85.85,0,0,0-.85.85v5.1A.85.85,0,0,0,16.85,29.8Zm.85-5.1h3.4v3.4H17.7Z" transform="translate(-2.097 -2.996)"/>
      <path id="Trazado_1058296" data-name="Trazado 1058296" d="M31.951,23h-5.1a.85.85,0,0,0-.85.85v5.1a.85.85,0,0,0,.85.85h5.1a.85.85,0,0,0,.85-.85v-5.1A.85.85,0,0,0,31.951,23Zm-.85,5.1H27.7V24.7h3.4Z" transform="translate(-3.596 -2.996)"/>
      <path id="Trazado_1058297" data-name="Trazado 1058297" d="M16,38.951a.85.85,0,0,0,.85.85h5.1a.85.85,0,0,0,.85-.85v-5.1a.85.85,0,0,0-.85-.85h-5.1a.85.85,0,0,0-.85.85ZM17.7,34.7h3.4v3.4H17.7Z" transform="translate(-2.097 -4.495)"/>
      <path id="Trazado_1058298" data-name="Trazado 1058298" d="M12.8,33.85a.85.85,0,0,0-.85-.85H6.85a.85.85,0,0,0-.85.85v5.1a.85.85,0,0,0,.85.85h5.1a.85.85,0,0,0,.85-.85ZM11.1,38.1H7.7V34.7h3.4Z" transform="translate(-0.599 -4.495)"/>
      <path id="Trazado_1058299" data-name="Trazado 1058299" d="M11.951,43H6.85a.85.85,0,0,0-.85.85v5.1a.85.85,0,0,0,.85.85h5.1a.85.85,0,0,0,.85-.85v-5.1A.85.85,0,0,0,11.951,43Zm-.85,5.1H7.7V44.7h3.4Z" transform="translate(-0.599 -5.993)"/>
      <path id="Trazado_1058300" data-name="Trazado 1058300" d="M30.894,33.618a.85.85,0,0,0-1.258.238,15.3,15.3,0,0,0-1.641,3.894.85.85,0,0,0,.723,1.063,2.653,2.653,0,0,1,0,5.271.85.85,0,0,0-.723,1.063A15.3,15.3,0,0,0,29.61,49.04a.851.851,0,0,0,1.258.23A2.661,2.661,0,0,1,34.592,53a.85.85,0,0,0,.238,1.258A15.635,15.635,0,0,0,38.75,55.9a.85.85,0,0,0,1.063-.723,2.653,2.653,0,0,1,5.271,0,.85.85,0,0,0,.366.6,1.246,1.246,0,0,0,.7.145,15.635,15.635,0,0,0,3.894-1.615.85.85,0,0,0,.238-1.258A2.661,2.661,0,0,1,54,49.321a.851.851,0,0,0,1.258-.23A15.3,15.3,0,0,0,56.9,45.146a.85.85,0,0,0-.723-1.063,2.653,2.653,0,0,1,0-5.271A.85.85,0,0,0,56.9,37.75a15.3,15.3,0,0,0-1.615-3.894.85.85,0,0,0-1.258-.238A2.653,2.653,0,0,1,50.3,29.894a.85.85,0,0,0-.238-1.258,15.3,15.3,0,0,0-3.919-1.641.85.85,0,0,0-1.063.723,2.653,2.653,0,0,1-5.271,0,.85.85,0,0,0-1.063-.723,15.3,15.3,0,0,0-3.894,1.615.85.85,0,0,0-.238,1.258,2.653,2.653,0,0,1-3.724,3.724Zm4.753,1.029a4.353,4.353,0,0,0,.85-4.914,13.322,13.322,0,0,1,1.87-.774,4.37,4.37,0,0,0,8.2,0,13.322,13.322,0,0,1,1.87.774A4.361,4.361,0,0,0,54.206,35.5a13.322,13.322,0,0,1,.774,1.87,4.37,4.37,0,0,0,0,8.2,13.756,13.756,0,0,1-.774,1.87A4.361,4.361,0,0,0,48.4,53.206a13.322,13.322,0,0,1-1.87.774,4.37,4.37,0,0,0-8.2,0,13.323,13.323,0,0,1-1.87-.774A4.361,4.361,0,0,0,30.69,47.4a13.756,13.756,0,0,1-.774-1.87,4.37,4.37,0,0,0,0-8.2,13.323,13.323,0,0,1,.774-1.87,4.353,4.353,0,0,0,4.957-.816Z" transform="translate(-3.89 -3.591)"/>
      <path id="Trazado_1058301" data-name="Trazado 1058301" d="M26,53h1.7v1.7H26Z" transform="translate(-3.596 -7.491)"/>
      <path id="Trazado_1058302" data-name="Trazado 1058302" d="M60,31h1.7v1.7H60Z" transform="translate(-8.689 -4.195)"/>
      <path id="Trazado_1058303" data-name="Trazado 1058303" d="M43.652,50.3A7.652,7.652,0,1,0,36,42.652,7.652,7.652,0,0,0,43.652,50.3Zm0-13.6A5.951,5.951,0,1,1,37.7,42.652,5.951,5.951,0,0,1,43.652,36.7Z" transform="translate(-5.094 -4.794)"/>
      <path id="Trazado_1058304" data-name="Trazado 1058304" d="M43.437,46.855a.85.85,0,0,0,.612-.306l4.251-5.1L46.99,40.36l-3.656,4.387-1.887-1.9L40.24,44.058l2.551,2.551A.893.893,0,0,0,43.437,46.855Z" transform="translate(-5.729 -5.597)"/>
    </g>
  </g>
</svg>
