<svg xmlns="http://www.w3.org/2000/svg" xmlns:xlink="http://www.w3.org/1999/xlink" width="113" height="113" viewBox="0 0 113 113">
  <defs>
    <filter id="Trazado_982547" x="0" y="0" width="113" height="113" filterUnits="userSpaceOnUse">
      <feOffset dy="3" input="SourceAlpha"/>
      <feGaussianBlur stdDeviation="3" result="blur"/>
      <feFlood flood-opacity="0.161"/>
      <feComposite operator="in" in2="blur"/>
      <feComposite in="SourceGraphic"/>
    </filter>
    <clipPath id="clip-path">
      <path id="path9483" d="M0-682.665H64.9v64.9H0Z" transform="translate(0 682.665)"/>
    </clipPath>
  </defs>
  <g id="Grupo_1226308" data-name="Grupo 1226308" transform="translate(-814.803 -7463.487)">
    <g id="Grupo_1225522" data-name="Grupo 1225522" transform="translate(823.803 7469.487)">
      <g id="Grupo_1224582" data-name="Grupo 1224582" transform="translate(0 0)">
        <g id="Grupo_1224449" data-name="Grupo 1224449">
          <g id="Grupo_1224084" data-name="Grupo 1224084">
            <g id="Grupo_1223183" data-name="Grupo 1223183">
              <g id="Grupo_1211217" data-name="Grupo 1211217">
                <g id="Grupo_1210736" data-name="Grupo 1210736">
                  <g id="Grupo_1210537" data-name="Grupo 1210537">
                    <g id="Grupo_1164202" data-name="Grupo 1164202">
                      <g id="Grupo_1158168" data-name="Grupo 1158168">
                        <g id="Grupo_1152576" data-name="Grupo 1152576">
                          <g id="Grupo_1148633" data-name="Grupo 1148633">
                            <g id="Grupo_1148525" data-name="Grupo 1148525">
                              <g transform="matrix(1, 0, 0, 1, -9, -6)" filter="url(#Trazado_982547)">
                                <g id="Trazado_982547-2" data-name="Trazado 982547" transform="translate(9 6)" fill="#fdf6e4">
                                  <path d="M 47.49999618530273 93.5 C 41.28936767578125 93.5 35.26533126831055 92.28396606445312 29.59518241882324 89.88570404052734 C 24.11771583557129 87.56893157958984 19.19812965393066 84.251953125 14.97308921813965 80.02690124511719 C 10.74803638458252 75.80186462402344 7.431062698364258 70.88227844238281 5.114289283752441 65.40480804443359 C 2.716022968292236 59.73466110229492 1.499996185302734 53.71062469482422 1.499996185302734 47.49999618530273 C 1.499996185302734 41.28936767578125 2.716022968292236 35.26533126831055 5.114289283752441 29.59518241882324 C 7.431062698364258 24.11771583557129 10.74803638458252 19.19812965393066 14.97308921813965 14.97308921813965 C 19.19812965393066 10.74803638458252 24.11771583557129 7.431062698364258 29.59518241882324 5.114289283752441 C 35.26533126831055 2.716022968292236 41.28936767578125 1.499996185302734 47.49999618530273 1.499996185302734 C 53.71062469482422 1.499996185302734 59.73466110229492 2.716022968292236 65.40480804443359 5.114289283752441 C 70.88227844238281 7.431062698364258 75.80186462402344 10.74803638458252 80.02690124511719 14.97308921813965 C 84.251953125 19.19812965393066 87.56893157958984 24.11771583557129 89.88570404052734 29.59518241882324 C 92.28396606445312 35.26533126831055 93.5 41.28936767578125 93.5 47.49999618530273 C 93.5 53.71062469482422 92.28396606445312 59.73466110229492 89.88570404052734 65.40480804443359 C 87.56893157958984 70.88227844238281 84.251953125 75.80186462402344 80.02690124511719 80.02690124511719 C 75.80186462402344 84.251953125 70.88227844238281 87.56893157958984 65.40480804443359 89.88570404052734 C 59.73466110229492 92.28396606445312 53.71062469482422 93.5 47.49999618530273 93.5 Z" stroke="none"/>
                                  <path d="M 47.49999618530273 2.999992370605469 C 41.4912109375 2.999992370605469 35.66376495361328 4.1761474609375 30.17950439453125 6.495796203613281 C 24.88084411621094 8.736953735351562 20.12152099609375 11.94598388671875 16.03375244140625 16.03375244140625 C 11.94598388671875 20.12152099609375 8.736953735351562 24.88084411621094 6.495796203613281 30.17950439453125 C 4.1761474609375 35.66376495361328 2.999992370605469 41.4912109375 2.999992370605469 47.49999618530273 C 2.999992370605469 53.50878143310547 4.1761474609375 59.33622741699219 6.495796203613281 64.82048797607422 C 8.736953735351562 70.11914825439453 11.94598388671875 74.87847137451172 16.03375244140625 78.96623992919922 C 20.12152099609375 83.05400848388672 24.88084411621094 86.26304626464844 30.17950439453125 88.50419616699219 C 35.66376495361328 90.82384490966797 41.4912109375 92 47.49999618530273 92 C 53.50878143310547 92 59.33622741699219 90.82384490966797 64.82048797607422 88.50419616699219 C 70.11914825439453 86.26304626464844 74.87847137451172 83.05400848388672 78.96623992919922 78.96623992919922 C 83.05400848388672 74.87847137451172 86.26304626464844 70.11914825439453 88.50419616699219 64.82048797607422 C 90.82384490966797 59.33622741699219 92 53.50878143310547 92 47.49999618530273 C 92 41.4912109375 90.82384490966797 35.66376495361328 88.50419616699219 30.17950439453125 C 86.26304626464844 24.88084411621094 83.05400848388672 20.12152099609375 78.96623992919922 16.03375244140625 C 74.87847137451172 11.94598388671875 70.11914825439453 8.736953735351562 64.82048797607422 6.495796203613281 C 59.33622741699219 4.1761474609375 53.50878143310547 2.999992370605469 47.49999618530273 2.999992370605469 M 47.49999618530273 -7.62939453125e-06 C 73.7335205078125 -7.62939453125e-06 95 21.26647186279297 95 47.49999618530273 C 95 73.7335205078125 73.7335205078125 95 47.49999618530273 95 C 21.26647186279297 95 -7.62939453125e-06 73.7335205078125 -7.62939453125e-06 47.49999618530273 C -7.62939453125e-06 21.26647186279297 21.26647186279297 -7.62939453125e-06 47.49999618530273 -7.62939453125e-06 Z" stroke="none" fill="#f5b104"/>
                                </g>
                              </g>
                            </g>
                          </g>
                        </g>
                      </g>
                    </g>
                  </g>
                </g>
              </g>
            </g>
          </g>
        </g>
      </g>
    </g>
    <g id="g9477" transform="translate(841.031 8168.89)">
      <g id="g9479" transform="translate(0 -682.665)">
        <g id="g9481" clip-path="url(#clip-path)">
          <g id="g9487" transform="translate(36.496 1.837)">
            <path id="path9489" d="M-249.082-124.541a13.084,13.084,0,0,1-13.084,13.084,13.084,13.084,0,0,1-13.084-13.084,13.084,13.084,0,0,1,13.084-13.084,13.084,13.084,0,0,1,13.084,13.084" transform="translate(275.25 137.625)" fill="#31a7fb"/>
          </g>
          <g id="g9491" transform="translate(36.496 7.272)">
            <path id="path9493" d="M-74.964-38.585l-.955,2.2a1.567,1.567,0,0,1-2.06.814l-2.8-1.215-1.837,4.231a13.042,13.042,0,0,1-.227-2.435,13.013,13.013,0,0,1,2.468-7.649l4.6,1.994a1.565,1.565,0,0,1,.813,2.06" transform="translate(82.84 42.639)" fill="#1c96f9"/>
          </g>
          <g id="g9495" transform="translate(47.04 1.837)">
            <path id="path9497" d="M-148.722-124.542a13.085,13.085,0,0,1-13.084,13.084,13.108,13.108,0,0,1-2.54-.247A13.088,13.088,0,0,0-153.8-124.542a13.088,13.088,0,0,0-10.545-12.837,13.111,13.111,0,0,1,2.54-.247,13.084,13.084,0,0,1,13.084,13.084" transform="translate(164.346 137.626)" fill="#1c96f9"/>
          </g>
          <g id="g9499" transform="translate(36.496 1.837)">
            <path id="path9501" d="M-249.082-124.541a13.084,13.084,0,0,1-13.084,13.084,13.084,13.084,0,0,1-13.084-13.084,13.084,13.084,0,0,1,13.084-13.084A13.084,13.084,0,0,1-249.082-124.541Z" transform="translate(275.25 137.625)" fill="none" stroke="#000" stroke-linecap="round" stroke-linejoin="round" stroke-miterlimit="10" stroke-width="1.2"/>
          </g>
          <g id="g9503" transform="translate(26.805 21.209)">
            <path id="path9505" d="M-349.947-87.87l-7.387-8.675a1.581,1.581,0,0,0-2.408,0l-7.387,8.675a1.581,1.581,0,0,0,1.2,2.606h3.99a24.621,24.621,0,0,1-7.243,16.557A24.625,24.625,0,0,1-386-61.454a.733.733,0,0,0-.713.732v5.286a.735.735,0,0,0,.752.735A31.333,31.333,0,0,0-364.4-63.933a31.328,31.328,0,0,0,9.224-21.331h4.027a1.581,1.581,0,0,0,1.2-2.606" transform="translate(386.712 97.102)" fill="#35bcc7"/>
          </g>
          <g id="g9507" transform="translate(26.805 21.21)">
            <path id="path9509" d="M-338.492-112.678h-4.028a31.327,31.327,0,0,1-9.224,21.331A31.333,31.333,0,0,1-373.3-82.114a.737.737,0,0,1-.752-.735V-85.6a32.235,32.235,0,0,0,17.221-5.751c6.313-4.613,10.222-12.687,10.61-20.491a.881.881,0,0,1,.879-.84h1.764a1.582,1.582,0,0,0,1.2-2.607l-6.046-7.1,1.34-1.573a1.582,1.582,0,0,1,2.409,0l7.387,8.675a1.581,1.581,0,0,1-1.2,2.606" transform="translate(374.054 124.516)" fill="#20abb9"/>
          </g>
          <g id="g9511" transform="translate(26.805 21.209)">
            <path id="path9513" d="M-151.7-284.215a24.6,24.6,0,0,1-15.225,5.789.733.733,0,0,0-.713.732v5.286a.735.735,0,0,0,.752.735,31.332,31.332,0,0,0,21.558-9.233,31.327,31.327,0,0,0,9.224-21.331h4.027a1.581,1.581,0,0,0,1.2-2.606l-7.387-8.676a1.581,1.581,0,0,0-2.408,0l-7.387,8.676a1.581,1.581,0,0,0,1.2,2.606h3.99a24.587,24.587,0,0,1-5.546,14.679" transform="translate(167.634 314.075)" fill="none" stroke="#000" stroke-linecap="round" stroke-linejoin="round" stroke-miterlimit="10" stroke-width="1.2"/>
          </g>
          <g id="g9515" transform="translate(32.016 6.424)">
            <path id="path9517" d="M-39.635-83.263-43.8-85.07l3.012-6.94,4.164,1.807Z" transform="translate(43.799 92.01)" fill="#fb9927"/>
          </g>
          <g id="g9519" transform="translate(32.016 6.424)">
            <path id="path9521" d="M-39.635-83.263-43.8-85.07l3.012-6.94,4.164,1.807Z" transform="translate(43.799 92.01)" fill="none" stroke="#000" stroke-linecap="round" stroke-linejoin="round" stroke-miterlimit="10" stroke-width="1.2"/>
          </g>
          <g id="g9523" transform="translate(4.858 10.314)">
            <path id="path9525" d="M-407.936-203.968a21.429,21.429,0,0,1-21.429,21.429,21.429,21.429,0,0,1-21.429-21.429A21.429,21.429,0,0,1-429.365-225.4a21.429,21.429,0,0,1,21.429,21.429" transform="translate(450.794 225.397)" fill="#fde265"/>
          </g>
          <g id="g9527" transform="translate(24.073 10.314)">
            <path id="path9529" d="M-225.03-203.98a21.429,21.429,0,0,1-21.429,21.428,21.278,21.278,0,0,1-2.213-.114,21.43,21.43,0,0,0,19.214-21.314A21.431,21.431,0,0,0-248.671-225.3a21.24,21.24,0,0,1,2.213-.114,21.43,21.43,0,0,1,21.429,21.43" transform="translate(248.671 225.41)" fill="#fdd330"/>
          </g>
          <g id="g9531" transform="translate(9.694 15.151)">
            <path id="path9533" d="M-315.868-157.934a16.593,16.593,0,0,1-16.593,16.593,16.592,16.592,0,0,1-16.592-16.593,16.592,16.592,0,0,1,16.592-16.592,16.593,16.593,0,0,1,16.593,16.592" transform="translate(349.052 174.526)" fill="#f8f3f1"/>
          </g>
          <g id="g9535" transform="translate(24.163 15.15)">
            <path id="path9537" d="M-178.149-157.941a16.593,16.593,0,0,1-16.593,16.592,16.66,16.66,0,0,1-2.123-.135A16.6,16.6,0,0,0-182.4-157.941,16.6,16.6,0,0,0-196.865-174.4a16.66,16.66,0,0,1,2.123-.135,16.593,16.593,0,0,1,16.593,16.593" transform="translate(196.865 174.534)" fill="#e5e1e5"/>
          </g>
          <g id="g9539" transform="translate(4.858 10.314)">
            <path id="path9541" d="M-352.726-64.436a21.368,21.368,0,0,0-15.628-6.77,21.429,21.429,0,0,0-21.429,21.429,21.429,21.429,0,0,0,21.429,21.429,21.429,21.429,0,0,0,21.429-21.429,21.327,21.327,0,0,0-2.987-10.916" transform="translate(389.783 71.205)" fill="none" stroke="#000" stroke-linecap="round" stroke-linejoin="round" stroke-miterlimit="10" stroke-width="1.2"/>
          </g>
          <g id="g9543" transform="translate(30.254 1.29)">
            <path id="path9545" d="M-105.687-91.5l-10.161-4.411a1.565,1.565,0,0,1-.813-2.059l.955-2.2a1.566,1.566,0,0,1,2.06-.813l10.161,4.41a1.566,1.566,0,0,1,.813,2.06l-.955,2.2a1.566,1.566,0,0,1-2.06.813" transform="translate(116.79 101.108)" fill="#fde265"/>
          </g>
          <g id="g9547" transform="translate(37.824 4.297)">
            <path id="path9549" d="M-62.323-34.2l-.955,2.2a1.565,1.565,0,0,1-2.06.814l-3.533-1.534a1.566,1.566,0,0,0,2.06-.814l.955-2.2a1.566,1.566,0,0,0-.813-2.059l3.533,1.534a1.565,1.565,0,0,1,.812,2.059" transform="translate(68.871 37.789)" fill="#fdd330"/>
          </g>
          <g id="g9551" transform="translate(30.254 1.29)">
            <path id="path9553" d="M-105.687-91.5l-10.161-4.411a1.565,1.565,0,0,1-.813-2.059l.955-2.2a1.566,1.566,0,0,1,2.06-.813l10.161,4.41a1.566,1.566,0,0,1,.813,2.06l-.955,2.2A1.566,1.566,0,0,1-105.687-91.5Z" transform="translate(116.79 101.108)" fill="none" stroke="#000" stroke-linecap="round" stroke-linejoin="round" stroke-miterlimit="10" stroke-width="1.2"/>
          </g>
          <g id="g9555" transform="translate(23.798 29.254)">
            <path id="path9557" d="M-47.383-23.691A2.489,2.489,0,0,1-49.872-21.2a2.489,2.489,0,0,1-2.489-2.489,2.489,2.489,0,0,1,2.489-2.489,2.489,2.489,0,0,1,2.489,2.489" transform="translate(52.361 26.18)" fill="#fb9927"/>
          </g>
          <g id="g9559" transform="translate(23.797 29.254)">
            <path id="path9561" d="M-47.184-20.607a2.489,2.489,0,0,1-2.143,2.792,2.489,2.489,0,0,1-2.792-2.143,2.489,2.489,0,0,1,2.144-2.792A2.489,2.489,0,0,1-47.184-20.607Z" transform="translate(52.141 22.771)" fill="none" stroke="#000" stroke-linecap="round" stroke-linejoin="round" stroke-miterlimit="10" stroke-width="1.2"/>
          </g>
          <g id="g9563" transform="translate(26.611 34.211)">
            <path id="path9565" d="M0,0,1.289,9.806" fill="none" stroke="#000" stroke-linecap="round" stroke-linejoin="round" stroke-miterlimit="10" stroke-width="1.2"/>
          </g>
          <g id="g9567" transform="translate(10.189 15.151)">
            <path id="path9569" d="M0-119.511a16.6,16.6,0,0,1,16.1-12.556A16.593,16.593,0,0,1,32.69-115.474,16.593,16.593,0,0,1,16.1-98.882a16.6,16.6,0,0,1-16.031-12.3" transform="translate(0 132.066)" fill="none" stroke="#000" stroke-linecap="round" stroke-linejoin="round" stroke-miterlimit="10" stroke-width="1.2"/>
          </g>
          <g id="g9571" transform="translate(26.805 19.966)">
            <path id="path9573" d="M-58.453-42.628a3.2,3.2,0,0,1-4.213,1.662,3.2,3.2,0,0,1-1.663-4.213,3.2,3.2,0,0,1,4.213-1.663A3.2,3.2,0,0,1-58.453-42.628Z" transform="translate(64.594 47.106)" fill="none" stroke="#000" stroke-linecap="round" stroke-linejoin="round" stroke-miterlimit="10" stroke-width="1.2"/>
          </g>
          <g id="g9575" transform="translate(30.566 22.109)">
            <path id="path9577" d="M0-8l2.13-.84" transform="translate(0 8.84)" fill="none" stroke="#000" stroke-linecap="round" stroke-linejoin="round" stroke-miterlimit="10" stroke-width="1.2"/>
          </g>
          <g id="g9579" transform="translate(0.951 11.266)">
            <path id="path9581" d="M-74.391-90.629H-80.5a1.706,1.706,0,0,1-1.706-1.706v-6.109A1.706,1.706,0,0,1-80.5-100.15h6.11a1.706,1.706,0,0,1,1.706,1.706v6.109a1.706,1.706,0,0,1-1.706,1.706" transform="translate(82.206 100.15)" fill="#35bcc7"/>
          </g>
          <g id="g9583" transform="translate(4.37 11.267)">
            <path id="path9585" d="M-58.085-16.239v6.109a1.707,1.707,0,0,1-1.706,1.706h-4.4a1.707,1.707,0,0,0,1.706-1.706v-6.109a1.707,1.707,0,0,0-1.706-1.706h4.4a1.707,1.707,0,0,1,1.706,1.706" transform="translate(64.188 17.945)" fill="#20abb9"/>
          </g>
          <g id="g9587" transform="translate(0.951 11.266)">
            <path id="path9589" d="M-74.391-90.629H-80.5a1.706,1.706,0,0,1-1.706-1.706v-6.109A1.706,1.706,0,0,1-80.5-100.15h6.11a1.706,1.706,0,0,1,1.706,1.706v6.109A1.706,1.706,0,0,1-74.391-90.629Z" transform="translate(82.206 100.15)" fill="none" stroke="#000" stroke-linecap="round" stroke-linejoin="round" stroke-miterlimit="10" stroke-width="1.2"/>
          </g>
          <g id="g9591" transform="translate(0.951 27.122)">
            <path id="path9593" d="M-74.391-90.629H-80.5a1.706,1.706,0,0,1-1.706-1.706v-6.109A1.706,1.706,0,0,1-80.5-100.15h6.11a1.706,1.706,0,0,1,1.706,1.706v6.109a1.706,1.706,0,0,1-1.706,1.706" transform="translate(82.206 100.15)" fill="#35bcc7"/>
          </g>
          <g id="g9595" transform="translate(4.37 27.122)">
            <path id="path9597" d="M-58.085-16.239v6.109a1.707,1.707,0,0,1-1.706,1.706h-4.4a1.707,1.707,0,0,0,1.706-1.706v-6.109a1.707,1.707,0,0,0-1.706-1.706h4.4a1.707,1.707,0,0,1,1.706,1.706" transform="translate(64.188 17.945)" fill="#20abb9"/>
          </g>
          <g id="g9599" transform="translate(0.951 27.122)">
            <path id="path9601" d="M-90.629-23.6v-.773a1.706,1.706,0,0,0-1.706-1.706h-6.109a1.706,1.706,0,0,0-1.706,1.706v6.11a1.706,1.706,0,0,0,1.706,1.706h6.109a1.706,1.706,0,0,0,1.706-1.706V-18.9" transform="translate(100.15 26.075)" fill="none" stroke="#000" stroke-linecap="round" stroke-linejoin="round" stroke-miterlimit="10" stroke-width="1.2"/>
          </g>
          <g id="g9603" transform="translate(0.951 42.977)">
            <path id="path9605" d="M-74.391-90.629H-80.5a1.706,1.706,0,0,1-1.706-1.706v-6.11A1.706,1.706,0,0,1-80.5-100.15h6.11a1.706,1.706,0,0,1,1.706,1.706v6.11a1.706,1.706,0,0,1-1.706,1.706" transform="translate(82.206 100.15)" fill="#35bcc7"/>
          </g>
          <g id="g9607" transform="translate(4.37 42.977)">
            <path id="path9609" d="M-58.085-16.238v6.109a1.707,1.707,0,0,1-1.706,1.706h-4.4a1.707,1.707,0,0,0,1.706-1.706v-6.109a1.707,1.707,0,0,0-1.706-1.706h4.4a1.707,1.707,0,0,1,1.706,1.706" transform="translate(64.188 17.944)" fill="#20abb9"/>
          </g>
          <g id="g9611" transform="translate(0.951 42.977)">
            <path id="path9613" d="M-74.391-90.629H-80.5a1.706,1.706,0,0,1-1.706-1.706v-6.11A1.706,1.706,0,0,1-80.5-100.15h6.11a1.706,1.706,0,0,1,1.706,1.706v6.11A1.706,1.706,0,0,1-74.391-90.629Z" transform="translate(82.206 100.15)" fill="none" stroke="#000" stroke-linecap="round" stroke-linejoin="round" stroke-miterlimit="10" stroke-width="1.2"/>
          </g>
          <g id="g9615" transform="translate(3.533 14.465)">
            <path id="path9617" d="M0-18l1.233,1.233,3.124-3.124" transform="translate(0 19.891)" fill="none" stroke="#000" stroke-linecap="round" stroke-linejoin="round" stroke-miterlimit="10" stroke-width="1.2"/>
          </g>
          <g id="g9619" transform="translate(3.533 30.32)">
            <path id="path9621" d="M0-18l1.233,1.233,3.124-3.124" transform="translate(0 19.891)" fill="none" stroke="#000" stroke-linecap="round" stroke-linejoin="round" stroke-miterlimit="10" stroke-width="1.2"/>
          </g>
          <g id="g9623" transform="translate(3.533 46.176)">
            <path id="path9625" d="M0-18l1.233,1.233,3.124-3.124" transform="translate(0 19.892)" fill="none" stroke="#000" stroke-linecap="round" stroke-linejoin="round" stroke-miterlimit="10" stroke-width="1.2"/>
          </g>
          <g id="g9627" transform="translate(53.063 9.681)">
            <path id="path9629" d="M0,0H3.339" fill="none" stroke="#000" stroke-linecap="round" stroke-linejoin="round" stroke-miterlimit="10" stroke-width="1.2"/>
          </g>
          <g id="g9631" transform="translate(46.151 14.287)">
            <path id="path9633" d="M0,0H10.252" fill="none" stroke="#000" stroke-linecap="round" stroke-linejoin="round" stroke-miterlimit="10" stroke-width="1.2"/>
          </g>
          <g id="g9635" transform="translate(46.151 17.455)">
            <path id="path9637" d="M0,0H10.252" fill="none" stroke="#000" stroke-linecap="round" stroke-linejoin="round" stroke-miterlimit="10" stroke-width="1.2"/>
          </g>
        </g>
      </g>
    </g>
  </g>
</svg>
