<svg xmlns="http://www.w3.org/2000/svg" xmlns:xlink="http://www.w3.org/1999/xlink" width="113" height="113" viewBox="0 0 113 113">
  <defs>
    <filter id="Trazado_982547" x="0" y="0" width="113" height="113" filterUnits="userSpaceOnUse">
      <feOffset dy="3" input="SourceAlpha"/>
      <feGaussianBlur stdDeviation="3" result="blur"/>
      <feFlood flood-opacity="0.161"/>
      <feComposite operator="in" in2="blur"/>
      <feComposite in="SourceGraphic"/>
    </filter>
  </defs>
  <g id="Grupo_1226310" data-name="Grupo 1226310" transform="translate(-1133.313 -7463.487)">
    <g id="Grupo_1225521" data-name="Grupo 1225521" transform="translate(1142.313 7469.487)">
      <g id="Grupo_1224583" data-name="Grupo 1224583" transform="translate(0 0)">
        <g id="Grupo_1224450" data-name="Grupo 1224450">
          <g id="Grupo_1224085" data-name="Grupo 1224085">
            <g id="Grupo_1223184" data-name="Grupo 1223184">
              <g id="Grupo_1211216" data-name="Grupo 1211216">
                <g id="Grupo_1210737" data-name="Grupo 1210737">
                  <g id="Grupo_1210537" data-name="Grupo 1210537">
                    <g id="Grupo_1164202" data-name="Grupo 1164202">
                      <g id="Grupo_1158168" data-name="Grupo 1158168">
                        <g id="Grupo_1152576" data-name="Grupo 1152576">
                          <g id="Grupo_1148633" data-name="Grupo 1148633">
                            <g id="Grupo_1148525" data-name="Grupo 1148525">
                              <g transform="matrix(1, 0, 0, 1, -9, -6)" filter="url(#Trazado_982547)">
                                <g id="Trazado_982547-2" data-name="Trazado 982547" transform="translate(9 6)" fill="#fdf6e4">
                                  <path d="M 47.49999618530273 93.5 C 41.28936767578125 93.5 35.26533126831055 92.28396606445312 29.59518241882324 89.88570404052734 C 24.11771583557129 87.56893157958984 19.19812965393066 84.251953125 14.97308921813965 80.02690124511719 C 10.74803638458252 75.80186462402344 7.431062698364258 70.88227844238281 5.114289283752441 65.40480804443359 C 2.716022968292236 59.73466110229492 1.499996185302734 53.71062469482422 1.499996185302734 47.49999618530273 C 1.499996185302734 41.28936767578125 2.716022968292236 35.26533126831055 5.114289283752441 29.59518241882324 C 7.431062698364258 24.11771583557129 10.74803638458252 19.19812965393066 14.97308921813965 14.97308921813965 C 19.19812965393066 10.74803638458252 24.11771583557129 7.431062698364258 29.59518241882324 5.114289283752441 C 35.26533126831055 2.716022968292236 41.28936767578125 1.499996185302734 47.49999618530273 1.499996185302734 C 53.71062469482422 1.499996185302734 59.73466110229492 2.716022968292236 65.40480804443359 5.114289283752441 C 70.88227844238281 7.431062698364258 75.80186462402344 10.74803638458252 80.02690124511719 14.97308921813965 C 84.251953125 19.19812965393066 87.56893157958984 24.11771583557129 89.88570404052734 29.59518241882324 C 92.28396606445312 35.26533126831055 93.5 41.28936767578125 93.5 47.49999618530273 C 93.5 53.71062469482422 92.28396606445312 59.73466110229492 89.88570404052734 65.40480804443359 C 87.56893157958984 70.88227844238281 84.251953125 75.80186462402344 80.02690124511719 80.02690124511719 C 75.80186462402344 84.251953125 70.88227844238281 87.56893157958984 65.40480804443359 89.88570404052734 C 59.73466110229492 92.28396606445312 53.71062469482422 93.5 47.49999618530273 93.5 Z" stroke="none"/>
                                  <path d="M 47.49999618530273 2.999992370605469 C 41.4912109375 2.999992370605469 35.66376495361328 4.1761474609375 30.17950439453125 6.495796203613281 C 24.88084411621094 8.736953735351562 20.12152099609375 11.94598388671875 16.03375244140625 16.03375244140625 C 11.94598388671875 20.12152099609375 8.736953735351562 24.88084411621094 6.495796203613281 30.17950439453125 C 4.1761474609375 35.66376495361328 2.999992370605469 41.4912109375 2.999992370605469 47.49999618530273 C 2.999992370605469 53.50878143310547 4.1761474609375 59.33622741699219 6.495796203613281 64.82048797607422 C 8.736953735351562 70.11914825439453 11.94598388671875 74.87847137451172 16.03375244140625 78.96623992919922 C 20.12152099609375 83.05400848388672 24.88084411621094 86.26304626464844 30.17950439453125 88.50419616699219 C 35.66376495361328 90.82384490966797 41.4912109375 92 47.49999618530273 92 C 53.50878143310547 92 59.33622741699219 90.82384490966797 64.82048797607422 88.50419616699219 C 70.11914825439453 86.26304626464844 74.87847137451172 83.05400848388672 78.96623992919922 78.96623992919922 C 83.05400848388672 74.87847137451172 86.26304626464844 70.11914825439453 88.50419616699219 64.82048797607422 C 90.82384490966797 59.33622741699219 92 53.50878143310547 92 47.49999618530273 C 92 41.4912109375 90.82384490966797 35.66376495361328 88.50419616699219 30.17950439453125 C 86.26304626464844 24.88084411621094 83.05400848388672 20.12152099609375 78.96623992919922 16.03375244140625 C 74.87847137451172 11.94598388671875 70.11914825439453 8.736953735351562 64.82048797607422 6.495796203613281 C 59.33622741699219 4.1761474609375 53.50878143310547 2.999992370605469 47.49999618530273 2.999992370605469 M 47.49999618530273 -7.62939453125e-06 C 73.7335205078125 -7.62939453125e-06 95 21.26647186279297 95 47.49999618530273 C 95 73.7335205078125 73.7335205078125 95 47.49999618530273 95 C 21.26647186279297 95 -7.62939453125e-06 73.7335205078125 -7.62939453125e-06 47.49999618530273 C -7.62939453125e-06 21.26647186279297 21.26647186279297 -7.62939453125e-06 47.49999618530273 -7.62939453125e-06 Z" stroke="none" fill="#f5b104"/>
                                </g>
                              </g>
                            </g>
                          </g>
                        </g>
                      </g>
                    </g>
                  </g>
                </g>
              </g>
            </g>
          </g>
        </g>
      </g>
    </g>
    <g id="data-visualization_7442684" transform="translate(1160.167 7484.97)">
      <g id="Grupo_1226309" data-name="Grupo 1226309" transform="translate(1.177 5.352)">
        <path id="Trazado_1058305" data-name="Trazado 1058305" d="M57.491,30.907a.471.471,0,1,0,0-.942H48.9a.471.471,0,1,0,0,.942Z" transform="translate(-43.901 -28.106)" fill="#d80027" fill-rule="evenodd"/>
        <path id="Trazado_1058306" data-name="Trazado 1058306" d="M57.491,53.767a.468.468,0,0,0,.471-.471.473.473,0,0,0-.471-.471H48.9a.473.473,0,0,0-.471.471.468.468,0,0,0,.471.471Z" transform="translate(-43.901 -48.275)" fill="#d80027" fill-rule="evenodd"/>
        <path id="Trazado_1058307" data-name="Trazado 1058307" d="M57.491,76.627a.468.468,0,0,0,.471-.471.473.473,0,0,0-.471-.471H48.9a.473.473,0,0,0-.471.471.468.468,0,0,0,.471.471Z" transform="translate(-43.901 -68.444)" fill="#d80027" fill-rule="evenodd"/>
        <path id="Trazado_1058308" data-name="Trazado 1058308" d="M422.36,141.08a.472.472,0,1,0,.666.668l1.374-1.379v6.019a.471.471,0,1,0,.942,0v-6.02l1.372,1.377a.488.488,0,0,0,.335.143.479.479,0,0,0,.333-.141.471.471,0,0,0,0-.667l-2.176-2.176a.483.483,0,0,0-.668,0Z" transform="translate(-373.694 -124.102)" fill="#d80027" fill-rule="evenodd"/>
        <path id="Trazado_1058309" data-name="Trazado 1058309" d="M422.365,317.275a.465.465,0,0,0,0,.659l2.181,2.181a.463.463,0,0,0,.659,0l2.183-2.183a.464.464,0,0,0,0-.657.471.471,0,0,0-.667,0l-1.373,1.367v-6.016a.471.471,0,0,0-.942,0v6.016l-1.373-1.367a.471.471,0,0,0-.667,0Z" transform="translate(-373.7 -277.077)" fill="#d80027" fill-rule="evenodd"/>
        <path id="Trazado_1058310" data-name="Trazado 1058310" d="M57.491,404.8H48.9a.468.468,0,0,0-.471.471.473.473,0,0,0,.471.471h8.6a.473.473,0,0,0,.471-.471.468.468,0,0,0-.471-.471Z" transform="translate(-43.901 -358.814)" fill="#d80027" fill-rule="evenodd"/>
        <path id="Trazado_1058311" data-name="Trazado 1058311" d="M48.9,450.52a.473.473,0,0,0-.471.471.468.468,0,0,0,.471.471h8.6a.468.468,0,0,0,.471-.471.473.473,0,0,0-.471-.471Z" transform="translate(-43.901 -399.152)" fill="#d80027" fill-rule="evenodd"/>
        <path id="Trazado_1058312" data-name="Trazado 1058312" d="M48.9,427.66a.468.468,0,0,0-.471.471.473.473,0,0,0,.471.471h8.6a.473.473,0,0,0,.471-.471.468.468,0,0,0-.471-.471Z" transform="translate(-43.901 -378.983)" fill="#d80027" fill-rule="evenodd"/>
        <path id="Trazado_1058313" data-name="Trazado 1058313" d="M169.058,155.594a.466.466,0,0,0,.471.463h11.2a.467.467,0,0,0,0-.934h-11.2a.468.468,0,0,0-.471.471Z" transform="translate(-150.333 -138.53)" fill="#d80027" fill-rule="evenodd"/>
        <path id="Trazado_1058314" data-name="Trazado 1058314" d="M38.529,155.595a.468.468,0,0,0-.471-.471h-.012a.467.467,0,1,0,0,.934h.012a.466.466,0,0,0,.471-.463Z" transform="translate(-34.332 -138.531)" fill="#d80027" fill-rule="evenodd"/>
        <path id="Trazado_1058315" data-name="Trazado 1058315" d="M69.684,155.595a.468.468,0,0,0-.471-.471H69.2a.467.467,0,1,0,0,.934h.012a.466.466,0,0,0,.471-.463Z" transform="translate(-61.821 -138.531)" fill="#d80027" fill-rule="evenodd"/>
        <path id="Trazado_1058316" data-name="Trazado 1058316" d="M100.834,155.595a.468.468,0,0,0-.471-.471h-.012a.467.467,0,0,0,0,.934h.012a.466.466,0,0,0,.471-.463Z" transform="translate(-89.303 -138.531)" fill="#d80027" fill-rule="evenodd"/>
        <path id="Trazado_1058317" data-name="Trazado 1058317" d="M31.655,14.176H45.141v10.05H31.655Z" transform="translate(-29.106 -14.176)" fill="#d80027"/>
        <path id="Trazado_1058318" data-name="Trazado 1058318" d="M231.828,25.944a4.12,4.12,0,1,1,4.12,4.12A4.12,4.12,0,0,1,231.828,25.944Z" transform="translate(-205.714 -20.924)" fill="#d80027" fill-rule="evenodd"/>
        <path id="Trazado_1058319" data-name="Trazado 1058319" d="M387.446,115.832h13.486v13.489H387.446Z" transform="translate(-343.012 -103.865)" fill="#d80027"/>
        <path id="Trazado_1058320" data-name="Trazado 1058320" d="M387.446,289.285h13.486v13.481H387.446Z" transform="translate(-343.012 -256.898)" fill="#d80027"/>
        <path id="Trazado_1058321" data-name="Trazado 1058321" d="M240.068,431.928a4.12,4.12,0,1,1-4.12-4.12A4.12,4.12,0,0,1,240.068,431.928Z" transform="translate(-205.713 -379.114)" fill="#d80027" fill-rule="evenodd"/>
        <path id="Trazado_1058322" data-name="Trazado 1058322" d="M31.655,389.012H45.141v10.041H31.655Z" transform="translate(-29.106 -344.885)" fill="#d80027"/>
        <path id="Trazado_1058323" data-name="Trazado 1058323" d="M50.687,286.284h5.788V291.2H50.687Z" transform="translate(-45.897 -254.251)" fill="#d80027"/>
        <path id="Trazado_1058324" data-name="Trazado 1058324" d="M50.687,213.417h5.788v4.9H50.687Z" transform="translate(-45.897 -189.962)" fill="#d80027"/>
        <path id="Trazado_1058325" data-name="Trazado 1058325" d="M10,141.625v-3.633a1.657,1.657,0,0,1,1.653-1.657H41.332a1.657,1.657,0,0,1,1.653,1.657v3.633Z" transform="translate(-10 -121.954)" fill="#d80027" fill-rule="evenodd"/>
      </g>
      <path id="Trazado_1058326" data-name="Trazado 1058326" d="M51.855,48.554a.7.7,0,0,0,1,0l2.178-2.178a.7.7,0,1,0-1-.992l-.972.967V40.9a.706.706,0,0,0-1.413,0v5.45l-.972-.967a.7.7,0,1,0-1,.992l2.178,2.178Zm-1.179-25.39.972-.975v5.45a.706.706,0,1,0,1.413,0V22.189l.972.975a.7.7,0,0,0,1,0,.708.708,0,0,0,0-1l-2.178-2.178a.718.718,0,0,0-1,0l-2.178,2.178a.707.707,0,1,0,1,1Zm.972,8.822v4.575H45.14a.7.7,0,0,0-.706.706V51.691a.7.7,0,0,0,.706.706h6.508V57.46H36.661a5.3,5.3,0,0,0-10.5,0H18.389V49.008a.7.7,0,0,0-.706-.706H11.176V46.316H32.509a2.834,2.834,0,0,0,2.83-2.834V21.39a2.834,2.834,0,0,0-2.83-2.834H11.176V16.579h6.508a.708.708,0,0,0,.706-.706V11.079h7.774a5.3,5.3,0,0,0,10.5,0H51.648v5.063H45.14a.708.708,0,0,0-.706.706V31.28a.708.708,0,0,0,.706.706Zm7.214,5.988v13.01H45.847V37.974ZM35.3,58.167a3.885,3.885,0,1,0-3.886,3.887A3.885,3.885,0,0,0,35.3,58.167Zm-18.32-8.453H3.962v9.571H16.977ZM2.83,44.9H32.509a1.422,1.422,0,0,0,1.417-1.421V26.2H1.413V43.483A1.422,1.422,0,0,0,2.83,44.9ZM1.413,21.39v3.4H33.926v-3.4a1.422,1.422,0,0,0-1.417-1.421H2.83A1.422,1.422,0,0,0,1.413,21.39Zm2.549-6.223H16.977V5.588H3.962Zm23.565-4.794a3.885,3.885,0,1,0,3.885-3.885,3.885,3.885,0,0,0-3.885,3.885Zm31.335,7.182V30.574H45.847V17.555Zm-5.8,14.431v4.575h6.507a.7.7,0,0,1,.706.706V51.691a.7.7,0,0,1-.706.706H53.061v5.769a.7.7,0,0,1-.706.706H36.661a5.3,5.3,0,0,1-10.5,0H18.389v1.118a.7.7,0,0,1-.706.706H3.255a.7.7,0,0,1-.706-.706V49.008a.7.7,0,0,1,.706-.706H9.763V46.317H2.83A2.834,2.834,0,0,1,0,43.483V21.39a2.834,2.834,0,0,1,2.83-2.834H9.763V16.579H3.255a.708.708,0,0,1-.706-.706V4.881a.7.7,0,0,1,.706-.706H17.683a.7.7,0,0,1,.706.706V9.666h7.774a5.3,5.3,0,0,1,10.5,0H52.354a.708.708,0,0,1,.706.706v5.769h6.507a.709.709,0,0,1,.706.706V31.28a.709.709,0,0,1-.706.706ZM6.172,57.9h8.6a.706.706,0,1,0,0-1.413h-8.6a.706.706,0,0,0,0,1.413Zm0-5.382h8.6a.706.706,0,0,0,0-1.413h-8.6a.706.706,0,0,0,0,1.413Zm0,2.691h8.6a.706.706,0,1,0,0-1.413h-8.6a.706.706,0,0,0,0,1.413Zm8.6-42.849h-8.6a.706.706,0,0,0,0,1.413h8.6a.706.706,0,0,0,0-1.413Zm0-5.382a.706.706,0,0,1,0,1.413h-8.6a.706.706,0,0,1,0-1.413Zm0,2.691h-8.6a.706.706,0,0,0,0,1.413h8.6a.706.706,0,0,0,0-1.413ZM12.225,23.114h.012a.7.7,0,1,0,0-1.4h-.012a.7.7,0,1,0,0,1.4Zm-3.667,0a.7.7,0,0,1,0-1.4H8.57a.7.7,0,1,1,0,1.4Zm-3.668,0a.7.7,0,1,1,0-1.4H4.9a.7.7,0,1,1,0,1.4ZM29.843,40.691H15.6a.706.706,0,0,0,0,1.413H29.843a.706.706,0,1,0,0-1.413ZM15.6,39h11.44a.706.706,0,1,0,0-1.413H15.6A.706.706,0,1,0,15.6,39Zm14.242-6.762H15.6a.706.706,0,1,0,0,1.413H29.843a.706.706,0,1,0,0-1.413ZM15.6,30.548h11.44a.706.706,0,0,0,0-1.413H15.6a.706.706,0,1,0,0,1.413Zm-4.082-1.5H6.2v4.432h5.317Zm1.413-.706a.7.7,0,0,0-.706-.706H5.5a.7.7,0,0,0-.706.706v5.845a.7.7,0,0,0,.706.706h6.729a.7.7,0,0,0,.706-.706V28.337Zm-1.413,9.285H6.2v4.44h5.317v-4.44Zm1.413-.7a.71.71,0,0,0-.706-.715H5.5a.71.71,0,0,0-.706.715v5.844a.7.7,0,0,0,.706.706h6.729a.7.7,0,0,0,.706-.706V36.923Zm6.735-14.507a.7.7,0,0,0,.706.7h11.2a.7.7,0,1,0,0-1.4h-11.2a.7.7,0,0,0-.706.706Z" transform="translate(0 0)" fill-rule="evenodd"/>
    </g>
  </g>
</svg>
