<svg xmlns="http://www.w3.org/2000/svg" xmlns:xlink="http://www.w3.org/1999/xlink" width="113" height="113" viewBox="0 0 113 113">
  <defs>
    <filter id="Trazado_982547" x="0" y="0" width="113" height="113" filterUnits="userSpaceOnUse">
      <feOffset dy="3" input="SourceAlpha"/>
      <feGaussianBlur stdDeviation="3" result="blur"/>
      <feFlood flood-opacity="0.161"/>
      <feComposite operator="in" in2="blur"/>
      <feComposite in="SourceGraphic"/>
    </filter>
    <clipPath id="clip-path">
      <path id="path10806" d="M0-682.665H60.915v60.915H0Z" transform="translate(0 682.665)"/>
    </clipPath>
  </defs>
  <g id="Grupo_1226311" data-name="Grupo 1226311" transform="translate(-8061 -7463.487)">
    <g id="Grupo_1226233" data-name="Grupo 1226233" transform="translate(8070 7469.487)">
      <g id="Grupo_1224583" data-name="Grupo 1224583" transform="translate(0 0)">
        <g id="Grupo_1224450" data-name="Grupo 1224450">
          <g id="Grupo_1224085" data-name="Grupo 1224085">
            <g id="Grupo_1223184" data-name="Grupo 1223184">
              <g id="Grupo_1211216" data-name="Grupo 1211216">
                <g id="Grupo_1210737" data-name="Grupo 1210737">
                  <g id="Grupo_1210537" data-name="Grupo 1210537">
                    <g id="Grupo_1164202" data-name="Grupo 1164202">
                      <g id="Grupo_1158168" data-name="Grupo 1158168">
                        <g id="Grupo_1152576" data-name="Grupo 1152576">
                          <g id="Grupo_1148633" data-name="Grupo 1148633">
                            <g id="Grupo_1148525" data-name="Grupo 1148525">
                              <g transform="matrix(1, 0, 0, 1, -9, -6)" filter="url(#Trazado_982547)">
                                <g id="Trazado_982547-2" data-name="Trazado 982547" transform="translate(9 6)" fill="#fdf6e4">
                                  <path d="M 47.49999618530273 93.5 C 41.28936767578125 93.5 35.26533126831055 92.28396606445312 29.59518241882324 89.88570404052734 C 24.11771583557129 87.56893157958984 19.19812965393066 84.251953125 14.97308921813965 80.02690124511719 C 10.74803638458252 75.80186462402344 7.431062698364258 70.88227844238281 5.114289283752441 65.40480804443359 C 2.716022968292236 59.73466110229492 1.499996185302734 53.71062469482422 1.499996185302734 47.49999618530273 C 1.499996185302734 41.28936767578125 2.716022968292236 35.26533126831055 5.114289283752441 29.59518241882324 C 7.431062698364258 24.11771583557129 10.74803638458252 19.19812965393066 14.97308921813965 14.97308921813965 C 19.19812965393066 10.74803638458252 24.11771583557129 7.431062698364258 29.59518241882324 5.114289283752441 C 35.26533126831055 2.716022968292236 41.28936767578125 1.499996185302734 47.49999618530273 1.499996185302734 C 53.71062469482422 1.499996185302734 59.73466110229492 2.716022968292236 65.40480804443359 5.114289283752441 C 70.88227844238281 7.431062698364258 75.80186462402344 10.74803638458252 80.02690124511719 14.97308921813965 C 84.251953125 19.19812965393066 87.56893157958984 24.11771583557129 89.88570404052734 29.59518241882324 C 92.28396606445312 35.26533126831055 93.5 41.28936767578125 93.5 47.49999618530273 C 93.5 53.71062469482422 92.28396606445312 59.73466110229492 89.88570404052734 65.40480804443359 C 87.56893157958984 70.88227844238281 84.251953125 75.80186462402344 80.02690124511719 80.02690124511719 C 75.80186462402344 84.251953125 70.88227844238281 87.56893157958984 65.40480804443359 89.88570404052734 C 59.73466110229492 92.28396606445312 53.71062469482422 93.5 47.49999618530273 93.5 Z" stroke="none"/>
                                  <path d="M 47.49999618530273 2.999992370605469 C 41.4912109375 2.999992370605469 35.66376495361328 4.1761474609375 30.17950439453125 6.495796203613281 C 24.88084411621094 8.736953735351562 20.12152099609375 11.94598388671875 16.03375244140625 16.03375244140625 C 11.94598388671875 20.12152099609375 8.736953735351562 24.88084411621094 6.495796203613281 30.17950439453125 C 4.1761474609375 35.66376495361328 2.999992370605469 41.4912109375 2.999992370605469 47.49999618530273 C 2.999992370605469 53.50878143310547 4.1761474609375 59.33622741699219 6.495796203613281 64.82048797607422 C 8.736953735351562 70.11914825439453 11.94598388671875 74.87847137451172 16.03375244140625 78.96623992919922 C 20.12152099609375 83.05400848388672 24.88084411621094 86.26304626464844 30.17950439453125 88.50419616699219 C 35.66376495361328 90.82384490966797 41.4912109375 92 47.49999618530273 92 C 53.50878143310547 92 59.33622741699219 90.82384490966797 64.82048797607422 88.50419616699219 C 70.11914825439453 86.26304626464844 74.87847137451172 83.05400848388672 78.96623992919922 78.96623992919922 C 83.05400848388672 74.87847137451172 86.26304626464844 70.11914825439453 88.50419616699219 64.82048797607422 C 90.82384490966797 59.33622741699219 92 53.50878143310547 92 47.49999618530273 C 92 41.4912109375 90.82384490966797 35.66376495361328 88.50419616699219 30.17950439453125 C 86.26304626464844 24.88084411621094 83.05400848388672 20.12152099609375 78.96623992919922 16.03375244140625 C 74.87847137451172 11.94598388671875 70.11914825439453 8.736953735351562 64.82048797607422 6.495796203613281 C 59.33622741699219 4.1761474609375 53.50878143310547 2.999992370605469 47.49999618530273 2.999992370605469 M 47.49999618530273 -7.62939453125e-06 C 73.7335205078125 -7.62939453125e-06 95 21.26647186279297 95 47.49999618530273 C 95 73.7335205078125 73.7335205078125 95 47.49999618530273 95 C 21.26647186279297 95 -7.62939453125e-06 73.7335205078125 -7.62939453125e-06 47.49999618530273 C -7.62939453125e-06 21.26647186279297 21.26647186279297 -7.62939453125e-06 47.49999618530273 -7.62939453125e-06 Z" stroke="none" fill="#f5b104"/>
                                </g>
                              </g>
                            </g>
                          </g>
                        </g>
                      </g>
                    </g>
                  </g>
                </g>
              </g>
            </g>
          </g>
        </g>
      </g>
    </g>
    <g id="g10800" transform="translate(8087.533 8164.862)">
      <g id="g10802" transform="translate(0 -682.665)">
        <g id="g10804" clip-path="url(#clip-path)">
          <g id="g10810" transform="translate(7.005 19.438)">
            <path id="path10812" d="M-478.752-338.692h-46.9v-31.993a1.19,1.19,0,0,1,1.19-1.19h44.525a1.19,1.19,0,0,1,1.19,1.19Z" transform="translate(525.657 371.875)" fill="#596c76"/>
          </g>
          <g id="g10814" transform="translate(7.005 19.438)">
            <path id="path10816" d="M-68.152,0h-5.487a1.19,1.19,0,0,0-1.19,1.19V33.183h5.487V1.19A1.19,1.19,0,0,1-68.152,0" transform="translate(74.829 0)" fill="#465a61"/>
          </g>
          <g id="g10818" transform="translate(7.005 19.438)">
            <path id="path10820" d="M-478.752-338.692h-46.9v-31.993a1.19,1.19,0,0,1,1.19-1.19h44.525a1.19,1.19,0,0,1,1.19,1.19Z" transform="translate(525.657 371.875)" fill="none" stroke="#000" stroke-linecap="round" stroke-linejoin="round" stroke-miterlimit="10" stroke-width="1.2"/>
          </g>
          <g id="g10822" transform="translate(10.124 22.557)">
            <path id="path10824" d="M0-249.432v-23.843a.6.6,0,0,1,.595-.595H40.073a.6.6,0,0,1,.595.595v23.843a.6.6,0,0,1-.595.595H.595A.6.6,0,0,1,0-249.432" transform="translate(0 273.87)" fill="#fff"/>
          </g>
          <g id="g10826" transform="translate(10.124 22.557)">
            <path id="path10828" d="M-37.535-249.432v-23.843a.6.6,0,0,1,.595-.595h-3.677a.6.6,0,0,0-.595.595v23.843a.6.6,0,0,0,.595.595h3.677a.6.6,0,0,1-.595-.595" transform="translate(41.212 273.87)" fill="#e8edf1"/>
          </g>
          <g id="g10830" transform="translate(10.124 22.557)">
            <path id="path10832" d="M-415.089-89.14v-8.138a.6.6,0,0,0-.595-.595h-39.478a.6.6,0,0,0-.595.595v23.843a.6.6,0,0,0,.595.595h39.478a.6.6,0,0,0,.595-.595v-11.54" transform="translate(455.756 97.873)" fill="none" stroke="#000" stroke-linecap="round" stroke-linejoin="round" stroke-miterlimit="10" stroke-width="1.2"/>
          </g>
          <g id="g10834" transform="translate(0.892 50.708)">
            <path id="path10836" d="M-591.391,0h-56.751a1.19,1.19,0,0,0-1.19,1.19V3.759a1.19,1.19,0,0,0,1.19,1.19h56.751a1.19,1.19,0,0,0,1.19-1.19V1.19A1.19,1.19,0,0,0-591.391,0" transform="translate(649.332 0)" fill="#7a8d98"/>
          </g>
          <g id="g10838" transform="translate(0.892 50.708)">
            <path id="path10840" d="M-73.469-38.364v-2.569a1.19,1.19,0,0,1,1.19-1.19h-7.2a1.19,1.19,0,0,0-1.19,1.19v2.569a1.19,1.19,0,0,0,1.19,1.19h7.2a1.19,1.19,0,0,1-1.19-1.19" transform="translate(80.666 42.123)" fill="#596c76"/>
          </g>
          <g id="g10842" transform="translate(0.892 50.708)">
            <path id="path10844" d="M-151.187-50.507h43.128a1.19,1.19,0,0,0,1.19-1.19v-2.569a1.19,1.19,0,0,0-1.19-1.19H-164.81a1.19,1.19,0,0,0-1.19,1.19V-51.7a1.19,1.19,0,0,0,1.19,1.19h9.458" transform="translate(166 55.456)" fill="none" stroke="#000" stroke-linecap="round" stroke-linejoin="round" stroke-miterlimit="10" stroke-width="1.2"/>
          </g>
          <path id="path10846" d="M250.666-109.437h16.181v-4.948H250.666Z" transform="translate(-228.299 165.093)" fill="#c5d3dd"/>
          <path id="path10848" d="M250.666-109.437h3.569v-4.948h-3.569Z" transform="translate(-228.299 165.093)" fill="#b6c4cf"/>
          <path id="path10850" d="M250.666-109.437h16.181v-4.948H250.666Z" transform="translate(-228.299 165.093)" fill="none" stroke="#000" stroke-linecap="round" stroke-linejoin="round" stroke-miterlimit="10" stroke-width="1.2"/>
          <g id="g10852" transform="translate(55.799 52.29)">
            <path id="path10854" d="M-18.215-9.108a.892.892,0,0,1-.892.892A.892.892,0,0,1-20-9.108.892.892,0,0,1-19.108-10a.892.892,0,0,1,.892.892" transform="translate(20 10)"/>
          </g>
          <g id="g10856" transform="translate(53.063 52.29)">
            <path id="path10858" d="M-18.215-9.108a.892.892,0,0,1-.892.892A.892.892,0,0,1-20-9.108.892.892,0,0,1-19.108-10a.892.892,0,0,1,.892.892" transform="translate(20 10)"/>
          </g>
          <g id="g10860" transform="translate(15.356 5.258)">
            <path id="path10862" d="M-154.133-308.267a15.118,15.118,0,0,1-15.1-15.1,15.118,15.118,0,0,1,15.1-15.1,15.118,15.118,0,0,1,15.1,15.1,15.118,15.118,0,0,1-15.1,15.1" transform="translate(169.234 338.469)" fill="#dff6fd"/>
          </g>
          <g id="g10864" transform="translate(15.356 5.258)">
            <path id="path10866" d="M-154.133-308.267a15.118,15.118,0,0,1-15.1-15.1,15.118,15.118,0,0,1,15.1-15.1,15.118,15.118,0,0,1,15.1,15.1A15.118,15.118,0,0,1-154.133-308.267Z" transform="translate(169.234 338.469)" fill="none" stroke="#000" stroke-linecap="round" stroke-linejoin="round" stroke-miterlimit="10" stroke-width="1.2"/>
          </g>
          <g id="g10868" transform="translate(19.598 9.5)">
            <path id="path10870" d="M-110.837-221.675A10.871,10.871,0,0,1-121.7-232.534a10.871,10.871,0,0,1,10.859-10.859,10.871,10.871,0,0,1,10.859,10.859,10.871,10.871,0,0,1-10.859,10.859" transform="translate(121.696 243.393)" fill="#99e6fc"/>
          </g>
          <g id="g10872" transform="translate(19.598 9.701)">
            <path id="path10874" d="M-89.585,0a10.877,10.877,0,0,0-8.777,10.658A10.871,10.871,0,0,0-87.5,21.517,10.871,10.871,0,0,0-76.644,10.658,10.877,10.877,0,0,0-85.421,0" transform="translate(98.362)" fill="none" stroke="#000" stroke-linecap="round" stroke-linejoin="round" stroke-miterlimit="10" stroke-width="1.2"/>
          </g>
          <g id="g10876" transform="translate(23.84 13.742)">
            <path id="path10878" d="M-135.082-67.541a6.617,6.617,0,0,1-6.617,6.617,6.617,6.617,0,0,1-6.617-6.617,6.617,6.617,0,0,1,6.617-6.617,6.617,6.617,0,0,1,6.617,6.617" transform="translate(148.317 74.158)" fill="#01d0fb"/>
          </g>
          <g id="g10880" transform="translate(23.84 13.742)">
            <path id="path10882" d="M-135.082-67.541a6.617,6.617,0,0,1-6.617,6.617,6.617,6.617,0,0,1-6.617-6.617,6.617,6.617,0,0,1,6.617-6.617A6.617,6.617,0,0,1-135.082-67.541Z" transform="translate(148.317 74.158)" fill="none" stroke="#000" stroke-linecap="round" stroke-linejoin="round" stroke-miterlimit="10" stroke-width="1.2"/>
          </g>
          <g id="g10884" transform="translate(23.022 18.928)">
            <path id="path10886" d="M-18.215-251.974h11.3a1.785,1.785,0,0,0,1.785-1.785v-21.117a1.785,1.785,0,0,0-1.785-1.785h-11.3A1.785,1.785,0,0,0-20-274.876v21.117a1.785,1.785,0,0,0,1.785,1.785" transform="translate(20 276.661)" fill="#596c76"/>
          </g>
          <g id="g10888" transform="translate(23.022 18.928)">
            <path id="path10890" d="M-37.038-233.759v-21.117a1.785,1.785,0,0,1,1.785-1.785h-3.629a1.785,1.785,0,0,0-1.785,1.785v21.117a1.785,1.785,0,0,0,1.785,1.785h3.629a1.785,1.785,0,0,1-1.785-1.785" transform="translate(40.667 256.661)" fill="#465a61"/>
          </g>
          <g id="g10892" transform="translate(23.022 18.928)">
            <path id="path10894" d="M-18.215-251.974h11.3a1.785,1.785,0,0,0,1.785-1.785v-21.117a1.785,1.785,0,0,0-1.785-1.785h-11.3A1.785,1.785,0,0,0-20-274.876v21.117A1.785,1.785,0,0,0-18.215-251.974Z" transform="translate(20 276.661)" fill="none" stroke="#000" stroke-linecap="round" stroke-linejoin="round" stroke-miterlimit="10" stroke-width="1.2"/>
          </g>
          <g id="g10896" transform="translate(23.022 17.203)">
            <path id="path10898" d="M-12.144,0H.349a1.19,1.19,0,0,1,1.19,1.19v21H-13.333v-21A1.19,1.19,0,0,1-12.144,0" transform="translate(13.333 0)" fill="#fddf30"/>
          </g>
          <g id="g10900" transform="translate(23.022 17.203)">
            <path id="path10902" d="M-49.181,0H-52.81A1.19,1.19,0,0,0-54,1.19v21h3.629v-21A1.19,1.19,0,0,1-49.181,0" transform="translate(54 0)" fill="#fed402"/>
          </g>
          <g id="g10904" transform="translate(23.022 17.203)">
            <path id="path10906" d="M-12.144,0H.349a1.19,1.19,0,0,1,1.19,1.19v21H-13.333v-21A1.19,1.19,0,0,1-12.144,0Z" transform="translate(13.333 0)" fill="none" stroke="#000" stroke-linecap="round" stroke-linejoin="round" stroke-miterlimit="10" stroke-width="1.2"/>
          </g>
          <g id="g10908" transform="translate(28.846 20.146)">
            <path id="path10910" d="M-32.892,0h-3.223" transform="translate(36.115)" fill="none" stroke="#000" stroke-linecap="round" stroke-linejoin="round" stroke-miterlimit="10" stroke-width="1.2"/>
          </g>
          <g id="g10912" transform="translate(27.031 35.882)">
            <path id="path10914" d="M-69.953,0h-6.854" transform="translate(76.806)" fill="none" stroke="#000" stroke-linecap="round" stroke-linejoin="round" stroke-miterlimit="10" stroke-width="1.2"/>
          </g>
          <g id="g10916" transform="translate(26.455 25.531)">
            <path id="path10918" d="M0-16.9a5.667,5.667,0,0,1,8,0" transform="translate(0 18.551)" fill="none" stroke="#000" stroke-linecap="round" stroke-linejoin="round" stroke-miterlimit="10" stroke-width="1.2"/>
          </g>
          <g id="g10920" transform="translate(28.379 28.25)">
            <path id="path10922" d="M0-8.786a2.939,2.939,0,0,1,4.156,0" transform="translate(0 9.647)" fill="none" stroke="#000" stroke-linecap="round" stroke-linejoin="round" stroke-miterlimit="10" stroke-width="1.2"/>
          </g>
          <g id="g10924" transform="translate(29.565 30.231)">
            <path id="path10926" d="M-15.548-15.547a.892.892,0,0,0,0-1.262.892.892,0,0,0-1.262,0,.892.892,0,0,0,0,1.262.892.892,0,0,0,1.262,0" transform="translate(17.072 17.07)"/>
          </g>
          <g id="g10928" transform="translate(14.455 38.737)">
            <path id="path10930" d="M-46.146-49.789H-50.31a.357.357,0,0,1-.357-.357V-54.31a.357.357,0,0,1,.357-.357h4.164a.357.357,0,0,1,.357.357v4.164a.357.357,0,0,1-.357.357" transform="translate(50.667 54.667)" fill="#00c27a"/>
          </g>
          <g id="g10932" transform="translate(14.455 38.737)">
            <path id="path10934" d="M-18.823-46.146V-50.31a.357.357,0,0,1,.357-.357H-20.31a.357.357,0,0,0-.357.357v4.164a.357.357,0,0,0,.357.357h1.844a.357.357,0,0,1-.357-.357" transform="translate(20.667 50.667)" fill="#09a755"/>
          </g>
          <g id="g10936" transform="translate(14.455 38.737)">
            <path id="path10938" d="M-46.146-49.789H-50.31a.357.357,0,0,1-.357-.357V-54.31a.357.357,0,0,1,.357-.357h4.164a.357.357,0,0,1,.357.357v4.164A.357.357,0,0,1-46.146-49.789Z" transform="translate(50.667 54.667)" fill="none" stroke="#000" stroke-linecap="round" stroke-linejoin="round" stroke-miterlimit="10" stroke-width="1.2"/>
          </g>
          <g id="g10940" transform="translate(41.582 38.737)">
            <path id="path10942" d="M-46.146-49.789H-50.31a.357.357,0,0,1-.357-.357V-54.31a.357.357,0,0,1,.357-.357h4.164a.357.357,0,0,1,.357.357v4.164a.357.357,0,0,1-.357.357" transform="translate(50.667 54.667)" fill="#fe646f"/>
          </g>
          <g id="g10944" transform="translate(41.582 38.737)">
            <path id="path10946" d="M-18.823-46.146V-50.31a.357.357,0,0,1,.357-.357H-20.31a.357.357,0,0,0-.357.357v4.164a.357.357,0,0,0,.357.357h1.844a.357.357,0,0,1-.357-.357" transform="translate(20.667 50.667)" fill="#fd4755"/>
          </g>
          <g id="g10948" transform="translate(41.582 38.737)">
            <path id="path10950" d="M-46.146-49.789H-50.31a.357.357,0,0,1-.357-.357V-54.31a.357.357,0,0,1,.357-.357h4.164a.357.357,0,0,1,.357.357v4.164A.357.357,0,0,1-46.146-49.789Z" transform="translate(50.667 54.667)" fill="none" stroke="#000" stroke-linecap="round" stroke-linejoin="round" stroke-miterlimit="10" stroke-width="1.2"/>
          </g>
        </g>
      </g>
    </g>
  </g>
</svg>
