<svg xmlns="http://www.w3.org/2000/svg" xmlns:xlink="http://www.w3.org/1999/xlink" width="113" height="113" viewBox="0 0 113 113">
  <defs>
    <filter id="Trazado_982547" x="0" y="0" width="113" height="113" filterUnits="userSpaceOnUse">
      <feOffset dy="3" input="SourceAlpha"/>
      <feGaussianBlur stdDeviation="3" result="blur"/>
      <feFlood flood-opacity="0.161"/>
      <feComposite operator="in" in2="blur"/>
      <feComposite in="SourceGraphic"/>
    </filter>
  </defs>
  <g id="Grupo_1226313" data-name="Grupo 1226313" transform="translate(-8411 -7463.487)">
    <g id="Grupo_1226234" data-name="Grupo 1226234" transform="translate(8420 7469.487)">
      <g id="Grupo_1224583" data-name="Grupo 1224583" transform="translate(0 0)">
        <g id="Grupo_1224450" data-name="Grupo 1224450">
          <g id="Grupo_1224085" data-name="Grupo 1224085">
            <g id="Grupo_1223184" data-name="Grupo 1223184">
              <g id="Grupo_1211216" data-name="Grupo 1211216">
                <g id="Grupo_1210737" data-name="Grupo 1210737">
                  <g id="Grupo_1210537" data-name="Grupo 1210537">
                    <g id="Grupo_1164202" data-name="Grupo 1164202">
                      <g id="Grupo_1158168" data-name="Grupo 1158168">
                        <g id="Grupo_1152576" data-name="Grupo 1152576">
                          <g id="Grupo_1148633" data-name="Grupo 1148633">
                            <g id="Grupo_1148525" data-name="Grupo 1148525">
                              <g transform="matrix(1, 0, 0, 1, -9, -6)" filter="url(#Trazado_982547)">
                                <g id="Trazado_982547-2" data-name="Trazado 982547" transform="translate(9 6)" fill="#fdf6e4">
                                  <path d="M 47.49999618530273 93.5 C 41.28936767578125 93.5 35.26533126831055 92.28396606445312 29.59518241882324 89.88570404052734 C 24.11771583557129 87.56893157958984 19.19812965393066 84.251953125 14.97308921813965 80.02690124511719 C 10.74803638458252 75.80186462402344 7.431062698364258 70.88227844238281 5.114289283752441 65.40480804443359 C 2.716022968292236 59.73466110229492 1.499996185302734 53.71062469482422 1.499996185302734 47.49999618530273 C 1.499996185302734 41.28936767578125 2.716022968292236 35.26533126831055 5.114289283752441 29.59518241882324 C 7.431062698364258 24.11771583557129 10.74803638458252 19.19812965393066 14.97308921813965 14.97308921813965 C 19.19812965393066 10.74803638458252 24.11771583557129 7.431062698364258 29.59518241882324 5.114289283752441 C 35.26533126831055 2.716022968292236 41.28936767578125 1.499996185302734 47.49999618530273 1.499996185302734 C 53.71062469482422 1.499996185302734 59.73466110229492 2.716022968292236 65.40480804443359 5.114289283752441 C 70.88227844238281 7.431062698364258 75.80186462402344 10.74803638458252 80.02690124511719 14.97308921813965 C 84.251953125 19.19812965393066 87.56893157958984 24.11771583557129 89.88570404052734 29.59518241882324 C 92.28396606445312 35.26533126831055 93.5 41.28936767578125 93.5 47.49999618530273 C 93.5 53.71062469482422 92.28396606445312 59.73466110229492 89.88570404052734 65.40480804443359 C 87.56893157958984 70.88227844238281 84.251953125 75.80186462402344 80.02690124511719 80.02690124511719 C 75.80186462402344 84.251953125 70.88227844238281 87.56893157958984 65.40480804443359 89.88570404052734 C 59.73466110229492 92.28396606445312 53.71062469482422 93.5 47.49999618530273 93.5 Z" stroke="none"/>
                                  <path d="M 47.49999618530273 2.999992370605469 C 41.4912109375 2.999992370605469 35.66376495361328 4.1761474609375 30.17950439453125 6.495796203613281 C 24.88084411621094 8.736953735351562 20.12152099609375 11.94598388671875 16.03375244140625 16.03375244140625 C 11.94598388671875 20.12152099609375 8.736953735351562 24.88084411621094 6.495796203613281 30.17950439453125 C 4.1761474609375 35.66376495361328 2.999992370605469 41.4912109375 2.999992370605469 47.49999618530273 C 2.999992370605469 53.50878143310547 4.1761474609375 59.33622741699219 6.495796203613281 64.82048797607422 C 8.736953735351562 70.11914825439453 11.94598388671875 74.87847137451172 16.03375244140625 78.96623992919922 C 20.12152099609375 83.05400848388672 24.88084411621094 86.26304626464844 30.17950439453125 88.50419616699219 C 35.66376495361328 90.82384490966797 41.4912109375 92 47.49999618530273 92 C 53.50878143310547 92 59.33622741699219 90.82384490966797 64.82048797607422 88.50419616699219 C 70.11914825439453 86.26304626464844 74.87847137451172 83.05400848388672 78.96623992919922 78.96623992919922 C 83.05400848388672 74.87847137451172 86.26304626464844 70.11914825439453 88.50419616699219 64.82048797607422 C 90.82384490966797 59.33622741699219 92 53.50878143310547 92 47.49999618530273 C 92 41.4912109375 90.82384490966797 35.66376495361328 88.50419616699219 30.17950439453125 C 86.26304626464844 24.88084411621094 83.05400848388672 20.12152099609375 78.96623992919922 16.03375244140625 C 74.87847137451172 11.94598388671875 70.11914825439453 8.736953735351562 64.82048797607422 6.495796203613281 C 59.33622741699219 4.1761474609375 53.50878143310547 2.999992370605469 47.49999618530273 2.999992370605469 M 47.49999618530273 -7.62939453125e-06 C 73.7335205078125 -7.62939453125e-06 95 21.26647186279297 95 47.49999618530273 C 95 73.7335205078125 73.7335205078125 95 47.49999618530273 95 C 21.26647186279297 95 -7.62939453125e-06 73.7335205078125 -7.62939453125e-06 47.49999618530273 C -7.62939453125e-06 21.26647186279297 21.26647186279297 -7.62939453125e-06 47.49999618530273 -7.62939453125e-06 Z" stroke="none" fill="#f5b104"/>
                                </g>
                              </g>
                            </g>
                          </g>
                        </g>
                      </g>
                    </g>
                  </g>
                </g>
              </g>
            </g>
          </g>
        </g>
      </g>
    </g>
    <g id="synchronize_2143807" transform="translate(8436 7483)">
      <path id="Trazado_1058327" data-name="Trazado 1058327" d="M34.832,9.445l-1.7-2.555A2.012,2.012,0,0,0,31.46,6H24.5a1,1,0,0,0-.9,1.447l1.5,3A1,1,0,0,0,26,11h8a1,1,0,0,0,.832-1.555Z" fill="#ffb74f"/>
      <path id="Trazado_1058328" data-name="Trazado 1058328" d="M59,16a3,3,0,0,0-3-3H8a3,3,0,0,0-3,3V52a1,1,0,0,0,1,1H24.764l1.789.9A1,1,0,0,0,27,54H37a1,1,0,0,0,.447-.1l1.789-.9H58a1,1,0,0,0,1-1Z" fill="#c8c6cc"/>
      <path id="Trazado_1058329" data-name="Trazado 1058329" d="M54,17H10a1,1,0,0,0-1,1V48a1,1,0,0,0,1,1H54a1,1,0,0,0,1-1V18A1,1,0,0,0,54,17Z" fill="#fff"/>
      <path id="Trazado_1058330" data-name="Trazado 1058330" d="M54,49H10a1,1,0,0,1-1-1V18a1,1,0,0,1,1-1H54a1,1,0,0,1,1,1V48A1,1,0,0,1,54,49ZM11,47H53V19H11Z" fill="#8b8992"/>
      <path id="Trazado_1058331" data-name="Trazado 1058331" d="M63,51H39a1,1,0,0,0-.447.1l-1.789.9H27.236l-1.789-.9A1,1,0,0,0,25,51H1a1,1,0,0,0-1,1v4a3,3,0,0,0,3,3H61a3,3,0,0,0,3-3V52A1,1,0,0,0,63,51Z" fill="#8b8992"/>
      <path id="Trazado_1058332" data-name="Trazado 1058332" d="M49,9H26.618L25.175,6.1A1.993,1.993,0,0,0,23.38,5H15a2,2,0,0,0-2,2V33a2,2,0,0,0,2,2h6.05a1,1,0,0,0,1-1.091c-.027-.3-.046-.6-.046-.909a10,10,0,0,1,20,0c0,.309-.019.609-.046.909a1,1,0,0,0,1,1.091H49a2,2,0,0,0,2-2V11a2,2,0,0,0-2-2Z" fill="#00a6ff"/>
      <path id="Trazado_1058333" data-name="Trazado 1058333" d="M39,18H25a1,1,0,0,1,0-2H39a1,1,0,0,1,0,2Z" fill="#ffb74f"/>
      <circle id="Elipse_12638" data-name="Elipse 12638" cx="12" cy="12" r="12" transform="translate(20 21)" fill="#f0e7dc"/>
      <path id="Trazado_1058334" data-name="Trazado 1058334" d="M38.892,35.234a.971.971,0,0,1-.177-.016,1,1,0,0,1-.809-1.16,6,6,0,0,0-8.368-6.53l1.244.249a1,1,0,1,1-.393,1.961l-3.536-.707a1,1,0,0,1-.511-1.688,8,8,0,0,1,13.532,7.066,1,1,0,0,1-.982.825Z" fill="#ffb74f"/>
      <path id="Trazado_1058335" data-name="Trazado 1058335" d="M32,41a7.994,7.994,0,0,1-7.875-9.405,1,1,0,1,1,1.969.351,6,6,0,0,0,8.368,6.53l-1.244-.249a1,1,0,1,1,.393-1.961l3.536.707a1,1,0,0,1,.511,1.688A7.98,7.98,0,0,1,32,41Z" fill="#ffb74f"/>
      <path id="Trazado_1058336" data-name="Trazado 1058336" d="M32,45A12,12,0,1,1,44,33,12.013,12.013,0,0,1,32,45Zm0-22A10,10,0,1,0,42,33,10.011,10.011,0,0,0,32,23Z" fill="#ffb74f"/>
      <g id="Grupo_1226312" data-name="Grupo 1226312">
        <path id="Trazado_1058337" data-name="Trazado 1058337" d="M63,51H59V16a3,3,0,0,0-3-3H51V11a2,2,0,0,0-2-2H34.535L33.129,6.891A2,2,0,0,0,31.465,6H25.1a1.976,1.976,0,0,0-1.716-1H15a2,2,0,0,0-2,2v6H8a3,3,0,0,0-3,3V51H1a1,1,0,0,0-1,1v4a3,3,0,0,0,3,3H61a3,3,0,0,0,3-3V52A1,1,0,0,0,63,51ZM15,35h5.181a11.984,11.984,0,0,0,23.638,0H49a2,2,0,0,0,2-2V19h2V47H11V19h2V33A2,2,0,0,0,15,35Zm17,8A10,10,0,1,1,42,33,10.011,10.011,0,0,1,32,43Zm.132-34H26.619l-.5-1h5.347ZM15,7h8.382l1.724,3.447A1,1,0,0,0,26,11H49V33H44a12,12,0,0,0-24,0H15ZM7,16a1,1,0,0,1,1-1h5v2H10a1,1,0,0,0-1,1V48a1,1,0,0,0,1,1H54a1,1,0,0,0,1-1V18a1,1,0,0,0-1-1H51V15h5a1,1,0,0,1,1,1V51H39a1,1,0,0,0-.447.1l-1.789.9H27.237l-1.789-.9A1.01,1.01,0,0,0,25,51H7ZM62,56a1,1,0,0,1-1,1H3a1,1,0,0,1-1-1V53H24.764l1.789.9A1,1,0,0,0,27,54H37a1,1,0,0,0,.447-.1l1.789-.9H62Z" fill="#0b0a0a"/>
        <path id="Trazado_1058338" data-name="Trazado 1058338" d="M26.343,27.343a1,1,0,0,0,.511,1.688l3.536.707a1,1,0,1,0,.393-1.961l-1.244-.249a6,6,0,0,1,8.368,6.53,1,1,0,0,0,.809,1.16.971.971,0,0,0,.177.016,1,1,0,0,0,.983-.824,8,8,0,0,0-13.533-7.067Z" fill="#0b0a0a"/>
        <path id="Trazado_1058339" data-name="Trazado 1058339" d="M37.146,36.969l-3.536-.707a1,1,0,1,0-.393,1.961l1.244.249a6,6,0,0,1-8.368-6.53,1,1,0,0,0-1.969-.351,8,8,0,0,0,13.532,7.066,1,1,0,0,0-.51-1.688Z" fill="#0b0a0a"/>
        <path id="Trazado_1058340" data-name="Trazado 1058340" d="M25,18H39a1,1,0,0,0,0-2H25a1,1,0,0,0,0,2Z" fill="#0b0a0a"/>
      </g>
    </g>
  </g>
</svg>
