<svg xmlns="http://www.w3.org/2000/svg" xmlns:xlink="http://www.w3.org/1999/xlink" width="113" height="113" viewBox="0 0 113 113">
  <defs>
    <filter id="Trazado_982547" x="0" y="0" width="113" height="113" filterUnits="userSpaceOnUse">
      <feOffset dy="3" input="SourceAlpha"/>
      <feGaussianBlur stdDeviation="3" result="blur"/>
      <feFlood flood-opacity="0.161"/>
      <feComposite operator="in" in2="blur"/>
      <feComposite in="SourceGraphic"/>
    </filter>
  </defs>
  <g id="Grupo_1226314" data-name="Grupo 1226314" transform="translate(-8061 -7839.487)">
    <g id="Grupo_1226235" data-name="Grupo 1226235" transform="translate(8070 7845.487)">
      <g id="Grupo_1224583" data-name="Grupo 1224583" transform="translate(0 0)">
        <g id="Grupo_1224450" data-name="Grupo 1224450">
          <g id="Grupo_1224085" data-name="Grupo 1224085">
            <g id="Grupo_1223184" data-name="Grupo 1223184">
              <g id="Grupo_1211216" data-name="Grupo 1211216">
                <g id="Grupo_1210737" data-name="Grupo 1210737">
                  <g id="Grupo_1210537" data-name="Grupo 1210537">
                    <g id="Grupo_1164202" data-name="Grupo 1164202">
                      <g id="Grupo_1158168" data-name="Grupo 1158168">
                        <g id="Grupo_1152576" data-name="Grupo 1152576">
                          <g id="Grupo_1148633" data-name="Grupo 1148633">
                            <g id="Grupo_1148525" data-name="Grupo 1148525">
                              <g transform="matrix(1, 0, 0, 1, -9, -6)" filter="url(#Trazado_982547)">
                                <g id="Trazado_982547-2" data-name="Trazado 982547" transform="translate(9 6)" fill="#fdf6e4">
                                  <path d="M 47.49999618530273 93.5 C 41.28936767578125 93.5 35.26533126831055 92.28396606445312 29.59518241882324 89.88570404052734 C 24.11771583557129 87.56893157958984 19.19812965393066 84.251953125 14.97308921813965 80.02690124511719 C 10.74803638458252 75.80186462402344 7.431062698364258 70.88227844238281 5.114289283752441 65.40480804443359 C 2.716022968292236 59.73466110229492 1.499996185302734 53.71062469482422 1.499996185302734 47.49999618530273 C 1.499996185302734 41.28936767578125 2.716022968292236 35.26533126831055 5.114289283752441 29.59518241882324 C 7.431062698364258 24.11771583557129 10.74803638458252 19.19812965393066 14.97308921813965 14.97308921813965 C 19.19812965393066 10.74803638458252 24.11771583557129 7.431062698364258 29.59518241882324 5.114289283752441 C 35.26533126831055 2.716022968292236 41.28936767578125 1.499996185302734 47.49999618530273 1.499996185302734 C 53.71062469482422 1.499996185302734 59.73466110229492 2.716022968292236 65.40480804443359 5.114289283752441 C 70.88227844238281 7.431062698364258 75.80186462402344 10.74803638458252 80.02690124511719 14.97308921813965 C 84.251953125 19.19812965393066 87.56893157958984 24.11771583557129 89.88570404052734 29.59518241882324 C 92.28396606445312 35.26533126831055 93.5 41.28936767578125 93.5 47.49999618530273 C 93.5 53.71062469482422 92.28396606445312 59.73466110229492 89.88570404052734 65.40480804443359 C 87.56893157958984 70.88227844238281 84.251953125 75.80186462402344 80.02690124511719 80.02690124511719 C 75.80186462402344 84.251953125 70.88227844238281 87.56893157958984 65.40480804443359 89.88570404052734 C 59.73466110229492 92.28396606445312 53.71062469482422 93.5 47.49999618530273 93.5 Z" stroke="none"/>
                                  <path d="M 47.49999618530273 2.999992370605469 C 41.4912109375 2.999992370605469 35.66376495361328 4.1761474609375 30.17950439453125 6.495796203613281 C 24.88084411621094 8.736953735351562 20.12152099609375 11.94598388671875 16.03375244140625 16.03375244140625 C 11.94598388671875 20.12152099609375 8.736953735351562 24.88084411621094 6.495796203613281 30.17950439453125 C 4.1761474609375 35.66376495361328 2.999992370605469 41.4912109375 2.999992370605469 47.49999618530273 C 2.999992370605469 53.50878143310547 4.1761474609375 59.33622741699219 6.495796203613281 64.82048797607422 C 8.736953735351562 70.11914825439453 11.94598388671875 74.87847137451172 16.03375244140625 78.96623992919922 C 20.12152099609375 83.05400848388672 24.88084411621094 86.26304626464844 30.17950439453125 88.50419616699219 C 35.66376495361328 90.82384490966797 41.4912109375 92 47.49999618530273 92 C 53.50878143310547 92 59.33622741699219 90.82384490966797 64.82048797607422 88.50419616699219 C 70.11914825439453 86.26304626464844 74.87847137451172 83.05400848388672 78.96623992919922 78.96623992919922 C 83.05400848388672 74.87847137451172 86.26304626464844 70.11914825439453 88.50419616699219 64.82048797607422 C 90.82384490966797 59.33622741699219 92 53.50878143310547 92 47.49999618530273 C 92 41.4912109375 90.82384490966797 35.66376495361328 88.50419616699219 30.17950439453125 C 86.26304626464844 24.88084411621094 83.05400848388672 20.12152099609375 78.96623992919922 16.03375244140625 C 74.87847137451172 11.94598388671875 70.11914825439453 8.736953735351562 64.82048797607422 6.495796203613281 C 59.33622741699219 4.1761474609375 53.50878143310547 2.999992370605469 47.49999618530273 2.999992370605469 M 47.49999618530273 -7.62939453125e-06 C 73.7335205078125 -7.62939453125e-06 95 21.26647186279297 95 47.49999618530273 C 95 73.7335205078125 73.7335205078125 95 47.49999618530273 95 C 21.26647186279297 95 -7.62939453125e-06 73.7335205078125 -7.62939453125e-06 47.49999618530273 C -7.62939453125e-06 21.26647186279297 21.26647186279297 -7.62939453125e-06 47.49999618530273 -7.62939453125e-06 Z" stroke="none" fill="#f5b104"/>
                                </g>
                              </g>
                            </g>
                          </g>
                        </g>
                      </g>
                    </g>
                  </g>
                </g>
              </g>
            </g>
          </g>
        </g>
      </g>
    </g>
    <g id="refactoring_3295504" transform="translate(8080.05 7854.741)">
      <path id="Trazado_1058341" data-name="Trazado 1058341" d="M12.75,13.154h54.2V29.933H12.75Z" transform="translate(-1.912 -1.915)" fill="#fc5d3d"/>
      <path id="Trazado_1058342" data-name="Trazado 1058342" d="M105.73,105.517h-3.28l6.008,6.822,6.008-6.822h-3.278l0-6.347H105.73Z" transform="translate(-70.518 -67.704)" fill="#f0c020"/>
      <path id="Trazado_1058343" data-name="Trazado 1058343" d="M123.638,109.375a.588.588,0,0,1-.588-.588v-1.338a.588.588,0,1,1,1.176,0v1.338A.588.588,0,0,1,123.638,109.375Zm0-3.689a.588.588,0,0,1-.588-.588v-.941a.588.588,0,0,1,1.176,0v.941A.588.588,0,0,1,123.638,105.685Z" transform="translate(-86.274 -71.068)" fill="#f8e5b0"/>
      <path id="Trazado_1058344" data-name="Trazado 1058344" d="M12.75,171.5h54.2v16.779H12.75Z" transform="translate(-1.912 -123.028)" fill="#72c1e8"/>
      <path id="Trazado_1058345" data-name="Trazado 1058345" d="M71.569,194.8H26.654a.588.588,0,0,1,0-1.176H70.981v-10.7a.588.588,0,1,1,1.176,0v11.288A.588.588,0,0,1,71.569,194.8Zm-47.267,0H22.421a.588.588,0,0,1,0-1.176H24.3a.588.588,0,0,1,0,1.176Z" transform="translate(-8.859 -131.313)" fill="#c5e5ff"/>
      <path id="Trazado_1058346" data-name="Trazado 1058346" d="M71.569,38.8H26.654a.588.588,0,0,1,0-1.176H70.981v-10.7a.588.588,0,1,1,1.176,0V38.212A.588.588,0,0,1,71.569,38.8ZM24.3,38.8H22.421a.588.588,0,0,1,0-1.176H24.3a.588.588,0,1,1,0,1.176Z" transform="translate(-8.859 -11.998)" fill="#ffcbc3"/>
      <path id="Trazado_1058347" data-name="Trazado 1058347" d="M112.552,103.018h-2.69l0-5.759a.587.587,0,1,0-1.173,0v6.347a.586.586,0,0,0,.588.588h1.978l-4.708,5.345-4.708-5.345h1.98a.587.587,0,0,0,.588-.588V97.261a.588.588,0,0,0-1.176,0v5.757h-2.692a.59.59,0,0,0-.442.978l6.009,6.82a.589.589,0,0,0,.884,0l6.008-6.82A.59.59,0,0,0,112.552,103.018Z" transform="translate(-68.604 -65.792)"/>
      <circle id="Elipse_12639" data-name="Elipse 12639" cx="0.588" cy="0.588" r="0.588" transform="translate(52.261 27.429)"/>
      <path id="Trazado_1058348" data-name="Trazado 1058348" d="M144.944,11.238a.589.589,0,0,0-.588-.588H114.538a.588.588,0,1,0,0,1.176h29.23v15.6h-9.254a.588.588,0,0,0,0,1.176h9.842a.586.586,0,0,0,.588-.588Z" transform="translate(-79.314)"/>
      <circle id="Elipse_12640" data-name="Elipse 12640" cx="0.588" cy="0.588" r="0.588" transform="translate(32.284 10.65)"/>
      <path id="Trazado_1058349" data-name="Trazado 1058349" d="M51.085,28.016a.588.588,0,0,0-.588-.588H11.426v-15.6H30.521a.588.588,0,0,0,0-1.176H10.838a.59.59,0,0,0-.588.588V28.016a.586.586,0,0,0,.588.588H50.5A.588.588,0,0,0,51.085,28.016Z" transform="translate(0 0)"/>
      <path id="Trazado_1058350" data-name="Trazado 1058350" d="M10.838,186.954h54.2a.586.586,0,0,0,.588-.588V169.588a.586.586,0,0,0-.588-.588H42.279a.588.588,0,1,0,0,1.176H64.454v15.6H11.426v-15.6h26.15a.588.588,0,0,0,0-1.176H10.838a.589.589,0,0,0-.588.588v16.779A.586.586,0,0,0,10.838,186.954Z" transform="translate(0 -121.113)"/>
      <circle id="Elipse_12641" data-name="Elipse 12641" cx="0.588" cy="0.588" r="0.588" transform="translate(39.339 47.887)"/>
      <path id="Trazado_1058351" data-name="Trazado 1058351" d="M38.222,189.054a.587.587,0,0,0-.831.021l-3.525,3.712a.587.587,0,0,0,0,.81l3.525,3.712a.588.588,0,0,0,.852-.81L35.1,193.193l3.141-3.307A.588.588,0,0,0,38.222,189.054Z" transform="translate(-17.939 -136.327)"/>
      <path id="Trazado_1058352" data-name="Trazado 1058352" d="M202.006,197.331a.588.588,0,0,0,.831-.021l3.525-3.712a.588.588,0,0,0,0-.81l-3.525-3.712a.588.588,0,1,0-.852.81l3.141,3.307-3.141,3.307A.588.588,0,0,0,202.006,197.331Z" transform="translate(-146.523 -136.327)"/>
      <path id="Trazado_1058353" data-name="Trazado 1058353" d="M76.333,189.48a.588.588,0,0,0-.588-.588h-11.8a.588.588,0,0,0,0,1.176h11.8A.588.588,0,0,0,76.333,189.48Z" transform="translate(-40.616 -136.327)"/>
      <path id="Trazado_1058354" data-name="Trazado 1058354" d="M107.205,220.465H82.3a.588.588,0,0,0,0,1.176h24.9a.588.588,0,1,0,0-1.176Z" transform="translate(-54.66 -160.475)"/>
      <path id="Trazado_1058355" data-name="Trazado 1058355" d="M107.205,204.679H82.3a.588.588,0,0,0,0,1.176h24.9a.588.588,0,1,0,0-1.176Z" transform="translate(-54.66 -148.401)"/>
      <path id="Trazado_1058356" data-name="Trazado 1058356" d="M38.463,30.7a.587.587,0,0,0-.831.021l-3.525,3.712a.588.588,0,0,0,0,.81l3.525,3.712a.588.588,0,0,0,.852-.81l-3.141-3.307,3.141-3.307A.588.588,0,0,0,38.463,30.7Z" transform="translate(-18.123 -15.214)"/>
      <path id="Trazado_1058357" data-name="Trazado 1058357" d="M202.247,38.981a.588.588,0,0,0,.831-.021l3.525-3.712a.588.588,0,0,0,0-.81l-3.525-3.712a.588.588,0,0,0-.852.81l3.141,3.307-3.141,3.307A.588.588,0,0,0,202.247,38.981Z" transform="translate(-146.707 -15.214)"/>
      <path id="Trazado_1058358" data-name="Trazado 1058358" d="M93.4,30.542H64.183a.588.588,0,0,0,0,1.176H93.4a.588.588,0,0,0,0-1.176Z" transform="translate(-40.8 -15.214)"/>
      <path id="Trazado_1058359" data-name="Trazado 1058359" d="M93.99,62.7a.588.588,0,0,0-.588-.588H64.183a.588.588,0,0,0,0,1.176H93.4A.588.588,0,0,0,93.99,62.7Z" transform="translate(-40.8 -39.363)"/>
      <path id="Trazado_1058360" data-name="Trazado 1058360" d="M64.183,47.5H93.4a.588.588,0,0,0,0-1.176H64.183a.588.588,0,0,0,0,1.176Z" transform="translate(-40.8 -27.289)"/>
    </g>
  </g>
</svg>
