<svg xmlns="http://www.w3.org/2000/svg" xmlns:xlink="http://www.w3.org/1999/xlink" width="113" height="113" viewBox="0 0 113 113">
  <defs>
    <filter id="Trazado_982547" x="0" y="0" width="113" height="113" filterUnits="userSpaceOnUse">
      <feOffset dy="3" input="SourceAlpha"/>
      <feGaussianBlur stdDeviation="3" result="blur"/>
      <feFlood flood-opacity="0.161"/>
      <feComposite operator="in" in2="blur"/>
      <feComposite in="SourceGraphic"/>
    </filter>
  </defs>
  <g id="Grupo_1226316" data-name="Grupo 1226316" transform="translate(-8410.51 -7839.487)">
    <g id="Grupo_1226236" data-name="Grupo 1226236" transform="translate(8419.51 7845.487)">
      <g id="Grupo_1224583" data-name="Grupo 1224583" transform="translate(0 0)">
        <g id="Grupo_1224450" data-name="Grupo 1224450">
          <g id="Grupo_1224085" data-name="Grupo 1224085">
            <g id="Grupo_1223184" data-name="Grupo 1223184">
              <g id="Grupo_1211216" data-name="Grupo 1211216">
                <g id="Grupo_1210737" data-name="Grupo 1210737">
                  <g id="Grupo_1210537" data-name="Grupo 1210537">
                    <g id="Grupo_1164202" data-name="Grupo 1164202">
                      <g id="Grupo_1158168" data-name="Grupo 1158168">
                        <g id="Grupo_1152576" data-name="Grupo 1152576">
                          <g id="Grupo_1148633" data-name="Grupo 1148633">
                            <g id="Grupo_1148525" data-name="Grupo 1148525">
                              <g transform="matrix(1, 0, 0, 1, -9, -6)" filter="url(#Trazado_982547)">
                                <g id="Trazado_982547-2" data-name="Trazado 982547" transform="translate(9 6)" fill="#fdf6e4">
                                  <path d="M 47.49999618530273 93.5 C 41.28936767578125 93.5 35.26533126831055 92.28396606445312 29.59518241882324 89.88570404052734 C 24.11771583557129 87.56893157958984 19.19812965393066 84.251953125 14.97308921813965 80.02690124511719 C 10.74803638458252 75.80186462402344 7.431062698364258 70.88227844238281 5.114289283752441 65.40480804443359 C 2.716022968292236 59.73466110229492 1.499996185302734 53.71062469482422 1.499996185302734 47.49999618530273 C 1.499996185302734 41.28936767578125 2.716022968292236 35.26533126831055 5.114289283752441 29.59518241882324 C 7.431062698364258 24.11771583557129 10.74803638458252 19.19812965393066 14.97308921813965 14.97308921813965 C 19.19812965393066 10.74803638458252 24.11771583557129 7.431062698364258 29.59518241882324 5.114289283752441 C 35.26533126831055 2.716022968292236 41.28936767578125 1.499996185302734 47.49999618530273 1.499996185302734 C 53.71062469482422 1.499996185302734 59.73466110229492 2.716022968292236 65.40480804443359 5.114289283752441 C 70.88227844238281 7.431062698364258 75.80186462402344 10.74803638458252 80.02690124511719 14.97308921813965 C 84.251953125 19.19812965393066 87.56893157958984 24.11771583557129 89.88570404052734 29.59518241882324 C 92.28396606445312 35.26533126831055 93.5 41.28936767578125 93.5 47.49999618530273 C 93.5 53.71062469482422 92.28396606445312 59.73466110229492 89.88570404052734 65.40480804443359 C 87.56893157958984 70.88227844238281 84.251953125 75.80186462402344 80.02690124511719 80.02690124511719 C 75.80186462402344 84.251953125 70.88227844238281 87.56893157958984 65.40480804443359 89.88570404052734 C 59.73466110229492 92.28396606445312 53.71062469482422 93.5 47.49999618530273 93.5 Z" stroke="none"/>
                                  <path d="M 47.49999618530273 2.999992370605469 C 41.4912109375 2.999992370605469 35.66376495361328 4.1761474609375 30.17950439453125 6.495796203613281 C 24.88084411621094 8.736953735351562 20.12152099609375 11.94598388671875 16.03375244140625 16.03375244140625 C 11.94598388671875 20.12152099609375 8.736953735351562 24.88084411621094 6.495796203613281 30.17950439453125 C 4.1761474609375 35.66376495361328 2.999992370605469 41.4912109375 2.999992370605469 47.49999618530273 C 2.999992370605469 53.50878143310547 4.1761474609375 59.33622741699219 6.495796203613281 64.82048797607422 C 8.736953735351562 70.11914825439453 11.94598388671875 74.87847137451172 16.03375244140625 78.96623992919922 C 20.12152099609375 83.05400848388672 24.88084411621094 86.26304626464844 30.17950439453125 88.50419616699219 C 35.66376495361328 90.82384490966797 41.4912109375 92 47.49999618530273 92 C 53.50878143310547 92 59.33622741699219 90.82384490966797 64.82048797607422 88.50419616699219 C 70.11914825439453 86.26304626464844 74.87847137451172 83.05400848388672 78.96623992919922 78.96623992919922 C 83.05400848388672 74.87847137451172 86.26304626464844 70.11914825439453 88.50419616699219 64.82048797607422 C 90.82384490966797 59.33622741699219 92 53.50878143310547 92 47.49999618530273 C 92 41.4912109375 90.82384490966797 35.66376495361328 88.50419616699219 30.17950439453125 C 86.26304626464844 24.88084411621094 83.05400848388672 20.12152099609375 78.96623992919922 16.03375244140625 C 74.87847137451172 11.94598388671875 70.11914825439453 8.736953735351562 64.82048797607422 6.495796203613281 C 59.33622741699219 4.1761474609375 53.50878143310547 2.999992370605469 47.49999618530273 2.999992370605469 M 47.49999618530273 -7.62939453125e-06 C 73.7335205078125 -7.62939453125e-06 95 21.26647186279297 95 47.49999618530273 C 95 73.7335205078125 73.7335205078125 95 47.49999618530273 95 C 21.26647186279297 95 -7.62939453125e-06 73.7335205078125 -7.62939453125e-06 47.49999618530273 C -7.62939453125e-06 21.26647186279297 21.26647186279297 -7.62939453125e-06 47.49999618530273 -7.62939453125e-06 Z" stroke="none" fill="#f5b104"/>
                                </g>
                              </g>
                            </g>
                          </g>
                        </g>
                      </g>
                    </g>
                  </g>
                </g>
              </g>
            </g>
          </g>
        </g>
      </g>
    </g>
    <g id="Icons" transform="translate(8431.485 7861.226)">
      <path id="Trazado_1058361" data-name="Trazado 1058361" d="M32.922,49.711V63.086a.836.836,0,1,1-1.672,0V49.711a.836.836,0,0,1,1.672,0Z" transform="translate(3.438 5.459)" fill="#d2d4d6"/>
      <path id="Trazado_1058362" data-name="Trazado 1058362" d="M64.289,12.771a10.959,10.959,0,0,1-.914,4.4,11.132,11.132,0,1,1,.914-4.4Z" transform="translate(4.673 0.043)" fill="#2f2d3b"/>
      <path id="Trazado_1058363" data-name="Trazado 1058363" d="M64.063,12.771a10.959,10.959,0,0,1-.914,4.4A11.138,11.138,0,0,1,44,9.427a10.959,10.959,0,0,1,.914-4.4,11.138,11.138,0,0,1,19.149,7.747Z" transform="translate(4.9 0.043)" fill="#494759"/>
      <path id="Trazado_1058364" data-name="Trazado 1058364" d="M47.844,17.762a.836.836,0,0,1-.591-1.427L56.71,6.877a.836.836,0,1,1,1.182,1.182l-9.457,9.458a.832.832,0,0,1-.591.245Z" transform="translate(5.245 0.617)" fill="#d2d4d6"/>
      <path id="Trazado_1058365" data-name="Trazado 1058365" d="M57.3,17.762a.832.832,0,0,1-.591-.245L47.253,8.059a.836.836,0,1,1,1.182-1.182l9.457,9.458a.836.836,0,0,1-.591,1.427Z" transform="translate(5.245 0.617)" fill="#d2d4d6"/>
      <path id="Trazado_1058366" data-name="Trazado 1058366" d="M24.292,12.771a11.06,11.06,0,1,1-3.239-7.907A11.146,11.146,0,0,1,24.292,12.771Z" transform="translate(0.086 0.043)" fill="#0874ba"/>
      <path id="Trazado_1058367" data-name="Trazado 1058367" d="M23.948,12.771a11.06,11.06,0,0,1-1.772,6.03A11.146,11.146,0,0,1,6.772,3.4a11.146,11.146,0,0,1,17.176,9.374Z" transform="translate(0.43 0.043)" fill="#2992cc"/>
      <path id="Trazado_1058368" data-name="Trazado 1058368" d="M10.572,17.611h-.044a.835.835,0,0,1-.606-.309L5.2,11.46a.836.836,0,1,1,1.3-1.051l4.142,5.119L19.166,7a.836.836,0,1,1,1.182,1.182l-9.185,9.185a.835.835,0,0,1-.591.245Z" transform="translate(0.431 0.631)" fill="#d2d4d6"/>
      <g id="Grupo_1226315" data-name="Grupo 1226315" transform="translate(29.115 33.435)">
        <path id="Trazado_1058369" data-name="Trazado 1058369" d="M26.25,30.125h1.672V31.8a.836.836,0,0,1-1.672,0Z" transform="translate(-26.25 -30.125)" fill="#bbbcc2"/>
        <path id="Trazado_1058370" data-name="Trazado 1058370" d="M27.922,49.711v1.672H26.25V49.711a.836.836,0,0,1,1.672,0Z" transform="translate(-26.25 -27.976)" fill="#bbbcc2"/>
        <path id="Trazado_1058371" data-name="Trazado 1058371" d="M31.25,30.125h1.672V31.8a.836.836,0,1,1-1.672,0Z" transform="translate(-25.677 -30.125)" fill="#bbbcc2"/>
        <path id="Trazado_1058372" data-name="Trazado 1058372" d="M32.922,49.711v1.672H31.25V49.711a.836.836,0,0,1,1.672,0Z" transform="translate(-25.677 -27.976)" fill="#bbbcc2"/>
        <path id="Trazado_1058373" data-name="Trazado 1058373" d="M36.25,30.125h1.672V31.8a.836.836,0,0,1-1.672,0Z" transform="translate(-25.104 -30.125)" fill="#bbbcc2"/>
        <path id="Trazado_1058374" data-name="Trazado 1058374" d="M37.922,49.711v1.672H36.25V49.711a.836.836,0,0,1,1.672,0Z" transform="translate(-25.104 -27.976)" fill="#bbbcc2"/>
      </g>
      <rect id="Rectángulo_422456" data-name="Rectángulo 422456" width="20.063" height="20.063" rx="2" transform="translate(25.493 35.106)" fill="#ea9126"/>
      <path id="Trazado_1058375" data-name="Trazado 1058375" d="M39.719,31.625v14.49a2.236,2.236,0,0,1-2.229,2.229H23V33.854a2.236,2.236,0,0,1,2.229-2.229Z" transform="translate(2.493 3.481)" fill="#fba834"/>
      <path id="Trazado_1058376" data-name="Trazado 1058376" d="M37.086,46.429a.836.836,0,0,1-.836-.836V37.017a.836.836,0,0,1,1.672,0v8.576a.836.836,0,0,1-.836.836Z" transform="translate(4.012 4.004)" fill="#2f2d3b"/>
      <path id="Trazado_1058377" data-name="Trazado 1058377" d="M33.774,46.464a.836.836,0,0,1-.836-.836V40.978a1.384,1.384,0,0,0-.408-.986l-2.1-2.1-2.1,2.1a1.384,1.384,0,0,0-.408.986v4.649a.836.836,0,1,1-1.672,0V40.978a3.045,3.045,0,0,1,.9-2.168l2.691-2.691a.836.836,0,0,1,1.182,0l2.691,2.691a3.045,3.045,0,0,1,.9,2.168v4.649a.836.836,0,0,1-.836.836Z" transform="translate(2.865 3.969)" fill="#2f2d3b"/>
      <path id="Trazado_1058378" data-name="Trazado 1058378" d="M33.774,42.547H27.086a.836.836,0,0,1,0-1.672h6.688a.836.836,0,0,1,0,1.672Z" transform="translate(2.865 4.542)" fill="#2f2d3b"/>
      <path id="Trazado_1058379" data-name="Trazado 1058379" d="M41.1,50.85a.836.836,0,0,1-.836-.836V41.438a.836.836,0,0,1,1.672,0v8.576a.836.836,0,0,1-.836.836ZM35.8,50.014V47.507H30.787v2.508a.836.836,0,0,1-1.672,0V45.365a3.045,3.045,0,0,1,.9-2.168L32.7,40.506a.836.836,0,0,1,1.182,0L36.577,43.2a3.045,3.045,0,0,1,.9,2.168v4.649a.836.836,0,0,1-1.672,0Zm0-4.18v-.47a1.384,1.384,0,0,0-.408-.986l-2.1-2.1-2.1,2.1a1.384,1.384,0,0,0-.408.986v.47Zm9.753,3.344a.836.836,0,0,0-.836.836v3.344a1.4,1.4,0,0,1-1.393,1.393h-15.6a1.4,1.4,0,0,1-1.393-1.393v-7.8a.836.836,0,0,0-.836-.836H15.461a1.4,1.4,0,0,1-1.393-1.393V28.837a.836.836,0,0,0-1.672,0v14.49a3.068,3.068,0,0,0,3.065,3.065h9.2v6.966a3.068,3.068,0,0,0,3.065,3.065h1.393v4.221l-4,2a.835.835,0,0,0-.463.748v3.344a.836.836,0,0,0,1.672,0V63.906l4-2a.835.835,0,0,0,.463-.748V56.423h3.9V68.963a.836.836,0,1,0,1.672,0V56.423h3.9v4.737a.835.835,0,0,0,.463.748l4,2v2.827a.836.836,0,0,0,1.672,0V63.39a.835.835,0,0,0-.463-.748l-4-2V56.423h1.393a3.068,3.068,0,0,0,3.065-3.065V50.014a.836.836,0,0,0-.836-.836ZM57.817,28a.836.836,0,0,0-.836.836v14.49a1.4,1.4,0,0,1-1.393,1.393h-9.2V37.754a3.068,3.068,0,0,0-3.065-3.065H41.933V30.468l4-2a.835.835,0,0,0,.463-.748V24.378a.836.836,0,1,0-1.672,0v2.827l-4,2a.835.835,0,0,0-.463.748v4.737h-3.9V22.149a.836.836,0,1,0-1.672,0V34.688h-3.9V29.951a.835.835,0,0,0-.463-.748l-4-2V24.378a.836.836,0,1,0-1.672,0v3.344a.835.835,0,0,0,.463.748l4,2v4.221H27.722a3.068,3.068,0,0,0-3.065,3.065V41.1a.836.836,0,1,0,1.672,0V37.754a1.4,1.4,0,0,1,1.393-1.393h15.6a1.4,1.4,0,0,1,1.393,1.393v7.8a.836.836,0,0,0,.836.836H55.587a3.068,3.068,0,0,0,3.065-3.065V28.837A.836.836,0,0,0,57.817,28ZM69.8,13.232A11.982,11.982,0,1,1,57.817,1.25,11.982,11.982,0,0,1,69.8,13.232Zm-1.672,0a10.31,10.31,0,1,0-10.31,10.31,10.31,10.31,0,0,0,10.31-10.31ZM13.232,25.214A11.982,11.982,0,1,1,25.214,13.232,11.982,11.982,0,0,1,13.232,25.214Zm0-1.672a10.31,10.31,0,1,0-10.31-10.31,10.31,10.31,0,0,0,10.31,10.31Z" fill="#0b0a0a"/>
    </g>
  </g>
</svg>
