<svg xmlns="http://www.w3.org/2000/svg" xmlns:xlink="http://www.w3.org/1999/xlink" width="113" height="113" viewBox="0 0 113 113">
  <defs>
    <filter id="Trazado_982547" x="0" y="0" width="113" height="113" filterUnits="userSpaceOnUse">
      <feOffset dy="3" input="SourceAlpha"/>
      <feGaussianBlur stdDeviation="3" result="blur"/>
      <feFlood flood-opacity="0.161"/>
      <feComposite operator="in" in2="blur"/>
      <feComposite in="SourceGraphic"/>
    </filter>
  </defs>
  <g id="Grupo_1226318" data-name="Grupo 1226318" transform="translate(-271 -9421.629)">
    <g id="Grupo_1226242" data-name="Grupo 1226242" transform="translate(0 8126.287)">
      <g id="Grupo_1225173" data-name="Grupo 1225173" transform="translate(0 -3445.654)">
        <g id="Grupo_1224643" data-name="Grupo 1224643" transform="translate(0 1927)">
          <g id="Grupo_1224291" data-name="Grupo 1224291" transform="translate(0 859.245)">
            <g id="Grupo_1224091" data-name="Grupo 1224091" transform="translate(-84.49 -2620.317)">
              <g id="Grupo_1223183" data-name="Grupo 1223183" transform="translate(364.49 4581.069)">
                <g id="Grupo_1211217" data-name="Grupo 1211217" transform="translate(0)">
                  <g id="Grupo_1210736" data-name="Grupo 1210736">
                    <g id="Grupo_1210537" data-name="Grupo 1210537">
                      <g id="Grupo_1164202" data-name="Grupo 1164202">
                        <g id="Grupo_1158168" data-name="Grupo 1158168">
                          <g id="Grupo_1152576" data-name="Grupo 1152576">
                            <g id="Grupo_1148633" data-name="Grupo 1148633">
                              <g id="Grupo_1148525" data-name="Grupo 1148525">
                                <g transform="matrix(1, 0, 0, 1, -9, -6)" filter="url(#Trazado_982547)">
                                  <g id="Trazado_982547-2" data-name="Trazado 982547" transform="translate(9 6)" fill="#fdf6e4">
                                    <path d="M 47.49999618530273 93.5 C 41.28936767578125 93.5 35.26533126831055 92.28396606445312 29.59518241882324 89.88570404052734 C 24.11771583557129 87.56893157958984 19.19812965393066 84.251953125 14.97308921813965 80.02690124511719 C 10.74803638458252 75.80186462402344 7.431062698364258 70.88227844238281 5.114289283752441 65.40480804443359 C 2.716022968292236 59.73466110229492 1.499996185302734 53.71062469482422 1.499996185302734 47.49999618530273 C 1.499996185302734 41.28936767578125 2.716022968292236 35.26533126831055 5.114289283752441 29.59518241882324 C 7.431062698364258 24.11771583557129 10.74803638458252 19.19812965393066 14.97308921813965 14.97308921813965 C 19.19812965393066 10.74803638458252 24.11771583557129 7.431062698364258 29.59518241882324 5.114289283752441 C 35.26533126831055 2.716022968292236 41.28936767578125 1.499996185302734 47.49999618530273 1.499996185302734 C 53.71062469482422 1.499996185302734 59.73466110229492 2.716022968292236 65.40480804443359 5.114289283752441 C 70.88227844238281 7.431062698364258 75.80186462402344 10.74803638458252 80.02690124511719 14.97308921813965 C 84.251953125 19.19812965393066 87.56893157958984 24.11771583557129 89.88570404052734 29.59518241882324 C 92.28396606445312 35.26533126831055 93.5 41.28936767578125 93.5 47.49999618530273 C 93.5 53.71062469482422 92.28396606445312 59.73466110229492 89.88570404052734 65.40480804443359 C 87.56893157958984 70.88227844238281 84.251953125 75.80186462402344 80.02690124511719 80.02690124511719 C 75.80186462402344 84.251953125 70.88227844238281 87.56893157958984 65.40480804443359 89.88570404052734 C 59.73466110229492 92.28396606445312 53.71062469482422 93.5 47.49999618530273 93.5 Z" stroke="none"/>
                                    <path d="M 47.49999618530273 2.999992370605469 C 41.4912109375 2.999992370605469 35.66376495361328 4.1761474609375 30.17950439453125 6.495796203613281 C 24.88084411621094 8.736953735351562 20.12152099609375 11.94598388671875 16.03375244140625 16.03375244140625 C 11.94598388671875 20.12152099609375 8.736953735351562 24.88084411621094 6.495796203613281 30.17950439453125 C 4.1761474609375 35.66376495361328 2.999992370605469 41.4912109375 2.999992370605469 47.49999618530273 C 2.999992370605469 53.50878143310547 4.1761474609375 59.33622741699219 6.495796203613281 64.82048797607422 C 8.736953735351562 70.11914825439453 11.94598388671875 74.87847137451172 16.03375244140625 78.96623992919922 C 20.12152099609375 83.05400848388672 24.88084411621094 86.26304626464844 30.17950439453125 88.50419616699219 C 35.66376495361328 90.82384490966797 41.4912109375 92 47.49999618530273 92 C 53.50878143310547 92 59.33622741699219 90.82384490966797 64.82048797607422 88.50419616699219 C 70.11914825439453 86.26304626464844 74.87847137451172 83.05400848388672 78.96623992919922 78.96623992919922 C 83.05400848388672 74.87847137451172 86.26304626464844 70.11914825439453 88.50419616699219 64.82048797607422 C 90.82384490966797 59.33622741699219 92 53.50878143310547 92 47.49999618530273 C 92 41.4912109375 90.82384490966797 35.66376495361328 88.50419616699219 30.17950439453125 C 86.26304626464844 24.88084411621094 83.05400848388672 20.12152099609375 78.96623992919922 16.03375244140625 C 74.87847137451172 11.94598388671875 70.11914825439453 8.736953735351562 64.82048797607422 6.495796203613281 C 59.33622741699219 4.1761474609375 53.50878143310547 2.999992370605469 47.49999618530273 2.999992370605469 M 47.49999618530273 -7.62939453125e-06 C 73.7335205078125 -7.62939453125e-06 95 21.26647186279297 95 47.49999618530273 C 95 73.7335205078125 73.7335205078125 95 47.49999618530273 95 C 21.26647186279297 95 -7.62939453125e-06 73.7335205078125 -7.62939453125e-06 47.49999618530273 C -7.62939453125e-06 21.26647186279297 21.26647186279297 -7.62939453125e-06 47.49999618530273 -7.62939453125e-06 Z" stroke="none" fill="#f5b104"/>
                                  </g>
                                </g>
                              </g>
                            </g>
                          </g>
                        </g>
                      </g>
                    </g>
                  </g>
                </g>
              </g>
            </g>
          </g>
        </g>
      </g>
    </g>
    <g id="research_1416734" transform="translate(296.408 9446.98)">
      <path id="Trazado_1058380" data-name="Trazado 1058380" d="M216,288h6.219v12.437H216Zm0,0" transform="translate(-188.017 -250.689)" fill="#e1e0e2"/>
      <path id="Trazado_1058381" data-name="Trazado 1058381" d="M8,8H68.112V45.311H8ZM8,8" transform="translate(-6.964 -6.964)" fill="#7cb8ff"/>
      <path id="Trazado_1058382" data-name="Trazado 1058382" d="M199.618,40a14.51,14.51,0,0,1,0,29.02C191.6,69.02,191.6,40,199.618,40Zm0,0" transform="translate(-168.526 -34.818)" fill="#46f8ff"/>
      <path id="Trazado_1058383" data-name="Trazado 1058383" d="M187.96,359.255h-18.2a9.341,9.341,0,0,1,5.99-6.716,9.238,9.238,0,0,1,6.219,0,9.341,9.341,0,0,1,5.99,6.716Zm0,0" transform="translate(-147.768 -306.398)" fill="#a3a2a9"/>
      <path id="Trazado_1058384" data-name="Trazado 1058384" d="M284.79,191.68l3.6,2.052a14.391,14.391,0,0,1-5.13,5.244l-2.135-3.555A10.323,10.323,0,0,0,284.79,191.68Zm0,0" transform="translate(-244.701 -166.847)" fill="#00d7df"/>
      <path id="Trazado_1058385" data-name="Trazado 1058385" d="M147.837,160.882l2.135,3.555A14.5,14.5,0,0,1,128,152h4.146a10.364,10.364,0,0,0,10.364,10.364,10.235,10.235,0,0,0,5.327-1.482Zm0,0" transform="translate(-111.417 -132.308)" fill="#006468"/>
      <path id="Trazado_1058386" data-name="Trazado 1058386" d="M142.51,40v4.146A10.364,10.364,0,0,0,132.146,54.51H128A14.51,14.51,0,0,1,142.51,40Zm0,0" transform="translate(-111.417 -34.818)" fill="#009698"/>
      <path id="Trazado_1058387" data-name="Trazado 1058387" d="M180.728,82.364A10.364,10.364,0,1,1,170.364,72,10.364,10.364,0,0,1,180.728,82.364Zm0,0" transform="translate(-139.272 -62.672)" fill="#ffe26e"/>
      <path id="Trazado_1058388" data-name="Trazado 1058388" d="M168,361.328a9.328,9.328,0,0,1,18.656,0Zm0,0" transform="translate(-146.235 -306.398)" fill="#6a696e"/>
      <path id="Trazado_1058389" data-name="Trazado 1058389" d="M136,408h26.947v4.146H136Zm0,0" transform="translate(-118.381 -355.143)" fill="#444447"/>
      <g id="Grupo_1226317" data-name="Grupo 1226317">
        <path id="Trazado_1058390" data-name="Trazado 1058390" d="M61.149,0H1.036A1.036,1.036,0,0,0,0,1.036V38.347a1.036,1.036,0,0,0,1.036,1.036h25.91v6.074a10.425,10.425,0,0,0-5.724,6.363h-3.6a1.036,1.036,0,0,0-1.036,1.036V57a1.036,1.036,0,0,0,1.036,1.036H44.566A1.036,1.036,0,0,0,45.6,57V52.857a1.036,1.036,0,0,0-1.036-1.036h-3.6a10.423,10.423,0,0,0-5.724-6.364V39.384h25.91a1.036,1.036,0,0,0,1.036-1.036V1.036A1.036,1.036,0,0,0,61.149,0ZM43.529,55.966H18.655V53.894H43.529Zm-4.768-4.146H23.423a8.345,8.345,0,0,1,4.917-4.705,8.23,8.23,0,0,1,5.523,0,8.337,8.337,0,0,1,4.9,4.705Zm-5.6-7.034a10.451,10.451,0,0,0-4.146,0v-5.4h4.146Zm26.947-7.476H2.073V2.073H60.112Zm0,0" fill="#231f20"/>
        <path id="Trazado_1058391" data-name="Trazado 1058391" d="M135.546,63.092A15.546,15.546,0,1,0,120,47.546,15.546,15.546,0,0,0,135.546,63.092Zm-13.421-14.51H124.2a11.368,11.368,0,0,0,16.292,9.224l1.067,1.779a13.432,13.432,0,0,1-19.432-11Zm13.421-10.364a9.328,9.328,0,1,1-9.328,9.328A9.328,9.328,0,0,1,135.546,38.218Zm7.792,20.3-1.072-1.782a11.479,11.479,0,0,0,2.614-2.66l1.812,1.036a13.584,13.584,0,0,1-3.354,3.406Zm5.682-10.971a13.361,13.361,0,0,1-1.31,5.755l-1.8-1.028A11.372,11.372,0,0,0,136.583,36.2V34.126A13.483,13.483,0,0,1,149.02,47.546ZM134.51,34.125V36.2A11.412,11.412,0,0,0,124.2,46.51h-2.073A13.475,13.475,0,0,1,134.51,34.125Zm0,0" transform="translate(-104.454 -27.854)" fill="#231f20"/>
        <path id="Trazado_1058392" data-name="Trazado 1058392" d="M199.222,123.368a1.037,1.037,0,0,0,.733-.3l7.255-7.255-1.466-1.466-6.522,6.522-3.413-3.413-1.466,1.466,4.146,4.146A1.037,1.037,0,0,0,199.222,123.368Zm0,0" transform="translate(-169.166 -99.53)" fill="#231f20"/>
        <path id="Trazado_1058393" data-name="Trazado 1058393" d="M26.073,26.073h2.073V24H25.036A1.036,1.036,0,0,0,24,25.036v3.109h2.073Zm0,0" transform="translate(-20.891 -20.891)" fill="#231f20"/>
        <path id="Trazado_1058394" data-name="Trazado 1058394" d="M25.036,252.146h3.109v-2.073H26.073V248H24v3.109A1.036,1.036,0,0,0,25.036,252.146Zm0,0" transform="translate(-20.891 -215.871)" fill="#231f20"/>
        <path id="Trazado_1058395" data-name="Trazado 1058395" d="M426.073,28.146h2.073V25.036A1.036,1.036,0,0,0,427.109,24H424v2.073h2.073Zm0,0" transform="translate(-369.07 -20.891)" fill="#231f20"/>
        <path id="Trazado_1058396" data-name="Trazado 1058396" d="M428.146,251.109V248h-2.073v2.073H424v2.073h3.109A1.036,1.036,0,0,0,428.146,251.109Zm0,0" transform="translate(-369.07 -215.871)" fill="#231f20"/>
      </g>
    </g>
  </g>
</svg>
