<svg xmlns="http://www.w3.org/2000/svg" xmlns:xlink="http://www.w3.org/1999/xlink" width="113" height="113" viewBox="0 0 113 113">
  <defs>
    <filter id="Trazado_982547" x="0" y="0" width="113" height="113" filterUnits="userSpaceOnUse">
      <feOffset dy="3" input="SourceAlpha"/>
      <feGaussianBlur stdDeviation="3" result="blur"/>
      <feFlood flood-opacity="0.161"/>
      <feComposite operator="in" in2="blur"/>
      <feComposite in="SourceGraphic"/>
    </filter>
  </defs>
  <g id="Grupo_1226319" data-name="Grupo 1226319" transform="translate(-585.509 -9421.629)">
    <g id="Grupo_1226241" data-name="Grupo 1226241" transform="translate(0 8126.287)">
      <g id="Grupo_1225176" data-name="Grupo 1225176" transform="translate(0 -3445.654)">
        <g id="Grupo_1224647" data-name="Grupo 1224647" transform="translate(0 1927)">
          <g id="Grupo_1224292" data-name="Grupo 1224292" transform="translate(0 859.245)">
            <g id="Grupo_1224092" data-name="Grupo 1224092" transform="translate(-88.49 -2620.317)">
              <g id="Grupo_1223184" data-name="Grupo 1223184" transform="translate(683 4581.069)">
                <g id="Grupo_1211216" data-name="Grupo 1211216" transform="translate(0)">
                  <g id="Grupo_1210737" data-name="Grupo 1210737">
                    <g id="Grupo_1210537" data-name="Grupo 1210537">
                      <g id="Grupo_1164202" data-name="Grupo 1164202">
                        <g id="Grupo_1158168" data-name="Grupo 1158168">
                          <g id="Grupo_1152576" data-name="Grupo 1152576">
                            <g id="Grupo_1148633" data-name="Grupo 1148633">
                              <g id="Grupo_1148525" data-name="Grupo 1148525">
                                <g transform="matrix(1, 0, 0, 1, -9, -6)" filter="url(#Trazado_982547)">
                                  <g id="Trazado_982547-2" data-name="Trazado 982547" transform="translate(9 6)" fill="#fdf6e4">
                                    <path d="M 47.49999618530273 93.5 C 41.28936767578125 93.5 35.26533126831055 92.28396606445312 29.59518241882324 89.88570404052734 C 24.11771583557129 87.56893157958984 19.19812965393066 84.251953125 14.97308921813965 80.02690124511719 C 10.74803638458252 75.80186462402344 7.431062698364258 70.88227844238281 5.114289283752441 65.40480804443359 C 2.716022968292236 59.73466110229492 1.499996185302734 53.71062469482422 1.499996185302734 47.49999618530273 C 1.499996185302734 41.28936767578125 2.716022968292236 35.26533126831055 5.114289283752441 29.59518241882324 C 7.431062698364258 24.11771583557129 10.74803638458252 19.19812965393066 14.97308921813965 14.97308921813965 C 19.19812965393066 10.74803638458252 24.11771583557129 7.431062698364258 29.59518241882324 5.114289283752441 C 35.26533126831055 2.716022968292236 41.28936767578125 1.499996185302734 47.49999618530273 1.499996185302734 C 53.71062469482422 1.499996185302734 59.73466110229492 2.716022968292236 65.40480804443359 5.114289283752441 C 70.88227844238281 7.431062698364258 75.80186462402344 10.74803638458252 80.02690124511719 14.97308921813965 C 84.251953125 19.19812965393066 87.56893157958984 24.11771583557129 89.88570404052734 29.59518241882324 C 92.28396606445312 35.26533126831055 93.5 41.28936767578125 93.5 47.49999618530273 C 93.5 53.71062469482422 92.28396606445312 59.73466110229492 89.88570404052734 65.40480804443359 C 87.56893157958984 70.88227844238281 84.251953125 75.80186462402344 80.02690124511719 80.02690124511719 C 75.80186462402344 84.251953125 70.88227844238281 87.56893157958984 65.40480804443359 89.88570404052734 C 59.73466110229492 92.28396606445312 53.71062469482422 93.5 47.49999618530273 93.5 Z" stroke="none"/>
                                    <path d="M 47.49999618530273 2.999992370605469 C 41.4912109375 2.999992370605469 35.66376495361328 4.1761474609375 30.17950439453125 6.495796203613281 C 24.88084411621094 8.736953735351562 20.12152099609375 11.94598388671875 16.03375244140625 16.03375244140625 C 11.94598388671875 20.12152099609375 8.736953735351562 24.88084411621094 6.495796203613281 30.17950439453125 C 4.1761474609375 35.66376495361328 2.999992370605469 41.4912109375 2.999992370605469 47.49999618530273 C 2.999992370605469 53.50878143310547 4.1761474609375 59.33622741699219 6.495796203613281 64.82048797607422 C 8.736953735351562 70.11914825439453 11.94598388671875 74.87847137451172 16.03375244140625 78.96623992919922 C 20.12152099609375 83.05400848388672 24.88084411621094 86.26304626464844 30.17950439453125 88.50419616699219 C 35.66376495361328 90.82384490966797 41.4912109375 92 47.49999618530273 92 C 53.50878143310547 92 59.33622741699219 90.82384490966797 64.82048797607422 88.50419616699219 C 70.11914825439453 86.26304626464844 74.87847137451172 83.05400848388672 78.96623992919922 78.96623992919922 C 83.05400848388672 74.87847137451172 86.26304626464844 70.11914825439453 88.50419616699219 64.82048797607422 C 90.82384490966797 59.33622741699219 92 53.50878143310547 92 47.49999618530273 C 92 41.4912109375 90.82384490966797 35.66376495361328 88.50419616699219 30.17950439453125 C 86.26304626464844 24.88084411621094 83.05400848388672 20.12152099609375 78.96623992919922 16.03375244140625 C 74.87847137451172 11.94598388671875 70.11914825439453 8.736953735351562 64.82048797607422 6.495796203613281 C 59.33622741699219 4.1761474609375 53.50878143310547 2.999992370605469 47.49999618530273 2.999992370605469 M 47.49999618530273 -7.62939453125e-06 C 73.7335205078125 -7.62939453125e-06 95 21.26647186279297 95 47.49999618530273 C 95 73.7335205078125 73.7335205078125 95 47.49999618530273 95 C 21.26647186279297 95 -7.62939453125e-06 73.7335205078125 -7.62939453125e-06 47.49999618530273 C -7.62939453125e-06 21.26647186279297 21.26647186279297 -7.62939453125e-06 47.49999618530273 -7.62939453125e-06 Z" stroke="none" fill="#f5b104"/>
                                  </g>
                                </g>
                              </g>
                            </g>
                          </g>
                        </g>
                      </g>
                    </g>
                  </g>
                </g>
              </g>
            </g>
          </g>
        </g>
      </g>
    </g>
    <g id="Layer_9" data-name="Layer 9" transform="translate(610.966 9441.604)">
      <path id="Trazado_1058397" data-name="Trazado 1058397" d="M55.218,16H7.94A3.94,3.94,0,0,0,4,19.94V53.429H20.744L23.7,56.384H39.459l2.955-2.955H59.158V19.94A3.94,3.94,0,0,0,55.218,16Z" transform="translate(-0.045 -0.226)" fill="#939393"/>
      <path id="Trazado_1058398" data-name="Trazado 1058398" d="M8,20H55.278V49.549H8Z" transform="translate(-0.105 -0.286)" fill="#ccc"/>
      <path id="Trazado_1058399" data-name="Trazado 1058399" d="M8,20V47.579H49.369a3.94,3.94,0,0,0,3.94-3.94V20Z" transform="translate(-0.105 -0.286)" fill="#f2f2f2"/>
      <path id="Trazado_1058400" data-name="Trazado 1058400" d="M61.1,54v3.94a3.94,3.94,0,0,1-3.94,3.94H5.94A3.94,3.94,0,0,1,2,57.94V54H20.714l2.955,2.955H39.429L42.384,54Z" transform="translate(-0.015 -0.797)" fill="#686868"/>
      <path id="Trazado_1058401" data-name="Trazado 1058401" d="M45.579,15.789A13.79,13.79,0,1,0,28.97,29.284l2.82,4.235,2.82-4.235A13.79,13.79,0,0,0,45.579,15.789Z" transform="translate(-0.256 -0.015)" fill="#aa2b24"/>
      <circle id="Elipse_12642" data-name="Elipse 12642" cx="10.835" cy="10.835" r="10.835" transform="translate(20.699 4.941)" fill="#d24034"/>
      <circle id="Elipse_12643" data-name="Elipse 12643" cx="7.88" cy="7.88" r="7.88" transform="translate(23.654 7.895)" fill="#db665d"/>
      <path id="Trazado_1058402" data-name="Trazado 1058402" d="M26,12.925l4.109-4.109a2.786,2.786,0,0,1,4.755,1.971V23.759h-3.94V13.91l-1.97,1.97Z" transform="translate(-0.376 -0.105)" fill="#fff"/>
      <path id="Trazado_1058403" data-name="Trazado 1058403" d="M61.083,52.218H60.1v-32.5a4.931,4.931,0,0,0-4.925-4.925H46.258a14.756,14.756,0,0,0-29.451,0H7.895A4.931,4.931,0,0,0,2.97,19.714v32.5H1.985A.985.985,0,0,0,1,53.2v3.94a4.931,4.931,0,0,0,4.925,4.925H57.143a4.931,4.931,0,0,0,4.925-4.925V53.2A.985.985,0,0,0,61.083,52.218Zm-32.97-22.07,2.6,3.9a.985.985,0,0,0,1.639,0l2.6-3.9a14.833,14.833,0,0,0,10.5-9.449h8.733V48.278H8.88V20.7h8.733a14.833,14.833,0,0,0,10.5,9.449ZM31.534,2.97a12.8,12.8,0,0,1,2.62,25.339.985.985,0,0,0-.62.418l-2,3-2-3a.985.985,0,0,0-.62-.418A12.8,12.8,0,0,1,31.534,2.97ZM4.94,19.714a2.955,2.955,0,0,1,2.955-2.955H16.8a14.676,14.676,0,0,0,.271,1.97H7.895a.985.985,0,0,0-.985.985V49.263a.985.985,0,0,0,.985.985H55.173a.985.985,0,0,0,.985-.985V19.714a.985.985,0,0,0-.985-.985H46a14.676,14.676,0,0,0,.271-1.97h8.907a2.955,2.955,0,0,1,2.955,2.955v32.5H42.369a.985.985,0,0,0-.7.288l-2.666,2.667H24.062L21.4,52.506a.985.985,0,0,0-.7-.288H4.94ZM60.1,57.143A2.955,2.955,0,0,1,57.143,60.1H5.925A2.955,2.955,0,0,1,2.97,57.143V54.188H20.292l2.666,2.666a.985.985,0,0,0,.7.289H39.414a.985.985,0,0,0,.7-.288l2.666-2.666H60.1Z" transform="translate(0 0)"/>
      <path id="Trazado_1058404" data-name="Trazado 1058404" d="M57,57h1.97v1.97H57Z" transform="translate(-0.842 -0.842)"/>
      <path id="Trazado_1058405" data-name="Trazado 1058405" d="M53,57h1.97v1.97H53Z" transform="translate(-0.782 -0.842)"/>
      <path id="Trazado_1058406" data-name="Trazado 1058406" d="M12.97,24.97h2.955V23h-3.94a.985.985,0,0,0-.985.985v3.94h1.97Z" transform="translate(-0.15 -0.331)"/>
      <path id="Trazado_1058407" data-name="Trazado 1058407" d="M52.925,45.94V42h-1.97v2.955H48v1.97h3.94A.985.985,0,0,0,52.925,45.94Z" transform="translate(-0.707 -0.617)"/>
      <path id="Trazado_1058408" data-name="Trazado 1058408" d="M11.985,46.925h3.94v-1.97H12.97V42H11v3.94A.985.985,0,0,0,11.985,46.925Z" transform="translate(-0.15 -0.617)"/>
      <path id="Trazado_1058409" data-name="Trazado 1058409" d="M50.955,27.925h1.97v-3.94A.985.985,0,0,0,51.94,23H48v1.97h2.955Z" transform="translate(-0.707 -0.331)"/>
      <path id="Trazado_1058410" data-name="Trazado 1058410" d="M28.243,16.561a1.015,1.015,0,0,0,1.394,0l.288-.289v7.472a.985.985,0,0,0,.985.985h3.94a.985.985,0,0,0,.985-.985V10.771A3.77,3.77,0,0,0,29.4,8.105l-4.108,4.108a.985.985,0,0,0,0,1.393ZM30.79,9.5a1.8,1.8,0,0,1,3.075,1.274V22.759h-1.97V13.895a.985.985,0,0,0-1.682-.7L28.94,14.471,27.378,12.91Z" transform="translate(-0.361 -0.09)"/>
      <path id="Trazado_1058411" data-name="Trazado 1058411" d="M19,38H44.609v1.97H19Z" transform="translate(-0.271 -0.556)"/>
      <path id="Trazado_1058412" data-name="Trazado 1058412" d="M19,42H40.669v1.97H19Z" transform="translate(-0.271 -0.617)"/>
      <path id="Trazado_1058413" data-name="Trazado 1058413" d="M43,41h1.97v1.97H43Z" transform="translate(-0.631 -0.602)"/>
    </g>
  </g>
</svg>
