<svg xmlns="http://www.w3.org/2000/svg" xmlns:xlink="http://www.w3.org/1999/xlink" width="113" height="113" viewBox="0 0 113 113">
  <defs>
    <filter id="Trazado_982547" x="0" y="0" width="113" height="113" filterUnits="userSpaceOnUse">
      <feOffset dy="3" input="SourceAlpha"/>
      <feGaussianBlur stdDeviation="3" result="blur"/>
      <feFlood flood-opacity="0.161"/>
      <feComposite operator="in" in2="blur"/>
      <feComposite in="SourceGraphic"/>
    </filter>
  </defs>
  <g id="Grupo_1226321" data-name="Grupo 1226321" transform="translate(-900.509 -9421.629)">
    <g id="Grupo_1226239" data-name="Grupo 1226239" transform="translate(0 8126.287)">
      <g id="Grupo_1225177" data-name="Grupo 1225177" transform="translate(0 -3445.654)">
        <g id="Grupo_1224648" data-name="Grupo 1224648" transform="translate(0 1927)">
          <g id="Grupo_1224293" data-name="Grupo 1224293" transform="translate(0 859.245)">
            <g id="Grupo_1224093" data-name="Grupo 1224093" transform="translate(226.51 -2620.317)">
              <g id="Grupo_1223184" data-name="Grupo 1223184" transform="translate(683 4581.069)">
                <g id="Grupo_1211216" data-name="Grupo 1211216" transform="translate(0)">
                  <g id="Grupo_1210737" data-name="Grupo 1210737">
                    <g id="Grupo_1210537" data-name="Grupo 1210537">
                      <g id="Grupo_1164202" data-name="Grupo 1164202">
                        <g id="Grupo_1158168" data-name="Grupo 1158168">
                          <g id="Grupo_1152576" data-name="Grupo 1152576">
                            <g id="Grupo_1148633" data-name="Grupo 1148633">
                              <g id="Grupo_1148525" data-name="Grupo 1148525">
                                <g transform="matrix(1, 0, 0, 1, -9, -6)" filter="url(#Trazado_982547)">
                                  <g id="Trazado_982547-2" data-name="Trazado 982547" transform="translate(9 6)" fill="#fdf6e4">
                                    <path d="M 47.49999618530273 93.5 C 41.28936767578125 93.5 35.26533126831055 92.28396606445312 29.59518241882324 89.88570404052734 C 24.11771583557129 87.56893157958984 19.19812965393066 84.251953125 14.97308921813965 80.02690124511719 C 10.74803638458252 75.80186462402344 7.431062698364258 70.88227844238281 5.114289283752441 65.40480804443359 C 2.716022968292236 59.73466110229492 1.499996185302734 53.71062469482422 1.499996185302734 47.49999618530273 C 1.499996185302734 41.28936767578125 2.716022968292236 35.26533126831055 5.114289283752441 29.59518241882324 C 7.431062698364258 24.11771583557129 10.74803638458252 19.19812965393066 14.97308921813965 14.97308921813965 C 19.19812965393066 10.74803638458252 24.11771583557129 7.431062698364258 29.59518241882324 5.114289283752441 C 35.26533126831055 2.716022968292236 41.28936767578125 1.499996185302734 47.49999618530273 1.499996185302734 C 53.71062469482422 1.499996185302734 59.73466110229492 2.716022968292236 65.40480804443359 5.114289283752441 C 70.88227844238281 7.431062698364258 75.80186462402344 10.74803638458252 80.02690124511719 14.97308921813965 C 84.251953125 19.19812965393066 87.56893157958984 24.11771583557129 89.88570404052734 29.59518241882324 C 92.28396606445312 35.26533126831055 93.5 41.28936767578125 93.5 47.49999618530273 C 93.5 53.71062469482422 92.28396606445312 59.73466110229492 89.88570404052734 65.40480804443359 C 87.56893157958984 70.88227844238281 84.251953125 75.80186462402344 80.02690124511719 80.02690124511719 C 75.80186462402344 84.251953125 70.88227844238281 87.56893157958984 65.40480804443359 89.88570404052734 C 59.73466110229492 92.28396606445312 53.71062469482422 93.5 47.49999618530273 93.5 Z" stroke="none"/>
                                    <path d="M 47.49999618530273 2.999992370605469 C 41.4912109375 2.999992370605469 35.66376495361328 4.1761474609375 30.17950439453125 6.495796203613281 C 24.88084411621094 8.736953735351562 20.12152099609375 11.94598388671875 16.03375244140625 16.03375244140625 C 11.94598388671875 20.12152099609375 8.736953735351562 24.88084411621094 6.495796203613281 30.17950439453125 C 4.1761474609375 35.66376495361328 2.999992370605469 41.4912109375 2.999992370605469 47.49999618530273 C 2.999992370605469 53.50878143310547 4.1761474609375 59.33622741699219 6.495796203613281 64.82048797607422 C 8.736953735351562 70.11914825439453 11.94598388671875 74.87847137451172 16.03375244140625 78.96623992919922 C 20.12152099609375 83.05400848388672 24.88084411621094 86.26304626464844 30.17950439453125 88.50419616699219 C 35.66376495361328 90.82384490966797 41.4912109375 92 47.49999618530273 92 C 53.50878143310547 92 59.33622741699219 90.82384490966797 64.82048797607422 88.50419616699219 C 70.11914825439453 86.26304626464844 74.87847137451172 83.05400848388672 78.96623992919922 78.96623992919922 C 83.05400848388672 74.87847137451172 86.26304626464844 70.11914825439453 88.50419616699219 64.82048797607422 C 90.82384490966797 59.33622741699219 92 53.50878143310547 92 47.49999618530273 C 92 41.4912109375 90.82384490966797 35.66376495361328 88.50419616699219 30.17950439453125 C 86.26304626464844 24.88084411621094 83.05400848388672 20.12152099609375 78.96623992919922 16.03375244140625 C 74.87847137451172 11.94598388671875 70.11914825439453 8.736953735351562 64.82048797607422 6.495796203613281 C 59.33622741699219 4.1761474609375 53.50878143310547 2.999992370605469 47.49999618530273 2.999992370605469 M 47.49999618530273 -7.62939453125e-06 C 73.7335205078125 -7.62939453125e-06 95 21.26647186279297 95 47.49999618530273 C 95 73.7335205078125 73.7335205078125 95 47.49999618530273 95 C 21.26647186279297 95 -7.62939453125e-06 73.7335205078125 -7.62939453125e-06 47.49999618530273 C -7.62939453125e-06 21.26647186279297 21.26647186279297 -7.62939453125e-06 47.49999618530273 -7.62939453125e-06 Z" stroke="none" fill="#f5b104"/>
                                  </g>
                                </g>
                              </g>
                            </g>
                          </g>
                        </g>
                      </g>
                    </g>
                  </g>
                </g>
              </g>
            </g>
          </g>
        </g>
      </g>
    </g>
    <g id="data-management_2172227" transform="translate(925.313 9443)">
      <path id="Trazado_1058414" data-name="Trazado 1058414" d="M57,54v4a4,4,0,0,1-4,4H11a4,4,0,0,1-4-4V54H57Z" fill="#969faa"/>
      <path id="Trazado_1058415" data-name="Trazado 1058415" d="M24,22h5a4.941,4.941,0,0,0-1,3,4.712,4.712,0,0,0,.1,1H24Z" fill="#ccd1d9"/>
      <path id="Trazado_1058416" data-name="Trazado 1058416" d="M55,30V54H9V32h4V50H51V30Z" fill="#ccd1d9"/>
      <path id="Trazado_1058417" data-name="Trazado 1058417" d="M40,30H33a5,5,0,0,1-4.9-4H24v6H13V50H51V30Z" fill="#69d6f4"/>
      <g id="Grupo_1226320" data-name="Grupo 1226320">
        <path id="Trazado_1058418" data-name="Trazado 1058418" d="M47,34V46H41V35l1-1Z" fill="#ff826e"/>
        <path id="Trazado_1058419" data-name="Trazado 1058419" d="M41,35V46H35V38h3Z" fill="#ff826e"/>
        <path id="Trazado_1058420" data-name="Trazado 1058420" d="M29,38h6v8H29Z" fill="#ff826e"/>
        <path id="Trazado_1058421" data-name="Trazado 1058421" d="M29,38v8H23V44Z" fill="#ff826e"/>
      </g>
      <path id="Trazado_1058422" data-name="Trazado 1058422" d="M56.92,20H57a5,5,0,0,1,0,10H33a5,5,0,0,1-4.9-4,4.712,4.712,0,0,1-.1-1,4.941,4.941,0,0,1,1-3,5.01,5.01,0,0,1,4-2,2.09,2.09,0,0,1,.25.01A8.321,8.321,0,0,1,33,18a8,8,0,0,1,15.6-2.5A6.006,6.006,0,0,1,56.92,20Z" fill="#e6e9ed"/>
      <path id="Trazado_1058423" data-name="Trazado 1058423" d="M10,2v8H2V32H24V2Z" fill="#f0d0b4"/>
      <path id="Trazado_1058424" data-name="Trazado 1058424" d="M10,2v8H2Z" fill="#5cd6b3"/>
      <path id="Trazado_1058425" data-name="Trazado 1058425" d="M6,22H20v6H6Z" fill="#fcd770"/>
      <path id="Trazado_1058426" data-name="Trazado 1058426" d="M14,6h6v4H14Z" fill="#e6e9ed"/>
      <path id="Trazado_1058427" data-name="Trazado 1058427" d="M35,57h2v2H35Z"/>
      <path id="Trazado_1058428" data-name="Trazado 1058428" d="M31,57h2v2H31Z"/>
      <path id="Trazado_1058429" data-name="Trazado 1058429" d="M27,57h2v2H27Z"/>
      <path id="Trazado_1058430" data-name="Trazado 1058430" d="M57,31a6,6,0,0,0,.718-11.953,6.995,6.995,0,0,0-8.542-4.805A8.994,8.994,0,0,0,32.068,19.08,5.983,5.983,0,0,0,28.541,21H25V1H9.586L1,9.586V33H8V53H6v5a5.006,5.006,0,0,0,5,5H53a5.006,5.006,0,0,0,5-5V53H56V31ZM33,21a4,4,0,0,1,4,4h2a6.007,6.007,0,0,0-4.9-5.9,6.993,6.993,0,0,1,13.55-3.289l.344,1.045L49,16.42a4.986,4.986,0,0,1,6.643,2.741A6.006,6.006,0,0,0,51,25h2a4,4,0,1,1,4,4H42.414L47,24.414V27h2V21H43v2h2.586l-6,6H33a4,4,0,0,1,0-8ZM14,33H25V27h2.35A6,6,0,0,0,33,31h4.586l-2,2h-9l-6.293,6.293,1.414,1.414L27.414,35h9l4-4H50V49H14ZM27.35,23A5.976,5.976,0,0,0,27,25H25V23ZM9,4.414V9H4.414ZM3,11h8V3H23V31H3ZM56,58a3,3,0,0,1-3,3H11a3,3,0,0,1-3-3V55H56Zm-2-5H10V33h2V51H52V31h2Z"/>
      <path id="Trazado_1058431" data-name="Trazado 1058431" d="M37.586,37h-9L22,43.586V47H48V33H41.586Zm.828,2L40,37.414V45H36V39ZM30,39h4v6H30Zm-6,5.414,4-4V45H24ZM46,35V45H42V35.414L42.414,35Z"/>
      <path id="Trazado_1058432" data-name="Trazado 1058432" d="M13,11h8V5H13Zm2-4h4V9H15Z"/>
      <path id="Trazado_1058433" data-name="Trazado 1058433" d="M5,13H21v2H5Z"/>
      <path id="Trazado_1058434" data-name="Trazado 1058434" d="M5,17H21v2H5Z"/>
      <path id="Trazado_1058435" data-name="Trazado 1058435" d="M5,29H21V21H5Zm2-6H19v4H7Z"/>
      <path id="Trazado_1058436" data-name="Trazado 1058436" d="M16,45h4v2H16Z"/>
      <path id="Trazado_1058437" data-name="Trazado 1058437" d="M16,41h4v2H16Z"/>
      <path id="Trazado_1058438" data-name="Trazado 1058438" d="M16,37h4v2H16Z"/>
    </g>
  </g>
</svg>
