<svg xmlns="http://www.w3.org/2000/svg" xmlns:xlink="http://www.w3.org/1999/xlink" width="113" height="113" viewBox="0 0 113 113">
  <defs>
    <filter id="Trazado_982547" x="0" y="0" width="113" height="113" filterUnits="userSpaceOnUse">
      <feOffset dy="3" input="SourceAlpha"/>
      <feGaussianBlur stdDeviation="3" result="blur"/>
      <feFlood flood-opacity="0.161"/>
      <feComposite operator="in" in2="blur"/>
      <feComposite in="SourceGraphic"/>
    </filter>
  </defs>
  <g id="Grupo_1226322" data-name="Grupo 1226322" transform="translate(-1216.232 -9421.629)">
    <g id="Grupo_1226240" data-name="Grupo 1226240" transform="translate(0 8126.287)">
      <g id="Grupo_1225179" data-name="Grupo 1225179" transform="translate(0 -3445.654)">
        <g id="Grupo_1224650" data-name="Grupo 1224650" transform="translate(0 1927)">
          <g id="Grupo_1224294" data-name="Grupo 1224294" transform="translate(0.723 859.245)">
            <g id="Grupo_1224094" data-name="Grupo 1224094" transform="translate(541.51 -2620.317)">
              <g id="Grupo_1223184" data-name="Grupo 1223184" transform="translate(683 4581.069)">
                <g id="Grupo_1211216" data-name="Grupo 1211216" transform="translate(0)">
                  <g id="Grupo_1210737" data-name="Grupo 1210737">
                    <g id="Grupo_1210537" data-name="Grupo 1210537">
                      <g id="Grupo_1164202" data-name="Grupo 1164202">
                        <g id="Grupo_1158168" data-name="Grupo 1158168">
                          <g id="Grupo_1152576" data-name="Grupo 1152576">
                            <g id="Grupo_1148633" data-name="Grupo 1148633">
                              <g id="Grupo_1148525" data-name="Grupo 1148525">
                                <g transform="matrix(1, 0, 0, 1, -9, -6)" filter="url(#Trazado_982547)">
                                  <g id="Trazado_982547-2" data-name="Trazado 982547" transform="translate(9 6)" fill="#fdf6e4">
                                    <path d="M 47.49999618530273 93.5 C 41.28936767578125 93.5 35.26533126831055 92.28396606445312 29.59518241882324 89.88570404052734 C 24.11771583557129 87.56893157958984 19.19812965393066 84.251953125 14.97308921813965 80.02690124511719 C 10.74803638458252 75.80186462402344 7.431062698364258 70.88227844238281 5.114289283752441 65.40480804443359 C 2.716022968292236 59.73466110229492 1.499996185302734 53.71062469482422 1.499996185302734 47.49999618530273 C 1.499996185302734 41.28936767578125 2.716022968292236 35.26533126831055 5.114289283752441 29.59518241882324 C 7.431062698364258 24.11771583557129 10.74803638458252 19.19812965393066 14.97308921813965 14.97308921813965 C 19.19812965393066 10.74803638458252 24.11771583557129 7.431062698364258 29.59518241882324 5.114289283752441 C 35.26533126831055 2.716022968292236 41.28936767578125 1.499996185302734 47.49999618530273 1.499996185302734 C 53.71062469482422 1.499996185302734 59.73466110229492 2.716022968292236 65.40480804443359 5.114289283752441 C 70.88227844238281 7.431062698364258 75.80186462402344 10.74803638458252 80.02690124511719 14.97308921813965 C 84.251953125 19.19812965393066 87.56893157958984 24.11771583557129 89.88570404052734 29.59518241882324 C 92.28396606445312 35.26533126831055 93.5 41.28936767578125 93.5 47.49999618530273 C 93.5 53.71062469482422 92.28396606445312 59.73466110229492 89.88570404052734 65.40480804443359 C 87.56893157958984 70.88227844238281 84.251953125 75.80186462402344 80.02690124511719 80.02690124511719 C 75.80186462402344 84.251953125 70.88227844238281 87.56893157958984 65.40480804443359 89.88570404052734 C 59.73466110229492 92.28396606445312 53.71062469482422 93.5 47.49999618530273 93.5 Z" stroke="none"/>
                                    <path d="M 47.49999618530273 2.999992370605469 C 41.4912109375 2.999992370605469 35.66376495361328 4.1761474609375 30.17950439453125 6.495796203613281 C 24.88084411621094 8.736953735351562 20.12152099609375 11.94598388671875 16.03375244140625 16.03375244140625 C 11.94598388671875 20.12152099609375 8.736953735351562 24.88084411621094 6.495796203613281 30.17950439453125 C 4.1761474609375 35.66376495361328 2.999992370605469 41.4912109375 2.999992370605469 47.49999618530273 C 2.999992370605469 53.50878143310547 4.1761474609375 59.33622741699219 6.495796203613281 64.82048797607422 C 8.736953735351562 70.11914825439453 11.94598388671875 74.87847137451172 16.03375244140625 78.96623992919922 C 20.12152099609375 83.05400848388672 24.88084411621094 86.26304626464844 30.17950439453125 88.50419616699219 C 35.66376495361328 90.82384490966797 41.4912109375 92 47.49999618530273 92 C 53.50878143310547 92 59.33622741699219 90.82384490966797 64.82048797607422 88.50419616699219 C 70.11914825439453 86.26304626464844 74.87847137451172 83.05400848388672 78.96623992919922 78.96623992919922 C 83.05400848388672 74.87847137451172 86.26304626464844 70.11914825439453 88.50419616699219 64.82048797607422 C 90.82384490966797 59.33622741699219 92 53.50878143310547 92 47.49999618530273 C 92 41.4912109375 90.82384490966797 35.66376495361328 88.50419616699219 30.17950439453125 C 86.26304626464844 24.88084411621094 83.05400848388672 20.12152099609375 78.96623992919922 16.03375244140625 C 74.87847137451172 11.94598388671875 70.11914825439453 8.736953735351562 64.82048797607422 6.495796203613281 C 59.33622741699219 4.1761474609375 53.50878143310547 2.999992370605469 47.49999618530273 2.999992370605469 M 47.49999618530273 -7.62939453125e-06 C 73.7335205078125 -7.62939453125e-06 95 21.26647186279297 95 47.49999618530273 C 95 73.7335205078125 73.7335205078125 95 47.49999618530273 95 C 21.26647186279297 95 -7.62939453125e-06 73.7335205078125 -7.62939453125e-06 47.49999618530273 C -7.62939453125e-06 21.26647186279297 21.26647186279297 -7.62939453125e-06 47.49999618530273 -7.62939453125e-06 Z" stroke="none" fill="#f5b104"/>
                                  </g>
                                </g>
                              </g>
                            </g>
                          </g>
                        </g>
                      </g>
                    </g>
                  </g>
                </g>
              </g>
            </g>
          </g>
        </g>
      </g>
    </g>
    <g id="laptop_1471446" transform="translate(1243.123 9450.664)">
      <path id="Trazado_1058439" data-name="Trazado 1058439" d="M77.634,121.874H24.941a.942.942,0,0,1-.941-.941V88.941A.942.942,0,0,1,24.941,88H77.634a.942.942,0,0,1,.941.941v31.992A.942.942,0,0,1,77.634,121.874Zm0,0" transform="translate(-21.178 -77.649)" fill="#e2aafd"/>
      <path id="Trazado_1058440" data-name="Trazado 1058440" d="M56,120h47.048v25.406H56Zm0,0" transform="translate(-49.414 -105.886)" fill="#fdf8ff"/>
      <path id="Trazado_1058441" data-name="Trazado 1058441" d="M65.071,372.7H9.268L8,371.117V368H27.52l2.616.941H44.125L46.582,368H66.339v3.529Zm0,0" transform="translate(-7.06 -324.716)" fill="#cf71fb"/>
      <path id="Trazado_1058442" data-name="Trazado 1058442" d="M240,328h3.764v1.882H240Zm0,0" transform="translate(-211.772 -289.421)"/>
      <path id="Trazado_1058443" data-name="Trazado 1058443" d="M59.28,112.933h-.941V80.941A.942.942,0,0,0,57.4,80h-4.7v1.882h3.764v31.052H39.522a.928.928,0,0,0-.336.062l-2.295.879H23.241l-2.463-.885a.938.938,0,0,0-.318-.056H3.763V81.882H7.527V80h-4.7a.942.942,0,0,0-.941.941v31.992H.94a.942.942,0,0,0-.941.941v3.117a.938.938,0,0,0,.206.587l1.268,1.587a.938.938,0,0,0,.735.354h55.8a.941.941,0,0,0,.64-.251l1.269-1.176a.946.946,0,0,0,.3-.69v-3.529a.942.942,0,0,0-.941-.941Zm-.941,4.058-.7.646H2.661l-.78-.976v-1.847H5.645v.941H7.527v-.941H20.3l2.463.885a.938.938,0,0,0,.318.056H37.065a.93.93,0,0,0,.336-.062l2.3-.879h9.233v.941h1.882v-.941h1.882v.941h1.882v-.941h3.764Zm0,0" transform="translate(0 -70.59)"/>
      <path id="Trazado_1058444" data-name="Trazado 1058444" d="M68.7,139.288H48.941a.942.942,0,0,1-.941-.941V112.941a.942.942,0,0,1,.941-.941h.941v25.406H68.7Zm0,0" transform="translate(-42.355 -98.827)"/>
      <path id="Trazado_1058445" data-name="Trazado 1058445" d="M307.76,139.288H288v-1.882h18.819V112h.941a.942.942,0,0,1,.941.941v25.406A.942.942,0,0,1,307.76,139.288Zm0,0" transform="translate(-254.126 -98.827)"/>
      <path id="Trazado_1058446" data-name="Trazado 1058446" d="M225.406,112a.942.942,0,0,1,.941.941v20.7H222.78l-2.994-4.7H200.941A.942.942,0,0,1,200,128V112.941a.942.942,0,0,1,.941-.941Zm0,0" transform="translate(-176.476 -98.827)" fill="#f96437"/>
      <path id="Trazado_1058447" data-name="Trazado 1058447" d="M288,144h1.882v1.882H288Zm0,0" transform="translate(-254.126 -127.063)"/>
      <path id="Trazado_1058448" data-name="Trazado 1058448" d="M288,208h13.173v1.882H288Zm0,0" transform="translate(-254.126 -183.535)"/>
      <path id="Trazado_1058449" data-name="Trazado 1058449" d="M368,176h3.764v1.882H368Zm0,0" transform="translate(-324.717 -155.299)"/>
      <path id="Trazado_1058450" data-name="Trazado 1058450" d="M224,176h15.055v1.882H224Zm0,0" transform="translate(-197.654 -155.299)"/>
      <path id="Trazado_1058451" data-name="Trazado 1058451" d="M336,144h7.528v1.882H336Zm0,0" transform="translate(-296.48 -127.063)"/>
      <path id="Trazado_1058452" data-name="Trazado 1058452" d="M219.288,127.524h-3.566a.942.942,0,0,1-.794-.436l-2.717-4.269H193.882A1.884,1.884,0,0,1,192,120.937v-8.469h1.882v8.469h18.845a.943.943,0,0,1,.794.436l2.716,4.269h2.109v-19.76h-9.41V104h9.41a1.884,1.884,0,0,1,1.882,1.882v20.7a.942.942,0,0,1-.941.941Zm0,0" transform="translate(-169.418 -91.768)"/>
      <path id="Trazado_1058453" data-name="Trazado 1058453" d="M224,208h1.882v1.882H224Zm0,0" transform="translate(-197.654 -183.535)"/>
      <path id="Trazado_1058454" data-name="Trazado 1058454" d="M256,208h1.882v1.882H256Zm0,0" transform="translate(-225.89 -183.535)"/>
      <path id="Trazado_1058455" data-name="Trazado 1058455" d="M113.406,8H88.941A.942.942,0,0,0,88,8.941v20.7h3.565l2.994-4.7h18.846a.942.942,0,0,0,.941-.941V8.941A.942.942,0,0,0,113.406,8Zm0,0" transform="translate(-77.65 -7.059)" fill="#fddf81"/>
      <path id="Trazado_1058456" data-name="Trazado 1058456" d="M84.507,23.524H80.941A.942.942,0,0,1,80,22.583V1.882A1.884,1.884,0,0,1,81.882,0h24.465a1.884,1.884,0,0,1,1.882,1.882V16.937a1.884,1.884,0,0,1-1.882,1.882H88.018L85.3,23.088a.943.943,0,0,1-.794.436Zm-2.625-1.882H83.99l2.716-4.269a.943.943,0,0,1,.794-.436h18.845V1.882H81.882Zm0,0" transform="translate(-70.591)"/>
      <path id="Trazado_1058457" data-name="Trazado 1058457" d="M139.1,57.32,136.273,54.5a.94.94,0,0,1,0-1.331l2.823-2.823,1.331,1.331-2.158,2.158,2.158,2.158Zm0,0" transform="translate(-120.002 -44.422)"/>
      <path id="Trazado_1058458" data-name="Trazado 1058458" d="M227.674,57.32l-1.331-1.331,2.158-2.158-2.158-2.158,1.331-1.331,2.823,2.823a.94.94,0,0,1,0,1.331Zm0,0" transform="translate(-199.722 -44.422)"/>
      <path id="Trazado_1058459" data-name="Trazado 1058459" d="M184.41,59.123l1.883-5.646,1.785.6-1.883,5.646Zm0,0" transform="translate(-162.72 -47.187)"/>
    </g>
  </g>
</svg>
