<svg xmlns="http://www.w3.org/2000/svg" xmlns:xlink="http://www.w3.org/1999/xlink" width="85" height="84" viewBox="0 0 85 84">
  <defs>
    <clipPath id="clip-path">
      <rect id="Rectángulo_422433" data-name="Rectángulo 422433" width="85" height="84" transform="translate(180.313 3467)" fill="#fff" stroke="#707070" stroke-width="1"/>
    </clipPath>
    <filter id="Rectángulo_422317" x="10" y="-5.956" width="50" height="101.956" filterUnits="userSpaceOnUse">
      <feOffset dy="3" input="SourceAlpha"/>
      <feGaussianBlur stdDeviation="3" result="blur"/>
      <feFlood flood-opacity="0.161"/>
      <feComposite operator="in" in2="blur"/>
      <feComposite in="SourceGraphic"/>
    </filter>
    <filter id="Rectángulo_422316" x="26" y="36" width="50" height="60" filterUnits="userSpaceOnUse">
      <feOffset dy="3" input="SourceAlpha"/>
      <feGaussianBlur stdDeviation="3" result="blur-2"/>
      <feFlood flood-opacity="0.161"/>
      <feComposite operator="in" in2="blur-2"/>
      <feComposite in="SourceGraphic"/>
    </filter>
  </defs>
  <g id="Enmascarar_grupo_1159122" data-name="Enmascarar grupo 1159122" transform="translate(-180.313 -3467)" clip-path="url(#clip-path)">
    <g id="Grupo_1226230" data-name="Grupo 1226230" transform="translate(-1.344 902.044)">
      <g transform="matrix(1, 0, 0, 1, 181.66, 2564.96)" filter="url(#Rectángulo_422317)">
        <rect id="Rectángulo_422317-2" data-name="Rectángulo 422317" width="32" height="83.956" transform="translate(19 0.04)" fill="#f5b104"/>
      </g>
      <g transform="matrix(1, 0, 0, 1, 181.66, 2564.96)" filter="url(#Rectángulo_422316)">
        <rect id="Rectángulo_422316-2" data-name="Rectángulo 422316" width="32" height="42" transform="translate(35 42)" fill="#f9d476"/>
      </g>
    </g>
    <g id="coding-setting-application-computer-currency" transform="translate(190.315 3478.044)">
      <rect id="Rectángulo_422432" data-name="Rectángulo 422432" width="58" height="38" rx="2" transform="translate(3 3)" fill="#46f8ff"/>
      <path id="Trazado_1058196" data-name="Trazado 1058196" d="M61,5V39a2,2,0,0,1-2,2H5a2,2,0,0,1-2-2V35.933H56.36V3H59A2,2,0,0,1,61,5Z" fill="#00d7df"/>
      <path id="Trazado_1058197" data-name="Trazado 1058197" d="M53,61H3l6-9H47Z" fill="#c6c5ca"/>
      <path id="Trazado_1058198" data-name="Trazado 1058198" d="M61,61H53l-6-9h8Z" fill="#c6c5ca"/>
      <path id="Trazado_1058199" data-name="Trazado 1058199" d="M53,61H3l2.67-4H50.33Z" fill="#898890"/>
      <path id="Trazado_1058200" data-name="Trazado 1058200" d="M61,61H53l-2.67-4H55l-3.33-5H55Z" fill="#898890"/>
      <path id="Trazado_1058201" data-name="Trazado 1058201" d="M27.79,41h8.42A16.958,16.958,0,0,0,35,48a17.98,17.98,0,0,0,.65,4h-7.3A17.98,17.98,0,0,0,29,48a16.958,16.958,0,0,0-1.21-7Z" fill="#57a4ff"/>
      <path id="Trazado_1058202" data-name="Trazado 1058202" d="M28.85,45a17.2,17.2,0,0,0-1.06-4h8.42a17.2,17.2,0,0,0-1.06,4Z" fill="#006df0"/>
      <path id="Trazado_1058203" data-name="Trazado 1058203" d="M16,7H48V28H16Z" fill="#ebe5dd"/>
      <path id="Trazado_1058204" data-name="Trazado 1058204" d="M48,7V28H16V25H45V7Z" fill="#c0ab91"/>
      <path id="Trazado_1058205" data-name="Trazado 1058205" d="M41,30l-2.6.65,1.38,2.3-2.83,2.83-2.3-1.38-.35,1.38v.01L34,37H30l-.65-2.6-2.3,1.38-2.83-2.83,1.38-2.3L23,30V26l2.6-.65-1.38-2.3,2.83-2.83,2.3,1.38L30,19h4l.65,2.6,2.3-1.38,2.83,2.83-1.38,2.3L41,26Z" fill="#c0ab91"/>
      <path id="Trazado_1058206" data-name="Trazado 1058206" d="M41,30l-2.6.65,1.38,2.3-2.83,2.83-2.3-1.38-.35,1.38v.01L34,37H30l-.65-2.6-2.3,1.38-2.19-2.19A19.667,19.667,0,0,0,34,28a19.364,19.364,0,0,0,4.01-6.72l1.77,1.77-1.38,2.3L41,26Z" fill="#a78966"/>
      <circle id="Elipse_12626" data-name="Elipse 12626" cx="3" cy="3" r="3" transform="translate(29 25)" fill="#ffde55"/>
      <path id="Trazado_1058207" data-name="Trazado 1058207" d="M32,24a4,4,0,1,0,4,4A4,4,0,0,0,32,24Zm0,6a2,2,0,1,1,2-2A2,2,0,0,1,32,30Z"/>
      <path id="Trazado_1058208" data-name="Trazado 1058208" d="M61.83,60.45l-6-9A1,1,0,0,0,55,51H36.45A17.712,17.712,0,0,1,36,47.96,16.025,16.025,0,0,1,36.92,42H59a3.009,3.009,0,0,0,3-3V5a3.009,3.009,0,0,0-3-3H5A3.009,3.009,0,0,0,2,5V39a3.009,3.009,0,0,0,3,3H27.08A16,16,0,0,1,28,47.95,17.681,17.681,0,0,1,27.55,51H9a1,1,0,0,0-.83.45l-6,9a.963.963,0,0,0-.05,1.02A.984.984,0,0,0,3,62H61a.984.984,0,0,0,.88-.53.963.963,0,0,0-.05-1.02ZM60,36H53V25a1,1,0,0,0-1-1H49V22h6v4a1,1,0,0,0,1,1h4Zm0-11H57V21a1,1,0,0,0-1-1H49V18h3a1,1,0,0,0,1-1V10h7ZM4,5A1,1,0,0,1,5,4H59a1,1,0,0,1,1,1V8H52a1,1,0,0,0-1,1v7H49V7a1,1,0,0,0-1-1H16a1,1,0,0,0-1,1v4H13V9a1,1,0,0,0-1-1H4ZM41.24,25.03l-1.29-.32.69-1.15a1.014,1.014,0,0,0-.15-1.22l-2.83-2.83a1.014,1.014,0,0,0-1.22-.15l-1.15.69-.32-1.29A1,1,0,0,0,34,18H30a1,1,0,0,0-.97.76l-.32,1.29-1.15-.69a1.014,1.014,0,0,0-1.22.15l-2.83,2.83a1.014,1.014,0,0,0-.15,1.22l.69,1.15-1.29.32A1,1,0,0,0,22,26v1H17V8H47V27H42V26a1,1,0,0,0-.76-.97Zm-3.7,6.14.98,1.62-1.73,1.73-1.62-.98a1.057,1.057,0,0,0-.9-.07,1.02,1.02,0,0,0-.59.69L33.22,36H30.78l-.46-1.84a1,1,0,0,0-1.49-.62l-1.62.98-1.73-1.73.98-1.62a1,1,0,0,0-.62-1.49L24,29.22V26.78l1.84-.46a1,1,0,0,0,.62-1.49l-.98-1.62,1.73-1.73,1.62.98a1,1,0,0,0,1.49-.62L30.78,20h2.44l.46,1.84a1,1,0,0,0,1.49.62l1.62-.98,1.73,1.73-.98,1.62a1,1,0,0,0,.62,1.49l1.84.46v2.44l-1.84.46a1,1,0,0,0-.62,1.49ZM4,10h7v2a1,1,0,0,0,1,1h3v2H8a1,1,0,0,0-1,1v9H4ZM4,27H8a1,1,0,0,0,1-1V17h6v2H12a1,1,0,0,0-1,1V36H4ZM5,40a1,1,0,0,1-1-1V38h8a1,1,0,0,0,1-1V21h2v7a1,1,0,0,0,1,1h6v1a1,1,0,0,0,.76.97l1.29.32-.69,1.14a1.027,1.027,0,0,0,.15,1.23l2.83,2.83a1.014,1.014,0,0,0,1.22.15l1.15-.69.32,1.29A1,1,0,0,0,30,38h4a1,1,0,0,0,.97-.76l.32-1.29,1.15.69a1.014,1.014,0,0,0,1.22-.15l2.83-2.83a1.027,1.027,0,0,0,.15-1.23l-.69-1.14,1.29-.32A1,1,0,0,0,42,30V29h6a1,1,0,0,0,1-1V26h2V37a1,1,0,0,0,1,1h8v1a1,1,0,0,1-1,1ZM34.38,51H29.62A19.812,19.812,0,0,0,30,48.04,17.955,17.955,0,0,0,29.19,42h5.62A18.013,18.013,0,0,0,34,48.05,19.85,19.85,0,0,0,34.38,51ZM4.87,60l4.67-7H46.46l4.67,7Zm48.67,0-4.67-7h5.59l4.67,7Z"/>
      <path id="Trazado_1058209" data-name="Trazado 1058209" d="M9,57h2v2H9Z"/>
      <path id="Trazado_1058210" data-name="Trazado 1058210" d="M12,57h2v2H12Z"/>
      <path id="Trazado_1058211" data-name="Trazado 1058211" d="M15,57h2v2H15Z"/>
      <path id="Trazado_1058212" data-name="Trazado 1058212" d="M18,57h2v2H18Z"/>
      <path id="Trazado_1058213" data-name="Trazado 1058213" d="M21,57h2v2H21Z"/>
      <path id="Trazado_1058214" data-name="Trazado 1058214" d="M24,57h2v2H24Z"/>
      <path id="Trazado_1058215" data-name="Trazado 1058215" d="M27,57h2v2H27Z"/>
      <path id="Trazado_1058216" data-name="Trazado 1058216" d="M30,57h2v2H30Z"/>
      <path id="Trazado_1058217" data-name="Trazado 1058217" d="M33,57h2v2H33Z"/>
      <path id="Trazado_1058218" data-name="Trazado 1058218" d="M36,57h2v2H36Z"/>
      <path id="Trazado_1058219" data-name="Trazado 1058219" d="M39,57h2v2H39Z"/>
      <path id="Trazado_1058220" data-name="Trazado 1058220" d="M12,54h2v2H12Z"/>
      <path id="Trazado_1058221" data-name="Trazado 1058221" d="M15,54h2v2H15Z"/>
      <path id="Trazado_1058222" data-name="Trazado 1058222" d="M18,54h2v2H18Z"/>
      <path id="Trazado_1058223" data-name="Trazado 1058223" d="M21,54h2v2H21Z"/>
      <path id="Trazado_1058224" data-name="Trazado 1058224" d="M24,54h2v2H24Z"/>
      <path id="Trazado_1058225" data-name="Trazado 1058225" d="M27,54h2v2H27Z"/>
      <path id="Trazado_1058226" data-name="Trazado 1058226" d="M30,54h2v2H30Z"/>
      <path id="Trazado_1058227" data-name="Trazado 1058227" d="M33,54h2v2H33Z"/>
      <path id="Trazado_1058228" data-name="Trazado 1058228" d="M36,54h2v2H36Z"/>
      <path id="Trazado_1058229" data-name="Trazado 1058229" d="M39,54h2v2H39Z"/>
      <path id="Trazado_1058230" data-name="Trazado 1058230" d="M42,57h2v2H42Z"/>
      <path id="Trazado_1058231" data-name="Trazado 1058231" d="M42,54h2v2H42Z"/>
      <path id="Trazado_1058232" data-name="Trazado 1058232" d="M45,57h2v2H45Z"/>
      <path id="Trazado_1058233" data-name="Trazado 1058233" d="M19,10h2v2H19Z"/>
      <path id="Trazado_1058234" data-name="Trazado 1058234" d="M23,10h9v2H23Z"/>
      <path id="Trazado_1058235" data-name="Trazado 1058235" d="M34,10H45v2H34Z"/>
      <path id="Trazado_1058236" data-name="Trazado 1058236" d="M19,14H32v2H19Z"/>
      <path id="Trazado_1058237" data-name="Trazado 1058237" d="M34,14H45v2H34Z"/>
    </g>
  </g>
</svg>
