<svg xmlns="http://www.w3.org/2000/svg" xmlns:xlink="http://www.w3.org/1999/xlink" width="108" height="108" viewBox="0 0 108 108">
  <defs>
    <filter id="Trazado_904820" x="0" y="0" width="108" height="108" filterUnits="userSpaceOnUse">
      <feOffset dy="3" input="SourceAlpha"/>
      <feGaussianBlur stdDeviation="3" result="blur"/>
      <feFlood flood-opacity="0.161"/>
      <feComposite operator="in" in2="blur"/>
      <feComposite in="SourceGraphic"/>
    </filter>
  </defs>
  <g id="Grupo_1226587" data-name="Grupo 1226587" transform="translate(9 6)">
    <g id="Grupo_1226319" data-name="Grupo 1226319" transform="translate(0 0)">
      <g id="Grupo_1173585" data-name="Grupo 1173585">
        <g id="Grupo_1173428" data-name="Grupo 1173428">
          <g id="Grupo_1171958" data-name="Grupo 1171958">
            <g id="Grupo_1167341" data-name="Grupo 1167341">
              <g id="Grupo_1166792" data-name="Grupo 1166792">
                <g transform="matrix(1, 0, 0, 1, -9, -6)" filter="url(#Trazado_904820)">
                  <g id="Trazado_904820-2" data-name="Trazado 904820" transform="translate(9 6)" fill="#fdf6e4">
                    <path d="M 44.99999618530273 88.50006866455078 C 39.12687301635742 88.50006866455078 33.43022155761719 87.35014343261719 28.06829643249512 85.08222961425781 C 22.88852119445801 82.89136505126953 18.23629570007324 79.75465393066406 14.24084663391113 75.75919342041016 C 10.24540901184082 71.76374053955078 7.108683586120605 67.11151885986328 4.917821407318115 61.93174362182617 C 2.649921178817749 56.56980514526367 1.499996185302734 50.87315368652344 1.499996185302734 45.00003051757812 C 1.499996185302734 39.12690734863281 2.649921178817749 33.43025588989258 4.917821407318115 28.06831741333008 C 7.108683586120605 22.88854217529297 10.24540901184082 18.23631858825684 14.24084663391113 14.24086761474609 C 18.23629570007324 10.24541759490967 22.88852119445801 7.10869312286377 28.06829643249512 4.917842864990234 C 33.43022155761719 2.649930477142334 39.12687301635742 1.500005483627319 44.99999618530273 1.500005483627319 C 50.87311935424805 1.500005483627319 56.56977081298828 2.649930477142334 61.93169784545898 4.917842864990234 C 67.11147308349609 7.10869312286377 71.76369476318359 10.24541759490967 75.75914764404297 14.24086761474609 C 79.75458526611328 18.23631858825684 82.89131164550781 22.88854217529297 85.08216857910156 28.06831741333008 C 87.35007476806641 33.43025588989258 88.5 39.12690734863281 88.5 45.00003051757812 C 88.5 50.87315368652344 87.35007476806641 56.56980514526367 85.08216857910156 61.93174362182617 C 82.89131164550781 67.11151885986328 79.75458526611328 71.76374053955078 75.75914764404297 75.75919342041016 C 71.76369476318359 79.75465393066406 67.11147308349609 82.89136505126953 61.93169784545898 85.08222961425781 C 56.56977081298828 87.35014343261719 50.87311935424805 88.50006866455078 44.99999618530273 88.50006866455078 Z" stroke="none"/>
                    <path d="M 44.99999618530273 3 C 39.32870864868164 3 33.82865142822266 4.110061645507812 28.65262603759766 6.299346923828125 C 23.65165710449219 8.414573669433594 19.15968322753906 11.44334411621094 15.301513671875 15.30152893066406 C 11.44333648681641 19.15969848632812 8.414566040039062 23.65167236328125 6.299339294433594 28.65264511108398 C 4.110054016113281 33.82868576049805 2.999992370605469 39.32874298095703 2.999992370605469 45.00003051757812 C 2.999992370605469 50.67131805419922 4.110054016113281 56.1713752746582 6.299339294433594 61.34741592407227 C 8.414566040039062 66.348388671875 11.44333648681641 70.84034729003906 15.301513671875 74.69853210449219 C 19.15968322753906 78.55671691894531 23.65165710449219 81.58548736572266 28.65262603759766 83.70071411132812 C 33.82865142822266 85.88999938964844 39.32870864868164 87.00006103515625 44.99999618530273 87.00006103515625 C 50.67128372192383 87.00006103515625 56.17134094238281 85.88999938964844 61.34736633300781 83.70071411132812 C 66.34834289550781 81.58548736572266 70.84030914306641 78.55671691894531 74.69847869873047 74.69853210449219 C 78.55665588378906 70.84034729003906 81.58542633056641 66.348388671875 83.70065307617188 61.34741592407227 C 85.88993835449219 56.1713752746582 87 50.67131805419922 87 45.00003051757812 C 87 39.32874298095703 85.88993835449219 33.82868576049805 83.70065307617188 28.65264511108398 C 81.58542633056641 23.65167236328125 78.55665588378906 19.15969848632812 74.69847869873047 15.30152893066406 C 70.84030914306641 11.44334411621094 66.34834289550781 8.414573669433594 61.34736633300781 6.299346923828125 C 56.17134094238281 4.110061645507812 50.67128372192383 3 44.99999618530273 3 M 44.99999618530273 0 C 69.85281372070312 0 90 20.14720153808594 90 45.00003051757812 C 90 69.85284423828125 69.85281372070312 90.00006103515625 44.99999618530273 90.00006103515625 C 20.14717864990234 90.00006103515625 -7.62939453125e-06 69.85284423828125 -7.62939453125e-06 45.00003051757812 C -7.62939453125e-06 20.14720153808594 20.14717864990234 0 44.99999618530273 0 Z" stroke="none" fill="#856002"/>
                  </g>
                </g>
              </g>
            </g>
          </g>
        </g>
      </g>
    </g>
    <g id="carpeta_5_" data-name="carpeta (5)" transform="translate(18.755 17.002)">
      <path id="Trazado_1058036" data-name="Trazado 1058036" d="M134.38,251.49H119.325a1.753,1.753,0,0,1-1.24-.514l-2.223-2.223a2.63,2.63,0,0,0-1.86-.77h-7.678a2.63,2.63,0,0,0-2.63,2.63v22.795a2.63,2.63,0,0,0,2.63,2.63H134.38a2.63,2.63,0,0,0,2.63-2.63V254.12A2.63,2.63,0,0,0,134.38,251.49Z" transform="translate(-94.107 -220.861)" fill="#ffe09f"/>
      <path id="Trazado_1058037" data-name="Trazado 1058037" d="M136.848,273.409h-26.14a4.389,4.389,0,0,1-4.384-4.384V247.984a2.63,2.63,0,0,0-2.63,2.63v22.795a2.63,2.63,0,0,0,2.63,2.63h28.055a2.63,2.63,0,0,0,2.63-2.63h-.161Z" transform="translate(-94.107 -220.862)" fill="#f6d190"/>
      <path id="Trazado_1058038" data-name="Trazado 1058038" d="M140.95,331.356l6.03-18.089a.877.877,0,0,0-.832-1.154h-30.2a2.63,2.63,0,0,0-2.5,1.8l-6,18.012a2.622,2.622,0,0,0,2.22,1.231h28.789A2.631,2.631,0,0,0,140.95,331.356Z" transform="translate(-97.448 -277.978)" fill="#ecbd83"/>
      <path id="Trazado_1058039" data-name="Trazado 1058039" d="M31.422,7.5H24.409a.877.877,0,0,0-.877.877V22.4a.877.877,0,0,0,.877.877H34.929a.877.877,0,0,0,.877-.877V11.884Z" transform="translate(-22.712 -6.68)" fill="#eceaec"/>
      <circle id="Elipse_13510" data-name="Elipse 13510" cx="1.753" cy="1.753" r="1.753" transform="translate(24.492 20.108)" fill="#b6b1b7"/>
      <path id="Trazado_1058040" data-name="Trazado 1058040" d="M26.162,18.021V7.5H24.409a.877.877,0,0,0-.877.877V22.4a.877.877,0,0,0,.877.877H34.929a.877.877,0,0,0,.877-.877V20.651H28.792a2.63,2.63,0,0,1-2.63-2.63Z" transform="translate(-22.712 -6.68)" fill="#dad8db"/>
      <path id="Trazado_1058041" data-name="Trazado 1058041" d="M95.677,11.007a.877.877,0,0,0,.877.877h3.507L95.677,7.5Z" transform="translate(-86.966 -6.68)" fill="#dad8db"/>
      <path id="Trazado_1058042" data-name="Trazado 1058042" d="M114.048,437.615a4.389,4.389,0,0,1-4.384-4.384v-.877l-2.22,6.659a2.622,2.622,0,0,0,2.22,1.231h28.789a2.63,2.63,0,0,0,2.5-1.8l.277-.832Z" transform="translate(-97.447 -385.069)" fill="#e2a975"/>
      <path id="Trazado_1058043" data-name="Trazado 1058043" d="M207.777,7.5h-7.014a.877.877,0,0,0-.877.877V22.4a.877.877,0,0,0,.877.877h10.521a.877.877,0,0,0,.877-.877V11.884Z" transform="translate(-179.779 -6.68)" fill="#eceaec"/>
      <path id="Trazado_1058044" data-name="Trazado 1058044" d="M202.517,18.021V7.5h-1.753a.877.877,0,0,0-.877.877V22.4a.877.877,0,0,0,.877.877h10.521a.877.877,0,0,0,.877-.877V20.651h-7.014A2.63,2.63,0,0,1,202.517,18.021Z" transform="translate(-179.779 -6.68)" fill="#dad8db"/>
      <path id="Trazado_1058045" data-name="Trazado 1058045" d="M272.032,11.007a.877.877,0,0,0,.877.877h3.507L272.032,7.5Z" transform="translate(-244.034 -6.68)" fill="#dad8db"/>
      <path id="Trazado_1058046" data-name="Trazado 1058046" d="M384.132,7.5h-7.014a.877.877,0,0,0-.877.877V22.4a.877.877,0,0,0,.877.877h10.521a.877.877,0,0,0,.877-.877V11.884Z" transform="translate(-336.846 -6.68)" fill="#eceaec"/>
      <path id="Trazado_1058047" data-name="Trazado 1058047" d="M378.872,18.021V7.5h-1.753a.877.877,0,0,0-.877.877V22.4a.877.877,0,0,0,.877.877h10.521a.877.877,0,0,0,.877-.877V20.651H381.5A2.63,2.63,0,0,1,378.872,18.021Z" transform="translate(-336.846 -6.68)" fill="#dad8db"/>
      <path id="Trazado_1058048" data-name="Trazado 1058048" d="M448.387,11.007a.877.877,0,0,0,.877.877h3.507L448.387,7.5Z" transform="translate(-401.101 -6.68)" fill="#dad8db"/>
      <path id="Trazado_1058049" data-name="Trazado 1058049" d="M319.586,456.919h-6.137a.82.82,0,1,0,0,1.641h6.137a.82.82,0,1,0,0-1.641Z" transform="translate(-280.191 -406.946)"/>
      <path id="Trazado_1058050" data-name="Trazado 1058050" d="M335.618,424.854h-6.137a.82.82,0,0,0,0,1.641h6.137a.82.82,0,1,0,0-1.641Z" transform="translate(-294.469 -378.388)"/>
      <path id="Trazado_1058051" data-name="Trazado 1058051" d="M48.917,73.786H53.3a.82.82,0,1,0,0-1.641H48.917a.82.82,0,0,0,0,1.641Z" transform="translate(-44.59 -64.255)"/>
      <path id="Trazado_1058052" data-name="Trazado 1058052" d="M54.121,105.029a.82.82,0,0,0-.82-.82H48.917a.82.82,0,0,0,0,1.641H53.3A.82.82,0,0,0,54.121,105.029Z" transform="translate(-44.59 -92.812)"/>
      <path id="Trazado_1058053" data-name="Trazado 1058053" d="M225.272,73.786h4.384a.82.82,0,1,0,0-1.641h-4.384a.82.82,0,0,0,0,1.641Z" transform="translate(-201.657 -64.255)"/>
      <path id="Trazado_1058054" data-name="Trazado 1058054" d="M230.475,105.029a.82.82,0,0,0-.82-.82h-4.384a.82.82,0,1,0,0,1.641h4.384A.82.82,0,0,0,230.475,105.029Z" transform="translate(-201.656 -92.812)"/>
      <path id="Trazado_1058055" data-name="Trazado 1058055" d="M68.282,4.624,63.9.24a.82.82,0,0,0-.58-.24H56.3a1.7,1.7,0,0,0-1.7,1.7V15.724a1.7,1.7,0,0,0,1.7,1.7h4.44v2.687a.934.934,0,0,1-.933.933h-15.1A2.585,2.585,0,0,0,43.1,19.422v-2h4.44a1.7,1.7,0,0,0,1.7-1.7V5.2a.82.82,0,0,0-.24-.58L44.61.24A.82.82,0,0,0,44.03,0H37.017a1.7,1.7,0,0,0-1.7,1.7V15.724a1.7,1.7,0,0,0,1.7,1.7h4.44v2a2.585,2.585,0,0,0-1.619,1.619h-15.1a.934.934,0,0,1-.933-.933V17.421h4.44a1.7,1.7,0,0,0,1.7-1.7V5.2a.82.82,0,0,0-.24-.58L25.323.24a.82.82,0,0,0-.58-.24H17.729a1.7,1.7,0,0,0-1.7,1.7V15.724a1.7,1.7,0,0,0,1.7,1.7h4.44v2.687a2.577,2.577,0,0,0,2.574,2.574h15.1A2.585,2.585,0,0,0,41.457,24.3v5.5a1.8,1.8,0,0,1-1.123-.523l-1.966-1.966a3.428,3.428,0,0,0-2.44-1.011H28.249a3.454,3.454,0,0,0-3.45,3.45V52.546A3.454,3.454,0,0,0,28.249,56h28.79a3.446,3.446,0,0,0,3.273-2.359l6.03-18.089a1.7,1.7,0,0,0-1.61-2.234H59.755v-.056a3.454,3.454,0,0,0-3.45-3.45H45.784a.82.82,0,0,0,0,1.641H56.3a1.812,1.812,0,0,1,1.81,1.81v.056H43.1V24.3a2.585,2.585,0,0,0,1.619-1.619h15.1a2.577,2.577,0,0,0,2.574-2.574V17.421h4.44a1.7,1.7,0,0,0,1.7-1.7V5.2a.82.82,0,0,0-.24-.58ZM44.851,2.8l1.583,1.583H44.907a.056.056,0,0,1-.056-.056ZM36.96,15.724V1.7a.056.056,0,0,1,.056-.056H43.21V4.327a1.7,1.7,0,0,0,1.7,1.7h2.687v9.7a.056.056,0,0,1-.056.056H37.017a.056.056,0,0,1-.056-.056ZM25.563,2.8l1.583,1.583H25.619a.056.056,0,0,1-.056-.056Zm-7.89,12.924V1.7a.056.056,0,0,1,.056-.056h6.193V4.327a1.7,1.7,0,0,0,1.7,1.7h2.687v9.7a.057.057,0,0,1-.057.056H17.729A.056.056,0,0,1,17.673,15.724Zm24.6,5.2a.934.934,0,0,1,.933.932v0a.933.933,0,1,1-.933-.935Zm22.5,14.051a.051.051,0,0,1,.008.051l-6.03,18.089a1.808,1.808,0,0,1-1.717,1.238H28.25a1.8,1.8,0,0,1-1.306-.56l5.868-17.6a1.808,1.808,0,0,1,1.717-1.238h30.2a.051.051,0,0,1,.046.024ZM34.529,33.315a3.446,3.446,0,0,0-3.273,2.359L26.44,50.122V29.752a1.812,1.812,0,0,1,1.81-1.81h7.678a1.8,1.8,0,0,1,1.28.53l1.966,1.966a3.425,3.425,0,0,0,2.284,1.007v1.87ZM64.138,2.8l1.583,1.583H64.195a.056.056,0,0,1-.056-.056Zm2.687,12.98H56.3a.057.057,0,0,1-.057-.056V1.7a.057.057,0,0,1,.057-.056H62.5V4.327a1.7,1.7,0,0,0,1.7,1.7h2.687v9.7a.057.057,0,0,1-.056.057Z" transform="translate(-16.032 0)"/>
      <path id="Trazado_1058056" data-name="Trazado 1058056" d="M406.01,72.145h-4.384a.82.82,0,0,0,0,1.641h4.384a.82.82,0,1,0,0-1.641Z" transform="translate(-358.724 -64.255)"/>
      <path id="Trazado_1058057" data-name="Trazado 1058057" d="M406.01,104.209h-4.384a.82.82,0,0,0,0,1.641h4.384a.82.82,0,1,0,0-1.641Z" transform="translate(-358.724 -92.812)"/>
    </g>
  </g>
</svg>
