<svg xmlns="http://www.w3.org/2000/svg" xmlns:xlink="http://www.w3.org/1999/xlink" width="108" height="108" viewBox="0 0 108 108">
  <defs>
    <filter id="Trazado_904820" x="0" y="0" width="108" height="108" filterUnits="userSpaceOnUse">
      <feOffset dy="3" input="SourceAlpha"/>
      <feGaussianBlur stdDeviation="3" result="blur"/>
      <feFlood flood-opacity="0.161"/>
      <feComposite operator="in" in2="blur"/>
      <feComposite in="SourceGraphic"/>
    </filter>
  </defs>
  <g id="Grupo_1226582" data-name="Grupo 1226582" transform="translate(-620.656 -514)">
    <g id="Grupo_1174741" data-name="Grupo 1174741" transform="translate(629.656 520)">
      <g id="Grupo_1173585" data-name="Grupo 1173585" transform="translate(0 0)">
        <g id="Grupo_1173428" data-name="Grupo 1173428">
          <g id="Grupo_1171958" data-name="Grupo 1171958">
            <g id="Grupo_1167341" data-name="Grupo 1167341">
              <g id="Grupo_1166792" data-name="Grupo 1166792">
                <g transform="matrix(1, 0, 0, 1, -9, -6)" filter="url(#Trazado_904820)">
                  <g id="Trazado_904820-2" data-name="Trazado 904820" transform="translate(9 6)" fill="#fdf6e4">
                    <path d="M 44.99999618530273 88.50002288818359 C 39.12687301635742 88.50002288818359 33.43022155761719 87.35009765625 28.06829643249512 85.08218383789062 C 22.88852119445801 82.89133453369141 18.23629570007324 79.75460815429688 14.24084663391113 75.75916290283203 C 10.24540901184082 71.76371002197266 7.108683586120605 67.11148834228516 4.917821407318115 61.93171310424805 C 2.649921178817749 56.56978607177734 1.499996185302734 50.87313461303711 1.499996185302734 45.0000114440918 C 1.499996185302734 39.12688827514648 2.649921178817749 33.43023681640625 4.917821407318115 28.06829833984375 C 7.108683586120605 22.88852310180664 10.24540901184082 18.2363109588623 14.24084663391113 14.2408618927002 C 18.23629570007324 10.24541187286377 22.88852119445801 7.108686447143555 28.06829643249512 4.917823791503906 C 33.43022155761719 2.649924039840698 39.12687301635742 1.499998927116394 44.99999618530273 1.499998927116394 C 50.87311935424805 1.499998927116394 56.56977081298828 2.649924039840698 61.93169784545898 4.917823791503906 C 67.11147308349609 7.108686447143555 71.76369476318359 10.24541187286377 75.75914764404297 14.2408618927002 C 79.75458526611328 18.2363109588623 82.89131164550781 22.88852310180664 85.08216857910156 28.06829833984375 C 87.35007476806641 33.43023681640625 88.5 39.12688827514648 88.5 45.0000114440918 C 88.5 50.87313461303711 87.35007476806641 56.56978607177734 85.08216857910156 61.93171310424805 C 82.89131164550781 67.11148834228516 79.75458526611328 71.76371002197266 75.75914764404297 75.75916290283203 C 71.76369476318359 79.75460815429688 67.11147308349609 82.89133453369141 61.93169784545898 85.08218383789062 C 56.56977081298828 87.35009765625 50.87311935424805 88.50002288818359 44.99999618530273 88.50002288818359 Z" stroke="none"/>
                    <path d="M 44.99999618530273 3 C 39.32870864868164 3 33.82865142822266 4.110054016113281 28.65262603759766 6.299339294433594 C 23.65165710449219 8.414566040039062 19.15968322753906 11.44333648681641 15.301513671875 15.30152893066406 C 11.44333648681641 19.15969848632812 8.414566040039062 23.65165710449219 6.299339294433594 28.65264129638672 C 4.110054016113281 33.82866668701172 2.999992370605469 39.3287239074707 2.999992370605469 45.0000114440918 C 2.999992370605469 50.67129898071289 4.110054016113281 56.17135620117188 6.299339294433594 61.34738159179688 C 8.414566040039062 66.34836578369141 11.44333648681641 70.84032440185547 15.301513671875 74.69849395751953 C 19.15968322753906 78.55668640136719 23.65165710449219 81.58545684814453 28.65262603759766 83.70068359375 C 33.82865142822266 85.88996887207031 39.32870864868164 87.00002288818359 44.99999618530273 87.00002288818359 C 50.67128372192383 87.00002288818359 56.17134094238281 85.88996887207031 61.34736633300781 83.70068359375 C 66.34834289550781 81.58545684814453 70.84030914306641 78.55668640136719 74.69847869873047 74.69849395751953 C 78.55665588378906 70.84032440185547 81.58542633056641 66.34836578369141 83.70065307617188 61.34738159179688 C 85.88993835449219 56.17135620117188 87 50.67129898071289 87 45.0000114440918 C 87 39.3287239074707 85.88993835449219 33.82866668701172 83.70065307617188 28.65264129638672 C 81.58542633056641 23.65165710449219 78.55665588378906 19.15969848632812 74.69847869873047 15.30152893066406 C 70.84030914306641 11.44333648681641 66.34834289550781 8.414566040039062 61.34736633300781 6.299339294433594 C 56.17134094238281 4.110054016113281 50.67128372192383 3 44.99999618530273 3 M 44.99999618530273 0 C 69.85281372070312 0 90 20.14719390869141 90 45.0000114440918 C 90 69.85282897949219 69.85281372070312 90.00002288818359 44.99999618530273 90.00002288818359 C 20.14717864990234 90.00002288818359 -7.62939453125e-06 69.85282897949219 -7.62939453125e-06 45.0000114440918 C -7.62939453125e-06 20.14719390869141 20.14717864990234 0 44.99999618530273 0 Z" stroke="none" fill="#856002"/>
                  </g>
                </g>
              </g>
            </g>
          </g>
        </g>
      </g>
    </g>
    <g id="desarrollador-de-software_5_" data-name="desarrollador-de-software (5)" transform="translate(644.026 508.127)">
      <g id="Grupo_1226574" data-name="Grupo 1226574" transform="translate(1.197 37.238)">
        <path id="Trazado_1058011" data-name="Trazado 1058011" d="M12.2,91.9A2.227,2.227,0,0,0,10,94.22v31.715a2.174,2.174,0,0,0,2.2,2.075H55.26a2.174,2.174,0,0,0,2.2-2.075V109.586h-2a1.639,1.639,0,0,1-1.639-1.64v-1.169a1.778,1.778,0,0,0-2.636-1.522l-1.012.585a1.639,1.639,0,0,1-2.24-.6l-1.887-3.267a1.641,1.641,0,0,1,.6-2.24l1.012-.584a1.8,1.8,0,0,0,0-3.043l-1.011-.584a1.64,1.64,0,0,1-.6-2.24l.8-1.381H12.2Z" transform="translate(-10 -91.901)" fill="#fff"/>
      </g>
      <g id="Grupo_1226575" data-name="Grupo 1226575" transform="translate(1.197 67.258)">
        <path id="Trazado_1058012" data-name="Trazado 1058012" d="M57.457,342.795v4.014a2.175,2.175,0,0,1-2.2,2.075H12.2a2.175,2.175,0,0,1-2.2-2.075v-4.014Z" transform="translate(-10 -342.795)" fill="#ced3dd"/>
      </g>
      <g id="Grupo_1226579" data-name="Grupo 1226579" transform="translate(15.165 73.347)">
        <g id="Grupo_1226576" data-name="Grupo 1226576" transform="translate(1.399 0)">
          <path id="Trazado_1058013" data-name="Trazado 1058013" d="M152.934,400.021l-.738-6.338h-9.588l-.738,6.338a3.441,3.441,0,0,1-3.423,3.052c-.058,0,.059,0,0,0h17.911c-.059,0,.058,0,0,0A3.441,3.441,0,0,1,152.934,400.021Z" transform="translate(-138.43 -393.683)" fill="#868eaf"/>
        </g>
        <g id="Grupo_1226577" data-name="Grupo 1226577" transform="translate(0 9.393)">
          <path id="Trazado_1058014" data-name="Trazado 1058014" d="M128.155,472.183h-1.416" transform="translate(-126.739 -472.183)" fill="#7ba8bd"/>
        </g>
        <g id="Grupo_1226578" data-name="Grupo 1226578" transform="translate(19.327 9.393)">
          <path id="Trazado_1058015" data-name="Trazado 1058015" d="M289.679,472.183h-1.416" transform="translate(-288.263 -472.183)" fill="#7ba8bd"/>
        </g>
      </g>
      <g id="Grupo_1226580" data-name="Grupo 1226580" transform="translate(37.025 31.006)">
        <path id="Trazado_1058016" data-name="Trazado 1058016" d="M310.257,49.663l1.012.584a1.8,1.8,0,0,1,0,3.043l-1.013.584a1.64,1.64,0,0,0-.6,2.24l1.887,3.268a1.64,1.64,0,0,0,2.24.6L314.8,59.4a1.778,1.778,0,0,1,2.635,1.521v1.17a1.64,1.64,0,0,0,1.64,1.64h3.773a1.64,1.64,0,0,0,1.64-1.64v-1.17a1.778,1.778,0,0,1,2.635-1.521l1.012.585a1.639,1.639,0,0,0,2.24-.6l1.887-3.268a1.639,1.639,0,0,0-.6-2.24l-1.012-.584a1.8,1.8,0,0,1,0-3.043l1.012-.584a1.64,1.64,0,0,0,.6-2.24l-1.887-3.268a1.639,1.639,0,0,0-2.24-.6l-1.012.584a1.777,1.777,0,0,1-2.635-1.521v-1.17a1.64,1.64,0,0,0-1.64-1.64H319.07a1.64,1.64,0,0,0-1.64,1.64v1.17a1.777,1.777,0,0,1-2.635,1.521l-1.012-.584a1.639,1.639,0,0,0-2.24.6l-1.887,3.268A1.639,1.639,0,0,0,310.257,49.663Zm10.7-1.682a3.787,3.787,0,1,1-3.787,3.787A3.788,3.788,0,0,1,320.956,47.981Z" transform="translate(-309.436 -39.809)" fill="#ced3dd"/>
      </g>
      <g id="Grupo_1226581" data-name="Grupo 1226581" transform="translate(0 29.809)">
        <path id="Trazado_1058017" data-name="Trazado 1058017" d="M59.665,126.508a1.2,1.2,0,0,0-1.692.042l-3.4,3.574a1.2,1.2,0,0,0,0,1.65l3.4,3.574a1.2,1.2,0,0,0,1.734-1.65l-2.616-2.749,2.616-2.749a1.2,1.2,0,0,0-.042-1.692Z" transform="translate(-47.752 -114.648)"/>
        <path id="Trazado_1058018" data-name="Trazado 1058018" d="M195.374,135.39a1.208,1.208,0,0,0,1.692-.042l3.4-3.574a1.2,1.2,0,0,0,0-1.65l-3.4-3.574a1.2,1.2,0,0,0-1.734,1.65l2.616,2.749-2.616,2.749A1.2,1.2,0,0,0,195.374,135.39Z" transform="translate(-171.67 -114.648)"/>
        <path id="Trazado_1058019" data-name="Trazado 1058019" d="M121.59,135.541a1.208,1.208,0,0,0,1.646-.391l4.4-7.148a1.2,1.2,0,0,0-2.038-1.255l-4.4,7.148A1.2,1.2,0,0,0,121.59,135.541Z" transform="translate(-106.541 -114.646)"/>
        <path id="Trazado_1058020" data-name="Trazado 1058020" d="M75.906,231.017H55.439a1.2,1.2,0,0,0,0,2.393H75.906a1.2,1.2,0,0,0,0-2.393Z" transform="translate(-47.752 -206.942)"/>
        <path id="Trazado_1058021" data-name="Trazado 1058021" d="M55.439,281.762a1.2,1.2,0,0,0,0,2.393H70.078a1.2,1.2,0,0,0,0-2.393Z" transform="translate(-47.752 -251.615)"/>
        <path id="Trazado_1058022" data-name="Trazado 1058022" d="M230.243,282.958a1.2,1.2,0,0,0,1.2,1.2h10.221a1.2,1.2,0,0,0,0-2.393H231.439A1.2,1.2,0,0,0,230.243,282.958Z" transform="translate(-202.694 -251.615)"/>
        <path id="Trazado_1058023" data-name="Trazado 1058023" d="M166.163,83.58a1.2,1.2,0,1,0,.53-1.507A1.2,1.2,0,0,0,166.163,83.58Z" transform="translate(-146.203 -75.693)"/>
        <path id="Trazado_1058024" data-name="Trazado 1058024" d="M270.329,232.918a1.2,1.2,0,1,0,.33-1.658A1.21,1.21,0,0,0,270.329,232.918Z" transform="translate(-237.81 -206.983)"/>
        <path id="Trazado_1058025" data-name="Trazado 1058025" d="M59.843,44.035l-1.011-.584a.6.6,0,0,1,0-.971l1.011-.584a2.84,2.84,0,0,0,1.039-3.874l-1.887-3.268a2.866,2.866,0,0,0-3.874-1.038l-1.013.584a.589.589,0,0,1-.84-.485V32.645a2.84,2.84,0,0,0-2.836-2.836H46.658a2.839,2.839,0,0,0-2.836,2.836v1.169a.589.589,0,0,1-.84.485l-1.012-.584A2.866,2.866,0,0,0,38.1,34.753l-.744,1.289H26.422a1.2,1.2,0,1,0,0,2.393h9.589A2.865,2.865,0,0,0,37.247,41.9l1.012.584a.6.6,0,0,1,0,.97l-1.014.585a2.84,2.84,0,0,0-1.036,3.874l1.887,3.267a2.867,2.867,0,0,0,3.875,1.039l1.012-.585a.589.589,0,0,1,.84.485v1.169a2.861,2.861,0,0,0,2.794,2.836l.84.052v9.89H2.393v-26.5a1.032,1.032,0,0,1,1-1.123H15.678a1.2,1.2,0,0,0,0-2.393H3.394A3.42,3.42,0,0,0,0,39.558V71.272H0a3.379,3.379,0,0,0,3.393,3.271h16l-.583,5.005a2.243,2.243,0,0,1-2.231,1.991h0a.426.426,0,0,0-.049,0l-1.368,0a1.2,1.2,0,1,0,0,2.393H35.907a1.2,1.2,0,1,0,0-2.393l-1.368,0h-.052a2.244,2.244,0,0,1-2.231-1.991v0l-.583-5H46.456a3.379,3.379,0,0,0,3.395-3.271V56.12h.582a2.839,2.839,0,0,0,2.836-2.836V52.115a.589.589,0,0,1,.84-.485l1.013.585a2.866,2.866,0,0,0,3.874-1.039l1.887-3.268A2.839,2.839,0,0,0,59.843,44.035ZM47.457,68.455v2.817a.981.981,0,0,1-1,.878H3.394a.981.981,0,0,1-1-.878V68.455ZM29.879,79.821a4.633,4.633,0,0,0,.55,1.722H20.643a4.621,4.621,0,0,0,.549-1.72l.615-5.279h7.457Zm28.93-33.109L56.922,49.98a.445.445,0,0,1-.6.163L55.3,49.557a3,3,0,0,0-4.43,2.557v1.169a.444.444,0,0,1-.443.443H46.658a.447.447,0,0,1-.443-.443V52.115a3,3,0,0,0-4.431-2.558l-1.013.585a.448.448,0,0,1-.6-.163l-1.887-3.268a.444.444,0,0,1,.162-.6l1.013-.585a3.012,3.012,0,0,0,0-5.115l-1.012-.584a.452.452,0,0,1-.163-.605l1.887-3.268a.445.445,0,0,1,.606-.162l1.012.584a3,3,0,0,0,4.43-2.557V32.645a.444.444,0,0,1,.443-.443h3.773a.444.444,0,0,1,.443.443v1.169a3,3,0,0,0,4.43,2.557l1.013-.584a.445.445,0,0,1,.6.162l1.887,3.268a.444.444,0,0,1-.163.605l-1.01.584a3.014,3.014,0,0,0,0,5.116l1.012.584a.444.444,0,0,1,.163.605Z" transform="translate(0 -29.809)"/>
        <path id="Trazado_1058026" data-name="Trazado 1058026" d="M369.048,98.108a4.983,4.983,0,1,0,4.984,4.984A4.989,4.989,0,0,0,369.048,98.108Zm0,7.574a2.59,2.59,0,1,1,0-5.181,2.624,2.624,0,0,1,2.591,2.59A2.594,2.594,0,0,1,369.048,105.682Z" transform="translate(-320.503 -89.936)"/>
      </g>
    </g>
  </g>
</svg>
