<svg xmlns="http://www.w3.org/2000/svg" xmlns:xlink="http://www.w3.org/1999/xlink" width="113" height="113" viewBox="0 0 113 113">
  <defs>
    <filter id="Trazado_982547" x="0" y="0" width="113" height="113" filterUnits="userSpaceOnUse">
      <feOffset dy="3" input="SourceAlpha"/>
      <feGaussianBlur stdDeviation="3" result="blur"/>
      <feFlood flood-opacity="0.161"/>
      <feComposite operator="in" in2="blur"/>
      <feComposite in="SourceGraphic"/>
    </filter>
  </defs>
  <g id="Grupo_1226627" data-name="Grupo 1226627" transform="translate(9 6)">
    <g id="Grupo_1226375" data-name="Grupo 1226375" transform="translate(0)">
      <g id="Grupo_1211216" data-name="Grupo 1211216">
        <g id="Grupo_1210737" data-name="Grupo 1210737">
          <g id="Grupo_1210537" data-name="Grupo 1210537">
            <g id="Grupo_1164202" data-name="Grupo 1164202">
              <g id="Grupo_1158168" data-name="Grupo 1158168">
                <g id="Grupo_1152576" data-name="Grupo 1152576">
                  <g id="Grupo_1148633" data-name="Grupo 1148633">
                    <g id="Grupo_1148525" data-name="Grupo 1148525">
                      <g transform="matrix(1, 0, 0, 1, -9, -6)" filter="url(#Trazado_982547)">
                        <g id="Trazado_982547-2" data-name="Trazado 982547" transform="translate(9 6)" fill="#fdf6e4">
                          <path d="M 47.49999618530273 93.5 C 41.28936767578125 93.5 35.26533126831055 92.28396606445312 29.59518241882324 89.88570404052734 C 24.11771583557129 87.56893157958984 19.19812965393066 84.251953125 14.97308921813965 80.02690124511719 C 10.74803638458252 75.80186462402344 7.431062698364258 70.88227844238281 5.114289283752441 65.40480804443359 C 2.716022968292236 59.73466110229492 1.499996185302734 53.71062469482422 1.499996185302734 47.49999618530273 C 1.499996185302734 41.28936767578125 2.716022968292236 35.26533126831055 5.114289283752441 29.59518241882324 C 7.431062698364258 24.11771583557129 10.74803638458252 19.19812965393066 14.97308921813965 14.97308921813965 C 19.19812965393066 10.74803638458252 24.11771583557129 7.431062698364258 29.59518241882324 5.114289283752441 C 35.26533126831055 2.716022968292236 41.28936767578125 1.499996185302734 47.49999618530273 1.499996185302734 C 53.71062469482422 1.499996185302734 59.73466110229492 2.716022968292236 65.40480804443359 5.114289283752441 C 70.88227844238281 7.431062698364258 75.80186462402344 10.74803638458252 80.02690124511719 14.97308921813965 C 84.251953125 19.19812965393066 87.56893157958984 24.11771583557129 89.88570404052734 29.59518241882324 C 92.28396606445312 35.26533126831055 93.5 41.28936767578125 93.5 47.49999618530273 C 93.5 53.71062469482422 92.28396606445312 59.73466110229492 89.88570404052734 65.40480804443359 C 87.56893157958984 70.88227844238281 84.251953125 75.80186462402344 80.02690124511719 80.02690124511719 C 75.80186462402344 84.251953125 70.88227844238281 87.56893157958984 65.40480804443359 89.88570404052734 C 59.73466110229492 92.28396606445312 53.71062469482422 93.5 47.49999618530273 93.5 Z" stroke="none"/>
                          <path d="M 47.49999618530273 2.999992370605469 C 41.4912109375 2.999992370605469 35.66376495361328 4.1761474609375 30.17950439453125 6.495796203613281 C 24.88084411621094 8.736953735351562 20.12152099609375 11.94598388671875 16.03375244140625 16.03375244140625 C 11.94598388671875 20.12152099609375 8.736953735351562 24.88084411621094 6.495796203613281 30.17950439453125 C 4.1761474609375 35.66376495361328 2.999992370605469 41.4912109375 2.999992370605469 47.49999618530273 C 2.999992370605469 53.50878143310547 4.1761474609375 59.33622741699219 6.495796203613281 64.82048797607422 C 8.736953735351562 70.11914825439453 11.94598388671875 74.87847137451172 16.03375244140625 78.96623992919922 C 20.12152099609375 83.05400848388672 24.88084411621094 86.26304626464844 30.17950439453125 88.50419616699219 C 35.66376495361328 90.82384490966797 41.4912109375 92 47.49999618530273 92 C 53.50878143310547 92 59.33622741699219 90.82384490966797 64.82048797607422 88.50419616699219 C 70.11914825439453 86.26304626464844 74.87847137451172 83.05400848388672 78.96623992919922 78.96623992919922 C 83.05400848388672 74.87847137451172 86.26304626464844 70.11914825439453 88.50419616699219 64.82048797607422 C 90.82384490966797 59.33622741699219 92 53.50878143310547 92 47.49999618530273 C 92 41.4912109375 90.82384490966797 35.66376495361328 88.50419616699219 30.17950439453125 C 86.26304626464844 24.88084411621094 83.05400848388672 20.12152099609375 78.96623992919922 16.03375244140625 C 74.87847137451172 11.94598388671875 70.11914825439453 8.736953735351562 64.82048797607422 6.495796203613281 C 59.33622741699219 4.1761474609375 53.50878143310547 2.999992370605469 47.49999618530273 2.999992370605469 M 47.49999618530273 -7.62939453125e-06 C 73.7335205078125 -7.62939453125e-06 95 21.26647186279297 95 47.49999618530273 C 95 73.7335205078125 73.7335205078125 95 47.49999618530273 95 C 21.26647186279297 95 -7.62939453125e-06 73.7335205078125 -7.62939453125e-06 47.49999618530273 C -7.62939453125e-06 21.26647186279297 21.26647186279297 -7.62939453125e-06 47.49999618530273 -7.62939453125e-06 Z" stroke="none" fill="#f5b104"/>
                        </g>
                      </g>
                    </g>
                  </g>
                </g>
              </g>
            </g>
          </g>
        </g>
      </g>
    </g>
    <g id="internet_5_" data-name="internet (5)" transform="translate(18.156 17.665)">
      <rect id="Rect치ngulo_422528" data-name="Rect치ngulo 422528" width="17.427" height="13.277" transform="translate(41.492 0.83)" fill="#ffc44d"/>
      <path id="Trazado_1058076" data-name="Trazado 1058076" d="M403.041,361.5a6.526,6.526,0,1,0-11.588,4.12h0l5.039,6.488,5.061-6.454h0A6.5,6.5,0,0,0,403.041,361.5Z" transform="translate(-344.537 -313.606)" fill="#a0e070"/>
      <ellipse id="Elipse_13520" data-name="Elipse 13520" cx="3.38" cy="3.38" rx="3.38" ry="3.38" transform="translate(48.598 44.547)" fill="#fff"/>
      <path id="Trazado_1058077" data-name="Trazado 1058077" d="M21.9,30.73H11.178a1.165,1.165,0,0,1-1.165-1.165V11.17A1.165,1.165,0,0,1,11.178,10H21.9a1.165,1.165,0,0,1,1.165,1.165V29.565A1.165,1.165,0,0,1,21.9,30.73Z" transform="translate(-8.846 -8.84)" fill="#006ab2"/>
      <rect id="Rect치ngulo_422529" data-name="Rect치ngulo 422529" width="13.053" height="11.622" transform="translate(1.167 5.002)" fill="#fff"/>
      <ellipse id="Elipse_13521" data-name="Elipse 13521" cx="14.107" cy="14.107" rx="14.107" ry="14.107" transform="translate(15.767 15.767)" fill="#52e7ef"/>
      <path id="Trazado_1058078" data-name="Trazado 1058078" d="M26.083,403.05H11.165A1.165,1.165,0,0,1,10,401.884V391.162A1.165,1.165,0,0,1,11.165,390H26.083a1.165,1.165,0,0,1,1.165,1.165v10.722A1.165,1.165,0,0,1,26.083,403.05Z" transform="translate(-8.835 -344.546)" fill="#f75857"/>
      <path id="Trazado_1058079" data-name="Trazado 1058079" d="M67.606,424.191l-4.982,2.877v-5.753Z" transform="translate(-55.326 -372.214)" fill="#fff"/>
      <path id="Trazado_1058080" data-name="Trazado 1058080" d="M123.011,138.5a15.5,15.5,0,1,0,15.5-15.5A15.517,15.517,0,0,0,123.011,138.5Zm26.453-7.3a13.085,13.085,0,0,1,2.164,6.137h-4.466v-5.29A8.554,8.554,0,0,0,149.464,131.2Zm0,14.605a8.552,8.552,0,0,0-2.3-.847v-5.29h4.466A13.085,13.085,0,0,1,149.464,145.806Zm-21.907,0a13.085,13.085,0,0,1-2.164-6.137h4.466v5.29A8.554,8.554,0,0,0,127.557,145.806Zm0-14.605a8.552,8.552,0,0,0,2.3.847v5.291h-4.466A13.086,13.086,0,0,1,127.557,131.2Zm9.788,1.036v5.1h-5.154v-5.1Zm-4.906-2.331a6.338,6.338,0,0,1,4.906-4.459v4.459Zm4.906,9.763v5.1h-5.154v-5.1Zm0,7.432v4.459a6.338,6.338,0,0,1-4.906-4.459Zm2.331,0h4.906a6.338,6.338,0,0,1-4.906,4.459Zm0-2.331v-5.1h5.154v5.1Zm0-7.432v-5.1h5.154v5.1Zm0-7.432v-4.459a6.339,6.339,0,0,1,4.906,4.459Zm-8.951-2.017a8.584,8.584,0,0,0-.641,1.818,6.23,6.23,0,0,1-1.028-.361A13.29,13.29,0,0,1,130.726,127.888Zm-1.669,19.772a6.236,6.236,0,0,1,1.028-.361,8.584,8.584,0,0,0,.641,1.818A13.248,13.248,0,0,1,129.057,147.661Zm17.239,1.457a8.582,8.582,0,0,0,.641-1.818,6.24,6.24,0,0,1,1.028.361A13.272,13.272,0,0,1,146.3,149.118Zm1.669-19.773a6.238,6.238,0,0,1-1.028.361,8.584,8.584,0,0,0-.641-1.818A13.27,13.27,0,0,1,147.965,129.345Z" transform="translate(-108.675 -108.668)"/>
      <path id="Trazado_1058081" data-name="Trazado 1058081" d="M143.516,84.3a1.16,1.16,0,0,0,.6-.166l.033-.02a1.165,1.165,0,1,0-.631.187Z" transform="translate(-125.76 -72.413)"/>
      <path id="Trazado_1058082" data-name="Trazado 1058082" d="M171.1,56.138a1.162,1.162,0,0,0,.457-.094,21.52,21.52,0,0,1,16.542-.115,1.165,1.165,0,0,0,.885-2.157,23.851,23.851,0,0,0-18.341.128,1.166,1.166,0,0,0,.458,2.238Z" transform="translate(-150.126 -45.942)"/>
      <path id="Trazado_1058083" data-name="Trazado 1058083" d="M414.278,146.32a1.165,1.165,0,1,0-1.993,1.209h0a1.165,1.165,0,1,0,2-1.191Z" transform="translate(-364.086 -128.773)"/>
      <path id="Trazado_1058084" data-name="Trazado 1058084" d="M426.184,191.4a1.164,1.164,0,0,0,1.518-.642,23.854,23.854,0,0,0-.053-18,1.165,1.165,0,0,0-2.155.889,21.524,21.524,0,0,1,.047,16.233A1.165,1.165,0,0,0,426.184,191.4Z" transform="translate(-375.828 -151.992)"/>
      <path id="Trazado_1058085" data-name="Trazado 1058085" d="M349.718,410.429l-.015.009a1.165,1.165,0,1,0,1.24,1.974l.015-.009a1.165,1.165,0,0,0-1.24-1.974Z" transform="translate(-308.465 -362.439)"/>
      <path id="Trazado_1058086" data-name="Trazado 1058086" d="M195.4,425.275a21.53,21.53,0,0,1-15.739.286,1.165,1.165,0,1,0-.816,2.183,23.861,23.861,0,0,0,17.451-.317,1.165,1.165,0,1,0-.9-2.152Z" transform="translate(-157.332 -375.633)"/>
      <path id="Trazado_1058087" data-name="Trazado 1058087" d="M85.288,356.2a1.165,1.165,0,1,0,1.92-1.322l0,0a1.165,1.165,0,1,0-1.935,1.3Z" transform="translate(-75.158 -313.062)"/>
      <path id="Trazado_1058088" data-name="Trazado 1058088" d="M53.879,206.642a1.165,1.165,0,0,0-1.377.906,23.936,23.936,0,0,0-.49,4.825A23.6,23.6,0,0,0,54.043,222a1.165,1.165,0,0,0,2.131-.945,21.284,21.284,0,0,1-1.831-8.684,21.6,21.6,0,0,1,.442-4.354A1.165,1.165,0,0,0,53.879,206.642Z" transform="translate(-45.95 -182.538)"/>
      <path id="Trazado_1058089" data-name="Trazado 1058089" d="M411.533,372.248a4.545,4.545,0,1,0,4.545,4.545A4.55,4.55,0,0,0,411.533,372.248Zm0,6.759a2.214,2.214,0,1,1,2.214-2.214A2.217,2.217,0,0,1,411.533,379.007Z" transform="translate(-359.556 -328.865)"/>
      <path id="Trazado_1058090" data-name="Trazado 1058090" d="M387.68,344.975A7.692,7.692,0,0,0,381.7,357.5l0,0,5.038,6.488a1.165,1.165,0,0,0,.918.451h0a1.166,1.166,0,0,0,.917-.446l5.061-6.454.036-.048a7.692,7.692,0,0,0-5.99-12.517Zm4.135,11.1q-.036.044-.067.09l-4.087,5.212-4.1-5.285-.035-.045a5.3,5.3,0,0,1-1.2-3.384,5.361,5.361,0,1,1,9.5,3.412Z" transform="translate(-335.703 -304.771)"/>
      <path id="Trazado_1058091" data-name="Trazado 1058091" d="M362.417,0H345.168A1.165,1.165,0,0,0,344,1.17V14.223a1.165,1.165,0,0,0,1.165,1.165h17.248a1.165,1.165,0,0,0,1.165-1.165V1.17A1.165,1.165,0,0,0,362.417,0ZM346.334,3.662l4.156,3.644-4.156,4.156Zm7.43,3.415-5.407-4.74h10.813Zm-1.518,1.769L353,9.5a1.166,1.166,0,0,0,1.537,0l.774-.678,4.233,4.233H348.034Zm4.816-1.561,4.189-3.673v7.861Z" transform="translate(-303.912 -0.005)"/>
      <path id="Trazado_1058092" data-name="Trazado 1058092" d="M59.354,414.346l-4.982-2.877a1.165,1.165,0,0,0-1.748,1.009v5.753a1.165,1.165,0,0,0,1.748,1.009l4.982-2.877a1.165,1.165,0,0,0,0-2.018Zm-4.4,1.867V414.5l1.486.858Z" transform="translate(-46.491 -363.378)"/>
      <path id="Trazado_1058093" data-name="Trazado 1058093" d="M17.248,380H2.331A2.334,2.334,0,0,0,0,382.329v10.722a2.334,2.334,0,0,0,2.331,2.331H17.248a2.334,2.334,0,0,0,2.331-2.331V382.329A2.333,2.333,0,0,0,17.248,380Zm0,13.053H2.331V382.329H17.248V393.05Z" transform="translate(0 -335.712)"/>
      <path id="Trazado_1058094" data-name="Trazado 1058094" d="M2.344,23.061H13.066A2.334,2.334,0,0,0,15.4,20.73V2.336A2.334,2.334,0,0,0,13.066,0H2.344A2.334,2.334,0,0,0,.013,2.336V20.731A2.333,2.333,0,0,0,2.344,23.061Zm10.722-2.331H2.344V17.794H13.067v2.937ZM2.344,6.172H13.066v9.291H2.344ZM13.066,2.336V3.842H2.344V2.336Z" transform="translate(-0.011 -0.005)"/>
      <path id="Trazado_1058095" data-name="Trazado 1058095" d="M52.809,155.642H51.177a1.165,1.165,0,0,0,0,2.331h1.632a1.165,1.165,0,1,0,0-2.331Z" transform="translate(-44.183 -137.503)"/>
    </g>
  </g>
</svg>
