<svg xmlns="http://www.w3.org/2000/svg" xmlns:xlink="http://www.w3.org/1999/xlink" width="113" height="113" viewBox="0 0 113 113">
  <defs>
    <filter id="Trazado_982547" x="0" y="0" width="113" height="113" filterUnits="userSpaceOnUse">
      <feOffset dy="3" input="SourceAlpha"/>
      <feGaussianBlur stdDeviation="3" result="blur"/>
      <feFlood flood-opacity="0.161"/>
      <feComposite operator="in" in2="blur"/>
      <feComposite in="SourceGraphic"/>
    </filter>
  </defs>
  <g id="Grupo_1226629" data-name="Grupo 1226629" transform="translate(-1329.853 -7635.473)">
    <g id="Grupo_1226376" data-name="Grupo 1226376" transform="translate(1338.853 7641.473)">
      <g id="Grupo_1211217" data-name="Grupo 1211217" transform="translate(0)">
        <g id="Grupo_1210736" data-name="Grupo 1210736">
          <g id="Grupo_1210537" data-name="Grupo 1210537">
            <g id="Grupo_1164202" data-name="Grupo 1164202">
              <g id="Grupo_1158168" data-name="Grupo 1158168">
                <g id="Grupo_1152576" data-name="Grupo 1152576">
                  <g id="Grupo_1148633" data-name="Grupo 1148633">
                    <g id="Grupo_1148525" data-name="Grupo 1148525">
                      <g transform="matrix(1, 0, 0, 1, -9, -6)" filter="url(#Trazado_982547)">
                        <g id="Trazado_982547-2" data-name="Trazado 982547" transform="translate(9 6)" fill="#fdf6e4">
                          <path d="M 47.5 93.5 C 41.28937149047852 93.5 35.26533508300781 92.28397369384766 29.59518623352051 89.88570404052734 C 24.11771965026855 87.56893157958984 19.19813346862793 84.25196075439453 14.97309303283691 80.02691650390625 C 10.74804019927979 75.80186462402344 7.431066513061523 70.88229370117188 5.114293098449707 65.40481567382812 C 2.716026782989502 59.73468017578125 1.5 53.71062850952148 1.5 47.5 C 1.5 41.28937149047852 2.716026782989502 35.26533508300781 5.114293098449707 29.59518623352051 C 7.431066513061523 24.11771965026855 10.74804019927979 19.19813346862793 14.97309303283691 14.97309303283691 C 19.19813346862793 10.74804019927979 24.11771965026855 7.431066513061523 29.59518623352051 5.114293098449707 C 35.26533508300781 2.716026782989502 41.28937149047852 1.5 47.5 1.5 C 53.71062850952148 1.5 59.73468017578125 2.716026782989502 65.40481567382812 5.114293098449707 C 70.88229370117188 7.431066513061523 75.80186462402344 10.74804019927979 80.02691650390625 14.97309303283691 C 84.25196075439453 19.19813346862793 87.56893157958984 24.11771965026855 89.88570404052734 29.59518623352051 C 92.28397369384766 35.26533508300781 93.5 41.28937149047852 93.5 47.5 C 93.5 53.71062850952148 92.28397369384766 59.73468017578125 89.88570404052734 65.40481567382812 C 87.56893157958984 70.88229370117188 84.25196075439453 75.80186462402344 80.02691650390625 80.02691650390625 C 75.80186462402344 84.25196075439453 70.88229370117188 87.56893157958984 65.40481567382812 89.88570404052734 C 59.73468017578125 92.28397369384766 53.71062850952148 93.5 47.5 93.5 Z" stroke="none"/>
                          <path d="M 47.5 3 C 41.49121475219727 3 35.66376876831055 4.176155090332031 30.17950439453125 6.495796203613281 C 24.88084411621094 8.736953735351562 20.12152099609375 11.94598388671875 16.03375244140625 16.03375244140625 C 11.94598388671875 20.12152099609375 8.736953735351562 24.88084411621094 6.495796203613281 30.17950439453125 C 4.176155090332031 35.66376876831055 3 41.49121475219727 3 47.5 C 3 53.50878524780273 4.176155090332031 59.33623123168945 6.495796203613281 64.82049560546875 C 8.736953735351562 70.11915588378906 11.94598388671875 74.87847900390625 16.03375244140625 78.96624755859375 C 20.12152099609375 83.05401611328125 24.88084411621094 86.26304626464844 30.17950439453125 88.50419616699219 C 35.66376876831055 90.82384490966797 41.49121475219727 92 47.5 92 C 53.50878524780273 92 59.33623123168945 90.82384490966797 64.82049560546875 88.50419616699219 C 70.11915588378906 86.26304626464844 74.87847900390625 83.05401611328125 78.96624755859375 78.96624755859375 C 83.05401611328125 74.87847900390625 86.26304626464844 70.11915588378906 88.50419616699219 64.82049560546875 C 90.82384490966797 59.33623123168945 92 53.50878524780273 92 47.5 C 92 41.49121475219727 90.82384490966797 35.66376876831055 88.50419616699219 30.17950439453125 C 86.26304626464844 24.88084411621094 83.05401611328125 20.12152099609375 78.96624755859375 16.03375244140625 C 74.87847900390625 11.94598388671875 70.11915588378906 8.736953735351562 64.82049560546875 6.495796203613281 C 59.33623123168945 4.176155090332031 53.50878524780273 3 47.5 3 M 47.5 0 C 73.7335205078125 0 95 21.2664794921875 95 47.5 C 95 73.7335205078125 73.7335205078125 95 47.5 95 C 21.2664794921875 95 0 73.7335205078125 0 47.5 C 0 21.2664794921875 21.2664794921875 0 47.5 0 Z" stroke="none" fill="#f5b104"/>
                        </g>
                      </g>
                    </g>
                  </g>
                </g>
              </g>
            </g>
          </g>
        </g>
      </g>
    </g>
    <g id="lan" transform="translate(1355.499 7658.119)">
      <path id="Trazado_1058096" data-name="Trazado 1058096" d="M155.981,313.991A1.991,1.991,0,1,1,153.991,312,1.991,1.991,0,0,1,155.981,313.991Zm0,0" transform="translate(-133.089 -273.184)" fill="#fcd770"/>
      <path id="Trazado_1058097" data-name="Trazado 1058097" d="M352,456h7.962v3.981H352Zm0,0" transform="translate(-308.207 -399.268)" fill="#838f9b"/>
      <path id="Trazado_1058098" data-name="Trazado 1058098" d="M80,200h7.962v3.981H80Zm0,0" transform="translate(-70.047 -175.118)" fill="#838f9b"/>
      <path id="Trazado_1058099" data-name="Trazado 1058099" d="M305.878,424v1.991a2,2,0,0,1-1.991,1.991h-21.9A2,2,0,0,1,280,425.991V424Zm0,0" transform="translate(-245.165 -371.249)" fill="#969faa"/>
      <path id="Trazado_1058100" data-name="Trazado 1058100" d="M33.878,168v1.991a2,2,0,0,1-1.991,1.991H9.991A2,2,0,0,1,8,169.991V168Zm0,0" transform="translate(-7.005 -147.099)" fill="#969faa"/>
      <g id="Grupo_1226628" data-name="Grupo 1226628" transform="translate(0.995 0.995)">
        <path id="Trazado_1058101" data-name="Trazado 1058101" d="M305.878,313.991v11.944H280V313.991A2,2,0,0,1,281.991,312h21.9A2,2,0,0,1,305.878,313.991Zm0,0" transform="translate(-246.16 -274.179)" fill="#69d6f4"/>
        <path id="Trazado_1058102" data-name="Trazado 1058102" d="M33.878,57.991V69.934H8V57.991A2,2,0,0,1,9.991,56h21.9A2,2,0,0,1,33.878,57.991Zm0,0" transform="translate(-8 -50.028)" fill="#69d6f4"/>
        <path id="Trazado_1058103" data-name="Trazado 1058103" d="M319.449,26.472h.01a14.813,14.813,0,0,1-3.563,6.609l-.01-.01a6.871,6.871,0,0,0-2.737-5.245,4.573,4.573,0,0,0-5.5.01A4.485,4.485,0,0,0,306,30.224a26.963,26.963,0,0,0-1.045,7.445v.189a14.75,14.75,0,0,1-5.355-1l.01-.01a3.953,3.953,0,0,0,1.364-2.976V30.662a3.108,3.108,0,0,0-1.513-2.668l-1.135-.676a4.807,4.807,0,0,1,.687-8.58,3.124,3.124,0,0,0,1.961-2.9,10.694,10.694,0,0,0-2.21-6.489A14.631,14.631,0,0,1,304.957,8v2.319a4.947,4.947,0,0,0,2.21,4.13l1.552,1.035a4.947,4.947,0,0,1,2.21,4.13,4.98,4.98,0,0,0,3.055,4.588Zm0,0" transform="translate(-260.169 -7.999)" fill="#69d6f4"/>
      </g>
      <path id="Trazado_1058104" data-name="Trazado 1058104" d="M376.191,160.915a6.871,6.871,0,0,1,2.737,5.245l.01.01A14.891,14.891,0,0,1,368,170.948v-.189a26.963,26.963,0,0,1,1.045-7.445,4.485,4.485,0,0,1,1.643-2.389,4.573,4.573,0,0,1,5.5-.01Zm0,0" transform="translate(-322.217 -140.094)" fill="#b4dd7f"/>
      <path id="Trazado_1058105" data-name="Trazado 1058105" d="M382.929,22.929a14.812,14.812,0,0,1-.428,3.543h-.01l-5.464-2.27a4.979,4.979,0,0,1-3.055-4.588,4.947,4.947,0,0,0-2.21-4.13l-1.552-1.035a4.947,4.947,0,0,1-2.21-4.13V8a14.935,14.935,0,0,1,14.929,14.929Zm0,0" transform="translate(-322.217 -7.005)" fill="#b4dd7f"/>
      <path id="Trazado_1058106" data-name="Trazado 1058106" d="M258.948,40.188V43.4a3.953,3.953,0,0,1-1.364,2.976l-.01.01a14.921,14.921,0,0,1-.836-27.51,10.693,10.693,0,0,1,2.21,6.489,3.124,3.124,0,0,1-1.961,2.9,4.807,4.807,0,0,0-.687,8.58l1.135.676a3.108,3.108,0,0,1,1.513,2.668Zm0,0" transform="translate(-217.146 -16.53)" fill="#b4dd7f"/>
      <path id="Trazado_1058107" data-name="Trazado 1058107" d="M58.722,37.821H48.769V31.559A15.92,15.92,0,0,0,45.783,0H12.939V5.972H2.986A2.99,2.99,0,0,0,0,8.958V22.892a2.99,2.99,0,0,0,2.986,2.986H8.958v1.991H6.967v1.991H20.9V27.868H18.911V25.878h5.972a2.99,2.99,0,0,0,2.986-2.986V8.958a2.99,2.99,0,0,0-2.986-2.986H14.929V1.991H38.091a15.919,15.919,0,0,0,7.693,29.859c.336,0,.665-.03,1-.051v6.022H36.826a2.99,2.99,0,0,0-2.986,2.986V54.741a2.99,2.99,0,0,0,2.986,2.986H42.8v1.991H40.807v1.991H54.741V59.718H52.75V57.727h5.972a2.99,2.99,0,0,0,2.986-2.986V40.807a2.99,2.99,0,0,0-2.986-2.986Zm-41.8-9.953H10.948V25.878H16.92Zm7.962-3.981H2.986a1,1,0,0,1-1-1v-1H25.878v1A1,1,0,0,1,24.882,23.887Zm1-14.929V19.906H1.991V8.958a1,1,0,0,1,1-1h21.9A1,1,0,0,1,25.878,8.958ZM40.8,20.136l-1.133-.68a3.808,3.808,0,0,1,.544-6.8A4.089,4.089,0,0,0,42.8,8.84a11.707,11.707,0,0,0-1.7-6.022,13.835,13.835,0,0,1,3.688-.777V3.313a5.952,5.952,0,0,0,2.655,4.962l1.547,1.03a3.968,3.968,0,0,1,1.769,3.307,5.946,5.946,0,0,0,3.671,5.505l4.661,1.942a13.9,13.9,0,0,1-1.809,3.722,7.835,7.835,0,0,0-2.714-3.756,5.571,5.571,0,0,0-8.7,2.927,28.05,28.05,0,0,0-1.051,6.859,13.793,13.793,0,0,1-2.7-.456,4.919,4.919,0,0,0,.677-2.481V23.659A4.133,4.133,0,0,0,40.8,20.136Zm6.005,9.672a26.129,26.129,0,0,1,.974-6.31,3.581,3.581,0,0,1,5.591-1.881,5.863,5.863,0,0,1,2.31,4.1,13.889,13.889,0,0,1-8.875,4.092ZM59.718,15.925a13.948,13.948,0,0,1-.185,2.162L55.2,16.28a3.963,3.963,0,0,1-2.445-3.668A5.952,5.952,0,0,0,50.1,7.65L48.548,6.619a3.965,3.965,0,0,1-1.769-3.306V2.041A13.942,13.942,0,0,1,59.718,15.925Zm-27.868,0A13.945,13.945,0,0,1,39.265,3.618,9.721,9.721,0,0,1,40.807,8.84a2.107,2.107,0,0,1-1.332,1.967,5.773,5.773,0,0,0-3.645,5.385,5.831,5.831,0,0,0,2.816,4.973l1.132.679a2.128,2.128,0,0,1,1.028,1.816v3.214a2.9,2.9,0,0,1-.626,1.8,13.947,13.947,0,0,1-8.332-12.749Zm4.976,23.887h21.9a1,1,0,0,1,1,1V51.755H35.831V40.807A1,1,0,0,1,36.826,39.812ZM50.76,59.718H44.788V57.727H50.76Zm7.962-3.981h-21.9a1,1,0,0,1-1-1v-1H59.718v1A1,1,0,0,1,58.722,55.736Zm0,0"/>
      <path id="Trazado_1058108" data-name="Trazado 1058108" d="M149.972,306.986a2.986,2.986,0,1,0-2.986,2.986A2.99,2.99,0,0,0,149.972,306.986Zm-3.981,0a1,1,0,1,1,1,1A1,1,0,0,1,145.991,306.986Zm0,0" transform="translate(-126.085 -266.179)"/>
      <path id="Trazado_1058109" data-name="Trazado 1058109" d="M114.04,288.406a6.967,6.967,0,1,0,9.854,9.852l-1.407-1.407a4.977,4.977,0,0,1-7.039-7.037Zm0,0" transform="translate(-98.066 -252.525)"/>
      <path id="Trazado_1058110" data-name="Trazado 1058110" d="M84.652,279.845a8.969,8.969,0,0,1,0-12.669l-1.407-1.407a10.948,10.948,0,0,0,15.482,15.483l-1.407-1.407a8.967,8.967,0,0,1-12.668,0Zm0,0" transform="translate(-70.085 -232.705)"/>
    </g>
  </g>
</svg>
