<svg xmlns="http://www.w3.org/2000/svg" xmlns:xlink="http://www.w3.org/1999/xlink" width="113" height="113" viewBox="0 0 113 113">
  <defs>
    <filter id="Trazado_982547" x="0" y="0" width="113" height="113" filterUnits="userSpaceOnUse">
      <feOffset dy="3" input="SourceAlpha"/>
      <feGaussianBlur stdDeviation="3" result="blur"/>
      <feFlood flood-opacity="0.161"/>
      <feComposite operator="in" in2="blur"/>
      <feComposite in="SourceGraphic"/>
    </filter>
  </defs>
  <g id="Grupo_1226636" data-name="Grupo 1226636" transform="translate(-1674.853 -8016.473)">
    <g id="Grupo_1226379" data-name="Grupo 1226379" transform="translate(1683.853 8022.473)">
      <g id="Grupo_1211217" data-name="Grupo 1211217" transform="translate(0)">
        <g id="Grupo_1210736" data-name="Grupo 1210736">
          <g id="Grupo_1210537" data-name="Grupo 1210537">
            <g id="Grupo_1164202" data-name="Grupo 1164202">
              <g id="Grupo_1158168" data-name="Grupo 1158168">
                <g id="Grupo_1152576" data-name="Grupo 1152576">
                  <g id="Grupo_1148633" data-name="Grupo 1148633">
                    <g id="Grupo_1148525" data-name="Grupo 1148525">
                      <g transform="matrix(1, 0, 0, 1, -9, -6)" filter="url(#Trazado_982547)">
                        <g id="Trazado_982547-2" data-name="Trazado 982547" transform="translate(9 6)" fill="#fdf6e4">
                          <path d="M 47.5 93.5 C 41.28937149047852 93.5 35.26533508300781 92.28397369384766 29.59518623352051 89.88570404052734 C 24.11771965026855 87.56893157958984 19.19813346862793 84.25196075439453 14.97309303283691 80.02691650390625 C 10.74804019927979 75.80186462402344 7.431066513061523 70.88229370117188 5.114293098449707 65.40481567382812 C 2.716026782989502 59.73468017578125 1.5 53.71062850952148 1.5 47.5 C 1.5 41.28937149047852 2.716026782989502 35.26533508300781 5.114293098449707 29.59518623352051 C 7.431066513061523 24.11771965026855 10.74804019927979 19.19813346862793 14.97309303283691 14.97309303283691 C 19.19813346862793 10.74804019927979 24.11771965026855 7.431066513061523 29.59518623352051 5.114293098449707 C 35.26533508300781 2.716026782989502 41.28937149047852 1.5 47.5 1.5 C 53.71062850952148 1.5 59.73468017578125 2.716026782989502 65.40481567382812 5.114293098449707 C 70.88229370117188 7.431066513061523 75.80186462402344 10.74804019927979 80.02691650390625 14.97309303283691 C 84.25196075439453 19.19813346862793 87.56893157958984 24.11771965026855 89.88570404052734 29.59518623352051 C 92.28397369384766 35.26533508300781 93.5 41.28937149047852 93.5 47.5 C 93.5 53.71062850952148 92.28397369384766 59.73468017578125 89.88570404052734 65.40481567382812 C 87.56893157958984 70.88229370117188 84.25196075439453 75.80186462402344 80.02691650390625 80.02691650390625 C 75.80186462402344 84.25196075439453 70.88229370117188 87.56893157958984 65.40481567382812 89.88570404052734 C 59.73468017578125 92.28397369384766 53.71062850952148 93.5 47.5 93.5 Z" stroke="none"/>
                          <path d="M 47.5 3 C 41.49121475219727 3 35.66376876831055 4.176155090332031 30.17950439453125 6.495796203613281 C 24.88084411621094 8.736953735351562 20.12152099609375 11.94598388671875 16.03375244140625 16.03375244140625 C 11.94598388671875 20.12152099609375 8.736953735351562 24.88084411621094 6.495796203613281 30.17950439453125 C 4.176155090332031 35.66376876831055 3 41.49121475219727 3 47.5 C 3 53.50878524780273 4.176155090332031 59.33623123168945 6.495796203613281 64.82049560546875 C 8.736953735351562 70.11915588378906 11.94598388671875 74.87847900390625 16.03375244140625 78.96624755859375 C 20.12152099609375 83.05401611328125 24.88084411621094 86.26304626464844 30.17950439453125 88.50419616699219 C 35.66376876831055 90.82384490966797 41.49121475219727 92 47.5 92 C 53.50878524780273 92 59.33623123168945 90.82384490966797 64.82049560546875 88.50419616699219 C 70.11915588378906 86.26304626464844 74.87847900390625 83.05401611328125 78.96624755859375 78.96624755859375 C 83.05401611328125 74.87847900390625 86.26304626464844 70.11915588378906 88.50419616699219 64.82049560546875 C 90.82384490966797 59.33623123168945 92 53.50878524780273 92 47.5 C 92 41.49121475219727 90.82384490966797 35.66376876831055 88.50419616699219 30.17950439453125 C 86.26304626464844 24.88084411621094 83.05401611328125 20.12152099609375 78.96624755859375 16.03375244140625 C 74.87847900390625 11.94598388671875 70.11915588378906 8.736953735351562 64.82049560546875 6.495796203613281 C 59.33623123168945 4.176155090332031 53.50878524780273 3 47.5 3 M 47.5 0 C 73.7335205078125 0 95 21.2664794921875 95 47.5 C 95 73.7335205078125 73.7335205078125 95 47.5 95 C 21.2664794921875 95 0 73.7335205078125 0 47.5 C 0 21.2664794921875 21.2664794921875 0 47.5 0 Z" stroke="none" fill="#f5b104"/>
                        </g>
                      </g>
                    </g>
                  </g>
                </g>
              </g>
            </g>
          </g>
        </g>
      </g>
    </g>
    <g id="internet-de-las-cosas" transform="translate(1684.813 8035.73)">
      <g id="Grupo_1226634" data-name="Grupo 1226634" transform="translate(17.313 6.775)">
        <path id="Trazado_1058138" data-name="Trazado 1058138" d="M412.413,375.988l.952,3.535h-4.9l.952-3.535Z" transform="translate(-358.849 -332.472)" fill="#7a6d79"/>
        <circle id="Elipse_13529" data-name="Elipse 13529" cx="10.032" cy="10.032" r="10.032" transform="translate(19.033 17.418)" fill="#f2fbff"/>
        <path id="Trazado_1058139" data-name="Trazado 1058139" d="M212.485,50.964l1.762-.306h8.662a.725.725,0,0,1,.725.725v8.248a.725.725,0,0,1-.725.725h-8.662l-1.644-.237a.725.725,0,0,1-.725-.725l-.119-7.7A.725.725,0,0,1,212.485,50.964Z" transform="translate(-188.451 -50.657)" fill="#918291"/>
        <path id="Trazado_1058140" data-name="Trazado 1058140" d="M211.9,50.653v9.7h-2.125a.726.726,0,0,1-.725-.725V51.379a.726.726,0,0,1,.725-.726Z" transform="translate(-186.1 -50.653)" fill="#7a6d79"/>
        <path id="Trazado_1058141" data-name="Trazado 1058141" d="M225.477,382.391a6.03,6.03,0,0,1-1.894,4.4,4.23,4.23,0,0,0-.927,1.279s-1.282,1.083-1.282,1.668v.068h-4.305v-.068a4.094,4.094,0,0,0-1.183-2.988,5.8,5.8,0,0,1-1.914-4.649c.135-2.838,2.039-4.44,4.407-5.665a6.052,6.052,0,0,1,7.1,5.961Z" transform="translate(-190.36 -332.776)" fill="#ffe177"/>
        <path id="Trazado_1058142" data-name="Trazado 1058142" d="M218.835,388.655a3.926,3.926,0,0,0-.374,1.668v.068l-2.858.884-2.853-.884v-.068a3.922,3.922,0,0,0-1.24-2.889,6.05,6.05,0,0,1,3.048-10.413,7.67,7.67,0,0,0,4.277,11.634Z" transform="translate(-186.539 -333.367)" fill="#fece85"/>
        <g id="Grupo_1226633" data-name="Grupo 1226633" transform="translate(0.907 31.94)">
          <path id="Trazado_1058143" data-name="Trazado 1058143" d="M239.157,476.983v.825a2.856,2.856,0,0,1-2.96,2.853,2.9,2.9,0,0,1-2.751-2.921v-.757Z" transform="translate(-208.143 -451.898)" fill="#f2fbff"/>
          <path id="Trazado_1058144" data-name="Trazado 1058144" d="M53.362,305.415H45.614a1.338,1.338,0,0,1-1.338-1.338v-13.3a1.338,1.338,0,0,1,1.338-1.338h7.748a1.338,1.338,0,0,1,1.338,1.338v13.3A1.338,1.338,0,0,1,53.362,305.415Z" transform="translate(-44.276 -289.443)" fill="#f2fbff"/>
          <path id="Trazado_1058145" data-name="Trazado 1058145" d="M371.13,295.878h13.593a.68.68,0,0,1,.68.68v9.316a.68.68,0,0,1-.68.68H371.13a.68.68,0,0,1-.68-.68v-9.316A.68.68,0,0,1,371.13,295.878Z" transform="translate(-326.822 -295.017)" fill="#f2fbff"/>
        </g>
        <path id="Trazado_1058146" data-name="Trazado 1058146" d="M385.4,303.092v2.778a.681.681,0,0,1-.681.68H371.127a.681.681,0,0,1-.681-.68v-9.316a.681.681,0,0,1,.681-.681H373.9v6.539a.681.681,0,0,0,.681.679Z" transform="translate(-325.911 -263.073)" fill="#dfeef4"/>
        <path id="Trazado_1058147" data-name="Trazado 1058147" d="M378.03,131.912a4.843,4.843,0,0,0,4.858-4.843,4.765,4.765,0,0,0-4.557-4.682.272.272,0,0,1-.234-.154,4.574,4.574,0,0,0-1.412-1.687,13.73,13.73,0,0,0-2.653-.437,3.968,3.968,0,0,0-4.154,4.147,3.683,3.683,0,0,0-3.575,3.758,3.841,3.841,0,0,0,4.029,3.677l4.107.221h3.593Z" transform="translate(-322.321 -110.819)" fill="#a6e7f0"/>
        <path id="Trazado_1058148" data-name="Trazado 1058148" d="M367.736,125.194a3.982,3.982,0,0,0,3.982,3.9h-5.35a3.982,3.982,0,0,1-3.982-3.9,3.9,3.9,0,0,1,3.686-3.89l.891-.969-.378-1.036a4.543,4.543,0,0,1,6.707-1.574,4.534,4.534,0,0,0-1.842,3.167.528.528,0,0,1-.443.456A3.9,3.9,0,0,0,367.736,125.194Z" transform="translate(-318.93 -107.998)" fill="#6bd9e7"/>
        <path id="Trazado_1058149" data-name="Trazado 1058149" d="M51.9,113.084v8.837a.725.725,0,0,1-.725.725H42.6l-1.883-.472a.725.725,0,0,1-.725-.725l.045-8.677,5.744-4.719Z" transform="translate(-39.661 -100.375)" fill="#ffe177"/>
        <path id="Trazado_1058150" data-name="Trazado 1058150" d="M40.439,136.653V147.42H38.221a.725.725,0,0,1-.725-.725v-7.688Z" transform="translate(-37.496 -125.15)" fill="#fece85"/>
        <path id="Trazado_1058151" data-name="Trazado 1058151" d="M72.615,152.7a1.94,1.94,0,0,1-2.02,1.7,1.739,1.739,0,0,1-1.859-1.7,1.939,1.939,0,0,1,3.879,0Z" transform="translate(-64.557 -137.373)" fill="#fece85"/>
      </g>
      <g id="Grupo_1226635" data-name="Grupo 1226635" transform="translate(14.197 0)">
        <path id="Trazado_1058152" data-name="Trazado 1058152" d="M216.687,221.481a1,1,0,0,0,.567-1.83,10.864,10.864,0,0,0-12.663-.012,1,1,0,1,0,1.139,1.652,8.858,8.858,0,0,1,10.368,0A1.008,1.008,0,0,0,216.687,221.481Z" transform="translate(-178.733 -188.502)"/>
        <path id="Trazado_1058153" data-name="Trazado 1058153" d="M228.843,249.15a1,1,0,0,0,.589-1.816,7.067,7.067,0,0,0-8.281,0,1,1,0,0,0,1.177,1.625,5.061,5.061,0,0,1,5.928,0A1,1,0,0,0,228.843,249.15Z" transform="translate(-193.11 -213.09)"/>
        <path id="Trazado_1058154" data-name="Trazado 1058154" d="M239.653,274.394a3.272,3.272,0,0,0-1.92.618,1,1,0,0,0,1.171,1.63,1.283,1.283,0,0,1,1.5,0,1,1,0,1,0,1.17-1.63A3.271,3.271,0,0,0,239.653,274.394Z" transform="translate(-207.471 -237.692)"/>
        <path id="Trazado_1058155" data-name="Trazado 1058155" d="M241.251,74.135a1,1,0,0,0,1-1V71.476h.085a1,1,0,1,0,0-2.006h-2.176a1,1,0,1,0,0,2.006h.085v1.656A1,1,0,0,0,241.251,74.135Z" transform="translate(-209.07 -60.178)"/>
        <path id="Trazado_1058156" data-name="Trazado 1058156" d="M76.122,38.573H62.528a1.685,1.685,0,0,0-1.683,1.683v1.885H57.852L55.566,40.32a10.92,10.92,0,0,0,1.818-5.277,1,1,0,0,0-2-.147,9.023,9.023,0,1,1-.679-4.171,1,1,0,1,0,1.849-.778,11.11,11.11,0,0,0-.976-1.823l2.275-1.812h2.511a4.906,4.906,0,0,0,4.306,2.561h8.447a5.768,5.768,0,0,0,.674-11.5A5.547,5.547,0,0,0,63.539,19.2a4.9,4.9,0,0,0-3.773,4.766c0,.113.005.224.013.335H57.5a1,1,0,0,0-.625.219l-2.554,2.035a11.009,11.009,0,0,0-6.942-3.321v-5.76h4.393A1.73,1.73,0,0,0,53.5,15.749V7.5a1.73,1.73,0,0,0-1.728-1.728h-.119v-.5a5.275,5.275,0,1,0-10.55,0v.5h-.119A1.73,1.73,0,0,0,39.257,7.5V9.422a1,1,0,0,0,2.006,0V7.779H51.494V15.47H41.263V14.1a1,1,0,0,0-2.006,0v1.645a1.73,1.73,0,0,0,1.728,1.728h4.388v5.761a11.006,11.006,0,0,0-6.929,3.329l-2.568-2.045a1,1,0,0,0-.625-.218h-4.7V21.435l.483.386a1,1,0,0,0,1.253-1.567l-8.217-6.574a1.013,1.013,0,0,0-1.283,0l-8.217,6.574a1,1,0,1,0,1.253,1.567l.483-.386v6.886a1.73,1.73,0,0,0,1.728,1.728H28.826a1.73,1.73,0,0,0,1.728-1.728V26.31H34.9l2.285,1.82a11.005,11.005,0,0,0,0,12.191L34.9,42.141H29.647V40.053a2.343,2.343,0,0,0-2.341-2.341H19.558a2.343,2.343,0,0,0-2.341,2.341v13.3a2.343,2.343,0,0,0,2.341,2.341h7.748a2.343,2.343,0,0,0,2.341-2.341V51.422a1,1,0,0,0-2.006,0V53.35a.335.335,0,0,1-.334.334H19.558a.335.335,0,0,1-.334-.334v-13.3a.335.335,0,0,1,.334-.334h7.748a.335.335,0,0,1,.334.334v6.688a1,1,0,1,0,2.006,0V44.147h5.6a1,1,0,0,0,.625-.218l2.568-2.045a11.006,11.006,0,0,0,6.928,3.329v4.2A7.053,7.053,0,0,0,41.6,61.581a2.918,2.918,0,0,1,.917,2.15v.825a3.927,3.927,0,0,0,3.719,3.925A4.007,4.007,0,0,0,49.058,67.4a3.827,3.827,0,0,0,1.179-2.777v-.894a3.041,3.041,0,0,1,.988-2.217,6.988,6.988,0,0,0,2.208-5.125,7.128,7.128,0,0,0-.059-.912,1,1,0,0,0-1.99.257,5.134,5.134,0,0,1,.042.655,5,5,0,0,1-1.58,3.667,5.163,5.163,0,0,0-1.522,2.74H44.438A4.877,4.877,0,0,0,42.962,60.1a5.048,5.048,0,0,1,6.451-7.75,1,1,0,1,0,1.207-1.6,7.061,7.061,0,0,0-3.241-1.344v-4.2a11.048,11.048,0,0,0,6.926-3.332l2.57,2.048a1,1,0,0,0,.625.219h3.344v5.425a1.685,1.685,0,0,0,1.683,1.683h4.059l-.422,1.569h-.648a1,1,0,1,0,0,2.006h7.615a1,1,0,1,0,0-2.006H72.6l-.422-1.569h3.946A1.685,1.685,0,0,0,77.8,49.572V40.256a1.685,1.685,0,0,0-1.683-1.683ZM64.51,21.083A3,3,0,0,1,67.3,22.76a1,1,0,0,0,1.822-.84,4.919,4.919,0,0,0-3.512-2.758,3.539,3.539,0,0,1,6.631-.417,1,1,0,0,0,.908.6,3.762,3.762,0,0,1-.034,7.523H64.668a2.893,2.893,0,0,1-.158-5.782ZM43.11,5.275a3.269,3.269,0,1,1,6.537,0v.5H43.11ZM18.316,28.043V19.83l5.116-4.093,5.116,4.093v8.213ZM46.31,66.476A1.894,1.894,0,0,1,44.544,64.8h3.678a1.852,1.852,0,0,1-1.912,1.673ZM70.52,52.823H68.243l.422-1.569H70.1ZM75.8,49.249H62.852V40.579H75.8Z" transform="translate(-14.197 0)"/>
        <path id="Trazado_1058157" data-name="Trazado 1058157" d="M65.735,145.053a2.7,2.7,0,0,0-.935,5.236v.9a1,1,0,0,0,2.006,0v-.956a2.7,2.7,0,0,0-1.071-5.183Zm0,2.006a.7.7,0,1,1-.7.7A.7.7,0,0,1,65.735,147.059Z" transform="translate(-56.5 -125.651)"/>
        <path id="Trazado_1058158" data-name="Trazado 1058158" d="M75.779,306.943a1,1,0,0,0,0,2.006h.268a1,1,0,0,0,0-2.006Z" transform="translate(-66.673 -265.887)"/>
      </g>
    </g>
  </g>
</svg>
