<svg xmlns="http://www.w3.org/2000/svg" xmlns:xlink="http://www.w3.org/1999/xlink" width="113" height="113" viewBox="0 0 113 113">
  <defs>
    <filter id="Trazado_982547" x="0" y="0" width="113" height="113" filterUnits="userSpaceOnUse">
      <feOffset dy="3" input="SourceAlpha"/>
      <feGaussianBlur stdDeviation="3" result="blur"/>
      <feFlood flood-opacity="0.161"/>
      <feComposite operator="in" in2="blur"/>
      <feComposite in="SourceGraphic"/>
    </filter>
  </defs>
  <g id="Grupo_1226583" data-name="Grupo 1226583" transform="translate(-270.884 -3537.324)">
    <g id="Grupo_1226282" data-name="Grupo 1226282" transform="translate(-0.429 -6427.152)">
      <g id="Grupo_1225528" data-name="Grupo 1225528" transform="translate(0.313 8669.134)">
        <g id="Grupo_1225173" data-name="Grupo 1225173" transform="translate(0 -3445.654)">
          <g id="Grupo_1224643" data-name="Grupo 1224643" transform="translate(0 1927)">
            <g id="Grupo_1224291" data-name="Grupo 1224291" transform="translate(0 859.245)">
              <g id="Grupo_1224091" data-name="Grupo 1224091" transform="translate(-84.49 -2620.317)">
                <g id="Grupo_1223183" data-name="Grupo 1223183" transform="translate(364.49 4581.069)">
                  <g id="Grupo_1211217" data-name="Grupo 1211217" transform="translate(0)">
                    <g id="Grupo_1210736" data-name="Grupo 1210736">
                      <g id="Grupo_1210537" data-name="Grupo 1210537">
                        <g id="Grupo_1164202" data-name="Grupo 1164202">
                          <g id="Grupo_1158168" data-name="Grupo 1158168">
                            <g id="Grupo_1152576" data-name="Grupo 1152576">
                              <g id="Grupo_1148633" data-name="Grupo 1148633">
                                <g id="Grupo_1148525" data-name="Grupo 1148525">
                                  <g transform="matrix(1, 0, 0, 1, -9, -6)" filter="url(#Trazado_982547)">
                                    <g id="Trazado_982547-2" data-name="Trazado 982547" transform="translate(9 6)" fill="#fdf6e4">
                                      <path d="M 47.49999618530273 93.5 C 41.28936767578125 93.5 35.26533126831055 92.28396606445312 29.59518241882324 89.88570404052734 C 24.11771583557129 87.56893157958984 19.19812965393066 84.251953125 14.97308921813965 80.02690124511719 C 10.74803638458252 75.80186462402344 7.431062698364258 70.88227844238281 5.114289283752441 65.40480804443359 C 2.716022968292236 59.73466110229492 1.499996185302734 53.71062469482422 1.499996185302734 47.49999618530273 C 1.499996185302734 41.28936767578125 2.716022968292236 35.26533126831055 5.114289283752441 29.59518241882324 C 7.431062698364258 24.11771583557129 10.74803638458252 19.19812965393066 14.97308921813965 14.97308921813965 C 19.19812965393066 10.74803638458252 24.11771583557129 7.431062698364258 29.59518241882324 5.114289283752441 C 35.26533126831055 2.716022968292236 41.28936767578125 1.499996185302734 47.49999618530273 1.499996185302734 C 53.71062469482422 1.499996185302734 59.73466110229492 2.716022968292236 65.40480804443359 5.114289283752441 C 70.88227844238281 7.431062698364258 75.80186462402344 10.74803638458252 80.02690124511719 14.97308921813965 C 84.251953125 19.19812965393066 87.56893157958984 24.11771583557129 89.88570404052734 29.59518241882324 C 92.28396606445312 35.26533126831055 93.5 41.28936767578125 93.5 47.49999618530273 C 93.5 53.71062469482422 92.28396606445312 59.73466110229492 89.88570404052734 65.40480804443359 C 87.56893157958984 70.88227844238281 84.251953125 75.80186462402344 80.02690124511719 80.02690124511719 C 75.80186462402344 84.251953125 70.88227844238281 87.56893157958984 65.40480804443359 89.88570404052734 C 59.73466110229492 92.28396606445312 53.71062469482422 93.5 47.49999618530273 93.5 Z" stroke="none"/>
                                      <path d="M 47.49999618530273 2.999992370605469 C 41.4912109375 2.999992370605469 35.66376495361328 4.1761474609375 30.17950439453125 6.495796203613281 C 24.88084411621094 8.736953735351562 20.12152099609375 11.94598388671875 16.03375244140625 16.03375244140625 C 11.94598388671875 20.12152099609375 8.736953735351562 24.88084411621094 6.495796203613281 30.17950439453125 C 4.1761474609375 35.66376495361328 2.999992370605469 41.4912109375 2.999992370605469 47.49999618530273 C 2.999992370605469 53.50878143310547 4.1761474609375 59.33622741699219 6.495796203613281 64.82048797607422 C 8.736953735351562 70.11914825439453 11.94598388671875 74.87847137451172 16.03375244140625 78.96623992919922 C 20.12152099609375 83.05400848388672 24.88084411621094 86.26304626464844 30.17950439453125 88.50419616699219 C 35.66376495361328 90.82384490966797 41.4912109375 92 47.49999618530273 92 C 53.50878143310547 92 59.33622741699219 90.82384490966797 64.82048797607422 88.50419616699219 C 70.11914825439453 86.26304626464844 74.87847137451172 83.05400848388672 78.96623992919922 78.96623992919922 C 83.05400848388672 74.87847137451172 86.26304626464844 70.11914825439453 88.50419616699219 64.82048797607422 C 90.82384490966797 59.33622741699219 92 53.50878143310547 92 47.49999618530273 C 92 41.4912109375 90.82384490966797 35.66376495361328 88.50419616699219 30.17950439453125 C 86.26304626464844 24.88084411621094 83.05400848388672 20.12152099609375 78.96623992919922 16.03375244140625 C 74.87847137451172 11.94598388671875 70.11914825439453 8.736953735351562 64.82048797607422 6.495796203613281 C 59.33622741699219 4.1761474609375 53.50878143310547 2.999992370605469 47.49999618530273 2.999992370605469 M 47.49999618530273 -7.62939453125e-06 C 73.7335205078125 -7.62939453125e-06 95 21.26647186279297 95 47.49999618530273 C 95 73.7335205078125 73.7335205078125 95 47.49999618530273 95 C 21.26647186279297 95 -7.62939453125e-06 73.7335205078125 -7.62939453125e-06 47.49999618530273 C -7.62939453125e-06 21.26647186279297 21.26647186279297 -7.62939453125e-06 47.49999618530273 -7.62939453125e-06 Z" stroke="none" fill="#f5b104"/>
                                    </g>
                                  </g>
                                </g>
                              </g>
                            </g>
                          </g>
                        </g>
                      </g>
                    </g>
                  </g>
                </g>
              </g>
            </g>
          </g>
        </g>
      </g>
    </g>
    <g id="pruebas_2_" data-name="pruebas (2)" transform="translate(290.209 3505.81)">
      <path id="Trazado_1058027" data-name="Trazado 1058027" d="M133.017,129.724V128.68l.228-.044a.647.647,0,0,0,.528-.637v-2.263l.187-.054a11.918,11.918,0,0,0,2.388-.99l.17-.093,1.6,1.6a.648.648,0,0,0,.828.074,14.675,14.675,0,0,0,3.685-3.685.648.648,0,0,0-.073-.828l-1.6-1.6.094-.17a11.678,11.678,0,0,0,.989-2.386l.054-.187h2.261a.648.648,0,0,0,.638-.532,14.618,14.618,0,0,0,0-5.216.648.648,0,0,0-.638-.532H142.1l-.054-.187a11.823,11.823,0,0,0-.989-2.385l-.094-.171,1.6-1.6a.648.648,0,0,0,.074-.828,14.635,14.635,0,0,0-3.685-3.689.648.648,0,0,0-.828.074l-1.6,1.6-.17-.094a11.914,11.914,0,0,0-2.388-.989l-.187-.054V100.55a.648.648,0,0,0-.532-.638l-.225-.043V98.322H177.1v31.4Zm19.025-14.252a.649.649,0,0,0-.648.648v10.351a.649.649,0,0,0,.648.648h10.351a.649.649,0,0,0,.648-.648V116.12a.649.649,0,0,0-.648-.648Zm22.97,5.329v-1.3h-9.458v1.3Zm0-4.033v-1.3h-9.458v1.3Zm-22.97-15.842a.649.649,0,0,0-.648.648v10.355a.649.649,0,0,0,.648.648h10.351a.649.649,0,0,0,.648-.648V101.575a.649.649,0,0,0-.648-.648Zm22.97,5.329v-1.3h-9.458v1.3Zm0-4.033v-1.3h-9.458v1.3Z" transform="translate(-115.778 -33.74)" fill="#e9e9ff"/>
      <path id="Trazado_1058028" data-name="Trazado 1058028" d="M271.007,377.421h8.32V379.9h-8.32Z" transform="translate(-235.888 -276.674)" fill="#445ea0"/>
      <path id="Trazado_1058029" data-name="Trazado 1058029" d="M108.053,109.9a1.8,1.8,0,0,1-1.795-1.795V105.54l.274.015c.281.016.554.024.812.024s.532-.008.812-.024l.274-.015v1.539a.649.649,0,0,0,.648.648h45.381a.649.649,0,0,0,.648-.648v-32.7a.649.649,0,0,0-.648-.648H109.077a.649.649,0,0,0-.648.648v2.043l-.273-.015c-.27-.015-.544-.022-.815-.022s-.542.008-.81.022l-.273.015V73.357a1.8,1.8,0,0,1,1.795-1.795h47.431a1.8,1.8,0,0,1,1.795,1.795V108.1a1.8,1.8,0,0,1-1.795,1.795Z" transform="translate(-92.487 -10.448)" fill="#445ea0"/>
      <path id="Trazado_1058030" data-name="Trazado 1058030" d="M211.763,410.927v-2.195a2.2,2.2,0,0,1,2.2-2.2h19.28a2.2,2.2,0,0,1,2.2,2.2v2.195Z" transform="translate(-184.32 -302.014)" fill="#293d7c"/>
      <path id="Trazado_1058031" data-name="Trazado 1058031" d="M67.2,181.068a7.06,7.06,0,1,1,7.058-7.058A7.068,7.068,0,0,1,67.2,181.068Zm-.438-2.922,2.124-7.937-1.252-.335-2.124,7.937Zm-5.42-4.591a.648.648,0,0,0,0,.917l2.619,2.614.916-.917-2.159-2.156,2.159-2.16-.917-.917Zm9.1,3.523,2.614-2.618a.649.649,0,0,0,0-.916L70.44,170.93l-.917.917L71.679,174l-2.156,2.16Z" transform="translate(-52.343 -93.474)" fill="#e9e9ff"/>
      <path id="Trazado_1058032" data-name="Trazado 1058032" d="M25.3,145.388a13.382,13.382,0,0,1-1.616-.1l-.228-.028v-2.219a.645.645,0,0,0-.5-.632,10.6,10.6,0,0,1-3.289-1.364.648.648,0,0,0-.8.09l-1.569,1.569-.181-.141a13.352,13.352,0,0,1-2.287-2.285l-.141-.181,1.569-1.572a.645.645,0,0,0,.089-.8,10.537,10.537,0,0,1-1.363-3.288.645.645,0,0,0-.632-.5H12.129L12.1,133.7a13.717,13.717,0,0,1,0-3.232l.027-.228h2.219a.645.645,0,0,0,.632-.5,10.6,10.6,0,0,1,1.364-3.289.645.645,0,0,0-.091-.8l-1.569-1.569.141-.181a13.308,13.308,0,0,1,2.288-2.288l.181-.141,1.569,1.569a.648.648,0,0,0,.8.09,10.593,10.593,0,0,1,3.289-1.364.645.645,0,0,0,.5-.632v-2.219l.228-.028a13.384,13.384,0,0,1,3.233,0l.228.028v2.219a.645.645,0,0,0,.5.632,10.605,10.605,0,0,1,3.292,1.364.648.648,0,0,0,.8-.09l1.568-1.568.181.142A13.358,13.358,0,0,1,35.78,123.9l.141.181-1.569,1.569a.644.644,0,0,0-.09.8,10.509,10.509,0,0,1,1.363,3.287.645.645,0,0,0,.632.5h2.219l.028.228a13.33,13.33,0,0,1,0,3.233l-.028.228H36.258a.645.645,0,0,0-.632.506,10.367,10.367,0,0,1-1.362,3.285.645.645,0,0,0,.089.8l1.569,1.572-.141.181a13.392,13.392,0,0,1-2.284,2.284l-.181.142-1.568-1.568a.648.648,0,0,0-.8-.09,10.606,10.606,0,0,1-3.292,1.364.645.645,0,0,0-.5.632v2.219l-.228.028a13.34,13.34,0,0,1-1.617.1Zm0-21.656a8.356,8.356,0,1,0,8.354,8.358,8.367,8.367,0,0,0-8.354-8.358Z" transform="translate(-10.448 -51.553)" fill="#0cb4fb"/>
      <path id="Trazado_1058033" data-name="Trazado 1058033" d="M284.84,137.484v-9.058h9.055v9.058Zm2.847-2.068a.646.646,0,0,0,.492.256h.025a.648.648,0,0,0,.485-.218l4.1-4.625-.97-.86L288.242,134l-1.255-1.654-1.033.784Z" transform="translate(-247.928 -59.943)" fill="#43cb8e"/>
      <path id="Trazado_1058034" data-name="Trazado 1058034" d="M284.84,249.732v-9.054h9.055v9.054Zm2.772-1.855,1.756-1.756,1.756,1.756.917-.917-1.756-1.756,1.756-1.756-.917-.917-1.756,1.756-1.756-1.756-.917.917,1.756,1.756-1.756,1.756Z" transform="translate(-247.928 -157.65)" fill="#ed524e"/>
      <path id="Trazado_1058035" data-name="Trazado 1058035" d="M23.47,80.536a8.615,8.615,0,1,0-8.613,8.613A8.625,8.625,0,0,0,23.47,80.536Zm-15.416,0a6.8,6.8,0,1,1,6.8,6.8A6.81,6.81,0,0,1,8.054,80.536ZM59.493,68.742H49.517V66.927h9.976ZM63,59.559H15.566a3.354,3.354,0,0,0-3.35,3.35v3.006l-.016,0a.907.907,0,0,0-.745.893v2.068a12.128,12.128,0,0,0-2.437,1.011L7.557,68.427a.907.907,0,0,0-1.158-.1,14.851,14.851,0,0,0-3.755,3.755.907.907,0,0,0,.1,1.158L4.21,74.7A12.115,12.115,0,0,0,3.2,77.135H1.131a.907.907,0,0,0-.893.745,15.114,15.114,0,0,0,0,5.309.907.907,0,0,0,.893.745H3.2A12.077,12.077,0,0,0,4.21,86.372L2.747,87.837A.907.907,0,0,0,2.645,89,14.887,14.887,0,0,0,6.4,92.746a.907.907,0,0,0,1.158-.1L9.019,91.18a12.128,12.128,0,0,0,2.437,1.011v2.068a.907.907,0,0,0,.745.893l.015,0v2.5a3.354,3.354,0,0,0,3.35,3.35h18v1.958H29.641a3.758,3.758,0,0,0-3.754,3.754v2.843a.907.907,0,0,0,.907.907H51.768a.907.907,0,0,0,.907-.907v-2.843a3.758,3.758,0,0,0-3.754-3.754H44.995v-1.958H63a3.354,3.354,0,0,0,3.35-3.35V62.909A3.354,3.354,0,0,0,63,59.559ZM12.565,90.6a10.333,10.333,0,0,1-3.208-1.331.907.907,0,0,0-1.124.127L6.825,90.807a13.062,13.062,0,0,1-2.243-2.241l1.407-1.41a.908.908,0,0,0,.125-1.125,10.284,10.284,0,0,1-1.33-3.207.907.907,0,0,0-.885-.706H1.911a13.454,13.454,0,0,1,0-3.17H3.9a.907.907,0,0,0,.885-.706,10.334,10.334,0,0,1,1.331-3.208.907.907,0,0,0-.127-1.124L4.582,72.5a13.017,13.017,0,0,1,2.243-2.243l1.406,1.406a.907.907,0,0,0,1.124.127,10.339,10.339,0,0,1,3.208-1.331.907.907,0,0,0,.706-.885v-1.99a13.129,13.129,0,0,1,3.17,0v1.99a.907.907,0,0,0,.706.885,10.348,10.348,0,0,1,3.212,1.331.907.907,0,0,0,1.124-.127l1.406-1.406a13.064,13.064,0,0,1,2.24,2.242l-1.406,1.406a.907.907,0,0,0-.125,1.126,10.251,10.251,0,0,1,1.33,3.206.907.907,0,0,0,.885.706H27.8a13.068,13.068,0,0,1,0,3.17H25.81a.908.908,0,0,0-.885.708,10.11,10.11,0,0,1-1.328,3.2.907.907,0,0,0,.124,1.127l1.407,1.41a13.1,13.1,0,0,1-2.24,2.24L21.482,89.4a.907.907,0,0,0-1.124-.127A10.345,10.345,0,0,1,17.145,90.6a.907.907,0,0,0-.706.884v1.99a13.129,13.129,0,0,1-3.17,0v-1.99a.907.907,0,0,0-.705-.884Zm14.4-2.768L25.5,86.373a11.908,11.908,0,0,0,1.011-2.439H28.58a.907.907,0,0,0,.893-.745,14.88,14.88,0,0,0,0-5.309.907.907,0,0,0-.893-.745H26.512A12.052,12.052,0,0,0,25.5,74.7l1.461-1.461a.907.907,0,0,0,.1-1.158,14.9,14.9,0,0,0-3.75-3.754.907.907,0,0,0-1.159.1L20.7,69.889a12.144,12.144,0,0,0-2.44-1.011V66.81a.907.907,0,0,0-.745-.893l-.012,0V64.841H61.065V95.724H17.5v-.571l.012,0a.907.907,0,0,0,.745-.893V92.19a12.14,12.14,0,0,0,2.44-1.011l1.462,1.462a.907.907,0,0,0,1.159.1,14.932,14.932,0,0,0,3.75-3.75A.907.907,0,0,0,26.963,87.836Zm21.958,16.942a1.942,1.942,0,0,1,1.939,1.939v1.936H27.7v-1.936a1.942,1.942,0,0,1,1.939-1.939h19.28Zm-13.543-1.815v-1.958h7.8v1.958Zm29.153-5.308A1.537,1.537,0,0,1,63,99.192H15.566a1.537,1.537,0,0,1-1.535-1.535v-2.29c.275.015.551.024.826.024s.551-.009.826-.024v1.265a.907.907,0,0,0,.907.907H61.972a.907.907,0,0,0,.907-.907v-32.7a.907.907,0,0,0-.907-.907H16.591a.907.907,0,0,0-.907.907V65.7a15.062,15.062,0,0,0-1.653,0V62.909a1.537,1.537,0,0,1,1.535-1.535H63a1.537,1.537,0,0,1,1.535,1.535V97.656ZM16.86,76.552,14.6,84.989l-1.753-.469,2.258-8.438ZM12.9,82.695l-1.282,1.284-2.8-2.8a.907.907,0,0,1,0-1.284l2.8-2.8L12.9,78.38l-2.159,2.159Zm3.913-4.322L18.1,77.09l2.8,2.8a.907.907,0,0,1,0,1.282l-2.8,2.8-1.284-1.282,2.157-2.16Zm19.45.724H46.615a.907.907,0,0,0,.907-.907V67.835a.907.907,0,0,0-.907-.907H36.264a.907.907,0,0,0-.907.907V78.189A.907.907,0,0,0,36.264,79.1Zm.907-10.355h8.536v8.54H37.171Zm22.322,4.033H49.517V70.96h9.976ZM36.264,93.638H46.615a.907.907,0,0,0,.907-.907V82.38a.907.907,0,0,0-.907-.907H36.264a.907.907,0,0,0-.907.907V92.731A.907.907,0,0,0,36.264,93.638Zm.907-10.351h8.536v8.536H37.171ZM44.478,85.8l-1.756,1.756,1.756,1.756-1.283,1.283-1.756-1.756-1.756,1.756L38.4,89.311l1.756-1.756L38.4,85.8l1.283-1.283,1.756,1.756,1.756-1.756Zm15.015-2.512H49.517V81.473h9.976Zm0,4.033H49.517V85.506h9.976ZM43.867,69.661l1.358,1.2-4.271,4.819a.907.907,0,0,1-.679.305H40.24a.907.907,0,0,1-.688-.358L37.663,73.14l1.445-1.1,1.221,1.609Z"/>
    </g>
  </g>
</svg>
