<svg xmlns="http://www.w3.org/2000/svg" xmlns:xlink="http://www.w3.org/1999/xlink" width="113" height="113" viewBox="0 0 113 113">
  <defs>
    <filter id="Trazado_982547" x="0" y="0" width="113" height="113" filterUnits="userSpaceOnUse">
      <feOffset dy="3" input="SourceAlpha"/>
      <feGaussianBlur stdDeviation="3" result="blur"/>
      <feFlood flood-opacity="0.161"/>
      <feComposite operator="in" in2="blur"/>
      <feComposite in="SourceGraphic"/>
    </filter>
  </defs>
  <g id="Grupo_1226645" data-name="Grupo 1226645" transform="translate(-693.185 -4692.35)">
    <g id="Grupo_1211529" data-name="Grupo 1211529" transform="translate(0.656 3099.504)">
      <g id="Grupo_1211209" data-name="Grupo 1211209" transform="translate(701.529 1598.846)">
        <g id="Grupo_1210737" data-name="Grupo 1210737" transform="translate(0)">
          <g id="Grupo_1210537" data-name="Grupo 1210537">
            <g id="Grupo_1164202" data-name="Grupo 1164202">
              <g id="Grupo_1158168" data-name="Grupo 1158168">
                <g id="Grupo_1152576" data-name="Grupo 1152576">
                  <g id="Grupo_1148633" data-name="Grupo 1148633">
                    <g id="Grupo_1148525" data-name="Grupo 1148525">
                      <g transform="matrix(1, 0, 0, 1, -9, -6)" filter="url(#Trazado_982547)">
                        <g id="Trazado_982547-2" data-name="Trazado 982547" transform="translate(9 6)" fill="#fdf6e4">
                          <path d="M 47.5 93.5 C 41.28937149047852 93.5 35.26533508300781 92.28397369384766 29.59518623352051 89.88570404052734 C 24.11771965026855 87.56893157958984 19.19813346862793 84.25196075439453 14.97309303283691 80.02691650390625 C 10.74804019927979 75.80186462402344 7.431066513061523 70.88229370117188 5.114293098449707 65.40481567382812 C 2.716026782989502 59.73468017578125 1.5 53.71062850952148 1.5 47.5 C 1.5 41.28937149047852 2.716026782989502 35.26533508300781 5.114293098449707 29.59518623352051 C 7.431066513061523 24.11771965026855 10.74804019927979 19.19813346862793 14.97309303283691 14.97309303283691 C 19.19813346862793 10.74804019927979 24.11771965026855 7.431066513061523 29.59518623352051 5.114293098449707 C 35.26533508300781 2.716026782989502 41.28937149047852 1.5 47.5 1.5 C 53.71062850952148 1.5 59.73468017578125 2.716026782989502 65.40481567382812 5.114293098449707 C 70.88229370117188 7.431066513061523 75.80186462402344 10.74804019927979 80.02691650390625 14.97309303283691 C 84.25196075439453 19.19813346862793 87.56893157958984 24.11771965026855 89.88570404052734 29.59518623352051 C 92.28397369384766 35.26533508300781 93.5 41.28937149047852 93.5 47.5 C 93.5 53.71062850952148 92.28397369384766 59.73468017578125 89.88570404052734 65.40481567382812 C 87.56893157958984 70.88229370117188 84.25196075439453 75.80186462402344 80.02691650390625 80.02691650390625 C 75.80186462402344 84.25196075439453 70.88229370117188 87.56893157958984 65.40481567382812 89.88570404052734 C 59.73468017578125 92.28397369384766 53.71062850952148 93.5 47.5 93.5 Z" stroke="none"/>
                          <path d="M 47.5 3 C 41.49121475219727 3 35.66376876831055 4.176155090332031 30.17950439453125 6.495796203613281 C 24.88084411621094 8.736953735351562 20.12152099609375 11.94598388671875 16.03375244140625 16.03375244140625 C 11.94598388671875 20.12152099609375 8.736953735351562 24.88084411621094 6.495796203613281 30.17950439453125 C 4.176155090332031 35.66376876831055 3 41.49121475219727 3 47.5 C 3 53.50878524780273 4.176155090332031 59.33623123168945 6.495796203613281 64.82049560546875 C 8.736953735351562 70.11915588378906 11.94598388671875 74.87847900390625 16.03375244140625 78.96624755859375 C 20.12152099609375 83.05401611328125 24.88084411621094 86.26304626464844 30.17950439453125 88.50419616699219 C 35.66376876831055 90.82384490966797 41.49121475219727 92 47.5 92 C 53.50878524780273 92 59.33623123168945 90.82384490966797 64.82049560546875 88.50419616699219 C 70.11915588378906 86.26304626464844 74.87847900390625 83.05401611328125 78.96624755859375 78.96624755859375 C 83.05401611328125 74.87847900390625 86.26304626464844 70.11915588378906 88.50419616699219 64.82049560546875 C 90.82384490966797 59.33623123168945 92 53.50878524780273 92 47.5 C 92 41.49121475219727 90.82384490966797 35.66376876831055 88.50419616699219 30.17950439453125 C 86.26304626464844 24.88084411621094 83.05401611328125 20.12152099609375 78.96624755859375 16.03375244140625 C 74.87847900390625 11.94598388671875 70.11915588378906 8.736953735351562 64.82049560546875 6.495796203613281 C 59.33623123168945 4.176155090332031 53.50878524780273 3 47.5 3 M 47.5 0 C 73.7335205078125 0 95 21.2664794921875 95 47.5 C 95 73.7335205078125 73.7335205078125 95 47.5 95 C 21.2664794921875 95 0 73.7335205078125 0 47.5 C 0 21.2664794921875 21.2664794921875 0 47.5 0 Z" stroke="none" fill="#f5b104"/>
                        </g>
                      </g>
                    </g>
                  </g>
                </g>
              </g>
            </g>
          </g>
        </g>
      </g>
    </g>
    <g id="read_6983173" transform="translate(691.634 4708.689)">
      <g id="Grupo_1226643" data-name="Grupo 1226643" transform="translate(31.78 22.177)">
        <g id="Grupo_1226642" data-name="Grupo 1226642" transform="translate(5.495)">
          <path id="Trazado_1058186" data-name="Trazado 1058186" d="M131.952,130.87,144.576,142.8v26.469l-15.1-6.767v-30.56A1.469,1.469,0,0,1,131.952,130.87Z" transform="translate(-123.308 -130.465)" fill="#f5f8f9"/>
          <path id="Trazado_1058187" data-name="Trazado 1058187" d="M144.575,142.8l-12.624-11.926a1.47,1.47,0,0,0-2.478,1.069v2.984" transform="translate(-123.308 -130.467)" fill="none" stroke="#000" stroke-linecap="round" stroke-linejoin="round" stroke-miterlimit="10" stroke-width="2"/>
          <path id="Trazado_1058188" data-name="Trazado 1058188" d="M268.624,130.87,256,142.8v26.469l15.1-6.767v-30.56A1.469,1.469,0,0,0,268.624,130.87Z" transform="translate(-234.732 -130.465)" fill="#faf7f7"/>
          <path id="Trazado_1058189" data-name="Trazado 1058189" d="M256,142.8l12.624-11.926a1.47,1.47,0,0,1,2.478,1.069v2.984" transform="translate(-234.732 -130.467)" fill="none" stroke="#000" stroke-linecap="round" stroke-linejoin="round" stroke-miterlimit="10" stroke-width="2"/>
          <path id="Trazado_1058190" data-name="Trazado 1058190" d="M80.43,150.768l18.655,9.726v26.469L77.818,180.2V152.352A1.786,1.786,0,0,1,80.43,150.768Z" transform="translate(-77.818 -148.164)" fill="#faf7f7"/>
          <path id="Trazado_1058191" data-name="Trazado 1058191" d="M274.168,152.614,256,162.086v26.469l21.268-6.767v-27.3A2.119,2.119,0,0,0,274.168,152.614Z" transform="translate(-234.732 -149.756)" fill="#f5f8f9"/>
          <path id="Trazado_1058192" data-name="Trazado 1058192" d="M170.39,189.13l10.218,5.328v.041" transform="translate(-159.341 -182.128)" fill="none" stroke="#000" stroke-linecap="round" stroke-linejoin="round" stroke-miterlimit="10" stroke-width="2"/>
          <path id="Trazado_1058193" data-name="Trazado 1058193" d="M77.82,155.8v-3.448a1.786,1.786,0,0,1,2.613-1.584l4.741,2.472" transform="translate(-77.82 -148.163)" fill="none" stroke="#000" stroke-linecap="round" stroke-linejoin="round" stroke-miterlimit="10" stroke-width="2"/>
          <path id="Trazado_1058194" data-name="Trazado 1058194" d="M256,162.129v-.041l18.168-9.472a2.12,2.12,0,0,1,3.1,1.879v2.9" transform="translate(-234.732 -149.758)" fill="none" stroke="#000" stroke-linecap="round" stroke-linejoin="round" stroke-miterlimit="10" stroke-width="2"/>
        </g>
        <path id="Trazado_1058195" data-name="Trazado 1058195" d="M35.611,190.183l20.275,5.158v32.274L34.1,222.071a3.073,3.073,0,0,1-2.316-2.979V193.162A3.074,3.074,0,0,1,35.611,190.183Z" transform="translate(-31.78 -182.97)" fill="#cb97e7"/>
        <path id="Trazado_1058196" data-name="Trazado 1058196" d="M298.526,190.183l-20.275,5.158v32.274l21.791-5.543a3.073,3.073,0,0,0,2.316-2.979V193.162A3.074,3.074,0,0,0,298.526,190.183Z" transform="translate(-248.833 -182.97)" fill="#d9b1ee"/>
        <path id="Trazado_1058197" data-name="Trazado 1058197" d="M35.611,190.183l20.275,5.158v32.274L34.1,222.071a3.073,3.073,0,0,1-2.316-2.979V193.162A3.074,3.074,0,0,1,35.611,190.183Z" transform="translate(-31.78 -182.97)" fill="none" stroke="#000" stroke-linecap="round" stroke-linejoin="round" stroke-miterlimit="10" stroke-width="2"/>
        <path id="Trazado_1058198" data-name="Trazado 1058198" d="M287.875,225.163l12.166-3.095a3.074,3.074,0,0,0,2.316-2.979V193.158a3.074,3.074,0,0,0-3.831-2.979l-20.275,5.159v32.273l5.59-1.422" transform="translate(-248.832 -182.967)" fill="none" stroke="#000" stroke-linecap="round" stroke-linejoin="round" stroke-miterlimit="10" stroke-width="2"/>
        <rect id="Rectángulo_422532" data-name="Rectángulo 422532" width="5.312" height="32.274" transform="translate(24.107 12.37)" fill="#cb97e7"/>
        <rect id="Rectángulo_422533" data-name="Rectángulo 422533" width="5.312" height="32.274" transform="translate(24.107 12.37)" fill="none" stroke="#000" stroke-linecap="round" stroke-linejoin="round" stroke-miterlimit="10" stroke-width="2"/>
        <line id="Línea_2921" data-name="Línea 2921" y1="3.451" x2="13.566" transform="translate(35.025 17.546)" fill="none" stroke="#000" stroke-linecap="round" stroke-linejoin="round" stroke-miterlimit="10" stroke-width="2"/>
        <line id="Línea_2922" data-name="Línea 2922" y1="3.451" x2="13.566" transform="translate(35.025 21.357)" fill="none" stroke="#000" stroke-linecap="round" stroke-linejoin="round" stroke-miterlimit="10" stroke-width="2"/>
      </g>
      <g id="Grupo_1226644" data-name="Grupo 1226644" transform="translate(44.876 7.5)">
        <path id="Trazado_1058199" data-name="Trazado 1058199" d="M168.833,47.538a15.207,15.207,0,0,1-27.333,0,35.769,35.769,0,0,1,10.092-3.93,19.735,19.735,0,0,1,3.575-.338C161.171,43.27,166.364,46.273,168.833,47.538Z" transform="translate(-141.5 -39.001)" fill="#f5f8f9"/>
        <path id="Trazado_1058200" data-name="Trazado 1058200" d="M155.167,58.568A15.2,15.2,0,0,1,141.5,50.03a35.769,35.769,0,0,1,10.092-3.93C151.081,48.7,151.665,52.647,155.167,58.568Z" transform="translate(-141.5 -41.493)" fill="#faf7f7"/>
        <circle id="Elipse_13534" data-name="Elipse 13534" cx="6.402" cy="6.402" r="6.402" transform="translate(7.265 4.272)" fill="#528fd8"/>
        <circle id="Elipse_13535" data-name="Elipse 13535" cx="2.759" cy="2.759" r="2.759" transform="translate(10.907 7.914)" fill="#685e68"/>
        <circle id="Elipse_13536" data-name="Elipse 13536" cx="2.759" cy="2.759" r="2.759" transform="translate(10.907 7.914)" fill="none" stroke="#000" stroke-linecap="round" stroke-linejoin="round" stroke-miterlimit="10" stroke-width="2"/>
        <path id="Trazado_1058201" data-name="Trazado 1058201" d="M168.833,16.038c-2.47-1.265-7.662-2.137-13.667-2.137-1.288,0-2.538.041-3.732.116-4.374.276-7.995,1.026-9.934,2.021a15.207,15.207,0,0,1,27.333,0Z" transform="translate(-141.5 -7.5)" fill="#ffeee6"/>
        <path id="Trazado_1058202" data-name="Trazado 1058202" d="M155.167,7.5s-3.825,1.3-3.732,6.517c-4.374.276-7.995,1.026-9.934,2.021A15.2,15.2,0,0,1,155.167,7.5Z" transform="translate(-141.5 -7.5)" fill="#ffdfcf"/>
        <path id="Trazado_1058203" data-name="Trazado 1058203" d="M165.2,11.278a15.258,15.258,0,0,1,3.638,4.76,15.207,15.207,0,0,1-27.333,0,15.215,15.215,0,0,1,20.21-7.061" transform="translate(-141.5 -7.5)" fill="none" stroke="#000" stroke-linecap="round" stroke-linejoin="round" stroke-miterlimit="10" stroke-width="2"/>
        <path id="Trazado_1058204" data-name="Trazado 1058204" d="M168.832,63.264c-2.47-1.265-7.661-2.137-13.667-2.137s-11.2.872-13.667,2.137" transform="translate(-141.499 -54.726)" fill="none" stroke="#000" stroke-linecap="round" stroke-linejoin="round" stroke-miterlimit="10" stroke-width="2"/>
        <path id="Trazado_1058205" data-name="Trazado 1058205" d="M213.713,62.855a6.4,6.4,0,1,1-9.889,0" transform="translate(-195.102 -56.248)" fill="none" stroke="#000" stroke-linecap="round" stroke-linejoin="round" stroke-miterlimit="10" stroke-width="2"/>
      </g>
    </g>
  </g>
</svg>
