<svg xmlns="http://www.w3.org/2000/svg" xmlns:xlink="http://www.w3.org/1999/xlink" width="113" height="113" viewBox="0 0 113 113">
  <defs>
    <filter id="Trazado_982547" x="0" y="0" width="113" height="113" filterUnits="userSpaceOnUse">
      <feOffset dy="3" input="SourceAlpha"/>
      <feGaussianBlur stdDeviation="3" result="blur"/>
      <feFlood flood-opacity="0.161"/>
      <feComposite operator="in" in2="blur"/>
      <feComposite in="SourceGraphic"/>
    </filter>
  </defs>
  <g id="Grupo_1226651" data-name="Grupo 1226651" transform="translate(-4534.02 -4686.846)">
    <g id="Grupo_1226647" data-name="Grupo 1226647" transform="translate(0.491)">
      <g id="Grupo_1226495" data-name="Grupo 1226495" transform="translate(3841 3094)">
        <g id="Grupo_1211209" data-name="Grupo 1211209" transform="translate(701.529 1598.846)">
          <g id="Grupo_1210737" data-name="Grupo 1210737" transform="translate(0)">
            <g id="Grupo_1210537" data-name="Grupo 1210537">
              <g id="Grupo_1164202" data-name="Grupo 1164202">
                <g id="Grupo_1158168" data-name="Grupo 1158168">
                  <g id="Grupo_1152576" data-name="Grupo 1152576">
                    <g id="Grupo_1148633" data-name="Grupo 1148633">
                      <g id="Grupo_1148525" data-name="Grupo 1148525">
                        <g transform="matrix(1, 0, 0, 1, -9, -6)" filter="url(#Trazado_982547)">
                          <g id="Trazado_982547-2" data-name="Trazado 982547" transform="translate(9 6)" fill="#fdf6e4">
                            <path d="M 47.5 93.5 C 41.28937149047852 93.5 35.26533508300781 92.28397369384766 29.59518623352051 89.88570404052734 C 24.11771965026855 87.56893157958984 19.19813346862793 84.25196075439453 14.97309303283691 80.02691650390625 C 10.74804019927979 75.80186462402344 7.431066513061523 70.88229370117188 5.114293098449707 65.40481567382812 C 2.716026782989502 59.73468017578125 1.5 53.71062850952148 1.5 47.5 C 1.5 41.28937149047852 2.716026782989502 35.26533508300781 5.114293098449707 29.59518623352051 C 7.431066513061523 24.11771965026855 10.74804019927979 19.19813346862793 14.97309303283691 14.97309303283691 C 19.19813346862793 10.74804019927979 24.11771965026855 7.431066513061523 29.59518623352051 5.114293098449707 C 35.26533508300781 2.716026782989502 41.28937149047852 1.5 47.5 1.5 C 53.71062850952148 1.5 59.73468017578125 2.716026782989502 65.40481567382812 5.114293098449707 C 70.88229370117188 7.431066513061523 75.80186462402344 10.74804019927979 80.02691650390625 14.97309303283691 C 84.25196075439453 19.19813346862793 87.56893157958984 24.11771965026855 89.88570404052734 29.59518623352051 C 92.28397369384766 35.26533508300781 93.5 41.28937149047852 93.5 47.5 C 93.5 53.71062850952148 92.28397369384766 59.73468017578125 89.88570404052734 65.40481567382812 C 87.56893157958984 70.88229370117188 84.25196075439453 75.80186462402344 80.02691650390625 80.02691650390625 C 75.80186462402344 84.25196075439453 70.88229370117188 87.56893157958984 65.40481567382812 89.88570404052734 C 59.73468017578125 92.28397369384766 53.71062850952148 93.5 47.5 93.5 Z" stroke="none"/>
                            <path d="M 47.5 3 C 41.49121475219727 3 35.66376876831055 4.176155090332031 30.17950439453125 6.495796203613281 C 24.88084411621094 8.736953735351562 20.12152099609375 11.94598388671875 16.03375244140625 16.03375244140625 C 11.94598388671875 20.12152099609375 8.736953735351562 24.88084411621094 6.495796203613281 30.17950439453125 C 4.176155090332031 35.66376876831055 3 41.49121475219727 3 47.5 C 3 53.50878524780273 4.176155090332031 59.33623123168945 6.495796203613281 64.82049560546875 C 8.736953735351562 70.11915588378906 11.94598388671875 74.87847900390625 16.03375244140625 78.96624755859375 C 20.12152099609375 83.05401611328125 24.88084411621094 86.26304626464844 30.17950439453125 88.50419616699219 C 35.66376876831055 90.82384490966797 41.49121475219727 92 47.5 92 C 53.50878524780273 92 59.33623123168945 90.82384490966797 64.82049560546875 88.50419616699219 C 70.11915588378906 86.26304626464844 74.87847900390625 83.05401611328125 78.96624755859375 78.96624755859375 C 83.05401611328125 74.87847900390625 86.26304626464844 70.11915588378906 88.50419616699219 64.82049560546875 C 90.82384490966797 59.33623123168945 92 53.50878524780273 92 47.5 C 92 41.49121475219727 90.82384490966797 35.66376876831055 88.50419616699219 30.17950439453125 C 86.26304626464844 24.88084411621094 83.05401611328125 20.12152099609375 78.96624755859375 16.03375244140625 C 74.87847900390625 11.94598388671875 70.11915588378906 8.736953735351562 64.82049560546875 6.495796203613281 C 59.33623123168945 4.176155090332031 53.50878524780273 3 47.5 3 M 47.5 0 C 73.7335205078125 0 95 21.2664794921875 95 47.5 C 95 73.7335205078125 73.7335205078125 95 47.5 95 C 21.2664794921875 95 0 73.7335205078125 0 47.5 C 0 21.2664794921875 21.2664794921875 0 47.5 0 Z" stroke="none" fill="#f5b104"/>
                          </g>
                        </g>
                      </g>
                    </g>
                  </g>
                </g>
              </g>
            </g>
          </g>
        </g>
      </g>
    </g>
    <g id="learning_9304396" transform="translate(4554.832 4709.17)">
      <g id="Grupo_1226649" data-name="Grupo 1226649" transform="translate(7.5 7.5)">
        <path id="Trazado_1058242" data-name="Trazado 1058242" d="M25.935,81.928H10.962V52.5H7.5V87.121H28.436A10.35,10.35,0,0,1,25.935,81.928Z" transform="translate(-7.5 -47.306)" fill="#fdef8e" fill-rule="evenodd"/>
        <path id="Trazado_1058243" data-name="Trazado 1058243" d="M62.716,30A10.4,10.4,0,0,1,72.959,42.122H87.932V7.5H67.909a5.209,5.209,0,0,0-5.193,5.193A5.209,5.209,0,0,0,57.523,7.5H37.5V42.122H52.473A10.4,10.4,0,0,1,62.716,30Z" transform="translate(-34.038 -7.5)" fill="#fff" fill-rule="evenodd"/>
        <path id="Trazado_1058244" data-name="Trazado 1058244" d="M340.557,81.928H325.584a10.351,10.351,0,0,1-2.5,5.193h20.936V52.5h-3.462Z" transform="translate(-286.663 -47.306)" fill="#fdef8e" fill-rule="evenodd"/>
        <path id="Trazado_1058245" data-name="Trazado 1058245" d="M186.773,212.886a10.386,10.386,0,1,0-10.386,10.387,10.386,10.386,0,0,0,10.386-10.387Zm-3.462,0a6.924,6.924,0,1,1-6.924-6.924A6.923,6.923,0,0,1,183.311,212.886Z" transform="translate(-147.708 -179.996)" fill="#d69ce6" fill-rule="evenodd"/>
        <circle id="Elipse_13540" data-name="Elipse 13540" cx="6.924" cy="6.924" r="6.924" transform="translate(21.754 25.966)" fill="#acf3f9"/>
        <path id="Trazado_1058246" data-name="Trazado 1058246" d="M238.664,392.624l-.675-11.66a10.492,10.492,0,0,1-3.842,0l-.675,11.66a2.6,2.6,0,0,0,5.193,0Z" transform="translate(-207.389 -337.864)" fill="#d69ce6" fill-rule="evenodd"/>
        <path id="Trazado_1058247" data-name="Trazado 1058247" d="M242.188,383.572l-.151-2.608a10.492,10.492,0,0,1-3.842,0l-.151,2.608a13.057,13.057,0,0,0,4.145,0Z" transform="translate(-211.437 -337.863)" fill="#bc6ad8" fill-rule="evenodd"/>
        <rect id="Rectángulo_422536" data-name="Rectángulo 422536" width="2.597" height="34.622" transform="translate(0 5.193)" fill="#fee026"/>
        <path id="Trazado_1058248" data-name="Trazado 1058248" d="M233.5,35.7a10.468,10.468,0,0,1,5.193,0V13.572a5.2,5.2,0,0,0-2.6,4.492,5.2,5.2,0,0,0-2.6-4.492Z" transform="translate(-207.418 -12.871)" fill="#b6e6fc" fill-rule="evenodd"/>
        <path id="Trazado_1058249" data-name="Trazado 1058249" d="M202.924,246.349a6.962,6.962,0,0,0,1.3-.122,6.925,6.925,0,0,1,0-13.6,6.925,6.925,0,1,0-1.3,13.727Z" transform="translate(-174.246 -206.534)" fill="#5ceaee" fill-rule="evenodd"/>
      </g>
      <g id="Grupo_1226650" data-name="Grupo 1226650" transform="translate(7.5 7.5)">
        <path id="Trazado_1058250" data-name="Trazado 1058250" d="M10.962,52.5H7.5v4.328m0,1.731V87.121H28.437m15.482,0H64.856V52.5H61.394" transform="translate(-7.5 -47.306)" fill="none" stroke="#000" stroke-miterlimit="22.926" stroke-width="2" fill-rule="evenodd"/>
        <path id="Trazado_1058251" data-name="Trazado 1058251" d="M52.474,42.122H37.5V7.5H57.523a5.209,5.209,0,0,1,5.193,5.193V30" transform="translate(-34.038 -7.5)" fill="none" stroke="#000" stroke-miterlimit="22.926" stroke-width="2" fill-rule="evenodd"/>
        <path id="Trazado_1058252" data-name="Trazado 1058252" d="M266.242,42.122h14.974V7.5H261.193A5.209,5.209,0,0,0,256,12.693" transform="translate(-227.322 -7.5)" fill="none" stroke="#000" stroke-miterlimit="22.926" stroke-width="2" fill-rule="evenodd"/>
        <path id="Trazado_1058253" data-name="Trazado 1058253" d="M444.5,31.731V30m0,5.193V33.462" transform="translate(-394.068 -27.403)" fill="none" stroke="#000" stroke-miterlimit="22.926" stroke-width="2" fill-rule="evenodd"/>
        <path id="Trazado_1058254" data-name="Trazado 1058254" d="M176.386,202.5A10.386,10.386,0,1,1,166,212.886,10.386,10.386,0,0,1,176.386,202.5Zm0,3.462a6.924,6.924,0,1,0,6.924,6.924A6.923,6.923,0,0,0,176.386,205.962Z" transform="translate(-147.708 -179.996)" fill="none" stroke="#000" stroke-miterlimit="22.926" stroke-width="2" fill-rule="evenodd"/>
        <path id="Trazado_1058255" data-name="Trazado 1058255" d="M237.988,380.957l.288,4.966m.1,1.728.288,4.966a2.6,2.6,0,0,1-5.193,0l.675-11.661" transform="translate(-207.389 -337.858)" fill="none" stroke="#000" stroke-miterlimit="22.926" stroke-width="2" fill-rule="evenodd"/>
        <path id="Trazado_1058256" data-name="Trazado 1058256" d="M86.75,101.251H100.6M86.75,109.906H100.6M86.75,114.234h9.521m-9.521-8.655H100.6" transform="translate(-77.604 -90.432)" fill="none" stroke="#000" stroke-miterlimit="22.926" stroke-width="2" fill-rule="evenodd"/>
        <path id="Trazado_1058257" data-name="Trazado 1058257" d="M319.1,101.251H305.25m13.849,8.655H305.25m13.849,4.328h-9.521m9.521-8.655H305.25" transform="translate(-270.888 -90.432)" fill="none" stroke="#000" stroke-miterlimit="22.926" stroke-width="2" fill-rule="evenodd"/>
        <path id="Trazado_1058258" data-name="Trazado 1058258" d="M237.643,279.242l-3.06,3.06-2.448-2.448" transform="translate(-206.211 -247.882)" fill="none" stroke="#000" stroke-miterlimit="22.926" stroke-width="2" fill-rule="evenodd"/>
      </g>
    </g>
  </g>
</svg>
