<svg xmlns="http://www.w3.org/2000/svg" xmlns:xlink="http://www.w3.org/1999/xlink" width="113" height="113" viewBox="0 0 113 113">
  <defs>
    <filter id="Trazado_982547" x="0" y="0" width="113" height="113" filterUnits="userSpaceOnUse">
      <feOffset dy="3" input="SourceAlpha"/>
      <feGaussianBlur stdDeviation="3" result="blur"/>
      <feFlood flood-opacity="0.161"/>
      <feComposite operator="in" in2="blur"/>
      <feComposite in="SourceGraphic"/>
    </filter>
  </defs>
  <g id="Grupo_1226648" data-name="Grupo 1226648" transform="translate(-4533.529 -4686.846)">
    <g id="Grupo_1226495" data-name="Grupo 1226495" transform="translate(3841 3094)">
      <g id="Grupo_1211209" data-name="Grupo 1211209" transform="translate(701.529 1598.846)">
        <g id="Grupo_1210737" data-name="Grupo 1210737" transform="translate(0)">
          <g id="Grupo_1210537" data-name="Grupo 1210537">
            <g id="Grupo_1164202" data-name="Grupo 1164202">
              <g id="Grupo_1158168" data-name="Grupo 1158168">
                <g id="Grupo_1152576" data-name="Grupo 1152576">
                  <g id="Grupo_1148633" data-name="Grupo 1148633">
                    <g id="Grupo_1148525" data-name="Grupo 1148525">
                      <g transform="matrix(1, 0, 0, 1, -9, -6)" filter="url(#Trazado_982547)">
                        <g id="Trazado_982547-2" data-name="Trazado 982547" transform="translate(9 6)" fill="#fdf6e4">
                          <path d="M 47.5 93.5 C 41.28937149047852 93.5 35.26533508300781 92.28397369384766 29.59518623352051 89.88570404052734 C 24.11771965026855 87.56893157958984 19.19813346862793 84.25196075439453 14.97309303283691 80.02691650390625 C 10.74804019927979 75.80186462402344 7.431066513061523 70.88229370117188 5.114293098449707 65.40481567382812 C 2.716026782989502 59.73468017578125 1.5 53.71062850952148 1.5 47.5 C 1.5 41.28937149047852 2.716026782989502 35.26533508300781 5.114293098449707 29.59518623352051 C 7.431066513061523 24.11771965026855 10.74804019927979 19.19813346862793 14.97309303283691 14.97309303283691 C 19.19813346862793 10.74804019927979 24.11771965026855 7.431066513061523 29.59518623352051 5.114293098449707 C 35.26533508300781 2.716026782989502 41.28937149047852 1.5 47.5 1.5 C 53.71062850952148 1.5 59.73468017578125 2.716026782989502 65.40481567382812 5.114293098449707 C 70.88229370117188 7.431066513061523 75.80186462402344 10.74804019927979 80.02691650390625 14.97309303283691 C 84.25196075439453 19.19813346862793 87.56893157958984 24.11771965026855 89.88570404052734 29.59518623352051 C 92.28397369384766 35.26533508300781 93.5 41.28937149047852 93.5 47.5 C 93.5 53.71062850952148 92.28397369384766 59.73468017578125 89.88570404052734 65.40481567382812 C 87.56893157958984 70.88229370117188 84.25196075439453 75.80186462402344 80.02691650390625 80.02691650390625 C 75.80186462402344 84.25196075439453 70.88229370117188 87.56893157958984 65.40481567382812 89.88570404052734 C 59.73468017578125 92.28397369384766 53.71062850952148 93.5 47.5 93.5 Z" stroke="none"/>
                          <path d="M 47.5 3 C 41.49121475219727 3 35.66376876831055 4.176155090332031 30.17950439453125 6.495796203613281 C 24.88084411621094 8.736953735351562 20.12152099609375 11.94598388671875 16.03375244140625 16.03375244140625 C 11.94598388671875 20.12152099609375 8.736953735351562 24.88084411621094 6.495796203613281 30.17950439453125 C 4.176155090332031 35.66376876831055 3 41.49121475219727 3 47.5 C 3 53.50878524780273 4.176155090332031 59.33623123168945 6.495796203613281 64.82049560546875 C 8.736953735351562 70.11915588378906 11.94598388671875 74.87847900390625 16.03375244140625 78.96624755859375 C 20.12152099609375 83.05401611328125 24.88084411621094 86.26304626464844 30.17950439453125 88.50419616699219 C 35.66376876831055 90.82384490966797 41.49121475219727 92 47.5 92 C 53.50878524780273 92 59.33623123168945 90.82384490966797 64.82049560546875 88.50419616699219 C 70.11915588378906 86.26304626464844 74.87847900390625 83.05401611328125 78.96624755859375 78.96624755859375 C 83.05401611328125 74.87847900390625 86.26304626464844 70.11915588378906 88.50419616699219 64.82049560546875 C 90.82384490966797 59.33623123168945 92 53.50878524780273 92 47.5 C 92 41.49121475219727 90.82384490966797 35.66376876831055 88.50419616699219 30.17950439453125 C 86.26304626464844 24.88084411621094 83.05401611328125 20.12152099609375 78.96624755859375 16.03375244140625 C 74.87847900390625 11.94598388671875 70.11915588378906 8.736953735351562 64.82049560546875 6.495796203613281 C 59.33623123168945 4.176155090332031 53.50878524780273 3 47.5 3 M 47.5 0 C 73.7335205078125 0 95 21.2664794921875 95 47.5 C 95 73.7335205078125 73.7335205078125 95 47.5 95 C 21.2664794921875 95 0 73.7335205078125 0 47.5 C 0 21.2664794921875 21.2664794921875 0 47.5 0 Z" stroke="none" fill="#f5b104"/>
                        </g>
                      </g>
                    </g>
                  </g>
                </g>
              </g>
            </g>
          </g>
        </g>
      </g>
    </g>
    <g id="Set_time" data-name="Set time" transform="translate(4555.693 4706.01)">
      <circle id="Elipse_13537" data-name="Elipse 13537" cx="15.09" cy="15.09" r="15.09" transform="translate(35.414 35.414)" fill="#c6c5ca"/>
      <path id="Trazado_1058223" data-name="Trazado 1058223" d="M62.246,48.09a15.09,15.09,0,0,1-15.09,15.09A15.738,15.738,0,0,1,45,63.029a15.09,15.09,0,0,0,0-29.878A15.738,15.738,0,0,1,47.156,33,15.09,15.09,0,0,1,62.246,48.09Z" transform="translate(3.348 2.414)" fill="#898890"/>
      <circle id="Elipse_13538" data-name="Elipse 13538" cx="2.156" cy="2.156" r="2.156" transform="translate(48.348 22.479)" fill="#ff3051"/>
      <path id="Trazado_1058224" data-name="Trazado 1058224" d="M49.234,23.156A2.156,2.156,0,0,1,46,25.02a2.156,2.156,0,0,0,0-3.729,2.156,2.156,0,0,1,3.234,1.865Z" transform="translate(3.426 1.48)" fill="#cd2a00"/>
      <path id="Trazado_1058225" data-name="Trazado 1058225" d="M20.245,37.491a17.237,17.237,0,1,1,8.623-2.307,17.237,17.237,0,0,1-8.623,2.307Z" transform="translate(0.079 0.079)" fill="#46f8ff"/>
      <path id="Trazado_1058226" data-name="Trazado 1058226" d="M36.44,20.246A17.224,17.224,0,0,1,16.5,37.276a16.989,16.989,0,0,0,5.928-2.091,17.246,17.246,0,0,0,0-29.878A16.989,16.989,0,0,0,16.5,3.216a17.233,17.233,0,0,1,19.94,17.03Z" transform="translate(1.129 0.078)" fill="#00d7df"/>
      <circle id="Elipse_13539" data-name="Elipse 13539" cx="8.623" cy="8.623" r="8.623" transform="translate(41.881 41.881)" fill="#ff3051"/>
      <path id="Trazado_1058227" data-name="Trazado 1058227" d="M55.779,47.623a8.623,8.623,0,0,1-8.623,8.623A8.88,8.88,0,0,1,45,55.976a8.628,8.628,0,0,0,0-16.707A8.88,8.88,0,0,1,47.156,39,8.623,8.623,0,0,1,55.779,47.623Z" transform="translate(3.348 2.881)" fill="#cd2a00"/>
      <path id="Trazado_1058228" data-name="Trazado 1058228" d="M20.324,2A18.324,18.324,0,1,0,38.647,20.324,18.324,18.324,0,0,0,20.324,2Zm9,31.75-1.6-2.763-1.867,1.078,1.589,2.752a16.029,16.029,0,0,1-6.045,1.62V33.258H19.246v3.179A16.029,16.029,0,0,1,13.2,34.82l1.589-2.752L12.923,30.99l-1.6,2.763a16.286,16.286,0,0,1-4.43-4.43l2.763-1.6L8.583,25.861,5.831,27.446A16.029,16.029,0,0,1,4.211,21.4H7.389V19.246H4.211A16.029,16.029,0,0,1,5.828,13.2L8.579,14.79l1.078-1.867-2.763-1.6a16.286,16.286,0,0,1,4.43-4.43l1.6,2.763,1.867-1.078L13.2,5.831a16.029,16.029,0,0,1,6.045-1.62V7.389H21.4V4.211a16.029,16.029,0,0,1,6.045,1.617L25.857,8.583,27.724,9.66,29.32,6.9a16.285,16.285,0,0,1,4.43,4.43l-2.763,1.6,1.078,1.867L34.817,13.2a16.029,16.029,0,0,1,1.62,6.045H33.258V21.4h3.179a16.029,16.029,0,0,1-1.617,6.045l-2.752-1.589L30.99,27.724l2.763,1.6a16.286,16.286,0,0,1-4.433,4.43Z" transform="translate(0 0)"/>
      <path id="Trazado_1058229" data-name="Trazado 1058229" d="M18.234,18.545H15V20.7h4.311a1.078,1.078,0,0,0,1.078-1.078V11H18.234Z" transform="translate(1.012 0.701)"/>
      <path id="Trazado_1058230" data-name="Trazado 1058230" d="M48.168,32A16.168,16.168,0,1,0,64.336,48.168,16.168,16.168,0,0,0,48.168,32Zm0,30.18A14.012,14.012,0,1,1,62.18,48.168,14.012,14.012,0,0,1,48.168,62.18Z" transform="translate(2.336 2.336)"/>
      <path id="Trazado_1058231" data-name="Trazado 1058231" d="M52.012,38.943l-.956,1.933a7.545,7.545,0,1,1-6.717,0l-.95-1.933a9.7,9.7,0,1,0,8.629,0Z" transform="translate(2.803 2.877)"/>
      <path id="Trazado_1058232" data-name="Trazado 1058232" d="M46,37h2.156v8.623H46Z" transform="translate(3.426 2.725)"/>
      <path id="Trazado_1058233" data-name="Trazado 1058233" d="M47.826,10.156a13.958,13.958,0,0,1,9.91,4.106l1.522-1.528a16.168,16.168,0,0,0-22.864,0l1.522,1.528a13.958,13.958,0,0,1,9.91-4.106Z" transform="translate(2.678 0.467)"/>
      <path id="Trazado_1058234" data-name="Trazado 1058234" d="M55.988,15.474a11.85,11.85,0,0,0-16.765,0L40.747,17a9.7,9.7,0,0,1,13.717,0Z" transform="translate(2.898 0.779)"/>
      <path id="Trazado_1058235" data-name="Trazado 1058235" d="M52.721,18.216a7.531,7.531,0,0,0-10.671,0l1.531,1.518a5.376,5.376,0,0,1,7.61,0Z" transform="translate(3.118 1.09)"/>
      <path id="Trazado_1058236" data-name="Trazado 1058236" d="M44,23.234A3.234,3.234,0,1,0,47.234,20,3.234,3.234,0,0,0,44,23.234Zm4.311,0a1.078,1.078,0,1,1-1.078-1.078A1.078,1.078,0,0,1,48.311,23.234Z" transform="translate(3.27 1.402)"/>
      <path id="Trazado_1058237" data-name="Trazado 1058237" d="M18,38h2.156v2.156H18Z" transform="translate(1.246 2.803)"/>
      <path id="Trazado_1058238" data-name="Trazado 1058238" d="M18,42h2.156v2.156H18Z" transform="translate(1.246 3.115)"/>
      <path id="Trazado_1058239" data-name="Trazado 1058239" d="M18,46h2.156v2.156H18Z" transform="translate(1.246 3.426)"/>
      <path id="Trazado_1058240" data-name="Trazado 1058240" d="M22,46h2.156v2.156H22Z" transform="translate(1.557 3.426)"/>
      <path id="Trazado_1058241" data-name="Trazado 1058241" d="M26,46h2.156v2.156H26Z" transform="translate(1.869 3.426)"/>
    </g>
  </g>
</svg>
