<svg xmlns="http://www.w3.org/2000/svg" xmlns:xlink="http://www.w3.org/1999/xlink" width="113" height="113" viewBox="0 0 113 113">
  <defs>
    <filter id="Trazado_982547" x="0" y="0" width="113" height="113" filterUnits="userSpaceOnUse">
      <feOffset dy="3" input="SourceAlpha"/>
      <feGaussianBlur stdDeviation="3" result="blur"/>
      <feFlood flood-opacity="0.161"/>
      <feComposite operator="in" in2="blur"/>
      <feComposite in="SourceGraphic"/>
    </filter>
  </defs>
  <g id="Grupo_1226685" data-name="Grupo 1226685" transform="translate(-1131.676 -7061.111)">
    <g id="Grupo_1226655" data-name="Grupo 1226655">
      <g id="Grupo_1226501" data-name="Grupo 1226501" transform="translate(1140.676 7067.111)">
        <g id="Grupo_1211209" data-name="Grupo 1211209">
          <g id="Grupo_1210737" data-name="Grupo 1210737">
            <g id="Grupo_1210537" data-name="Grupo 1210537">
              <g id="Grupo_1164202" data-name="Grupo 1164202">
                <g id="Grupo_1158168" data-name="Grupo 1158168">
                  <g id="Grupo_1152576" data-name="Grupo 1152576">
                    <g id="Grupo_1148633" data-name="Grupo 1148633">
                      <g id="Grupo_1148525" data-name="Grupo 1148525">
                        <g transform="matrix(1, 0, 0, 1, -9, -6)" filter="url(#Trazado_982547)">
                          <g id="Trazado_982547-2" data-name="Trazado 982547" transform="translate(9 6)" fill="#fdf6e4">
                            <path d="M 47.5 93.5 C 41.28937149047852 93.5 35.26533508300781 92.28397369384766 29.59518623352051 89.88570404052734 C 24.11771965026855 87.56893157958984 19.19813346862793 84.25196075439453 14.97309303283691 80.02691650390625 C 10.74804019927979 75.80186462402344 7.431066513061523 70.88229370117188 5.114293098449707 65.40481567382812 C 2.716026782989502 59.73468017578125 1.5 53.71062850952148 1.5 47.5 C 1.5 41.28937149047852 2.716026782989502 35.26533508300781 5.114293098449707 29.59518623352051 C 7.431066513061523 24.11771965026855 10.74804019927979 19.19813346862793 14.97309303283691 14.97309303283691 C 19.19813346862793 10.74804019927979 24.11771965026855 7.431066513061523 29.59518623352051 5.114293098449707 C 35.26533508300781 2.716026782989502 41.28937149047852 1.5 47.5 1.5 C 53.71062850952148 1.5 59.73468017578125 2.716026782989502 65.40481567382812 5.114293098449707 C 70.88229370117188 7.431066513061523 75.80186462402344 10.74804019927979 80.02691650390625 14.97309303283691 C 84.25196075439453 19.19813346862793 87.56893157958984 24.11771965026855 89.88570404052734 29.59518623352051 C 92.28397369384766 35.26533508300781 93.5 41.28937149047852 93.5 47.5 C 93.5 53.71062850952148 92.28397369384766 59.73468017578125 89.88570404052734 65.40481567382812 C 87.56893157958984 70.88229370117188 84.25196075439453 75.80186462402344 80.02691650390625 80.02691650390625 C 75.80186462402344 84.25196075439453 70.88229370117188 87.56893157958984 65.40481567382812 89.88570404052734 C 59.73468017578125 92.28397369384766 53.71062850952148 93.5 47.5 93.5 Z" stroke="none"/>
                            <path d="M 47.5 3 C 41.49121475219727 3 35.66376876831055 4.176155090332031 30.17950439453125 6.495796203613281 C 24.88084411621094 8.736953735351562 20.12152099609375 11.94598388671875 16.03375244140625 16.03375244140625 C 11.94598388671875 20.12152099609375 8.736953735351562 24.88084411621094 6.495796203613281 30.17950439453125 C 4.176155090332031 35.66376876831055 3 41.49121475219727 3 47.5 C 3 53.50878524780273 4.176155090332031 59.33623123168945 6.495796203613281 64.82049560546875 C 8.736953735351562 70.11915588378906 11.94598388671875 74.87847900390625 16.03375244140625 78.96624755859375 C 20.12152099609375 83.05401611328125 24.88084411621094 86.26304626464844 30.17950439453125 88.50419616699219 C 35.66376876831055 90.82384490966797 41.49121475219727 92 47.5 92 C 53.50878524780273 92 59.33623123168945 90.82384490966797 64.82049560546875 88.50419616699219 C 70.11915588378906 86.26304626464844 74.87847900390625 83.05401611328125 78.96624755859375 78.96624755859375 C 83.05401611328125 74.87847900390625 86.26304626464844 70.11915588378906 88.50419616699219 64.82049560546875 C 90.82384490966797 59.33623123168945 92 53.50878524780273 92 47.5 C 92 41.49121475219727 90.82384490966797 35.66376876831055 88.50419616699219 30.17950439453125 C 86.26304626464844 24.88084411621094 83.05401611328125 20.12152099609375 78.96624755859375 16.03375244140625 C 74.87847900390625 11.94598388671875 70.11915588378906 8.736953735351562 64.82049560546875 6.495796203613281 C 59.33623123168945 4.176155090332031 53.50878524780273 3 47.5 3 M 47.5 0 C 73.7335205078125 0 95 21.2664794921875 95 47.5 C 95 73.7335205078125 73.7335205078125 95 47.5 95 C 21.2664794921875 95 0 73.7335205078125 0 47.5 C 0 21.2664794921875 21.2664794921875 0 47.5 0 Z" stroke="none" fill="#f5b104"/>
                          </g>
                        </g>
                      </g>
                    </g>
                  </g>
                </g>
              </g>
            </g>
          </g>
        </g>
      </g>
    </g>
    <g id="transmision-en-vivo" transform="translate(1161.101 7073.139)">
      <g id="Grupo_1226684" data-name="Grupo 1226684" transform="translate(0.846 16.947)">
        <path id="Trazado_1058408" data-name="Trazado 1058408" d="M11.654,24.11H56.8a3.664,3.664,0,0,1,3.654,3.654V69.508A3.664,3.664,0,0,1,56.8,73.162H11.654A3.664,3.664,0,0,1,8,69.508V27.763a3.664,3.664,0,0,1,3.654-3.653Z" transform="translate(-8 -24.11)" fill="#ebf5fc" fill-rule="evenodd"/>
        <path id="Trazado_1058409" data-name="Trazado 1058409" d="M11.654,24.11H56.8a3.664,3.664,0,0,1,3.654,3.654v5.243H8V27.763a3.664,3.664,0,0,1,3.654-3.653Z" transform="translate(-8 -24.11)" fill="#0593fc" fill-rule="evenodd"/>
        <path id="Trazado_1058410" data-name="Trazado 1058410" d="M10.46,108.22v36.5a3.664,3.664,0,0,0,3.654,3.654h-2.46A3.664,3.664,0,0,1,8,144.721v-36.5Z" transform="translate(-8 -99.324)" fill="#d4dde3" fill-rule="evenodd"/>
        <path id="Trazado_1058411" data-name="Trazado 1058411" d="M11.654,24.11h2.46a3.664,3.664,0,0,0-3.654,3.654v5.243H8V27.763A3.664,3.664,0,0,1,11.654,24.11Z" transform="translate(-8 -24.11)" fill="#0584e3" fill-rule="evenodd"/>
        <g id="Grupo_1226683" data-name="Grupo 1226683" transform="translate(5.475 3.079)">
          <path id="Trazado_1058412" data-name="Trazado 1058412" d="M61.137,55.955a1.367,1.367,0,1,0-1.367-1.367A1.37,1.37,0,0,0,61.137,55.955Z" transform="translate(-59.77 -53.22)" fill="#056bb8" fill-rule="evenodd"/>
          <path id="Trazado_1058413" data-name="Trazado 1058413" d="M111.251,55.955a1.367,1.367,0,1,0-1.371-1.367A1.37,1.37,0,0,0,111.251,55.955Z" transform="translate(-104.58 -53.22)" fill="#056bb8" fill-rule="evenodd"/>
          <path id="Trazado_1058414" data-name="Trazado 1058414" d="M161.4,55.955a1.367,1.367,0,1,0-1.367-1.367,1.37,1.37,0,0,0,1.367,1.367Z" transform="translate(-149.426 -53.22)" fill="#056bb8" fill-rule="evenodd"/>
        </g>
        <path id="Trazado_1058415" data-name="Trazado 1058415" d="M195.385,226.368a7.833,7.833,0,1,1-11.077,0A7.86,7.86,0,0,1,195.385,226.368Z" transform="translate(-163.618 -202.933)" fill="#ff4155" fill-rule="evenodd"/>
        <path id="Trazado_1058416" data-name="Trazado 1058416" d="M234.934,263.262l-5.321,3.072a1.155,1.155,0,0,1-1.733-1V259.19a1.155,1.155,0,0,1,1.733-1l5.321,3.072a1.155,1.155,0,0,1,0,2Z" transform="translate(-204.625 -233.29)" fill="#fff" fill-rule="evenodd"/>
      </g>
      <path id="Trazado_1058417" data-name="Trazado 1058417" d="M49.649,16.1H4.5A4.506,4.506,0,0,0,0,20.6V62.344a4.505,4.505,0,0,0,4.5,4.5H49.649a4.505,4.505,0,0,0,4.5-4.5V20.6A4.506,4.506,0,0,0,49.649,16.1ZM4.5,17.791H49.649A2.812,2.812,0,0,1,52.458,20.6V25H1.691V20.6A2.813,2.813,0,0,1,4.5,17.791ZM49.649,65.153H4.5a2.812,2.812,0,0,1-2.809-2.809V26.687H52.458V62.344A2.813,2.813,0,0,1,49.649,65.153ZM7.687,23.607a2.214,2.214,0,1,0-2.213-2.216A2.218,2.218,0,0,0,7.687,23.607Zm0-2.737a.523.523,0,1,1-.521.521A.523.523,0,0,1,7.687,20.87Zm5.3,2.737a2.214,2.214,0,1,0-2.213-2.216,2.218,2.218,0,0,0,2.213,2.216Zm0-2.737a.523.523,0,1,1-.521.521A.523.523,0,0,1,12.991,20.87Zm5.3,2.737a2.214,2.214,0,1,0-2.213-2.216A2.216,2.216,0,0,0,18.293,23.607Zm0-2.737a.523.523,0,1,1-.521.521A.522.522,0,0,1,18.293,20.87Zm5.028.521a.845.845,0,0,1,.845-.845H47.829a.845.845,0,1,1,0,1.69H24.166A.844.844,0,0,1,23.321,21.391ZM10.876,55.614a.845.845,0,1,1-1.451.868,20.641,20.641,0,0,1,0-21.129.845.845,0,0,1,1.45.868A18.857,18.857,0,0,0,10.876,55.614Zm3.4-2.036a.846.846,0,0,1-1.452.867,16.677,16.677,0,0,1,0-17.057.845.845,0,0,1,1.451.867,14.909,14.909,0,0,0,0,15.323Zm3.4-2.035a.845.845,0,1,1-1.451.866,12.7,12.7,0,0,1,0-12.982.845.845,0,1,1,1.451.867A10.949,10.949,0,0,0,17.68,51.544Zm27.044-16.19a20.641,20.641,0,0,1,0,21.129.845.845,0,0,1-1.451-.868,18.855,18.855,0,0,0,0-19.392.845.845,0,0,1,1.451-.868ZM43.666,45.919a16.613,16.613,0,0,1-2.346,8.527.846.846,0,0,1-1.452-.867,14.9,14.9,0,0,0,0-15.322.845.845,0,0,1,1.451-.867A16.608,16.608,0,0,1,43.666,45.919Zm-5.745-6.491a12.7,12.7,0,0,1,0,12.982.845.845,0,1,1-1.451-.866,10.949,10.949,0,0,0,0-11.248.845.845,0,0,1,1.45-.868Zm-16.982.354a8.667,8.667,0,1,0,12.27,0,8.615,8.615,0,0,0-12.27,0ZM32.014,50.857a7.008,7.008,0,1,1,2.036-4.938A6.924,6.924,0,0,1,32.014,50.857Zm-.436-6.669-5.319-3.071a2,2,0,0,0-3,1.729v6.146a1.994,1.994,0,0,0,3,1.733l5.321-3.072a2,2,0,0,0,0-3.465Zm-.846,2-5.324,3.074a.311.311,0,0,1-.462-.271V42.845a.281.281,0,0,1,.159-.268.3.3,0,0,1,.151-.044.3.3,0,0,1,.154.045l5.326,3.076a.277.277,0,0,1,.151.263.281.281,0,0,1-.155.27Z" transform="translate(0)"/>
    </g>
  </g>
</svg>
