<svg xmlns="http://www.w3.org/2000/svg" xmlns:xlink="http://www.w3.org/1999/xlink" width="113" height="113" viewBox="0 0 113 113">
  <defs>
    <filter id="Trazado_982547" x="0" y="0" width="113" height="113" filterUnits="userSpaceOnUse">
      <feOffset dy="3" input="SourceAlpha"/>
      <feGaussianBlur stdDeviation="3" result="blur"/>
      <feFlood flood-opacity="0.161"/>
      <feComposite operator="in" in2="blur"/>
      <feComposite in="SourceGraphic"/>
    </filter>
  </defs>
  <g id="Grupo_1226669" data-name="Grupo 1226669" transform="translate(-4501.529 -7420.607)">
    <g id="Grupo_1226505" data-name="Grupo 1226505" transform="translate(3809 5827.761)">
      <g id="Grupo_1211209" data-name="Grupo 1211209" transform="translate(701.529 1598.846)">
        <g id="Grupo_1210737" data-name="Grupo 1210737" transform="translate(0)">
          <g id="Grupo_1210537" data-name="Grupo 1210537">
            <g id="Grupo_1164202" data-name="Grupo 1164202">
              <g id="Grupo_1158168" data-name="Grupo 1158168">
                <g id="Grupo_1152576" data-name="Grupo 1152576">
                  <g id="Grupo_1148633" data-name="Grupo 1148633">
                    <g id="Grupo_1148525" data-name="Grupo 1148525">
                      <g transform="matrix(1, 0, 0, 1, -9, -6)" filter="url(#Trazado_982547)">
                        <g id="Trazado_982547-2" data-name="Trazado 982547" transform="translate(9 6)" fill="#fdf6e4">
                          <path d="M 47.5 93.5 C 41.28937149047852 93.5 35.26533508300781 92.28397369384766 29.59518623352051 89.88570404052734 C 24.11771965026855 87.56893157958984 19.19813346862793 84.25196075439453 14.97309303283691 80.02691650390625 C 10.74804019927979 75.80186462402344 7.431066513061523 70.88229370117188 5.114293098449707 65.40481567382812 C 2.716026782989502 59.73468017578125 1.5 53.71062850952148 1.5 47.5 C 1.5 41.28937149047852 2.716026782989502 35.26533508300781 5.114293098449707 29.59518623352051 C 7.431066513061523 24.11771965026855 10.74804019927979 19.19813346862793 14.97309303283691 14.97309303283691 C 19.19813346862793 10.74804019927979 24.11771965026855 7.431066513061523 29.59518623352051 5.114293098449707 C 35.26533508300781 2.716026782989502 41.28937149047852 1.5 47.5 1.5 C 53.71062850952148 1.5 59.73468017578125 2.716026782989502 65.40481567382812 5.114293098449707 C 70.88229370117188 7.431066513061523 75.80186462402344 10.74804019927979 80.02691650390625 14.97309303283691 C 84.25196075439453 19.19813346862793 87.56893157958984 24.11771965026855 89.88570404052734 29.59518623352051 C 92.28397369384766 35.26533508300781 93.5 41.28937149047852 93.5 47.5 C 93.5 53.71062850952148 92.28397369384766 59.73468017578125 89.88570404052734 65.40481567382812 C 87.56893157958984 70.88229370117188 84.25196075439453 75.80186462402344 80.02691650390625 80.02691650390625 C 75.80186462402344 84.25196075439453 70.88229370117188 87.56893157958984 65.40481567382812 89.88570404052734 C 59.73468017578125 92.28397369384766 53.71062850952148 93.5 47.5 93.5 Z" stroke="none"/>
                          <path d="M 47.5 3 C 41.49121475219727 3 35.66376876831055 4.176155090332031 30.17950439453125 6.495796203613281 C 24.88084411621094 8.736953735351562 20.12152099609375 11.94598388671875 16.03375244140625 16.03375244140625 C 11.94598388671875 20.12152099609375 8.736953735351562 24.88084411621094 6.495796203613281 30.17950439453125 C 4.176155090332031 35.66376876831055 3 41.49121475219727 3 47.5 C 3 53.50878524780273 4.176155090332031 59.33623123168945 6.495796203613281 64.82049560546875 C 8.736953735351562 70.11915588378906 11.94598388671875 74.87847900390625 16.03375244140625 78.96624755859375 C 20.12152099609375 83.05401611328125 24.88084411621094 86.26304626464844 30.17950439453125 88.50419616699219 C 35.66376876831055 90.82384490966797 41.49121475219727 92 47.5 92 C 53.50878524780273 92 59.33623123168945 90.82384490966797 64.82049560546875 88.50419616699219 C 70.11915588378906 86.26304626464844 74.87847900390625 83.05401611328125 78.96624755859375 78.96624755859375 C 83.05401611328125 74.87847900390625 86.26304626464844 70.11915588378906 88.50419616699219 64.82049560546875 C 90.82384490966797 59.33623123168945 92 53.50878524780273 92 47.5 C 92 41.49121475219727 90.82384490966797 35.66376876831055 88.50419616699219 30.17950439453125 C 86.26304626464844 24.88084411621094 83.05401611328125 20.12152099609375 78.96624755859375 16.03375244140625 C 74.87847900390625 11.94598388671875 70.11915588378906 8.736953735351562 64.82049560546875 6.495796203613281 C 59.33623123168945 4.176155090332031 53.50878524780273 3 47.5 3 M 47.5 0 C 73.7335205078125 0 95 21.2664794921875 95 47.5 C 95 73.7335205078125 73.7335205078125 95 47.5 95 C 21.2664794921875 95 0 73.7335205078125 0 47.5 C 0 21.2664794921875 21.2664794921875 0 47.5 0 Z" stroke="none" fill="#f5b104"/>
                        </g>
                      </g>
                    </g>
                  </g>
                </g>
              </g>
            </g>
          </g>
        </g>
      </g>
    </g>
    <g id="sistema-operativo_1_" data-name="sistema-operativo (1)" transform="translate(4527.048 7446.554)">
      <g id="Grupo_1226667" data-name="Grupo 1226667" transform="translate(1.938 0.895)">
        <g id="Grupo_1226663" data-name="Grupo 1226663" transform="translate(0)">
          <path id="Trazado_1058371" data-name="Trazado 1058371" d="M163.266,335.053l-8.993-3.488-7.585,3.488a1.868,1.868,0,0,0-1.7,1.1l-1.579,3.5a1.867,1.867,0,0,0,1.7,2.635h19.735a1.867,1.867,0,0,0,1.7-2.635l-1.579-3.5a1.868,1.868,0,0,0-1.7-1.1Z" transform="translate(-127.163 -292.888)" fill="#017297"/>
          <path id="Trazado_1058372" data-name="Trazado 1058372" d="M148.08,365.382a1.867,1.867,0,0,0,1.7,2.635H145.1a1.867,1.867,0,0,1-1.7-2.635l1.578-3.5a1.87,1.87,0,0,1,1.7-1.1h4.678a1.87,1.87,0,0,0-1.7,1.1Z" transform="translate(-127.159 -318.619)" fill="#025f80"/>
          <path id="Trazado_1058373" data-name="Trazado 1058373" d="M57.774,7.5H14.931a6.392,6.392,0,0,0-6.392,6.392V43.273a6.392,6.392,0,0,0,6.392,6.392H57.774a6.392,6.392,0,0,0,6.392-6.392V13.892A6.392,6.392,0,0,0,57.774,7.5Z" transform="translate(-8.539 -7.5)" fill="#017297"/>
          <path id="Trazado_1058374" data-name="Trazado 1058374" d="M43.592,74.442a2.51,2.51,0,0,1-2.508-2.508V42.554a2.51,2.51,0,0,1,2.508-2.508H86.435a2.51,2.51,0,0,1,2.508,2.508V71.934a2.51,2.51,0,0,1-2.508,2.508H43.592Z" transform="translate(-37.2 -36.162)" fill="#f9f7f8"/>
          <path id="Trazado_1058375" data-name="Trazado 1058375" d="M47.6,74.437h-4a2.511,2.511,0,0,1-2.508-2.507V42.55a2.511,2.511,0,0,1,2.508-2.508h4a2.51,2.51,0,0,0-2.507,2.508V71.931A2.51,2.51,0,0,0,47.6,74.437Z" transform="translate(-37.2 -36.158)" fill="#f3dced"/>
          <g id="Grupo_1226660" data-name="Grupo 1226660" transform="translate(8.791 8.249)">
            <path id="Trazado_1058376" data-name="Trazado 1058376" d="M94.364,80.018V85.9A1.107,1.107,0,0,1,93.257,87H83.3A1.107,1.107,0,0,1,82.2,85.9v-8.17A1.107,1.107,0,0,1,83.3,76.618h3.085a1.107,1.107,0,0,1,1,.637l.477,1.018a1.107,1.107,0,0,0,1,.637h4.387A1.107,1.107,0,0,1,94.364,80.018Z" transform="translate(-82.196 -76.618)" fill="#fef056"/>
          </g>
          <g id="Grupo_1226661" data-name="Grupo 1226661" transform="translate(25.3 8.249)">
            <path id="Trazado_1058377" data-name="Trazado 1058377" d="M232.688,80.018V85.9A1.107,1.107,0,0,1,231.581,87h-9.954A1.107,1.107,0,0,1,220.52,85.9v-8.17a1.107,1.107,0,0,1,1.107-1.107h3.085a1.107,1.107,0,0,1,1,.637l.477,1.018a1.107,1.107,0,0,0,1,.637h4.387A1.107,1.107,0,0,1,232.688,80.018Z" transform="translate(-220.52 -76.618)" fill="#fef056"/>
          </g>
          <g id="Grupo_1226662" data-name="Grupo 1226662" transform="translate(8.791 22.318)">
            <path id="Trazado_1058378" data-name="Trazado 1058378" d="M94.364,197.9v5.877a1.107,1.107,0,0,1-1.107,1.107H83.3a1.107,1.107,0,0,1-1.107-1.107v-8.17A1.107,1.107,0,0,1,83.3,194.5h3.085a1.107,1.107,0,0,1,1,.637l.477,1.018a1.107,1.107,0,0,0,1,.637h4.387A1.107,1.107,0,0,1,94.364,197.9Z" transform="translate(-82.196 -194.5)" fill="#fef056"/>
          </g>
        </g>
        <g id="Grupo_1226666" data-name="Grupo 1226666" transform="translate(31.433 30.393)">
          <g id="Grupo_1226664" data-name="Grupo 1226664" transform="translate(0)">
            <path id="Trazado_1058379" data-name="Trazado 1058379" d="M298.445,279.11l-1.41-.814a11.54,11.54,0,0,0,0-3.358l1.41-.815a2.2,2.2,0,0,0,.807-3.009l-2-3.456a2.2,2.2,0,0,0-3.009-.807l-1.413.815a11.434,11.434,0,0,0-2.906-1.68v-1.629a2.2,2.2,0,0,0-2.2-2.2h-3.993a2.2,2.2,0,0,0-2.2,2.2v1.629a11.459,11.459,0,0,0-2.906,1.68l-1.412-.815a2.2,2.2,0,0,0-3.009.807l-2,3.456a2.2,2.2,0,0,0,.807,3.009l1.412.815a11.386,11.386,0,0,0,0,3.358l-1.412.814a2.2,2.2,0,0,0-.807,3.009l2,3.456a2.2,2.2,0,0,0,3.009.807l1.412-.815a11.465,11.465,0,0,0,2.906,1.68v1.629a2.2,2.2,0,0,0,2.2,2.2h3.993a2.2,2.2,0,0,0,2.2-2.2v-1.629a11.431,11.431,0,0,0,2.906-1.68l1.413.815a2.2,2.2,0,0,0,3.009-.807l2-3.456a2.2,2.2,0,0,0-.807-3.009Zm-12.715,3.316a5.809,5.809,0,1,1,5.808-5.81A5.809,5.809,0,0,1,285.729,282.426Z" transform="translate(-271.911 -262.154)" fill="#99e6fc"/>
          </g>
          <g id="Grupo_1226665" data-name="Grupo 1226665" transform="translate(0 4.4)">
            <path id="Trazado_1058380" data-name="Trazado 1058380" d="M275.46,314.584a2.2,2.2,0,0,1,.806-3.009l1.412-.813a11.419,11.419,0,0,1,0-3.358l-1.412-.816a2.2,2.2,0,0,1-.806-3.009l2-3.456a2.182,2.182,0,0,1,.353-.46l-.6-.347a2.2,2.2,0,0,0-3.01.806l-2,3.456a2.2,2.2,0,0,0,.806,3.009l1.412.816a11.419,11.419,0,0,0,0,3.358l-1.412.813a2.2,2.2,0,0,0-.806,3.009l2,3.456a2.2,2.2,0,0,0,3.01.806l.6-.347a2.181,2.181,0,0,1-.353-.46Z" transform="translate(-271.908 -299.02)" fill="#62dbfb"/>
          </g>
        </g>
      </g>
      <g id="Grupo_1226668" data-name="Grupo 1226668" transform="translate(1.043 0)">
        <path id="Trazado_1058381" data-name="Trazado 1058381" d="M86.65,71.413H82.264a.212.212,0,0,1-.192-.122l-.478-1.018a2.011,2.011,0,0,0-1.813-1.152H76.7a2,2,0,0,0-2,2v8.169a2.005,2.005,0,0,0,2,2h.9a.9.9,0,0,0,0-1.79h-.9a.213.213,0,0,1-.212-.212V71.123a.213.213,0,0,1,.212-.212h3.085a.213.213,0,0,1,.192.122l.477,1.016A2.008,2.008,0,0,0,82.264,73.2H86.65a.213.213,0,0,1,.212.212v5.877a.213.213,0,0,1-.212.212H81.768a.9.9,0,1,0,0,1.79H86.65a2,2,0,0,0,2-2V73.415A2.005,2.005,0,0,0,86.65,71.413Z" transform="translate(-65.904 -60.871)"/>
        <path id="Trazado_1058382" data-name="Trazado 1058382" d="M224.976,81.293a2,2,0,0,0,2-2V73.413a2,2,0,0,0-2-2h-4.387a.213.213,0,0,1-.192-.122l-.477-1.018a2.01,2.01,0,0,0-1.813-1.153h-3.085a2,2,0,0,0-2,2v8.17a2,2,0,0,0,2,2Zm-10.166-2V71.12a.212.212,0,0,1,.212-.212h3.085a.213.213,0,0,1,.192.122l.477,1.018a2.01,2.01,0,0,0,1.813,1.153h4.387a.212.212,0,0,1,.212.212V79.29a.212.212,0,0,1-.212.212h-9.954a.212.212,0,0,1-.212-.212Z" transform="translate(-187.721 -60.869)"/>
        <path id="Trazado_1058383" data-name="Trazado 1058383" d="M86.652,189.292H82.266a.213.213,0,0,1-.192-.122l-.477-1.018A2.01,2.01,0,0,0,79.783,187H76.7a2,2,0,0,0-2,2v8.17a2,2,0,0,0,2,2h9.954a2,2,0,0,0,2-2v-5.877A2,2,0,0,0,86.652,189.292Zm.212,7.879a.212.212,0,0,1-.212.212H76.7a.212.212,0,0,1-.212-.212V189a.212.212,0,0,1,.212-.212h3.085a.213.213,0,0,1,.192.122l.477,1.018a2.01,2.01,0,0,0,1.813,1.153h4.387a.212.212,0,0,1,.212.212Z" transform="translate(-65.906 -164.681)"/>
        <path id="Trazado_1058384" data-name="Trazado 1058384" d="M338.217,327.16a6.7,6.7,0,1,0,1.741,13.179.9.9,0,0,0-.462-1.73,4.92,4.92,0,0,1-6.193-4.746,4.885,4.885,0,0,1,.341-1.8H342.2c.193,0,.387-.009.579-.024a4.91,4.91,0,0,1-.45,4.508.9.9,0,1,0,1.5.981,6.7,6.7,0,0,0-5.61-10.374Zm3.354,3.119h-6.71a4.9,4.9,0,0,1,6.71,0Z" transform="translate(-292.071 -288.114)"/>
        <path id="Trazado_1058385" data-name="Trazado 1058385" d="M60.352,47.468l-.9-.518c.039-.4.058-.8.058-1.2s-.019-.8-.058-1.2l.9-.519A3.1,3.1,0,0,0,61.487,39.8l-2-3.456a3.078,3.078,0,0,0-1.031-1.071V14.2a.9.9,0,0,0-1.79,0V34.8a3.077,3.077,0,0,0-1.41.411l-.684.395V7.287a3.407,3.407,0,0,0-3.4-3.4H8.329a3.407,3.407,0,0,0-3.4,3.4v29.38a3.407,3.407,0,0,0,3.4,3.4H32.752a3.094,3.094,0,0,0-.164,2.095H8.329a5.5,5.5,0,0,1-5.5-5.5V7.287a5.5,5.5,0,0,1,5.5-5.5H51.172a5.5,5.5,0,0,1,5.5,5.5v2.74a.9.9,0,0,0,1.79,0V7.287A7.3,7.3,0,0,0,51.172,0H8.329A7.3,7.3,0,0,0,1.043,7.287v29.38a7.3,7.3,0,0,0,7.286,7.287H18.87l-1.5,3.334a2.763,2.763,0,0,0,2.518,3.9H32.656a3.116,3.116,0,0,0,.235.512l2,3.455a3.1,3.1,0,0,0,4.233,1.135l.9-.519a12.347,12.347,0,0,0,2.076,1.2v1.037a3.1,3.1,0,0,0,3.1,3.1h3.993a3.1,3.1,0,0,0,3.1-3.1V56.972a12.3,12.3,0,0,0,2.076-1.2l.9.519a3.1,3.1,0,0,0,4.232-1.134l2-3.456a3.1,3.1,0,0,0-1.135-4.232ZM6.717,36.668V7.287A1.614,1.614,0,0,1,8.329,5.675H51.172a1.614,1.614,0,0,1,1.613,1.612V34.771c-.165-.085-.333-.166-.5-.243V33.49a3.1,3.1,0,0,0-3.1-3.1H45.192a3.1,3.1,0,0,0-3.1,3.1v1.037a12.356,12.356,0,0,0-2.076,1.2l-.9-.519a3.1,3.1,0,0,0-4.232,1.134L33.769,38.28H8.329a1.614,1.614,0,0,1-1.612-1.612ZM32.572,49.4H19.884A.973.973,0,0,1,19,48.026l1.578-3.5a.974.974,0,0,1,.887-.572H33.9c.041.026.082.052.124.076l.9.519c-.039.4-.058.8-.058,1.2s.02.8.059,1.2l-.9.518A3.086,3.086,0,0,0,32.572,49.4Zm27.365,1.406-2,3.456a1.309,1.309,0,0,1-1.787.479l-1.413-.816a.9.9,0,0,0-1,.075,10.526,10.526,0,0,1-2.678,1.548.9.9,0,0,0-.565.832v1.629a1.309,1.309,0,0,1-1.307,1.307H45.192a1.309,1.309,0,0,1-1.307-1.307V56.38a.9.9,0,0,0-.565-.832A10.565,10.565,0,0,1,40.64,54a.9.9,0,0,0-1-.074l-1.411.815a1.307,1.307,0,0,1-1.787-.479l-2-3.455a1.311,1.311,0,0,1,.478-1.787l1.412-.814a.9.9,0,0,0,.438-.908,10.493,10.493,0,0,1,0-3.092.9.9,0,0,0-.437-.908l-1.412-.816a1.311,1.311,0,0,1-.479-1.786l2-3.458a1.307,1.307,0,0,1,1.786-.478l1.412.815a.9.9,0,0,0,1-.074,10.567,10.567,0,0,1,2.679-1.549.9.9,0,0,0,.565-.832V33.49a1.309,1.309,0,0,1,1.307-1.307h3.993a1.309,1.309,0,0,1,1.307,1.307V35.12a.9.9,0,0,0,.565.832A10.523,10.523,0,0,1,53.736,37.5a.9.9,0,0,0,1,.075l1.414-.816a1.309,1.309,0,0,1,1.786.479l2,3.456a1.309,1.309,0,0,1-.48,1.787l-1.41.816a.9.9,0,0,0-.437.906,10.643,10.643,0,0,1,0,3.1.9.9,0,0,0,.438.906l1.41.814a1.309,1.309,0,0,1,.479,1.786Z" transform="translate(-1.043 0)"/>
      </g>
    </g>
  </g>
</svg>
