<svg xmlns="http://www.w3.org/2000/svg" xmlns:xlink="http://www.w3.org/1999/xlink" width="108" height="108" viewBox="0 0 108 108">
  <defs>
    <filter id="Trazado_904820" x="0" y="0" width="108" height="108" filterUnits="userSpaceOnUse">
      <feOffset dy="3" input="SourceAlpha"/>
      <feGaussianBlur stdDeviation="3" result="blur"/>
      <feFlood flood-opacity="0.161"/>
      <feComposite operator="in" in2="blur"/>
      <feComposite in="SourceGraphic"/>
    </filter>
  </defs>
  <g id="Grupo_1226687" data-name="Grupo 1226687" transform="translate(-199.656 -9270.962)">
    <g id="Grupo_1226508" data-name="Grupo 1226508" transform="translate(208.656 9276.962)">
      <g id="Grupo_1173585" data-name="Grupo 1173585" transform="translate(0 0)">
        <g id="Grupo_1173428" data-name="Grupo 1173428">
          <g id="Grupo_1171958" data-name="Grupo 1171958">
            <g id="Grupo_1167341" data-name="Grupo 1167341">
              <g id="Grupo_1166792" data-name="Grupo 1166792">
                <g transform="matrix(1, 0, 0, 1, -9, -6)" filter="url(#Trazado_904820)">
                  <g id="Trazado_904820-2" data-name="Trazado 904820" transform="translate(9 6)" fill="#ebfefd">
                    <path d="M 44.99999618530273 88.5 C 39.12687301635742 88.5 33.43022155761719 87.35007476806641 28.06829643249512 85.08216094970703 C 22.88852119445801 82.89131164550781 18.23629570007324 79.75458526611328 14.24084663391113 75.75913238525391 C 10.24540901184082 71.76368713378906 7.108683586120605 67.11145782470703 4.917821407318115 61.93169784545898 C 2.649921178817749 56.56975936889648 1.499996185302734 50.87311935424805 1.499996185302734 44.99999618530273 C 1.499996185302734 39.12687301635742 2.649921178817749 33.43022155761719 4.917821407318115 28.06829643249512 C 7.108683586120605 22.88852119445801 10.24540901184082 18.23629570007324 14.24084663391113 14.24084663391113 C 18.23629570007324 10.24540901184082 22.88852119445801 7.108683586120605 28.06829643249512 4.917821407318115 C 33.43022155761719 2.649921178817749 39.12687301635742 1.499996185302734 44.99999618530273 1.499996185302734 C 50.87311935424805 1.499996185302734 56.56977081298828 2.649921178817749 61.93169784545898 4.917821407318115 C 67.11147308349609 7.108683586120605 71.76369476318359 10.24540901184082 75.75914764404297 14.24084663391113 C 79.75458526611328 18.23629570007324 82.89131164550781 22.88852119445801 85.08216857910156 28.06829643249512 C 87.35007476806641 33.43022155761719 88.5 39.12687301635742 88.5 44.99999618530273 C 88.5 50.87311935424805 87.35007476806641 56.56975936889648 85.08216857910156 61.93169784545898 C 82.89131164550781 67.11145782470703 79.75458526611328 71.76368713378906 75.75914764404297 75.75913238525391 C 71.76369476318359 79.75458526611328 67.11147308349609 82.89131164550781 61.93169784545898 85.08216094970703 C 56.56977081298828 87.35007476806641 50.87311935424805 88.5 44.99999618530273 88.5 Z" stroke="none"/>
                    <path d="M 44.99999618530273 2.999992370605469 C 39.32870864868164 2.999992370605469 33.82865142822266 4.110054016113281 28.65262603759766 6.299339294433594 C 23.65165710449219 8.414566040039062 19.15968322753906 11.44333648681641 15.301513671875 15.301513671875 C 11.44333648681641 19.15968322753906 8.414566040039062 23.65165710449219 6.299339294433594 28.65262603759766 C 4.110054016113281 33.82865142822266 2.999992370605469 39.32870864868164 2.999992370605469 44.99999618530273 C 2.999992370605469 50.67128372192383 4.110054016113281 56.17132568359375 6.299339294433594 61.34736633300781 C 8.414566040039062 66.34834289550781 11.44333648681641 70.84029388427734 15.301513671875 74.69847869873047 C 19.15968322753906 78.55665588378906 23.65165710449219 81.58542633056641 28.65262603759766 83.70065307617188 C 33.82865142822266 85.88993835449219 39.32870864868164 87 44.99999618530273 87 C 50.67128372192383 87 56.17134094238281 85.88993835449219 61.34736633300781 83.70065307617188 C 66.34834289550781 81.58542633056641 70.84030914306641 78.55665588378906 74.69847869873047 74.69847869873047 C 78.55665588378906 70.84029388427734 81.58542633056641 66.34834289550781 83.70065307617188 61.34736633300781 C 85.88993835449219 56.17132568359375 87 50.67128372192383 87 44.99999618530273 C 87 39.32870864868164 85.88993835449219 33.82865142822266 83.70065307617188 28.65262603759766 C 81.58542633056641 23.65165710449219 78.55665588378906 19.15968322753906 74.69847869873047 15.301513671875 C 70.84030914306641 11.44333648681641 66.34834289550781 8.414566040039062 61.34736633300781 6.299339294433594 C 56.17134094238281 4.110054016113281 50.67128372192383 2.999992370605469 44.99999618530273 2.999992370605469 M 44.99999618530273 -7.62939453125e-06 C 69.85281372070312 -7.62939453125e-06 90 20.14717864990234 90 44.99999618530273 C 90 69.85279846191406 69.85281372070312 90 44.99999618530273 90 C 20.14717864990234 90 -7.62939453125e-06 69.85279846191406 -7.62939453125e-06 44.99999618530273 C -7.62939453125e-06 20.14717864990234 20.14717864990234 -7.62939453125e-06 44.99999618530273 -7.62939453125e-06 Z" stroke="none" fill="#268985"/>
                  </g>
                </g>
              </g>
            </g>
          </g>
        </g>
      </g>
    </g>
    <g id="internet-de-las-cosas_1_" data-name="internet-de-las-cosas (1)" transform="translate(226.568 9282.351)">
      <g id="Grupo_1226686" data-name="Grupo 1226686" transform="translate(0.736 14.741)">
        <path id="Trazado_1058418" data-name="Trazado 1058418" d="M37.03,27.344A12.447,12.447,0,0,1,60.25,34.781,8.331,8.331,0,0,1,59.38,51.4H25.49a8.331,8.331,0,0,1-1.755-16.476,9.432,9.432,0,0,1,13.3-7.578Z" transform="translate(-16.082 -21.006)" fill="#4090ff" fill-rule="evenodd"/>
        <path id="Trazado_1058419" data-name="Trazado 1058419" d="M346.334,162.444a2.106,2.106,0,1,0-2.106-2.106A2.106,2.106,0,0,0,346.334,162.444Z" transform="translate(-308.538 -143.707)" fill="#3eac5a" fill-rule="evenodd"/>
        <path id="Trazado_1058420" data-name="Trazado 1058420" d="M467.316,359.366a2.106,2.106,0,1,0-2.106-2.106A2.106,2.106,0,0,0,467.316,359.366Z" transform="translate(-416.716 -319.789)" fill="#3eac5a" fill-rule="evenodd"/>
        <path id="Trazado_1058421" data-name="Trazado 1058421" d="M413.8,415.606a2.106,2.106,0,1,0-2.106-2.106A2.106,2.106,0,0,0,413.8,415.606Z" transform="translate(-368.862 -370.077)" fill="#e13f4d" fill-rule="evenodd"/>
        <path id="Trazado_1058422" data-name="Trazado 1058422" d="M274.985,455.4a2.106,2.106,0,1,0-2.106-2.106A2.106,2.106,0,0,0,274.985,455.4Z" transform="translate(-244.74 -405.663)" fill="#e6a74e" fill-rule="evenodd"/>
        <path id="Trazado_1058423" data-name="Trazado 1058423" d="M201.426,455.4a2.106,2.106,0,1,0-2.106-2.106A2.106,2.106,0,0,0,201.426,455.4Z" transform="translate(-178.965 -405.663)" fill="#e6a74e" fill-rule="evenodd"/>
        <path id="Trazado_1058424" data-name="Trazado 1058424" d="M236.151,169.644a2.106,2.106,0,1,0-2.106-2.106A2.106,2.106,0,0,0,236.151,169.644Z" transform="translate(-210.015 -150.145)" fill="#e6a74e" fill-rule="evenodd"/>
        <path id="Trazado_1058425" data-name="Trazado 1058425" d="M192.186,115.785a2.106,2.106,0,1,0-2.106-2.106A2.106,2.106,0,0,0,192.186,115.785Z" transform="translate(-170.703 -101.986)" fill="#3eac5a" fill-rule="evenodd"/>
        <path id="Trazado_1058426" data-name="Trazado 1058426" d="M130.078,162.444a2.106,2.106,0,1,0-2.106-2.106A2.106,2.106,0,0,0,130.078,162.444Z" transform="translate(-115.168 -143.707)" fill="#e13f4d" fill-rule="evenodd"/>
        <path id="Trazado_1058427" data-name="Trazado 1058427" d="M9.1,359.366A2.106,2.106,0,1,0,6.99,357.26,2.106,2.106,0,0,0,9.1,359.366Z" transform="translate(-6.99 -319.789)" fill="#e13f4d" fill-rule="evenodd"/>
        <path id="Trazado_1058428" data-name="Trazado 1058428" d="M62.614,415.606a2.106,2.106,0,1,0-2.106-2.106A2.106,2.106,0,0,0,62.614,415.606Z" transform="translate(-54.844 -370.077)" fill="#3eac5a" fill-rule="evenodd"/>
        <path id="Trazado_1058429" data-name="Trazado 1058429" d="M284.226,115.785a2.106,2.106,0,1,0-2.106-2.106A2.106,2.106,0,0,0,284.226,115.785Z" transform="translate(-253.003 -101.986)" fill="#e13f4d" fill-rule="evenodd"/>
        <path id="Trazado_1058430" data-name="Trazado 1058430" d="M19.86,43.842A8.362,8.362,0,0,1,26.439,35.7a9.43,9.43,0,0,1,13.292-7.578,12.461,12.461,0,0,1,13-6.153,12.467,12.467,0,0,0-15.7,5.358,9.432,9.432,0,0,0-13.3,7.578,8.33,8.33,0,0,0,.8,16.419,8.352,8.352,0,0,1-4.68-7.482Z" transform="translate(-16.087 -20.989)" fill="#3a82e6" fill-rule="evenodd"/>
        <path id="Trazado_1058431" data-name="Trazado 1058431" d="M361.211,159.849a2.108,2.108,0,1,0,1.272,1.935,2.106,2.106,0,0,0-1.272-1.935Z" transform="translate(-322.584 -145.153)" fill="#45bf64" fill-rule="evenodd"/>
        <path id="Trazado_1058432" data-name="Trazado 1058432" d="M482.193,356.772a2.106,2.106,0,1,0,1.275,1.935A2.106,2.106,0,0,0,482.193,356.772Z" transform="translate(-430.762 -321.236)" fill="#45bf64" fill-rule="evenodd"/>
        <path id="Trazado_1058433" data-name="Trazado 1058433" d="M428.675,413.011a2.106,2.106,0,1,0,1.275,1.935A2.106,2.106,0,0,0,428.675,413.011Z" transform="translate(-382.908 -371.523)" fill="#fa4655" fill-rule="evenodd"/>
        <path id="Trazado_1058434" data-name="Trazado 1058434" d="M289.885,452.809a2.106,2.106,0,1,0,1.275,1.935A2.108,2.108,0,0,0,289.885,452.809Z" transform="translate(-258.808 -407.109)" fill="#ffba57" fill-rule="evenodd"/>
        <path id="Trazado_1058435" data-name="Trazado 1058435" d="M216.3,452.809a2.106,2.106,0,1,0,1.275,1.935A2.106,2.106,0,0,0,216.3,452.809Z" transform="translate(-193.011 -407.109)" fill="#ffba57" fill-rule="evenodd"/>
        <path id="Trazado_1058436" data-name="Trazado 1058436" d="M251.053,167.049a2.106,2.106,0,1,0,1.275,1.935A2.108,2.108,0,0,0,251.053,167.049Z" transform="translate(-224.086 -151.591)" fill="#ffba57" fill-rule="evenodd"/>
        <path id="Trazado_1058437" data-name="Trazado 1058437" d="M207.063,117.061a2.106,2.106,0,1,1,1.274-1.935A2.106,2.106,0,0,1,207.063,117.061Z" transform="translate(-184.75 -103.433)" fill="#45bf64" fill-rule="evenodd"/>
        <path id="Trazado_1058438" data-name="Trazado 1058438" d="M144.984,163.719a2.106,2.106,0,0,1,0-3.87,2.108,2.108,0,0,1,0,3.87Z" transform="translate(-129.24 -145.153)" fill="#fa4655" fill-rule="evenodd"/>
        <path id="Trazado_1058439" data-name="Trazado 1058439" d="M23.995,360.642a2.108,2.108,0,0,1,0-3.87,2.106,2.106,0,0,1,0,3.87Z" transform="translate(-21.058 -321.236)" fill="#fa4655" fill-rule="evenodd"/>
        <path id="Trazado_1058440" data-name="Trazado 1058440" d="M77.513,416.881a2.108,2.108,0,0,1,0-3.87,2.106,2.106,0,0,1,0,3.87Z" transform="translate(-68.912 -371.523)" fill="#45bf64" fill-rule="evenodd"/>
        <path id="Trazado_1058441" data-name="Trazado 1058441" d="M299.126,113.191a2.106,2.106,0,1,0,1.274,1.935A2.108,2.108,0,0,0,299.126,113.191Z" transform="translate(-267.072 -103.433)" fill="#fa4655" fill-rule="evenodd"/>
      </g>
      <path id="Trazado_1058442" data-name="Trazado 1058442" d="M51.335,49.364a2.852,2.852,0,0,0-2.748,2.106H43.568v-5.6h.465A9.073,9.073,0,0,0,45.7,27.883a13.187,13.187,0,0,0-24.318-7.735A10.174,10.174,0,0,0,7.721,28.059a9.072,9.072,0,0,0,2.424,17.813h.462v5.6H5.591a2.847,2.847,0,1,0,0,1.482h5.756a.741.741,0,0,0,.741-.741V45.873h5.09V57.422H11.255a2.847,2.847,0,1,0,0,1.482H17.92a.741.741,0,0,0,.741-.741V45.873h3.795V59.626a2.847,2.847,0,1,0,1.482,0V45.873h6.3V59.626a2.847,2.847,0,1,0,1.482,0V45.873h3.795v12.29a.741.741,0,0,0,.741.741h6.665a2.847,2.847,0,1,0,0-1.482H37V45.873h5.088v6.339a.741.741,0,0,0,.741.741h5.759a2.847,2.847,0,1,0,2.748-3.588ZM2.843,53.577a1.365,1.365,0,1,1,1.365-1.365,1.365,1.365,0,0,1-1.365,1.365Zm5.664,5.952a1.365,1.365,0,1,1,1.365-1.365,1.365,1.365,0,0,1-1.365,1.365Zm16.055,2.847A1.365,1.365,0,1,1,23.2,61.01a1.365,1.365,0,0,1,1.365,1.365Zm7.785,0a1.365,1.365,0,1,1-1.365-1.365,1.365,1.365,0,0,1,1.365,1.365ZM45.671,56.8a1.365,1.365,0,1,1-1.365,1.365A1.365,1.365,0,0,1,45.671,56.8ZM37,44.391v-3.2a.741.741,0,0,0-.37-.642L32.7,38.279v-9.1a2.847,2.847,0,1,0-1.482,0v9.524a.741.741,0,0,0,.37.642l3.928,2.267v2.776H31.722V42.117a.741.741,0,0,0-.37-.642l-3.739-2.159V34.882a2.847,2.847,0,1,0-1.482,0v4.862a.741.741,0,0,0,.37.642l3.739,2.159v1.846h-6.3V42.117a.741.741,0,1,0-1.482,0v2.274h-3.8V41.615l3.928-2.267a.741.741,0,0,0,.37-.642V29.182a2.847,2.847,0,1,0-1.482,0v9.1L17.55,40.546a.741.741,0,0,0-.37.642v3.2h-5.09V40.6l3.928-2.267a.741.741,0,0,0,.37-.642V34.12a2.847,2.847,0,1,0-1.482,0v3.141l-3.928,2.267a.741.741,0,0,0-.37.642v4.221h-.462a7.59,7.59,0,0,1-1.6-15.01.741.741,0,0,0,.58-.647,8.691,8.691,0,0,1,12.25-6.981.741.741,0,0,0,.952-.31,11.705,11.705,0,0,1,21.836,6.994.741.741,0,0,0,.66.815,7.59,7.59,0,0,1-.793,15.138h-.465V40.17a.741.741,0,0,0-.37-.642L39.27,37.261V34.12a2.845,2.845,0,1,0-1.482,0V37.69a.741.741,0,0,0,.37.642L42.087,40.6v3.793ZM31.959,27.8a1.365,1.365,0,1,1,1.365-1.365A1.365,1.365,0,0,1,31.959,27.8Zm-5.088,5.7a1.365,1.365,0,1,1,1.365-1.365A1.365,1.365,0,0,1,26.872,33.5Zm-4.653-5.7a1.365,1.365,0,1,1,1.365-1.365A1.365,1.365,0,0,1,22.219,27.8Zm-6.572,4.938a1.365,1.365,0,1,1,1.365-1.365,1.365,1.365,0,0,1-1.365,1.365Zm22.883,0a1.365,1.365,0,1,1,1.365-1.365A1.365,1.365,0,0,1,38.529,32.736Zm12.806,20.84A1.365,1.365,0,1,1,52.7,52.211,1.365,1.365,0,0,1,51.335,53.576Z" transform="translate(0)"/>
    </g>
  </g>
</svg>
