<svg xmlns="http://www.w3.org/2000/svg" xmlns:xlink="http://www.w3.org/1999/xlink" width="113" height="113" viewBox="0 0 113 113">
  <defs>
    <filter id="Trazado_982547" x="0" y="0" width="113" height="113" filterUnits="userSpaceOnUse">
      <feOffset dy="3" input="SourceAlpha"/>
      <feGaussianBlur stdDeviation="3" result="blur"/>
      <feFlood flood-opacity="0.161"/>
      <feComposite operator="in" in2="blur"/>
      <feComposite in="SourceGraphic"/>
    </filter>
  </defs>
  <g id="Grupo_1226702" data-name="Grupo 1226702" transform="translate(-1131.676 -9887.012)">
    <g id="Grupo_1226510" data-name="Grupo 1226510" transform="translate(1140.676 9893.012)">
      <g id="Grupo_1211209" data-name="Grupo 1211209">
        <g id="Grupo_1210737" data-name="Grupo 1210737">
          <g id="Grupo_1210537" data-name="Grupo 1210537">
            <g id="Grupo_1164202" data-name="Grupo 1164202">
              <g id="Grupo_1158168" data-name="Grupo 1158168">
                <g id="Grupo_1152576" data-name="Grupo 1152576">
                  <g id="Grupo_1148633" data-name="Grupo 1148633">
                    <g id="Grupo_1148525" data-name="Grupo 1148525">
                      <g transform="matrix(1, 0, 0, 1, -9, -6)" filter="url(#Trazado_982547)">
                        <g id="Trazado_982547-2" data-name="Trazado 982547" transform="translate(9 6)" fill="#fdf6e4">
                          <path d="M 47.5 93.5 C 41.28937149047852 93.5 35.26533508300781 92.28397369384766 29.59518623352051 89.88570404052734 C 24.11771965026855 87.56893157958984 19.19813346862793 84.25196075439453 14.97309303283691 80.02691650390625 C 10.74804019927979 75.80186462402344 7.431066513061523 70.88229370117188 5.114293098449707 65.40481567382812 C 2.716026782989502 59.73468017578125 1.5 53.71062850952148 1.5 47.5 C 1.5 41.28937149047852 2.716026782989502 35.26533508300781 5.114293098449707 29.59518623352051 C 7.431066513061523 24.11771965026855 10.74804019927979 19.19813346862793 14.97309303283691 14.97309303283691 C 19.19813346862793 10.74804019927979 24.11771965026855 7.431066513061523 29.59518623352051 5.114293098449707 C 35.26533508300781 2.716026782989502 41.28937149047852 1.5 47.5 1.5 C 53.71062850952148 1.5 59.73468017578125 2.716026782989502 65.40481567382812 5.114293098449707 C 70.88229370117188 7.431066513061523 75.80186462402344 10.74804019927979 80.02691650390625 14.97309303283691 C 84.25196075439453 19.19813346862793 87.56893157958984 24.11771965026855 89.88570404052734 29.59518623352051 C 92.28397369384766 35.26533508300781 93.5 41.28937149047852 93.5 47.5 C 93.5 53.71062850952148 92.28397369384766 59.73468017578125 89.88570404052734 65.40481567382812 C 87.56893157958984 70.88229370117188 84.25196075439453 75.80186462402344 80.02691650390625 80.02691650390625 C 75.80186462402344 84.25196075439453 70.88229370117188 87.56893157958984 65.40481567382812 89.88570404052734 C 59.73468017578125 92.28397369384766 53.71062850952148 93.5 47.5 93.5 Z" stroke="none"/>
                          <path d="M 47.5 3 C 41.49121475219727 3 35.66376876831055 4.176155090332031 30.17950439453125 6.495796203613281 C 24.88084411621094 8.736953735351562 20.12152099609375 11.94598388671875 16.03375244140625 16.03375244140625 C 11.94598388671875 20.12152099609375 8.736953735351562 24.88084411621094 6.495796203613281 30.17950439453125 C 4.176155090332031 35.66376876831055 3 41.49121475219727 3 47.5 C 3 53.50878524780273 4.176155090332031 59.33623123168945 6.495796203613281 64.82049560546875 C 8.736953735351562 70.11915588378906 11.94598388671875 74.87847900390625 16.03375244140625 78.96624755859375 C 20.12152099609375 83.05401611328125 24.88084411621094 86.26304626464844 30.17950439453125 88.50419616699219 C 35.66376876831055 90.82384490966797 41.49121475219727 92 47.5 92 C 53.50878524780273 92 59.33623123168945 90.82384490966797 64.82049560546875 88.50419616699219 C 70.11915588378906 86.26304626464844 74.87847900390625 83.05401611328125 78.96624755859375 78.96624755859375 C 83.05401611328125 74.87847900390625 86.26304626464844 70.11915588378906 88.50419616699219 64.82049560546875 C 90.82384490966797 59.33623123168945 92 53.50878524780273 92 47.5 C 92 41.49121475219727 90.82384490966797 35.66376876831055 88.50419616699219 30.17950439453125 C 86.26304626464844 24.88084411621094 83.05401611328125 20.12152099609375 78.96624755859375 16.03375244140625 C 74.87847900390625 11.94598388671875 70.11915588378906 8.736953735351562 64.82049560546875 6.495796203613281 C 59.33623123168945 4.176155090332031 53.50878524780273 3 47.5 3 M 47.5 0 C 73.7335205078125 0 95 21.2664794921875 95 47.5 C 95 73.7335205078125 73.7335205078125 95 47.5 95 C 21.2664794921875 95 0 73.7335205078125 0 47.5 C 0 21.2664794921875 21.2664794921875 0 47.5 0 Z" stroke="none" fill="#f5b104"/>
                        </g>
                      </g>
                    </g>
                  </g>
                </g>
              </g>
            </g>
          </g>
        </g>
      </g>
    </g>
    <g id="Filled_cutting_stoke_Expand" transform="translate(1143.263 9895.599)">
      <g id="Grupo_1226701" data-name="Grupo 1226701" transform="translate(16 16)">
        <g id="Grupo_1226694" data-name="Grupo 1226694" transform="translate(0 0)">
          <g id="Grupo_1226690" data-name="Grupo 1226690" transform="translate(42.406)">
            <path id="Trazado_1058453" data-name="Trazado 1058453" d="M377.2,24h11.083a1.2,1.2,0,0,1,1.2,1.2V40.143a1.2,1.2,0,0,1-1.2,1.2H377.2a1.2,1.2,0,0,1-1.2-1.2V25.2A1.2,1.2,0,0,1,377.2,24Z" transform="translate(-375.036 -23.036)" fill="#b3e9ff"/>
            <path id="Trazado_1058454" data-name="Trazado 1058454" d="M381.252,35.275H370.168A2.171,2.171,0,0,1,368,33.107V18.168A2.171,2.171,0,0,1,370.168,16h11.083a2.171,2.171,0,0,1,2.168,2.168V33.107A2.171,2.171,0,0,1,381.252,35.275ZM370.168,17.928a.241.241,0,0,0-.241.241V33.107a.241.241,0,0,0,.241.241h11.083a.241.241,0,0,0,.241-.241V18.168a.241.241,0,0,0-.241-.241Z" transform="translate(-368 -16)"/>
            <path id="Trazado_1058455" data-name="Trazado 1058455" d="M400,56h7.71v1.928H400Z" transform="translate(-396.145 -51.181)"/>
            <path id="Trazado_1058456" data-name="Trazado 1058456" d="M400,88h2.891v1.928H400Z" transform="translate(-396.145 -79.326)"/>
            <path id="Trazado_1058457" data-name="Trazado 1058457" d="M440,88h2.891v1.928H440Z" transform="translate(-431.326 -79.326)"/>
            <path id="Trazado_1058458" data-name="Trazado 1058458" d="M400,120h7.71v1.928H400Z" transform="translate(-396.145 -107.471)"/>
          </g>
          <g id="Grupo_1226691" data-name="Grupo 1226691">
            <path id="Trazado_1058459" data-name="Trazado 1058459" d="M25.2,24H36.288a1.2,1.2,0,0,1,1.2,1.2V40.143a1.2,1.2,0,0,1-1.2,1.2H25.2a1.2,1.2,0,0,1-1.2-1.2V25.2A1.2,1.2,0,0,1,25.2,24Z" transform="translate(-23.036 -23.036)" fill="#b3e9ff"/>
            <path id="Trazado_1058460" data-name="Trazado 1058460" d="M29.252,35.275H18.168A2.171,2.171,0,0,1,16,33.107V24.674h1.928v8.433a.241.241,0,0,0,.241.241H29.252a.241.241,0,0,0,.241-.241V18.168a.241.241,0,0,0-.241-.241H18.168a.241.241,0,0,0-.241.241v4.578H16V18.168A2.171,2.171,0,0,1,18.168,16H29.252a2.171,2.171,0,0,1,2.168,2.168V33.107A2.171,2.171,0,0,1,29.252,35.275Z" transform="translate(-16 -16)"/>
            <path id="Trazado_1058461" data-name="Trazado 1058461" d="M48,56h7.71v1.928H48Z" transform="translate(-44.145 -51.181)"/>
            <path id="Trazado_1058462" data-name="Trazado 1058462" d="M48,88h2.891v1.928H48Z" transform="translate(-44.145 -79.326)"/>
            <path id="Trazado_1058463" data-name="Trazado 1058463" d="M88,88h2.891v1.928H88Z" transform="translate(-79.326 -79.326)"/>
            <path id="Trazado_1058464" data-name="Trazado 1058464" d="M48,120h7.71v1.928H48Z" transform="translate(-44.145 -107.471)"/>
          </g>
          <g id="Grupo_1226692" data-name="Grupo 1226692" transform="translate(42.406 38.55)">
            <path id="Trazado_1058465" data-name="Trazado 1058465" d="M377.2,344h11.083a1.2,1.2,0,0,1,1.2,1.2v14.938a1.2,1.2,0,0,1-1.2,1.2H377.2a1.2,1.2,0,0,1-1.2-1.2V345.2A1.2,1.2,0,0,1,377.2,344Z" transform="translate(-375.036 -343.036)" fill="#b3e9ff"/>
            <path id="Trazado_1058466" data-name="Trazado 1058466" d="M381.252,355.275H370.168A2.171,2.171,0,0,1,368,353.107V338.168A2.171,2.171,0,0,1,370.168,336h11.083a2.171,2.171,0,0,1,2.168,2.168V346.6h-1.928v-8.433a.241.241,0,0,0-.241-.241H370.168a.241.241,0,0,0-.241.241v14.938a.241.241,0,0,0,.241.241h11.083a.241.241,0,0,0,.241-.241v-4.578h1.928v4.578A2.171,2.171,0,0,1,381.252,355.275Z" transform="translate(-368 -336)"/>
            <path id="Trazado_1058467" data-name="Trazado 1058467" d="M400,376h7.71v1.928H400Z" transform="translate(-396.145 -371.181)"/>
            <path id="Trazado_1058468" data-name="Trazado 1058468" d="M400,408h2.891v1.927H400Z" transform="translate(-396.145 -399.326)"/>
            <path id="Trazado_1058469" data-name="Trazado 1058469" d="M440,408h2.891v1.927H440Z" transform="translate(-431.326 -399.326)"/>
            <path id="Trazado_1058470" data-name="Trazado 1058470" d="M400,440h7.71v1.928H400Z" transform="translate(-396.145 -427.471)"/>
          </g>
          <g id="Grupo_1226693" data-name="Grupo 1226693" transform="translate(0 38.55)">
            <path id="Trazado_1058471" data-name="Trazado 1058471" d="M25.2,344H36.288a1.2,1.2,0,0,1,1.2,1.2v14.938a1.2,1.2,0,0,1-1.2,1.2H25.2a1.2,1.2,0,0,1-1.2-1.2V345.2A1.2,1.2,0,0,1,25.2,344Z" transform="translate(-23.036 -343.036)" fill="#b3e9ff"/>
            <path id="Trazado_1058472" data-name="Trazado 1058472" d="M29.252,355.275H18.168A2.171,2.171,0,0,1,16,353.107V338.168A2.171,2.171,0,0,1,18.168,336H29.252a2.171,2.171,0,0,1,2.168,2.168v14.938A2.171,2.171,0,0,1,29.252,355.275ZM18.168,337.928a.241.241,0,0,0-.241.241v14.938a.241.241,0,0,0,.241.241H29.252a.241.241,0,0,0,.241-.241V338.168a.241.241,0,0,0-.241-.241Z" transform="translate(-16 -336)"/>
            <path id="Trazado_1058473" data-name="Trazado 1058473" d="M48,376h7.71v1.928H48Z" transform="translate(-44.145 -371.181)"/>
            <path id="Trazado_1058474" data-name="Trazado 1058474" d="M48,408h2.891v1.927H48Z" transform="translate(-44.145 -399.326)"/>
            <path id="Trazado_1058475" data-name="Trazado 1058475" d="M88,408h2.891v1.927H88Z" transform="translate(-79.326 -399.326)"/>
            <path id="Trazado_1058476" data-name="Trazado 1058476" d="M48,440h7.71v1.928H48Z" transform="translate(-44.145 -427.471)"/>
          </g>
        </g>
        <g id="Grupo_1226695" data-name="Grupo 1226695" transform="translate(16.384 16.384)">
          <path id="Trazado_1058477" data-name="Trazado 1058477" d="M175.42,161.2v2.65H161.2a1.2,1.2,0,0,0-1.2,1.2v13.011a1.2,1.2,0,0,0,1.2,1.2h20.721a1.2,1.2,0,0,0,1.2-1.2V161.2a1.2,1.2,0,0,0-1.2-1.2h-5.3A1.2,1.2,0,0,0,175.42,161.2Z" transform="translate(-159.036 -159.036)" fill="#25b1fa"/>
          <path id="Trazado_1058478" data-name="Trazado 1058478" d="M174.889,173.2H158.746v-1.928h16.143a.241.241,0,0,0,.241-.241V154.168a.241.241,0,0,0-.241-.241h-5.3a.241.241,0,0,0-.241.241v2.65a.964.964,0,0,1-.964.964H154.168a.241.241,0,0,0-.241.241v13.011a.241.241,0,0,0,.241.241h2.65V173.2h-2.65A2.171,2.171,0,0,1,152,171.034V158.024a2.171,2.171,0,0,1,2.168-2.168H167.42v-1.687A2.171,2.171,0,0,1,169.589,152h5.3a2.171,2.171,0,0,1,2.168,2.168v16.866A2.171,2.171,0,0,1,174.889,173.2Z" transform="translate(-152 -152)"/>
          <path id="Trazado_1058479" data-name="Trazado 1058479" d="M219.562,229.3a2.412,2.412,0,0,0-3-2.337,3.856,3.856,0,0,0-7.573.385,2.409,2.409,0,0,0,.931,4.313v.048h7.71v-.048a2.41,2.41,0,0,0,1.928-2.361Z" transform="translate(-201.25 -215.324)" fill="#f2fbff"/>
          <path id="Trazado_1058480" data-name="Trazado 1058480" d="M210.592,225.631h-7.71a.96.96,0,0,1-.518-.151,3.373,3.373,0,0,1-1.3-5.689,4.821,4.821,0,0,1,9.13-.906,3.373,3.373,0,0,1,.917,6.594A.96.96,0,0,1,210.592,225.631Zm-7.409-1.928h7.108a.94.94,0,0,1,.109-.029,1.446,1.446,0,0,0-.631-2.822l-.012,0a.964.964,0,0,1-1.168-.7l0-.011a2.892,2.892,0,0,0-5.68.289.963.963,0,0,1-.39.655,1.446,1.446,0,0,0,.557,2.589A.956.956,0,0,1,203.183,223.7Z" transform="translate(-194.208 -208.283)"/>
        </g>
        <g id="Grupo_1226700" data-name="Grupo 1226700" transform="translate(4.818 5.781)">
          <g id="Grupo_1226696" data-name="Grupo 1226696" transform="translate(13.494)">
            <circle id="Elipse_13548" data-name="Elipse 13548" cx="2" cy="2" r="2" transform="translate(8.688 1.219)" fill="#fac850"/>
            <path id="Trazado_1058481" data-name="Trazado 1058481" d="M189.2,65.918h-7.875a2.891,2.891,0,0,0-5.452,0H168v1.928h7.875a2.906,2.906,0,0,0,1.762,1.762v5.948h1.928V69.608a2.906,2.906,0,0,0,1.762-1.762H189.2Zm-10.6,1.928a.964.964,0,1,1,.964-.964A.964.964,0,0,1,178.6,67.846Z" transform="translate(-168 -63.989)"/>
          </g>
          <g id="Grupo_1226697" data-name="Grupo 1226697" transform="translate(13.494 34.697)">
            <circle id="Elipse_13549" data-name="Elipse 13549" cx="2" cy="2" r="2" transform="translate(8.688 6.522)" fill="#fac850"/>
            <path id="Trazado_1058482" data-name="Trazado 1058482" d="M189.2,359.71h-7.875a2.906,2.906,0,0,0-1.762-1.762V352h-1.928v5.948a2.906,2.906,0,0,0-1.762,1.762H168v1.928h7.875a2.891,2.891,0,0,0,5.452,0H189.2Zm-10.6,1.928a.964.964,0,1,1,.964-.964A.964.964,0,0,1,178.6,361.638Z" transform="translate(-168 -352)"/>
          </g>
          <g id="Grupo_1226698" data-name="Grupo 1226698" transform="translate(0 15.421)">
            <ellipse id="Elipse_13550" data-name="Elipse 13550" cx="2.5" cy="2" rx="2.5" ry="2" transform="translate(0.182 5.797)" fill="#fac850"/>
            <path id="Trazado_1058483" data-name="Trazado 1058483" d="M61.773,199.71a2.9,2.9,0,0,0-1.928-2.726V192H57.918v4.984a2.891,2.891,0,0,0,0,5.452v4.984h1.928v-4.984A2.9,2.9,0,0,0,61.773,199.71Zm-2.891.964a.964.964,0,1,1,.964-.964A.964.964,0,0,1,58.882,200.674Z" transform="translate(-55.989 -192)"/>
          </g>
          <g id="Grupo_1226699" data-name="Grupo 1226699" transform="translate(42.406 15.421)">
            <circle id="Elipse_13551" data-name="Elipse 13551" cx="2" cy="2" r="2" transform="translate(0.777 5.797)" fill="#fac850"/>
            <path id="Trazado_1058484" data-name="Trazado 1058484" d="M413.773,199.71a2.9,2.9,0,0,0-1.928-2.726V192h-1.928v4.984a2.891,2.891,0,0,0,0,5.452v4.984h1.928v-4.984A2.9,2.9,0,0,0,413.773,199.71Zm-2.891.964a.964.964,0,1,1,.964-.964A.964.964,0,0,1,410.882,200.674Z" transform="translate(-407.989 -192)"/>
          </g>
        </g>
      </g>
    </g>
  </g>
</svg>
