<svg xmlns="http://www.w3.org/2000/svg" xmlns:xlink="http://www.w3.org/1999/xlink" width="113" height="113" viewBox="0 0 113 113">
  <defs>
    <filter id="Trazado_982547" x="0" y="0" width="113" height="113" filterUnits="userSpaceOnUse">
      <feOffset dy="3" input="SourceAlpha"/>
      <feGaussianBlur stdDeviation="3" result="blur"/>
      <feFlood flood-opacity="0.161"/>
      <feComposite operator="in" in2="blur"/>
      <feComposite in="SourceGraphic"/>
    </filter>
  </defs>
  <g id="Grupo_1226712" data-name="Grupo 1226712" transform="translate(-4176.51 -9894.607)">
    <g id="Grupo_1226512" data-name="Grupo 1226512" transform="translate(4185.51 9900.607)">
      <g id="Grupo_1211208" data-name="Grupo 1211208" transform="translate(0)">
        <g id="Grupo_1210736" data-name="Grupo 1210736">
          <g id="Grupo_1210537" data-name="Grupo 1210537">
            <g id="Grupo_1164202" data-name="Grupo 1164202">
              <g id="Grupo_1158168" data-name="Grupo 1158168">
                <g id="Grupo_1152576" data-name="Grupo 1152576">
                  <g id="Grupo_1148633" data-name="Grupo 1148633">
                    <g id="Grupo_1148525" data-name="Grupo 1148525">
                      <g transform="matrix(1, 0, 0, 1, -9, -6)" filter="url(#Trazado_982547)">
                        <g id="Trazado_982547-2" data-name="Trazado 982547" transform="translate(9 6)" fill="#fdf6e4">
                          <path d="M 47.5 93.5 C 41.28937149047852 93.5 35.26533508300781 92.28397369384766 29.59518623352051 89.88570404052734 C 24.11771965026855 87.56893157958984 19.19813346862793 84.25196075439453 14.97309303283691 80.02691650390625 C 10.74804019927979 75.80186462402344 7.431066513061523 70.88229370117188 5.114293098449707 65.40481567382812 C 2.716026782989502 59.73468017578125 1.5 53.71062850952148 1.5 47.5 C 1.5 41.28937149047852 2.716026782989502 35.26533508300781 5.114293098449707 29.59518623352051 C 7.431066513061523 24.11771965026855 10.74804019927979 19.19813346862793 14.97309303283691 14.97309303283691 C 19.19813346862793 10.74804019927979 24.11771965026855 7.431066513061523 29.59518623352051 5.114293098449707 C 35.26533508300781 2.716026782989502 41.28937149047852 1.5 47.5 1.5 C 53.71062850952148 1.5 59.73468017578125 2.716026782989502 65.40481567382812 5.114293098449707 C 70.88229370117188 7.431066513061523 75.80186462402344 10.74804019927979 80.02691650390625 14.97309303283691 C 84.25196075439453 19.19813346862793 87.56893157958984 24.11771965026855 89.88570404052734 29.59518623352051 C 92.28397369384766 35.26533508300781 93.5 41.28937149047852 93.5 47.5 C 93.5 53.71062850952148 92.28397369384766 59.73468017578125 89.88570404052734 65.40481567382812 C 87.56893157958984 70.88229370117188 84.25196075439453 75.80186462402344 80.02691650390625 80.02691650390625 C 75.80186462402344 84.25196075439453 70.88229370117188 87.56893157958984 65.40481567382812 89.88570404052734 C 59.73468017578125 92.28397369384766 53.71062850952148 93.5 47.5 93.5 Z" stroke="none"/>
                          <path d="M 47.5 3 C 41.49121475219727 3 35.66376876831055 4.176155090332031 30.17950439453125 6.495796203613281 C 24.88084411621094 8.736953735351562 20.12152099609375 11.94598388671875 16.03375244140625 16.03375244140625 C 11.94598388671875 20.12152099609375 8.736953735351562 24.88084411621094 6.495796203613281 30.17950439453125 C 4.176155090332031 35.66376876831055 3 41.49121475219727 3 47.5 C 3 53.50878524780273 4.176155090332031 59.33623123168945 6.495796203613281 64.82049560546875 C 8.736953735351562 70.11915588378906 11.94598388671875 74.87847900390625 16.03375244140625 78.96624755859375 C 20.12152099609375 83.05401611328125 24.88084411621094 86.26304626464844 30.17950439453125 88.50419616699219 C 35.66376876831055 90.82384490966797 41.49121475219727 92 47.5 92 C 53.50878524780273 92 59.33623123168945 90.82384490966797 64.82049560546875 88.50419616699219 C 70.11915588378906 86.26304626464844 74.87847900390625 83.05401611328125 78.96624755859375 78.96624755859375 C 83.05401611328125 74.87847900390625 86.26304626464844 70.11915588378906 88.50419616699219 64.82049560546875 C 90.82384490966797 59.33623123168945 92 53.50878524780273 92 47.5 C 92 41.49121475219727 90.82384490966797 35.66376876831055 88.50419616699219 30.17950439453125 C 86.26304626464844 24.88084411621094 83.05401611328125 20.12152099609375 78.96624755859375 16.03375244140625 C 74.87847900390625 11.94598388671875 70.11915588378906 8.736953735351562 64.82049560546875 6.495796203613281 C 59.33623123168945 4.176155090332031 53.50878524780273 3 47.5 3 M 47.5 0 C 73.7335205078125 0 95 21.2664794921875 95 47.5 C 95 73.7335205078125 73.7335205078125 95 47.5 95 C 21.2664794921875 95 0 73.7335205078125 0 47.5 C 0 21.2664794921875 21.2664794921875 0 47.5 0 Z" stroke="none" fill="#f5b104"/>
                        </g>
                      </g>
                    </g>
                  </g>
                </g>
              </g>
            </g>
          </g>
        </g>
      </g>
    </g>
    <g id="use-case_10841341" transform="translate(4196.807 9911.791)">
      <g id="Grupo_1226704" data-name="Grupo 1226704" transform="translate(7.495 7.623)">
        <path id="Trazado_1058485" data-name="Trazado 1058485" d="M22.265,386.294v-7.876h8l3,2.773v5.1Z" transform="translate(-20.559 -335.582)" fill="#fff"/>
        <path id="Trazado_1058486" data-name="Trazado 1058486" d="M203.265,386.294v-7.876h8l3,2.773v5.1Z" transform="translate(-180.649 -335.582)" fill="#fff"/>
        <path id="Trazado_1058487" data-name="Trazado 1058487" d="M379.26,386.294v-7.876h8l3,2.773v5.1Z" transform="translate(-336.312 -335.582)" fill="#fff"/>
        <rect id="Rectángulo_422539" data-name="Rectángulo 422539" width="2.888" height="7.876" transform="translate(1.706 42.836)" fill="#e3edf6"/>
        <rect id="Rectángulo_422540" data-name="Rectángulo 422540" width="2.888" height="7.876" transform="translate(22.616 42.836)" fill="#e3edf6"/>
        <rect id="Rectángulo_422541" data-name="Rectángulo 422541" width="2.888" height="7.876" transform="translate(42.948 42.836)" fill="#e3edf6"/>
        <g id="Grupo_1226703" data-name="Grupo 1226703" transform="translate(12.534)">
          <path id="Trazado_1058488" data-name="Trazado 1058488" d="M230.9,20.624h14.452a4.621,4.621,0,0,1,4.621,4.621v16.4a1.733,1.733,0,0,1-1.733,1.733H230.9Z" transform="translate(-217.626 -19.122)" fill="#a4fef1"/>
          <path id="Trazado_1058489" data-name="Trazado 1058489" d="M146.608,31.883a1.733,1.733,0,0,1-1.733-1.733V14.283a1.733,1.733,0,0,0-1.733-1.733h-9.3a4.281,4.281,0,0,1-3.876-2.464h0a4.281,4.281,0,0,0-3.876-2.464h-8.358a1.733,1.733,0,0,0-1.733,1.733V28.417a3.466,3.466,0,0,0,3.466,3.466h27.148Z" transform="translate(-115.994 -7.623)" fill="#a4fef1"/>
          <path id="Trazado_1058490" data-name="Trazado 1058490" d="M118.883,28.418V9.357a1.733,1.733,0,0,1,1.733-1.733h-2.888A1.733,1.733,0,0,0,116,9.357V28.418a3.466,3.466,0,0,0,3.466,3.466h2.888A3.466,3.466,0,0,1,118.883,28.418Z" transform="translate(-115.995 -7.624)" fill="#24eed7"/>
        </g>
        <path id="Trazado_1058491" data-name="Trazado 1058491" d="M23.668,417.487v5.545a1.733,1.733,0,0,1-1.733,1.733H9.228a1.733,1.733,0,0,1-1.733-1.733v-8.664h4.726l1.848,1.5h4.4a1.732,1.732,0,0,1,1.728,1.617Z" transform="translate(-7.495 -367.379)" fill="#ffc277"/>
        <path id="Trazado_1058492" data-name="Trazado 1058492" d="M204.673,417.487v5.545a1.733,1.733,0,0,1-1.733,1.733H190.233a1.734,1.734,0,0,1-1.733-1.733v-8.664h4.726l1.848,1.5h4.4a1.732,1.732,0,0,1,1.728,1.617Z" transform="translate(-167.589 -367.379)" fill="#ffc277"/>
        <path id="Trazado_1058493" data-name="Trazado 1058493" d="M380.668,417.487v5.545a1.733,1.733,0,0,1-1.733,1.733H366.228a1.733,1.733,0,0,1-1.733-1.733v-8.664h4.726l1.848,1.5h4.4a1.732,1.732,0,0,1,1.728,1.617Z" transform="translate(-323.253 -367.379)" fill="#ffc277"/>
        <path id="Trazado_1058494" data-name="Trazado 1058494" d="M10.383,423.032v-8.664H7.495v8.664a1.733,1.733,0,0,0,1.733,1.733h2.888A1.733,1.733,0,0,1,10.383,423.032Z" transform="translate(-7.495 -367.379)" fill="#fcad42"/>
        <path id="Trazado_1058495" data-name="Trazado 1058495" d="M191.388,423.032v-8.664H188.5v8.664a1.734,1.734,0,0,0,1.733,1.733h2.888A1.733,1.733,0,0,1,191.388,423.032Z" transform="translate(-167.589 -367.379)" fill="#fcad42"/>
        <path id="Trazado_1058496" data-name="Trazado 1058496" d="M367.383,423.032v-8.664h-2.888v8.664a1.733,1.733,0,0,0,1.733,1.733h2.888A1.733,1.733,0,0,1,367.383,423.032Z" transform="translate(-323.253 -367.379)" fill="#fcad42"/>
      </g>
      <g id="Grupo_1226710" data-name="Grupo 1226710" transform="translate(7.496 7.624)">
        <g id="Grupo_1226705" data-name="Grupo 1226705" transform="translate(12.534 0)">
          <path id="Trazado_1058497" data-name="Trazado 1058497" d="M231.9,20.628H246.24a4.62,4.62,0,0,1,4.621,4.621v1.512" transform="translate(-218.515 -19.126)" fill="none" stroke="#000" stroke-miterlimit="10" stroke-width="2"/>
          <path id="Trazado_1058498" data-name="Trazado 1058498" d="M115.995,139.588v5.55a3.466,3.466,0,0,0,3.466,3.466h26.917" transform="translate(-115.995 -124.343)" fill="none" stroke="#000" stroke-miterlimit="10" stroke-width="2"/>
          <path id="Trazado_1058499" data-name="Trazado 1058499" d="M148.342,17V30.155a1.733,1.733,0,1,1-3.466,0V14.288a1.733,1.733,0,0,0-1.733-1.733h-9.3a4.278,4.278,0,0,1-3.876-2.464,4.283,4.283,0,0,0-3.877-2.463h-8.358A1.733,1.733,0,0,0,116,9.361V21.14" transform="translate(-115.995 -7.628)" fill="none" stroke="#000" stroke-miterlimit="10" stroke-width="2"/>
        </g>
        <g id="Grupo_1226706" data-name="Grupo 1226706" transform="translate(0 46.988)">
          <path id="Trazado_1058500" data-name="Trazado 1058500" d="M21.71,424.764H9.233A1.733,1.733,0,0,1,7.5,423.031v-8.664h4.726l1.848,1.5h4.4a1.733,1.733,0,0,1,1.733,1.733v5.43a1.733,1.733,0,0,0,1.733,1.733h0a1.733,1.733,0,0,0,1.733-1.733v-5.545H20.208" transform="translate(-7.5 -414.367)" fill="none" stroke="#000" stroke-miterlimit="10" stroke-width="2"/>
        </g>
        <path id="Trazado_1058501" data-name="Trazado 1058501" d="M22.265,382.571v-4.153h8l3,2.773v5.1" transform="translate(-20.559 -335.583)" fill="none" stroke="#000" stroke-miterlimit="10" stroke-width="2"/>
        <g id="Grupo_1226707" data-name="Grupo 1226707" transform="translate(20.91 46.988)">
          <path id="Trazado_1058502" data-name="Trazado 1058502" d="M202.71,424.764H190.233a1.733,1.733,0,0,1-1.733-1.733v-8.664h4.726l1.848,1.5h4.4a1.733,1.733,0,0,1,1.733,1.733v5.43a1.733,1.733,0,0,0,1.733,1.733h0a1.733,1.733,0,0,0,1.733-1.733v-5.545h-3.466" transform="translate(-188.5 -414.367)" fill="none" stroke="#000" stroke-miterlimit="10" stroke-width="2"/>
        </g>
        <path id="Trazado_1058503" data-name="Trazado 1058503" d="M203.265,382.571v-4.153h8l3,2.773v5.1" transform="translate(-180.649 -335.583)" fill="none" stroke="#000" stroke-miterlimit="10" stroke-width="2"/>
        <g id="Grupo_1226708" data-name="Grupo 1226708" transform="translate(41.242 46.988)">
          <path id="Trazado_1058504" data-name="Trazado 1058504" d="M378.7,424.764H366.228a1.733,1.733,0,0,1-1.733-1.733v-8.664h4.726l1.848,1.5h4.4A1.733,1.733,0,0,1,377.2,417.6v5.43a1.733,1.733,0,0,0,1.733,1.733h0a1.733,1.733,0,0,0,1.733-1.733v-5.545H377.2" transform="translate(-364.495 -414.367)" fill="none" stroke="#000" stroke-miterlimit="10" stroke-width="2"/>
        </g>
        <path id="Trazado_1058505" data-name="Trazado 1058505" d="M379.26,382.571v-4.153h8l3,2.773v5.1" transform="translate(-336.313 -335.583)" fill="none" stroke="#000" stroke-miterlimit="10" stroke-width="2"/>
        <line id="Línea_2923" data-name="Línea 2923" y2="18.576" transform="translate(28.707 24.26)" fill="none" stroke="#000" stroke-miterlimit="10" stroke-width="2"/>
        <path id="Trazado_1058506" data-name="Trazado 1058506" d="M77.5,307.309v-5.822a3.466,3.466,0,0,1,3.466-3.466h34.31a3.466,3.466,0,0,1,3.466,3.466v5.822" transform="translate(-69.411 -264.473)" fill="none" stroke="#000" stroke-miterlimit="10" stroke-width="2"/>
        <g id="Grupo_1226709" data-name="Grupo 1226709" transform="translate(16.604 10.581)">
          <line id="Línea_2924" data-name="Línea 2924" y2="7.509" fill="none" stroke="#000" stroke-miterlimit="10" stroke-width="2"/>
          <line id="Línea_2925" data-name="Línea 2925" y2="7.509" transform="translate(10.397)" fill="none" stroke="#000" stroke-miterlimit="10" stroke-width="2"/>
          <line id="Línea_2926" data-name="Línea 2926" y2="7.509" transform="translate(13.863)" fill="none" stroke="#000" stroke-miterlimit="10" stroke-width="2"/>
          <path id="Trazado_1058507" data-name="Trazado 1058507" d="M182.963,112.459h0a1.733,1.733,0,0,1-1.733-1.733v-2.31a1.733,1.733,0,0,1,1.733-1.733h0a1.733,1.733,0,0,1,1.733,1.733v2.31A1.733,1.733,0,0,1,182.963,112.459Z" transform="translate(-177.764 -105.821)" fill="none" stroke="#000" stroke-miterlimit="10" stroke-width="2"/>
          <path id="Trazado_1058508" data-name="Trazado 1058508" d="M302.963,112.459h0a1.733,1.733,0,0,0,1.733-1.733v-2.31a1.733,1.733,0,0,0-1.733-1.733h0a1.733,1.733,0,0,0-1.733,1.733v2.31A1.733,1.733,0,0,0,302.963,112.459Z" transform="translate(-283.901 -105.821)" fill="none" stroke="#000" stroke-miterlimit="10" stroke-width="2"/>
        </g>
      </g>
      <g id="Grupo_1226711" data-name="Grupo 1226711" transform="translate(22.642 11.41)">
        <line id="Línea_2927" data-name="Línea 2927" x2="2.525" transform="translate(0)" fill="none" stroke="#fff" stroke-miterlimit="10" stroke-width="2"/>
        <line id="Línea_2928" data-name="Línea 2928" x2="2.525" transform="translate(3.787)" fill="none" stroke="#fff" stroke-miterlimit="10" stroke-width="2"/>
      </g>
    </g>
  </g>
</svg>
