<svg xmlns="http://www.w3.org/2000/svg" xmlns:xlink="http://www.w3.org/1999/xlink" width="113" height="113" viewBox="0 0 113 113">
  <defs>
    <filter id="Trazado_982547" x="0" y="0" width="113" height="113" filterUnits="userSpaceOnUse">
      <feOffset dy="3" input="SourceAlpha"/>
      <feGaussianBlur stdDeviation="3" result="blur"/>
      <feFlood flood-opacity="0.161"/>
      <feComposite operator="in" in2="blur"/>
      <feComposite in="SourceGraphic"/>
    </filter>
  </defs>
  <g id="Grupo_1226716" data-name="Grupo 1226716" transform="translate(-4518.51 -9894.607)">
    <g id="Grupo_1226513" data-name="Grupo 1226513" transform="translate(4527.51 9900.607)">
      <g id="Grupo_1211208" data-name="Grupo 1211208" transform="translate(0)">
        <g id="Grupo_1210736" data-name="Grupo 1210736">
          <g id="Grupo_1210537" data-name="Grupo 1210537">
            <g id="Grupo_1164202" data-name="Grupo 1164202">
              <g id="Grupo_1158168" data-name="Grupo 1158168">
                <g id="Grupo_1152576" data-name="Grupo 1152576">
                  <g id="Grupo_1148633" data-name="Grupo 1148633">
                    <g id="Grupo_1148525" data-name="Grupo 1148525">
                      <g transform="matrix(1, 0, 0, 1, -9, -6)" filter="url(#Trazado_982547)">
                        <g id="Trazado_982547-2" data-name="Trazado 982547" transform="translate(9 6)" fill="#fdf6e4">
                          <path d="M 47.5 93.5 C 41.28937149047852 93.5 35.26533508300781 92.28397369384766 29.59518623352051 89.88570404052734 C 24.11771965026855 87.56893157958984 19.19813346862793 84.25196075439453 14.97309303283691 80.02691650390625 C 10.74804019927979 75.80186462402344 7.431066513061523 70.88229370117188 5.114293098449707 65.40481567382812 C 2.716026782989502 59.73468017578125 1.5 53.71062850952148 1.5 47.5 C 1.5 41.28937149047852 2.716026782989502 35.26533508300781 5.114293098449707 29.59518623352051 C 7.431066513061523 24.11771965026855 10.74804019927979 19.19813346862793 14.97309303283691 14.97309303283691 C 19.19813346862793 10.74804019927979 24.11771965026855 7.431066513061523 29.59518623352051 5.114293098449707 C 35.26533508300781 2.716026782989502 41.28937149047852 1.5 47.5 1.5 C 53.71062850952148 1.5 59.73468017578125 2.716026782989502 65.40481567382812 5.114293098449707 C 70.88229370117188 7.431066513061523 75.80186462402344 10.74804019927979 80.02691650390625 14.97309303283691 C 84.25196075439453 19.19813346862793 87.56893157958984 24.11771965026855 89.88570404052734 29.59518623352051 C 92.28397369384766 35.26533508300781 93.5 41.28937149047852 93.5 47.5 C 93.5 53.71062850952148 92.28397369384766 59.73468017578125 89.88570404052734 65.40481567382812 C 87.56893157958984 70.88229370117188 84.25196075439453 75.80186462402344 80.02691650390625 80.02691650390625 C 75.80186462402344 84.25196075439453 70.88229370117188 87.56893157958984 65.40481567382812 89.88570404052734 C 59.73468017578125 92.28397369384766 53.71062850952148 93.5 47.5 93.5 Z" stroke="none"/>
                          <path d="M 47.5 3 C 41.49121475219727 3 35.66376876831055 4.176155090332031 30.17950439453125 6.495796203613281 C 24.88084411621094 8.736953735351562 20.12152099609375 11.94598388671875 16.03375244140625 16.03375244140625 C 11.94598388671875 20.12152099609375 8.736953735351562 24.88084411621094 6.495796203613281 30.17950439453125 C 4.176155090332031 35.66376876831055 3 41.49121475219727 3 47.5 C 3 53.50878524780273 4.176155090332031 59.33623123168945 6.495796203613281 64.82049560546875 C 8.736953735351562 70.11915588378906 11.94598388671875 74.87847900390625 16.03375244140625 78.96624755859375 C 20.12152099609375 83.05401611328125 24.88084411621094 86.26304626464844 30.17950439453125 88.50419616699219 C 35.66376876831055 90.82384490966797 41.49121475219727 92 47.5 92 C 53.50878524780273 92 59.33623123168945 90.82384490966797 64.82049560546875 88.50419616699219 C 70.11915588378906 86.26304626464844 74.87847900390625 83.05401611328125 78.96624755859375 78.96624755859375 C 83.05401611328125 74.87847900390625 86.26304626464844 70.11915588378906 88.50419616699219 64.82049560546875 C 90.82384490966797 59.33623123168945 92 53.50878524780273 92 47.5 C 92 41.49121475219727 90.82384490966797 35.66376876831055 88.50419616699219 30.17950439453125 C 86.26304626464844 24.88084411621094 83.05401611328125 20.12152099609375 78.96624755859375 16.03375244140625 C 74.87847900390625 11.94598388671875 70.11915588378906 8.736953735351562 64.82049560546875 6.495796203613281 C 59.33623123168945 4.176155090332031 53.50878524780273 3 47.5 3 M 47.5 0 C 73.7335205078125 0 95 21.2664794921875 95 47.5 C 95 73.7335205078125 73.7335205078125 95 47.5 95 C 21.2664794921875 95 0 73.7335205078125 0 47.5 C 0 21.2664794921875 21.2664794921875 0 47.5 0 Z" stroke="none" fill="#f5b104"/>
                        </g>
                      </g>
                    </g>
                  </g>
                </g>
              </g>
            </g>
          </g>
        </g>
      </g>
    </g>
    <g id="big-data_1_" data-name="big-data (1)" transform="translate(4543 9916)">
      <g id="Grupo_1226714" data-name="Grupo 1226714">
        <circle id="Elipse_13552" data-name="Elipse 13552" cx="12" cy="12" r="12" transform="translate(20 20)" fill="#69d6f4"/>
        <g id="Grupo_1226713" data-name="Grupo 1226713">
          <path id="Trazado_1058509" data-name="Trazado 1058509" d="M60,38H52a2,2,0,0,1-2-2V28a2,2,0,0,1,2-2h8a2,2,0,0,1,2,2v8A2,2,0,0,1,60,38Z" fill="#fcd770"/>
          <path id="Trazado_1058510" data-name="Trazado 1058510" d="M36,62H28a2,2,0,0,1-2-2V52a2,2,0,0,1,2-2h8a2,2,0,0,1,2,2v8A2,2,0,0,1,36,62Z" fill="#fcd770"/>
          <path id="Trazado_1058511" data-name="Trazado 1058511" d="M12,38H4a2,2,0,0,1-2-2V28a2,2,0,0,1,2-2h8a2,2,0,0,1,2,2v8A2,2,0,0,1,12,38Z" fill="#fcd770"/>
          <path id="Trazado_1058512" data-name="Trazado 1058512" d="M36,14H28a2,2,0,0,1-2-2V4a2,2,0,0,1,2-2h8a2,2,0,0,1,2,2v8A2,2,0,0,1,36,14Z" fill="#fcd770"/>
        </g>
        <circle id="Elipse_13553" data-name="Elipse 13553" cx="2" cy="2" r="2" transform="translate(7 58)" fill="#ff826e"/>
        <path id="Trazado_1058513" data-name="Trazado 1058513" d="M59,7a3,3,0,0,1,0,6H49a3,3,0,0,1,0-6A5,5,0,0,1,59,7Z" fill="#e6e9ed"/>
        <circle id="Elipse_13554" data-name="Elipse 13554" cx="9" cy="9" r="9" transform="translate(2 2)" fill="#e6e9ed"/>
        <path id="Trazado_1058514" data-name="Trazado 1058514" d="M11,12a6.984,6.984,0,0,1,6.7,4.99l.01.01c-.12.12-.23.24-.35.36A8.993,8.993,0,0,1,4.29,17l.01-.01A6.984,6.984,0,0,1,11,12Z" fill="#ff826e"/>
        <circle id="Elipse_13555" data-name="Elipse 13555" cx="3" cy="3" r="3" transform="translate(8 6)" fill="#f0d0b4"/>
        <path id="Trazado_1058515" data-name="Trazado 1058515" d="M62,50V60a2.006,2.006,0,0,1-2,2H46a2.006,2.006,0,0,1-2-2V50a2.006,2.006,0,0,1,2-2H60A2.006,2.006,0,0,1,62,50Z" fill="#f0d0b4"/>
      </g>
      <g id="Grupo_1226715" data-name="Grupo 1226715">
        <path id="Trazado_1058516" data-name="Trazado 1058516" d="M9,57a3,3,0,1,0,3,3A3,3,0,0,0,9,57Zm0,4a1,1,0,1,1,1-1A1,1,0,0,1,9,61Z"/>
        <path id="Trazado_1058517" data-name="Trazado 1058517" d="M4.051,55.05l1.414,1.414a5,5,0,0,1,7.07,0l1.414-1.414a7,7,0,0,0-9.9,0Z"/>
        <path id="Trazado_1058518" data-name="Trazado 1058518" d="M1.222,52.222l1.414,1.414a9.012,9.012,0,0,1,12.729,0l1.414-1.414a11.013,11.013,0,0,0-15.557,0Z"/>
        <path id="Trazado_1058519" data-name="Trazado 1058519" d="M59,57H57V53H55v4H53V55H51v2H49V51H47v8H59Z"/>
        <path id="Trazado_1058520" data-name="Trazado 1058520" d="M60,25H52a3,3,0,0,0-3,3v3H44.949a12.926,12.926,0,0,0-3.088-7.447L51.414,14H59a4,4,0,0,0,.935-7.89,6,6,0,0,0-11.87,0,3.989,3.989,0,0,0,.559,7.852l-8.177,8.177A12.929,12.929,0,0,0,33,19.051V15h3a3,3,0,0,0,3-3V4a3,3,0,0,0-3-3H28a3,3,0,0,0-3,3v8a3,3,0,0,0,3,3h3v4.051a12.926,12.926,0,0,0-7.447,3.088l-4.814-4.815a10.025,10.025,0,1,0-1.415,1.414l4.814,4.815A12.929,12.929,0,0,0,19.05,31H15V28a3,3,0,0,0-3-3H4a3,3,0,0,0-3,3v8a3,3,0,0,0,3,3h8a3,3,0,0,0,3-3V33h4.051a12.926,12.926,0,0,0,3.088,7.447l-6.846,6.846,1.414,1.414,6.846-6.846A12.929,12.929,0,0,0,31,44.949V49H28a3,3,0,0,0-3,3v8a3,3,0,0,0,3,3h8a3,3,0,0,0,3-3V52a3,3,0,0,0-3-3H33V44.949a12.926,12.926,0,0,0,7.447-3.088l5.177,5.177A2.994,2.994,0,0,0,43,50V60a3,3,0,0,0,3,3H60a3,3,0,0,0,3-3V50a3,3,0,0,0-3-3H48.414l-6.553-6.553A12.929,12.929,0,0,0,44.949,33H49v3a3,3,0,0,0,3,3h8a3,3,0,0,0,3-3V28a3,3,0,0,0-3-3ZM37,9H27V7H37ZM28,3h8a1,1,0,0,1,1,1V5H27V4A1,1,0,0,1,28,3Zm-1,9V11H37v1a1,1,0,0,1-1,1H28A1,1,0,0,1,27,12ZM4,27h8a1,1,0,0,1,1,1v1H3V28A1,1,0,0,1,4,27Zm9,4v2H3V31Zm-1,6H4a1,1,0,0,1-1-1V35H13v1A1,1,0,0,1,12,37ZM27,55H37v2H27Zm9,6H28a1,1,0,0,1-1-1V59H37v1A1,1,0,0,1,36,61Zm1-9v1H27V52a1,1,0,0,1,1-1h8A1,1,0,0,1,37,52Zm-5-9c-1.075,0-2.22-1.527-3.009-4H35.01c-.79,2.473-1.935,4-3.01,4Zm-3.519-6a24.8,24.8,0,0,1-.46-4h7.958a24.91,24.91,0,0,1-.46,4Zm-7.43-4h4.971a27.425,27.425,0,0,0,.409,4H22.215a10.881,10.881,0,0,1-1.164-4ZM32,21c1.075,0,2.22,1.527,3.009,4H28.99c.79-2.473,1.935-4,3.01-4Zm3.519,6a24.8,24.8,0,0,1,.46,4H28.021a24.91,24.91,0,0,1,.46-4Zm-9.5,4H21.051a10.9,10.9,0,0,1,1.164-4h4.216a27.288,27.288,0,0,0-.409,4Zm11.956,2h4.971a10.9,10.9,0,0,1-1.164,4H37.569A27.288,27.288,0,0,0,37.978,33Zm0-2a27.425,27.425,0,0,0-.409-4h4.216a10.919,10.919,0,0,1,1.164,4ZM47,10a2,2,0,0,1,2-2h1V7a4,4,0,0,1,7.909-.849A4.007,4.007,0,0,0,55,10h2a2,2,0,1,1,2,2H49A2,2,0,0,1,47,10ZM40.479,25H37.106a13.82,13.82,0,0,0-1.391-3.341A11.049,11.049,0,0,1,40.479,25ZM28.286,21.659A13.86,13.86,0,0,0,26.895,25H23.522A11.037,11.037,0,0,1,28.286,21.659ZM11,3a7.984,7.984,0,0,1,6.905,12.02A8.057,8.057,0,0,0,14,11.619a4,4,0,1,0-6,0,8.062,8.062,0,0,0-3.906,3.4A7.985,7.985,0,0,1,11,3ZM9,9a2,2,0,1,1,2,2A2,2,0,0,1,9,9ZM5.458,16.756a5.967,5.967,0,0,1,11.084,0,7.966,7.966,0,0,1-11.084,0ZM23.521,39h3.373a13.82,13.82,0,0,0,1.391,3.341A11.049,11.049,0,0,1,23.521,39Zm12.193,3.341A13.86,13.86,0,0,0,37.1,39h3.373A11.037,11.037,0,0,1,35.714,42.341ZM61,50V60a1,1,0,0,1-1,1H46a1,1,0,0,1-1-1V50a1,1,0,0,1,1-1H60A1,1,0,0,1,61,50ZM52,27h8a1,1,0,0,1,1,1v1H51V28A1,1,0,0,1,52,27Zm9,4v2H51V31Zm-1,6H52a1,1,0,0,1-1-1V35H61v1A1,1,0,0,1,60,37Z"/>
      </g>
    </g>
  </g>
</svg>
