<svg xmlns="http://www.w3.org/2000/svg" xmlns:xlink="http://www.w3.org/1999/xlink" width="113" height="113" viewBox="0 0 113 113">
  <defs>
    <filter id="Trazado_982547" x="0" y="0" width="113" height="113" filterUnits="userSpaceOnUse">
      <feOffset dy="3" input="SourceAlpha"/>
      <feGaussianBlur stdDeviation="3" result="blur"/>
      <feFlood flood-opacity="0.161"/>
      <feComposite operator="in" in2="blur"/>
      <feComposite in="SourceGraphic"/>
    </filter>
  </defs>
  <g id="Grupo_1226722" data-name="Grupo 1226722" transform="translate(-813.166 -12171.335)">
    <g id="Grupo_1226563" data-name="Grupo 1226563" transform="translate(822.166 12177.335)">
      <g id="Grupo_1211208" data-name="Grupo 1211208" transform="translate(0)">
        <g id="Grupo_1210736" data-name="Grupo 1210736">
          <g id="Grupo_1210537" data-name="Grupo 1210537">
            <g id="Grupo_1164202" data-name="Grupo 1164202">
              <g id="Grupo_1158168" data-name="Grupo 1158168">
                <g id="Grupo_1152576" data-name="Grupo 1152576">
                  <g id="Grupo_1148633" data-name="Grupo 1148633">
                    <g id="Grupo_1148525" data-name="Grupo 1148525">
                      <g transform="matrix(1, 0, 0, 1, -9, -6)" filter="url(#Trazado_982547)">
                        <g id="Trazado_982547-2" data-name="Trazado 982547" transform="translate(9 6)" fill="#fdf6e4">
                          <path d="M 47.5 93.5 C 41.28937149047852 93.5 35.26533508300781 92.28397369384766 29.59518623352051 89.88570404052734 C 24.11771965026855 87.56893157958984 19.19813346862793 84.25196075439453 14.97309303283691 80.02691650390625 C 10.74804019927979 75.80186462402344 7.431066513061523 70.88229370117188 5.114293098449707 65.40481567382812 C 2.716026782989502 59.73468017578125 1.5 53.71062850952148 1.5 47.5 C 1.5 41.28937149047852 2.716026782989502 35.26533508300781 5.114293098449707 29.59518623352051 C 7.431066513061523 24.11771965026855 10.74804019927979 19.19813346862793 14.97309303283691 14.97309303283691 C 19.19813346862793 10.74804019927979 24.11771965026855 7.431066513061523 29.59518623352051 5.114293098449707 C 35.26533508300781 2.716026782989502 41.28937149047852 1.5 47.5 1.5 C 53.71062850952148 1.5 59.73468017578125 2.716026782989502 65.40481567382812 5.114293098449707 C 70.88229370117188 7.431066513061523 75.80186462402344 10.74804019927979 80.02691650390625 14.97309303283691 C 84.25196075439453 19.19813346862793 87.56893157958984 24.11771965026855 89.88570404052734 29.59518623352051 C 92.28397369384766 35.26533508300781 93.5 41.28937149047852 93.5 47.5 C 93.5 53.71062850952148 92.28397369384766 59.73468017578125 89.88570404052734 65.40481567382812 C 87.56893157958984 70.88229370117188 84.25196075439453 75.80186462402344 80.02691650390625 80.02691650390625 C 75.80186462402344 84.25196075439453 70.88229370117188 87.56893157958984 65.40481567382812 89.88570404052734 C 59.73468017578125 92.28397369384766 53.71062850952148 93.5 47.5 93.5 Z" stroke="none"/>
                          <path d="M 47.5 3 C 41.49121475219727 3 35.66376876831055 4.176155090332031 30.17950439453125 6.495796203613281 C 24.88084411621094 8.736953735351562 20.12152099609375 11.94598388671875 16.03375244140625 16.03375244140625 C 11.94598388671875 20.12152099609375 8.736953735351562 24.88084411621094 6.495796203613281 30.17950439453125 C 4.176155090332031 35.66376876831055 3 41.49121475219727 3 47.5 C 3 53.50878524780273 4.176155090332031 59.33623123168945 6.495796203613281 64.82049560546875 C 8.736953735351562 70.11915588378906 11.94598388671875 74.87847900390625 16.03375244140625 78.96624755859375 C 20.12152099609375 83.05401611328125 24.88084411621094 86.26304626464844 30.17950439453125 88.50419616699219 C 35.66376876831055 90.82384490966797 41.49121475219727 92 47.5 92 C 53.50878524780273 92 59.33623123168945 90.82384490966797 64.82049560546875 88.50419616699219 C 70.11915588378906 86.26304626464844 74.87847900390625 83.05401611328125 78.96624755859375 78.96624755859375 C 83.05401611328125 74.87847900390625 86.26304626464844 70.11915588378906 88.50419616699219 64.82049560546875 C 90.82384490966797 59.33623123168945 92 53.50878524780273 92 47.5 C 92 41.49121475219727 90.82384490966797 35.66376876831055 88.50419616699219 30.17950439453125 C 86.26304626464844 24.88084411621094 83.05401611328125 20.12152099609375 78.96624755859375 16.03375244140625 C 74.87847900390625 11.94598388671875 70.11915588378906 8.736953735351562 64.82049560546875 6.495796203613281 C 59.33623123168945 4.176155090332031 53.50878524780273 3 47.5 3 M 47.5 0 C 73.7335205078125 0 95 21.2664794921875 95 47.5 C 95 73.7335205078125 73.7335205078125 95 47.5 95 C 21.2664794921875 95 0 73.7335205078125 0 47.5 C 0 21.2664794921875 21.2664794921875 0 47.5 0 Z" stroke="none" fill="#f5b104"/>
                        </g>
                      </g>
                    </g>
                  </g>
                </g>
              </g>
            </g>
          </g>
        </g>
      </g>
    </g>
    <g id="online-streaming_10619653" transform="translate(804.789 12185.883)">
      <g id="Grupo_1226721" data-name="Grupo 1226721" transform="translate(39.182 8.999)">
        <g id="Grupo_1226718" data-name="Grupo 1226718" transform="translate(0 12.272)">
          <path id="Trazado_1058565" data-name="Trazado 1058565" d="M190.058,388.85h16.46v9.375h-16.46Z" transform="translate(-172.102 -354.589)" fill="#a79ba7" fill-rule="evenodd"/>
          <path id="Trazado_1058566" data-name="Trazado 1058566" d="M311.714,388.85h1.276v9.375h-1.276Z" transform="translate(-278.575 -354.589)" fill="#837683" fill-rule="evenodd"/>
          <path id="Trazado_1058567" data-name="Trazado 1058567" d="M113.444,457.523h35.583V454.78c0-1.509-1.545-2.743-3.433-2.743H116.878c-1.888,0-3.433,1.234-3.433,2.743v2.743Z" transform="translate(-105.05 -409.89)" fill="#eceff1" fill-rule="evenodd"/>
          <path id="Trazado_1058568" data-name="Trazado 1058568" d="M113.444,461.348h35.583V458.6a2.614,2.614,0,0,0-1.385-2.2,2.264,2.264,0,0,1,.294,1.107v2.743H113.444Z" transform="translate(-105.05 -413.715)" fill="#d1d1d6" fill-rule="evenodd"/>
          <path id="Trazado_1058569" data-name="Trazado 1058569" d="M50.211,114.335h44.32a4.038,4.038,0,0,1,4.026,4.026v27.7a4.038,4.038,0,0,1-4.026,4.026H50.211a4.038,4.038,0,0,1-4.026-4.026v-27.7A4.038,4.038,0,0,1,50.211,114.335Z" transform="translate(-46.185 -114.335)" fill="#eceff1" fill-rule="evenodd"/>
          <path id="Trazado_1058570" data-name="Trazado 1058570" d="M101.61,119.858a4.031,4.031,0,0,1,1.78,3.337v27.7a4.038,4.038,0,0,1-4.026,4.026H55.045a4.031,4.031,0,0,1-3.337-1.78,4,4,0,0,0,2.246.689h44.32A4.038,4.038,0,0,0,102.3,149.8V122.1A4,4,0,0,0,101.61,119.858Z" transform="translate(-51.019 -119.169)" fill="#d1d1d6" fill-rule="evenodd"/>
          <path id="Trazado_1058571" data-name="Trazado 1058571" d="M73.72,141.311h44.522a.56.56,0,0,1,.558.558v25.072H73.162V141.869A.56.56,0,0,1,73.72,141.311Z" transform="translate(-69.795 -137.944)" fill="#d8ecfe" fill-rule="evenodd"/>
          <path id="Trazado_1058572" data-name="Trazado 1058572" d="M416.879,141.311h2.182a.56.56,0,0,1,.558.558v25.072h-2.182V141.869a.56.56,0,0,0-.558-.558Z" transform="translate(-370.615 -137.944)" fill="#c4e2ff" fill-rule="evenodd"/>
        </g>
        <g id="Grupo_1226719" data-name="Grupo 1226719" transform="translate(18.627 19.121)">
          <circle id="Elipse_13556" data-name="Elipse 13556" cx="6.583" cy="6.583" r="6.583" transform="matrix(0.987, -0.16, 0.16, 0.987, 0, 2.107)" fill="#fe646f"/>
          <path id="Trazado_1058573" data-name="Trazado 1058573" d="M251.272,176.939a6.583,6.583,0,1,1,0,13.166,6.65,6.65,0,0,1-.674-.034,6.583,6.583,0,0,0,0-13.1,6.65,6.65,0,0,1,.674-.034Z" transform="translate(-243.714 -175.975)" fill="#fd4755" fill-rule="evenodd"/>
          <path id="Trazado_1058574" data-name="Trazado 1058574" d="M243.822,208.511l-4.585,2.647a.423.423,0,0,1-.635-.366V205.5a.423.423,0,0,1,.635-.366l4.585,2.647a.423.423,0,0,1,0,.733Z" transform="translate(-233.216 -200.598)" fill="#eceff1" fill-rule="evenodd"/>
          <path id="Trazado_1058575" data-name="Trazado 1058575" d="M243.823,208.511l-.533.308-4.052-2.339a.423.423,0,0,0-.635.367V205.5a.423.423,0,0,1,.635-.366l4.584,2.647a.423.423,0,0,1,0,.733Z" transform="translate(-233.216 -200.598)" fill="#d1d1d6" fill-rule="evenodd"/>
        </g>
        <g id="Grupo_1226720" data-name="Grupo 1226720" transform="translate(8.973 0)">
          <path id="Trazado_1058576" data-name="Trazado 1058576" d="M121.669,25.716a5.745,5.745,0,0,0,2.162,11.067h22.932a5.746,5.746,0,0,0,1.5-11.292,8.3,8.3,0,0,0-11.041-6.905,9.183,9.183,0,0,0-15.568,6.6C121.654,25.364,121.659,25.54,121.669,25.716Z" transform="translate(-118.085 -16.002)" fill="#8ac9fe" fill-rule="evenodd"/>
          <path id="Trazado_1058577" data-name="Trazado 1058577" d="M188.386,35.837a5.74,5.74,0,0,0-1.651-10.346,8.3,8.3,0,0,0-11.041-6.905,9.182,9.182,0,0,0-13.651.984,9.182,9.182,0,0,1,12,.666,8.3,8.3,0,0,1,11.041,6.905,5.769,5.769,0,0,1,4.247,5.546A5.7,5.7,0,0,1,188.386,35.837Z" transform="translate(-156.558 -16.003)" fill="#60b7ff" fill-rule="evenodd"/>
        </g>
      </g>
      <path id="Trazado_1058578" data-name="Trazado 1058578" d="M51.671,47.376V45.113a1,1,0,1,1,2,0v2.263a1,1,0,1,1-2,0Zm-2.891,0V45.113a1,1,0,0,1,2,0v2.263a1,1,0,0,1-2,0Zm6.67-1.132a1,1,0,0,1,1-1h5.005v-.133a1,1,0,1,1,2,0v.133H80.957a1,1,0,0,1,0,2H63.45v.133a1,1,0,1,1-2,0v-.133H56.448A1,1,0,0,1,55.45,46.245ZM66.986,25.483a1.618,1.618,0,1,1-1.618-1.618A1.618,1.618,0,0,1,66.986,25.483Zm2.583-3.543a1,1,0,1,1-1.474,1.347,3.609,3.609,0,0,0-5.454,0,1,1,0,0,1-1.474-1.347,5.6,5.6,0,0,1,8.4,0ZM56.75,18.448a1,1,0,0,1-.064-1.411,11.559,11.559,0,0,1,17.362,0,1,1,0,0,1-1.474,1.347,9.563,9.563,0,0,0-14.414,0,1,1,0,0,1-1.41.064Zm15.059,1.041a8.582,8.582,0,0,0-12.882,0A1,1,0,0,0,60.4,20.836a6.586,6.586,0,0,1,9.934,0,1,1,0,0,0,1.474-1.347ZM64.2,34.017l2.859,1.651L64.2,37.318Zm-2-1v5.294a1.418,1.418,0,0,0,2.132,1.231L68.915,36.9a1.422,1.422,0,0,0,0-2.462l-4.584-2.647A1.422,1.422,0,0,0,62.2,33.02ZM90.556,53V25.3a3.031,3.031,0,0,0-3.028-3.027H83.342a6.7,6.7,0,0,1,.224,1.37h4.063A1.559,1.559,0,0,1,89.186,25.2V50.24a1,1,0,0,1-1,1H42.548a1,1,0,0,1-1-1V25.2a1.559,1.559,0,0,1,1.557-1.557h4.062a6.754,6.754,0,0,1,.221-1.37H43.208A3.031,3.031,0,0,0,40.18,25.3V53a3.031,3.031,0,0,0,3.028,3.028h44.32A3.031,3.031,0,0,0,90.556,53ZM72.6,62.42H58.136v-4.4H72.6v4.4Zm9.562,3.742v1.745H48.574V66.162c0-.946,1.115-1.745,2.435-1.745H79.726C81.046,64.417,82.161,65.216,82.161,66.162ZM53.9,30.778a6.756,6.756,0,0,1-6.551-5.142h-3.8v23.6H87.189v-23.6h-3.8a6.756,6.756,0,0,1-6.551,5.142H71.169a7.582,7.582,0,1,1-11.6,0Zm17.051,4.889a5.555,5.555,0,0,0-2.89-4.889H62.673a5.583,5.583,0,1,0,8.279,4.889ZM52.118,19.636A4.746,4.746,0,0,0,53.9,28.781H76.834a4.747,4.747,0,0,0,1.237-9.331,1,1,0,0,1-.73-.856,7.3,7.3,0,0,0-9.711-6.073A1,1,0,0,1,66.6,12.3a8.185,8.185,0,0,0-13.876,5.883c0,.152,0,.311.014.473a1,1,0,0,1-.618.981Zm35.41.637h-5.1a6.769,6.769,0,0,0-3.193-2.542,9.3,9.3,0,0,0-11.7-7.277,10.182,10.182,0,0,0-16.812,7.632A6.752,6.752,0,0,0,48.3,20.273H43.208A5.03,5.03,0,0,0,38.183,25.3V53a5.03,5.03,0,0,0,5.025,5.024H56.139v4.4h-5.13c-2.444,0-4.432,1.679-4.432,3.742V68.9a1,1,0,0,0,1,1H83.16a1,1,0,0,0,1-1V66.162c0-2.063-1.988-3.742-4.432-3.742H74.6v-4.4H87.528A5.03,5.03,0,0,0,92.552,53V25.3a5.03,5.03,0,0,0-5.025-5.024Z" fill-rule="evenodd"/>
    </g>
  </g>
</svg>
