<svg xmlns="http://www.w3.org/2000/svg" xmlns:xlink="http://www.w3.org/1999/xlink" width="113" height="113" viewBox="0 0 113 113">
  <defs>
    <filter id="Trazado_982547" x="0" y="0" width="113" height="113" filterUnits="userSpaceOnUse">
      <feOffset dy="3" input="SourceAlpha"/>
      <feGaussianBlur stdDeviation="3" result="blur"/>
      <feFlood flood-opacity="0.161"/>
      <feComposite operator="in" in2="blur"/>
      <feComposite in="SourceGraphic"/>
    </filter>
  </defs>
  <g id="Grupo_1226724" data-name="Grupo 1226724" transform="translate(-1131.676 -12171.335)">
    <g id="Grupo_1226564" data-name="Grupo 1226564" transform="translate(1140.676 12177.335)">
      <g id="Grupo_1211209" data-name="Grupo 1211209">
        <g id="Grupo_1210737" data-name="Grupo 1210737">
          <g id="Grupo_1210537" data-name="Grupo 1210537">
            <g id="Grupo_1164202" data-name="Grupo 1164202">
              <g id="Grupo_1158168" data-name="Grupo 1158168">
                <g id="Grupo_1152576" data-name="Grupo 1152576">
                  <g id="Grupo_1148633" data-name="Grupo 1148633">
                    <g id="Grupo_1148525" data-name="Grupo 1148525">
                      <g transform="matrix(1, 0, 0, 1, -9, -6)" filter="url(#Trazado_982547)">
                        <g id="Trazado_982547-2" data-name="Trazado 982547" transform="translate(9 6)" fill="#fdf6e4">
                          <path d="M 47.5 93.5 C 41.28937149047852 93.5 35.26533508300781 92.28397369384766 29.59518623352051 89.88570404052734 C 24.11771965026855 87.56893157958984 19.19813346862793 84.25196075439453 14.97309303283691 80.02691650390625 C 10.74804019927979 75.80186462402344 7.431066513061523 70.88229370117188 5.114293098449707 65.40481567382812 C 2.716026782989502 59.73468017578125 1.5 53.71062850952148 1.5 47.5 C 1.5 41.28937149047852 2.716026782989502 35.26533508300781 5.114293098449707 29.59518623352051 C 7.431066513061523 24.11771965026855 10.74804019927979 19.19813346862793 14.97309303283691 14.97309303283691 C 19.19813346862793 10.74804019927979 24.11771965026855 7.431066513061523 29.59518623352051 5.114293098449707 C 35.26533508300781 2.716026782989502 41.28937149047852 1.5 47.5 1.5 C 53.71062850952148 1.5 59.73468017578125 2.716026782989502 65.40481567382812 5.114293098449707 C 70.88229370117188 7.431066513061523 75.80186462402344 10.74804019927979 80.02691650390625 14.97309303283691 C 84.25196075439453 19.19813346862793 87.56893157958984 24.11771965026855 89.88570404052734 29.59518623352051 C 92.28397369384766 35.26533508300781 93.5 41.28937149047852 93.5 47.5 C 93.5 53.71062850952148 92.28397369384766 59.73468017578125 89.88570404052734 65.40481567382812 C 87.56893157958984 70.88229370117188 84.25196075439453 75.80186462402344 80.02691650390625 80.02691650390625 C 75.80186462402344 84.25196075439453 70.88229370117188 87.56893157958984 65.40481567382812 89.88570404052734 C 59.73468017578125 92.28397369384766 53.71062850952148 93.5 47.5 93.5 Z" stroke="none"/>
                          <path d="M 47.5 3 C 41.49121475219727 3 35.66376876831055 4.176155090332031 30.17950439453125 6.495796203613281 C 24.88084411621094 8.736953735351562 20.12152099609375 11.94598388671875 16.03375244140625 16.03375244140625 C 11.94598388671875 20.12152099609375 8.736953735351562 24.88084411621094 6.495796203613281 30.17950439453125 C 4.176155090332031 35.66376876831055 3 41.49121475219727 3 47.5 C 3 53.50878524780273 4.176155090332031 59.33623123168945 6.495796203613281 64.82049560546875 C 8.736953735351562 70.11915588378906 11.94598388671875 74.87847900390625 16.03375244140625 78.96624755859375 C 20.12152099609375 83.05401611328125 24.88084411621094 86.26304626464844 30.17950439453125 88.50419616699219 C 35.66376876831055 90.82384490966797 41.49121475219727 92 47.5 92 C 53.50878524780273 92 59.33623123168945 90.82384490966797 64.82049560546875 88.50419616699219 C 70.11915588378906 86.26304626464844 74.87847900390625 83.05401611328125 78.96624755859375 78.96624755859375 C 83.05401611328125 74.87847900390625 86.26304626464844 70.11915588378906 88.50419616699219 64.82049560546875 C 90.82384490966797 59.33623123168945 92 53.50878524780273 92 47.5 C 92 41.49121475219727 90.82384490966797 35.66376876831055 88.50419616699219 30.17950439453125 C 86.26304626464844 24.88084411621094 83.05401611328125 20.12152099609375 78.96624755859375 16.03375244140625 C 74.87847900390625 11.94598388671875 70.11915588378906 8.736953735351562 64.82049560546875 6.495796203613281 C 59.33623123168945 4.176155090332031 53.50878524780273 3 47.5 3 M 47.5 0 C 73.7335205078125 0 95 21.2664794921875 95 47.5 C 95 73.7335205078125 73.7335205078125 95 47.5 95 C 21.2664794921875 95 0 73.7335205078125 0 47.5 C 0 21.2664794921875 21.2664794921875 0 47.5 0 Z" stroke="none" fill="#f5b104"/>
                        </g>
                      </g>
                    </g>
                  </g>
                </g>
              </g>
            </g>
          </g>
        </g>
      </g>
    </g>
    <g id="distribuido-_3_" data-name="distribuido- (3)" transform="translate(1157.594 12197)">
      <g id="Grupo_1226723" data-name="Grupo 1226723" transform="translate(1.954 1.954)">
        <path id="Trazado_1058579" data-name="Trazado 1058579" d="M61.451,2V13.451H50V2Z" transform="translate(-4.196 -2)" fill="#ffeaa7"/>
        <path id="Trazado_1058580" data-name="Trazado 1058580" d="M37.451,7.725v5.725H26V2H37.451Z" transform="translate(-3.098 -2)" fill="#ffeaa7"/>
        <path id="Trazado_1058581" data-name="Trazado 1058581" d="M13.451,7.725v5.725H2V2H13.451Z" transform="translate(-2 -2)" fill="#ffeaa7"/>
      </g>
      <path id="Trazado_1058582" data-name="Trazado 1058582" d="M12,28V45.176a1.914,1.914,0,0,0,1.908,1.908H48.261a1.914,1.914,0,0,0,1.908-1.908V28Z" transform="translate(-0.503 -1.235)" fill="#e6e9ed"/>
      <path id="Trazado_1058583" data-name="Trazado 1058583" d="M50.17,21.908v5.725H12V23.817a1.914,1.914,0,0,1,1.908-1.908H32.993l1.345-1.345A1.914,1.914,0,0,1,35.694,20H48.261A1.914,1.914,0,0,1,50.17,21.908Z" transform="translate(-0.503 -0.869)" fill="#ff826e"/>
      <path id="Trazado_1058584" data-name="Trazado 1058584" d="M43.247,42.563a1.866,1.866,0,0,1,.563,1.345A1.914,1.914,0,0,1,41.9,45.817H20.908A1.922,1.922,0,0,1,19,43.908,1.914,1.914,0,0,1,20.908,42H41.9A1.866,1.866,0,0,1,43.247,42.563Z" transform="translate(-0.824 -1.876)" fill="#5cd6b3"/>
      <path id="Trazado_1058585" data-name="Trazado 1058585" d="M43.247,52.563a1.866,1.866,0,0,1,.563,1.345A1.914,1.914,0,0,1,41.9,55.817H20.908A1.922,1.922,0,0,1,19,53.908,1.914,1.914,0,0,1,20.908,52H41.9A1.866,1.866,0,0,1,43.247,52.563Z" transform="translate(-0.824 -2.334)" fill="#5cd6b3"/>
      <path id="Trazado_1058586" data-name="Trazado 1058586" d="M46.536,57.908v1.908a1.914,1.914,0,0,1-1.908,1.908H17.908A1.914,1.914,0,0,1,16,59.817V57.908A1.914,1.914,0,0,1,17.908,56H44.627A1.914,1.914,0,0,1,46.536,57.908Z" transform="translate(-0.686 -2.517)" fill="#fcd770"/>
      <path id="Trazado_1058587" data-name="Trazado 1058587" d="M46.536,47.908v1.908a1.914,1.914,0,0,1-1.908,1.908H17.908A1.914,1.914,0,0,1,16,49.817V47.908A1.914,1.914,0,0,1,17.908,46H44.627A1.914,1.914,0,0,1,46.536,47.908Z" transform="translate(-0.686 -2.059)" fill="#fcd770"/>
      <path id="Trazado_1058588" data-name="Trazado 1058588" d="M46.536,37.908v1.908a1.914,1.914,0,0,1-1.908,1.908H17.908A1.914,1.914,0,0,1,16,39.817V37.908A1.914,1.914,0,0,1,17.908,36H44.627A1.914,1.914,0,0,1,46.536,37.908Z" transform="translate(-0.686 -1.601)" fill="#fcd770"/>
      <path id="Trazado_1058589" data-name="Trazado 1058589" d="M47,23h1.908v1.908H47Z" transform="translate(-2.105 -1.007)"/>
      <path id="Trazado_1058590" data-name="Trazado 1058590" d="M43,23h1.908v1.908H43Z" transform="translate(-1.922 -1.007)"/>
      <path id="Trazado_1058591" data-name="Trazado 1058591" d="M39,23h1.908v1.908H39Z" transform="translate(-1.739 -1.007)"/>
      <path id="Trazado_1058592" data-name="Trazado 1058592" d="M5,5h5.725V6.908H5Z" transform="translate(-0.183 -0.183)"/>
      <path id="Trazado_1058593" data-name="Trazado 1058593" d="M5,9h5.725v1.908H5Z" transform="translate(-0.183 -0.366)"/>
      <path id="Trazado_1058594" data-name="Trazado 1058594" d="M29,5h5.725V6.908H29Z" transform="translate(-1.281 -0.183)"/>
      <path id="Trazado_1058595" data-name="Trazado 1058595" d="M29,9h5.725v1.908H29Z" transform="translate(-1.281 -0.366)"/>
      <path id="Trazado_1058596" data-name="Trazado 1058596" d="M60.163,14.359V1H46.8V6.725H37.261V1H23.9V6.725H14.359V1H1V14.359H14.359V8.634H23.9v5.725h5.725v5.725H13.405a2.866,2.866,0,0,0-2.863,2.863V43.941A2.866,2.866,0,0,0,13.405,46.8h.954v.954a2.866,2.866,0,0,0,2.863,2.863H17.4a2.681,2.681,0,0,0,0,1.908h-.176a2.866,2.866,0,0,0-2.863,2.863V57.3a2.866,2.866,0,0,0,2.863,2.863H43.941A2.866,2.866,0,0,0,46.8,57.3V55.392a2.866,2.866,0,0,0-2.863-2.863h-.176a2.681,2.681,0,0,0,0-1.908h.176A2.866,2.866,0,0,0,46.8,47.758V46.8h.954a2.866,2.866,0,0,0,2.863-2.863v-22.9a2.866,2.866,0,0,0-2.863-2.863H35.189a2.842,2.842,0,0,0-2.024.839l-1.07,1.07h-.559V14.359h5.725V8.634H46.8v5.725ZM12.451,12.451H2.908V2.908h9.542ZM44.9,55.392V57.3a.955.955,0,0,1-.954.954H17.222a.955.955,0,0,1-.954-.954V55.392a.955.955,0,0,1,.954-.954H43.941A.955.955,0,0,1,44.9,55.392Zm-2.863-3.817a.955.955,0,0,1-.954.954H20.085a.954.954,0,1,1,0-1.908H41.078A.955.955,0,0,1,42.032,51.575ZM44.9,47.758a.955.955,0,0,1-.954.954H17.222a.955.955,0,0,1-.954-.954V45.849a.955.955,0,0,1,.954-.954H43.941a.955.955,0,0,1,.954.954ZM19.131,42.032a.955.955,0,0,1,.954-.954H41.078a.954.954,0,0,1,0,1.908H20.085A.955.955,0,0,1,19.131,42.032ZM41.078,39.17H17.222a.955.955,0,0,1-.954-.954V36.307a.955.955,0,0,1,.954-.954H43.941a.955.955,0,0,1,.954.954v1.908a.955.955,0,0,1-.954.954Zm6.68,5.725h-1.13a2.859,2.859,0,0,0-2.687-1.908h-.176a2.681,2.681,0,0,0,0-1.908h.176A2.866,2.866,0,0,0,46.8,38.215V36.307a2.866,2.866,0,0,0-2.863-2.863H17.222a2.866,2.866,0,0,0-2.863,2.863v1.908a2.866,2.866,0,0,0,2.863,2.863H17.4a2.681,2.681,0,0,0,0,1.908h-.176A2.859,2.859,0,0,0,14.535,44.9h-1.13a.955.955,0,0,1-.954-.954V27.719H48.712V43.941A.955.955,0,0,1,47.758,44.9Zm-14.873-22.9,1.629-1.629a.963.963,0,0,1,.675-.28H47.758a.955.955,0,0,1,.954.954V25.81H12.451V22.948a.955.955,0,0,1,.954-.954Zm2.468-9.542H25.81V2.908h9.542ZM48.712,2.908h9.542v9.542H48.712Z"/>
      <path id="Trazado_1058597" data-name="Trazado 1058597" d="M53,5h5.725V6.908H53Z" transform="translate(-2.379 -0.183)"/>
      <path id="Trazado_1058598" data-name="Trazado 1058598" d="M53,9h5.725v1.908H53Z" transform="translate(-2.379 -0.366)"/>
      <path id="Trazado_1058599" data-name="Trazado 1058599" d="M15,31h1.908v1.908H15Z" transform="translate(-0.641 -1.373)"/>
      <path id="Trazado_1058600" data-name="Trazado 1058600" d="M19,31h1.908v1.908H19Z" transform="translate(-0.824 -1.373)"/>
      <path id="Trazado_1058601" data-name="Trazado 1058601" d="M23,31h1.908v1.908H23Z" transform="translate(-1.007 -1.373)"/>
    </g>
  </g>
</svg>
