<svg xmlns="http://www.w3.org/2000/svg" xmlns:xlink="http://www.w3.org/1999/xlink" width="113" height="113" viewBox="0 0 113 113">
  <defs>
    <filter id="Trazado_982547" x="0" y="0" width="113" height="113" filterUnits="userSpaceOnUse">
      <feOffset dy="3" input="SourceAlpha"/>
      <feGaussianBlur stdDeviation="3" result="blur"/>
      <feFlood flood-opacity="0.161"/>
      <feComposite operator="in" in2="blur"/>
      <feComposite in="SourceGraphic"/>
    </filter>
  </defs>
  <g id="Grupo_1226725" data-name="Grupo 1226725" transform="translate(-4157.019 -11953.654)">
    <g id="Grupo_1226565" data-name="Grupo 1226565" transform="translate(4166.019 11959.654)">
      <g id="Grupo_1211209" data-name="Grupo 1211209">
        <g id="Grupo_1210737" data-name="Grupo 1210737">
          <g id="Grupo_1210537" data-name="Grupo 1210537">
            <g id="Grupo_1164202" data-name="Grupo 1164202">
              <g id="Grupo_1158168" data-name="Grupo 1158168">
                <g id="Grupo_1152576" data-name="Grupo 1152576">
                  <g id="Grupo_1148633" data-name="Grupo 1148633">
                    <g id="Grupo_1148525" data-name="Grupo 1148525">
                      <g transform="matrix(1, 0, 0, 1, -9, -6)" filter="url(#Trazado_982547)">
                        <g id="Trazado_982547-2" data-name="Trazado 982547" transform="translate(9 6)" fill="#fdf6e4">
                          <path d="M 47.5 93.5 C 41.28937149047852 93.5 35.26533508300781 92.28397369384766 29.59518623352051 89.88570404052734 C 24.11771965026855 87.56893157958984 19.19813346862793 84.25196075439453 14.97309303283691 80.02691650390625 C 10.74804019927979 75.80186462402344 7.431066513061523 70.88229370117188 5.114293098449707 65.40481567382812 C 2.716026782989502 59.73468017578125 1.5 53.71062850952148 1.5 47.5 C 1.5 41.28937149047852 2.716026782989502 35.26533508300781 5.114293098449707 29.59518623352051 C 7.431066513061523 24.11771965026855 10.74804019927979 19.19813346862793 14.97309303283691 14.97309303283691 C 19.19813346862793 10.74804019927979 24.11771965026855 7.431066513061523 29.59518623352051 5.114293098449707 C 35.26533508300781 2.716026782989502 41.28937149047852 1.5 47.5 1.5 C 53.71062850952148 1.5 59.73468017578125 2.716026782989502 65.40481567382812 5.114293098449707 C 70.88229370117188 7.431066513061523 75.80186462402344 10.74804019927979 80.02691650390625 14.97309303283691 C 84.25196075439453 19.19813346862793 87.56893157958984 24.11771965026855 89.88570404052734 29.59518623352051 C 92.28397369384766 35.26533508300781 93.5 41.28937149047852 93.5 47.5 C 93.5 53.71062850952148 92.28397369384766 59.73468017578125 89.88570404052734 65.40481567382812 C 87.56893157958984 70.88229370117188 84.25196075439453 75.80186462402344 80.02691650390625 80.02691650390625 C 75.80186462402344 84.25196075439453 70.88229370117188 87.56893157958984 65.40481567382812 89.88570404052734 C 59.73468017578125 92.28397369384766 53.71062850952148 93.5 47.5 93.5 Z" stroke="none"/>
                          <path d="M 47.5 3 C 41.49121475219727 3 35.66376876831055 4.176155090332031 30.17950439453125 6.495796203613281 C 24.88084411621094 8.736953735351562 20.12152099609375 11.94598388671875 16.03375244140625 16.03375244140625 C 11.94598388671875 20.12152099609375 8.736953735351562 24.88084411621094 6.495796203613281 30.17950439453125 C 4.176155090332031 35.66376876831055 3 41.49121475219727 3 47.5 C 3 53.50878524780273 4.176155090332031 59.33623123168945 6.495796203613281 64.82049560546875 C 8.736953735351562 70.11915588378906 11.94598388671875 74.87847900390625 16.03375244140625 78.96624755859375 C 20.12152099609375 83.05401611328125 24.88084411621094 86.26304626464844 30.17950439453125 88.50419616699219 C 35.66376876831055 90.82384490966797 41.49121475219727 92 47.5 92 C 53.50878524780273 92 59.33623123168945 90.82384490966797 64.82049560546875 88.50419616699219 C 70.11915588378906 86.26304626464844 74.87847900390625 83.05401611328125 78.96624755859375 78.96624755859375 C 83.05401611328125 74.87847900390625 86.26304626464844 70.11915588378906 88.50419616699219 64.82049560546875 C 90.82384490966797 59.33623123168945 92 53.50878524780273 92 47.5 C 92 41.49121475219727 90.82384490966797 35.66376876831055 88.50419616699219 30.17950439453125 C 86.26304626464844 24.88084411621094 83.05401611328125 20.12152099609375 78.96624755859375 16.03375244140625 C 74.87847900390625 11.94598388671875 70.11915588378906 8.736953735351562 64.82049560546875 6.495796203613281 C 59.33623123168945 4.176155090332031 53.50878524780273 3 47.5 3 M 47.5 0 C 73.7335205078125 0 95 21.2664794921875 95 47.5 C 95 73.7335205078125 73.7335205078125 95 47.5 95 C 21.2664794921875 95 0 73.7335205078125 0 47.5 C 0 21.2664794921875 21.2664794921875 0 47.5 0 Z" stroke="none" fill="#f5b104"/>
                        </g>
                      </g>
                    </g>
                  </g>
                </g>
              </g>
            </g>
          </g>
        </g>
      </g>
    </g>
    <g id="capa-multiple" transform="translate(4184.433 11978.068)">
      <path id="Trazado_1058602" data-name="Trazado 1058602" d="M30,59.368V52.12H51.744V34h7.248V59.368Z" transform="translate(-2.726 -3.102)" fill="#f0d0b4"/>
      <path id="Trazado_1058603" data-name="Trazado 1058603" d="M43.744,26h7.248V51.368H22V44.12H43.744Z" transform="translate(-1.974 -2.35)" fill="#ffeaa7"/>
      <path id="Trazado_1058604" data-name="Trazado 1058604" d="M35.644,18h7.348V43.368H14V35.187A16.316,16.316,0,0,0,35.744,19.812,17.079,17.079,0,0,0,35.644,18Z" transform="translate(-1.222 -1.598)" fill="#e6e9ed"/>
      <circle id="Elipse_13557" data-name="Elipse 13557" cx="16.5" cy="16.5" r="16.5" transform="translate(2 2)" fill="#69d6f4"/>
      <path id="Trazado_1058605" data-name="Trazado 1058605" d="M49.924,29.992V22.744H42.676V15.5H35.191A17.2,17.2,0,1,0,11.872,34.2v8.474H19.12v7.248h7.248v7.248h30.8V29.992ZM2.858,19.12H10.1a22.17,22.17,0,0,0,1.547,7.248H5.171A15.28,15.28,0,0,1,2.858,19.12ZM18.214,3.175A24.209,24.209,0,0,1,21.9,8.248h-7.38A24.209,24.209,0,0,1,18.214,3.175Zm4.579,6.885a20.407,20.407,0,0,1,1.722,7.248h-12.6a20.427,20.427,0,0,1,1.722-7.248ZM33.57,17.308H26.328a22.17,22.17,0,0,0-1.547-7.248h6.476A15.28,15.28,0,0,1,33.57,17.308Zm-23.471,0H2.858A15.281,15.281,0,0,1,5.172,10.06h6.476A22.146,22.146,0,0,0,10.1,17.308Zm1.814,1.812h12.6a20.426,20.426,0,0,1-1.722,7.248H13.635A20.427,20.427,0,0,1,11.913,19.12ZM21.9,28.18a24.209,24.209,0,0,1-3.69,5.073,24.234,24.234,0,0,1-3.69-5.073Zm2.074,0h5.958a15.381,15.381,0,0,1-9.422,5.245,25.62,25.62,0,0,0,3.465-5.245Zm7.279-1.812H24.781a22.147,22.147,0,0,0,1.547-7.248H33.57A15.28,15.28,0,0,1,31.257,26.368ZM29.936,8.248H23.978A25.62,25.62,0,0,0,20.513,3,15.375,15.375,0,0,1,29.936,8.248ZM15.914,3A25.659,25.659,0,0,0,12.45,8.248H6.492A15.375,15.375,0,0,1,15.914,3ZM6.492,28.18H12.45a25.659,25.659,0,0,0,3.464,5.245A15.379,15.379,0,0,1,6.492,28.18ZM13.684,34.8A17.155,17.155,0,0,0,35.428,18.214c0-.306-.03-.6-.046-.906h5.482V40.864H13.684Zm7.248,7.873H42.676V24.556h5.436V48.112H20.932ZM55.36,55.36H28.18V49.924H49.924V31.8H55.36Z"/>
      <path id="Trazado_1058606" data-name="Trazado 1058606" d="M15,15h1.812v1.812H15Z" transform="translate(-1.316 -1.316)"/>
      <path id="Trazado_1058607" data-name="Trazado 1058607" d="M19,15h1.812v1.812H19Z" transform="translate(-1.692 -1.316)"/>
      <path id="Trazado_1058608" data-name="Trazado 1058608" d="M23,15h1.812v1.812H23Z" transform="translate(-2.068 -1.316)"/>
      <path id="Trazado_1058609" data-name="Trazado 1058609" d="M15,23h1.812v1.812H15Z" transform="translate(-1.316 -2.068)"/>
      <path id="Trazado_1058610" data-name="Trazado 1058610" d="M19,23h1.812v1.812H19Z" transform="translate(-1.692 -2.068)"/>
      <path id="Trazado_1058611" data-name="Trazado 1058611" d="M23,23h1.812v1.812H23Z" transform="translate(-2.068 -2.068)"/>
      <path id="Trazado_1058612" data-name="Trazado 1058612" d="M17,41h1.812v1.812H17Z" transform="translate(-1.504 -3.76)"/>
      <path id="Trazado_1058613" data-name="Trazado 1058613" d="M21,41h1.812v1.812H21Z" transform="translate(-1.88 -3.76)"/>
      <path id="Trazado_1058614" data-name="Trazado 1058614" d="M25,41h1.812v1.812H25Z" transform="translate(-2.256 -3.76)"/>
      <path id="Trazado_1058615" data-name="Trazado 1058615" d="M49,29h1.812v1.812H49Z" transform="translate(-4.512 -2.632)"/>
      <path id="Trazado_1058616" data-name="Trazado 1058616" d="M49,33h1.812v1.812H49Z" transform="translate(-4.512 -3.008)"/>
      <path id="Trazado_1058617" data-name="Trazado 1058617" d="M49,37h1.812v1.812H49Z" transform="translate(-4.512 -3.384)"/>
      <path id="Trazado_1058618" data-name="Trazado 1058618" d="M33,57h1.812v1.812H33Z" transform="translate(-3.008 -5.264)"/>
      <path id="Trazado_1058619" data-name="Trazado 1058619" d="M37,57h1.812v1.812H37Z" transform="translate(-3.384 -5.264)"/>
      <path id="Trazado_1058620" data-name="Trazado 1058620" d="M41,57h1.812v1.812H41Z" transform="translate(-3.76 -5.264)"/>
    </g>
  </g>
</svg>
