<svg xmlns="http://www.w3.org/2000/svg" xmlns:xlink="http://www.w3.org/1999/xlink" width="113" height="113" viewBox="0 0 113 113">
  <defs>
    <filter id="Trazado_982547" x="0" y="0" width="113" height="113" filterUnits="userSpaceOnUse">
      <feOffset dy="3" input="SourceAlpha"/>
      <feGaussianBlur stdDeviation="3" result="blur"/>
      <feFlood flood-opacity="0.161"/>
      <feComposite operator="in" in2="blur"/>
      <feComposite in="SourceGraphic"/>
    </filter>
  </defs>
  <g id="Grupo_1226743" data-name="Grupo 1226743" transform="translate(-4157.02 -12308.773)">
    <g id="Grupo_1226567" data-name="Grupo 1226567" transform="translate(4166.02 12314.773)">
      <g id="Grupo_1211209" data-name="Grupo 1211209">
        <g id="Grupo_1210737" data-name="Grupo 1210737">
          <g id="Grupo_1210537" data-name="Grupo 1210537">
            <g id="Grupo_1164202" data-name="Grupo 1164202">
              <g id="Grupo_1158168" data-name="Grupo 1158168">
                <g id="Grupo_1152576" data-name="Grupo 1152576">
                  <g id="Grupo_1148633" data-name="Grupo 1148633">
                    <g id="Grupo_1148525" data-name="Grupo 1148525">
                      <g transform="matrix(1, 0, 0, 1, -9, -6)" filter="url(#Trazado_982547)">
                        <g id="Trazado_982547-2" data-name="Trazado 982547" transform="translate(9 6)" fill="#fdf6e4">
                          <path d="M 47.5 93.5 C 41.28937149047852 93.5 35.26533508300781 92.28397369384766 29.59518623352051 89.88570404052734 C 24.11771965026855 87.56893157958984 19.19813346862793 84.25196075439453 14.97309303283691 80.02691650390625 C 10.74804019927979 75.80186462402344 7.431066513061523 70.88229370117188 5.114293098449707 65.40481567382812 C 2.716026782989502 59.73468017578125 1.5 53.71062850952148 1.5 47.5 C 1.5 41.28937149047852 2.716026782989502 35.26533508300781 5.114293098449707 29.59518623352051 C 7.431066513061523 24.11771965026855 10.74804019927979 19.19813346862793 14.97309303283691 14.97309303283691 C 19.19813346862793 10.74804019927979 24.11771965026855 7.431066513061523 29.59518623352051 5.114293098449707 C 35.26533508300781 2.716026782989502 41.28937149047852 1.5 47.5 1.5 C 53.71062850952148 1.5 59.73468017578125 2.716026782989502 65.40481567382812 5.114293098449707 C 70.88229370117188 7.431066513061523 75.80186462402344 10.74804019927979 80.02691650390625 14.97309303283691 C 84.25196075439453 19.19813346862793 87.56893157958984 24.11771965026855 89.88570404052734 29.59518623352051 C 92.28397369384766 35.26533508300781 93.5 41.28937149047852 93.5 47.5 C 93.5 53.71062850952148 92.28397369384766 59.73468017578125 89.88570404052734 65.40481567382812 C 87.56893157958984 70.88229370117188 84.25196075439453 75.80186462402344 80.02691650390625 80.02691650390625 C 75.80186462402344 84.25196075439453 70.88229370117188 87.56893157958984 65.40481567382812 89.88570404052734 C 59.73468017578125 92.28397369384766 53.71062850952148 93.5 47.5 93.5 Z" stroke="none"/>
                          <path d="M 47.5 3 C 41.49121475219727 3 35.66376876831055 4.176155090332031 30.17950439453125 6.495796203613281 C 24.88084411621094 8.736953735351562 20.12152099609375 11.94598388671875 16.03375244140625 16.03375244140625 C 11.94598388671875 20.12152099609375 8.736953735351562 24.88084411621094 6.495796203613281 30.17950439453125 C 4.176155090332031 35.66376876831055 3 41.49121475219727 3 47.5 C 3 53.50878524780273 4.176155090332031 59.33623123168945 6.495796203613281 64.82049560546875 C 8.736953735351562 70.11915588378906 11.94598388671875 74.87847900390625 16.03375244140625 78.96624755859375 C 20.12152099609375 83.05401611328125 24.88084411621094 86.26304626464844 30.17950439453125 88.50419616699219 C 35.66376876831055 90.82384490966797 41.49121475219727 92 47.5 92 C 53.50878524780273 92 59.33623123168945 90.82384490966797 64.82049560546875 88.50419616699219 C 70.11915588378906 86.26304626464844 74.87847900390625 83.05401611328125 78.96624755859375 78.96624755859375 C 83.05401611328125 74.87847900390625 86.26304626464844 70.11915588378906 88.50419616699219 64.82049560546875 C 90.82384490966797 59.33623123168945 92 53.50878524780273 92 47.5 C 92 41.49121475219727 90.82384490966797 35.66376876831055 88.50419616699219 30.17950439453125 C 86.26304626464844 24.88084411621094 83.05401611328125 20.12152099609375 78.96624755859375 16.03375244140625 C 74.87847900390625 11.94598388671875 70.11915588378906 8.736953735351562 64.82049560546875 6.495796203613281 C 59.33623123168945 4.176155090332031 53.50878524780273 3 47.5 3 M 47.5 0 C 73.7335205078125 0 95 21.2664794921875 95 47.5 C 95 73.7335205078125 73.7335205078125 95 47.5 95 C 21.2664794921875 95 0 73.7335205078125 0 47.5 C 0 21.2664794921875 21.2664794921875 0 47.5 0 Z" stroke="none" fill="#f5b104"/>
                        </g>
                      </g>
                    </g>
                  </g>
                </g>
              </g>
            </g>
          </g>
        </g>
      </g>
    </g>
    <g id="modelado-3d" transform="translate(4184.74 12333.494)">
      <g id="Grupo_1226728" data-name="Grupo 1226728" transform="translate(17.689 1.124)">
        <path id="Trazado_1058656" data-name="Trazado 1058656" d="M159.319,24.517a10.43,10.43,0,0,0,1.368,3.292l-.714.714a.967.967,0,0,0,0,1.361l1.907,1.906a.967.967,0,0,0,1.365,0l.711-.711a10.4,10.4,0,0,0,3.294,1.364v1.007a.967.967,0,0,0,.966.962h2.695a.967.967,0,0,0,.966-.962V32.442a10.4,10.4,0,0,0,3.294-1.364l.714.711a.963.963,0,0,0,1.362,0l1.907-1.906a.967.967,0,0,0,0-1.361l-.714-.714a10.431,10.431,0,0,0,1.368-3.292h1.008a.966.966,0,0,0,.963-.962v-2.7a.966.966,0,0,0-.963-.962h-1.008a10.43,10.43,0,0,0-1.368-3.292l.714-.714a.967.967,0,0,0,0-1.361l-1.907-1.906a.963.963,0,0,0-1.362,0l-.714.711a10.4,10.4,0,0,0-3.294-1.364V10.964a.967.967,0,0,0-.966-.962h-2.695a.967.967,0,0,0-.966.962v1.007a10.4,10.4,0,0,0-3.294,1.364l-.711-.711a.967.967,0,0,0-1.365,0l-1.907,1.905a.967.967,0,0,0,0,1.361l.714.714a10.43,10.43,0,0,0-1.368,3.292h-1.008a.966.966,0,0,0-.963.962v2.7a.966.966,0,0,0,.963.962h1.008Zm10.247,3.512a5.978,5.978,0,1,1,5.98-5.978A5.979,5.979,0,0,1,169.566,28.028Z" transform="translate(-157.348 -10.002)" fill="#9ea6bf" fill-rule="evenodd"/>
      </g>
      <g id="Grupo_1226729" data-name="Grupo 1226729" transform="translate(5.614 30.712)">
        <path id="Trazado_1058657" data-name="Trazado 1058657" d="M56.114,273.192l-6.171,3.715a2.407,2.407,0,0,1,0,2.492l6.171,3.716a2.419,2.419,0,0,1,4.143,0l6.171-3.716a2.407,2.407,0,0,1,0-2.492l-6.171-3.715a2.419,2.419,0,0,1-4.143,0Z" transform="translate(-49.943 -273.192)" fill="#beece1" fill-rule="evenodd"/>
      </g>
      <g id="Grupo_1226730" data-name="Grupo 1226730" transform="translate(11.438 39.465)">
        <path id="Trazado_1058658" data-name="Trazado 1058658" d="M104.162,351.058a2.419,2.419,0,1,0,2.073,1.169A2.413,2.413,0,0,0,104.162,351.058Z" transform="translate(-101.745 -351.058)" fill="#bfdbff" fill-rule="evenodd"/>
      </g>
      <g id="Grupo_1226731" data-name="Grupo 1226731" transform="translate(1.124 33.258)">
        <path id="Trazado_1058659" data-name="Trazado 1058659" d="M12.417,295.84a2.416,2.416,0,0,0-2.417,2.4v.025a2.419,2.419,0,1,0,2.417-2.428Z" transform="translate(-10 -295.84)" fill="#bfdbff" fill-rule="evenodd"/>
      </g>
      <g id="Grupo_1226732" data-name="Grupo 1226732" transform="translate(11.438 27.05)">
        <path id="Trazado_1058660" data-name="Trazado 1058660" d="M104.161,240.622a2.414,2.414,0,1,0,2.42,2.415A2.417,2.417,0,0,0,104.161,240.622Z" transform="translate(-101.744 -240.622)" fill="#bfdbff" fill-rule="evenodd"/>
      </g>
      <g id="Grupo_1226733" data-name="Grupo 1226733" transform="translate(21.752 33.258)">
        <path id="Trazado_1058661" data-name="Trazado 1058661" d="M195.91,295.84a2.415,2.415,0,1,0,2.417,2.415A2.418,2.418,0,0,0,195.91,295.84Z" transform="translate(-193.489 -295.84)" fill="#bfdbff" fill-rule="evenodd"/>
      </g>
      <g id="Grupo_1226734" data-name="Grupo 1226734" transform="translate(13.855 36.919)">
        <path id="Trazado_1058662" data-name="Trazado 1058662" d="M131.492,328.41l-6.171,3.716a2.414,2.414,0,0,1-2.073,3.661v7.3a2.418,2.418,0,0,1,2.073,1.169l6.171-3.712a2.416,2.416,0,0,1,2.073-3.665v-7.3A2.418,2.418,0,0,1,131.492,328.41Z" transform="translate(-123.248 -328.41)" fill="#7dd9c2" fill-rule="evenodd"/>
      </g>
      <g id="Grupo_1226735" data-name="Grupo 1226735" transform="translate(21.752 45.392)">
        <path id="Trazado_1058663" data-name="Trazado 1058663" d="M195.91,403.782a2.417,2.417,0,1,0,2.417,2.415A2.418,2.418,0,0,0,195.91,403.782Z" transform="translate(-193.489 -403.782)" fill="#bfdbff" fill-rule="evenodd"/>
      </g>
      <g id="Grupo_1226736" data-name="Grupo 1226736" transform="translate(3.542 36.919)">
        <path id="Trazado_1058664" data-name="Trazado 1058664" d="M31.5,329.58v7.3a2.416,2.416,0,0,1,2.073,3.665l6.171,3.712a2.413,2.413,0,0,1,2.07-1.17v-7.3a2.414,2.414,0,0,1-2.07-3.661l-6.171-3.716A2.418,2.418,0,0,1,31.5,329.58Z" transform="translate(-31.504 -328.41)" fill="#7dd9c2" fill-rule="evenodd"/>
      </g>
      <g id="Grupo_1226737" data-name="Grupo 1226737" transform="translate(1.124 45.392)">
        <path id="Trazado_1058665" data-name="Trazado 1058665" d="M12.417,403.782a2.416,2.416,0,0,0-2.417,2.4v.025a2.419,2.419,0,1,0,2.417-2.428Z" transform="translate(-10 -403.782)" fill="#bfdbff" fill-rule="evenodd"/>
      </g>
      <g id="Grupo_1226738" data-name="Grupo 1226738" transform="translate(11.438 51.6)">
        <path id="Trazado_1058666" data-name="Trazado 1058666" d="M104.162,459a2.419,2.419,0,1,0,2.073,1.169A2.413,2.413,0,0,0,104.162,459Z" transform="translate(-101.745 -458.999)" fill="#bfdbff" fill-rule="evenodd"/>
      </g>
      <g id="Grupo_1226739" data-name="Grupo 1226739" transform="translate(35.637 29.539)">
        <path id="Trazado_1058667" data-name="Trazado 1058667" d="M327.324,262.761l-10.317,6.207,10.317,6.207,10.314-6.207Z" transform="translate(-317.007 -262.761)" fill="#beece1" fill-rule="evenodd"/>
      </g>
      <g id="Grupo_1226740" data-name="Grupo 1226740" transform="translate(35.637 35.747)">
        <path id="Trazado_1058668" data-name="Trazado 1058668" d="M317.007,317.978v12.138l10.317,6.207V324.186Z" transform="translate(-317.007 -317.978)" fill="#7dd9c2" fill-rule="evenodd"/>
      </g>
      <g id="Grupo_1226741" data-name="Grupo 1226741" transform="translate(45.954 35.747)">
        <path id="Trazado_1058669" data-name="Trazado 1058669" d="M419.094,317.978l-10.314,6.208v12.138l10.314-6.207Z" transform="translate(-408.78 -317.978)" fill="#7dd9c2" fill-rule="evenodd"/>
      </g>
      <g id="Grupo_1226742" data-name="Grupo 1226742" transform="translate(0 0)">
        <path id="Trazado_1058670" data-name="Trazado 1058670" d="M27.714,240.369a3.541,3.541,0,0,0-5.838-2.693l-4.561-2.746a3.543,3.543,0,1,0-6.916,0l-4.561,2.746a3.54,3.54,0,1,0-3.421,6.049v5.423A3.541,3.541,0,1,0,5.838,255.2l4.561,2.744a3.543,3.543,0,1,0,6.916,0l4.561-2.744a3.54,3.54,0,1,0,3.421-6.051v-5.423a3.545,3.545,0,0,0,2.418-3.356Zm-3.542-1.291a1.291,1.291,0,1,1-1.3,1.291A1.294,1.294,0,0,1,24.172,239.078ZM13.855,232.87a1.291,1.291,0,1,1-1.293,1.291,1.3,1.3,0,0,1,1.293-1.291ZM7,239.6l4.56-2.745a3.535,3.535,0,0,0,4.591,0l4.561,2.746a3.509,3.509,0,0,0,0,1.537l-4.561,2.746a3.536,3.536,0,0,0-4.591,0L7,241.138A3.509,3.509,0,0,0,7,239.6Zm8.151,6.976a1.295,1.295,0,1,1-1.3-1.291A1.3,1.3,0,0,1,15.152,246.577Zm-12.9-6.208a1.295,1.295,0,1,1,1.293,1.291A1.294,1.294,0,0,1,2.248,240.369ZM3.542,253.8a1.293,1.293,0,1,1,1.3-1.294A1.3,1.3,0,0,1,3.542,253.8ZM7,253.275a3.534,3.534,0,0,0-2.335-4.127v-5.422a3.544,3.544,0,0,0,1.173-.663l4.561,2.746a3.535,3.535,0,0,0,2.332,4.124v5.423a3.542,3.542,0,0,0-1.17.663Zm6.855,6.731a1.293,1.293,0,1,1,1.3-1.294A1.3,1.3,0,0,1,13.855,260.006Zm2.3-3.987a3.546,3.546,0,0,0-1.173-.663v-5.422a3.533,3.533,0,0,0,2.335-4.125l4.561-2.746a3.545,3.545,0,0,0,1.173.663v5.422a3.535,3.535,0,0,0-2.335,4.127Zm8.02-2.22a1.293,1.293,0,1,1,1.293-1.294A1.3,1.3,0,0,1,24.172,253.8Z" transform="translate(0 -204.696)"/>
        <path id="Trazado_1058671" data-name="Trazado 1058671" d="M166.212,23.7a2.067,2.067,0,0,0,1.473.614h0a2.075,2.075,0,0,0,1.477-.611l1.907-1.905a2.093,2.093,0,0,0,0-2.951l-.1-.1a11.514,11.514,0,0,0,.824-1.984h.145a2.089,2.089,0,0,0,2.087-2.087v-2.7a2.089,2.089,0,0,0-2.087-2.087h-.145a11.5,11.5,0,0,0-.824-1.984l.1-.1a2.091,2.091,0,0,0,0-2.951l-1.907-1.906a2.075,2.075,0,0,0-1.477-.611h0a2.063,2.063,0,0,0-1.468.609l-.1.1a11.477,11.477,0,0,0-1.988-.824V2.086A2.09,2.09,0,0,0,162.035,0H159.34a2.091,2.091,0,0,0-2.091,2.087v.143a11.477,11.477,0,0,0-1.986.823l-.1-.1a2.092,2.092,0,0,0-2.954,0L150.3,4.857a2.091,2.091,0,0,0,0,2.951l.1.1a11.513,11.513,0,0,0-.824,1.984h-.145a2.089,2.089,0,0,0-2.087,2.087v2.7a2.089,2.089,0,0,0,2.087,2.087h.145a11.5,11.5,0,0,0,.824,1.984l-.106.106a2.092,2.092,0,0,0,0,2.948l1.907,1.905a2.092,2.092,0,0,0,2.954,0l.1-.1a11.477,11.477,0,0,0,1.986.823v.143a2.091,2.091,0,0,0,2.091,2.087h2.695a2.091,2.091,0,0,0,2.091-2.087v-.143a11.482,11.482,0,0,0,1.988-.824Zm-3.455-1.236a1.124,1.124,0,0,0-.88,1.1v.845H159.5v-.845a1.124,1.124,0,0,0-.88-1.1,9.258,9.258,0,0,1-2.938-1.217,1.124,1.124,0,0,0-1.4.155l-.6.6-1.68-1.679.6-.6a1.125,1.125,0,0,0,.154-1.4,9.275,9.275,0,0,1-1.221-2.937,1.124,1.124,0,0,0-1.1-.876H149.6V12.143h.847a1.124,1.124,0,0,0,1.1-.876A9.276,9.276,0,0,1,152.76,8.33a1.124,1.124,0,0,0-.154-1.4l-.6-.6,1.68-1.679.6.6a1.124,1.124,0,0,0,1.4.155,9.259,9.259,0,0,1,2.938-1.217,1.124,1.124,0,0,0,.88-1.1V2.248h2.379v.845a1.124,1.124,0,0,0,.88,1.1A9.255,9.255,0,0,1,165.7,5.408a1.124,1.124,0,0,0,1.394-.153l.6-.6,1.679,1.677-.6.6a1.124,1.124,0,0,0-.154,1.4,9.275,9.275,0,0,1,1.221,2.937,1.124,1.124,0,0,0,1.1.876h.847v2.372h-.847a1.124,1.124,0,0,0-1.1.876,9.28,9.28,0,0,1-1.221,2.937,1.124,1.124,0,0,0,.154,1.4l.6.6L167.691,22l-.6-.6a1.124,1.124,0,0,0-1.393-.153A9.26,9.26,0,0,1,162.757,22.467Z" transform="translate(-130.783 0)"/>
        <path id="Trazado_1058672" data-name="Trazado 1058672" d="M329.342,259.129l-10.314-6.208a1.124,1.124,0,0,0-1.159,0l-10.317,6.207a1.137,1.137,0,0,0-.545.963V272.23a1.124,1.124,0,0,0,.545.963l10.317,6.207a1.137,1.137,0,0,0,1.159,0l10.314-6.208a1.124,1.124,0,0,0,.545-.963V260.092a1.116,1.116,0,0,0-.009-.132A1.132,1.132,0,0,0,329.342,259.129Zm-12.018,17.32-8.069-4.855V262.08l8.069,4.855Zm1.124-11.461-8.136-4.9,8.136-4.9,8.134,4.9Zm9.19,6.607-8.065,4.854v-9.513l8.065-4.854Z" transform="translate(-272.494 -224.346)"/>
        <path id="Trazado_1058673" data-name="Trazado 1058673" d="M209.915,54a7.1,7.1,0,1,0,7.1,7.1A7.113,7.113,0,0,0,209.915,54Zm0,11.956a4.854,4.854,0,1,1,4.855-4.854A4.862,4.862,0,0,1,209.915,65.955Z" transform="translate(-180.009 -47.929)"/>
        <path id="Trazado_1058674" data-name="Trazado 1058674" d="M410.987,97.084l-3.868-3.865a1.124,1.124,0,1,1,1.589-1.59l1.95,1.948V80.823h-4.824a1.124,1.124,0,0,1,0-2.248h5.948a1.124,1.124,0,0,1,1.124,1.124V93.575l1.946-1.946a1.124,1.124,0,1,1,1.59,1.59l-3.865,3.865a1.045,1.045,0,0,1-1.59,0Z" transform="translate(-359.213 -69.742)"/>
        <path id="Trazado_1058675" data-name="Trazado 1058675" d="M34.315,53.549a1.124,1.124,0,0,0,1.124-1.124V50.3h4.494l-1.944,1.943a1.124,1.124,0,0,0,1.589,1.59l3.865-3.862a1.136,1.136,0,0,0,0-1.59l-3.865-3.865a1.124,1.124,0,1,0-1.59,1.59l1.946,1.946H34.315a1.124,1.124,0,0,0-1.124,1.124v3.244A1.124,1.124,0,0,0,34.315,53.549Z" transform="translate(-29.46 -39.223)"/>
        <path id="Trazado_1058676" data-name="Trazado 1058676" d="M34.315,202.774a1.124,1.124,0,0,0,1.124-1.124v-3.238a1.124,1.124,0,0,0-2.248,0v3.238A1.124,1.124,0,0,0,34.315,202.774Z" transform="translate(-29.46 -175.109)"/>
        <path id="Trazado_1058677" data-name="Trazado 1058677" d="M34.315,154.583a1.126,1.126,0,1,0-1.124-1.127v.006A1.121,1.121,0,0,0,34.315,154.583Z" transform="translate(-29.46 -135.206)"/>
      </g>
    </g>
  </g>
</svg>
