<svg xmlns="http://www.w3.org/2000/svg" width="38.34" height="38.34" viewBox="0 0 38.34 38.34">
  <g id="sensor_12594229" transform="translate(-1.996 -2.006)">
    <path id="Trazado_1057774" data-name="Trazado 1057774" d="M14,16.13v8.52a2.136,2.136,0,0,0,2.13,2.13h8.52a2.136,2.136,0,0,0,2.13-2.13V16.13A2.136,2.136,0,0,0,24.651,14H16.13A2.136,2.136,0,0,0,14,16.13Zm10.651,8.52H16.13V16.13h8.52Z" transform="translate(0.781 0.78)" fill="#3b2a76"/>
    <circle id="Elipse_12595" data-name="Elipse 12595" cx="1" cy="1" r="1" transform="translate(20.167 10.177)" fill="#3b2a76"/>
    <path id="Trazado_1057775" data-name="Trazado 1057775" d="M23.605,7.342a4.929,4.929,0,0,0-6.752,0A1.067,1.067,0,0,0,18.28,8.929a2.8,2.8,0,0,1,3.9,0A1.067,1.067,0,0,0,23.605,7.342Z" transform="translate(0.942 0.26)" fill="#3b2a76"/>
    <path id="Trazado_1057776" data-name="Trazado 1057776" d="M14.352,4.407A1.067,1.067,0,0,0,15.78,5.994a6.665,6.665,0,0,1,9.223,0A1.067,1.067,0,0,0,26.43,4.407,8.8,8.8,0,0,0,14.352,4.407Z" transform="translate(0.78)" fill="#3b2a76"/>
    <circle id="Elipse_12596" data-name="Elipse 12596" cx="1" cy="1" r="1" transform="translate(20.167 30.177)" fill="#3b2a76"/>
    <path id="Trazado_1057777" data-name="Trazado 1057777" d="M16.852,32.855a4.929,4.929,0,0,0,6.752,0,1.067,1.067,0,0,0-1.427-1.587,2.8,2.8,0,0,1-3.9,0A1.067,1.067,0,0,0,16.852,32.855Z" transform="translate(0.943 1.885)" fill="#3b2a76"/>
    <path id="Trazado_1057778" data-name="Trazado 1057778" d="M25,34.278a6.665,6.665,0,0,1-9.223,0,1.067,1.067,0,0,0-1.427,1.587,8.8,8.8,0,0,0,12.078,0A1.067,1.067,0,0,0,25,34.278Z" transform="translate(0.78 2.08)" fill="#3b2a76"/>
    <circle id="Elipse_12597" data-name="Elipse 12597" cx="1" cy="1" r="1" transform="translate(10.167 20.177)" fill="#3b2a76"/>
    <path id="Trazado_1057779" data-name="Trazado 1057779" d="M7.342,16.852a4.929,4.929,0,0,0,0,6.752,1.067,1.067,0,0,0,1.587-1.427,2.8,2.8,0,0,1,0-3.9A1.067,1.067,0,0,0,7.342,16.852Z" transform="translate(0.261 0.942)" fill="#3b2a76"/>
    <path id="Trazado_1057780" data-name="Trazado 1057780" d="M5.984,15.779A1.067,1.067,0,0,0,4.4,14.352a8.8,8.8,0,0,0,0,12.078A1.067,1.067,0,0,0,5.984,25,6.665,6.665,0,0,1,5.984,15.779Z" transform="translate(0 0.779)" fill="#3b2a76"/>
    <circle id="Elipse_12598" data-name="Elipse 12598" cx="1" cy="1" r="1" transform="translate(30.167 20.177)" fill="#3b2a76"/>
    <path id="Trazado_1057781" data-name="Trazado 1057781" d="M32.855,16.853a1.067,1.067,0,0,0-1.587,1.427,2.8,2.8,0,0,1,0,3.9,1.067,1.067,0,0,0,1.587,1.427A4.929,4.929,0,0,0,32.855,16.853Z" transform="translate(1.885 0.942)" fill="#3b2a76"/>
    <path id="Trazado_1057782" data-name="Trazado 1057782" d="M35.855,14.352a1.067,1.067,0,0,0-1.587,1.427,6.665,6.665,0,0,1,0,9.223,1.067,1.067,0,0,0,1.587,1.427A8.8,8.8,0,0,0,35.855,14.352Z" transform="translate(2.08 0.779)" fill="#3b2a76"/>
  </g>
</svg>
