<svg xmlns="http://www.w3.org/2000/svg" width="39.585" height="39.585" viewBox="0 0 39.585 39.585">
  <g id="off_16855959" transform="translate(-4 -4)">
    <path id="Trazado_1057771" data-name="Trazado 1057771" d="M39.658,4H7.927A3.931,3.931,0,0,0,4,7.927V39.658a3.931,3.931,0,0,0,3.927,3.927H39.658a3.931,3.931,0,0,0,3.927-3.927V7.927A3.931,3.931,0,0,0,39.658,4Zm2.513,35.658a2.516,2.516,0,0,1-2.513,2.513H7.927a2.516,2.516,0,0,1-2.513-2.513V7.927A2.516,2.516,0,0,1,7.927,5.414H39.658a2.516,2.516,0,0,1,2.513,2.513Z" fill="#3b2a76"/>
    <path id="Trazado_1057772" data-name="Trazado 1057772" d="M33.713,16.42H24.878a2.1,2.1,0,0,0-2.1,2.169l.559,17.819a2.094,2.094,0,0,0,2.1,2.037h7.716a2.094,2.094,0,0,0,2.1-2.037l.558-17.819a2.112,2.112,0,0,0-2.1-2.17Zm.13,19.944a.686.686,0,0,1-.689.668H25.438a.686.686,0,0,1-.689-.668l-.559-17.819a.693.693,0,0,1,.689-.711h8.835a.692.692,0,0,1,.689.711Z" transform="translate(-5.503 -3.641)" fill="#3b2a76"/>
    <path id="Trazado_1057773" data-name="Trazado 1057773" d="M32.968,22.518h-4.31a.707.707,0,1,0,0,1.414h4.31a.707.707,0,1,0,0-1.414Z" transform="translate(-7.021 -5.428)" fill="#3b2a76"/>
  </g>
</svg>
