<svg xmlns="http://www.w3.org/2000/svg" width="47.553" height="36.467" viewBox="0 0 47.553 36.467">
  <g id="wifi_1436196" transform="translate(-82.543 0)">
    <path id="Trazado_1057817" data-name="Trazado 1057817" d="M90.5,15.875a22.4,22.4,0,0,1,31.645,0,4.661,4.661,0,0,0,6.591-6.591,31.7,31.7,0,0,0-44.828,0A4.661,4.661,0,0,0,90.5,15.875Zm-4.653-4.653a28.956,28.956,0,0,1,40.95,0,1.919,1.919,0,1,1-2.714,2.714,25.147,25.147,0,0,0-35.523,0,1.919,1.919,0,1,1-2.714-2.714Zm0,0" fill="#3b2a76"/>
    <path id="Trazado_1057818" data-name="Trazado 1057818" d="M173.779,107.646a4.661,4.661,0,0,0,3.3-7.956,18.788,18.788,0,0,0-26.569,0,4.661,4.661,0,1,0,6.591,6.591,9.479,9.479,0,0,1,13.387,0,4.631,4.631,0,0,0,3.3,1.365Zm-18.621-3.3a1.919,1.919,0,0,1-2.714-2.714,16.045,16.045,0,0,1,22.692,0,1.919,1.919,0,1,1-2.714,2.714,12.222,12.222,0,0,0-17.264,0Zm0,0" transform="translate(-57.471 -81.276)" fill="#3b2a76"/>
    <path id="Trazado_1057819" data-name="Trazado 1057819" d="M223.365,199.411a4.663,4.663,0,1,0,3.3-1.364A4.692,4.692,0,0,0,223.365,199.411Zm5.215,3.3a1.917,1.917,0,1,1-.562-1.357A1.934,1.934,0,0,1,228.58,202.706Zm0,0" transform="translate(-120.341 -170.899)" fill="#3b2a76"/>
  </g>
</svg>
