<svg xmlns="http://www.w3.org/2000/svg" width="28.687" height="40.029" viewBox="0 0 28.687 40.029">
  <g id="designer_5443626" transform="translate(0)">
    <path id="Trazado_1056105" data-name="Trazado 1056105" d="M140.334,178.835v-1.168a.667.667,0,0,0-1.334,0v1.168a.667.667,0,1,0,1.334,0Z" transform="translate(-127.408 -162.239)" fill="#3b2a76"/>
    <path id="Trazado_1056106" data-name="Trazado 1056106" d="M190.334,178.835v-1.168a.667.667,0,0,0-1.334,0v1.168a.667.667,0,1,0,1.334,0Z" transform="translate(-173.239 -162.239)" fill="#3b2a76"/>
    <path id="Trazado_1056107" data-name="Trazado 1056107" d="M26.686,35.025H6.367a.667.667,0,1,0,0,1.334H26.686a.668.668,0,0,1,.667.667v1a.668.668,0,0,1-.667.667H2a.668.668,0,0,1-.667-.667v-1A.668.668,0,0,1,2,36.36H2.83a.668.668,0,0,0,.647-.687l-.417-14.1a1.333,1.333,0,0,1,1.334-1.374h19.9a1.333,1.333,0,0,1,1.334,1.374L25.32,31.955a.667.667,0,1,0,1.334.039l.307-10.386a2.667,2.667,0,0,0-2.667-2.748H23.167a36.181,36.181,0,0,0,.1-5.184.667.667,0,0,0-.755-.661A16.579,16.579,0,0,1,10.163,9.728a.667.667,0,0,0-1.03.294,4.868,4.868,0,0,1-3.228,3.013.667.667,0,0,0-.485.642v2.756a1.4,1.4,0,0,1-.747-1.246V6.917A1.411,1.411,0,0,1,6.084,5.51h.181a.667.667,0,0,0,.624-.432c.9-2.379,3.161-3.744,6.213-3.744h5.127a5.778,5.778,0,0,1,5.782,5.788v7.77a.667.667,0,1,0,1.334,0V7.123A7.112,7.112,0,0,0,18.229,0H13.1C9.958,0,7.111,1.326,5.814,4.189A2.748,2.748,0,0,0,3.34,6.916v8.271A2.735,2.735,0,0,0,6.088,17.93a.667.667,0,0,0,.667-.667v-3.1a6.15,6.15,0,0,0,3.269-2.88,17.878,17.878,0,0,0,11.908,3.143,25.617,25.617,0,0,1-.118,4.438H4.394a2.667,2.667,0,0,0-2.667,2.748l.4,13.417H2a2,2,0,0,0-2,2v1a2,2,0,0,0,2,2H26.686a2,2,0,0,0,2-2v-1a2,2,0,0,0-2-2Z" fill="#3b2a76"/>
    <path id="Trazado_1056108" data-name="Trazado 1056108" d="M127.055,287.125a.667.667,0,0,0-.855.4A3.837,3.837,0,1,0,129.8,285a.667.667,0,0,0,0,1.334,2.5,2.5,0,1,1-2.352,1.646A.667.667,0,0,0,127.055,287.125Z" transform="translate(-115.461 -261.233)" fill="#3b2a76"/>
  </g>
</svg>
