<svg xmlns="http://www.w3.org/2000/svg" xmlns:xlink="http://www.w3.org/1999/xlink" width="103" height="103" viewBox="0 0 103 103">
  <defs>
    <filter id="Trazado_982547" x="0" y="0" width="103" height="103" filterUnits="userSpaceOnUse">
      <feOffset dy="3" input="SourceAlpha"/>
      <feGaussianBlur stdDeviation="3" result="blur"/>
      <feFlood flood-opacity="0.161"/>
      <feComposite operator="in" in2="blur"/>
      <feComposite in="SourceGraphic"/>
    </filter>
  </defs>
  <g id="Grupo_1226537" data-name="Grupo 1226537" transform="translate(-191 -6521.959)">
    <g id="Grupo_1226199" data-name="Grupo 1226199" transform="translate(200 6527.959)">
      <g id="Grupo_1225608" data-name="Grupo 1225608">
        <g id="Grupo_1225482" data-name="Grupo 1225482">
          <g id="Grupo_1210959" data-name="Grupo 1210959">
            <g id="Grupo_1210290" data-name="Grupo 1210290">
              <g id="Grupo_1207485" data-name="Grupo 1207485">
                <g id="Grupo_1207313" data-name="Grupo 1207313">
                  <g id="Grupo_1202212" data-name="Grupo 1202212">
                    <g id="Grupo_1174813" data-name="Grupo 1174813">
                      <g id="Grupo_1201680" data-name="Grupo 1201680">
                        <g id="Grupo_1201330" data-name="Grupo 1201330">
                          <g id="Grupo_1172010" data-name="Grupo 1172010">
                            <g id="Grupo_1171046" data-name="Grupo 1171046">
                              <g id="Grupo_1148525" data-name="Grupo 1148525">
                                <g transform="matrix(1, 0, 0, 1, -9, -6)" filter="url(#Trazado_982547)">
                                  <g id="Trazado_982547-2" data-name="Trazado 982547" transform="translate(9 6)" fill="#fdf6e4">
                                    <path d="M 42.5 83.5 C 36.96437835693359 83.5 31.59512901306152 82.41617584228516 26.54141235351562 80.27863311767578 C 21.65934181213379 78.21369171142578 17.27447128295898 75.25723266601562 13.50862312316895 71.49137878417969 C 9.742764472961426 67.72553253173828 6.786305904388428 63.34066009521484 4.721364498138428 58.45858764648438 C 2.583823442459106 53.40486907958984 1.5 48.03562164306641 1.5 42.5 C 1.5 36.96437835693359 2.583823442459106 31.59512901306152 4.721364498138428 26.54141235351562 C 6.786305904388428 21.65934181213379 9.742764472961426 17.27448272705078 13.50862312316895 13.50862312316895 C 17.27447128295898 9.742776870727539 21.65934181213379 6.786305904388428 26.54141235351562 4.721364498138428 C 31.59512901306152 2.583823442459106 36.96437835693359 1.5 42.5 1.5 C 48.03562164306641 1.5 53.40486907958984 2.583823442459106 58.45858764648438 4.721364498138428 C 63.34066009521484 6.786305904388428 67.72553253173828 9.742776870727539 71.49137878417969 13.50862312316895 C 75.25723266601562 17.27448272705078 78.21369171142578 21.65934181213379 80.27863311767578 26.54141235351562 C 82.41617584228516 31.59512901306152 83.5 36.96437835693359 83.5 42.5 C 83.5 48.03562164306641 82.41617584228516 53.40486907958984 80.27863311767578 58.45858764648438 C 78.21369171142578 63.34066009521484 75.25723266601562 67.72553253173828 71.49137878417969 71.49137878417969 C 67.72553253173828 75.25723266601562 63.34066009521484 78.21369171142578 58.45858764648438 80.27863311767578 C 53.40486907958984 82.41617584228516 48.03562164306641 83.5 42.5 83.5 Z" stroke="none"/>
                                    <path d="M 42.5 3 C 37.16621398925781 3 31.99356079101562 4.043960571289062 27.125732421875 6.102882385253906 C 22.42246627807617 8.092185974121094 18.19785308837891 10.94070434570312 14.56928253173828 14.56928253173828 C 10.94070434570312 18.19785308837891 8.092185974121094 22.42246627807617 6.102882385253906 27.125732421875 C 4.043960571289062 31.99356079101562 3 37.16621398925781 3 42.5 C 3 47.83378601074219 4.043960571289062 53.00643920898438 6.102882385253906 57.874267578125 C 8.092185974121094 62.57753372192383 10.94070434570312 66.80214691162109 14.56928253173828 70.43071746826172 C 18.19785308837891 74.05929565429688 22.42246627807617 76.90781402587891 27.125732421875 78.89711761474609 C 31.99356079101562 80.95603942871094 37.16621398925781 82 42.5 82 C 47.83378601074219 82 53.00643920898438 80.95603942871094 57.874267578125 78.89711761474609 C 62.57753372192383 76.90781402587891 66.80214691162109 74.05929565429688 70.43071746826172 70.43071746826172 C 74.05929565429688 66.80214691162109 76.90781402587891 62.57753372192383 78.89711761474609 57.874267578125 C 80.95603942871094 53.00643920898438 82 47.83378601074219 82 42.5 C 82 37.16621398925781 80.95603942871094 31.99356079101562 78.89711761474609 27.125732421875 C 76.90781402587891 22.42246627807617 74.05929565429688 18.19785308837891 70.43071746826172 14.56928253173828 C 66.80214691162109 10.94070434570312 62.57753372192383 8.092185974121094 57.874267578125 6.102882385253906 C 53.00643920898438 4.043960571289062 47.83378601074219 3 42.5 3 M 42.5 0 C 65.97210693359375 0 85 19.02789306640625 85 42.5 C 85 65.97210693359375 65.97210693359375 85 42.5 85 C 19.02789306640625 85 0 65.97210693359375 0 42.5 C 0 19.02789306640625 19.02789306640625 0 42.5 0 Z" stroke="none" fill="#856002"/>
                                  </g>
                                </g>
                              </g>
                            </g>
                          </g>
                        </g>
                      </g>
                    </g>
                  </g>
                </g>
              </g>
            </g>
          </g>
        </g>
      </g>
    </g>
    <g id="internet_1_" data-name="internet (1)" transform="translate(216.76 6544.771)">
      <g id="Grupo_1226535" data-name="Grupo 1226535" transform="translate(0.81 0.752)">
        <g id="Grupo_1226500" data-name="Grupo 1226500" transform="translate(8.949 8.936)">
          <g id="Grupo_1226499" data-name="Grupo 1226499">
            <ellipse id="Elipse_13512" data-name="Elipse 13512" cx="15.976" cy="15.98" rx="15.976" ry="15.98" fill="#71d8fd"/>
          </g>
        </g>
        <g id="Grupo_1226502" data-name="Grupo 1226502" transform="translate(22.967 8.936)">
          <g id="Grupo_1226501" data-name="Grupo 1226501">
            <path id="Trazado_1057944" data-name="Trazado 1057944" d="M238.449,96.576a16.124,16.124,0,0,0-1.958.12,15.981,15.981,0,0,1,0,31.721,15.98,15.98,0,1,0,1.958-31.84Z" transform="translate(-236.491 -96.576)" fill="#60c3f7"/>
          </g>
        </g>
        <g id="Grupo_1226504" data-name="Grupo 1226504" transform="translate(0 0.163)">
          <g id="Grupo_1226503" data-name="Grupo 1226503">
            <ellipse id="Elipse_13513" data-name="Elipse 13513" cx="2.99" cy="2.991" rx="2.99" ry="2.991" fill="#ffcd74"/>
          </g>
        </g>
        <g id="Grupo_1226506" data-name="Grupo 1226506" transform="translate(43.881 0.163)">
          <g id="Grupo_1226505" data-name="Grupo 1226505">
            <ellipse id="Elipse_13514" data-name="Elipse 13514" cx="2.99" cy="2.991" rx="2.99" ry="2.991" fill="#ffcd74"/>
          </g>
        </g>
        <g id="Grupo_1226508" data-name="Grupo 1226508" transform="translate(0 43.827)">
          <g id="Grupo_1226507" data-name="Grupo 1226507">
            <ellipse id="Elipse_13515" data-name="Elipse 13515" cx="2.99" cy="2.991" rx="2.99" ry="2.991" fill="#ffcd74"/>
          </g>
        </g>
        <g id="Grupo_1226510" data-name="Grupo 1226510" transform="translate(0 21.945)">
          <g id="Grupo_1226509" data-name="Grupo 1226509">
            <ellipse id="Elipse_13516" data-name="Elipse 13516" cx="2.99" cy="2.991" rx="2.99" ry="2.991" fill="#b4e173"/>
          </g>
        </g>
        <g id="Grupo_1226512" data-name="Grupo 1226512" transform="translate(43.881 21.945)">
          <g id="Grupo_1226511" data-name="Grupo 1226511">
            <ellipse id="Elipse_13517" data-name="Elipse 13517" cx="2.99" cy="2.991" rx="2.99" ry="2.991" fill="#b4e173"/>
          </g>
        </g>
        <g id="Grupo_1226514" data-name="Grupo 1226514" transform="translate(21.935)">
          <g id="Grupo_1226513" data-name="Grupo 1226513">
            <ellipse id="Elipse_13518" data-name="Elipse 13518" cx="2.99" cy="2.991" rx="2.99" ry="2.991" fill="#b4e173"/>
          </g>
        </g>
        <g id="Grupo_1226516" data-name="Grupo 1226516" transform="translate(21.935 43.891)">
          <g id="Grupo_1226515" data-name="Grupo 1226515">
            <ellipse id="Elipse_13519" data-name="Elipse 13519" cx="2.99" cy="2.991" rx="2.99" ry="2.991" fill="#b4e173"/>
          </g>
        </g>
        <g id="Grupo_1226518" data-name="Grupo 1226518" transform="translate(43.881 43.827)">
          <g id="Grupo_1226517" data-name="Grupo 1226517">
            <ellipse id="Elipse_13520" data-name="Elipse 13520" cx="2.99" cy="2.991" rx="2.99" ry="2.991" fill="#ffcd74"/>
          </g>
        </g>
        <g id="Grupo_1226520" data-name="Grupo 1226520" transform="translate(2.029 0.163)">
          <g id="Grupo_1226519" data-name="Grupo 1226519">
            <path id="Trazado_1057945" data-name="Trazado 1057945" d="M31.734,12.114a2.99,2.99,0,0,1-3.951,2.831,2.99,2.99,0,0,0,0-5.663,2.99,2.99,0,0,1,3.951,2.831Z" transform="translate(-27.783 -9.124)" fill="#ff9650"/>
          </g>
        </g>
        <g id="Grupo_1226522" data-name="Grupo 1226522" transform="translate(45.91 0.163)">
          <g id="Grupo_1226521" data-name="Grupo 1226521">
            <path id="Trazado_1057946" data-name="Trazado 1057946" d="M469.132,12.114a2.989,2.989,0,0,1-3.95,2.831,2.99,2.99,0,0,0,0-5.663,2.989,2.989,0,0,1,3.95,2.831Z" transform="translate(-465.182 -9.124)" fill="#ff9650"/>
          </g>
        </g>
        <g id="Grupo_1226524" data-name="Grupo 1226524" transform="translate(2.029 43.828)">
          <g id="Grupo_1226523" data-name="Grupo 1226523">
            <path id="Trazado_1057947" data-name="Trazado 1057947" d="M31.734,447.358a2.99,2.99,0,0,1-3.951,2.832,2.99,2.99,0,0,0,0-5.663,2.99,2.99,0,0,1,3.951,2.831Z" transform="translate(-27.783 -444.368)" fill="#ff9650"/>
          </g>
        </g>
        <g id="Grupo_1226526" data-name="Grupo 1226526" transform="translate(2.029 21.946)">
          <g id="Grupo_1226525" data-name="Grupo 1226525">
            <path id="Trazado_1057948" data-name="Trazado 1057948" d="M31.734,229.242a2.99,2.99,0,0,1-2.991,2.99,2.96,2.96,0,0,1-.96-.159,2.99,2.99,0,0,0,0-5.663,2.99,2.99,0,0,1,3.951,2.831Z" transform="translate(-27.783 -226.252)" fill="#87b45f"/>
          </g>
        </g>
        <g id="Grupo_1226528" data-name="Grupo 1226528" transform="translate(45.91 21.946)">
          <g id="Grupo_1226527" data-name="Grupo 1226527">
            <path id="Trazado_1057949" data-name="Trazado 1057949" d="M469.132,229.242a2.99,2.99,0,0,1-2.989,2.99,2.959,2.959,0,0,1-.961-.159,2.99,2.99,0,0,0,0-5.663,2.989,2.989,0,0,1,3.95,2.831Z" transform="translate(-465.182 -226.252)" fill="#87b45f"/>
          </g>
        </g>
        <g id="Grupo_1226530" data-name="Grupo 1226530" transform="translate(23.964 0)">
          <g id="Grupo_1226529" data-name="Grupo 1226529">
            <path id="Trazado_1057950" data-name="Trazado 1057950" d="M250.382,10.491a2.99,2.99,0,0,1-2.989,2.991,2.96,2.96,0,0,1-.96-.159,2.991,2.991,0,0,0,0-5.664,2.989,2.989,0,0,1,3.95,2.831Z" transform="translate(-246.432 -7.501)" fill="#87b45f"/>
          </g>
        </g>
        <g id="Grupo_1226532" data-name="Grupo 1226532" transform="translate(23.964 43.891)">
          <g id="Grupo_1226531" data-name="Grupo 1226531">
            <path id="Trazado_1057951" data-name="Trazado 1057951" d="M250.382,447.992a2.99,2.99,0,0,1-2.989,2.99,2.96,2.96,0,0,1-.96-.159,2.99,2.99,0,0,0,0-5.663,2.989,2.989,0,0,1,3.95,2.831Z" transform="translate(-246.432 -445.002)" fill="#87b45f"/>
          </g>
        </g>
        <g id="Grupo_1226534" data-name="Grupo 1226534" transform="translate(45.91 43.828)">
          <g id="Grupo_1226533" data-name="Grupo 1226533">
            <path id="Trazado_1057952" data-name="Trazado 1057952" d="M469.132,447.358a2.989,2.989,0,0,1-3.95,2.832,2.99,2.99,0,0,0,0-5.663,2.989,2.989,0,0,1,3.95,2.831Z" transform="translate(-465.182 -444.368)" fill="#ff9650"/>
          </g>
        </g>
      </g>
      <g id="Grupo_1226536" data-name="Grupo 1226536" transform="translate(0.058)">
        <path id="Trazado_1057953" data-name="Trazado 1057953" d="M247.839,285.352a.809.809,0,1,0,.808.809A.81.81,0,0,0,247.839,285.352Z" transform="translate(-222.253 -256.725)"/>
        <path id="Trazado_1057954" data-name="Trazado 1057954" d="M231.31,258.7a3.517,3.517,0,0,0-2.484,1.02.752.752,0,1,0,1.057,1.071,2.028,2.028,0,0,1,2.9.045.752.752,0,0,0,1.091-1.037A3.549,3.549,0,0,0,231.31,258.7Z" transform="translate(-205.674 -232.744)"/>
        <path id="Trazado_1057955" data-name="Trazado 1057955" d="M218.587,233.374a6.26,6.26,0,0,0-8.889-.083.752.752,0,1,0,1.059,1.069,4.755,4.755,0,0,1,6.751.063.752.752,0,0,0,1.079-1.049Z" transform="translate(-188.466 -208.258)"/>
        <path id="Trazado_1057956" data-name="Trazado 1057956" d="M201.664,207.032a.752.752,0,0,0,1.074-1.054,9.091,9.091,0,0,0-12.878-.092.752.752,0,1,0,1.058,1.07,7.586,7.586,0,0,1,10.747.076Z" transform="translate(-170.617 -182.867)"/>
        <path id="Trazado_1057957" data-name="Trazado 1057957" d="M3.8,226.236a3.743,3.743,0,1,0-3.742-3.743A3.747,3.747,0,0,0,3.8,226.236Zm0-5.981a2.238,2.238,0,1,1-2.237,2.238A2.24,2.24,0,0,1,3.8,220.255Z" transform="translate(-0.058 -196.804)"/>
        <path id="Trazado_1057958" data-name="Trazado 1057958" d="M441.2,218.75a3.743,3.743,0,1,0,3.742,3.743A3.747,3.747,0,0,0,441.2,218.75Zm0,5.981a2.238,2.238,0,1,1,2.237-2.238A2.24,2.24,0,0,1,441.2,224.731Z" transform="translate(-393.573 -196.804)"/>
        <path id="Trazado_1057959" data-name="Trazado 1057959" d="M222.446,7.486A3.743,3.743,0,1,0,218.7,3.743,3.747,3.747,0,0,0,222.446,7.486Zm0-5.981a2.238,2.238,0,1,1-2.237,2.238A2.24,2.24,0,0,1,222.446,1.5Z" transform="translate(-196.769)"/>
        <path id="Trazado_1057960" data-name="Trazado 1057960" d="M222.446,437.5a3.743,3.743,0,1,0,3.742,3.743A3.747,3.747,0,0,0,222.446,437.5Zm0,5.981a2.238,2.238,0,1,1,2.237-2.238A2.24,2.24,0,0,1,222.446,443.48Z" transform="translate(-196.769 -393.608)"/>
        <path id="Trazado_1057961" data-name="Trazado 1057961" d="M47.681,45.285a3.719,3.719,0,0,0-1.923.533L38.265,38.2a16.7,16.7,0,0,0,.018-22.127L45.7,8.535A3.749,3.749,0,1,0,44.608,7.5l-7.37,7.493A16.722,16.722,0,0,0,18.745,11.92a.752.752,0,1,0,.63,1.367,15.2,15.2,0,0,1,1.752-.678,12.788,12.788,0,0,0-2,2.867,20.088,20.088,0,0,0-1.5,3.805,20.14,20.14,0,0,0-3.526,1.383,12.692,12.692,0,0,0-2.924,2.008,15.174,15.174,0,0,1,1-2.461,15.369,15.369,0,0,1,4.43-5.265.752.752,0,1,0-.9-1.2,16.712,16.712,0,0,0-1.463,1.238L6.871,7.5a3.745,3.745,0,1,0-1.09,1.038l7.406,7.529a16.8,16.8,0,0,0-2.359,3.461A16.726,16.726,0,0,0,13.209,38.2L5.721,45.816A3.753,3.753,0,1,0,6.83,46.835l7.425-7.549a16.666,16.666,0,0,0,11.469,4.573h.021a16.666,16.666,0,0,0,11.473-4.576l7.431,7.555a3.74,3.74,0,1,0,3.032-1.552ZM1.563,5.363A2.237,2.237,0,1,1,3.8,7.6,2.24,2.24,0,0,1,1.563,5.363ZM29.835,35.056a.753.753,0,0,0,.864.622q.74-.121,1.445-.275a17.838,17.838,0,0,1-1.126,2.672c-1.265,2.4-2.851,3.865-4.529,4.2V36.061c.426-.01.85-.027,1.27-.054a.752.752,0,0,0-.095-1.5c-.635.04-1.283.06-1.927.06a28.24,28.24,0,0,1-6.886-.818,28.766,28.766,0,0,1,0-13.243,28.241,28.241,0,0,1,6.886-.818,28.24,28.24,0,0,1,6.886.818,28.766,28.766,0,0,1,0,13.24q-1.037.263-2.166.448A.753.753,0,0,0,29.835,35.056ZM11.179,31.588a12.7,12.7,0,0,0,2.916,2,20.139,20.139,0,0,0,3.526,1.383,20.085,20.085,0,0,0,1.5,3.805,12.8,12.8,0,0,0,2,2.862A15.294,15.294,0,0,1,11.179,31.588Zm5.4-3.71a29.391,29.391,0,0,0,.614,5.382,17.863,17.863,0,0,1-2.414-1.011c-2.386-1.224-3.843-2.753-4.189-4.371h5.989ZM19.328,35.4a29.943,29.943,0,0,0,5.655.657v6.216c-1.679-.338-3.264-1.8-4.529-4.2A17.854,17.854,0,0,1,19.328,35.4ZM31.017,16.177a17.848,17.848,0,0,1,1.126,2.671,29.938,29.938,0,0,0-5.655-.657V11.974C28.166,12.312,29.752,13.774,31.017,16.177Zm3.872,10.2a29.391,29.391,0,0,0-.614-5.382A17.87,17.87,0,0,1,36.689,22c2.386,1.224,3.843,2.753,4.189,4.371Zm0,1.5h5.988c-.472,2.165-2.95,4.145-6.6,5.379A29.4,29.4,0,0,0,34.889,27.879ZM47.681,3.125a2.238,2.238,0,1,1-2.237,2.238A2.24,2.24,0,0,1,47.681,3.125ZM40.292,22.664a12.7,12.7,0,0,0-2.916-2,20.138,20.138,0,0,0-3.526-1.383,20.088,20.088,0,0,0-1.5-3.805,12.8,12.8,0,0,0-2-2.862A15.294,15.294,0,0,1,40.292,22.664ZM20.454,16.177c1.265-2.4,2.85-3.865,4.529-4.2v6.216a29.943,29.943,0,0,0-5.655.657A17.829,17.829,0,0,1,20.454,16.177ZM14.782,22A17.874,17.874,0,0,1,17.2,20.992a29.391,29.391,0,0,0-.614,5.382H10.593C10.939,24.756,12.4,23.227,14.782,22ZM3.8,51.266a2.238,2.238,0,1,1,2.237-2.238A2.24,2.24,0,0,1,3.8,51.266Zm26.549-9.627a12.793,12.793,0,0,0,2-2.862,20.087,20.087,0,0,0,1.5-3.806,15.865,15.865,0,0,0,6.447-3.4A15.293,15.293,0,0,1,30.349,41.638Zm17.332,9.627a2.238,2.238,0,1,1,2.237-2.238A2.24,2.24,0,0,1,47.681,51.266Z" transform="translate(-0.058 -1.457)"/>
      </g>
    </g>
  </g>
</svg>
