<svg xmlns="http://www.w3.org/2000/svg" xmlns:xlink="http://www.w3.org/1999/xlink" width="103" height="103" viewBox="0 0 103 103">
  <defs>
    <filter id="Trazado_982547" x="0" y="0" width="103" height="103" filterUnits="userSpaceOnUse">
      <feOffset dy="3" input="SourceAlpha"/>
      <feGaussianBlur stdDeviation="3" result="blur"/>
      <feFlood flood-opacity="0.161"/>
      <feComposite operator="in" in2="blur"/>
      <feComposite in="SourceGraphic"/>
    </filter>
  </defs>
  <g id="Grupo_1226565" data-name="Grupo 1226565" transform="translate(-611 -6521.959)">
    <g id="Grupo_1226200" data-name="Grupo 1226200" transform="translate(620 6527.959)">
      <g id="Grupo_1225641" data-name="Grupo 1225641">
        <g id="Grupo_1225483" data-name="Grupo 1225483">
          <g id="Grupo_1210960" data-name="Grupo 1210960">
            <g id="Grupo_1210290" data-name="Grupo 1210290">
              <g id="Grupo_1207485" data-name="Grupo 1207485">
                <g id="Grupo_1207313" data-name="Grupo 1207313">
                  <g id="Grupo_1202212" data-name="Grupo 1202212">
                    <g id="Grupo_1174813" data-name="Grupo 1174813">
                      <g id="Grupo_1201680" data-name="Grupo 1201680">
                        <g id="Grupo_1201330" data-name="Grupo 1201330">
                          <g id="Grupo_1172010" data-name="Grupo 1172010">
                            <g id="Grupo_1171046" data-name="Grupo 1171046">
                              <g id="Grupo_1148525" data-name="Grupo 1148525">
                                <g transform="matrix(1, 0, 0, 1, -9, -6)" filter="url(#Trazado_982547)">
                                  <g id="Trazado_982547-2" data-name="Trazado 982547" transform="translate(9 6)" fill="#fdf6e4">
                                    <path d="M 42.5 83.5 C 36.96437835693359 83.5 31.59512901306152 82.41617584228516 26.54141235351562 80.27863311767578 C 21.65934181213379 78.21369171142578 17.27447128295898 75.25723266601562 13.50862312316895 71.49137878417969 C 9.742764472961426 67.72553253173828 6.786305904388428 63.34066009521484 4.721364498138428 58.45858764648438 C 2.583823442459106 53.40486907958984 1.5 48.03562164306641 1.5 42.5 C 1.5 36.96437835693359 2.583823442459106 31.59512901306152 4.721364498138428 26.54141235351562 C 6.786305904388428 21.65934181213379 9.742764472961426 17.27448272705078 13.50862312316895 13.50862312316895 C 17.27447128295898 9.742776870727539 21.65934181213379 6.786305904388428 26.54141235351562 4.721364498138428 C 31.59512901306152 2.583823442459106 36.96437835693359 1.5 42.5 1.5 C 48.03562164306641 1.5 53.40486907958984 2.583823442459106 58.45858764648438 4.721364498138428 C 63.34066009521484 6.786305904388428 67.72553253173828 9.742776870727539 71.49137878417969 13.50862312316895 C 75.25723266601562 17.27448272705078 78.21369171142578 21.65934181213379 80.27863311767578 26.54141235351562 C 82.41617584228516 31.59512901306152 83.5 36.96437835693359 83.5 42.5 C 83.5 48.03562164306641 82.41617584228516 53.40486907958984 80.27863311767578 58.45858764648438 C 78.21369171142578 63.34066009521484 75.25723266601562 67.72553253173828 71.49137878417969 71.49137878417969 C 67.72553253173828 75.25723266601562 63.34066009521484 78.21369171142578 58.45858764648438 80.27863311767578 C 53.40486907958984 82.41617584228516 48.03562164306641 83.5 42.5 83.5 Z" stroke="none"/>
                                    <path d="M 42.5 3 C 37.16621398925781 3 31.99356079101562 4.043960571289062 27.125732421875 6.102882385253906 C 22.42246627807617 8.092185974121094 18.19785308837891 10.94070434570312 14.56928253173828 14.56928253173828 C 10.94070434570312 18.19785308837891 8.092185974121094 22.42246627807617 6.102882385253906 27.125732421875 C 4.043960571289062 31.99356079101562 3 37.16621398925781 3 42.5 C 3 47.83378601074219 4.043960571289062 53.00643920898438 6.102882385253906 57.874267578125 C 8.092185974121094 62.57753372192383 10.94070434570312 66.80214691162109 14.56928253173828 70.43071746826172 C 18.19785308837891 74.05929565429688 22.42246627807617 76.90781402587891 27.125732421875 78.89711761474609 C 31.99356079101562 80.95603942871094 37.16621398925781 82 42.5 82 C 47.83378601074219 82 53.00643920898438 80.95603942871094 57.874267578125 78.89711761474609 C 62.57753372192383 76.90781402587891 66.80214691162109 74.05929565429688 70.43071746826172 70.43071746826172 C 74.05929565429688 66.80214691162109 76.90781402587891 62.57753372192383 78.89711761474609 57.874267578125 C 80.95603942871094 53.00643920898438 82 47.83378601074219 82 42.5 C 82 37.16621398925781 80.95603942871094 31.99356079101562 78.89711761474609 27.125732421875 C 76.90781402587891 22.42246627807617 74.05929565429688 18.19785308837891 70.43071746826172 14.56928253173828 C 66.80214691162109 10.94070434570312 62.57753372192383 8.092185974121094 57.874267578125 6.102882385253906 C 53.00643920898438 4.043960571289062 47.83378601074219 3 42.5 3 M 42.5 0 C 65.97210693359375 0 85 19.02789306640625 85 42.5 C 85 65.97210693359375 65.97210693359375 85 42.5 85 C 19.02789306640625 85 0 65.97210693359375 0 42.5 C 0 19.02789306640625 19.02789306640625 0 42.5 0 Z" stroke="none" fill="#856002"/>
                                  </g>
                                </g>
                              </g>
                            </g>
                          </g>
                        </g>
                      </g>
                    </g>
                  </g>
                </g>
              </g>
            </g>
          </g>
        </g>
      </g>
    </g>
    <g id="big-data" transform="translate(637.5 6545.459)">
      <g id="Grupo_1226563" data-name="Grupo 1226563" transform="translate(0.815 0.814)">
        <g id="Grupo_1226554" data-name="Grupo 1226554" transform="translate(21.164)">
          <path id="Trazado_1057989" data-name="Trazado 1057989" d="M38.861,27.04l-.008.008A12.982,12.982,0,0,0,28.01,23.988l-.033-.212a.812.812,0,0,0,.651-.8v-8.14a.816.816,0,0,0-.814-.814H27V10.768h.814a.816.816,0,0,0,.814-.814V5.412A13.023,13.023,0,1,1,38.861,27.04Z" transform="translate(-27.001 -1)" fill="#69d6f4"/>
        </g>
        <g id="Grupo_1226555" data-name="Grupo 1226555" transform="translate(1.628 9.768)">
          <path id="Trazado_1057990" data-name="Trazado 1057990" d="M3,13H22.537v3.256H3Z" transform="translate(-3.001 -13)" fill="#ffeaa7"/>
        </g>
        <g id="Grupo_1226556" data-name="Grupo 1226556">
          <path id="Trazado_1057991" data-name="Trazado 1057991" d="M23.793,5.412V9.954a.816.816,0,0,1-.814.814H1.815A.816.816,0,0,1,1,9.954V1.814A.816.816,0,0,1,1.815,1H22.979a.816.816,0,0,1,.814.814Z" transform="translate(-1.001 -1)" fill="#fcd770"/>
        </g>
        <g id="Grupo_1226557" data-name="Grupo 1226557" transform="translate(0 13.024)">
          <path id="Trazado_1057992" data-name="Trazado 1057992" d="M22.979,17a.816.816,0,0,1,.814.814v8.14a.812.812,0,0,1-.651.8,1,1,0,0,1-.163.016H1.815A.816.816,0,0,1,1,25.954v-8.14A.816.816,0,0,1,1.815,17H22.979Z" transform="translate(-1.001 -17)" fill="#fcd770"/>
        </g>
        <g id="Grupo_1226558" data-name="Grupo 1226558" transform="translate(1.628 22.776)">
          <path id="Trazado_1057993" data-name="Trazado 1057993" d="M23.351,29a1,1,0,0,0,.163-.016l.033.212a12.862,12.862,0,0,0-6.357,3.069l-.008-.008H3V29Z" transform="translate(-3.001 -28.98)" fill="#ffeaa7"/>
        </g>
        <g id="Grupo_1226559" data-name="Grupo 1226559" transform="translate(0 26.048)">
          <path id="Trazado_1057994" data-name="Trazado 1057994" d="M8.091,39.577a8.072,8.072,0,0,0-5.438,3.207l-.024-.016H1.815A.816.816,0,0,1,1,41.954v-8.14A.816.816,0,0,1,1.815,33H16.809l.008.008a12.973,12.973,0,0,0-4.184,7.3,8.086,8.086,0,0,0-4.542-.733Z" transform="translate(-1.001 -33)" fill="#fcd770"/>
        </g>
        <g id="Grupo_1226560" data-name="Grupo 1226560" transform="translate(0.001 22.792)">
          <path id="Trazado_1057995" data-name="Trazado 1057995" d="M49.8,46.094a8.143,8.143,0,0,1-8.1,8.954H9.141a8.143,8.143,0,0,1-8.1-8.954A7.869,7.869,0,0,1,2.654,42.04a8.049,8.049,0,0,1,9.98-2.475A13.081,13.081,0,0,1,23.175,29.2a12.982,12.982,0,0,1,10.843,3.061,12.96,12.96,0,0,1,4.192,7.31,8.086,8.086,0,0,1,4.542-.733A8.2,8.2,0,0,1,49.8,46.094Z" transform="translate(-1.002 -29)" fill="#e6e9ed"/>
        </g>
        <g id="Grupo_1226561" data-name="Grupo 1226561" transform="translate(26.048 30.932)">
          <path id="Trazado_1057996" data-name="Trazado 1057996" d="M39.512,47.14l-3.256,4.884L33,47.14h1.628V39h3.256v8.14Z" transform="translate(-33 -39)" fill="#ff826e"/>
        </g>
        <g id="Grupo_1226562" data-name="Grupo 1226562" transform="translate(16.28 30.932)">
          <path id="Trazado_1057997" data-name="Trazado 1057997" d="M24.257,39l3.256,4.884H25.885v8.14H22.629v-8.14H21Z" transform="translate(-21.001 -39)" fill="#ff826e"/>
        </g>
      </g>
      <g id="Grupo_1226564" data-name="Grupo 1226564" transform="translate(0 0)">
        <path id="Trazado_1057998" data-name="Trazado 1057998" d="M38.351,38H33.467v8.14H31.132l4.777,7.166,4.777-7.166H38.351ZM35.909,50.371l-1.735-2.6h.921v-8.14h1.628v8.14h.921Z" transform="translate(-5.79 -7.068)"/>
        <path id="Trazado_1057999" data-name="Trazado 1057999" d="M19.132,44.363h2.335V52.5h4.884v-8.14h2.335L23.909,37.2Zm5.591-1.628v8.14H23.1v-8.14h-.921l1.735-2.6,1.735,2.6Z" transform="translate(-3.558 -6.918)"/>
        <path id="Trazado_1058000" data-name="Trazado 1058000" d="M50.426,40.623A8.941,8.941,0,0,0,38.6,33.055a13.766,13.766,0,0,0-3-5.568A13.832,13.832,0,1,0,24.42,3.311V1.628A1.63,1.63,0,0,0,22.792,0H1.628A1.63,1.63,0,0,0,0,1.628v8.14A1.63,1.63,0,0,0,1.628,11.4v1.628A1.63,1.63,0,0,0,0,14.652v8.14A1.63,1.63,0,0,0,1.628,24.42v1.628A1.63,1.63,0,0,0,0,27.676v8.14a1.628,1.628,0,0,0,1.05,1.517,8.776,8.776,0,0,0-1.006,3.29,8.876,8.876,0,0,0,2.278,6.908,8.976,8.976,0,0,0,6.633,2.937h32.56a8.972,8.972,0,0,0,6.632-2.938A8.881,8.881,0,0,0,50.426,40.623Zm-26-30.855V8.14H28.41a21.8,21.8,0,0,0-.7,4.884H22.793V11.4A1.63,1.63,0,0,0,24.421,9.768ZM36.639,8.14a19.846,19.846,0,0,1,.778,4.884H29.334a19.788,19.788,0,0,1,.784-4.884ZM30.681,6.512A16.127,16.127,0,0,1,33.377,2a15.932,15.932,0,0,1,2.7,4.517Zm14.863,6.512h-6.5a21.8,21.8,0,0,0-.7-4.884h5.826A12.111,12.111,0,0,1,45.544,13.024ZM27.7,14.652a21.6,21.6,0,0,0,.719,4.884h-4V14.652Zm1.628,0h8.1a19.748,19.748,0,0,1-.785,4.884H30.1A19.9,19.9,0,0,1,29.325,14.652Zm9.724,0h6.5a12.2,12.2,0,0,1-1.355,4.884H38.337a21.693,21.693,0,0,0,.712-4.884Zm-14.628,8.14V21.164h4.507a19.291,19.291,0,0,0,1.111,2.5,13.756,13.756,0,0,0-4.8-.872c-.275,0-.546.019-.817.034,0-.011,0-.022,0-.034Zm8.5,2.345a16.418,16.418,0,0,1-2.256-3.973h5.4a16.291,16.291,0,0,1-2.573,4.379C33.308,25.4,33.116,25.268,32.923,25.138Zm2.382.751a18.126,18.126,0,0,0,2.528-4.724h5.319A12.125,12.125,0,0,1,35.3,25.888ZM43.12,6.512H37.828A18.179,18.179,0,0,0,35.313,1.8,12.2,12.2,0,0,1,43.12,6.512ZM31.433,1.8a18.166,18.166,0,0,0-2.511,4.711h-4.5V5.555A12.2,12.2,0,0,1,31.433,1.8Zm-29.8-.173H22.793v8.14H1.629ZM3.257,11.4H21.165v1.628H3.257ZM1.629,14.652H22.793v8.14H1.629ZM3.257,24.42h15.48a13.9,13.9,0,0,0-2.393,1.628H3.257Zm-1.628,11.4v-8.14H14.7a13.755,13.755,0,0,0-2.834,5.379,8.9,8.9,0,0,0-9.807,2.761Zm45.313,10.62a7.343,7.343,0,0,1-5.427,2.4H8.954A7.325,7.325,0,1,1,12.1,34.906l.952.454.2-1.035a12.2,12.2,0,0,1,23.972,0l.2,1.035.952-.454a7.322,7.322,0,0,1,8.571,11.531Z" transform="translate(0 0)"/>
        <path id="Trazado_1058001" data-name="Trazado 1058001" d="M52,34h1.628v1.628H52Z" transform="translate(-9.671 -6.324)"/>
        <path id="Trazado_1058002" data-name="Trazado 1058002" d="M56,34h1.628v1.628H56Z" transform="translate(-10.415 -6.324)"/>
        <path id="Trazado_1058003" data-name="Trazado 1058003" d="M60,34h1.628v1.628H60Z" transform="translate(-11.159 -6.324)"/>
      </g>
    </g>
  </g>
</svg>
