<svg xmlns="http://www.w3.org/2000/svg" xmlns:xlink="http://www.w3.org/1999/xlink" width="103" height="103" viewBox="0 0 103 103">
  <defs>
    <filter id="Trazado_982547" x="0" y="0" width="103" height="103" filterUnits="userSpaceOnUse">
      <feOffset dy="3" input="SourceAlpha"/>
      <feGaussianBlur stdDeviation="3" result="blur"/>
      <feFlood flood-opacity="0.161"/>
      <feComposite operator="in" in2="blur"/>
      <feComposite in="SourceGraphic"/>
    </filter>
  </defs>
  <g id="Grupo_1226553" data-name="Grupo 1226553" transform="translate(-1035 -6521.959)">
    <g id="Grupo_1226205" data-name="Grupo 1226205" transform="translate(1044 6527.959)">
      <g id="Grupo_1225643" data-name="Grupo 1225643">
        <g id="Grupo_1225484" data-name="Grupo 1225484">
          <g id="Grupo_1210961" data-name="Grupo 1210961">
            <g id="Grupo_1210290" data-name="Grupo 1210290">
              <g id="Grupo_1207485" data-name="Grupo 1207485">
                <g id="Grupo_1207313" data-name="Grupo 1207313">
                  <g id="Grupo_1202212" data-name="Grupo 1202212">
                    <g id="Grupo_1174813" data-name="Grupo 1174813">
                      <g id="Grupo_1201680" data-name="Grupo 1201680">
                        <g id="Grupo_1201330" data-name="Grupo 1201330">
                          <g id="Grupo_1172010" data-name="Grupo 1172010">
                            <g id="Grupo_1171046" data-name="Grupo 1171046">
                              <g id="Grupo_1148525" data-name="Grupo 1148525">
                                <g transform="matrix(1, 0, 0, 1, -9, -6)" filter="url(#Trazado_982547)">
                                  <g id="Trazado_982547-2" data-name="Trazado 982547" transform="translate(9 6)" fill="#fdf6e4">
                                    <path d="M 42.5 83.5 C 36.96437835693359 83.5 31.59512901306152 82.41617584228516 26.54141235351562 80.27863311767578 C 21.65934181213379 78.21369171142578 17.27447128295898 75.25723266601562 13.50862312316895 71.49137878417969 C 9.742764472961426 67.72553253173828 6.786305904388428 63.34066009521484 4.721364498138428 58.45858764648438 C 2.583823442459106 53.40486907958984 1.5 48.03562164306641 1.5 42.5 C 1.5 36.96437835693359 2.583823442459106 31.59512901306152 4.721364498138428 26.54141235351562 C 6.786305904388428 21.65934181213379 9.742764472961426 17.27448272705078 13.50862312316895 13.50862312316895 C 17.27447128295898 9.742776870727539 21.65934181213379 6.786305904388428 26.54141235351562 4.721364498138428 C 31.59512901306152 2.583823442459106 36.96437835693359 1.5 42.5 1.5 C 48.03562164306641 1.5 53.40486907958984 2.583823442459106 58.45858764648438 4.721364498138428 C 63.34066009521484 6.786305904388428 67.72553253173828 9.742776870727539 71.49137878417969 13.50862312316895 C 75.25723266601562 17.27448272705078 78.21369171142578 21.65934181213379 80.27863311767578 26.54141235351562 C 82.41617584228516 31.59512901306152 83.5 36.96437835693359 83.5 42.5 C 83.5 48.03562164306641 82.41617584228516 53.40486907958984 80.27863311767578 58.45858764648438 C 78.21369171142578 63.34066009521484 75.25723266601562 67.72553253173828 71.49137878417969 71.49137878417969 C 67.72553253173828 75.25723266601562 63.34066009521484 78.21369171142578 58.45858764648438 80.27863311767578 C 53.40486907958984 82.41617584228516 48.03562164306641 83.5 42.5 83.5 Z" stroke="none"/>
                                    <path d="M 42.5 3 C 37.16621398925781 3 31.99356079101562 4.043960571289062 27.125732421875 6.102882385253906 C 22.42246627807617 8.092185974121094 18.19785308837891 10.94070434570312 14.56928253173828 14.56928253173828 C 10.94070434570312 18.19785308837891 8.092185974121094 22.42246627807617 6.102882385253906 27.125732421875 C 4.043960571289062 31.99356079101562 3 37.16621398925781 3 42.5 C 3 47.83378601074219 4.043960571289062 53.00643920898438 6.102882385253906 57.874267578125 C 8.092185974121094 62.57753372192383 10.94070434570312 66.80214691162109 14.56928253173828 70.43071746826172 C 18.19785308837891 74.05929565429688 22.42246627807617 76.90781402587891 27.125732421875 78.89711761474609 C 31.99356079101562 80.95603942871094 37.16621398925781 82 42.5 82 C 47.83378601074219 82 53.00643920898438 80.95603942871094 57.874267578125 78.89711761474609 C 62.57753372192383 76.90781402587891 66.80214691162109 74.05929565429688 70.43071746826172 70.43071746826172 C 74.05929565429688 66.80214691162109 76.90781402587891 62.57753372192383 78.89711761474609 57.874267578125 C 80.95603942871094 53.00643920898438 82 47.83378601074219 82 42.5 C 82 37.16621398925781 80.95603942871094 31.99356079101562 78.89711761474609 27.125732421875 C 76.90781402587891 22.42246627807617 74.05929565429688 18.19785308837891 70.43071746826172 14.56928253173828 C 66.80214691162109 10.94070434570312 62.57753372192383 8.092185974121094 57.874267578125 6.102882385253906 C 53.00643920898438 4.043960571289062 47.83378601074219 3 42.5 3 M 42.5 0 C 65.97210693359375 0 85 19.02789306640625 85 42.5 C 85 65.97210693359375 65.97210693359375 85 42.5 85 C 19.02789306640625 85 0 65.97210693359375 0 42.5 C 0 19.02789306640625 19.02789306640625 0 42.5 0 Z" stroke="none" fill="#856002"/>
                                  </g>
                                </g>
                              </g>
                            </g>
                          </g>
                        </g>
                      </g>
                    </g>
                  </g>
                </g>
              </g>
            </g>
          </g>
        </g>
      </g>
    </g>
    <g id="servicio-de-almacenamiento-en-la-nube" transform="translate(1060.021 6540.479)">
      <g id="Grupo_1226551" data-name="Grupo 1226551" transform="translate(0.854 0.854)">
        <g id="Grupo_1226538" data-name="Grupo 1226538" transform="translate(41.855 47.834)">
          <path id="Trazado_1057962" data-name="Trazado 1057962" d="M50,57h5.125v3.417H50Z" transform="translate(-50 -57)" fill="#aab2bd"/>
        </g>
        <g id="Grupo_1226539" data-name="Grupo 1226539" transform="translate(23.063 47.834)">
          <path id="Trazado_1057963" data-name="Trazado 1057963" d="M28,57h5.125v3.417H28Z" transform="translate(-28 -57)" fill="#aab2bd"/>
        </g>
        <g id="Grupo_1226540" data-name="Grupo 1226540" transform="translate(4.271 47.834)">
          <path id="Trazado_1057964" data-name="Trazado 1057964" d="M6,57h5.125v3.417H6Z" transform="translate(-6 -57)" fill="#aab2bd"/>
        </g>
        <g id="Grupo_1226541" data-name="Grupo 1226541" transform="translate(0 44.417)">
          <path id="Trazado_1057965" data-name="Trazado 1057965" d="M14.667,53v1.708a1.713,1.713,0,0,1-1.708,1.708H2.708A1.713,1.713,0,0,1,1,54.708V53Z" transform="translate(-1 -53)" fill="#ccd1d9"/>
        </g>
        <g id="Grupo_1226542" data-name="Grupo 1226542" transform="translate(37.584 44.417)">
          <path id="Trazado_1057966" data-name="Trazado 1057966" d="M58.667,53v1.708a1.713,1.713,0,0,1-1.708,1.708H46.708A1.713,1.713,0,0,1,45,54.708V53Z" transform="translate(-45 -53)" fill="#ccd1d9"/>
        </g>
        <g id="Grupo_1226543" data-name="Grupo 1226543" transform="translate(18.792 44.417)">
          <path id="Trazado_1057967" data-name="Trazado 1057967" d="M36.667,53v1.708a1.713,1.713,0,0,1-1.708,1.708H24.708A1.713,1.713,0,0,1,23,54.708V53Z" transform="translate(-23 -53)" fill="#ccd1d9"/>
        </g>
        <g id="Grupo_1226544" data-name="Grupo 1226544" transform="translate(37.584 37.584)">
          <path id="Trazado_1057968" data-name="Trazado 1057968" d="M58.667,46.708v5.125H45V46.708A1.713,1.713,0,0,1,46.708,45h10.25A1.713,1.713,0,0,1,58.667,46.708Z" transform="translate(-45 -45)" fill="#69d6f4"/>
        </g>
        <g id="Grupo_1226545" data-name="Grupo 1226545" transform="translate(18.792 37.584)">
          <path id="Trazado_1057969" data-name="Trazado 1057969" d="M36.667,46.708v5.125H23V46.708A1.713,1.713,0,0,1,24.708,45h10.25A1.713,1.713,0,0,1,36.667,46.708Z" transform="translate(-23 -45)" fill="#69d6f4"/>
        </g>
        <g id="Grupo_1226546" data-name="Grupo 1226546" transform="translate(0 37.584)">
          <path id="Trazado_1057970" data-name="Trazado 1057970" d="M14.667,46.708v5.125H1V46.708A1.713,1.713,0,0,1,2.708,45h10.25A1.713,1.713,0,0,1,14.667,46.708Z" transform="translate(-1 -45)" fill="#69d6f4"/>
        </g>
        <g id="Grupo_1226547" data-name="Grupo 1226547">
          <path id="Trazado_1057971" data-name="Trazado 1057971" d="M46.271,14.667a5.979,5.979,0,1,1,0,11.958H6.979a5.979,5.979,0,1,1,0-11.958c.051,0,.1.009.154.009A10.219,10.219,0,0,1,22.32,7.492a12.809,12.809,0,0,1,23.951,6.321Z" transform="translate(-1 -1)" fill="#e6e9ed"/>
        </g>
        <g id="Grupo_1226548" data-name="Grupo 1226548" transform="translate(32.459 18.792)">
          <ellipse id="Elipse_13521" data-name="Elipse 13521" cx="2" cy="1.5" rx="2" ry="1.5" transform="translate(-0.313 0.354)" fill="#ef7385"/>
        </g>
        <g id="Grupo_1226549" data-name="Grupo 1226549" transform="translate(23.917 16.229)">
          <ellipse id="Elipse_13522" data-name="Elipse 13522" cx="1.5" cy="2" rx="1.5" ry="2" transform="translate(0.229 -0.083)" fill="#ef7385"/>
        </g>
        <g id="Grupo_1226550" data-name="Grupo 1226550" transform="translate(15.375 18.792)">
          <ellipse id="Elipse_13523" data-name="Elipse 13523" cx="2" cy="1.5" rx="2" ry="1.5" transform="translate(-0.229 0.354)" fill="#ef7385"/>
        </g>
      </g>
      <g id="Grupo_1226552" data-name="Grupo 1226552" transform="translate(0 0)">
        <path id="Trazado_1057972" data-name="Trazado 1057972" d="M12.813,43.417H8.542V40H6.833v3.417H2.563A2.566,2.566,0,0,0,0,45.979v6.833a2.566,2.566,0,0,0,2.563,2.563H4.271v1.708H2.563v1.708h10.25V57.084H11.1V55.375h1.708a2.566,2.566,0,0,0,2.563-2.563V45.979A2.566,2.566,0,0,0,12.813,43.417ZM2.563,45.125h10.25a.856.856,0,0,1,.854.854V50.25H1.708V45.979A.856.856,0,0,1,2.563,45.125ZM9.4,57.084H5.979V55.375H9.4Zm3.417-3.417H2.563a.856.856,0,0,1-.854-.854v-.854H13.667v.854A.856.856,0,0,1,12.813,53.667Z" transform="translate(0 -5.833)"/>
        <path id="Trazado_1057973" data-name="Trazado 1057973" d="M34.813,42.688H30.542V35H28.833v7.688H24.563A2.566,2.566,0,0,0,22,45.25v6.833a2.566,2.566,0,0,0,2.563,2.563h1.708v1.708H24.563v1.708h10.25V56.354H33.1V54.646h1.708a2.566,2.566,0,0,0,2.563-2.563V45.25A2.566,2.566,0,0,0,34.813,42.688ZM24.563,44.4h10.25a.856.856,0,0,1,.854.854v4.271H23.708V45.25A.856.856,0,0,1,24.563,44.4ZM31.4,56.354H27.979V54.646H31.4Zm3.417-3.417H24.563a.856.856,0,0,1-.854-.854v-.854H35.667v.854A.856.856,0,0,1,34.813,52.938Z" transform="translate(-3.208 -5.104)"/>
        <path id="Trazado_1057974" data-name="Trazado 1057974" d="M56.813,43.417H52.542V40H50.833v3.417H46.563A2.566,2.566,0,0,0,44,45.979v6.833a2.566,2.566,0,0,0,2.563,2.563h1.708v1.708H46.563v1.708h10.25V57.084H55.1V55.375h1.708a2.566,2.566,0,0,0,2.563-2.563V45.979A2.566,2.566,0,0,0,56.813,43.417Zm-10.25,1.708h10.25a.856.856,0,0,1,.854.854V50.25H45.708V45.979A.856.856,0,0,1,46.563,45.125ZM53.4,57.084H49.979V55.375H53.4Zm3.417-3.417H46.563a.856.856,0,0,1-.854-.854v-.854H57.667v.854A.856.856,0,0,1,56.813,53.667Z" transform="translate(-6.416 -5.833)"/>
        <path id="Trazado_1057975" data-name="Trazado 1057975" d="M19.708,26.968v3.574h1.708V26.968a2.563,2.563,0,1,0-1.708,0Zm.854-3.26a.854.854,0,1,1-.854.854A.856.856,0,0,1,20.563,23.708Z" transform="translate(-2.625 -3.208)"/>
        <path id="Trazado_1057976" data-name="Trazado 1057976" d="M31.417,23.968a2.563,2.563,0,1,0-1.708,0v3.574h1.708Zm-.854-3.26a.854.854,0,1,1-.854.854A.856.856,0,0,1,30.563,20.708Z" transform="translate(-4.083 -2.771)"/>
        <path id="Trazado_1057977" data-name="Trazado 1057977" d="M30,31h1.708v1.708H30Z" transform="translate(-4.375 -4.521)"/>
        <path id="Trazado_1057978" data-name="Trazado 1057978" d="M41.417,26.968a2.563,2.563,0,1,0-1.708,0v3.574h1.708Zm-.854-3.26a.854.854,0,1,1-.854.854A.856.856,0,0,1,40.563,23.708Z" transform="translate(-5.541 -3.208)"/>
        <path id="Trazado_1057979" data-name="Trazado 1057979" d="M40,34h1.708v1.708H40Z" transform="translate(-5.833 -4.958)"/>
        <path id="Trazado_1057980" data-name="Trazado 1057980" d="M52.542,37.417V34H44v1.708h6.833v1.708Z" transform="translate(-6.416 -4.958)"/>
        <path id="Trazado_1057981" data-name="Trazado 1057981" d="M20,34h1.708v1.708H20Z" transform="translate(-2.916 -4.958)"/>
        <path id="Trazado_1057982" data-name="Trazado 1057982" d="M16.542,34H8v3.417H9.708V35.708h6.833Z" transform="translate(-1.167 -4.958)"/>
        <path id="Trazado_1057983" data-name="Trazado 1057983" d="M6.833,27.334h8.542V25.625H6.833a5.124,5.124,0,1,1,.023-10.248h0l.846.024.122-.731A9.373,9.373,0,0,1,21.752,8.084l.744.427.425-.746a11.953,11.953,0,0,1,22.35,5.9v.059A6.84,6.84,0,0,0,39.292,20.5H41a5.125,5.125,0,1,1,5.125,5.125H37.584v1.708h8.542a6.831,6.831,0,0,0,.854-13.608v-.059A13.661,13.661,0,0,0,21.866,6.215,11.08,11.08,0,0,0,6.283,13.689a6.833,6.833,0,0,0,.55,13.645Z" transform="translate(0 0)"/>
        <path id="Trazado_1057984" data-name="Trazado 1057984" d="M47.667,39.813V36.4H35.708V27H34V38.1H45.958v1.708Z" transform="translate(-4.958 -3.937)"/>
        <path id="Trazado_1057985" data-name="Trazado 1057985" d="M13.708,38.1H25.667V27H23.958v9.4H12v3.417h1.708Z" transform="translate(-1.75 -3.937)"/>
        <path id="Trazado_1057986" data-name="Trazado 1057986" d="M35.111,6.1l-.465-1.644a10.285,10.285,0,0,0-6.337,5.2l1.521.777A8.575,8.575,0,0,1,35.111,6.1Z" transform="translate(-4.128 -0.649)"/>
        <path id="Trazado_1057987" data-name="Trazado 1057987" d="M47.242,12.7l1.68-.308A10.243,10.243,0,0,0,38.841,4c-.313,0-.624.015-.931.042l.155,1.7q.383-.035.776-.035A8.535,8.535,0,0,1,47.242,12.7Z" transform="translate(-5.528 -0.583)"/>
        <path id="Trazado_1057988" data-name="Trazado 1057988" d="M18.7,10a7.7,7.7,0,0,0-7.628,6.727l1.695.211a5.985,5.985,0,0,1,5.933-5.23Z" transform="translate(-1.614 -1.458)"/>
      </g>
    </g>
  </g>
</svg>
