<svg xmlns="http://www.w3.org/2000/svg" xmlns:xlink="http://www.w3.org/1999/xlink" width="113" height="113" viewBox="0 0 113 113">
  <defs>
    <filter id="Trazado_982547" x="0" y="0" width="113" height="113" filterUnits="userSpaceOnUse">
      <feOffset dy="3" input="SourceAlpha"/>
      <feGaussianBlur stdDeviation="3" result="blur"/>
      <feFlood flood-opacity="0.161"/>
      <feComposite operator="in" in2="blur"/>
      <feComposite in="SourceGraphic"/>
    </filter>
  </defs>
  <g id="Grupo_1226566" data-name="Grupo 1226566" transform="translate(-270.884 -7162.813)">
    <g id="Grupo_1226282" data-name="Grupo 1226282" transform="translate(-0.429 -2801.662)">
      <g id="Grupo_1225528" data-name="Grupo 1225528" transform="translate(0.313 8669.134)">
        <g id="Grupo_1225173" data-name="Grupo 1225173" transform="translate(0 -3445.654)">
          <g id="Grupo_1224643" data-name="Grupo 1224643" transform="translate(0 1927)">
            <g id="Grupo_1224291" data-name="Grupo 1224291" transform="translate(0 859.245)">
              <g id="Grupo_1224091" data-name="Grupo 1224091" transform="translate(-84.49 -2620.317)">
                <g id="Grupo_1223183" data-name="Grupo 1223183" transform="translate(364.49 4581.069)">
                  <g id="Grupo_1211217" data-name="Grupo 1211217" transform="translate(0)">
                    <g id="Grupo_1210736" data-name="Grupo 1210736">
                      <g id="Grupo_1210537" data-name="Grupo 1210537">
                        <g id="Grupo_1164202" data-name="Grupo 1164202">
                          <g id="Grupo_1158168" data-name="Grupo 1158168">
                            <g id="Grupo_1152576" data-name="Grupo 1152576">
                              <g id="Grupo_1148633" data-name="Grupo 1148633">
                                <g id="Grupo_1148525" data-name="Grupo 1148525">
                                  <g transform="matrix(1, 0, 0, 1, -9, -6)" filter="url(#Trazado_982547)">
                                    <g id="Trazado_982547-2" data-name="Trazado 982547" transform="translate(9 6)" fill="#fdf6e4">
                                      <path d="M 47.49999618530273 93.5 C 41.28936767578125 93.5 35.26533126831055 92.28396606445312 29.59518241882324 89.88570404052734 C 24.11771583557129 87.56893157958984 19.19812965393066 84.251953125 14.97308921813965 80.02690124511719 C 10.74803638458252 75.80186462402344 7.431062698364258 70.88227844238281 5.114289283752441 65.40480804443359 C 2.716022968292236 59.73466110229492 1.499996185302734 53.71062469482422 1.499996185302734 47.49999618530273 C 1.499996185302734 41.28936767578125 2.716022968292236 35.26533126831055 5.114289283752441 29.59518241882324 C 7.431062698364258 24.11771583557129 10.74803638458252 19.19812965393066 14.97308921813965 14.97308921813965 C 19.19812965393066 10.74803638458252 24.11771583557129 7.431062698364258 29.59518241882324 5.114289283752441 C 35.26533126831055 2.716022968292236 41.28936767578125 1.499996185302734 47.49999618530273 1.499996185302734 C 53.71062469482422 1.499996185302734 59.73466110229492 2.716022968292236 65.40480804443359 5.114289283752441 C 70.88227844238281 7.431062698364258 75.80186462402344 10.74803638458252 80.02690124511719 14.97308921813965 C 84.251953125 19.19812965393066 87.56893157958984 24.11771583557129 89.88570404052734 29.59518241882324 C 92.28396606445312 35.26533126831055 93.5 41.28936767578125 93.5 47.49999618530273 C 93.5 53.71062469482422 92.28396606445312 59.73466110229492 89.88570404052734 65.40480804443359 C 87.56893157958984 70.88227844238281 84.251953125 75.80186462402344 80.02690124511719 80.02690124511719 C 75.80186462402344 84.251953125 70.88227844238281 87.56893157958984 65.40480804443359 89.88570404052734 C 59.73466110229492 92.28396606445312 53.71062469482422 93.5 47.49999618530273 93.5 Z" stroke="none"/>
                                      <path d="M 47.49999618530273 2.999992370605469 C 41.4912109375 2.999992370605469 35.66376495361328 4.1761474609375 30.17950439453125 6.495796203613281 C 24.88084411621094 8.736953735351562 20.12152099609375 11.94598388671875 16.03375244140625 16.03375244140625 C 11.94598388671875 20.12152099609375 8.736953735351562 24.88084411621094 6.495796203613281 30.17950439453125 C 4.1761474609375 35.66376495361328 2.999992370605469 41.4912109375 2.999992370605469 47.49999618530273 C 2.999992370605469 53.50878143310547 4.1761474609375 59.33622741699219 6.495796203613281 64.82048797607422 C 8.736953735351562 70.11914825439453 11.94598388671875 74.87847137451172 16.03375244140625 78.96623992919922 C 20.12152099609375 83.05400848388672 24.88084411621094 86.26304626464844 30.17950439453125 88.50419616699219 C 35.66376495361328 90.82384490966797 41.4912109375 92 47.49999618530273 92 C 53.50878143310547 92 59.33622741699219 90.82384490966797 64.82048797607422 88.50419616699219 C 70.11914825439453 86.26304626464844 74.87847137451172 83.05400848388672 78.96623992919922 78.96623992919922 C 83.05400848388672 74.87847137451172 86.26304626464844 70.11914825439453 88.50419616699219 64.82048797607422 C 90.82384490966797 59.33622741699219 92 53.50878143310547 92 47.49999618530273 C 92 41.4912109375 90.82384490966797 35.66376495361328 88.50419616699219 30.17950439453125 C 86.26304626464844 24.88084411621094 83.05400848388672 20.12152099609375 78.96623992919922 16.03375244140625 C 74.87847137451172 11.94598388671875 70.11914825439453 8.736953735351562 64.82048797607422 6.495796203613281 C 59.33622741699219 4.1761474609375 53.50878143310547 2.999992370605469 47.49999618530273 2.999992370605469 M 47.49999618530273 -7.62939453125e-06 C 73.7335205078125 -7.62939453125e-06 95 21.26647186279297 95 47.49999618530273 C 95 73.7335205078125 73.7335205078125 95 47.49999618530273 95 C 21.26647186279297 95 -7.62939453125e-06 73.7335205078125 -7.62939453125e-06 47.49999618530273 C -7.62939453125e-06 21.26647186279297 21.26647186279297 -7.62939453125e-06 47.49999618530273 -7.62939453125e-06 Z" stroke="none" fill="#f5b104"/>
                                    </g>
                                  </g>
                                </g>
                              </g>
                            </g>
                          </g>
                        </g>
                      </g>
                    </g>
                  </g>
                </g>
              </g>
            </g>
          </g>
        </g>
      </g>
    </g>
    <g id="_19-internet" data-name="19-internet" transform="translate(296.313 7184)">
      <rect id="Rect치ngulo_422485" data-name="Rect치ngulo 422485" width="62" height="48" rx="3.55" transform="translate(1 8)" fill="#dcdcdc"/>
      <path id="Trazado_1058004" data-name="Trazado 1058004" d="M63,16V52.45A3.551,3.551,0,0,1,59.45,56H4.55A3.551,3.551,0,0,1,1,52.45V16Z" fill="#8bcde6"/>
      <rect id="Rect치ngulo_422486" data-name="Rect치ngulo 422486" width="54" height="32" rx="1.367" transform="translate(5 20)" fill="#cce3ea"/>
      <path id="Trazado_1058005" data-name="Trazado 1058005" d="M4,11H6v2H4Z"/>
      <path id="Trazado_1058006" data-name="Trazado 1058006" d="M8,11h2v2H8Z"/>
      <path id="Trazado_1058007" data-name="Trazado 1058007" d="M12,11h2v2H12Z"/>
      <path id="Trazado_1058008" data-name="Trazado 1058008" d="M43,33H41V24a1,1,0,0,1,1-1h6a1,1,0,0,1,1,1v4a1,1,0,0,1-1,1H43Zm0-6h4V25H43Z"/>
      <path id="Trazado_1058009" data-name="Trazado 1058009" d="M21,23v4H17V23H15V33h2V29h4v4h2V23Z"/>
      <path id="Trazado_1058010" data-name="Trazado 1058010" d="M31,23H25v2h2v8h2V25h2Z"/>
      <path id="Trazado_1058011" data-name="Trazado 1058011" d="M39,23H33v2h2v8h2V25h2Z"/>
      <path id="Trazado_1058012" data-name="Trazado 1058012" d="M11.293,34.707l-6-6a1,1,0,0,1,0-1.414l6-6,1.414,1.414L7.414,28l5.293,5.293Z"/>
      <path id="Trazado_1058013" data-name="Trazado 1058013" d="M52.707,34.707l-1.414-1.414L56.586,28l-5.293-5.293,1.414-1.414,6,6a1,1,0,0,1,0,1.414Z"/>
      <path id="Trazado_1058014" data-name="Trazado 1058014" d="M7,38H57v4H7Z" fill="#ffe168"/>
      <path id="Trazado_1058015" data-name="Trazado 1058015" d="M57,43H7a1,1,0,0,1-1-1V38a1,1,0,0,1,1-1H57a1,1,0,0,1,1,1v4A1,1,0,0,1,57,43ZM8,41H56V39H8Z"/>
      <path id="Trazado_1058016" data-name="Trazado 1058016" d="M7,45H19v6H7Z" fill="#f29919"/>
      <path id="Trazado_1058017" data-name="Trazado 1058017" d="M19,52H7a1,1,0,0,1-1-1V45a1,1,0,0,1,1-1H19a1,1,0,0,1,1,1v6A1,1,0,0,1,19,52ZM8,50H18V46H8Z"/>
      <path id="Trazado_1058018" data-name="Trazado 1058018" d="M22,45H57v6H22Z" fill="#ffcb59"/>
      <path id="Trazado_1058019" data-name="Trazado 1058019" d="M57,52H22a1,1,0,0,1-1-1V45a1,1,0,0,1,1-1H57a1,1,0,0,1,1,1v6A1,1,0,0,1,57,52ZM23,50H56V46H23Z"/>
      <path id="Trazado_1058020" data-name="Trazado 1058020" d="M59.447,7H4.553A4.558,4.558,0,0,0,0,11.553V52.447A4.558,4.558,0,0,0,4.553,57H59.447A4.558,4.558,0,0,0,64,52.447V11.553A4.558,4.558,0,0,0,59.447,7Zm0,48H4.553A2.557,2.557,0,0,1,2,52.447V17H52V15H2V11.553A2.557,2.557,0,0,1,4.553,9H59.447A2.557,2.557,0,0,1,62,11.553V15H56v2h6V52.447A2.557,2.557,0,0,1,59.447,55Z"/>
    </g>
  </g>
</svg>
