<svg xmlns="http://www.w3.org/2000/svg" xmlns:xlink="http://www.w3.org/1999/xlink" width="113" height="113" viewBox="0 0 113 113">
  <defs>
    <filter id="Trazado_982547" x="0" y="0" width="113" height="113" filterUnits="userSpaceOnUse">
      <feOffset dy="3" input="SourceAlpha"/>
      <feGaussianBlur stdDeviation="3" result="blur"/>
      <feFlood flood-opacity="0.161"/>
      <feComposite operator="in" in2="blur"/>
      <feComposite in="SourceGraphic"/>
    </filter>
  </defs>
  <g id="Grupo_1226568" data-name="Grupo 1226568" transform="translate(-585.393 -7162.813)">
    <g id="Grupo_1226284" data-name="Grupo 1226284" transform="translate(-0.429 -2801.662)">
      <g id="Grupo_1225529" data-name="Grupo 1225529" transform="translate(0.313 8669.134)">
        <g id="Grupo_1225176" data-name="Grupo 1225176" transform="translate(0 -3445.654)">
          <g id="Grupo_1224647" data-name="Grupo 1224647" transform="translate(0 1927)">
            <g id="Grupo_1224292" data-name="Grupo 1224292" transform="translate(0 859.245)">
              <g id="Grupo_1224092" data-name="Grupo 1224092" transform="translate(-88.49 -2620.317)">
                <g id="Grupo_1223184" data-name="Grupo 1223184" transform="translate(683 4581.069)">
                  <g id="Grupo_1211216" data-name="Grupo 1211216" transform="translate(0)">
                    <g id="Grupo_1210737" data-name="Grupo 1210737">
                      <g id="Grupo_1210537" data-name="Grupo 1210537">
                        <g id="Grupo_1164202" data-name="Grupo 1164202">
                          <g id="Grupo_1158168" data-name="Grupo 1158168">
                            <g id="Grupo_1152576" data-name="Grupo 1152576">
                              <g id="Grupo_1148633" data-name="Grupo 1148633">
                                <g id="Grupo_1148525" data-name="Grupo 1148525">
                                  <g transform="matrix(1, 0, 0, 1, -9, -6)" filter="url(#Trazado_982547)">
                                    <g id="Trazado_982547-2" data-name="Trazado 982547" transform="translate(9 6)" fill="#fdf6e4">
                                      <path d="M 47.49999618530273 93.5 C 41.28936767578125 93.5 35.26533126831055 92.28396606445312 29.59518241882324 89.88570404052734 C 24.11771583557129 87.56893157958984 19.19812965393066 84.251953125 14.97308921813965 80.02690124511719 C 10.74803638458252 75.80186462402344 7.431062698364258 70.88227844238281 5.114289283752441 65.40480804443359 C 2.716022968292236 59.73466110229492 1.499996185302734 53.71062469482422 1.499996185302734 47.49999618530273 C 1.499996185302734 41.28936767578125 2.716022968292236 35.26533126831055 5.114289283752441 29.59518241882324 C 7.431062698364258 24.11771583557129 10.74803638458252 19.19812965393066 14.97308921813965 14.97308921813965 C 19.19812965393066 10.74803638458252 24.11771583557129 7.431062698364258 29.59518241882324 5.114289283752441 C 35.26533126831055 2.716022968292236 41.28936767578125 1.499996185302734 47.49999618530273 1.499996185302734 C 53.71062469482422 1.499996185302734 59.73466110229492 2.716022968292236 65.40480804443359 5.114289283752441 C 70.88227844238281 7.431062698364258 75.80186462402344 10.74803638458252 80.02690124511719 14.97308921813965 C 84.251953125 19.19812965393066 87.56893157958984 24.11771583557129 89.88570404052734 29.59518241882324 C 92.28396606445312 35.26533126831055 93.5 41.28936767578125 93.5 47.49999618530273 C 93.5 53.71062469482422 92.28396606445312 59.73466110229492 89.88570404052734 65.40480804443359 C 87.56893157958984 70.88227844238281 84.251953125 75.80186462402344 80.02690124511719 80.02690124511719 C 75.80186462402344 84.251953125 70.88227844238281 87.56893157958984 65.40480804443359 89.88570404052734 C 59.73466110229492 92.28396606445312 53.71062469482422 93.5 47.49999618530273 93.5 Z" stroke="none"/>
                                      <path d="M 47.49999618530273 2.999992370605469 C 41.4912109375 2.999992370605469 35.66376495361328 4.1761474609375 30.17950439453125 6.495796203613281 C 24.88084411621094 8.736953735351562 20.12152099609375 11.94598388671875 16.03375244140625 16.03375244140625 C 11.94598388671875 20.12152099609375 8.736953735351562 24.88084411621094 6.495796203613281 30.17950439453125 C 4.1761474609375 35.66376495361328 2.999992370605469 41.4912109375 2.999992370605469 47.49999618530273 C 2.999992370605469 53.50878143310547 4.1761474609375 59.33622741699219 6.495796203613281 64.82048797607422 C 8.736953735351562 70.11914825439453 11.94598388671875 74.87847137451172 16.03375244140625 78.96623992919922 C 20.12152099609375 83.05400848388672 24.88084411621094 86.26304626464844 30.17950439453125 88.50419616699219 C 35.66376495361328 90.82384490966797 41.4912109375 92 47.49999618530273 92 C 53.50878143310547 92 59.33622741699219 90.82384490966797 64.82048797607422 88.50419616699219 C 70.11914825439453 86.26304626464844 74.87847137451172 83.05400848388672 78.96623992919922 78.96623992919922 C 83.05400848388672 74.87847137451172 86.26304626464844 70.11914825439453 88.50419616699219 64.82048797607422 C 90.82384490966797 59.33622741699219 92 53.50878143310547 92 47.49999618530273 C 92 41.4912109375 90.82384490966797 35.66376495361328 88.50419616699219 30.17950439453125 C 86.26304626464844 24.88084411621094 83.05400848388672 20.12152099609375 78.96623992919922 16.03375244140625 C 74.87847137451172 11.94598388671875 70.11914825439453 8.736953735351562 64.82048797607422 6.495796203613281 C 59.33622741699219 4.1761474609375 53.50878143310547 2.999992370605469 47.49999618530273 2.999992370605469 M 47.49999618530273 -7.62939453125e-06 C 73.7335205078125 -7.62939453125e-06 95 21.26647186279297 95 47.49999618530273 C 95 73.7335205078125 73.7335205078125 95 47.49999618530273 95 C 21.26647186279297 95 -7.62939453125e-06 73.7335205078125 -7.62939453125e-06 47.49999618530273 C -7.62939453125e-06 21.26647186279297 21.26647186279297 -7.62939453125e-06 47.49999618530273 -7.62939453125e-06 Z" stroke="none" fill="#f5b104"/>
                                    </g>
                                  </g>
                                </g>
                              </g>
                            </g>
                          </g>
                        </g>
                      </g>
                    </g>
                  </g>
                </g>
              </g>
            </g>
          </g>
        </g>
      </g>
    </g>
    <g id="internet_2_" data-name="internet (2)" transform="translate(606.367 7180.861)">
      <path id="Trazado_1058021" data-name="Trazado 1058021" d="M139.6,116.679a22.366,22.366,0,1,1-22.366-22.366A22.366,22.366,0,0,1,139.6,116.679Zm0,0" transform="translate(-81.702 -81.226)" fill="#b3e4e8"/>
      <path id="Trazado_1058022" data-name="Trazado 1058022" d="M337.814,70.949a1.316,1.316,0,0,1-.93-2.246,32.9,32.9,0,0,0-13.137-54.56,1.316,1.316,0,0,1,.808-2.5,35.525,35.525,0,0,1,14.189,58.92,1.316,1.316,0,0,1-.93.385Zm0,0" transform="translate(-278.095 -9.992)" fill="#99d8aa"/>
      <path id="Trazado_1058023" data-name="Trazado 1058023" d="M152.919,5.193a1.316,1.316,0,0,1-.5-2.53c.837-.349,1.7-.669,2.559-.952a1.316,1.316,0,1,1,.822,2.5c-.8.263-1.595.559-2.368.881a1.293,1.293,0,0,1-.509.1Zm7.57-2.169A1.316,1.316,0,0,1,160.277.41c.888-.146,1.8-.263,2.707-.342a1.318,1.318,0,1,1,.231,2.626c-.843.074-1.688.181-2.512.316a1.244,1.244,0,0,1-.216.014Zm10.487-.114a1.354,1.354,0,0,1-.188-.013c-.837-.12-1.684-.207-2.519-.263A1.319,1.319,0,0,1,168.443,0c.9.06,1.813.154,2.715.282a1.316,1.316,0,0,1-.183,2.619Zm0,0" transform="translate(-130.567 0)" fill="#99d8aa"/>
      <g id="Grupo_1226567" data-name="Grupo 1226567" transform="translate(-0.001 7.318)">
        <path id="Trazado_1058024" data-name="Trazado 1058024" d="M23.69,130.731a1.3,1.3,0,0,1-.455-.08A35.532,35.532,0,0,1,10.412,72.2a1.316,1.316,0,0,1,1.86,1.86,32.907,32.907,0,0,0,11.873,54.124,1.316,1.316,0,0,1-.455,2.549Zm0,0" transform="translate(0.001 -69.179)" fill="#8dc79d"/>
        <path id="Trazado_1058025" data-name="Trazado 1058025" d="M215.314,478.749h-.088c-.91-.059-1.825-.156-2.718-.285a1.316,1.316,0,0,1,.378-2.6c.825.12,1.671.208,2.514.263a1.316,1.316,0,0,1-.086,2.631Zm5.255-.053a1.317,1.317,0,0,1-.113-2.631c.837-.072,1.682-.177,2.512-.314a1.3,1.3,0,0,1,1.507,1.056l0,.028a1.316,1.316,0,0,1-1.084,1.512c-.9.147-1.808.263-2.712.339-.038,0-.076.007-.114.008Zm7.717-1.579a1.316,1.316,0,0,1-.409-2.566c.789-.263,1.59-.556,2.368-.881a1.316,1.316,0,1,1,1.01,2.431c-.842.349-1.71.668-2.561.95a1.318,1.318,0,0,1-.408.063Zm0,0" transform="translate(-182.065 -415.168)" fill="#8dc79d"/>
        <path id="Trazado_1058026" data-name="Trazado 1058026" d="M61.191,56.689a3.947,3.947,0,1,1-3.947-3.947A3.947,3.947,0,0,1,61.191,56.689Zm0,0" transform="translate(-45.901 -52.742)" fill="#8dc79d"/>
      </g>
      <path id="Trazado_1058027" data-name="Trazado 1058027" d="M409.781,405.276a3.947,3.947,0,1,1-3.947-3.947A3.947,3.947,0,0,1,409.781,405.276Zm0,0" transform="translate(-346.115 -345.634)" fill="#99d8aa"/>
      <path id="Trazado_1058028" data-name="Trazado 1058028" d="M130.845,117.8c.154-.363.279-.739.413-1.111.1-.263.208-.536.3-.809.168-.526.307-1.053.437-1.594.031-.132.067-.249.1-.375q.21-.921.345-1.882l.015-.091c.092-.669.159-1.346.2-2.031.025-.438.067-.871.067-1.316s-.042-.878-.067-1.316c-.037-.686-.1-1.362-.2-2.031l-.015-.091q-.132-.952-.345-1.881c-.029-.132-.064-.25-.1-.375-.131-.538-.263-1.071-.437-1.594-.088-.274-.2-.539-.3-.809-.131-.372-.263-.749-.413-1.112h.007a23.646,23.646,0,0,0-1.337-2.631H129.5A23.776,23.776,0,0,0,116.639,86.19a23.388,23.388,0,0,0-2.992-.814c-.255-.05-.517-.079-.775-.12-.295-.048-.589-.1-.888-.131q-.812-.093-1.639-.132c-.438-.025-.871-.067-1.316-.067s-.878.042-1.316.067c-.564.03-1.124.079-1.677.142-.295.038-.585.087-.878.132-.32.05-.642.089-.957.154a23.531,23.531,0,0,0-3,.859A23.775,23.775,0,0,0,88.552,96.753h-.011A23.692,23.692,0,0,0,87.2,99.385c-.154.363-.279.739-.413,1.112-.1.27-.208.536-.3.809-.167.526-.306,1.052-.436,1.594-.032.125-.067.249-.1.375q-.209.92-.344,1.881l-.015.091c-.092.669-.159,1.345-.2,2.031-.025.438-.067.871-.067,1.316s.042.878.067,1.316c.037.685.1,1.362.2,2.031l.015.091q.131.953.344,1.882c.029.132.065.25.1.375.131.538.269,1.071.436,1.594.088.274.2.539.3.809.132.372.263.749.413,1.111a23.644,23.644,0,0,0,1.337,2.631h.011a23.773,23.773,0,0,0,12.643,10.482,23.512,23.512,0,0,0,3.005.859c.315.066.641.106.962.156.289.047.579.095.871.131.555.063,1.115.112,1.679.143.438.025.871.067,1.316.067s.878-.042,1.316-.067q.826-.045,1.639-.132c.3-.037.593-.087.888-.132.263-.041.526-.07.775-.12a23.391,23.391,0,0,0,2.992-.814A23.774,23.774,0,0,0,129.5,120.435h.011a23.644,23.644,0,0,0,1.336-2.631ZM100.226,89.5l-.851,2.842c-.438,1.46-.81,2.934-1.129,4.414H91.638A21.168,21.168,0,0,1,100.226,89.5Zm-10.1,9.887h7.622a56.262,56.262,0,0,0-.745,7.894H88.045A20.862,20.862,0,0,1,90.129,99.385ZM88.045,109.91h8.961a56.246,56.246,0,0,0,.745,7.894H90.129A20.862,20.862,0,0,1,88.045,109.91Zm3.593,10.525h6.609c.318,1.48.691,2.954,1.129,4.414l.851,2.842a21.17,21.17,0,0,1-8.588-7.256Zm16.075,9.143a20.889,20.889,0,0,1-4.394-.741l-1.422-4.743c-.364-1.212-.679-2.433-.955-3.659h6.772Zm0-11.774h-7.269a53.7,53.7,0,0,1-.782-7.894h8.05V117.8Zm0-10.525H99.662a53.7,53.7,0,0,1,.782-7.894h7.269Zm0-10.525h-6.772c.276-1.226.591-2.447.955-3.659l1.422-4.743a20.824,20.824,0,0,1,4.394-.741v9.142Zm18.706,0h-6.807c-.319-1.48-.69-2.953-1.128-4.414l-.887-2.954a21.174,21.174,0,0,1,8.822,7.368Zm-16.075-9.142a20.948,20.948,0,0,1,4.18.685l1.439,4.8c.363,1.212.678,2.432.954,3.659h-6.573Zm0,11.773h7.071a53.628,53.628,0,0,1,.781,7.894h-7.852Zm5.619,24.709-1.439,4.8a20.987,20.987,0,0,1-4.18.685v-9.143h6.578C116.641,121.661,116.326,122.882,115.963,124.094Zm-5.619-6.291V109.91H118.2a53.62,53.62,0,0,1-.781,7.894Zm7.253,10,.887-2.953c.438-1.46.809-2.934,1.128-4.414h6.807A21.17,21.17,0,0,1,117.6,127.8Zm10.33-10h-7.819a56.406,56.406,0,0,0,.743-7.894h9.16a20.853,20.853,0,0,1-2.084,7.894Zm-7.075-10.525a56.422,56.422,0,0,0-.743-7.894h7.819a20.852,20.852,0,0,1,2.084,7.894Zm0,0" transform="translate(-73.497 -73.141)" fill="#8aced8"/>
      <path id="Trazado_1058029" data-name="Trazado 1058029" d="M335.1,19.15a35.153,35.153,0,0,0-14.189-8.694l-.536-.164a1.316,1.316,0,0,0-.767,2.518l.491.154a32.878,32.878,0,0,1,16.34,50.79,5.394,5.394,0,0,0-5.994.979,5.271,5.271,0,1,0,8.025.7A35.488,35.488,0,0,0,335.1,19.15Zm.931,51.168a2.694,2.694,0,0,1-3.721,0,2.631,2.631,0,1,1,3.722,0Zm0,0" transform="translate(-274.451 -8.815)"/>
      <path id="Trazado_1058030" data-name="Trazado 1058030" d="M152.893,15.407a1.294,1.294,0,0,0,.505-.1c.776-.322,1.579-.62,2.368-.881a1.316,1.316,0,0,0-.822-2.5c-.86.283-1.722.6-2.559.952a1.316,1.316,0,0,0,.508,2.53Zm0,0" transform="translate(-130.541 -10.214)"/>
      <path id="Trazado_1058031" data-name="Trazado 1058031" d="M264.04,2.685c.834.055,1.682.142,2.518.263a1.316,1.316,0,0,0,.371-2.606c-.9-.131-1.817-.222-2.715-.281a1.319,1.319,0,1,0-.174,2.631Zm0,0" transform="translate(-226.337 -0.05)"/>
      <path id="Trazado_1058032" data-name="Trazado 1058032" d="M207.45,3.386a1.2,1.2,0,0,0,.216-.018c.824-.132,1.669-.242,2.512-.316a1.319,1.319,0,1,0-.231-2.628c-.909.08-1.819.2-2.707.342a1.316,1.316,0,0,0,.211,2.614Zm0,0" transform="translate(-177.528 -0.363)"/>
      <path id="Trazado_1058033" data-name="Trazado 1058033" d="M271.325,489.2c-.83.132-1.675.242-2.512.314a1.317,1.317,0,0,0,.113,2.631.994.994,0,0,0,.114,0c.9-.078,1.815-.192,2.712-.339a1.316,1.316,0,0,0,1.084-1.512,1.3,1.3,0,0,0-1.475-1.1Zm0,0" transform="translate(-230.423 -421.296)"/>
      <path id="Trazado_1058034" data-name="Trazado 1058034" d="M326.708,473.688c-.78.325-1.579.621-2.368.881a1.316,1.316,0,0,0,.766,2.518l.054-.018c.858-.281,1.72-.6,2.562-.95a1.316,1.316,0,0,0-1.01-2.431Zm0,0" transform="translate(-278.526 -407.865)"/>
      <path id="Trazado_1058035" data-name="Trazado 1058035" d="M215.4,490.251c-.843-.055-1.689-.143-2.514-.263a1.316,1.316,0,0,0-.378,2.6c.893.132,1.808.226,2.718.286h.088a1.316,1.316,0,0,0,.085-2.631Zm0,0" transform="translate(-182.066 -421.98)"/>
      <path id="Trazado_1058036" data-name="Trazado 1058036" d="M26.038,104.465q-.873-.263-1.738-.584A32.883,32.883,0,0,1,9.206,53.542a5.252,5.252,0,0,0,6.01-8.438,5.385,5.385,0,0,0-7.441,0,5.239,5.239,0,0,0-.583,6.733,35.522,35.522,0,0,0,16.2,54.511q.932.344,1.878.632a1.273,1.273,0,0,0,.385.058,1.316,1.316,0,0,0,.384-2.573Zm-16.4-57.5A2.632,2.632,0,0,1,13.42,50.62l-.065.065a2.693,2.693,0,0,1-3.72,0A2.632,2.632,0,0,1,9.634,46.963Zm0,0" transform="translate(-0.153 -37.56)"/>
      <path id="Trazado_1058037" data-name="Trazado 1058037" d="M130.025,119.48a23.541,23.541,0,0,0,0-21.992c-.015-.035-.033-.067-.049-.1a23.659,23.659,0,0,0-41.814,0c-.016.034-.034.066-.049.1a23.541,23.541,0,0,0,0,21.992c.015.036.033.067.049.1a23.659,23.659,0,0,0,41.814,0C129.988,119.547,130.01,119.516,130.025,119.48ZM100.267,89.388l-.851,2.842c-.438,1.46-.81,2.934-1.129,4.414H91.679a21.168,21.168,0,0,1,8.588-7.255Zm-10.1,9.887h7.622a56.262,56.262,0,0,0-.745,7.894H88.086A20.862,20.862,0,0,1,90.17,99.274ZM88.086,109.8h8.961a56.248,56.248,0,0,0,.745,7.894H90.17A20.862,20.862,0,0,1,88.086,109.8Zm3.593,10.525h6.609c.318,1.48.691,2.954,1.129,4.414l.851,2.842A21.17,21.17,0,0,1,91.679,120.325Zm16.075,9.143a20.889,20.889,0,0,1-4.394-.741l-1.422-4.743c-.364-1.212-.679-2.433-.955-3.659h6.772Zm0-11.774h-7.269A53.7,53.7,0,0,1,99.7,109.8h8.05v7.894Zm0-10.525H99.7a53.7,53.7,0,0,1,.782-7.894h7.269Zm0-10.525h-6.772c.276-1.226.591-2.447.955-3.659l1.422-4.743a20.824,20.824,0,0,1,4.394-.741v9.142Zm22.3,10.525h-9.16a56.422,56.422,0,0,0-.743-7.894h7.819a20.853,20.853,0,0,1,2.084,7.894ZM126.46,96.643h-6.807c-.319-1.48-.69-2.953-1.128-4.414l-.887-2.954a21.174,21.174,0,0,1,8.822,7.368ZM110.385,87.5a20.908,20.908,0,0,1,4.18.685l1.439,4.8c.363,1.212.678,2.432.954,3.659h-6.573Zm0,11.773h7.071a53.629,53.629,0,0,1,.781,7.894h-7.852ZM116,123.984l-1.439,4.8a20.948,20.948,0,0,1-4.18.685v-9.143h6.578C116.682,121.551,116.367,122.772,116,123.984Zm-5.619-6.291V109.8h7.852a53.622,53.622,0,0,1-.781,7.894Zm7.253,10,.887-2.953c.438-1.46.809-2.934,1.128-4.414h6.807a21.17,21.17,0,0,1-8.822,7.368Zm2.512-10a56.409,56.409,0,0,0,.743-7.894h9.16a20.853,20.853,0,0,1-2.084,7.894Zm0,0" transform="translate(-73.538 -73.031)"/>
    </g>
  </g>
</svg>
