<svg xmlns="http://www.w3.org/2000/svg" xmlns:xlink="http://www.w3.org/1999/xlink" width="113" height="113" viewBox="0 0 113 113">
  <defs>
    <filter id="Trazado_982547" x="0" y="0" width="113" height="113" filterUnits="userSpaceOnUse">
      <feOffset dy="3" input="SourceAlpha"/>
      <feGaussianBlur stdDeviation="3" result="blur"/>
      <feFlood flood-opacity="0.161"/>
      <feComposite operator="in" in2="blur"/>
      <feComposite in="SourceGraphic"/>
    </filter>
  </defs>
  <g id="Grupo_1226570" data-name="Grupo 1226570" transform="translate(-900.393 -7162.813)">
    <g id="Grupo_1226285" data-name="Grupo 1226285" transform="translate(-0.429 -2801.662)">
      <g id="Grupo_1225530" data-name="Grupo 1225530" transform="translate(0.313 8669.134)">
        <g id="Grupo_1225177" data-name="Grupo 1225177" transform="translate(0 -3445.654)">
          <g id="Grupo_1224648" data-name="Grupo 1224648" transform="translate(0 1927)">
            <g id="Grupo_1224293" data-name="Grupo 1224293" transform="translate(0 859.245)">
              <g id="Grupo_1224093" data-name="Grupo 1224093" transform="translate(226.51 -2620.317)">
                <g id="Grupo_1223184" data-name="Grupo 1223184" transform="translate(683 4581.069)">
                  <g id="Grupo_1211216" data-name="Grupo 1211216" transform="translate(0)">
                    <g id="Grupo_1210737" data-name="Grupo 1210737">
                      <g id="Grupo_1210537" data-name="Grupo 1210537">
                        <g id="Grupo_1164202" data-name="Grupo 1164202">
                          <g id="Grupo_1158168" data-name="Grupo 1158168">
                            <g id="Grupo_1152576" data-name="Grupo 1152576">
                              <g id="Grupo_1148633" data-name="Grupo 1148633">
                                <g id="Grupo_1148525" data-name="Grupo 1148525">
                                  <g transform="matrix(1, 0, 0, 1, -9, -6)" filter="url(#Trazado_982547)">
                                    <g id="Trazado_982547-2" data-name="Trazado 982547" transform="translate(9 6)" fill="#fdf6e4">
                                      <path d="M 47.49999618530273 93.5 C 41.28936767578125 93.5 35.26533126831055 92.28396606445312 29.59518241882324 89.88570404052734 C 24.11771583557129 87.56893157958984 19.19812965393066 84.251953125 14.97308921813965 80.02690124511719 C 10.74803638458252 75.80186462402344 7.431062698364258 70.88227844238281 5.114289283752441 65.40480804443359 C 2.716022968292236 59.73466110229492 1.499996185302734 53.71062469482422 1.499996185302734 47.49999618530273 C 1.499996185302734 41.28936767578125 2.716022968292236 35.26533126831055 5.114289283752441 29.59518241882324 C 7.431062698364258 24.11771583557129 10.74803638458252 19.19812965393066 14.97308921813965 14.97308921813965 C 19.19812965393066 10.74803638458252 24.11771583557129 7.431062698364258 29.59518241882324 5.114289283752441 C 35.26533126831055 2.716022968292236 41.28936767578125 1.499996185302734 47.49999618530273 1.499996185302734 C 53.71062469482422 1.499996185302734 59.73466110229492 2.716022968292236 65.40480804443359 5.114289283752441 C 70.88227844238281 7.431062698364258 75.80186462402344 10.74803638458252 80.02690124511719 14.97308921813965 C 84.251953125 19.19812965393066 87.56893157958984 24.11771583557129 89.88570404052734 29.59518241882324 C 92.28396606445312 35.26533126831055 93.5 41.28936767578125 93.5 47.49999618530273 C 93.5 53.71062469482422 92.28396606445312 59.73466110229492 89.88570404052734 65.40480804443359 C 87.56893157958984 70.88227844238281 84.251953125 75.80186462402344 80.02690124511719 80.02690124511719 C 75.80186462402344 84.251953125 70.88227844238281 87.56893157958984 65.40480804443359 89.88570404052734 C 59.73466110229492 92.28396606445312 53.71062469482422 93.5 47.49999618530273 93.5 Z" stroke="none"/>
                                      <path d="M 47.49999618530273 2.999992370605469 C 41.4912109375 2.999992370605469 35.66376495361328 4.1761474609375 30.17950439453125 6.495796203613281 C 24.88084411621094 8.736953735351562 20.12152099609375 11.94598388671875 16.03375244140625 16.03375244140625 C 11.94598388671875 20.12152099609375 8.736953735351562 24.88084411621094 6.495796203613281 30.17950439453125 C 4.1761474609375 35.66376495361328 2.999992370605469 41.4912109375 2.999992370605469 47.49999618530273 C 2.999992370605469 53.50878143310547 4.1761474609375 59.33622741699219 6.495796203613281 64.82048797607422 C 8.736953735351562 70.11914825439453 11.94598388671875 74.87847137451172 16.03375244140625 78.96623992919922 C 20.12152099609375 83.05400848388672 24.88084411621094 86.26304626464844 30.17950439453125 88.50419616699219 C 35.66376495361328 90.82384490966797 41.4912109375 92 47.49999618530273 92 C 53.50878143310547 92 59.33622741699219 90.82384490966797 64.82048797607422 88.50419616699219 C 70.11914825439453 86.26304626464844 74.87847137451172 83.05400848388672 78.96623992919922 78.96623992919922 C 83.05400848388672 74.87847137451172 86.26304626464844 70.11914825439453 88.50419616699219 64.82048797607422 C 90.82384490966797 59.33622741699219 92 53.50878143310547 92 47.49999618530273 C 92 41.4912109375 90.82384490966797 35.66376495361328 88.50419616699219 30.17950439453125 C 86.26304626464844 24.88084411621094 83.05400848388672 20.12152099609375 78.96623992919922 16.03375244140625 C 74.87847137451172 11.94598388671875 70.11914825439453 8.736953735351562 64.82048797607422 6.495796203613281 C 59.33622741699219 4.1761474609375 53.50878143310547 2.999992370605469 47.49999618530273 2.999992370605469 M 47.49999618530273 -7.62939453125e-06 C 73.7335205078125 -7.62939453125e-06 95 21.26647186279297 95 47.49999618530273 C 95 73.7335205078125 73.7335205078125 95 47.49999618530273 95 C 21.26647186279297 95 -7.62939453125e-06 73.7335205078125 -7.62939453125e-06 47.49999618530273 C -7.62939453125e-06 21.26647186279297 21.26647186279297 -7.62939453125e-06 47.49999618530273 -7.62939453125e-06 Z" stroke="none" fill="#f5b104"/>
                                    </g>
                                  </g>
                                </g>
                              </g>
                            </g>
                          </g>
                        </g>
                      </g>
                    </g>
                  </g>
                </g>
              </g>
            </g>
          </g>
        </g>
      </g>
    </g>
    <g id="protocolo-tls" transform="translate(868.453 7185.417)">
      <path id="Trazado_1058038" data-name="Trazado 1058038" d="M0,0H43.449V49.724H0Z" transform="translate(110.655 60.587) rotate(180)" fill="#a0e5a5"/>
      <path id="Trazado_1058039" data-name="Trazado 1058039" d="M116,10h33.793V29.31H116Z" transform="translate(-43.965 -8.793)" fill="#fff"/>
      <g id="Grupo_1226569" data-name="Grupo 1226569" transform="translate(66)">
        <path id="Trazado_1058040" data-name="Trazado 1058040" d="M111.509,10.009a1.216,1.216,0,0,0-.853-.354h-3.621V1.207A1.207,1.207,0,0,0,105.828,0H72.035a1.207,1.207,0,0,0-1.207,1.207V9.655H67.207A1.207,1.207,0,0,0,66,10.862V60.587a1.207,1.207,0,0,0,1.207,1.207h43.449a1.207,1.207,0,0,0,1.207-1.207V54.13a1.207,1.207,0,1,0-2.414,0v5.25H68.414V12.069h2.414v8.448a1.207,1.207,0,0,0,1.207,1.207h33.793a1.207,1.207,0,0,0,1.207-1.207V12.069h2.414v31.2a1.207,1.207,0,1,0,2.414,0V10.862A1.216,1.216,0,0,0,111.509,10.009Zm-6.888,9.3H73.241V2.414h31.379Z" transform="translate(-66)"/>
        <circle id="Elipse_13524" data-name="Elipse 13524" cx="1.207" cy="1.207" r="1.207" transform="translate(43.449 47.492)"/>
        <path id="Trazado_1058041" data-name="Trazado 1058041" d="M230.828,49.654h-.006c-.832,0-1.725.007-2.408.008V41.208a1.207,1.207,0,1,0-2.414,0v9.654a1.223,1.223,0,0,0,1.016,1.208h3.818a1.208,1.208,0,0,0-.006-2.415Z" transform="translate(-206.69 -35.172)"/>
        <path id="Trazado_1058042" data-name="Trazado 1058042" d="M301.685,44.982c-1.131-.434-2.185-.906-2.519-1.057a.723.723,0,0,1-.222-.652.947.947,0,0,1,.718-.764,2.942,2.942,0,0,1,2.486.6,1.207,1.207,0,0,0,1.581-1.824,5.348,5.348,0,0,0-4.788-1.084,3.374,3.374,0,0,0-2.385,2.716,3.1,3.1,0,0,0,1.317,3.048c.054.036,1.5.714,2.948,1.267.407.156,1.338.6,1.2,1.338a1.543,1.543,0,0,1-1.575,1.079,3.113,3.113,0,0,1-2.329-1.018,1.207,1.207,0,1,0-1.819,1.587,5.558,5.558,0,0,0,4.148,1.845,3.91,3.91,0,0,0,3.949-3.054C304.645,47.662,304.065,45.894,301.685,44.982Z" transform="translate(-268.242 -35.17)"/>
        <path id="Trazado_1058043" data-name="Trazado 1058043" d="M152.035,40h-4.828a1.207,1.207,0,1,0,0,2.414h1.207v8.448a1.207,1.207,0,1,0,2.414,0V42.414h1.207a1.207,1.207,0,1,0,0-2.414Z" transform="translate(-136.345 -35.172)"/>
        <path id="Trazado_1058044" data-name="Trazado 1058044" d="M142.175,356.184a1.207,1.207,0,0,0-1.447-.905l-30.98,7.136.717-1.163a1.207,1.207,0,1,0-2.055-1.267l-2.233,3.621a1.207,1.207,0,0,0,.386,1.656l3.56,2.233a1.207,1.207,0,1,0,1.282-2.045l-1.1-.687,30.958-7.131a1.207,1.207,0,0,0,.905-1.447Z" transform="translate(-101.171 -312.373)"/>
        <path id="Trazado_1058045" data-name="Trazado 1058045" d="M106.029,233.184a1.207,1.207,0,0,0,.905,1.447l30.958,7.131-1.1.687a1.207,1.207,0,1,0,1.282,2.045l3.56-2.233a1.207,1.207,0,0,0,.386-1.656l-2.233-3.621a1.207,1.207,0,1,0-2.055,1.267l.717,1.163-30.979-7.136A1.208,1.208,0,0,0,106.029,233.184Z" transform="translate(-101.17 -204.218)"/>
        <path id="Trazado_1058046" data-name="Trazado 1058046" d="M237.207,315.25a1.207,1.207,0,1,0,0,2.414h2.414a1.207,1.207,0,1,0,0-2.414Z" transform="translate(-215.483 -277.202)"/>
        <path id="Trazado_1058047" data-name="Trazado 1058047" d="M172.207,315.25a1.207,1.207,0,1,0,0,2.414h2.414a1.207,1.207,0,1,0,0-2.414Z" transform="translate(-158.328 -277.202)"/>
        <path id="Trazado_1058048" data-name="Trazado 1058048" d="M107.207,317.664h2.414a1.207,1.207,0,1,0,0-2.414h-2.414a1.207,1.207,0,1,0,0,2.414Z" transform="translate(-101.172 -277.202)"/>
        <path id="Trazado_1058049" data-name="Trazado 1058049" d="M367.207,440.664h2.414a1.207,1.207,0,0,0,0-2.414h-2.414a1.207,1.207,0,0,0,0,2.414Z" transform="translate(-329.793 -385.357)"/>
        <path id="Trazado_1058050" data-name="Trazado 1058050" d="M237.207,438.25a1.207,1.207,0,0,0,0,2.414h2.414a1.207,1.207,0,0,0,0-2.414Z" transform="translate(-215.483 -385.357)"/>
        <path id="Trazado_1058051" data-name="Trazado 1058051" d="M302.207,438.25a1.207,1.207,0,1,0,0,2.414h2.414a1.207,1.207,0,0,0,0-2.414Z" transform="translate(-272.638 -385.357)"/>
        <path id="Trazado_1058052" data-name="Trazado 1058052" d="M369.621,213.75h-2.414a1.207,1.207,0,0,0,0,2.414h2.414a1.207,1.207,0,0,0,0-2.414Z" transform="translate(-329.793 -187.952)"/>
        <path id="Trazado_1058053" data-name="Trazado 1058053" d="M239.621,216.164a1.207,1.207,0,1,0,0-2.414h-2.414a1.207,1.207,0,1,0,0,2.414Z" transform="translate(-215.483 -187.952)"/>
        <path id="Trazado_1058054" data-name="Trazado 1058054" d="M304.621,216.164a1.207,1.207,0,0,0,0-2.414h-2.414a1.207,1.207,0,1,0,0,2.414Z" transform="translate(-272.638 -187.952)"/>
      </g>
    </g>
  </g>
</svg>
