<svg xmlns="http://www.w3.org/2000/svg" xmlns:xlink="http://www.w3.org/1999/xlink" width="113" height="113" viewBox="0 0 113 113">
  <defs>
    <filter id="Trazado_982547" x="0" y="0" width="113" height="113" filterUnits="userSpaceOnUse">
      <feOffset dy="3" input="SourceAlpha"/>
      <feGaussianBlur stdDeviation="3" result="blur"/>
      <feFlood flood-opacity="0.161"/>
      <feComposite operator="in" in2="blur"/>
      <feComposite in="SourceGraphic"/>
    </filter>
  </defs>
  <g id="Grupo_1226572" data-name="Grupo 1226572" transform="translate(-1216.116 -7162.813)">
    <g id="Grupo_1226287" data-name="Grupo 1226287" transform="translate(-0.429 -2801.662)">
      <g id="Grupo_1225531" data-name="Grupo 1225531" transform="translate(0.313 8669.134)">
        <g id="Grupo_1225179" data-name="Grupo 1225179" transform="translate(0 -3445.654)">
          <g id="Grupo_1224650" data-name="Grupo 1224650" transform="translate(0 1927)">
            <g id="Grupo_1224294" data-name="Grupo 1224294" transform="translate(0.723 859.245)">
              <g id="Grupo_1224094" data-name="Grupo 1224094" transform="translate(541.51 -2620.317)">
                <g id="Grupo_1223184" data-name="Grupo 1223184" transform="translate(683 4581.069)">
                  <g id="Grupo_1211216" data-name="Grupo 1211216" transform="translate(0)">
                    <g id="Grupo_1210737" data-name="Grupo 1210737">
                      <g id="Grupo_1210537" data-name="Grupo 1210537">
                        <g id="Grupo_1164202" data-name="Grupo 1164202">
                          <g id="Grupo_1158168" data-name="Grupo 1158168">
                            <g id="Grupo_1152576" data-name="Grupo 1152576">
                              <g id="Grupo_1148633" data-name="Grupo 1148633">
                                <g id="Grupo_1148525" data-name="Grupo 1148525">
                                  <g transform="matrix(1, 0, 0, 1, -9, -6)" filter="url(#Trazado_982547)">
                                    <g id="Trazado_982547-2" data-name="Trazado 982547" transform="translate(9 6)" fill="#fdf6e4">
                                      <path d="M 47.49999618530273 93.5 C 41.28936767578125 93.5 35.26533126831055 92.28396606445312 29.59518241882324 89.88570404052734 C 24.11771583557129 87.56893157958984 19.19812965393066 84.251953125 14.97308921813965 80.02690124511719 C 10.74803638458252 75.80186462402344 7.431062698364258 70.88227844238281 5.114289283752441 65.40480804443359 C 2.716022968292236 59.73466110229492 1.499996185302734 53.71062469482422 1.499996185302734 47.49999618530273 C 1.499996185302734 41.28936767578125 2.716022968292236 35.26533126831055 5.114289283752441 29.59518241882324 C 7.431062698364258 24.11771583557129 10.74803638458252 19.19812965393066 14.97308921813965 14.97308921813965 C 19.19812965393066 10.74803638458252 24.11771583557129 7.431062698364258 29.59518241882324 5.114289283752441 C 35.26533126831055 2.716022968292236 41.28936767578125 1.499996185302734 47.49999618530273 1.499996185302734 C 53.71062469482422 1.499996185302734 59.73466110229492 2.716022968292236 65.40480804443359 5.114289283752441 C 70.88227844238281 7.431062698364258 75.80186462402344 10.74803638458252 80.02690124511719 14.97308921813965 C 84.251953125 19.19812965393066 87.56893157958984 24.11771583557129 89.88570404052734 29.59518241882324 C 92.28396606445312 35.26533126831055 93.5 41.28936767578125 93.5 47.49999618530273 C 93.5 53.71062469482422 92.28396606445312 59.73466110229492 89.88570404052734 65.40480804443359 C 87.56893157958984 70.88227844238281 84.251953125 75.80186462402344 80.02690124511719 80.02690124511719 C 75.80186462402344 84.251953125 70.88227844238281 87.56893157958984 65.40480804443359 89.88570404052734 C 59.73466110229492 92.28396606445312 53.71062469482422 93.5 47.49999618530273 93.5 Z" stroke="none"/>
                                      <path d="M 47.49999618530273 2.999992370605469 C 41.4912109375 2.999992370605469 35.66376495361328 4.1761474609375 30.17950439453125 6.495796203613281 C 24.88084411621094 8.736953735351562 20.12152099609375 11.94598388671875 16.03375244140625 16.03375244140625 C 11.94598388671875 20.12152099609375 8.736953735351562 24.88084411621094 6.495796203613281 30.17950439453125 C 4.1761474609375 35.66376495361328 2.999992370605469 41.4912109375 2.999992370605469 47.49999618530273 C 2.999992370605469 53.50878143310547 4.1761474609375 59.33622741699219 6.495796203613281 64.82048797607422 C 8.736953735351562 70.11914825439453 11.94598388671875 74.87847137451172 16.03375244140625 78.96623992919922 C 20.12152099609375 83.05400848388672 24.88084411621094 86.26304626464844 30.17950439453125 88.50419616699219 C 35.66376495361328 90.82384490966797 41.4912109375 92 47.49999618530273 92 C 53.50878143310547 92 59.33622741699219 90.82384490966797 64.82048797607422 88.50419616699219 C 70.11914825439453 86.26304626464844 74.87847137451172 83.05400848388672 78.96623992919922 78.96623992919922 C 83.05400848388672 74.87847137451172 86.26304626464844 70.11914825439453 88.50419616699219 64.82048797607422 C 90.82384490966797 59.33622741699219 92 53.50878143310547 92 47.49999618530273 C 92 41.4912109375 90.82384490966797 35.66376495361328 88.50419616699219 30.17950439453125 C 86.26304626464844 24.88084411621094 83.05400848388672 20.12152099609375 78.96623992919922 16.03375244140625 C 74.87847137451172 11.94598388671875 70.11914825439453 8.736953735351562 64.82048797607422 6.495796203613281 C 59.33622741699219 4.1761474609375 53.50878143310547 2.999992370605469 47.49999618530273 2.999992370605469 M 47.49999618530273 -7.62939453125e-06 C 73.7335205078125 -7.62939453125e-06 95 21.26647186279297 95 47.49999618530273 C 95 73.7335205078125 73.7335205078125 95 47.49999618530273 95 C 21.26647186279297 95 -7.62939453125e-06 73.7335205078125 -7.62939453125e-06 47.49999618530273 C -7.62939453125e-06 21.26647186279297 21.26647186279297 -7.62939453125e-06 47.49999618530273 -7.62939453125e-06 Z" stroke="none" fill="#f5b104"/>
                                    </g>
                                  </g>
                                </g>
                              </g>
                            </g>
                          </g>
                        </g>
                      </g>
                    </g>
                  </g>
                </g>
              </g>
            </g>
          </g>
        </g>
      </g>
    </g>
    <g id="Filled_outline" data-name="Filled outline" transform="translate(1229.514 7172.711)">
      <path id="Trazado_1058055" data-name="Trazado 1058055" d="M43.68,152H86a3.68,3.68,0,0,1,3.68,3.68V184.2a2.76,2.76,0,0,1-2.76,2.76H42.76A2.76,2.76,0,0,1,40,184.2V155.68A3.68,3.68,0,0,1,43.68,152Z" transform="translate(-21.24 -120.359)" fill="#348fd9"/>
      <path id="Trazado_1058056" data-name="Trazado 1058056" d="M113.247,57.076a3.7,3.7,0,0,0-2.6-1.076H75.68A3.679,3.679,0,0,0,72,59.68v43.244h42.324V59.68A3.7,3.7,0,0,0,113.247,57.076Z" transform="translate(-49.559 -35.4)" fill="#60d1e0"/>
      <g id="Grupo_1226571" data-name="Grupo 1226571" transform="translate(26.12 23.361)">
        <path id="Trazado_1058057" data-name="Trazado 1058057" d="M104,80h1.84v1.84H104Z" transform="translate(-103.996 -80)" fill="#3fb7c7"/>
        <path id="Trazado_1058058" data-name="Trazado 1058058" d="M136,80h1.84v1.84H136Z" transform="translate(-132.316 -80)" fill="#3fb7c7"/>
        <path id="Trazado_1058059" data-name="Trazado 1058059" d="M168,80h1.84v1.84H168Z" transform="translate(-160.635 -80)" fill="#3fb7c7"/>
        <path id="Trazado_1058060" data-name="Trazado 1058060" d="M104,112h23v1.84H104Z" transform="translate(-104 -108.32)" fill="#3fb7c7"/>
      </g>
      <path id="Trazado_1058061" data-name="Trazado 1058061" d="M113.247,57.076a3.7,3.7,0,0,0-2.6-1.076H75.68A3.679,3.679,0,0,0,72,59.68v43.244h42.324V59.68A3.7,3.7,0,0,0,113.247,57.076Z" transform="translate(-49.559 -35.4)" fill="#60d1e0"/>
      <path id="Trazado_1058062" data-name="Trazado 1058062" d="M104,80h1.84v1.84H104Z" transform="translate(-77.876 -56.639)" fill="#3fb7c7"/>
      <path id="Trazado_1058063" data-name="Trazado 1058063" d="M136,80h1.84v1.84H136Z" transform="translate(-106.195 -56.639)" fill="#3fb7c7"/>
      <path id="Trazado_1058064" data-name="Trazado 1058064" d="M168,80h1.84v1.84H168Z" transform="translate(-134.515 -56.639)" fill="#3fb7c7"/>
      <path id="Trazado_1058065" data-name="Trazado 1058065" d="M104,112h23v1.84H104Z" transform="translate(-77.879 -84.959)" fill="#3fb7c7"/>
      <path id="Trazado_1058066" data-name="Trazado 1058066" d="M170.963,160,136,194.963h34.963Z" transform="translate(-106.199 -127.439)" fill="#5ac6d4"/>
      <path id="Trazado_1058067" data-name="Trazado 1058067" d="M56.2,440.92a3.141,3.141,0,0,1-2.221.92h-6.6a3.141,3.141,0,0,1-2.221-.92,3.142,3.142,0,0,0-2.221-.92H24v2.76a2.76,2.76,0,0,0,2.76,2.76H74.6a2.76,2.76,0,0,0,2.76-2.76V440H58.424a3.141,3.141,0,0,0-2.221.92Z" transform="translate(-7.08 -375.236)" fill="#e0e0de"/>
      <path id="Trazado_1058068" data-name="Trazado 1058068" d="M434.76,440v2.76a2.76,2.76,0,0,1-2.76,2.76h3.68a2.76,2.76,0,0,0,2.76-2.76V440Z" transform="translate(-368.156 -375.236)" fill="#d6d6d4"/>
      <path id="Trazado_1058069" data-name="Trazado 1058069" d="M440,240h3.68v1.84H440Z" transform="translate(-375.236 -198.238)" fill="#3086cd"/>
      <path id="Trazado_1058070" data-name="Trazado 1058070" d="M40,376h3.68v1.84H40Z" transform="translate(-21.24 -318.596)" fill="#3086cd"/>
      <path id="Trazado_1058071" data-name="Trazado 1058071" d="M344,240h11.041v1.84H344Z" transform="translate(-290.277 -198.238)" fill="#5ac6d4"/>
      <path id="Trazado_1058072" data-name="Trazado 1058072" d="M72,328H94.082v7.361H72Z" transform="translate(-49.559 -276.117)" fill="#5ac6d4"/>
      <path id="Trazado_1058073" data-name="Trazado 1058073" d="M328,120h18.4v13.8H328Z" transform="translate(-276.117 -92.039)" fill="#ffb531"/>
      <path id="Trazado_1058074" data-name="Trazado 1058074" d="M344,31.361h3.68a3.68,3.68,0,1,1,7.361,0v3.68h3.68v-3.68a7.361,7.361,0,0,0-14.721,0Z" transform="translate(-290.277 -7.08)" fill="#e0e0de"/>
      <path id="Trazado_1058075" data-name="Trazado 1058075" d="M381.069,154.946a1.84,1.84,0,1,0-2.777,0,3.678,3.678,0,0,0-2.292,3.4h7.361A3.678,3.678,0,0,0,381.069,154.946Z" transform="translate(-318.596 -120.268)" fill="#95573a"/>
      <path id="Trazado_1058076" data-name="Trazado 1058076" d="M328,217.682h18.4A16.044,16.044,0,0,0,328,217.682Z" transform="translate(-276.117 -175.92)" fill="#ffa912"/>
      <path id="Trazado_1058077" data-name="Trazado 1058077" d="M346.4,120H328A16.044,16.044,0,0,0,346.4,120Z" transform="translate(-276.117 -92.039)" fill="#ffcb73"/>
      <path id="Trazado_1058078" data-name="Trazado 1058078" d="M24,312H49.762v7.361H24Z" transform="translate(-7.08 -261.957)" fill="#ffb531"/>
      <path id="Trazado_1058079" data-name="Trazado 1058079" d="M24,312H49.762v1.84H24Z" transform="translate(-7.08 -261.957)" fill="#ffa912"/>
      <path id="Trazado_1058080" data-name="Trazado 1058080" d="M33.84,63.641a2.765,2.765,0,0,1,1.84-2.6V75.6h1.84v-23a2.763,2.763,0,0,1,2.76-2.76H65.123V48H40.281a4.606,4.606,0,0,0-4.6,4.6v6.533A4.608,4.608,0,0,0,32,63.641V74.682h1.84Z" transform="translate(-14.16 -28.32)"/>
      <path id="Trazado_1058081" data-name="Trazado 1058081" d="M70.285,283.322h-.92V264h-1.84v19.322H51.344a4.035,4.035,0,0,0-2.872,1.19,2.207,2.207,0,0,1-1.571.651H40.3a2.207,2.207,0,0,1-1.571-.651,4.035,4.035,0,0,0-2.872-1.19H19.68v-3.68H17.84v3.68h-.92a.92.92,0,0,0-.92.92V287a3.684,3.684,0,0,0,3.68,3.68H67.524A3.684,3.684,0,0,0,71.2,287v-2.76A.92.92,0,0,0,70.285,283.322Zm-.92,3.68a1.842,1.842,0,0,1-1.84,1.84H19.68A1.842,1.842,0,0,1,17.84,287v-1.84H35.861a2.207,2.207,0,0,1,1.571.651A4.035,4.035,0,0,0,40.3,287h6.606a4.035,4.035,0,0,0,2.868-1.189,2.207,2.207,0,0,1,1.571-.651H69.365Z" transform="translate(0 -219.478)"/>
      <path id="Trazado_1058082" data-name="Trazado 1058082" d="M432,264h1.84v17.482H432Z" transform="translate(-368.156 -219.478)"/>
      <path id="Trazado_1058083" data-name="Trazado 1058083" d="M64,400h1.84v1.84H64Z" transform="translate(-42.48 -339.836)"/>
      <path id="Trazado_1058084" data-name="Trazado 1058084" d="M104,80h1.84v1.84H104Z" transform="translate(-77.875 -56.639)"/>
      <path id="Trazado_1058085" data-name="Trazado 1058085" d="M135.995,80h1.84v1.84h-1.84Z" transform="translate(-106.194 -56.639)"/>
      <path id="Trazado_1058086" data-name="Trazado 1058086" d="M167.995,80h1.84v1.84h-1.84Z" transform="translate(-134.514 -56.639)"/>
      <path id="Trazado_1058087" data-name="Trazado 1058087" d="M104,112h23v1.84H104Z" transform="translate(-77.879 -84.959)"/>
      <path id="Trazado_1058088" data-name="Trazado 1058088" d="M207.791,147.6a9.214,9.214,0,0,1,9.128.836l1.059-1.5a11.027,11.027,0,0,0-12.7,0l1.059,1.5A9.2,9.2,0,0,1,207.791,147.6Z" transform="translate(-167.51 -114.097)"/>
      <path id="Trazado_1058089" data-name="Trazado 1058089" d="M298.532,357.961a22.9,22.9,0,0,0,4.747-7.312l-1.705-.691a21.073,21.073,0,0,1-4.368,6.728Z" transform="translate(-248.865 -295.549)"/>
      <path id="Trazado_1058090" data-name="Trazado 1058090" d="M202.964,27.041h-.92v-2.76a8.281,8.281,0,1,0-16.561,0,.92.92,0,0,0,.92.92h3.68a.92.92,0,0,0,.92-.92,2.76,2.76,0,1,1,5.52,0v2.76H184.563a.92.92,0,0,0-.92.92v8.367a16.213,16.213,0,0,0-7.508-1.816h-.129a15.252,15.252,0,0,0-8.6,2.653l1.034,1.522a13.419,13.419,0,0,1,7.57-2.335h.129a14.308,14.308,0,0,1,7.508,2.088v2.218a12.466,12.466,0,0,0-7.507-2.466h-.129a11.787,11.787,0,0,0-9.643,5.078l-.442.635,1.511,1.051.441-.634a9.946,9.946,0,0,1,8.133-4.29h.129a10.3,10.3,0,0,1,8.458,4.211,9.8,9.8,0,0,1,1.441,3.036,9.589,9.589,0,0,1,0,5.256l1.771.5a11.422,11.422,0,0,0,0-6.256,11.624,11.624,0,0,0-1.709-3.6c-.121-.17-.246-.336-.376-.5h17.243a.92.92,0,0,0,.92-.92v-13.8A.92.92,0,0,0,202.964,27.041Zm-9.2-7.361a4.609,4.609,0,0,0-4.508,3.68h-1.867a6.441,6.441,0,0,1,12.816.92v2.76h-1.84v-2.76A4.606,4.606,0,0,0,193.763,19.68Zm8.281,21.162H185.483V28.881h16.561Z" transform="translate(-132.68)"/>
      <path id="Trazado_1058091" data-name="Trazado 1058091" d="M375.23,147.588a2.705,2.705,0,0,0,.13-.828,2.76,2.76,0,1,0-5.52,0,2.7,2.7,0,0,0,.13.828A4.577,4.577,0,0,0,368,151.361a.92.92,0,0,0,.92.92h7.361a.92.92,0,0,0,.92-.92A4.577,4.577,0,0,0,375.23,147.588ZM370,150.441a2.754,2.754,0,0,1,1.563-1.633.92.92,0,0,0,.349-1.453.908.908,0,0,1-.229-.595.92.92,0,0,1,1.84,0,.909.909,0,0,1-.229.595.92.92,0,0,0,.349,1.453,2.754,2.754,0,0,1,1.563,1.633Z" transform="translate(-311.517 -113.279)"/>
      <path id="Trazado_1058092" data-name="Trazado 1058092" d="M16.92,257.412H35.566l-.113.113,1.3,1.3,1.415-1.415h2.6l-2.58,2.579,1.3,1.3,4.626-4.626a15.7,15.7,0,0,0,3.881-6.364,4.277,4.277,0,0,0-.641-3.854,4.367,4.367,0,0,0-3.558-1.806h-.469a4.456,4.456,0,0,0-4.165,3.043c-.062.182-.13.357-.206.527h-2.1a4.607,4.607,0,0,0,.573-1.126,6.284,6.284,0,0,1,5.9-4.284H43.8a6.267,6.267,0,0,1,5.035,2.549,6.1,6.1,0,0,1,.914,5.5,17.571,17.571,0,0,1-4.327,7.115l-3.4,3.4,1.3,1.3,3.4-3.4a19.416,19.416,0,0,0,4.781-7.861,7.922,7.922,0,0,0-1.184-7.144,8.114,8.114,0,0,0-6.52-3.3h-.469a8.125,8.125,0,0,0-7.642,5.524,2.885,2.885,0,0,1-.673,1.075l-.651.65H16.92a.92.92,0,0,0-.92.92v7.361a.92.92,0,0,0,.92.92Zm26.406-10.931H43.8a2.545,2.545,0,0,1,2.073,1.053,2.455,2.455,0,0,1,.371,2.212A13.643,13.643,0,0,1,43.6,254.51v-3.259a11.844,11.844,0,0,0,.993-2.461.23.23,0,0,0-.184-.286l-1.729-.293H40.93a2.571,2.571,0,0,1,2.4-1.73Zm-25.486,3.57H41.762v5.52H17.84Z" transform="translate(0 -199.088)"/>
      <path id="Trazado_1058093" data-name="Trazado 1058093" d="M48,336h1.84v1.84H48Z" transform="translate(-28.32 -283.197)"/>
      <path id="Trazado_1058094" data-name="Trazado 1058094" d="M80,336h1.84v1.84H80Z" transform="translate(-56.639 -283.197)"/>
      <path id="Trazado_1058095" data-name="Trazado 1058095" d="M112,336h1.84v1.84H112Z" transform="translate(-84.959 -283.197)"/>
      <path id="Trazado_1058096" data-name="Trazado 1058096" d="M144,336h1.84v1.84H144Z" transform="translate(-113.279 -283.197)"/>
    </g>
  </g>
</svg>
