<svg xmlns="http://www.w3.org/2000/svg" xmlns:xlink="http://www.w3.org/1999/xlink" width="103" height="103" viewBox="0 0 103 103">
  <defs>
    <filter id="Trazado_982547" x="0" y="0" width="103" height="103" filterUnits="userSpaceOnUse">
      <feOffset dy="3" input="SourceAlpha"/>
      <feGaussianBlur stdDeviation="3" result="blur"/>
      <feFlood flood-opacity="0.161"/>
      <feComposite operator="in" in2="blur"/>
      <feComposite in="SourceGraphic"/>
    </filter>
  </defs>
  <g id="Grupo_1226814" data-name="Grupo 1226814" transform="translate(-191 -9982.199)">
    <g id="Grupo_1226319" data-name="Grupo 1226319" transform="translate(200 9988.199)">
      <g id="Grupo_1225608" data-name="Grupo 1225608">
        <g id="Grupo_1225482" data-name="Grupo 1225482">
          <g id="Grupo_1210959" data-name="Grupo 1210959">
            <g id="Grupo_1210290" data-name="Grupo 1210290">
              <g id="Grupo_1207485" data-name="Grupo 1207485">
                <g id="Grupo_1207313" data-name="Grupo 1207313">
                  <g id="Grupo_1202212" data-name="Grupo 1202212">
                    <g id="Grupo_1174813" data-name="Grupo 1174813">
                      <g id="Grupo_1201680" data-name="Grupo 1201680">
                        <g id="Grupo_1201330" data-name="Grupo 1201330">
                          <g id="Grupo_1172010" data-name="Grupo 1172010">
                            <g id="Grupo_1171046" data-name="Grupo 1171046">
                              <g id="Grupo_1148525" data-name="Grupo 1148525">
                                <g transform="matrix(1, 0, 0, 1, -9, -6)" filter="url(#Trazado_982547)">
                                  <g id="Trazado_982547-2" data-name="Trazado 982547" transform="translate(9 6)" fill="#fdf6e4">
                                    <path d="M 42.5 83.5 C 36.96437835693359 83.5 31.59512901306152 82.41617584228516 26.54141235351562 80.27863311767578 C 21.65934181213379 78.21369171142578 17.27447128295898 75.25723266601562 13.50862312316895 71.49137878417969 C 9.742764472961426 67.72553253173828 6.786305904388428 63.34066009521484 4.721364498138428 58.45858764648438 C 2.583823442459106 53.40486907958984 1.5 48.03562164306641 1.5 42.5 C 1.5 36.96437835693359 2.583823442459106 31.59512901306152 4.721364498138428 26.54141235351562 C 6.786305904388428 21.65934181213379 9.742764472961426 17.27448272705078 13.50862312316895 13.50862312316895 C 17.27447128295898 9.742776870727539 21.65934181213379 6.786305904388428 26.54141235351562 4.721364498138428 C 31.59512901306152 2.583823442459106 36.96437835693359 1.5 42.5 1.5 C 48.03562164306641 1.5 53.40486907958984 2.583823442459106 58.45858764648438 4.721364498138428 C 63.34066009521484 6.786305904388428 67.72553253173828 9.742776870727539 71.49137878417969 13.50862312316895 C 75.25723266601562 17.27448272705078 78.21369171142578 21.65934181213379 80.27863311767578 26.54141235351562 C 82.41617584228516 31.59512901306152 83.5 36.96437835693359 83.5 42.5 C 83.5 48.03562164306641 82.41617584228516 53.40486907958984 80.27863311767578 58.45858764648438 C 78.21369171142578 63.34066009521484 75.25723266601562 67.72553253173828 71.49137878417969 71.49137878417969 C 67.72553253173828 75.25723266601562 63.34066009521484 78.21369171142578 58.45858764648438 80.27863311767578 C 53.40486907958984 82.41617584228516 48.03562164306641 83.5 42.5 83.5 Z" stroke="none"/>
                                    <path d="M 42.5 3 C 37.16621398925781 3 31.99356079101562 4.043960571289062 27.125732421875 6.102882385253906 C 22.42246627807617 8.092185974121094 18.19785308837891 10.94070434570312 14.56928253173828 14.56928253173828 C 10.94070434570312 18.19785308837891 8.092185974121094 22.42246627807617 6.102882385253906 27.125732421875 C 4.043960571289062 31.99356079101562 3 37.16621398925781 3 42.5 C 3 47.83378601074219 4.043960571289062 53.00643920898438 6.102882385253906 57.874267578125 C 8.092185974121094 62.57753372192383 10.94070434570312 66.80214691162109 14.56928253173828 70.43071746826172 C 18.19785308837891 74.05929565429688 22.42246627807617 76.90781402587891 27.125732421875 78.89711761474609 C 31.99356079101562 80.95603942871094 37.16621398925781 82 42.5 82 C 47.83378601074219 82 53.00643920898438 80.95603942871094 57.874267578125 78.89711761474609 C 62.57753372192383 76.90781402587891 66.80214691162109 74.05929565429688 70.43071746826172 70.43071746826172 C 74.05929565429688 66.80214691162109 76.90781402587891 62.57753372192383 78.89711761474609 57.874267578125 C 80.95603942871094 53.00643920898438 82 47.83378601074219 82 42.5 C 82 37.16621398925781 80.95603942871094 31.99356079101562 78.89711761474609 27.125732421875 C 76.90781402587891 22.42246627807617 74.05929565429688 18.19785308837891 70.43071746826172 14.56928253173828 C 66.80214691162109 10.94070434570312 62.57753372192383 8.092185974121094 57.874267578125 6.102882385253906 C 53.00643920898438 4.043960571289062 47.83378601074219 3 42.5 3 M 42.5 0 C 65.97210693359375 0 85 19.02789306640625 85 42.5 C 85 65.97210693359375 65.97210693359375 85 42.5 85 C 19.02789306640625 85 0 65.97210693359375 0 42.5 C 0 19.02789306640625 19.02789306640625 0 42.5 0 Z" stroke="none" fill="#856002"/>
                                  </g>
                                </g>
                              </g>
                            </g>
                          </g>
                        </g>
                      </g>
                    </g>
                  </g>
                </g>
              </g>
            </g>
          </g>
        </g>
      </g>
    </g>
    <g id="internet_3_" data-name="internet (3)" transform="translate(211.65 9999.85)">
      <circle id="Elipse_13525" data-name="Elipse 13525" cx="29.946" cy="29.946" r="29.946" transform="translate(0.904 0.904)" fill="#38bcff"/>
      <path id="Trazado_1058394" data-name="Trazado 1058394" d="M242.808,7.5c-.607,0-1.209.02-1.808.056a29.944,29.944,0,0,1,0,59.78c.6.036,1.2.056,1.808.056a29.946,29.946,0,0,0,0-59.892Z" transform="translate(-211.958 -6.596)" fill="#2982ba"/>
      <rect id="Rect치ngulo_422571" data-name="Rect치ngulo 422571" width="26" height="24" transform="translate(18 23)" fill="#f2dc50"/>
      <rect id="Rect치ngulo_422572" data-name="Rect치ngulo 422572" width="4" height="24" transform="translate(40 23)" fill="#d9ad29"/>
      <path id="Trazado_1058395" data-name="Trazado 1058395" d="M180,83.063v-5.9a9.158,9.158,0,1,1,18.317,0v5.9H194.7v-5.9a5.543,5.543,0,0,0-11.087,0v5.9Z" transform="translate(-158.309 -59.806)" fill="#445870"/>
      <path id="Trazado_1058396" data-name="Trazado 1058396" d="M192.617,253.931a1.792,1.792,0,0,1-1.272-.528l-5.818-5.828a1.8,1.8,0,1,1,2.545-2.549l4.546,4.554,6.423-6.448a1.8,1.8,0,0,1,2.545,2.549L193.89,253.4A1.791,1.791,0,0,1,192.617,253.931Z" transform="translate(-162.706 -213.368)" fill="#ff4a4a"/>
      <path id="Trazado_1058397" data-name="Trazado 1058397" d="M52.664,9.036A30.865,30.865,0,0,0,15.451,4.112,31.043,31.043,0,0,0,4.416,14.936a.9.9,0,0,0,1.548.934,29.065,29.065,0,0,1,2-2.9,39.347,39.347,0,0,0,5.452,1.809,42.936,42.936,0,0,0-2.958,15.17H1.823A28.81,28.81,0,0,1,4.11,19.5a.9.9,0,0,0-1.664-.707A30.854,30.854,0,0,0,52.664,52.664a30.85,30.85,0,0,0,0-43.628Zm1.073,39.7a39.334,39.334,0,0,0-5.457-1.811,42.939,42.939,0,0,0,2.958-15.17h8.639A28.8,28.8,0,0,1,53.736,48.734ZM1.823,31.753h8.639a42.939,42.939,0,0,0,2.958,15.17,39.34,39.34,0,0,0-5.457,1.811A28.8,28.8,0,0,1,1.823,31.753ZM18.2,39.426a.9.9,0,0,0,.9-.9V24.162H42.6v.854a.9.9,0,1,0,1.808,0V23.258a.9.9,0,0,0-.9-.9H40.912v-5a10.119,10.119,0,0,0-.07-1.167c1.974-.255,3.872-.585,5.662-.983a41.17,41.17,0,0,1,2.925,14.743H44.407V28.912a.9.9,0,1,0-1.808,0V46.455H19.1V42.4a.9.9,0,0,0-1.808,0v3.672c-.715.132-1.416.274-2.1.426A41.169,41.169,0,0,1,12.27,31.753h5.022v6.768A.9.9,0,0,0,18.2,39.426ZM35.808,8.6a23.592,23.592,0,0,0-2.177-6.47C38.576,3.3,42.889,7.515,45.756,13.516c-1.674.36-3.444.66-5.284.894A10.108,10.108,0,0,0,35.808,8.6Zm-2.063-.885a10.039,10.039,0,0,0-5.789,0c1.158-4.626,2.371-5.909,2.895-5.909S32.586,3.092,33.744,7.717ZM25.892,8.6a10.108,10.108,0,0,0-4.664,5.808c-1.84-.234-3.61-.534-5.284-.894,2.866-6,7.18-10.219,12.125-11.383A23.592,23.592,0,0,0,25.892,8.6Zm-3.3,8.751a8.255,8.255,0,0,1,16.509,0v5H37.3v-5a6.425,6.425,0,0,0-.271-1.845l-.009-.031c-.051-.168-.11-.332-.174-.494-.006-.017-.012-.034-.02-.05a6.445,6.445,0,0,0-11.952.01l-.008.016c0,.009-.005.017-.009.026-.064.161-.122.325-.173.491l-.009.031a6.425,6.425,0,0,0-.271,1.845v5H22.595v-5Zm3.615,5v-3.2c.07-.822.151-1.645.24-2.459,1.451.078,2.926.119,4.4.119s2.949-.041,4.4-.119c.089.815.17,1.637.24,2.459v3.2Zm.7-7.447a4.635,4.635,0,0,1,7.88,0C32.188,15.034,29.511,15.034,26.91,14.907Zm17.5,16.846h5.022A41.168,41.168,0,0,1,46.5,46.5c-.681-.151-1.382-.294-2.1-.426ZM17.457,47.878a.9.9,0,0,0,.74.385h6.838a47.483,47.483,0,0,0,2.07,9.162,14.006,14.006,0,0,0,.969,2.143c-4.948-1.162-9.263-5.382-12.13-11.384Q16.687,48.023,17.457,47.878ZM28.8,56.8a45.021,45.021,0,0,1-1.94-8.54h7.976A45.024,45.024,0,0,1,32.9,56.8C32,59.241,31.19,59.892,30.85,59.892S29.695,59.241,28.8,56.8Zm5.793.622a47.483,47.483,0,0,0,2.07-9.162H43.5a.9.9,0,0,0,.74-.385q.771.145,1.513.306c-2.867,6-7.182,10.222-12.13,11.384A14.017,14.017,0,0,0,34.595,57.424ZM51.237,29.946a42.939,42.939,0,0,0-2.958-15.17,39.34,39.34,0,0,0,5.457-1.811,28.8,28.8,0,0,1,6.14,16.981Zm1.281-18.433A39.447,39.447,0,0,1,47.551,13.1a31.682,31.682,0,0,0-2.16-3.915,23.265,23.265,0,0,0-5.346-5.895,28.921,28.921,0,0,1,11.341,7.027Q51.971,10.9,52.518,11.513Zm-43.335,0a29.209,29.209,0,0,1,7.171-5.836,28.81,28.81,0,0,1,5.275-2.371,23.289,23.289,0,0,0-5.32,5.875,31.682,31.682,0,0,0-2.16,3.915A39.463,39.463,0,0,1,9.183,11.514ZM15.2,15.2c1.79.4,3.687.728,5.662.983a10.119,10.119,0,0,0-.07,1.167v5H18.2a.9.9,0,0,0-.9.9v6.688H12.27A41.169,41.169,0,0,1,15.2,15.2ZM9.181,50.186A39.46,39.46,0,0,1,14.148,48.6a31.682,31.682,0,0,0,2.16,3.915,23.265,23.265,0,0,0,5.346,5.895,28.921,28.921,0,0,1-11.341-7.027Q9.728,50.8,9.181,50.186Zm30.863,8.227a23.265,23.265,0,0,0,5.346-5.895,31.682,31.682,0,0,0,2.16-3.915,39.455,39.455,0,0,1,4.967,1.583q-.548.612-1.132,1.2A28.922,28.922,0,0,1,40.044,58.413Z"/>
      <path id="Trazado_1058398" data-name="Trazado 1058398" d="M184.121,247.446a2.7,2.7,0,0,0,3.825,0l7.694-7.722a2.712,2.712,0,0,0,0-3.826,2.683,2.683,0,0,0-1.912-.793h0a2.684,2.684,0,0,0-1.913.794l-5.783,5.806-3.905-3.912a2.7,2.7,0,0,0-3.824,0,2.712,2.712,0,0,0,0,3.826Zm-4.539-8.377a.893.893,0,0,1,1.265,0l4.546,4.554a.9.9,0,0,0,.64.265h0a.9.9,0,0,0,.64-.266l6.422-6.447a.893.893,0,0,1,1.265,0,.9.9,0,0,1,0,1.273l-7.694,7.722a.893.893,0,0,1-1.265,0l-5.818-5.828A.9.9,0,0,1,179.582,239.069Z" transform="translate(-156.122 -206.772)"/>
    </g>
  </g>
</svg>
