<svg xmlns="http://www.w3.org/2000/svg" xmlns:xlink="http://www.w3.org/1999/xlink" width="108" height="108" viewBox="0 0 108 108">
  <defs>
    <filter id="Trazado_904820" x="0" y="0" width="108" height="108" filterUnits="userSpaceOnUse">
      <feOffset dy="3" input="SourceAlpha"/>
      <feGaussianBlur stdDeviation="3" result="blur"/>
      <feFlood flood-opacity="0.161"/>
      <feComposite operator="in" in2="blur"/>
      <feComposite in="SourceGraphic"/>
    </filter>
  </defs>
  <g id="Grupo_1226498" data-name="Grupo 1226498" transform="translate(-200 -2088.784)">
    <g id="Grupo_1226276" data-name="Grupo 1226276" transform="translate(0.344 1602.784)">
      <g id="Grupo_1174741" data-name="Grupo 1174741" transform="translate(208.656 492)">
        <g id="Grupo_1173585" data-name="Grupo 1173585" transform="translate(0 0)">
          <g id="Grupo_1173428" data-name="Grupo 1173428">
            <g id="Grupo_1171958" data-name="Grupo 1171958">
              <g id="Grupo_1167341" data-name="Grupo 1167341">
                <g id="Grupo_1166792" data-name="Grupo 1166792">
                  <g transform="matrix(1, 0, 0, 1, -9, -6)" filter="url(#Trazado_904820)">
                    <g id="Trazado_904820-2" data-name="Trazado 904820" transform="translate(9 6)" fill="#fdf6e4">
                      <path d="M 44.99999618530273 88.50003051757812 C 39.12687301635742 88.50003051757812 33.43022155761719 87.35010528564453 28.06829643249512 85.08219146728516 C 22.88852119445801 82.89134216308594 18.23629570007324 79.75461578369141 14.24084663391113 75.75916290283203 C 10.24540901184082 71.76371765136719 7.108683586120605 67.11148834228516 4.917821407318115 61.93171691894531 C 2.649921178817749 56.56978988647461 1.499996185302734 50.87313842773438 1.499996185302734 45.00001525878906 C 1.499996185302734 39.12689208984375 2.649921178817749 33.43024063110352 4.917821407318115 28.06830215454102 C 7.108683586120605 22.88852691650391 10.24540901184082 18.23631477355957 14.24084663391113 14.24086570739746 C 18.23629570007324 10.24541568756104 22.88852119445801 7.10869026184082 28.06829643249512 4.917827606201172 C 33.43022155761719 2.649927854537964 39.12687301635742 1.50000274181366 44.99999618530273 1.50000274181366 C 50.87311935424805 1.50000274181366 56.56977081298828 2.649927854537964 61.93169784545898 4.917827606201172 C 67.11147308349609 7.10869026184082 71.76369476318359 10.24541568756104 75.75914764404297 14.24086570739746 C 79.75458526611328 18.23631477355957 82.89131164550781 22.88852691650391 85.08216857910156 28.06830215454102 C 87.35007476806641 33.43024063110352 88.5 39.12689208984375 88.5 45.00001525878906 C 88.5 50.87313842773438 87.35007476806641 56.56978988647461 85.08216857910156 61.93171691894531 C 82.89131164550781 67.11148834228516 79.75458526611328 71.76371765136719 75.75914764404297 75.75916290283203 C 71.76369476318359 79.75461578369141 67.11147308349609 82.89134216308594 61.93169784545898 85.08219146728516 C 56.56977081298828 87.35010528564453 50.87311935424805 88.50003051757812 44.99999618530273 88.50003051757812 Z" stroke="none"/>
                      <path d="M 44.99999618530273 3 C 39.32870864868164 3 33.82865142822266 4.110061645507812 28.65262603759766 6.299346923828125 C 23.65165710449219 8.414573669433594 19.15968322753906 11.44334411621094 15.301513671875 15.301513671875 C 11.44333648681641 19.15968322753906 8.414566040039062 23.65165710449219 6.299339294433594 28.65262985229492 C 4.110054016113281 33.82867050170898 2.999992370605469 39.32872772216797 2.999992370605469 45.00001525878906 C 2.999992370605469 50.67130279541016 4.110054016113281 56.17136001586914 6.299339294433594 61.34738922119141 C 8.414566040039062 66.34837341308594 11.44333648681641 70.84033203125 15.301513671875 74.69850158691406 C 19.15968322753906 78.55668640136719 23.65165710449219 81.58545684814453 28.65262603759766 83.70068359375 C 33.82865142822266 85.88996887207031 39.32870864868164 87.00003051757812 44.99999618530273 87.00003051757812 C 50.67128372192383 87.00003051757812 56.17134094238281 85.88996887207031 61.34736633300781 83.70068359375 C 66.34834289550781 81.58545684814453 70.84030914306641 78.55668640136719 74.69847869873047 74.69850158691406 C 78.55665588378906 70.84033203125 81.58542633056641 66.34837341308594 83.70065307617188 61.34738922119141 C 85.88993835449219 56.17136001586914 87 50.67130279541016 87 45.00001525878906 C 87 39.32872772216797 85.88993835449219 33.82867050170898 83.70065307617188 28.65262985229492 C 81.58542633056641 23.65165710449219 78.55665588378906 19.15968322753906 74.69847869873047 15.301513671875 C 70.84030914306641 11.44334411621094 66.34834289550781 8.414573669433594 61.34736633300781 6.299346923828125 C 56.17134094238281 4.110061645507812 50.67128372192383 3 44.99999618530273 3 M 44.99999618530273 0 C 69.85281372070312 0 90 20.14718627929688 90 45.00001525878906 C 90 69.85282897949219 69.85281372070312 90.00003051757812 44.99999618530273 90.00003051757812 C 20.14717864990234 90.00003051757812 -7.62939453125e-06 69.85282897949219 -7.62939453125e-06 45.00001525878906 C -7.62939453125e-06 20.14718627929688 20.14717864990234 0 44.99999618530273 0 Z" stroke="none" fill="#f5b104"/>
                    </g>
                  </g>
                </g>
              </g>
            </g>
          </g>
        </g>
      </g>
    </g>
    <g id="http" transform="translate(186.518 2106.208)">
      <path id="Trazado_1057932" data-name="Trazado 1057932" d="M108.653,7.5a19.676,19.676,0,0,1,19.5,19.742v2.511a2.666,2.666,0,1,1-5.333,0V27.209a14.221,14.221,0,1,0-28.441-.156V40.225H89.044V27.053A19.575,19.575,0,0,1,108.653,7.5Z" transform="translate(-41.115 -6.621)" fill="#fa6931"/>
      <path id="Trazado_1057933" data-name="Trazado 1057933" d="M53.086,292.784H95.124a3.11,3.11,0,0,0,3.11-3.11V267.81a3.11,3.11,0,0,0-3.11-3.11H53.086a3.11,3.11,0,0,0-3.11,3.11v21.865a3.11,3.11,0,0,0,3.11,3.11Z" transform="translate(-6.623 -233.699)" fill="#fd7e42"/>
      <path id="Trazado_1057934" data-name="Trazado 1057934" d="M394.842,264.7h-5.39a3.11,3.11,0,0,1,3.11,3.11v21.865a3.11,3.11,0,0,1-3.11,3.11h5.39a3.11,3.11,0,0,0,3.11-3.11V267.81A3.11,3.11,0,0,0,394.842,264.7Z" transform="translate(-306.34 -233.699)" fill="#fa6931"/>
      <path id="Trazado_1057935" data-name="Trazado 1057935" d="M135.358,338.016H102.412A1.715,1.715,0,0,1,100.7,336.3V325.471a1.715,1.715,0,0,1,1.715-1.715h32.946a1.715,1.715,0,0,1,1.715,1.715V336.3A1.715,1.715,0,0,1,135.358,338.016Z" transform="translate(-51.403 -285.839)" fill="#e8f3ff"/>
      <path id="Trazado_1057936" data-name="Trazado 1057936" d="M356.319,323.756h-5.351a1.715,1.715,0,0,1,1.715,1.715V336.3a1.715,1.715,0,0,1-1.715,1.715h5.351a1.715,1.715,0,0,0,1.715-1.715V325.471A1.715,1.715,0,0,0,356.319,323.756Z" transform="translate(-272.364 -285.839)" fill="#d8eafb"/>
      <path id="Trazado_1057937" data-name="Trazado 1057937" d="M88.5,30.122H54.14V20.431A13.358,13.358,0,0,1,67.56,7.089a13.452,13.452,0,0,1,13.264,13.5v2.544a3.545,3.545,0,1,0,7.089,0V20.621A20.562,20.562,0,0,0,67.54,0h-.058A20.454,20.454,0,0,0,47.05,20.431v9.691h-.587a3.993,3.993,0,0,0-3.988,3.988V55.975a3.993,3.993,0,0,0,3.988,3.988H88.5a3.993,3.993,0,0,0,3.988-3.988V34.11A3.992,3.992,0,0,0,88.5,30.122ZM48.807,20.431A18.7,18.7,0,0,1,67.482,1.757h.053A18.8,18.8,0,0,1,86.157,20.621v2.511a1.788,1.788,0,0,1-3.576,0V20.588A15.213,15.213,0,0,0,67.57,5.333a15.115,15.115,0,0,0-15.187,15.1v9.691H48.807ZM90.733,55.975A2.234,2.234,0,0,1,88.5,58.207H46.463a2.234,2.234,0,0,1-2.231-2.231V34.11a2.234,2.234,0,0,1,2.231-2.231H88.5a2.234,2.234,0,0,1,2.231,2.231Z" transform="translate(0)"/>
      <path id="Trazado_1057938" data-name="Trazado 1057938" d="M130.452,394.152a.878.878,0,0,0-.878.878v3.422a.838.838,0,0,1-.837.837H95.791a.838.838,0,0,1-.837-.837V395.03a.878.878,0,1,0-1.757,0v3.422a2.6,2.6,0,0,0,2.594,2.594h32.946a2.6,2.6,0,0,0,2.594-2.594V395.03A.878.878,0,0,0,130.452,394.152Z" transform="translate(-44.782 -347.99)"/>
      <path id="Trazado_1057939" data-name="Trazado 1057939" d="M128.737,316.256H95.791A2.6,2.6,0,0,0,93.2,318.85v3.3a.878.878,0,1,0,1.757,0v-3.3a.838.838,0,0,1,.837-.837h32.946a.838.838,0,0,1,.837.837v3.267a.878.878,0,1,0,1.757,0V318.85A2.6,2.6,0,0,0,128.737,316.256Z" transform="translate(-44.782 -279.217)"/>
      <path id="Trazado_1057940" data-name="Trazado 1057940" d="M138.855,347.864a.878.878,0,0,0-.878.878v2.317h-2.822v-2.317a.878.878,0,0,0-1.757,0v6.617a.878.878,0,1,0,1.757,0v-2.543h2.822v2.543a.878.878,0,1,0,1.757,0v-6.617A.878.878,0,0,0,138.855,347.864Z" transform="translate(-80.274 -307.123)"/>
      <path id="Trazado_1057941" data-name="Trazado 1057941" d="M210.765,347.864H207.11a.878.878,0,1,0,0,1.757h.941v5.739a.878.878,0,1,0,1.757,0v-5.739h.956a.878.878,0,1,0,0-1.757Z" transform="translate(-144.578 -307.123)"/>
      <path id="Trazado_1057942" data-name="Trazado 1057942" d="M270.942,347.864h-3.654a.878.878,0,1,0,0,1.757h.941v5.739a.878.878,0,1,0,1.757,0v-5.739h.956a.878.878,0,0,0,0-1.757Z" transform="translate(-197.708 -307.123)"/>
      <path id="Trazado_1057943" data-name="Trazado 1057943" d="M334.337,347.864h-1.864a.878.878,0,0,0-.856.878v6.617a.878.878,0,1,0,1.757,0v-2l.964,0a2.746,2.746,0,1,0,0-5.491Zm0,3.735-.956,0c0-.953,0-.767-.005-1.981h.961a.99.99,0,1,1,0,1.978Z" transform="translate(-255.278 -307.123)"/>
    </g>
  </g>
</svg>
