<svg xmlns="http://www.w3.org/2000/svg" xmlns:xlink="http://www.w3.org/1999/xlink" width="400" height="427.27" viewBox="0 0 400 427.27">
  <defs>
    <clipPath id="clip-path">
      <rect id="Rectángulo_421137" data-name="Rectángulo 421137" width="307.171" height="395.408" fill="none"/>
    </clipPath>
    <clipPath id="clip-path-3">
      <path id="Trazado_1057279" data-name="Trazado 1057279" d="M645.034,538.18a38.845,38.845,0,1,0,38.846-38.845,38.845,38.845,0,0,0-38.846,38.845" transform="translate(-645.034 -499.335)" fill="none"/>
    </clipPath>
    <linearGradient id="linear-gradient" x1="-2.458" y1="2.566" x2="-2.454" y2="2.566" gradientUnits="objectBoundingBox">
      <stop offset="0" stop-color="#f7bcbc"/>
      <stop offset="1" stop-color="#7bb6fa"/>
    </linearGradient>
    <clipPath id="clip-path-4">
      <path id="Trazado_1057280" data-name="Trazado 1057280" d="M231.8,230.689c1.382-6.532-.65,1.517-1.032,2.74a83.163,83.163,0,0,1-3.355,8.631l-.108.228c-.4.726-.791,1.455-1.208,2.171-1.536,2.7-3.277,5.269-5.057,7.808-1.434,2.046-2.992,4-4.562,5.945-.134.162-.274.319-.408.481-.224.221-2.1,2.329-2.669,2.913a146.915,146.915,0,0,1-14.248,12.637c-2,1.579-4.054,3.077-6.118,4.565-.883.636-5.091,3.383-5.881,3.936-5.556,3.4-11.281,6.517-17.046,9.536-12.538,6.565-25.443,12.412-38.163,18.611C80.526,335.948,30,374.223,11.435,430.686c-4.275,13,2.275,27.474,15.408,32.069,12.739,4.457,27.783-2.375,32.069-15.408.856-2.6,1.778-5.17,2.772-7.722q.76-1.9,1.585-3.774c.2-.472,1.189-2.5,1.6-3.381a144.393,144.393,0,0,1,9.82-15.571c1.6-2.234,3.3-4.392,5.006-6.539q1.295-1.6,2.629-3.177c.352-.42.618-.741.825-.994l.149-.161A199,199,0,0,1,98.128,391.7c5.138-4.532,10.539-8.756,16.056-12.813,2.739-2.013,5.551-3.922,8.381-5.8l1.121-.7c1.9-1.175,3.829-2.3,5.758-3.42,12.226-7.113,25.061-13.145,37.817-19.23,25.236-12.041,50.6-24.731,71.8-43.258,22-19.227,36.832-43.162,42.874-71.715,2.844-13.441-10.678-26.1-23.034-27.107q-1.153-.094-2.262-.093c-13.638,0-22.155,10.415-24.845,23.128" transform="translate(-10.134 -207.561)" fill="none"/>
    </clipPath>
    <linearGradient id="linear-gradient-2" x1="0.126" y1="1.028" x2="0.127" y2="1.028" xlink:href="#linear-gradient"/>
    <clipPath id="clip-path-6">
      <path id="Rectángulo_421098" data-name="Rectángulo 421098" d="M18.3,0H32.763a18.3,18.3,0,0,1,18.3,18.3V32.616a18.3,18.3,0,0,1-18.3,18.3H18.3A18.3,18.3,0,0,1,0,32.616V18.3A18.3,18.3,0,0,1,18.3,0Z" fill="none"/>
    </clipPath>
    <linearGradient id="linear-gradient-3" x1="-0.734" y1="7.612" x2="-0.728" y2="7.612" gradientUnits="objectBoundingBox">
      <stop offset="0" stop-color="#ffb55e"/>
      <stop offset="1" stop-color="#f09839"/>
    </linearGradient>
    <clipPath id="clip-path-8">
      <path id="Trazado_1057287" data-name="Trazado 1057287" d="M392.154,191.89a11.907,11.907,0,0,0-11.911,11.91V309.337a11.907,11.907,0,0,0,11.911,11.911h76.421a11.912,11.912,0,0,0,11.911-11.911V203.8a11.912,11.912,0,0,0-11.911-11.91Z" transform="translate(-380.243 -191.89)" fill="none"/>
    </clipPath>
    <linearGradient id="linear-gradient-4" x1="-1.316" y1="2.542" x2="-1.312" y2="2.542" gradientUnits="objectBoundingBox">
      <stop offset="0" stop-color="#51a3f5"/>
      <stop offset="1" stop-color="#536be6"/>
    </linearGradient>
    <clipPath id="clip-path-10">
      <path id="Rectángulo_421103" data-name="Rectángulo 421103" d="M15.083,0H27A15.083,15.083,0,0,1,42.086,15.083v11.8A15.083,15.083,0,0,1,27,41.964H15.082A15.082,15.082,0,0,1,0,26.882v-11.8A15.083,15.083,0,0,1,15.083,0Z" fill="none"/>
    </clipPath>
    <linearGradient id="linear-gradient-5" x1="-3.164" y1="4.742" x2="-3.156" y2="4.742" xlink:href="#linear-gradient-3"/>
    <clipPath id="clip-path-12">
      <rect id="Rectángulo_421105" data-name="Rectángulo 421105" width="42.085" height="41.964" fill="none"/>
    </clipPath>
    <clipPath id="clip-path-13">
      <path id="Trazado_1057297" data-name="Trazado 1057297" d="M99.7,763.225H68.076a5.231,5.231,0,0,1-5.231-5.232v-31.5a5.231,5.231,0,0,1,5.231-5.231H99.7a5.232,5.232,0,0,1,5.231,5.231v31.5a5.232,5.232,0,0,1-5.231,5.232" transform="translate(-62.845 -721.261)" fill="none"/>
    </clipPath>
    <linearGradient id="linear-gradient-6" x1="-0.518" y1="3.461" x2="-0.51" y2="3.461" xlink:href="#linear-gradient-3"/>
    <clipPath id="clip-path-14">
      <path id="Trazado_1057298" data-name="Trazado 1057298" d="M465.926,619.6a5.7,5.7,0,0,0-5.7,5.7v86.352a5.133,5.133,0,0,0,5.133,5.133H575.8a5.133,5.133,0,0,0,5.133-5.133V637.279a5.133,5.133,0,0,0-5.133-5.133H546.487v-6.84a5.7,5.7,0,0,0-5.7-5.7Z" transform="translate(-460.224 -619.603)" fill="none"/>
    </clipPath>
    <linearGradient id="linear-gradient-7" x1="-1.322" y1="1.857" x2="-1.32" y2="1.857" xlink:href="#linear-gradient-3"/>
    <clipPath id="clip-path-16">
      <path id="Rectángulo_421110" data-name="Rectángulo 421110" d="M12.379,0H23.756A12.378,12.378,0,0,1,36.134,12.378V34.25A12.379,12.379,0,0,1,23.755,46.629H12.378A12.378,12.378,0,0,1,0,34.251V12.379A12.379,12.379,0,0,1,12.379,0Z" fill="none"/>
    </clipPath>
    <linearGradient id="linear-gradient-8" x1="-0.223" y1="5.654" x2="-0.213" y2="5.654" xlink:href="#linear-gradient-4"/>
    <clipPath id="clip-path-18">
      <path id="Trazado_1057335" data-name="Trazado 1057335" d="M327.3,814.891a19.5,19.5,0,0,0,4.348,27.227l27.7,20.066,24.231,17.558a19.5,19.5,0,0,0,22.879-31.574L389.521,835.9l-34.994-25.356a19.508,19.508,0,0,0-27.226,4.347" transform="translate(-323.591 -806.84)" fill="none"/>
    </clipPath>
    <linearGradient id="linear-gradient-9" x1="-1.2" y1="1.459" x2="-1.196" y2="1.459" xlink:href="#linear-gradient-4"/>
    <clipPath id="clip-path-20">
      <path id="Trazado_1057337" data-name="Trazado 1057337" d="M224.174,803.393c-.582,0-1.142.021-1.725.065s-1.186.108-1.768.194a24.823,24.823,0,0,0-20.7,18.712L194.4,916.7h94.8l-8.7-95.11a24.9,24.9,0,0,0-20.177-17.893,24.189,24.189,0,0,0-3.558-.3Z" transform="translate(-194.404 -803.393)" fill="none"/>
    </clipPath>
    <linearGradient id="linear-gradient-10" x1="-0.711" y1="1.03" x2="-0.708" y2="1.03" xlink:href="#linear-gradient-4"/>
    <clipPath id="clip-path-22">
      <path id="Trazado_1057339" data-name="Trazado 1057339" d="M125.317,828.25l-18.212,25.372L87.922,880.346A19.5,19.5,0,1,0,119.6,903.088l17.846-24.87L157,850.992a19.5,19.5,0,0,0-31.681-22.742" transform="translate(-84.264 -820.123)" fill="none"/>
    </clipPath>
    <linearGradient id="linear-gradient-11" x1="-0.337" y1="1.184" x2="-0.332" y2="1.184" xlink:href="#linear-gradient-4"/>
    <clipPath id="clip-path-24">
      <rect id="Rectángulo_421118" data-name="Rectángulo 421118" width="73.815" height="42.817" fill="none"/>
    </clipPath>
    <clipPath id="clip-path-25">
      <rect id="Rectángulo_421121" data-name="Rectángulo 421121" width="95.292" height="4.058" fill="none"/>
    </clipPath>
    <linearGradient id="linear-gradient-12" x1="-0.634" y1="1" x2="-0.63" y2="1" gradientUnits="objectBoundingBox">
      <stop offset="0" stop-color="#f7bcbc"/>
      <stop offset="1" stop-color="#87bcfa"/>
    </linearGradient>
    <clipPath id="clip-path-27">
      <path id="Trazado_1057363" data-name="Trazado 1057363" d="M411.165,852.9a7.755,7.755,0,0,0-7.074,5.637l-24.412,88.3c-.793,3.113,1.087,5.637,4.2,5.637H487.168a7.755,7.755,0,0,0,7.074-5.637l24.412-88.3c.794-3.114-1.087-5.637-4.2-5.637Z" transform="translate(-379.498 -852.904)" fill="none"/>
    </clipPath>
    <linearGradient id="linear-gradient-13" x1="-1.176" y1="0.823" x2="-1.173" y2="0.823" xlink:href="#linear-gradient-12"/>
    <clipPath id="clip-path-29">
      <rect id="Rectángulo_421126" data-name="Rectángulo 421126" width="31.405" height="31.315" rx="11.255" fill="none"/>
    </clipPath>
    <linearGradient id="linear-gradient-14" x1="-2.649" y1="10.132" x2="-2.638" y2="10.132" xlink:href="#linear-gradient-3"/>
    <clipPath id="clip-path-31">
      <rect id="Rectángulo_421129" data-name="Rectángulo 421129" width="6.233" height="6.233" fill="none"/>
    </clipPath>
    <linearGradient id="linear-gradient-15" x1="-48.282" y1="29.648" x2="-48.227" y2="29.648" xlink:href="#linear-gradient-4"/>
    <linearGradient id="linear-gradient-16" x1="-0.2" y1="14.431" x2="-0.144" y2="14.431" xlink:href="#linear-gradient-4"/>
    <linearGradient id="linear-gradient-17" x1="-4.809" y1="20.622" x2="-4.753" y2="20.622" xlink:href="#linear-gradient-4"/>
    <linearGradient id="linear-gradient-18" x1="-23.428" y1="23.802" x2="-23.373" y2="23.802" xlink:href="#linear-gradient-4"/>
  </defs>
  <g id="Grupo_1227036" data-name="Grupo 1227036" transform="translate(-1020.313 -3602.189)">
    <rect id="Rectángulo_420901" data-name="Rectángulo 420901" width="400" height="320" rx="17" transform="translate(1020.313 3662.189)" fill="#f5b104"/>
    <path id="Trazado_1057277" data-name="Trazado 1057277" d="M0,0H230V427.27H0Z" transform="translate(1105.313 3602.189)" fill="#132fa9"/>
    <g id="Grupo_1211516" data-name="Grupo 1211516" transform="translate(1066.727 3634.051)">
      <g id="Grupo_1211515" data-name="Grupo 1211515" clip-path="url(#clip-path)">
        <g id="Grupo_1211446" data-name="Grupo 1211446">
          <g id="Grupo_1211445" data-name="Grupo 1211445" clip-path="url(#clip-path)">
            <path id="Trazado_1057278" data-name="Trazado 1057278" d="M114.546,376.828H100.858a4.709,4.709,0,0,1-4.709-4.709V358.431a4.709,4.709,0,0,1,4.709-4.709h13.688a4.709,4.709,0,0,1,4.709,4.709v13.688a4.709,4.709,0,0,1-4.709,4.709" transform="translate(-62.8 -231.034)" fill="#8cb8ff"/>
          </g>
        </g>
        <g id="Grupo_1211448" data-name="Grupo 1211448" transform="translate(223.729 173.194)">
          <g id="Grupo_1211447" data-name="Grupo 1211447" clip-path="url(#clip-path-3)">
            <rect id="Rectángulo_421094" data-name="Rectángulo 421094" width="88.777" height="88.777" transform="translate(-11.877 75.83) rotate(-81.098)" fill="url(#linear-gradient)"/>
          </g>
        </g>
        <g id="Grupo_1211450" data-name="Grupo 1211450" transform="translate(3.515 71.992)">
          <g id="Grupo_1211449" data-name="Grupo 1211449" clip-path="url(#clip-path-4)">
            <rect id="Rectángulo_421095" data-name="Rectángulo 421095" width="372.316" height="366.364" transform="matrix(0.853, -0.522, 0.522, 0.853, -118.555, 70.7)" fill="url(#linear-gradient-2)"/>
          </g>
        </g>
        <g id="Grupo_1211452" data-name="Grupo 1211452">
          <g id="Grupo_1211451" data-name="Grupo 1211451" clip-path="url(#clip-path)">
            <path id="Trazado_1057281" data-name="Trazado 1057281" d="M307.882,614.785C285.171,635,236.967,664.8,159.117,651.384c-29.183-5.028-55.316-5.08-77.671-.155-17.926,3.949-33.479,11.088-46.226,21.218a92.024,92.024,0,0,0-22.185,25.409,61.15,61.15,0,0,0-5.728,12.382l1.661.484c.058-.2,6.014-19.982,27.328-36.92,19.73-15.68,57-32,122.528-20.712,34,5.858,65.933,4.023,94.906-5.454a155.093,155.093,0,0,0,55.393-31.6q-.638-.606-1.242-1.25" transform="translate(-4.773 -401.547)" fill="#fff"/>
            <path id="Trazado_1057282" data-name="Trazado 1057282" d="M375.16,169.277H328.251a7.485,7.485,0,0,1-7.485-7.485V118.326a7.485,7.485,0,0,1,7.485-7.485H375.16a7.485,7.485,0,0,1,7.485,7.485v43.465a7.485,7.485,0,0,1-7.485,7.485" transform="translate(-209.509 -72.396)" fill="#8cb8ff"/>
          </g>
        </g>
        <g id="Grupo_1211454" data-name="Grupo 1211454" transform="translate(37.502 7.82)">
          <g id="Grupo_1211453" data-name="Grupo 1211453" clip-path="url(#clip-path-6)">
            <rect id="Rectángulo_421097" data-name="Rectángulo 421097" width="51.063" height="50.916" transform="translate(0 0)" fill="url(#linear-gradient-3)"/>
          </g>
        </g>
        <g id="Grupo_1211456" data-name="Grupo 1211456">
          <g id="Grupo_1211455" data-name="Grupo 1211455" clip-path="url(#clip-path)">
            <path id="Trazado_1057283" data-name="Trazado 1057283" d="M167.005,68.675h-26.37a.969.969,0,0,1,0-1.939h26.37a.969.969,0,0,1,0,1.939" transform="translate(-91.223 -43.589)" fill="#fff"/>
            <path id="Trazado_1057284" data-name="Trazado 1057284" d="M165.9,95.089h-26.37a.969.969,0,1,1,0-1.939H165.9a.969.969,0,0,1,0,1.939" transform="translate(-90.504 -60.841)" fill="#fff"/>
            <path id="Trazado_1057285" data-name="Trazado 1057285" d="M164.8,121.5h-26.37a.969.969,0,0,1,0-1.939H164.8a.969.969,0,0,1,0,1.939" transform="translate(-89.785 -78.093)" fill="#fff"/>
            <path id="Trazado_1057286" data-name="Trazado 1057286" d="M143.593,66.557H94.181a8.677,8.677,0,0,1-8.667-8.667V8.667A8.677,8.677,0,0,1,94.181,0h49.412a8.677,8.677,0,0,1,8.667,8.667V57.889a8.677,8.677,0,0,1-8.667,8.667M94.181.986A7.69,7.69,0,0,0,86.5,8.667V57.889a7.69,7.69,0,0,0,7.681,7.681h49.412a7.69,7.69,0,0,0,7.681-7.681V8.667A7.69,7.69,0,0,0,143.593.986Z" transform="translate(-55.854 0)" fill="#fff"/>
          </g>
        </g>
        <g id="Grupo_1211458" data-name="Grupo 1211458" transform="translate(131.887 66.557)">
          <g id="Grupo_1211457" data-name="Grupo 1211457" clip-path="url(#clip-path-8)">
            <rect id="Rectángulo_421100" data-name="Rectángulo 421100" width="100.243" height="129.358" transform="translate(0 0)" fill="url(#linear-gradient-4)"/>
          </g>
        </g>
        <g id="Grupo_1211460" data-name="Grupo 1211460">
          <g id="Grupo_1211459" data-name="Grupo 1211459" clip-path="url(#clip-path)">
            <path id="Trazado_1057288" data-name="Trazado 1057288" d="M639.708,522.889v2.64A11.912,11.912,0,0,1,627.8,537.44h-3.778v-8.675a5.871,5.871,0,0,1,5.876-5.876Z" transform="translate(-407.579 -341.525)" fill="#3748bd"/>
            <path id="Trazado_1057289" data-name="Trazado 1057289" d="M493.652,272.356H433.105a2.316,2.316,0,1,1,0-4.632h60.547a2.316,2.316,0,0,1,0,4.632" transform="translate(-281.37 -174.864)" fill="#fff"/>
            <path id="Trazado_1057290" data-name="Trazado 1057290" d="M539.592,321.481h-35.9a2.316,2.316,0,1,1,0-4.632h35.9a2.316,2.316,0,0,1,0,4.632" transform="translate(-327.476 -206.95)" fill="#fff"/>
            <path id="Trazado_1057291" data-name="Trazado 1057291" d="M493.652,350.575H433.105a2.316,2.316,0,1,1,0-4.632h60.547a2.316,2.316,0,0,1,0,4.632" transform="translate(-281.37 -225.953)" fill="#fff"/>
            <path id="Trazado_1057292" data-name="Trazado 1057292" d="M493.652,379.669H433.105a2.316,2.316,0,1,1,0-4.632h60.547a2.316,2.316,0,0,1,0,4.632" transform="translate(-281.37 -244.956)" fill="#fff"/>
            <path id="Trazado_1057293" data-name="Trazado 1057293" d="M493.652,408.762H433.105a2.316,2.316,0,1,1,0-4.632h60.547a2.316,2.316,0,0,1,0,4.632" transform="translate(-281.37 -263.958)" fill="#fff"/>
            <path id="Trazado_1057294" data-name="Trazado 1057294" d="M536.33,448.826H498.447a2.316,2.316,0,1,1,0-4.632H536.33a2.316,2.316,0,0,1,0,4.632" transform="translate(-324.048 -290.126)" fill="#fff"/>
            <path id="Trazado_1057295" data-name="Trazado 1057295" d="M536.33,488.889H498.447a2.316,2.316,0,1,1,0-4.632H536.33a2.316,2.316,0,0,1,0,4.632" transform="translate(-324.048 -316.293)" fill="#fff"/>
          </g>
        </g>
        <g id="Grupo_1211462" data-name="Grupo 1211462" transform="translate(133.155 196.42)">
          <g id="Grupo_1211461" data-name="Grupo 1211461" clip-path="url(#clip-path-10)">
            <rect id="Rectángulo_421102" data-name="Rectángulo 421102" width="42.086" height="41.964" fill="url(#linear-gradient-5)"/>
          </g>
        </g>
        <g id="Grupo_1211469" data-name="Grupo 1211469">
          <g id="Grupo_1211468" data-name="Grupo 1211468" clip-path="url(#clip-path)">
            <path id="Trazado_1057296" data-name="Trazado 1057296" d="M94,754.606H44.112a6.236,6.236,0,0,1-6.229-6.229V701.855a6.237,6.237,0,0,1,6.229-6.229H94a6.237,6.237,0,0,1,6.229,6.229v46.523A6.236,6.236,0,0,1,94,754.606M44.112,696.612a5.249,5.249,0,0,0-5.243,5.243v46.523a5.249,5.249,0,0,0,5.243,5.243H94a5.249,5.249,0,0,0,5.243-5.243V701.855A5.249,5.249,0,0,0,94,696.612Z" transform="translate(-24.743 -454.348)" fill="#fff"/>
            <g id="Grupo_1211467" data-name="Grupo 1211467" transform="translate(21.798 250.169)" style="mix-blend-mode: overlay;isolation: isolate">
              <g id="Grupo_1211466" data-name="Grupo 1211466">
                <g id="Grupo_1211465" data-name="Grupo 1211465" clip-path="url(#clip-path-12)">
                  <g id="Grupo_1211464" data-name="Grupo 1211464" transform="translate(0)">
                    <g id="Grupo_1211463" data-name="Grupo 1211463" clip-path="url(#clip-path-13)">
                      <rect id="Rectángulo_421104" data-name="Rectángulo 421104" width="42.085" height="41.964" transform="translate(0)" fill="url(#linear-gradient-6)"/>
                    </g>
                  </g>
                </g>
              </g>
            </g>
          </g>
        </g>
        <g id="Grupo_1211471" data-name="Grupo 1211471" transform="translate(159.628 214.909)">
          <g id="Grupo_1211470" data-name="Grupo 1211470" clip-path="url(#clip-path-14)">
            <rect id="Rectángulo_421107" data-name="Rectángulo 421107" width="120.711" height="97.187" fill="url(#linear-gradient-7)"/>
          </g>
        </g>
        <g id="Grupo_1211473" data-name="Grupo 1211473">
          <g id="Grupo_1211472" data-name="Grupo 1211472" clip-path="url(#clip-path)">
            <path id="Trazado_1057299" data-name="Trazado 1057299" d="M498.587,725.015a18.574,18.574,0,0,1,23.387-17.938,25.359,25.359,0,0,1,41.716-5.723,21.74,21.74,0,1,1,7.256,42.233H516.781v-.009a18.569,18.569,0,0,1-18.194-18.563" transform="translate(-325.653 -452.544)" fill="#fff"/>
            <path id="Trazado_1057300" data-name="Trazado 1057300" d="M719.307,856.05H704.9a1.014,1.014,0,0,1,0-2.027h14.408a1.014,1.014,0,1,1,0,2.027" transform="translate(-459.743 -557.806)" fill="#fff"/>
            <path id="Trazado_1057301" data-name="Trazado 1057301" d="M719.307,870.664H704.9a1.014,1.014,0,0,1,0-2.027h14.408a1.014,1.014,0,1,1,0,2.027" transform="translate(-459.743 -567.35)" fill="#fff"/>
            <path id="Trazado_1057302" data-name="Trazado 1057302" d="M353.852,457.863v49a5.53,5.53,0,0,1-5.53,5.53H312.841a5.529,5.529,0,0,1-5.53-5.53v-49a5.529,5.529,0,0,1,5.53-5.53h35.481a5.53,5.53,0,0,1,5.53,5.53" transform="translate(-200.72 -295.442)" fill="#fff"/>
            <path id="Trazado_1057303" data-name="Trazado 1057303" d="M427.775,606.008v1.226a5.53,5.53,0,0,1-5.53,5.53h-1.754v-4.027a2.726,2.726,0,0,1,2.728-2.728Z" transform="translate(-274.644 -395.815)" fill="#aec5f5"/>
            <path id="Trazado_1057304" data-name="Trazado 1057304" d="M359.965,489.691h-28.11a1.075,1.075,0,1,1,0-2.15h28.11a1.075,1.075,0,0,1,0,2.15" transform="translate(-216.049 -318.438)" fill="#aec5f5"/>
            <path id="Trazado_1057305" data-name="Trazado 1057305" d="M381.294,512.5H364.627a1.075,1.075,0,0,1,0-2.151h16.666a1.075,1.075,0,0,1,0,2.151" transform="translate(-237.454 -333.335)" fill="#aec5f5"/>
            <path id="Trazado_1057306" data-name="Trazado 1057306" d="M359.965,526.007h-28.11a1.075,1.075,0,1,1,0-2.15h28.11a1.075,1.075,0,0,1,0,2.15" transform="translate(-216.049 -342.157)" fill="#aec5f5"/>
            <path id="Trazado_1057307" data-name="Trazado 1057307" d="M359.965,539.515h-28.11a1.075,1.075,0,0,1,0-2.151h28.11a1.075,1.075,0,0,1,0,2.151" transform="translate(-216.049 -350.98)" fill="#aec5f5"/>
            <path id="Trazado_1057308" data-name="Trazado 1057308" d="M359.965,553.021h-28.11a1.075,1.075,0,1,1,0-2.15h28.11a1.075,1.075,0,0,1,0,2.15" transform="translate(-216.049 -359.802)" fill="#aec5f5"/>
            <path id="Trazado_1057309" data-name="Trazado 1057309" d="M379.779,571.622H362.191a1.075,1.075,0,1,1,0-2.151h17.588a1.075,1.075,0,0,1,0,2.151" transform="translate(-235.863 -371.951)" fill="#aec5f5"/>
            <path id="Trazado_1057310" data-name="Trazado 1057310" d="M379.779,590.222H362.191a1.075,1.075,0,1,1,0-2.15h17.588a1.075,1.075,0,1,1,0,2.15" transform="translate(-235.863 -384.1)" fill="#aec5f5"/>
          </g>
        </g>
        <g id="Grupo_1211475" data-name="Grupo 1211475" transform="translate(8.054 131.761)">
          <g id="Grupo_1211474" data-name="Grupo 1211474" clip-path="url(#clip-path-16)">
            <rect id="Rectángulo_421109" data-name="Rectángulo 421109" width="36.134" height="46.629" fill="url(#linear-gradient-8)"/>
          </g>
        </g>
        <g id="Grupo_1211477" data-name="Grupo 1211477">
          <g id="Grupo_1211476" data-name="Grupo 1211476" clip-path="url(#clip-path)">
            <path id="Trazado_1057311" data-name="Trazado 1057311" d="M116.749,499.194v.952a4.294,4.294,0,0,1-4.293,4.293h-1.362v-3.127a2.116,2.116,0,0,1,2.118-2.118Z" transform="translate(-72.561 -326.049)" fill="#3748bd"/>
            <path id="Trazado_1057312" data-name="Trazado 1057312" d="M64.1,408.885H42.276a.835.835,0,0,1,0-1.67H64.1a.835.835,0,0,1,0,1.67" transform="translate(-27.067 -265.973)" fill="#fff"/>
            <path id="Trazado_1057313" data-name="Trazado 1057313" d="M80.661,426.593H67.721a.835.835,0,0,1,0-1.67h12.94a.835.835,0,0,1,0,1.67" transform="translate(-43.687 -277.539)" fill="#fff"/>
            <path id="Trazado_1057314" data-name="Trazado 1057314" d="M64.1,437.08H42.276a.835.835,0,0,1,0-1.67H64.1a.835.835,0,0,1,0,1.67" transform="translate(-27.067 -284.388)" fill="#fff"/>
            <path id="Trazado_1057315" data-name="Trazado 1057315" d="M64.1,447.568H42.276a.835.835,0,1,1,0-1.67H64.1a.835.835,0,1,1,0,1.67" transform="translate(-27.067 -291.239)" fill="#fff"/>
            <path id="Trazado_1057316" data-name="Trazado 1057316" d="M64.1,458.055H42.276a.835.835,0,1,1,0-1.67H64.1a.835.835,0,1,1,0,1.67" transform="translate(-27.067 -298.088)" fill="#fff"/>
            <path id="Trazado_1057317" data-name="Trazado 1057317" d="M79.485,472.5H65.83a.835.835,0,1,1,0-1.67H79.485a.835.835,0,1,1,0,1.67" transform="translate(-42.452 -307.521)" fill="#fff"/>
            <path id="Trazado_1057318" data-name="Trazado 1057318" d="M79.485,486.938H65.83a.835.835,0,0,1,0-1.67H79.485a.835.835,0,0,1,0,1.67" transform="translate(-42.452 -316.953)" fill="#fff"/>
            <path id="Trazado_1057319" data-name="Trazado 1057319" d="M180.719,664.036s2.224,19.866-13.8,26.252c-22.954,9.146-49.082,34.923-29.453,61.014s96.875-6.273,96.875-6.273,34.049-25.183,10.107-62.447c-13.509-21.026-17.523-31.939-17.523-31.939Z" transform="translate(-85.272 -424.969)" fill="#29170c"/>
            <path id="Trazado_1057320" data-name="Trazado 1057320" d="M274.442,633.284a24.323,24.323,0,1,0,24.323-24.323,24.323,24.323,0,0,0-24.323,24.323" transform="translate(-179.252 -397.744)" fill="#29170c"/>
            <path id="Trazado_1057321" data-name="Trazado 1057321" d="M297.328,654.454a20.7,20.7,0,1,0,20.7-20.7,20.7,20.7,0,0,0-20.7,20.7" transform="translate(-194.2 -413.934)" fill="#c26b5c"/>
            <path id="Trazado_1057322" data-name="Trazado 1057322" d="M334.656,703.937l12.712,3.866a13.788,13.788,0,0,0,16.346-15.844l-3.066-15.128-28.794-.973Z" transform="translate(-216.75 -441.437)" fill="#c26b5c"/>
            <path id="Trazado_1057323" data-name="Trazado 1057323" d="M352.435,639.793c-4.018,6.1-5.66,12.11-3.668,13.422s6.864-2.57,10.882-8.67,5.66-12.11,3.668-13.422-6.864,2.57-10.882,8.67" transform="translate(-227.245 -412.052)" fill="#29170c"/>
            <path id="Trazado_1057324" data-name="Trazado 1057324" d="M369.682,687.852a4.875,4.875,0,0,1,1.886-1.132c.8-.264,1.134.988.345,1.25a3.389,3.389,0,0,0-1.315.8c-.6.579-1.52-.336-.916-.916" transform="translate(-241.33 -448.508)" fill="#29170c"/>
            <path id="Trazado_1057325" data-name="Trazado 1057325" d="M397.786,687.152a4.87,4.87,0,0,1,1.886-1.132c.8-.264,1.133.988.344,1.25a3.391,3.391,0,0,0-1.315.8c-.6.579-1.52-.336-.916-.916" transform="translate(-259.685 -448.051)" fill="#29170c"/>
            <path id="Trazado_1057326" data-name="Trazado 1057326" d="M318.529,626.811c3.658-.681,6.754,5.395,6.754,5.395s-9.276-.626-14.889,13.008c-3.379,8.21-7.592,8.536-7.845,11.944-3.079,4.344-7.354,1.265-7.354,1.265s-7.522-13.859,1.464-23.467c5.761-6.159,14.857-6.842,21.87-8.146" transform="translate(-190.881 -409.367)" fill="#29170c"/>
            <path id="Trazado_1057327" data-name="Trazado 1057327" d="M292,745.179h23.224l8.176-35.11H300.18Z" transform="translate(-190.722 -463.782)" fill="#c26b5c"/>
            <path id="Trazado_1057328" data-name="Trazado 1057328" d="M288.2,709.278c3.233,3.43,7.856,4.322,10.327,1.994s1.853-7-1.379-10.427-7.856-4.323-10.327-1.994-1.853,7,1.379,10.427" transform="translate(-186.35 -455.608)" fill="#c26b5c"/>
            <path id="Trazado_1057329" data-name="Trazado 1057329" d="M300.32,711.331a6.571,6.571,0,0,0-5.419-2.787l-.09-1.195a7.706,7.706,0,0,1,6.48,3.279Z" transform="translate(-192.556 -462)" fill="#29170c"/>
            <rect id="Rectángulo_421111" data-name="Rectángulo 421111" width="1.198" height="5.001" transform="translate(123.225 265.105) rotate(-71.761)" fill="#29170c"/>
            <path id="Trazado_1057330" data-name="Trazado 1057330" d="M384.306,731.8a15.244,15.244,0,0,1-1.8-.1,10.764,10.764,0,0,1-3.8-1.387l.628-1.02a9.717,9.717,0,0,0,3.316,1.217,16.47,16.47,0,0,0,3.414,0l.145,1.19a17.218,17.218,0,0,1-1.906.1" transform="translate(-247.354 -476.341)" fill="#29170c"/>
            <path id="Trazado_1057331" data-name="Trazado 1057331" d="M394.072,709.979l-1-.656a7.063,7.063,0,0,0,.822-1.648,6.579,6.579,0,0,0-1.677.264l-.644.179-.545-3.345,1.182-.193.333,2.046a3.463,3.463,0,0,1,2.13.041.877.877,0,0,1,.417.562c.182.8-.65,2.191-1.016,2.75" transform="translate(-255.398 -460.197)" fill="#29170c"/>
            <path id="Trazado_1057332" data-name="Trazado 1057332" d="M373.705,699.53c0,.979.431,1.772.962,1.772s.963-.793.963-1.772-.431-1.771-.963-1.771-.962.793-.962,1.771" transform="translate(-244.086 -455.742)" fill="#29170c"/>
            <path id="Trazado_1057333" data-name="Trazado 1057333" d="M400.335,699.53c0,.979.431,1.772.963,1.772s.962-.793.962-1.772-.431-1.771-.962-1.771-.963.793-.963,1.771" transform="translate(-261.479 -455.742)" fill="#29170c"/>
            <path id="Trazado_1057334" data-name="Trazado 1057334" d="M310.105,738.188a8.433,8.433,0,0,1-2.027-.273l.321-1.155a6.523,6.523,0,0,0,2.324.183,5.92,5.92,0,0,0,2.294-1.166l.77.919a7.056,7.056,0,0,1-2.868,1.429,5.022,5.022,0,0,1-.813.062" transform="translate(-201.221 -480.574)" fill="#29170c"/>
          </g>
        </g>
        <g id="Grupo_1211479" data-name="Grupo 1211479" transform="translate(112.237 279.852)">
          <g id="Grupo_1211478" data-name="Grupo 1211478" clip-path="url(#clip-path-18)">
            <rect id="Rectángulo_421113" data-name="Rectángulo 421113" width="93.536" height="79.226" transform="translate(0 0)" fill="url(#linear-gradient-9)"/>
          </g>
        </g>
        <g id="Grupo_1211481" data-name="Grupo 1211481">
          <g id="Grupo_1211480" data-name="Grupo 1211480" clip-path="url(#clip-path)">
            <path id="Trazado_1057336" data-name="Trazado 1057336" d="M426.675,916.908l24.232,17.558a19.5,19.5,0,1,0,22.878-31.574l-16.935-12.268Z" transform="translate(-278.683 -581.712)" fill="#c26b5c"/>
          </g>
        </g>
        <g id="Grupo_1211483" data-name="Grupo 1211483" transform="translate(67.429 278.656)">
          <g id="Grupo_1211482" data-name="Grupo 1211482" clip-path="url(#clip-path-20)">
            <rect id="Rectángulo_421115" data-name="Rectángulo 421115" width="94.804" height="113.305" transform="translate(0 0)" fill="url(#linear-gradient-10)"/>
          </g>
        </g>
        <g id="Grupo_1211485" data-name="Grupo 1211485">
          <g id="Grupo_1211484" data-name="Grupo 1211484" clip-path="url(#clip-path)">
            <path id="Trazado_1057338" data-name="Trazado 1057338" d="M275.263,803.458c1.466,3.1,8.558,16.189,24.036,16.922,15.564.733,11.4-13.71,10.283-16.987H276.988c-.582,0-1.143.021-1.725.065" transform="translate(-179.788 -524.737)" fill="#c26b5c"/>
          </g>
        </g>
        <g id="Grupo_1211487" data-name="Grupo 1211487" transform="translate(29.227 284.459)">
          <g id="Grupo_1211486" data-name="Grupo 1211486" clip-path="url(#clip-path-22)">
            <rect id="Rectángulo_421117" data-name="Rectángulo 421117" width="79.018" height="93.713" transform="translate(-2.621 0)" fill="url(#linear-gradient-11)"/>
          </g>
        </g>
        <g id="Grupo_1211492" data-name="Grupo 1211492">
          <g id="Grupo_1211491" data-name="Grupo 1211491" clip-path="url(#clip-path)">
            <path id="Trazado_1057340" data-name="Trazado 1057340" d="M92.39,970.638a19.506,19.506,0,0,0,27.211-4.469l17.846-24.87-30.343-24.6L87.921,943.427a19.5,19.5,0,0,0,4.469,27.211" transform="translate(-55.037 -598.745)" fill="#c26b5c"/>
            <path id="Trazado_1057341" data-name="Trazado 1057341" d="M199.422,978.842l23.959-32.805L222,945.253l-23.959,32.805Z" transform="translate(-129.353 -617.393)" fill="#29170c"/>
            <path id="Trazado_1057342" data-name="Trazado 1057342" d="M449.58,935.523l-5.8-62.135,1.377-.784,5.8,62.135Z" transform="translate(-289.855 -569.942)" fill="#29170c"/>
            <path id="Trazado_1057343" data-name="Trazado 1057343" d="M171.319,1016.793l-71.873-21.7a15.96,15.96,0,1,0-8.946,30.637l62.838,15.447a8.09,8.09,0,0,0,9.343-4.616Z" transform="translate(-51.446 -649.476)" fill="#c26b5c"/>
            <path id="Trazado_1057344" data-name="Trazado 1057344" d="M347.246,1024.9a49.45,49.45,0,0,0-15.182,3.023c-5.394,2.28-8.111-5.31-2.771-7.568,4.605-1.947,12.549-4.012,17.547-4.1,5.824-.1,6.252,8.541.406,8.643" transform="translate(-213.188 -663.766)" fill="#c26b5c"/>
            <path id="Trazado_1057345" data-name="Trazado 1057345" d="M310.441,1028.561s-21.344-2.246-26.969,11.373-4.445,19.754.074,21.8,11.351,4.15,19.59-4.939,7.306-28.235,7.306-28.235" transform="translate(-182.68 -671.715)" fill="#c26b5c"/>
            <path id="Trazado_1057346" data-name="Trazado 1057346" d="M309.764,1120.757c4.616.329,9.583-4.1,9.8-4.294a.54.54,0,0,0-.723-.8c-.051.047-5.1,4.583-9.382,3.979a.554.554,0,0,0-.61.458.54.54,0,0,0,.459.61c.151.022.3.038.456.049" transform="translate(-201.721 -728.604)" fill="#29170c"/>
            <path id="Trazado_1057347" data-name="Trazado 1057347" d="M369.327,1040.575a49.443,49.443,0,0,0-14.935-4.074c-5.844-.369-4.886-8.374.9-8.008,4.99.315,13.019,2.014,17.531,4.168,5.256,2.509,1.78,10.434-3.5,7.915" transform="translate(-228.899 -671.753)" fill="#c26b5c"/>
            <path id="Trazado_1057348" data-name="Trazado 1057348" d="M362.5,1061.537c-5.013-2.053-13.043-3.978-18.455-4.046-2.473-.032-4.18-2.882-3.876-5.1.366-2.675,2.634-3.908,5.1-3.877,6.183.078,15.077,2.355,20.8,4.7,5.409,2.215,1.836,10.538-3.565,8.327" transform="translate(-222.161 -684.837)" fill="#c26b5c"/>
            <path id="Trazado_1057349" data-name="Trazado 1057349" d="M410.154,1069.327a2.885,2.885,0,0,1-3.8,1.652,2.942,2.942,0,0,1-1.435-3.891,2.992,2.992,0,0,1,2.929-1.856,2.444,2.444,0,0,1,.874.208,2.935,2.935,0,0,1,1.429,3.886m-1.765-3.105a1.641,1.641,0,0,0-.6-.149,2.148,2.148,0,0,0-2.092,1.347,2.008,2.008,0,1,0,2.693-1.2" transform="translate(-264.309 -695.753)" fill="#29170c"/>
            <path id="Trazado_1057350" data-name="Trazado 1057350" d="M354.738,1083.183a57.661,57.661,0,0,0-17.985-3.943c-2.41-.031-4.074-2.808-3.777-4.97.357-2.606,2.567-3.808,4.97-3.778,6.025.076,14.694,2.294,20.266,4.577,5.271,2.158,1.789,10.269-3.474,8.114" transform="translate(-217.461 -699.193)" fill="#c26b5c"/>
            <path id="Trazado_1057351" data-name="Trazado 1057351" d="M401.172,1090.784a2.788,2.788,0,0,1-3.7,1.6,2.853,2.853,0,0,1-1.4-3.783,2.9,2.9,0,0,1,3.707-1.605,2.86,2.86,0,0,1,1.4,3.789m-1.722-3.037a2.225,2.225,0,0,0-.588-.14,2.086,2.086,0,0,0-2.032,1.316,2.032,2.032,0,0,0,.964,2.708,2.075,2.075,0,0,0,2.627-1.172,2.052,2.052,0,0,0-.97-2.712" transform="translate(-258.53 -709.837)" fill="#29170c"/>
            <path id="Trazado_1057352" data-name="Trazado 1057352" d="M411.418,1047.027a2.736,2.736,0,0,1-2.674,1.7,2.227,2.227,0,0,1-.8-.188,2.493,2.493,0,0,1-1.375-1.478,2.872,2.872,0,0,1,.074-2.072,2.6,2.6,0,1,1,4.77,2.042m-1.637-2.77a1.565,1.565,0,0,0-.517-.135,1.922,1.922,0,0,0-1.841,1.194,2.018,2.018,0,0,0-.047,1.458,1.673,1.673,0,0,0,.9.985,1.877,1.877,0,0,0,2.363-1.066,1.842,1.842,0,0,0-.862-2.438" transform="translate(-265.45 -681.423)" fill="#29170c"/>
            <path id="Trazado_1057353" data-name="Trazado 1057353" d="M349.287,1104.674a45.906,45.906,0,0,0-14.075-2.911c-5.437,0-4.769-8.393.615-8.389a52.59,52.59,0,0,1,16.281,3.378c5.016,2.021,2.215,9.951-2.821,7.922" transform="translate(-216.486 -714.138)" fill="#c26b5c"/>
            <path id="Trazado_1057354" data-name="Trazado 1057354" d="M388.3,1110.144a2.545,2.545,0,0,1-2.524,1.722,2.28,2.28,0,0,1-.6-.128,2.326,2.326,0,0,1-1.36-1.281,2.622,2.622,0,0,1-.055-1.933,2.528,2.528,0,0,1,3.126-1.6,2.494,2.494,0,0,1,1.41,3.22m-1.678-2.483a1.61,1.61,0,0,0-.394-.073,1.723,1.723,0,0,0-1.72,1.208,1.8,1.8,0,0,0,.027,1.344,1.523,1.523,0,0,0,.905.856,1.776,1.776,0,0,0,1.182-3.335" transform="translate(-250.553 -722.907)" fill="#29170c"/>
            <path id="Trazado_1057355" data-name="Trazado 1057355" d="M370.227,1075.96a.54.54,0,0,0,.228-1.044,91.54,91.54,0,0,0-21.264-5.046.554.554,0,0,0-.585.49.541.541,0,0,0,.49.586,90.3,90.3,0,0,1,20.98,4.981.544.544,0,0,0,.151.033" transform="translate(-227.691 -698.785)" fill="#29170c"/>
            <path id="Trazado_1057356" data-name="Trazado 1057356" d="M376.59,1052.876a.54.54,0,0,0,.218-1.048c-7.842-2.767-20.118-4.786-20.241-4.806a.54.54,0,1,0-.174,1.065c.123.02,12.306,2.023,20.057,4.759a.539.539,0,0,0,.141.029" transform="translate(-232.482 -683.859)" fill="#29170c"/>
            <path id="Trazado_1057357" data-name="Trazado 1057357" d="M360.427,1097.934a.453.453,0,0,0,.151-.016.429.429,0,0,0,.28-.527c-.073-.262-.769-1.66-7.334-3.408a48.186,48.186,0,0,0-11.8-1.7.41.41,0,0,0-.4.418.4.4,0,0,0,.418.405,47.218,47.218,0,0,1,11.574,1.677c6.082,1.619,6.76,2.859,6.766,2.872a.382.382,0,0,0,.349.283" transform="translate(-222.933 -713.423)" fill="#29170c"/>
            <path id="Trazado_1057358" data-name="Trazado 1057358" d="M331.434,1029.32a.531.531,0,0,0,.185-.019,39.007,39.007,0,0,1,8.683-1.353c5.4-.036,12.679,1.864,12.753,1.883a.54.54,0,0,0,.275-1.044,60.962,60.962,0,0,0-13.034-1.919,39.4,39.4,0,0,0-8.971,1.395.54.54,0,0,0,.109,1.058" transform="translate(-216.149 -670.699)" fill="#29170c"/>
            <path id="Trazado_1057359" data-name="Trazado 1057359" d="M286.457,1056.709a.541.541,0,0,0,.549-.363,30.213,30.213,0,0,1,3.257-6.373.539.539,0,1,0-.886-.615,30.815,30.815,0,0,0-3.393,6.638.54.54,0,0,0,.336.685.517.517,0,0,0,.137.028" transform="translate(-186.772 -685.238)" fill="#29170c"/>
            <path id="Trazado_1057360" data-name="Trazado 1057360" d="M199.089,1012.138l-18.73-5.682-.788.849,18.73,5.682Z" transform="translate(-117.286 -657.368)" fill="#29170c"/>
            <g id="Grupo_1211490" data-name="Grupo 1211490" transform="translate(159.629 269.278)" opacity="0.6">
              <g id="Grupo_1211489" data-name="Grupo 1211489">
                <g id="Grupo_1211488" data-name="Grupo 1211488" clip-path="url(#clip-path-24)">
                  <path id="Trazado_1057361" data-name="Trazado 1057361" d="M533.9,780.681l-10.643,38.491h-57.9a5.133,5.133,0,0,1-5.133-5.133V776.355h70.45a3.25,3.25,0,0,1,3.226,4.326" transform="translate(-460.226 -776.355)" fill="#a5453f"/>
                </g>
              </g>
            </g>
          </g>
        </g>
        <g id="Grupo_1211494" data-name="Grupo 1211494" transform="translate(60.386 391.35)">
          <g id="Grupo_1211493" data-name="Grupo 1211493" clip-path="url(#clip-path-25)">
            <rect id="Rectángulo_421120" data-name="Rectángulo 421120" width="95.292" height="4.058" fill="url(#linear-gradient-12)"/>
          </g>
        </g>
        <g id="Grupo_1211496" data-name="Grupo 1211496">
          <g id="Grupo_1211495" data-name="Grupo 1211495" clip-path="url(#clip-path)">
            <path id="Trazado_1057362" data-name="Trazado 1057362" d="M376.962,952.483H480.25a7.755,7.755,0,0,0,7.074-5.637l24.412-88.3c.793-3.114-1.087-5.637-4.2-5.637H404.247a7.754,7.754,0,0,0-7.074,5.637l-24.412,88.3c-.794,3.113,1.087,5.637,4.2,5.637" transform="translate(-243.351 -557.075)" fill="#29170c"/>
          </g>
        </g>
        <g id="Grupo_1211498" data-name="Grupo 1211498" transform="translate(131.628 295.829)">
          <g id="Grupo_1211497" data-name="Grupo 1211497" clip-path="url(#clip-path-27)">
            <rect id="Rectángulo_421123" data-name="Rectángulo 421123" width="120.13" height="154.277" transform="matrix(0.155, -0.988, 0.988, 0.155, -15.835, 97.195)" fill="url(#linear-gradient-13)"/>
          </g>
        </g>
        <g id="Grupo_1211500" data-name="Grupo 1211500">
          <g id="Grupo_1211499" data-name="Grupo 1211499" clip-path="url(#clip-path)">
            <path id="Trazado_1057364" data-name="Trazado 1057364" d="M563.508,988.171l11.767-9.378-6.988-9.378-11.767,9.378Zm7.839-9.378-6.837,5.448-4.06-5.448,6.837-5.449Z" transform="translate(-363.492 -633.174)" fill="#29170c"/>
          </g>
        </g>
        <g id="Grupo_1211502" data-name="Grupo 1211502" transform="translate(83.184 78.123)">
          <g id="Grupo_1211501" data-name="Grupo 1211501" clip-path="url(#clip-path-29)">
            <rect id="Rectángulo_421125" data-name="Rectángulo 421125" width="31.405" height="31.315" transform="translate(0 0)" fill="url(#linear-gradient-14)"/>
          </g>
        </g>
        <g id="Grupo_1211504" data-name="Grupo 1211504">
          <g id="Grupo_1211503" data-name="Grupo 1211503" clip-path="url(#clip-path)">
            <path id="Trazado_1057365" data-name="Trazado 1057365" d="M276.042,253.607H259.824a.6.6,0,1,1,0-1.192h16.218a.6.6,0,0,1,0,1.192" transform="translate(-169.314 -164.864)" fill="#fff"/>
            <path id="Trazado_1057366" data-name="Trazado 1057366" d="M275.366,269.851H259.147a.6.6,0,0,1,0-1.192h16.218a.6.6,0,0,1,0,1.192" transform="translate(-168.873 -175.475)" fill="#fff"/>
            <path id="Trazado_1057367" data-name="Trazado 1057367" d="M274.689,286.1H258.47a.6.6,0,1,1,0-1.193h16.218a.6.6,0,0,1,0,1.193" transform="translate(-168.431 -186.086)" fill="#fff"/>
            <path id="Trazado_1057368" data-name="Trazado 1057368" d="M262.035,252.446H226.411a3.9,3.9,0,0,1-3.9-3.9V214.43a3.9,3.9,0,0,1,3.9-3.9h35.623a3.9,3.9,0,0,1,3.9,3.9v34.121a3.9,3.9,0,0,1-3.9,3.9m-35.623-40.891a2.879,2.879,0,0,0-2.876,2.876v34.121a2.879,2.879,0,0,0,2.876,2.876h35.623a2.879,2.879,0,0,0,2.876-2.876V214.43a2.879,2.879,0,0,0-2.876-2.876Z" transform="translate(-145.337 -137.511)" fill="#fff"/>
            <path id="Trazado_1057369" data-name="Trazado 1057369" d="M223.516,206.558a3.7,3.7,0,1,1-3.7-3.7,3.7,3.7,0,0,1,3.7,3.7" transform="translate(-141.16 -132.499)" fill="#4385f1"/>
            <path id="Trazado_1057370" data-name="Trazado 1057370" d="M340.414,206.558a3.7,3.7,0,1,1-3.7-3.7,3.7,3.7,0,0,1,3.7,3.7" transform="translate(-217.512 -132.499)" fill="#4385f1"/>
            <path id="Trazado_1057371" data-name="Trazado 1057371" d="M223.516,320.018a3.7,3.7,0,1,1-3.7-3.7,3.7,3.7,0,0,1,3.7,3.7" transform="translate(-141.16 -206.605)" fill="#4385f1"/>
            <path id="Trazado_1057372" data-name="Trazado 1057372" d="M340.414,320.018a3.7,3.7,0,1,1-3.7-3.7,3.7,3.7,0,0,1,3.7,3.7" transform="translate(-217.512 -206.605)" fill="#4385f1"/>
          </g>
        </g>
        <g id="Grupo_1211506" data-name="Grupo 1211506" transform="translate(300.938 210.616)">
          <g id="Grupo_1211505" data-name="Grupo 1211505" clip-path="url(#clip-path-31)">
            <rect id="Rectángulo_421128" data-name="Rectángulo 421128" width="6.233" height="6.233" transform="translate(0 0)" fill="url(#linear-gradient-15)"/>
          </g>
        </g>
        <g id="Grupo_1211508" data-name="Grupo 1211508" transform="translate(1.245 305.464)">
          <g id="Grupo_1211507" data-name="Grupo 1211507" clip-path="url(#clip-path-31)">
            <rect id="Rectángulo_421130" data-name="Rectángulo 421130" width="6.233" height="6.233" transform="translate(0)" fill="url(#linear-gradient-16)"/>
          </g>
        </g>
        <g id="Grupo_1211510" data-name="Grupo 1211510" transform="translate(29.972 266.873)">
          <g id="Grupo_1211509" data-name="Grupo 1211509" clip-path="url(#clip-path-31)">
            <rect id="Rectángulo_421132" data-name="Rectángulo 421132" width="6.233" height="6.233" transform="translate(0)" fill="url(#linear-gradient-17)"/>
          </g>
        </g>
        <g id="Grupo_1211512" data-name="Grupo 1211512" transform="translate(146.027 247.052)">
          <g id="Grupo_1211511" data-name="Grupo 1211511" clip-path="url(#clip-path-31)">
            <rect id="Rectángulo_421134" data-name="Rectángulo 421134" width="6.233" height="6.233" transform="translate(0)" fill="url(#linear-gradient-18)"/>
          </g>
        </g>
        <g id="Grupo_1211514" data-name="Grupo 1211514">
          <g id="Grupo_1211513" data-name="Grupo 1211513" clip-path="url(#clip-path)">
            <path id="Trazado_1057373" data-name="Trazado 1057373" d="M47.624,557.834a23.812,23.812,0,1,1-23.812-23.812,23.812,23.812,0,0,1,23.812,23.812" transform="translate(0 -348.797)" fill="#8cb8ff"/>
            <path id="Trazado_1057374" data-name="Trazado 1057374" d="M77.38,622.549l7.031-1.169a.458.458,0,0,0,0-.9l-7.031-1.169a3.616,3.616,0,0,1-2.974-2.974l-1.17-7.031a.458.458,0,0,0-.9,0l-1.17,7.031a3.616,3.616,0,0,1-2.974,2.974l-7.031,1.169a.458.458,0,0,0,0,.9l7.031,1.169a3.616,3.616,0,0,1,2.974,2.973l1.17,7.031a.458.458,0,0,0,.9,0l1.17-7.031a3.615,3.615,0,0,1,2.974-2.973" transform="translate(-39.697 -397.717)" fill="#fff"/>
            <path id="Trazado_1057375" data-name="Trazado 1057375" d="M778.691,418.394l7.031-1.169a.458.458,0,0,0,0-.9l-7.031-1.169a3.615,3.615,0,0,1-2.974-2.974l-1.17-7.031a.458.458,0,0,0-.9,0l-1.17,7.031a3.615,3.615,0,0,1-2.974,2.974l-7.031,1.169a.458.458,0,0,0,0,.9l7.031,1.169a3.616,3.616,0,0,1,2.974,2.974l1.17,7.031a.458.458,0,0,0,.9,0l1.17-7.031a3.616,3.616,0,0,1,2.974-2.974" transform="translate(-497.759 -264.373)" fill="#fff"/>
            <path id="Trazado_1057376" data-name="Trazado 1057376" d="M136.339,510.74l5.431-.9a.354.354,0,0,0,0-.7l-5.431-.9a2.794,2.794,0,0,1-2.3-2.3l-.9-5.431a.354.354,0,0,0-.7,0l-.9,5.431a2.794,2.794,0,0,1-2.3,2.3l-5.431.9a.354.354,0,0,0,0,.7l5.431.9a2.794,2.794,0,0,1,2.3,2.3l.9,5.431a.354.354,0,0,0,.7,0l.9-5.431a2.794,2.794,0,0,1,2.3-2.3" transform="translate(-80.673 -326.713)" fill="#fff"/>
            <path id="Trazado_1057377" data-name="Trazado 1057377" d="M237.105,400.722l5.614-.934a.366.366,0,0,0,0-.721l-5.614-.934a2.887,2.887,0,0,1-2.375-2.374l-.934-5.614a.366.366,0,0,0-.721,0l-.934,5.614a2.887,2.887,0,0,1-2.375,2.374l-5.614.934a.366.366,0,0,0,0,.721l5.614.934a2.887,2.887,0,0,1,2.375,2.375l.934,5.614a.366.366,0,0,0,.721,0l.934-5.614a2.887,2.887,0,0,1,2.375-2.375" transform="translate(-146.206 -254.624)" fill="#fff"/>
            <path id="Trazado_1057378" data-name="Trazado 1057378" d="M656.7,18.443l9.514-1.582a.62.62,0,0,0,0-1.223L656.7,14.056a4.893,4.893,0,0,1-4.024-4.024L651.1.518a.619.619,0,0,0-1.222,0l-1.583,9.514a4.893,4.893,0,0,1-4.024,4.024l-9.514,1.582a.62.62,0,0,0,0,1.223l9.514,1.582a4.893,4.893,0,0,1,4.024,4.024l1.583,9.514a.619.619,0,0,0,1.222,0l1.582-9.514a4.893,4.893,0,0,1,4.024-4.024" transform="translate(-414.252 0)" fill="#fff"/>
            <path id="Trazado_1057379" data-name="Trazado 1057379" d="M184.87,584.987l1.318,2.671a.454.454,0,0,0,.342.249l2.948.428a.455.455,0,0,1,.252.776l-2.133,2.079a.454.454,0,0,0-.131.4l.5,2.936a.455.455,0,0,1-.66.479l-2.636-1.386a.455.455,0,0,0-.423,0l-2.636,1.386a.455.455,0,0,1-.66-.479l.5-2.936a.454.454,0,0,0-.131-.4l-2.133-2.079a.455.455,0,0,1,.252-.776l2.948-.428a.454.454,0,0,0,.342-.249l1.318-2.671a.455.455,0,0,1,.815,0" transform="translate(-116.951 -381.919)" fill="#fff"/>
            <path id="Trazado_1057380" data-name="Trazado 1057380" d="M567.6,91.738l1.721,3.487a.593.593,0,0,0,.447.324l3.848.559a.593.593,0,0,1,.329,1.012l-2.784,2.714a.592.592,0,0,0-.171.525l.658,3.833a.594.594,0,0,1-.861.625l-3.442-1.81a.594.594,0,0,0-.552,0l-3.442,1.81a.594.594,0,0,1-.861-.625l.657-3.833a.592.592,0,0,0-.171-.525l-2.784-2.714a.593.593,0,0,1,.329-1.012l3.848-.559a.593.593,0,0,0,.447-.324l1.721-3.487a.593.593,0,0,1,1.064,0" transform="translate(-365.774 -59.703)" fill="#fff"/>
            <path id="Trazado_1057381" data-name="Trazado 1057381" d="M851.264,380.908l1.318,2.671a.454.454,0,0,0,.342.249l2.948.428a.455.455,0,0,1,.252.776l-2.133,2.079a.454.454,0,0,0-.13.4l.5,2.935a.455.455,0,0,1-.66.479l-2.636-1.386a.456.456,0,0,0-.423,0l-2.636,1.386a.455.455,0,0,1-.66-.479l.5-2.935a.454.454,0,0,0-.131-.4l-2.133-2.079a.455.455,0,0,1,.252-.776l2.948-.428a.454.454,0,0,0,.342-.249l1.318-2.671a.455.455,0,0,1,.815,0" transform="translate(-552.207 -248.625)" fill="#fff"/>
            <path id="Trazado_1057382" data-name="Trazado 1057382" d="M171.632,279.58l1.362,2.761a.471.471,0,0,0,.354.257l3.046.443a.47.47,0,0,1,.26.8l-2.2,2.149a.469.469,0,0,0-.135.416l.52,3.035a.47.47,0,0,1-.682.5l-2.725-1.433a.47.47,0,0,0-.437,0l-2.725,1.433a.47.47,0,0,1-.682-.5l.521-3.035a.471.471,0,0,0-.135-.416l-2.2-2.149a.47.47,0,0,1,.26-.8l3.047-.443a.471.471,0,0,0,.354-.257l1.362-2.761a.47.47,0,0,1,.843,0" transform="translate(-108.177 -182.437)" fill="#fff"/>
          </g>
        </g>
      </g>
    </g>
  </g>
</svg>
