<svg xmlns="http://www.w3.org/2000/svg" xmlns:xlink="http://www.w3.org/1999/xlink" width="108" height="108" viewBox="0 0 108 108">
  <defs>
    <filter id="Trazado_904820" x="0" y="0" width="108" height="108" filterUnits="userSpaceOnUse">
      <feOffset dy="3" input="SourceAlpha"/>
      <feGaussianBlur stdDeviation="3" result="blur"/>
      <feFlood flood-opacity="0.161"/>
      <feComposite operator="in" in2="blur"/>
      <feComposite in="SourceGraphic"/>
    </filter>
  </defs>
  <g id="Grupo_1226637" data-name="Grupo 1226637" transform="translate(-199.656 -324)">
    <g id="Grupo_1226491" data-name="Grupo 1226491" transform="translate(208.656 330)">
      <g id="Grupo_1173585" data-name="Grupo 1173585" transform="translate(0 0)">
        <g id="Grupo_1173428" data-name="Grupo 1173428">
          <g id="Grupo_1171958" data-name="Grupo 1171958">
            <g id="Grupo_1167341" data-name="Grupo 1167341">
              <g id="Grupo_1166792" data-name="Grupo 1166792">
                <g transform="matrix(1, 0, 0, 1, -9, -6)" filter="url(#Trazado_904820)">
                  <g id="Trazado_904820-2" data-name="Trazado 904820" transform="translate(9 6)" fill="#ebfefd">
                    <path d="M 44.99999618530273 88.5 C 39.12687301635742 88.5 33.43022155761719 87.35008239746094 28.06829643249512 85.08216857910156 C 22.88852119445801 82.89131927490234 18.23629570007324 79.75459289550781 14.24084663391113 75.75914001464844 C 10.24540901184082 71.76369476318359 7.108683586120605 67.11146545410156 4.917821407318115 61.93170547485352 C 2.649921178817749 56.56976699829102 1.499996185302734 50.87312698364258 1.499996185302734 45.00000381469727 C 1.499996185302734 39.12688064575195 2.649921178817749 33.43022918701172 4.917821407318115 28.06830406188965 C 7.108683586120605 22.88852882385254 10.24540901184082 18.23630332946777 14.24084663391113 14.24085426330566 C 18.23629570007324 10.24541664123535 22.88852119445801 7.108691215515137 28.06829643249512 4.917829036712646 C 33.43022155761719 2.64992880821228 39.12687301635742 1.500003814697266 44.99999618530273 1.500003814697266 C 50.87311935424805 1.500003814697266 56.56977081298828 2.64992880821228 61.93169784545898 4.917829036712646 C 67.11147308349609 7.108691215515137 71.76369476318359 10.24541664123535 75.75914764404297 14.24085426330566 C 79.75458526611328 18.23630332946777 82.89131164550781 22.88852882385254 85.08216857910156 28.06830406188965 C 87.35007476806641 33.43022918701172 88.5 39.12688064575195 88.5 45.00000381469727 C 88.5 50.87312698364258 87.35007476806641 56.56976699829102 85.08216857910156 61.93170547485352 C 82.89131164550781 67.11146545410156 79.75458526611328 71.76369476318359 75.75914764404297 75.75914001464844 C 71.76369476318359 79.75459289550781 67.11147308349609 82.89131927490234 61.93169784545898 85.08216857910156 C 56.56977081298828 87.35008239746094 50.87311935424805 88.5 44.99999618530273 88.5 Z" stroke="none"/>
                    <path d="M 44.99999618530273 3.000007629394531 C 39.32870864868164 3.000007629394531 33.82865142822266 4.110061645507812 28.65262603759766 6.299346923828125 C 23.65165710449219 8.414573669433594 19.15968322753906 11.44334411621094 15.301513671875 15.30152130126953 C 11.44333648681641 19.15969085693359 8.414566040039062 23.65166473388672 6.299339294433594 28.65263366699219 C 4.110054016113281 33.82865905761719 2.999992370605469 39.32871627807617 2.999992370605469 45.00000381469727 C 2.999992370605469 50.67129135131836 4.110054016113281 56.17133331298828 6.299339294433594 61.34737396240234 C 8.414566040039062 66.34834289550781 11.44333648681641 70.84030151367188 15.301513671875 74.698486328125 C 19.15968322753906 78.55666351318359 23.65165710449219 81.58543395996094 28.65262603759766 83.70066070556641 C 33.82865142822266 85.88994598388672 39.32870864868164 87 44.99999618530273 87 C 50.67128372192383 87 56.17134094238281 85.88994598388672 61.34736633300781 83.70066070556641 C 66.34834289550781 81.58543395996094 70.84030914306641 78.55666351318359 74.69847869873047 74.698486328125 C 78.55665588378906 70.84030151367188 81.58542633056641 66.34834289550781 83.70065307617188 61.34737396240234 C 85.88993835449219 56.17133331298828 87 50.67129135131836 87 45.00000381469727 C 87 39.32871627807617 85.88993835449219 33.82865905761719 83.70065307617188 28.65263366699219 C 81.58542633056641 23.65166473388672 78.55665588378906 19.15969085693359 74.69847869873047 15.30152130126953 C 70.84030914306641 11.44334411621094 66.34834289550781 8.414573669433594 61.34736633300781 6.299346923828125 C 56.17134094238281 4.110061645507812 50.67128372192383 3.000007629394531 44.99999618530273 3.000007629394531 M 44.99999618530273 7.62939453125e-06 C 69.85281372070312 7.62939453125e-06 90 20.14718627929688 90 45.00000381469727 C 90 69.85280609130859 69.85281372070312 90 44.99999618530273 90 C 20.14717864990234 90 -7.62939453125e-06 69.85280609130859 -7.62939453125e-06 45.00000381469727 C -7.62939453125e-06 20.14718627929688 20.14717864990234 7.62939453125e-06 44.99999618530273 7.62939453125e-06 Z" stroke="none" fill="#268985"/>
                  </g>
                </g>
              </g>
            </g>
          </g>
        </g>
      </g>
    </g>
    <g id="iot" transform="translate(221.216 349.85)">
      <path id="Trazado_1058159" data-name="Trazado 1058159" d="M13.636,119.084A3.636,3.636,0,0,1,10,115.448V99.015a3.636,3.636,0,0,1,7.272,0v16.433A3.636,3.636,0,0,1,13.636,119.084Zm0,0" transform="translate(-8.651 -82.082)" fill="#c9f3ff"/>
      <path id="Trazado_1058160" data-name="Trazado 1058160" d="M370.574,99.128a3.03,3.03,0,0,0,3.03,3.03h2.8v14.518a3.03,3.03,0,0,0,6.06,0V102.158h2.8a3.03,3.03,0,1,0,0-6.06H373.6A3.03,3.03,0,0,0,370.574,99.128Zm0,0" transform="translate(-320.594 -82.704)" fill="#c9f3ff"/>
      <path id="Trazado_1058161" data-name="Trazado 1058161" d="M160.368,107.773a10.181,10.181,0,1,0,10.181,10.181,10.181,10.181,0,0,0-10.181-10.181Zm0,13.817A3.636,3.636,0,1,1,164,117.954,3.636,3.636,0,0,1,160.368,121.59Zm0,0" transform="translate(-129.932 -92.805)" fill="#72d8ff"/>
      <path id="Trazado_1058162" data-name="Trazado 1058162" d="M152.8,56.549a1.346,1.346,0,0,1-.954-.4,15.478,15.478,0,0,0-21.864,0,1.349,1.349,0,0,1-1.908-1.907,18.178,18.178,0,0,1,25.68,0,1.349,1.349,0,0,1-.954,2.3Zm0,0" transform="translate(-110.463 -41.904)"/>
      <path id="Trazado_1058163" data-name="Trazado 1058163" d="M339.352,53.707a1.344,1.344,0,0,1-.958-.4l-.016-.016a1.349,1.349,0,1,1,1.9-1.915l.032.032a1.349,1.349,0,0,1-.957,2.3Zm0,0" transform="translate(-292.395 -43.676)"/>
      <path id="Trazado_1058164" data-name="Trazado 1058164" d="M94.818,10.031a1.349,1.349,0,0,1-.954-2.3A24.423,24.423,0,0,1,108.548.654a24.8,24.8,0,0,1,15.642,3.46,1.349,1.349,0,0,1-1.408,2.3A21.913,21.913,0,0,0,95.771,9.636a1.343,1.343,0,0,1-.954.4Zm0,0" transform="translate(-80.863)"/>
      <path id="Trazado_1058165" data-name="Trazado 1058165" d="M140.919,268.749a18.1,18.1,0,0,1-12.84-5.31,1.349,1.349,0,1,1,1.908-1.907,15.478,15.478,0,0,0,21.864,0,1.349,1.349,0,1,1,1.908,1.907,18.1,18.1,0,0,1-12.84,5.31Zm0,0" transform="translate(-110.463 -225.484)"/>
      <path id="Trazado_1058166" data-name="Trazado 1058166" d="M134.808,304.883a24.736,24.736,0,0,1-13.6-4.068,1.349,1.349,0,0,1,1.487-2.251,22.051,22.051,0,0,0,27.646-2.818,1.349,1.349,0,0,1,1.907,1.907,24.723,24.723,0,0,1-15.09,7.118c-.782.074-1.567.112-2.349.112Zm0,0" transform="translate(-104.336 -255.084)"/>
      <path id="Trazado_1058167" data-name="Trazado 1058167" d="M94.865,298.1a1.344,1.344,0,0,1-.948-.389l-.057-.056a1.349,1.349,0,1,1,1.916-1.9l.036.036a1.349,1.349,0,0,1-.947,2.309Zm0,0" transform="translate(-80.863 -255.085)"/>
      <path id="Trazado_1058168" data-name="Trazado 1058168" d="M193.7,156.27a4.985,4.985,0,1,1,4.984-4.985A4.991,4.991,0,0,1,193.7,156.27Zm0-7.272a2.287,2.287,0,1,0,2.287,2.287A2.29,2.29,0,0,0,193.7,149Zm0,0" transform="translate(-163.259 -126.136)"/>
      <path id="Trazado_1058169" data-name="Trazado 1058169" d="M4.985,111.781A4.99,4.99,0,0,1,0,106.8V90.364a4.985,4.985,0,1,1,9.969,0V106.8A4.99,4.99,0,0,1,4.985,111.781Zm0-23.7A2.29,2.29,0,0,0,2.7,90.364V106.8a2.287,2.287,0,0,0,4.575,0V90.364A2.29,2.29,0,0,0,4.985,88.077Zm0,0" transform="translate(0 -73.431)"/>
      <path id="Trazado_1058170" data-name="Trazado 1058170" d="M370.786,112.4a4.384,4.384,0,0,1-4.379-4.379V94.855h-1.454a4.379,4.379,0,0,1,0-8.757h11.666a4.379,4.379,0,1,1,0,8.757h-1.454v13.169a4.384,4.384,0,0,1-4.379,4.379ZM364.953,88.8a1.681,1.681,0,1,0,0,3.362h2.8a1.349,1.349,0,0,1,1.349,1.349v14.518a1.681,1.681,0,0,0,3.363,0V93.507a1.349,1.349,0,0,1,1.349-1.349h2.8a1.681,1.681,0,1,0,0-3.362Zm0,0" transform="translate(-311.943 -74.053)"/>
      <path id="Trazado_1058171" data-name="Trazado 1058171" d="M151.717,120.832A11.529,11.529,0,1,1,163.246,109.3,11.542,11.542,0,0,1,151.717,120.832Zm0-20.361a8.832,8.832,0,1,0,8.832,8.832A8.842,8.842,0,0,0,151.717,100.471Zm0,0" transform="translate(-121.28 -84.153)"/>
    </g>
  </g>
</svg>
