<svg xmlns="http://www.w3.org/2000/svg" xmlns:xlink="http://www.w3.org/1999/xlink" width="113" height="113" viewBox="0 0 113 113">
  <defs>
    <filter id="Trazado_982547" x="0" y="0" width="113" height="113" filterUnits="userSpaceOnUse">
      <feOffset dy="3" input="SourceAlpha"/>
      <feGaussianBlur stdDeviation="3" result="blur"/>
      <feFlood flood-opacity="0.161"/>
      <feComposite operator="in" in2="blur"/>
      <feComposite in="SourceGraphic"/>
    </filter>
  </defs>
  <g id="Grupo_1226646" data-name="Grupo 1226646" transform="translate(-4169.529 -4686.846)">
    <g id="Grupo_1226494" data-name="Grupo 1226494" transform="translate(3477 3094)">
      <g id="Grupo_1211209" data-name="Grupo 1211209" transform="translate(701.529 1598.846)">
        <g id="Grupo_1210737" data-name="Grupo 1210737" transform="translate(0)">
          <g id="Grupo_1210537" data-name="Grupo 1210537">
            <g id="Grupo_1164202" data-name="Grupo 1164202">
              <g id="Grupo_1158168" data-name="Grupo 1158168">
                <g id="Grupo_1152576" data-name="Grupo 1152576">
                  <g id="Grupo_1148633" data-name="Grupo 1148633">
                    <g id="Grupo_1148525" data-name="Grupo 1148525">
                      <g transform="matrix(1, 0, 0, 1, -9, -6)" filter="url(#Trazado_982547)">
                        <g id="Trazado_982547-2" data-name="Trazado 982547" transform="translate(9 6)" fill="#fdf6e4">
                          <path d="M 47.5 93.5 C 41.28937149047852 93.5 35.26533508300781 92.28397369384766 29.59518623352051 89.88570404052734 C 24.11771965026855 87.56893157958984 19.19813346862793 84.25196075439453 14.97309303283691 80.02691650390625 C 10.74804019927979 75.80186462402344 7.431066513061523 70.88229370117188 5.114293098449707 65.40481567382812 C 2.716026782989502 59.73468017578125 1.5 53.71062850952148 1.5 47.5 C 1.5 41.28937149047852 2.716026782989502 35.26533508300781 5.114293098449707 29.59518623352051 C 7.431066513061523 24.11771965026855 10.74804019927979 19.19813346862793 14.97309303283691 14.97309303283691 C 19.19813346862793 10.74804019927979 24.11771965026855 7.431066513061523 29.59518623352051 5.114293098449707 C 35.26533508300781 2.716026782989502 41.28937149047852 1.5 47.5 1.5 C 53.71062850952148 1.5 59.73468017578125 2.716026782989502 65.40481567382812 5.114293098449707 C 70.88229370117188 7.431066513061523 75.80186462402344 10.74804019927979 80.02691650390625 14.97309303283691 C 84.25196075439453 19.19813346862793 87.56893157958984 24.11771965026855 89.88570404052734 29.59518623352051 C 92.28397369384766 35.26533508300781 93.5 41.28937149047852 93.5 47.5 C 93.5 53.71062850952148 92.28397369384766 59.73468017578125 89.88570404052734 65.40481567382812 C 87.56893157958984 70.88229370117188 84.25196075439453 75.80186462402344 80.02691650390625 80.02691650390625 C 75.80186462402344 84.25196075439453 70.88229370117188 87.56893157958984 65.40481567382812 89.88570404052734 C 59.73468017578125 92.28397369384766 53.71062850952148 93.5 47.5 93.5 Z" stroke="none"/>
                          <path d="M 47.5 3 C 41.49121475219727 3 35.66376876831055 4.176155090332031 30.17950439453125 6.495796203613281 C 24.88084411621094 8.736953735351562 20.12152099609375 11.94598388671875 16.03375244140625 16.03375244140625 C 11.94598388671875 20.12152099609375 8.736953735351562 24.88084411621094 6.495796203613281 30.17950439453125 C 4.176155090332031 35.66376876831055 3 41.49121475219727 3 47.5 C 3 53.50878524780273 4.176155090332031 59.33623123168945 6.495796203613281 64.82049560546875 C 8.736953735351562 70.11915588378906 11.94598388671875 74.87847900390625 16.03375244140625 78.96624755859375 C 20.12152099609375 83.05401611328125 24.88084411621094 86.26304626464844 30.17950439453125 88.50419616699219 C 35.66376876831055 90.82384490966797 41.49121475219727 92 47.5 92 C 53.50878524780273 92 59.33623123168945 90.82384490966797 64.82049560546875 88.50419616699219 C 70.11915588378906 86.26304626464844 74.87847900390625 83.05401611328125 78.96624755859375 78.96624755859375 C 83.05401611328125 74.87847900390625 86.26304626464844 70.11915588378906 88.50419616699219 64.82049560546875 C 90.82384490966797 59.33623123168945 92 53.50878524780273 92 47.5 C 92 41.49121475219727 90.82384490966797 35.66376876831055 88.50419616699219 30.17950439453125 C 86.26304626464844 24.88084411621094 83.05401611328125 20.12152099609375 78.96624755859375 16.03375244140625 C 74.87847900390625 11.94598388671875 70.11915588378906 8.736953735351562 64.82049560546875 6.495796203613281 C 59.33623123168945 4.176155090332031 53.50878524780273 3 47.5 3 M 47.5 0 C 73.7335205078125 0 95 21.2664794921875 95 47.5 C 95 73.7335205078125 73.7335205078125 95 47.5 95 C 21.2664794921875 95 0 73.7335205078125 0 47.5 C 0 21.2664794921875 21.2664794921875 0 47.5 0 Z" stroke="none" fill="#f5b104"/>
                        </g>
                      </g>
                    </g>
                  </g>
                </g>
              </g>
            </g>
          </g>
        </g>
      </g>
    </g>
    <g id="senal-de-alerta" transform="translate(4196.029 4710.347)">
      <path id="Trazado_1058206" data-name="Trazado 1058206" d="M59,7V45a2.006,2.006,0,0,1-2,2H3a2.006,2.006,0,0,1-2-2V7A2.006,2.006,0,0,1,3,5H26.51L24.18,9H6a1,1,0,0,0-1,1V38a1,1,0,0,0,1,1H54a1,1,0,0,0,1-1V10a1,1,0,0,0-1-1H35.82L33.49,5H57a2.006,2.006,0,0,1,2,2Z" fill="#607d8b"/>
      <path id="Trazado_1058207" data-name="Trazado 1058207" d="M57,5H54a2.006,2.006,0,0,1,2,2V45a2.006,2.006,0,0,1-2,2h3a2.006,2.006,0,0,0,2-2V7a2.006,2.006,0,0,0-2-2Z" fill="#37474f"/>
      <path id="Trazado_1058208" data-name="Trazado 1058208" d="M23,47H37v4H23Z" fill="#00bcd4"/>
      <path id="Trazado_1058209" data-name="Trazado 1058209" d="M34,47h3v4H34Z" fill="#00838f"/>
      <path id="Trazado_1058210" data-name="Trazado 1058210" d="M42,55H18l5-4H37Z" fill="#3f51b5"/>
      <path id="Trazado_1058211" data-name="Trazado 1058211" d="M37,51H34l5,4h3Z" fill="#283593"/>
      <path id="Trazado_1058212" data-name="Trazado 1058212" d="M42,55v2a2.006,2.006,0,0,1-2,2H20a2.006,2.006,0,0,1-2-2V55Z" fill="#607d8b"/>
      <path id="Trazado_1058213" data-name="Trazado 1058213" d="M39,55v2a2.006,2.006,0,0,1-2,2h3a2.006,2.006,0,0,0,2-2V55Z" fill="#37474f"/>
      <path id="Trazado_1058214" data-name="Trazado 1058214" d="M55,10V38a1,1,0,0,1-1,1H6a1,1,0,0,1-1-1V10A1,1,0,0,1,6,9H24.18L10.75,31.99A2,2,0,0,0,12.48,35H47.52a2.005,2.005,0,0,0,1.73-3.01L35.82,9H54A1,1,0,0,1,55,10Z" fill="#00bcd4"/>
      <path id="Trazado_1058215" data-name="Trazado 1058215" d="M54,9H51a1,1,0,0,1,1,1V38a1,1,0,0,1-1,1h3a1,1,0,0,0,1-1V10A1,1,0,0,0,54,9Z" fill="#00838f"/>
      <path id="Trazado_1058216" data-name="Trazado 1058216" d="M49.25,31.99,35.82,9,33.49,5,31.73,1.99a2.007,2.007,0,0,0-3.46,0L26.51,5,24.18,9,10.75,31.99A2,2,0,0,0,12.48,35H47.52a2.005,2.005,0,0,0,1.73-3.01ZM32,30a1,1,0,0,1-1,1H29a1,1,0,0,1-1-1V28a1,1,0,0,1,1-1h2a1,1,0,0,1,1,1Zm0-8a1,1,0,0,1-1,1H29a1,1,0,0,1-1-1V11a1,1,0,0,1,1-1h2a1,1,0,0,1,1,1Z" fill="#ffdf00"/>
      <rect id="Rect치ngulo_422534" data-name="Rect치ngulo 422534" width="4" height="13" rx="1" transform="translate(28 10)" fill="#f44335"/>
      <rect id="Rect치ngulo_422535" data-name="Rect치ngulo 422535" width="4" height="4" rx="1" transform="translate(28 27)" fill="#f44335"/>
      <path id="Trazado_1058217" data-name="Trazado 1058217" d="M9,16a1,1,0,0,1-.707-1.707l2-2a1,1,0,1,1,1.414,1.414l-2,2A1,1,0,0,1,9,16Z" fill="#fff"/>
      <path id="Trazado_1058218" data-name="Trazado 1058218" d="M9,21a1,1,0,0,1-.707-1.707l7-7a1,1,0,1,1,1.414,1.414l-7,7A1,1,0,0,1,9,21Z" fill="#fff"/>
      <path id="Trazado_1058219" data-name="Trazado 1058219" d="M57,4H34.058L32.591,1.486a3,3,0,0,0-5.182,0L25.942,4H3A3,3,0,0,0,0,7V45a3,3,0,0,0,3,3H22v2.519l-4.625,3.7A1,1,0,0,0,17,55v2a3,3,0,0,0,3,3H40a3,3,0,0,0,3-3V55a1,1,0,0,0-.375-.781L38,50.519V48H57a3,3,0,0,0,3-3V7a3,3,0,0,0-3-3ZM29.136,2.5a1,1,0,0,1,1.728,0l17.518,30a1,1,0,0,1-.864,1.5H12.482a1,1,0,0,1-.864-1.5ZM9.88,34.5a2.968,2.968,0,0,0,2.6,1.5H47.518a3,3,0,0,0,2.591-4.509L37.562,10H54V38H6V10H22.438L9.891,31.491a2.965,2.965,0,0,0-.011,3ZM39.149,54h-18.3l2.5-2h13.3ZM40,58H20a1,1,0,0,1-1-1V56H41v1A1,1,0,0,1,40,58Zm-4-8H24V48H36Zm22-5a1,1,0,0,1-1,1H3a1,1,0,0,1-1-1V7A1,1,0,0,1,3,6H24.774L23.606,8H6a2,2,0,0,0-2,2V38a2,2,0,0,0,2,2H54a2,2,0,0,0,2-2V10a2,2,0,0,0-2-2H36.394L35.226,6H57a1,1,0,0,1,1,1Z"/>
      <path id="Trazado_1058220" data-name="Trazado 1058220" d="M32,42H28a1,1,0,0,0,0,2h4a1,1,0,0,0,0-2Z"/>
      <path id="Trazado_1058221" data-name="Trazado 1058221" d="M29,24h2a2,2,0,0,0,2-2V11a2,2,0,0,0-2-2H29a2,2,0,0,0-2,2V22A2,2,0,0,0,29,24Zm0-13h2V22H29Z"/>
      <path id="Trazado_1058222" data-name="Trazado 1058222" d="M29,32h2a2,2,0,0,0,2-2V28a2,2,0,0,0-2-2H29a2,2,0,0,0-2,2v2A2,2,0,0,0,29,32Zm0-4h2v2H29Z"/>
    </g>
  </g>
</svg>
