<svg xmlns="http://www.w3.org/2000/svg" xmlns:xlink="http://www.w3.org/1999/xlink" width="113" height="113" viewBox="0 0 113 113">
  <defs>
    <filter id="Trazado_982547" x="0" y="0" width="113" height="113" filterUnits="userSpaceOnUse">
      <feOffset dy="3" input="SourceAlpha"/>
      <feGaussianBlur stdDeviation="3" result="blur"/>
      <feFlood flood-opacity="0.161"/>
      <feComposite operator="in" in2="blur"/>
      <feComposite in="SourceGraphic"/>
    </filter>
  </defs>
  <g id="Grupo_1226653" data-name="Grupo 1226653" transform="translate(-4533.529 -5065.846)">
    <g id="Grupo_1226497" data-name="Grupo 1226497" transform="translate(3841 3473)">
      <g id="Grupo_1211209" data-name="Grupo 1211209" transform="translate(701.529 1598.846)">
        <g id="Grupo_1210737" data-name="Grupo 1210737" transform="translate(0)">
          <g id="Grupo_1210537" data-name="Grupo 1210537">
            <g id="Grupo_1164202" data-name="Grupo 1164202">
              <g id="Grupo_1158168" data-name="Grupo 1158168">
                <g id="Grupo_1152576" data-name="Grupo 1152576">
                  <g id="Grupo_1148633" data-name="Grupo 1148633">
                    <g id="Grupo_1148525" data-name="Grupo 1148525">
                      <g transform="matrix(1, 0, 0, 1, -9, -6)" filter="url(#Trazado_982547)">
                        <g id="Trazado_982547-2" data-name="Trazado 982547" transform="translate(9 6)" fill="#fdf6e4">
                          <path d="M 47.5 93.5 C 41.28937149047852 93.5 35.26533508300781 92.28397369384766 29.59518623352051 89.88570404052734 C 24.11771965026855 87.56893157958984 19.19813346862793 84.25196075439453 14.97309303283691 80.02691650390625 C 10.74804019927979 75.80186462402344 7.431066513061523 70.88229370117188 5.114293098449707 65.40481567382812 C 2.716026782989502 59.73468017578125 1.5 53.71062850952148 1.5 47.5 C 1.5 41.28937149047852 2.716026782989502 35.26533508300781 5.114293098449707 29.59518623352051 C 7.431066513061523 24.11771965026855 10.74804019927979 19.19813346862793 14.97309303283691 14.97309303283691 C 19.19813346862793 10.74804019927979 24.11771965026855 7.431066513061523 29.59518623352051 5.114293098449707 C 35.26533508300781 2.716026782989502 41.28937149047852 1.5 47.5 1.5 C 53.71062850952148 1.5 59.73468017578125 2.716026782989502 65.40481567382812 5.114293098449707 C 70.88229370117188 7.431066513061523 75.80186462402344 10.74804019927979 80.02691650390625 14.97309303283691 C 84.25196075439453 19.19813346862793 87.56893157958984 24.11771965026855 89.88570404052734 29.59518623352051 C 92.28397369384766 35.26533508300781 93.5 41.28937149047852 93.5 47.5 C 93.5 53.71062850952148 92.28397369384766 59.73468017578125 89.88570404052734 65.40481567382812 C 87.56893157958984 70.88229370117188 84.25196075439453 75.80186462402344 80.02691650390625 80.02691650390625 C 75.80186462402344 84.25196075439453 70.88229370117188 87.56893157958984 65.40481567382812 89.88570404052734 C 59.73468017578125 92.28397369384766 53.71062850952148 93.5 47.5 93.5 Z" stroke="none"/>
                          <path d="M 47.5 3 C 41.49121475219727 3 35.66376876831055 4.176155090332031 30.17950439453125 6.495796203613281 C 24.88084411621094 8.736953735351562 20.12152099609375 11.94598388671875 16.03375244140625 16.03375244140625 C 11.94598388671875 20.12152099609375 8.736953735351562 24.88084411621094 6.495796203613281 30.17950439453125 C 4.176155090332031 35.66376876831055 3 41.49121475219727 3 47.5 C 3 53.50878524780273 4.176155090332031 59.33623123168945 6.495796203613281 64.82049560546875 C 8.736953735351562 70.11915588378906 11.94598388671875 74.87847900390625 16.03375244140625 78.96624755859375 C 20.12152099609375 83.05401611328125 24.88084411621094 86.26304626464844 30.17950439453125 88.50419616699219 C 35.66376876831055 90.82384490966797 41.49121475219727 92 47.5 92 C 53.50878524780273 92 59.33623123168945 90.82384490966797 64.82049560546875 88.50419616699219 C 70.11915588378906 86.26304626464844 74.87847900390625 83.05401611328125 78.96624755859375 78.96624755859375 C 83.05401611328125 74.87847900390625 86.26304626464844 70.11915588378906 88.50419616699219 64.82049560546875 C 90.82384490966797 59.33623123168945 92 53.50878524780273 92 47.5 C 92 41.49121475219727 90.82384490966797 35.66376876831055 88.50419616699219 30.17950439453125 C 86.26304626464844 24.88084411621094 83.05401611328125 20.12152099609375 78.96624755859375 16.03375244140625 C 74.87847900390625 11.94598388671875 70.11915588378906 8.736953735351562 64.82049560546875 6.495796203613281 C 59.33623123168945 4.176155090332031 53.50878524780273 3 47.5 3 M 47.5 0 C 73.7335205078125 0 95 21.2664794921875 95 47.5 C 95 73.7335205078125 73.7335205078125 95 47.5 95 C 21.2664794921875 95 0 73.7335205078125 0 47.5 C 0 21.2664794921875 21.2664794921875 0 47.5 0 Z" stroke="none" fill="#f5b104"/>
                        </g>
                      </g>
                    </g>
                  </g>
                </g>
              </g>
            </g>
          </g>
        </g>
      </g>
    </g>
    <g id="annuities_17597990" transform="translate(4558.638 5075.17)">
      <path id="Trazado_1058259" data-name="Trazado 1058259" d="M167.063,68.3h4.394V40.778a.807.807,0,0,0-.806-.806h-2.781a.807.807,0,0,0-.806.806Z" transform="translate(-146.578 -25.109)" fill="#4d6c8f" fill-rule="evenodd"/>
      <path id="Trazado_1058260" data-name="Trazado 1058260" d="M26.551,100.013l-1.964,1.964a.814.814,0,0,0,0,1.144l19.461,19.461L63.51,103.12a.814.814,0,0,0,0-1.144l-1.964-1.964a.808.808,0,0,0-1.144,0L44.049,116.364,27.695,100.013a.808.808,0,0,0-1.144,0Z" transform="translate(-21.367 -77.579)" fill="#d5e3f2" fill-rule="evenodd"/>
      <path id="Trazado_1058261" data-name="Trazado 1058261" d="M50.64,104.259A21.825,21.825,0,1,1,28.815,82.434,21.823,21.823,0,0,1,50.64,104.259Z" transform="translate(-6.133 -62.364)" fill="#69a7ff" fill-rule="evenodd"/>
      <path id="Trazado_1058262" data-name="Trazado 1058262" d="M73.019,130.274A18.189,18.189,0,1,1,54.83,112.085a18.189,18.189,0,0,1,18.189,18.189Z" transform="translate(-32.148 -88.379)" fill="#d5e3f2" fill-rule="evenodd"/>
      <path id="Trazado_1058263" data-name="Trazado 1058263" d="M171.647,248.93a1.865,1.865,0,1,0-1.863-1.863A1.865,1.865,0,0,0,171.647,248.93Z" transform="translate(-148.965 -205.172)" fill="#fb4455" fill-rule="evenodd"/>
      <path id="Trazado_1058264" data-name="Trazado 1058264" d="M144.981,18.343h9.809v3.851h-9.809Z" transform="translate(-127.203 -6.132)" fill="#fea832"/>
      <g id="Grupo_1226652" data-name="Grupo 1226652" transform="translate(0.857 12.211)">
        <path id="Trazado_1058265" data-name="Trazado 1058265" d="M233.977,253.25h28.679a2.433,2.433,0,0,1,2.426,2.426V280.3a2.433,2.433,0,0,1-2.426,2.426H233.977a2.435,2.435,0,0,1-2.426-2.426V255.676A2.435,2.435,0,0,1,233.977,253.25Z" transform="translate(-204.015 -224.445)" fill="#d5e3f2" fill-rule="evenodd"/>
        <path id="Trazado_1058266" data-name="Trazado 1058266" d="M265.083,259.079H231.551v-3.4a2.435,2.435,0,0,1,2.426-2.426h28.679a2.433,2.433,0,0,1,2.426,2.426Z" transform="translate(-204.015 -224.445)" fill="#fb4455" fill-rule="evenodd"/>
        <path id="Trazado_1058267" data-name="Trazado 1058267" d="M434.88,218.866h0a1.623,1.623,0,0,1,1.616,1.62V224.5a1.623,1.623,0,0,1-1.616,1.62h0a1.623,1.623,0,0,1-1.616-1.62v-4.018A1.623,1.623,0,0,1,434.88,218.866Z" transform="translate(-380.994 -194.278)" fill="#fea832" fill-rule="evenodd"/>
        <path id="Trazado_1058268" data-name="Trazado 1058268" d="M278.526,218.866a1.626,1.626,0,0,1,1.62,1.62V224.5a1.62,1.62,0,1,1-3.239,0v-4.018A1.624,1.624,0,0,1,278.526,218.866Z" transform="translate(-243.809 -194.278)" fill="#fea832" fill-rule="evenodd"/>
        <path id="Trazado_1058269" data-name="Trazado 1058269" d="M308.685,345.938a8.332,8.332,0,1,0-8.332-8.332A8.332,8.332,0,0,0,308.685,345.938Z" transform="translate(-264.381 -291.148)" fill="#ffd23b" fill-rule="evenodd"/>
        <path id="Trazado_1058270" data-name="Trazado 1058270" d="M233.445,259.079v-3.4a2.435,2.435,0,0,1,2.412-2.426h-1.881a2.435,2.435,0,0,0-2.426,2.426v3.4Z" transform="translate(-204.015 -224.445)" fill="#e82e41" fill-rule="evenodd"/>
        <path id="Trazado_1058271" data-name="Trazado 1058271" d="M233.445,300.787h-1.894v21.224a2.435,2.435,0,0,0,2.426,2.426h1.894a2.433,2.433,0,0,1-2.426-2.426Z" transform="translate(-204.015 -266.153)" fill="#b7cfe8" fill-rule="evenodd"/>
        <path id="Trazado_1058272" data-name="Trazado 1058272" d="M301.932,337.608a8.492,8.492,0,0,1,.208-1.87,8.358,8.358,0,0,1,3.566-5.106,8.268,8.268,0,0,1,3.761-1.317c-.261-.025-.525-.038-.789-.038a8.325,8.325,0,0,0-8.332,8.175v.156a8.331,8.331,0,0,0,8.333,8.332c.263,0,.528-.014.788-.038a8.331,8.331,0,0,1-7.536-8.293Z" transform="translate(-264.375 -291.149)" fill="#e8bd31" fill-rule="evenodd"/>
        <path id="Trazado_1058273" data-name="Trazado 1058273" d="M8.832,104.26A21.826,21.826,0,0,1,26.618,82.807a22.4,22.4,0,0,1,3.118-.355c-.307-.01-.612-.017-.921-.017-.74,0-1.474.038-2.2.108a21.709,21.709,0,0,0-11.6,4.807,22.059,22.059,0,0,0-3.108,3.108,21.823,21.823,0,0,0,16.907,35.624c.309,0,.615,0,.921-.017a21.824,21.824,0,0,1-20.9-21.8Z" transform="translate(-6.99 -74.576)" fill="#5f96e6" fill-rule="evenodd"/>
        <path id="Trazado_1058274" data-name="Trazado 1058274" d="M25.933,103.09a.809.809,0,0,1,0-1.14l1.849-1.849-.087-.087a.808.808,0,0,0-1.144,0l-1.964,1.964a.814.814,0,0,0,0,1.144l2.555,2.551c.205-.25.417-.5.633-.74Z" transform="translate(-22.224 -89.791)" fill="#b7cfe8" fill-rule="evenodd"/>
        <path id="Trazado_1058275" data-name="Trazado 1058275" d="M300.068,100.013l-2.555,2.551c.236.195.469.389.7.594l2.006-2.006a.808.808,0,0,1,1.144,0l1.887,1.887a.811.811,0,0,0-.07-1.064l-1.964-1.964a.808.808,0,0,0-1.144,0Z" transform="translate(-261.889 -89.79)" fill="#b7cfe8" fill-rule="evenodd"/>
        <path id="Trazado_1058276" data-name="Trazado 1058276" d="M147.856,21.311h-1.967V18.343h-.907v3.851h9.809v-.883h-6.934Z" transform="translate(-128.06 -18.343)" fill="#f09e2b" fill-rule="evenodd"/>
      </g>
      <path id="Trazado_1058277" data-name="Trazado 1058277" d="M23.541,39.31V32.6a.858.858,0,0,0-1.717,0V39.31a2.722,2.722,0,1,0,1.717,0Zm-.858,3.59a1.006,1.006,0,1,1,1-1,1.006,1.006,0,0,1-1,1ZM59.5,40.157H57.221V38.419a2.478,2.478,0,1,0-4.956,0v1.738H45.3a22.513,22.513,0,0,0-4.559-11.995l2.017-2.017a1.673,1.673,0,0,0,0-2.354l-1.964-1.964a1.658,1.658,0,0,0-1.18-.488H39.6a1.646,1.646,0,0,0-1.172.488L36.414,23.84a22.506,22.506,0,0,0-10.676-4.422v-2.5h1.849a.858.858,0,0,0,.858-.858V12.212a.858.858,0,0,0-.858-.858H17.778a.858.858,0,0,0-.858.858v3.851a.858.858,0,0,0,.858.858h1.849v2.5A22.568,22.568,0,0,0,8.959,23.848L6.94,21.831a1.649,1.649,0,0,0-1.177-.492h0a1.658,1.658,0,0,0-1.18.489L2.615,23.791a1.674,1.674,0,0,0,0,2.358L4.636,28.17a22.667,22.667,0,0,0,18.046,36.4,22.833,22.833,0,0,0,4.852-.524v4.017a3.288,3.288,0,0,0,3.285,3.285H59.5a3.288,3.288,0,0,0,3.285-3.285V43.442A3.288,3.288,0,0,0,59.5,40.157Zm-5.516-1.738a.771.771,0,0,1,.761-.761.762.762,0,0,1,.761.761v4.018a.762.762,0,0,1-.761.761.771.771,0,0,1-.761-.761ZM39.607,23.077,41.5,24.97l-1.862,1.861q-.584-.656-1.222-1.273c-.221-.213-.445-.419-.673-.621ZM18.637,15.2V13.071h8.091V15.2Zm5.384,1.717v2.332c-.444-.026-.89-.04-1.338-.04s-.9.015-1.338.04V16.922ZM3.864,24.971l1.893-1.893,1.87,1.868A22.881,22.881,0,0,0,5.733,26.84ZM22.682,62.857A20.964,20.964,0,1,1,35.8,25.511a.83.83,0,0,0,.3.245,20.919,20.919,0,0,1,2.71,2.709.859.859,0,0,0,.167.238.876.876,0,0,0,.089.076,20.862,20.862,0,0,1,4.5,11.377H41.65A19.038,19.038,0,1,0,27.535,60.316v1.977a21.108,21.108,0,0,1-4.852.565ZM35.574,35.941A2.481,2.481,0,0,0,33.1,38.419v1.738H30.819a3.288,3.288,0,0,0-3.285,3.285V58.534a17.271,17.271,0,0,1-3.948.665V57.5a.858.858,0,1,0-1.717,0v1.708a17.209,17.209,0,0,1-7.063-1.876l.861-1.492a.858.858,0,1,0-1.487-.858l-.861,1.493a17.468,17.468,0,0,1-5.181-5.164l1.5-.866a.859.859,0,0,0-.858-1.487l-1.506.869a17.206,17.206,0,0,1-1.9-7.07H7.125a.858.858,0,1,0,0-1.717H5.374a17.2,17.2,0,0,1,1.9-7.072l1.5.871a.859.859,0,1,0,.86-1.486l-1.5-.868a17.47,17.47,0,0,1,5.181-5.163l.86,1.49a.858.858,0,0,0,1.487-.858l-.86-1.489a17.208,17.208,0,0,1,7.061-1.875v1.7a.858.858,0,1,0,1.717,0v-1.7a17.276,17.276,0,0,1,7.046,1.9l-.845,1.463a.858.858,0,0,0,1.487.858l.844-1.461a17.349,17.349,0,0,1,5.147,5.163l-1.453.839a.858.858,0,1,0,.858,1.487L38.12,34a17.249,17.249,0,0,1,1.805,6.159H38.049V38.419a2.479,2.479,0,0,0-2.475-2.478Zm.758,2.478v4.018a.759.759,0,1,1-1.519,0V38.419a.759.759,0,1,1,1.519,0ZM61.065,68.067A1.57,1.57,0,0,1,59.5,69.635H30.819a1.57,1.57,0,0,1-1.568-1.567V47.7H61.065Zm0-22.081H29.252V43.442a1.57,1.57,0,0,1,1.568-1.568H33.1v.563a2.477,2.477,0,1,0,4.953,0v-.563H52.264v.563a2.478,2.478,0,1,0,4.956,0v-.563H59.5a1.57,1.57,0,0,1,1.568,1.568ZM45.156,67.859A9.19,9.19,0,1,0,35.97,58.67a9.19,9.19,0,0,0,9.186,9.189Zm0-16.663a7.473,7.473,0,1,1-7.469,7.472A7.473,7.473,0,0,1,45.156,51.2ZM44.3,59.45v2.565a1.825,1.825,0,0,1-1.143-.832.859.859,0,0,0-1.545.75A3.62,3.62,0,0,0,44.3,63.776v.75a.858.858,0,0,0,1.717,0v-.748a2.946,2.946,0,1,0,0-5.893V55.322a1.827,1.827,0,0,1,1.146.833.859.859,0,0,0,1.545-.75,3.622,3.622,0,0,0-2.691-1.844v-.75a.858.858,0,0,0-1.717,0v.749a3.225,3.225,0,0,0-2.944,2.946A3.271,3.271,0,0,0,44.3,59.45Zm1.717.2c.712.213,1.23.673,1.23,1.179,0,.46-.477.959-1.23,1.183ZM44.3,55.328v2.361c-.751-.224-1.226-.723-1.226-1.182,0-.506.516-.966,1.226-1.179Z" transform="translate(0 0)"/>
    </g>
  </g>
</svg>
