<svg xmlns="http://www.w3.org/2000/svg" xmlns:xlink="http://www.w3.org/1999/xlink" width="113" height="113" viewBox="0 0 113 113">
  <defs>
    <filter id="Trazado_982547" x="0" y="0" width="113" height="113" filterUnits="userSpaceOnUse">
      <feOffset dy="3" input="SourceAlpha"/>
      <feGaussianBlur stdDeviation="3" result="blur"/>
      <feFlood flood-opacity="0.161"/>
      <feComposite operator="in" in2="blur"/>
      <feComposite in="SourceGraphic"/>
    </filter>
  </defs>
  <g id="Grupo_1226626" data-name="Grupo 1226626" transform="translate(9 6)">
    <g id="Grupo_1226374" data-name="Grupo 1226374" transform="translate(0)">
      <g id="Grupo_1211217" data-name="Grupo 1211217">
        <g id="Grupo_1210736" data-name="Grupo 1210736">
          <g id="Grupo_1210537" data-name="Grupo 1210537">
            <g id="Grupo_1164202" data-name="Grupo 1164202">
              <g id="Grupo_1158168" data-name="Grupo 1158168">
                <g id="Grupo_1152576" data-name="Grupo 1152576">
                  <g id="Grupo_1148633" data-name="Grupo 1148633">
                    <g id="Grupo_1148525" data-name="Grupo 1148525">
                      <g transform="matrix(1, 0, 0, 1, -9, -6)" filter="url(#Trazado_982547)">
                        <g id="Trazado_982547-2" data-name="Trazado 982547" transform="translate(9 6)" fill="#fdf6e4">
                          <path d="M 47.49999618530273 93.5 C 41.28936767578125 93.5 35.26533126831055 92.28396606445312 29.59518241882324 89.88570404052734 C 24.11771583557129 87.56893157958984 19.19812965393066 84.251953125 14.97308921813965 80.02690124511719 C 10.74803638458252 75.80186462402344 7.431062698364258 70.88227844238281 5.114289283752441 65.40480804443359 C 2.716022968292236 59.73466110229492 1.499996185302734 53.71062469482422 1.499996185302734 47.49999618530273 C 1.499996185302734 41.28936767578125 2.716022968292236 35.26533126831055 5.114289283752441 29.59518241882324 C 7.431062698364258 24.11771583557129 10.74803638458252 19.19812965393066 14.97308921813965 14.97308921813965 C 19.19812965393066 10.74803638458252 24.11771583557129 7.431062698364258 29.59518241882324 5.114289283752441 C 35.26533126831055 2.716022968292236 41.28936767578125 1.499996185302734 47.49999618530273 1.499996185302734 C 53.71062469482422 1.499996185302734 59.73466110229492 2.716022968292236 65.40480804443359 5.114289283752441 C 70.88227844238281 7.431062698364258 75.80186462402344 10.74803638458252 80.02690124511719 14.97308921813965 C 84.251953125 19.19812965393066 87.56893157958984 24.11771583557129 89.88570404052734 29.59518241882324 C 92.28396606445312 35.26533126831055 93.5 41.28936767578125 93.5 47.49999618530273 C 93.5 53.71062469482422 92.28396606445312 59.73466110229492 89.88570404052734 65.40480804443359 C 87.56893157958984 70.88227844238281 84.251953125 75.80186462402344 80.02690124511719 80.02690124511719 C 75.80186462402344 84.251953125 70.88227844238281 87.56893157958984 65.40480804443359 89.88570404052734 C 59.73466110229492 92.28396606445312 53.71062469482422 93.5 47.49999618530273 93.5 Z" stroke="none"/>
                          <path d="M 47.49999618530273 2.999992370605469 C 41.4912109375 2.999992370605469 35.66376495361328 4.1761474609375 30.17950439453125 6.495796203613281 C 24.88084411621094 8.736953735351562 20.12152099609375 11.94598388671875 16.03375244140625 16.03375244140625 C 11.94598388671875 20.12152099609375 8.736953735351562 24.88084411621094 6.495796203613281 30.17950439453125 C 4.1761474609375 35.66376495361328 2.999992370605469 41.4912109375 2.999992370605469 47.49999618530273 C 2.999992370605469 53.50878143310547 4.1761474609375 59.33622741699219 6.495796203613281 64.82048797607422 C 8.736953735351562 70.11914825439453 11.94598388671875 74.87847137451172 16.03375244140625 78.96623992919922 C 20.12152099609375 83.05400848388672 24.88084411621094 86.26304626464844 30.17950439453125 88.50419616699219 C 35.66376495361328 90.82384490966797 41.4912109375 92 47.49999618530273 92 C 53.50878143310547 92 59.33622741699219 90.82384490966797 64.82048797607422 88.50419616699219 C 70.11914825439453 86.26304626464844 74.87847137451172 83.05400848388672 78.96623992919922 78.96623992919922 C 83.05400848388672 74.87847137451172 86.26304626464844 70.11914825439453 88.50419616699219 64.82048797607422 C 90.82384490966797 59.33622741699219 92 53.50878143310547 92 47.49999618530273 C 92 41.4912109375 90.82384490966797 35.66376495361328 88.50419616699219 30.17950439453125 C 86.26304626464844 24.88084411621094 83.05400848388672 20.12152099609375 78.96623992919922 16.03375244140625 C 74.87847137451172 11.94598388671875 70.11914825439453 8.736953735351562 64.82048797607422 6.495796203613281 C 59.33622741699219 4.1761474609375 53.50878143310547 2.999992370605469 47.49999618530273 2.999992370605469 M 47.49999618530273 -7.62939453125e-06 C 73.7335205078125 -7.62939453125e-06 95 21.26647186279297 95 47.49999618530273 C 95 73.7335205078125 73.7335205078125 95 47.49999618530273 95 C 21.26647186279297 95 -7.62939453125e-06 73.7335205078125 -7.62939453125e-06 47.49999618530273 C -7.62939453125e-06 21.26647186279297 21.26647186279297 -7.62939453125e-06 47.49999618530273 -7.62939453125e-06 Z" stroke="none" fill="#f5b104"/>
                        </g>
                      </g>
                    </g>
                  </g>
                </g>
              </g>
            </g>
          </g>
        </g>
      </g>
    </g>
    <g id="internet_4_" data-name="internet (4)" transform="translate(18.642 18.635)">
      <g id="Grupo_1226624" data-name="Grupo 1226624" transform="translate(0.845 0.845)">
        <g id="Grupo_1226589" data-name="Grupo 1226589" transform="translate(10.055 10.041)">
          <g id="Grupo_1226588" data-name="Grupo 1226588">
            <ellipse id="Elipse_13511" data-name="Elipse 13511" cx="17.952" cy="17.956" rx="17.952" ry="17.956" fill="#71d8fd"/>
          </g>
        </g>
        <g id="Grupo_1226591" data-name="Grupo 1226591" transform="translate(25.807 10.041)">
          <g id="Grupo_1226590" data-name="Grupo 1226590">
            <path id="Trazado_1058058" data-name="Trazado 1058058" d="M238.691,96.576a18.12,18.12,0,0,0-2.2.134,17.958,17.958,0,0,1,0,35.644,17.956,17.956,0,1,0,2.2-35.778Z" transform="translate(-236.491 -96.576)" fill="#60c3f7"/>
          </g>
        </g>
        <g id="Grupo_1226593" data-name="Grupo 1226593" transform="translate(0 0.183)">
          <g id="Grupo_1226592" data-name="Grupo 1226592">
            <ellipse id="Elipse_13512" data-name="Elipse 13512" cx="3.36" cy="3.36" rx="3.36" ry="3.36" fill="#ffcd74"/>
          </g>
        </g>
        <g id="Grupo_1226595" data-name="Grupo 1226595" transform="translate(49.307 0.183)">
          <g id="Grupo_1226594" data-name="Grupo 1226594" transform="translate(0)">
            <ellipse id="Elipse_13513" data-name="Elipse 13513" cx="3.36" cy="3.36" rx="3.36" ry="3.36" fill="#ffcd74"/>
          </g>
        </g>
        <g id="Grupo_1226597" data-name="Grupo 1226597" transform="translate(0 49.247)">
          <g id="Grupo_1226596" data-name="Grupo 1226596">
            <ellipse id="Elipse_13514" data-name="Elipse 13514" cx="3.36" cy="3.36" rx="3.36" ry="3.36" fill="#ffcd74"/>
          </g>
        </g>
        <g id="Grupo_1226599" data-name="Grupo 1226599" transform="translate(0 24.659)">
          <g id="Grupo_1226598" data-name="Grupo 1226598">
            <ellipse id="Elipse_13515" data-name="Elipse 13515" cx="3.36" cy="3.36" rx="3.36" ry="3.36" fill="#b4e173"/>
          </g>
        </g>
        <g id="Grupo_1226601" data-name="Grupo 1226601" transform="translate(49.307 24.659)">
          <g id="Grupo_1226600" data-name="Grupo 1226600" transform="translate(0)">
            <ellipse id="Elipse_13516" data-name="Elipse 13516" cx="3.36" cy="3.36" rx="3.36" ry="3.36" fill="#b4e173"/>
          </g>
        </g>
        <g id="Grupo_1226603" data-name="Grupo 1226603" transform="translate(24.648)">
          <g id="Grupo_1226602" data-name="Grupo 1226602" transform="translate(0)">
            <ellipse id="Elipse_13517" data-name="Elipse 13517" cx="3.36" cy="3.36" rx="3.36" ry="3.36" fill="#b4e173"/>
          </g>
        </g>
        <g id="Grupo_1226605" data-name="Grupo 1226605" transform="translate(24.648 49.318)">
          <g id="Grupo_1226604" data-name="Grupo 1226604" transform="translate(0)">
            <ellipse id="Elipse_13518" data-name="Elipse 13518" cx="3.36" cy="3.36" rx="3.36" ry="3.36" fill="#b4e173"/>
          </g>
        </g>
        <g id="Grupo_1226607" data-name="Grupo 1226607" transform="translate(49.307 49.247)">
          <g id="Grupo_1226606" data-name="Grupo 1226606" transform="translate(0)">
            <ellipse id="Elipse_13519" data-name="Elipse 13519" cx="3.36" cy="3.36" rx="3.36" ry="3.36" fill="#ffcd74"/>
          </g>
        </g>
        <g id="Grupo_1226609" data-name="Grupo 1226609" transform="translate(2.28 0.183)">
          <g id="Grupo_1226608" data-name="Grupo 1226608">
            <path id="Trazado_1058059" data-name="Trazado 1058059" d="M32.223,12.484a3.36,3.36,0,0,1-4.44,3.182,3.359,3.359,0,0,0,0-6.363,3.359,3.359,0,0,1,4.44,3.181Z" transform="translate(-27.783 -9.124)" fill="#ff9650"/>
          </g>
        </g>
        <g id="Grupo_1226611" data-name="Grupo 1226611" transform="translate(51.587 0.183)">
          <g id="Grupo_1226610" data-name="Grupo 1226610" transform="translate(0)">
            <path id="Trazado_1058060" data-name="Trazado 1058060" d="M469.62,12.484a3.359,3.359,0,0,1-4.438,3.182,3.36,3.36,0,0,0,0-6.363,3.358,3.358,0,0,1,4.438,3.181Z" transform="translate(-465.182 -9.124)" fill="#ff9650"/>
          </g>
        </g>
        <g id="Grupo_1226613" data-name="Grupo 1226613" transform="translate(2.28 49.247)">
          <g id="Grupo_1226612" data-name="Grupo 1226612">
            <path id="Trazado_1058061" data-name="Trazado 1058061" d="M32.223,447.728a3.36,3.36,0,0,1-4.44,3.182,3.359,3.359,0,0,0,0-6.363,3.36,3.36,0,0,1,4.44,3.181Z" transform="translate(-27.783 -444.368)" fill="#ff9650"/>
          </g>
        </g>
        <g id="Grupo_1226615" data-name="Grupo 1226615" transform="translate(2.28 24.659)">
          <g id="Grupo_1226614" data-name="Grupo 1226614">
            <path id="Trazado_1058062" data-name="Trazado 1058062" d="M32.223,229.612a3.36,3.36,0,0,1-3.36,3.36,3.326,3.326,0,0,1-1.079-.178,3.359,3.359,0,0,0,0-6.363,3.36,3.36,0,0,1,4.44,3.182Z" transform="translate(-27.783 -226.252)" fill="#87b45f"/>
          </g>
        </g>
        <g id="Grupo_1226617" data-name="Grupo 1226617" transform="translate(51.587 24.659)">
          <g id="Grupo_1226616" data-name="Grupo 1226616" transform="translate(0)">
            <path id="Trazado_1058063" data-name="Trazado 1058063" d="M469.62,229.612a3.36,3.36,0,0,1-3.359,3.36,3.326,3.326,0,0,1-1.079-.178,3.36,3.36,0,0,0,0-6.363,3.359,3.359,0,0,1,4.438,3.182Z" transform="translate(-465.182 -226.252)" fill="#87b45f"/>
          </g>
        </g>
        <g id="Grupo_1226619" data-name="Grupo 1226619" transform="translate(26.928 0)">
          <g id="Grupo_1226618" data-name="Grupo 1226618" transform="translate(0)">
            <path id="Trazado_1058064" data-name="Trazado 1058064" d="M250.87,10.861a3.36,3.36,0,0,1-3.359,3.361,3.326,3.326,0,0,1-1.079-.178,3.361,3.361,0,0,0,0-6.364,3.359,3.359,0,0,1,4.438,3.182Z" transform="translate(-246.432 -7.501)" fill="#87b45f"/>
          </g>
        </g>
        <g id="Grupo_1226621" data-name="Grupo 1226621" transform="translate(26.928 49.319)">
          <g id="Grupo_1226620" data-name="Grupo 1226620" transform="translate(0)">
            <path id="Trazado_1058065" data-name="Trazado 1058065" d="M250.87,448.362a3.36,3.36,0,0,1-3.359,3.36,3.325,3.325,0,0,1-1.079-.178,3.36,3.36,0,0,0,0-6.363,3.359,3.359,0,0,1,4.438,3.182Z" transform="translate(-246.432 -445.002)" fill="#87b45f"/>
          </g>
        </g>
        <g id="Grupo_1226623" data-name="Grupo 1226623" transform="translate(51.587 49.247)">
          <g id="Grupo_1226622" data-name="Grupo 1226622" transform="translate(0)">
            <path id="Trazado_1058066" data-name="Trazado 1058066" d="M469.62,447.728a3.359,3.359,0,0,1-4.438,3.182,3.36,3.36,0,0,0,0-6.363,3.359,3.359,0,0,1,4.438,3.181Z" transform="translate(-465.182 -444.368)" fill="#ff9650"/>
          </g>
        </g>
      </g>
      <g id="Grupo_1226625" data-name="Grupo 1226625">
        <path id="Trazado_1058067" data-name="Trazado 1058067" d="M247.938,285.352a.909.909,0,1,0,.908.909A.91.91,0,0,0,247.938,285.352Z" transform="translate(-219.189 -253.185)"/>
        <path id="Trazado_1058068" data-name="Trazado 1058068" d="M231.645,258.7a3.952,3.952,0,0,0-2.791,1.146.845.845,0,0,0,1.187,1.2,2.279,2.279,0,0,1,3.256.051.846.846,0,1,0,1.226-1.165A3.988,3.988,0,0,0,231.645,258.7Z" transform="translate(-202.839 -229.535)"/>
        <path id="Trazado_1058069" data-name="Trazado 1058069" d="M219.714,233.608a7.034,7.034,0,0,0-9.988-.093.845.845,0,1,0,1.19,1.2,5.343,5.343,0,0,1,7.586.071.845.845,0,0,0,1.212-1.179Z" transform="translate(-185.868 -205.387)"/>
        <path id="Trazado_1058070" data-name="Trazado 1058070" d="M203.151,207.5a.845.845,0,0,0,1.207-1.185,10.215,10.215,0,0,0-14.471-.1.845.845,0,0,0,1.188,1.2,8.524,8.524,0,0,1,12.076.085Z" transform="translate(-168.265 -180.345)"/>
        <path id="Trazado_1058071" data-name="Trazado 1058071" d="M4.263,227.161a4.206,4.206,0,1,0-4.2-4.206A4.21,4.21,0,0,0,4.263,227.161Zm0-6.721a2.515,2.515,0,1,1-2.514,2.515A2.517,2.517,0,0,1,4.263,220.441Z" transform="translate(-0.058 -194.091)"/>
        <path id="Trazado_1058072" data-name="Trazado 1058072" d="M441.659,218.75a4.206,4.206,0,1,0,4.2,4.206A4.21,4.21,0,0,0,441.659,218.75Zm0,6.721a2.515,2.515,0,1,1,2.514-2.515A2.517,2.517,0,0,1,441.659,225.471Z" transform="translate(-388.147 -194.091)"/>
        <path id="Trazado_1058073" data-name="Trazado 1058073" d="M222.909,8.412a4.206,4.206,0,1,0-4.2-4.206A4.21,4.21,0,0,0,222.909,8.412Zm0-6.721a2.515,2.515,0,1,1-2.514,2.515A2.517,2.517,0,0,1,222.909,1.691Z" transform="translate(-194.056)"/>
        <path id="Trazado_1058074" data-name="Trazado 1058074" d="M222.909,437.5a4.206,4.206,0,1,0,4.2,4.206A4.21,4.21,0,0,0,222.909,437.5Zm0,6.72a2.515,2.515,0,1,1,2.514-2.515A2.517,2.517,0,0,1,222.909,444.219Z" transform="translate(-194.056 -388.181)"/>
        <path id="Trazado_1058075" data-name="Trazado 1058075" d="M53.57,50.684a4.179,4.179,0,0,0-2.161.6l-8.42-8.56a18.766,18.766,0,0,0,.02-24.864l8.332-8.47a4.213,4.213,0,1,0-1.224-1.167l-8.281,8.419a18.789,18.789,0,0,0-20.78-3.448.845.845,0,1,0,.707,1.536,17.078,17.078,0,0,1,1.969-.762,14.369,14.369,0,0,0-2.253,3.222,22.572,22.572,0,0,0-1.687,4.276,22.63,22.63,0,0,0-3.962,1.554,14.262,14.262,0,0,0-3.286,2.256,17.051,17.051,0,0,1,1.121-2.765,17.27,17.27,0,0,1,4.977-5.916.845.845,0,1,0-1.016-1.351,18.778,18.778,0,0,0-1.644,1.391L7.713,8.225A4.209,4.209,0,1,0,6.489,9.391l8.321,8.46a18.879,18.879,0,0,0-2.651,3.889,18.795,18.795,0,0,0,2.676,20.987L6.421,51.282a4.217,4.217,0,1,0,1.247,1.144l8.344-8.483A18.727,18.727,0,0,0,28.9,49.082h.023A18.727,18.727,0,0,0,41.814,43.94l8.35,8.489a4.2,4.2,0,1,0,3.406-1.744ZM1.749,5.826A2.514,2.514,0,1,1,4.263,8.341,2.517,2.517,0,0,1,1.749,5.826ZM33.517,39.191a.846.846,0,0,0,.97.7q.832-.135,1.624-.309a20.044,20.044,0,0,1-1.265,3c-1.421,2.7-3.2,4.343-5.09,4.722V40.32c.478-.011.956-.031,1.427-.06a.846.846,0,1,0-.107-1.688c-.713.045-1.442.068-2.165.068a31.733,31.733,0,0,1-7.738-.919,32.323,32.323,0,0,1,0-14.881,31.733,31.733,0,0,1,7.738-.919,31.732,31.732,0,0,1,7.738.919,32.323,32.323,0,0,1,0,14.877q-1.166.3-2.434.5A.846.846,0,0,0,33.517,39.191Zm-20.963-3.9a14.273,14.273,0,0,0,3.277,2.247A22.629,22.629,0,0,0,19.792,39.1a22.568,22.568,0,0,0,1.687,4.276,14.38,14.38,0,0,0,2.247,3.216A17.185,17.185,0,0,1,12.554,35.294Zm6.071-4.169a33.026,33.026,0,0,0,.69,6.047A20.072,20.072,0,0,1,16.6,36.037c-2.681-1.375-4.318-3.094-4.707-4.911h6.729Zm3.086,8.457a33.645,33.645,0,0,0,6.354.738v6.985c-1.886-.38-3.668-2.023-5.089-4.722A20.061,20.061,0,0,1,21.711,39.583ZM34.845,17.977a20.054,20.054,0,0,1,1.265,3,33.641,33.641,0,0,0-6.354-.738V13.255C31.642,13.634,33.424,15.277,34.845,17.977ZM39.2,29.435a33.026,33.026,0,0,0-.69-6.047,20.079,20.079,0,0,1,2.712,1.136c2.681,1.375,4.318,3.094,4.707,4.911Zm0,1.691h6.728c-.53,2.433-3.315,4.657-7.418,6.044A33.034,33.034,0,0,0,39.2,31.126ZM53.57,3.311a2.515,2.515,0,1,1-2.514,2.515A2.517,2.517,0,0,1,53.57,3.311Zm-8.3,21.955a14.274,14.274,0,0,0-3.277-2.247,22.628,22.628,0,0,0-3.962-1.554,22.572,22.572,0,0,0-1.687-4.276,14.383,14.383,0,0,0-2.247-3.216A17.185,17.185,0,0,1,45.267,25.266ZM22.976,17.977c1.421-2.7,3.2-4.343,5.089-4.722V20.24a33.646,33.646,0,0,0-6.354.738A20.033,20.033,0,0,1,22.976,17.977ZM16.6,24.524a20.084,20.084,0,0,1,2.712-1.136,33.026,33.026,0,0,0-.69,6.047H11.9C12.284,27.617,13.921,25.9,16.6,24.524ZM4.263,57.4A2.515,2.515,0,1,1,6.777,54.89,2.517,2.517,0,0,1,4.263,57.4ZM34.095,46.587a14.375,14.375,0,0,0,2.247-3.216,22.572,22.572,0,0,0,1.687-4.277,17.827,17.827,0,0,0,7.244-3.821A17.184,17.184,0,0,1,34.095,46.587ZM53.57,57.4a2.515,2.515,0,1,1,2.514-2.515A2.517,2.517,0,0,1,53.57,57.4Z" transform="translate(-0.058 -1.437)"/>
      </g>
    </g>
  </g>
</svg>
