<svg xmlns="http://www.w3.org/2000/svg" xmlns:xlink="http://www.w3.org/1999/xlink" width="113" height="113" viewBox="0 0 113 113">
  <defs>
    <filter id="Trazado_982547" x="0" y="0" width="113" height="113" filterUnits="userSpaceOnUse">
      <feOffset dy="3" input="SourceAlpha"/>
      <feGaussianBlur stdDeviation="3" result="blur"/>
      <feFlood flood-opacity="0.161"/>
      <feComposite operator="in" in2="blur"/>
      <feComposite in="SourceGraphic"/>
    </filter>
  </defs>
  <g id="Grupo_1226654" data-name="Grupo 1226654" transform="translate(-813.166 -7061.111)">
    <g id="Grupo_1226500" data-name="Grupo 1226500" transform="translate(822.166 7067.111)">
      <g id="Grupo_1211208" data-name="Grupo 1211208" transform="translate(0)">
        <g id="Grupo_1210736" data-name="Grupo 1210736">
          <g id="Grupo_1210537" data-name="Grupo 1210537">
            <g id="Grupo_1164202" data-name="Grupo 1164202">
              <g id="Grupo_1158168" data-name="Grupo 1158168">
                <g id="Grupo_1152576" data-name="Grupo 1152576">
                  <g id="Grupo_1148633" data-name="Grupo 1148633">
                    <g id="Grupo_1148525" data-name="Grupo 1148525">
                      <g transform="matrix(1, 0, 0, 1, -9, -6)" filter="url(#Trazado_982547)">
                        <g id="Trazado_982547-2" data-name="Trazado 982547" transform="translate(9 6)" fill="#fdf6e4">
                          <path d="M 47.5 93.5 C 41.28937149047852 93.5 35.26533508300781 92.28397369384766 29.59518623352051 89.88570404052734 C 24.11771965026855 87.56893157958984 19.19813346862793 84.25196075439453 14.97309303283691 80.02691650390625 C 10.74804019927979 75.80186462402344 7.431066513061523 70.88229370117188 5.114293098449707 65.40481567382812 C 2.716026782989502 59.73468017578125 1.5 53.71062850952148 1.5 47.5 C 1.5 41.28937149047852 2.716026782989502 35.26533508300781 5.114293098449707 29.59518623352051 C 7.431066513061523 24.11771965026855 10.74804019927979 19.19813346862793 14.97309303283691 14.97309303283691 C 19.19813346862793 10.74804019927979 24.11771965026855 7.431066513061523 29.59518623352051 5.114293098449707 C 35.26533508300781 2.716026782989502 41.28937149047852 1.5 47.5 1.5 C 53.71062850952148 1.5 59.73468017578125 2.716026782989502 65.40481567382812 5.114293098449707 C 70.88229370117188 7.431066513061523 75.80186462402344 10.74804019927979 80.02691650390625 14.97309303283691 C 84.25196075439453 19.19813346862793 87.56893157958984 24.11771965026855 89.88570404052734 29.59518623352051 C 92.28397369384766 35.26533508300781 93.5 41.28937149047852 93.5 47.5 C 93.5 53.71062850952148 92.28397369384766 59.73468017578125 89.88570404052734 65.40481567382812 C 87.56893157958984 70.88229370117188 84.25196075439453 75.80186462402344 80.02691650390625 80.02691650390625 C 75.80186462402344 84.25196075439453 70.88229370117188 87.56893157958984 65.40481567382812 89.88570404052734 C 59.73468017578125 92.28397369384766 53.71062850952148 93.5 47.5 93.5 Z" stroke="none"/>
                          <path d="M 47.5 3 C 41.49121475219727 3 35.66376876831055 4.176155090332031 30.17950439453125 6.495796203613281 C 24.88084411621094 8.736953735351562 20.12152099609375 11.94598388671875 16.03375244140625 16.03375244140625 C 11.94598388671875 20.12152099609375 8.736953735351562 24.88084411621094 6.495796203613281 30.17950439453125 C 4.176155090332031 35.66376876831055 3 41.49121475219727 3 47.5 C 3 53.50878524780273 4.176155090332031 59.33623123168945 6.495796203613281 64.82049560546875 C 8.736953735351562 70.11915588378906 11.94598388671875 74.87847900390625 16.03375244140625 78.96624755859375 C 20.12152099609375 83.05401611328125 24.88084411621094 86.26304626464844 30.17950439453125 88.50419616699219 C 35.66376876831055 90.82384490966797 41.49121475219727 92 47.5 92 C 53.50878524780273 92 59.33623123168945 90.82384490966797 64.82049560546875 88.50419616699219 C 70.11915588378906 86.26304626464844 74.87847900390625 83.05401611328125 78.96624755859375 78.96624755859375 C 83.05401611328125 74.87847900390625 86.26304626464844 70.11915588378906 88.50419616699219 64.82049560546875 C 90.82384490966797 59.33623123168945 92 53.50878524780273 92 47.5 C 92 41.49121475219727 90.82384490966797 35.66376876831055 88.50419616699219 30.17950439453125 C 86.26304626464844 24.88084411621094 83.05401611328125 20.12152099609375 78.96624755859375 16.03375244140625 C 74.87847900390625 11.94598388671875 70.11915588378906 8.736953735351562 64.82049560546875 6.495796203613281 C 59.33623123168945 4.176155090332031 53.50878524780273 3 47.5 3 M 47.5 0 C 73.7335205078125 0 95 21.2664794921875 95 47.5 C 95 73.7335205078125 73.7335205078125 95 47.5 95 C 21.2664794921875 95 0 73.7335205078125 0 47.5 C 0 21.2664794921875 21.2664794921875 0 47.5 0 Z" stroke="none" fill="#f5b104"/>
                        </g>
                      </g>
                    </g>
                  </g>
                </g>
              </g>
            </g>
          </g>
        </g>
      </g>
    </g>
    <g id="almacenamiento-en-la-nube_1_" data-name="almacenamiento-en-la-nube (1)" transform="translate(837.175 7081.721)">
      <path id="Trazado_1058278" data-name="Trazado 1058278" d="M36.276,54.995l1.031,5.153H27.01l1.031-5.153Z" transform="translate(0.829 1.595)" fill="#545c66"/>
      <path id="Trazado_1058279" data-name="Trazado 1058279" d="M46.859,43.312v8.235H18.01V35.066a2.067,2.067,0,0,1,2.061-2.061H44.8a2.067,2.067,0,0,1,2.061,2.061Z" transform="translate(0.553 0.92)" fill="#5d9cec"/>
      <path id="Trazado_1058280" data-name="Trazado 1058280" d="M46.859,50.995v2.061A2.067,2.067,0,0,1,44.8,55.118H20.071a2.067,2.067,0,0,1-2.061-2.061V50.995H46.859Z" transform="translate(0.553 1.472)" fill="#656d78"/>
      <path id="Trazado_1058281" data-name="Trazado 1058281" d="M50.73,15.353A14.426,14.426,0,0,1,50.473,44.2H47.381V35.956a2.067,2.067,0,0,0-2.061-2.061H20.593a2.067,2.067,0,0,0-2.061,2.061V44.2H12.337a11.337,11.337,0,0,1,0-22.675h1.144A19.588,19.588,0,0,1,50.73,15.353Z" transform="translate(0.031 0.031)" fill="#e6e9ed"/>
      <path id="Trazado_1058282" data-name="Trazado 1058282" d="M12.368,44.741a12.368,12.368,0,0,1,0-24.736,1.031,1.031,0,0,1,0,2.061,10.307,10.307,0,0,0,0,20.614,1.031,1.031,0,0,1,0,2.061Z" transform="translate(0 0.522)"/>
      <path id="Trazado_1058283" data-name="Trazado 1058283" d="M49.031,44.925a1.031,1.031,0,1,1,0-2.061,13.393,13.393,0,0,0,.212-26.785,1.031,1.031,0,0,1-1.014-1.047,1.018,1.018,0,0,1,1.047-1.014,15.455,15.455,0,0,1-.245,30.908Z" transform="translate(1.473 0.338)"/>
      <path id="Trazado_1058284" data-name="Trazado 1058284" d="M18.214,44.066H12.031a1.031,1.031,0,1,1,0-2.061h6.183a1.031,1.031,0,1,1,0,2.061Z" transform="translate(0.337 1.197)"/>
      <path id="Trazado_1058285" data-name="Trazado 1058285" d="M49.123,44.066H46.032a1.031,1.031,0,0,1,0-2.061h3.091a1.031,1.031,0,0,1,0,2.061Z" transform="translate(1.381 1.197)"/>
      <path id="Trazado_1058286" data-name="Trazado 1058286" d="M52.2,24.649a1.03,1.03,0,0,1-1.031-1.031,18.552,18.552,0,0,0-37.1,0,1.031,1.031,0,0,1-2.061,0,20.614,20.614,0,1,1,41.227,0A1.03,1.03,0,0,1,52.2,24.649Z" transform="translate(0.368)"/>
      <path id="Trazado_1058287" data-name="Trazado 1058287" d="M13.169,22.066H12.031a1.031,1.031,0,1,1,0-2.061h1.138a1.031,1.031,0,0,1,0,2.061Z" transform="translate(0.337 0.522)"/>
      <path id="Trazado_1058288" data-name="Trazado 1058288" d="M36.032,29.37A1.03,1.03,0,0,1,35,28.34V18.031a1.031,1.031,0,1,1,2.061,0V28.34a1.03,1.03,0,0,1-1.031,1.031Z" transform="translate(1.074 0.429)"/>
      <path id="Trazado_1058289" data-name="Trazado 1058289" d="M38.093,21.123a1.028,1.028,0,0,1-.729-.3L35.3,18.759A1.031,1.031,0,1,1,36.76,17.3l2.061,2.061a1.031,1.031,0,0,1-.729,1.759Z" transform="translate(1.074 0.429)"/>
      <path id="Trazado_1058290" data-name="Trazado 1058290" d="M34.032,21.123a1.031,1.031,0,0,1-.729-1.759L35.364,17.3a1.031,1.031,0,0,1,1.457,1.457L34.76,20.821A1.028,1.028,0,0,1,34.032,21.123Z" transform="translate(1.013 0.429)"/>
      <path id="Trazado_1058291" data-name="Trazado 1058291" d="M28.029,29.37A1.03,1.03,0,0,1,27,28.34V18.031a1.031,1.031,0,0,1,2.061,0V28.34a1.03,1.03,0,0,1-1.031,1.031Z" transform="translate(0.828 0.429)"/>
      <path id="Trazado_1058292" data-name="Trazado 1058292" d="M28.09,29.125a1.028,1.028,0,0,1-.729-.3L25.3,26.761A1.031,1.031,0,0,1,26.757,25.3l2.061,2.061a1.031,1.031,0,0,1-.729,1.759Z" transform="translate(0.767 0.675)"/>
      <path id="Trazado_1058293" data-name="Trazado 1058293" d="M28.029,29.125a1.031,1.031,0,0,1-.729-1.759L29.361,25.3a1.031,1.031,0,1,1,1.457,1.457l-2.061,2.061a1.028,1.028,0,0,1-.729.3Z" transform="translate(0.828 0.675)"/>
      <path id="Trazado_1058294" data-name="Trazado 1058294" d="M32.061,54.056a1.031,1.031,0,0,1-.011-2.061h.011a1.031,1.031,0,1,1,0,2.061Z" transform="translate(0.952 1.503)"/>
      <path id="Trazado_1058295" data-name="Trazado 1058295" d="M46.88,52.056H18.086a1.031,1.031,0,1,1,0-2.061h28.8a1.031,1.031,0,1,1,0,2.061Z" transform="translate(0.523 1.442)"/>
      <path id="Trazado_1058296" data-name="Trazado 1058296" d="M44.82,56.731H20.1a3.1,3.1,0,0,1-3.092-3.092V35.1A3.1,3.1,0,0,1,20.1,32.007H44.82A3.1,3.1,0,0,1,47.912,35.1v18.54a3.1,3.1,0,0,1-3.092,3.092ZM20.1,34.068A1.031,1.031,0,0,0,19.069,35.1v18.54A1.031,1.031,0,0,0,20.1,54.67H44.82a1.031,1.031,0,0,0,1.031-1.031V35.1a1.031,1.031,0,0,0-1.031-1.031Z" transform="translate(0.522 0.89)"/>
      <path id="Trazado_1058297" data-name="Trazado 1058297" d="M27.033,61.21a.977.977,0,0,1-.2-.021,1.03,1.03,0,0,1-.808-1.213l1.031-5.153a1.031,1.031,0,0,1,2.021.405l-1.031,5.153a1.031,1.031,0,0,1-1.01.829Z" transform="translate(0.798 1.564)"/>
      <path id="Trazado_1058298" data-name="Trazado 1058298" d="M37.059,61.21a1.029,1.029,0,0,1-1.009-.829L35.02,55.228a1.031,1.031,0,0,1,2.021-.405l1.031,5.153a1.031,1.031,0,0,1-.808,1.213A.993.993,0,0,1,37.059,61.21Z" transform="translate(1.074 1.564)"/>
      <path id="Trazado_1058299" data-name="Trazado 1058299" d="M39.46,61.056H25.031a1.031,1.031,0,0,1,0-2.061H39.46a1.031,1.031,0,1,1,0,2.061Z" transform="translate(0.736 1.718)"/>
    </g>
  </g>
</svg>
