<svg xmlns="http://www.w3.org/2000/svg" xmlns:xlink="http://www.w3.org/1999/xlink" width="113" height="113" viewBox="0 0 113 113">
  <defs>
    <filter id="Trazado_982547" x="0" y="0" width="113" height="113" filterUnits="userSpaceOnUse">
      <feOffset dy="3" input="SourceAlpha"/>
      <feGaussianBlur stdDeviation="3" result="blur"/>
      <feFlood flood-opacity="0.161"/>
      <feComposite operator="in" in2="blur"/>
      <feComposite in="SourceGraphic"/>
    </filter>
  </defs>
  <g id="Grupo_1226630" data-name="Grupo 1226630" transform="translate(-1674.853 -7635.473)">
    <g id="Grupo_1226377" data-name="Grupo 1226377" transform="translate(1683.853 7641.473)">
      <g id="Grupo_1211217" data-name="Grupo 1211217" transform="translate(0)">
        <g id="Grupo_1210736" data-name="Grupo 1210736">
          <g id="Grupo_1210537" data-name="Grupo 1210537">
            <g id="Grupo_1164202" data-name="Grupo 1164202">
              <g id="Grupo_1158168" data-name="Grupo 1158168">
                <g id="Grupo_1152576" data-name="Grupo 1152576">
                  <g id="Grupo_1148633" data-name="Grupo 1148633">
                    <g id="Grupo_1148525" data-name="Grupo 1148525">
                      <g transform="matrix(1, 0, 0, 1, -9, -6)" filter="url(#Trazado_982547)">
                        <g id="Trazado_982547-2" data-name="Trazado 982547" transform="translate(9 6)" fill="#fdf6e4">
                          <path d="M 47.5 93.5 C 41.28937149047852 93.5 35.26533508300781 92.28397369384766 29.59518623352051 89.88570404052734 C 24.11771965026855 87.56893157958984 19.19813346862793 84.25196075439453 14.97309303283691 80.02691650390625 C 10.74804019927979 75.80186462402344 7.431066513061523 70.88229370117188 5.114293098449707 65.40481567382812 C 2.716026782989502 59.73468017578125 1.5 53.71062850952148 1.5 47.5 C 1.5 41.28937149047852 2.716026782989502 35.26533508300781 5.114293098449707 29.59518623352051 C 7.431066513061523 24.11771965026855 10.74804019927979 19.19813346862793 14.97309303283691 14.97309303283691 C 19.19813346862793 10.74804019927979 24.11771965026855 7.431066513061523 29.59518623352051 5.114293098449707 C 35.26533508300781 2.716026782989502 41.28937149047852 1.5 47.5 1.5 C 53.71062850952148 1.5 59.73468017578125 2.716026782989502 65.40481567382812 5.114293098449707 C 70.88229370117188 7.431066513061523 75.80186462402344 10.74804019927979 80.02691650390625 14.97309303283691 C 84.25196075439453 19.19813346862793 87.56893157958984 24.11771965026855 89.88570404052734 29.59518623352051 C 92.28397369384766 35.26533508300781 93.5 41.28937149047852 93.5 47.5 C 93.5 53.71062850952148 92.28397369384766 59.73468017578125 89.88570404052734 65.40481567382812 C 87.56893157958984 70.88229370117188 84.25196075439453 75.80186462402344 80.02691650390625 80.02691650390625 C 75.80186462402344 84.25196075439453 70.88229370117188 87.56893157958984 65.40481567382812 89.88570404052734 C 59.73468017578125 92.28397369384766 53.71062850952148 93.5 47.5 93.5 Z" stroke="none"/>
                          <path d="M 47.5 3 C 41.49121475219727 3 35.66376876831055 4.176155090332031 30.17950439453125 6.495796203613281 C 24.88084411621094 8.736953735351562 20.12152099609375 11.94598388671875 16.03375244140625 16.03375244140625 C 11.94598388671875 20.12152099609375 8.736953735351562 24.88084411621094 6.495796203613281 30.17950439453125 C 4.176155090332031 35.66376876831055 3 41.49121475219727 3 47.5 C 3 53.50878524780273 4.176155090332031 59.33623123168945 6.495796203613281 64.82049560546875 C 8.736953735351562 70.11915588378906 11.94598388671875 74.87847900390625 16.03375244140625 78.96624755859375 C 20.12152099609375 83.05401611328125 24.88084411621094 86.26304626464844 30.17950439453125 88.50419616699219 C 35.66376876831055 90.82384490966797 41.49121475219727 92 47.5 92 C 53.50878524780273 92 59.33623123168945 90.82384490966797 64.82049560546875 88.50419616699219 C 70.11915588378906 86.26304626464844 74.87847900390625 83.05401611328125 78.96624755859375 78.96624755859375 C 83.05401611328125 74.87847900390625 86.26304626464844 70.11915588378906 88.50419616699219 64.82049560546875 C 90.82384490966797 59.33623123168945 92 53.50878524780273 92 47.5 C 92 41.49121475219727 90.82384490966797 35.66376876831055 88.50419616699219 30.17950439453125 C 86.26304626464844 24.88084411621094 83.05401611328125 20.12152099609375 78.96624755859375 16.03375244140625 C 74.87847900390625 11.94598388671875 70.11915588378906 8.736953735351562 64.82049560546875 6.495796203613281 C 59.33623123168945 4.176155090332031 53.50878524780273 3 47.5 3 M 47.5 0 C 73.7335205078125 0 95 21.2664794921875 95 47.5 C 95 73.7335205078125 73.7335205078125 95 47.5 95 C 21.2664794921875 95 0 73.7335205078125 0 47.5 C 0 21.2664794921875 21.2664794921875 0 47.5 0 Z" stroke="none" fill="#f5b104"/>
                        </g>
                      </g>
                    </g>
                  </g>
                </g>
              </g>
            </g>
          </g>
        </g>
      </g>
    </g>
    <g id="configuracion-de-la-nube_1_" data-name="configuracion-de-la-nube (1)" transform="translate(1699 7657)">
      <g id="Flat">
        <path id="Trazado_1058111" data-name="Trazado 1058111" d="M24,14V10H21.706a6.993,6.993,0,0,0-.548-1.33l1.62-1.62L19.95,4.222l-1.62,1.62A6.993,6.993,0,0,0,17,5.294V3H13V5.294a6.929,6.929,0,0,0-1.33.548l-1.62-1.62L7.222,7.05l1.62,1.62A6.993,6.993,0,0,0,8.294,10H6v4H8.294a6.993,6.993,0,0,0,.548,1.33l-1.62,1.62,2.828,2.828,1.62-1.62a6.993,6.993,0,0,0,1.33.548V21h4V18.706a6.993,6.993,0,0,0,1.33-.548l1.62,1.62,2.828-2.828-1.62-1.62A6.993,6.993,0,0,0,21.706,14Z" fill="#f19332"/>
        <path id="Trazado_1058112" data-name="Trazado 1058112" d="M51,14A11,11,0,0,0,30.234,8.951,5.994,5.994,0,0,0,21,14a8,8,0,0,0,0,16H51a8,8,0,0,0,0-16Z" fill="#33a4db"/>
        <path id="Trazado_1058113" data-name="Trazado 1058113" d="M46.927,14a1,1,0,0,1-.988-.857,5.99,5.99,0,0,0-1.017-2.569,1,1,0,1,1,1.639-1.147,8,8,0,0,1,1.357,3.431A1,1,0,0,1,46.927,14Z" fill="#51c4f2"/>
        <path id="Trazado_1058114" data-name="Trazado 1058114" d="M43,8.676a1,1,0,0,1-.43-.1,5.928,5.928,0,0,0-1.712-.518,1,1,0,0,1,.285-1.979,7.936,7.936,0,0,1,2.288.692,1,1,0,0,1-.43,1.9Z" fill="#51c4f2"/>
        <path id="Trazado_1058115" data-name="Trazado 1058115" d="M41,61H27a4,4,0,0,1-4-4H45A4,4,0,0,1,41,61Z" fill="#ccc"/>
        <path id="Trazado_1058116" data-name="Trazado 1058116" d="M27,43H41a2,2,0,0,1,2,2V57H25V45A2,2,0,0,1,27,43Z" fill="#5fd5f9"/>
        <rect id="Rect치ngulo_422530" data-name="Rect치ngulo 422530" width="12" height="18" rx="2" transform="translate(49 43)" fill="#5fd5f9"/>
        <path id="Trazado_1058117" data-name="Trazado 1058117" d="M61,55v4a2.006,2.006,0,0,1-2,2H51a2.006,2.006,0,0,1-2-2V55Z" fill="#ccc"/>
        <path id="Trazado_1058118" data-name="Trazado 1058118" d="M56,59H54a1,1,0,0,1,0-2h2a1,1,0,0,1,0,2Z" fill="#afafaf"/>
        <rect id="Rect치ngulo_422531" data-name="Rect치ngulo 422531" width="16" height="14" rx="2" transform="translate(3 43)" fill="#5fd5f9"/>
        <circle id="Elipse_13522" data-name="Elipse 13522" cx="3" cy="3" r="3" transform="translate(12 9)" fill="#e57510"/>
        <path id="Trazado_1058119" data-name="Trazado 1058119" d="M55,36H35V34a1,1,0,0,0-2,0v2H11a1,1,0,0,0-1,1v2a1,1,0,0,0,2,0V38H33v1a1,1,0,0,0,2,0V38H54v1a1,1,0,0,0,2,0V37A1,1,0,0,0,55,36Z" fill="#f19332"/>
        <path id="Trazado_1058120" data-name="Trazado 1058120" d="M19,53v2a2.006,2.006,0,0,1-2,2H5a2.006,2.006,0,0,1-2-2V53Z" fill="#ccc"/>
        <path id="Trazado_1058121" data-name="Trazado 1058121" d="M14,61H8l1-4h4Z" fill="#ccc"/>
        <path id="Trazado_1058122" data-name="Trazado 1058122" d="M13.25,58H8.75L9,57h4Z" fill="#afafaf"/>
        <path id="Trazado_1058123" data-name="Trazado 1058123" d="M25,56H43v1H25Z" fill="#45c0dd"/>
      </g>
      <g id="Outline">
        <path id="Trazado_1058124" data-name="Trazado 1058124" d="M45.938,13.142a1,1,0,0,0,1.981-.284,8,8,0,0,0-1.358-3.431,1,1,0,1,0-1.639,1.147,5.975,5.975,0,0,1,1.017,2.569Z"/>
        <path id="Trazado_1058125" data-name="Trazado 1058125" d="M40.857,8.061a5.934,5.934,0,0,1,1.713.518,1,1,0,0,0,.859-1.806,7.93,7.93,0,0,0-2.287-.692,1,1,0,1,0-.285,1.979Z"/>
        <path id="Trazado_1058126" data-name="Trazado 1058126" d="M41,42H27a3,3,0,0,0-3,3V56H23a1,1,0,0,0-1,1,5.006,5.006,0,0,0,5,5H41a5.006,5.006,0,0,0,5-5,1,1,0,0,0-1-1H44V45A3,3,0,0,0,41,42ZM26,45a1,1,0,0,1,1-1H41a1,1,0,0,1,1,1V56H26ZM41,60H27a3.006,3.006,0,0,1-2.829-2H43.829A3.006,3.006,0,0,1,41,60Z"/>
        <path id="Trazado_1058127" data-name="Trazado 1058127" d="M59,42H51a3,3,0,0,0-3,3V59a3,3,0,0,0,3,3h8a3,3,0,0,0,3-3V45A3,3,0,0,0,59,42Zm-8,2h8a1,1,0,0,1,1,1v9H50V45A1,1,0,0,1,51,44Zm8,16H51a1,1,0,0,1-1-1V56H60v3A1,1,0,0,1,59,60Z"/>
        <path id="Trazado_1058128" data-name="Trazado 1058128" d="M56,57H54a1,1,0,0,0,0,2h2a1,1,0,0,0,0-2Z"/>
        <path id="Trazado_1058129" data-name="Trazado 1058129" d="M5,58H7.72l-.689,2.757A1,1,0,0,0,8,62h6a1,1,0,0,0,.97-1.243L14.282,58H17a3,3,0,0,0,3-3V45a3,3,0,0,0-3-3H5a3,3,0,0,0-3,3V55a3,3,0,0,0,3,3Zm7.719,2H9.281l.5-2h2.438ZM17,56H5a1,1,0,0,1-1-1V54H18v1A1,1,0,0,1,17,56ZM5,44H17a1,1,0,0,1,1,1v7H4V45A1,1,0,0,1,5,44Z"/>
        <path id="Trazado_1058130" data-name="Trazado 1058130" d="M6,9a1,1,0,0,0-1,1v4a1,1,0,0,0,1,1H7.58l.051.125L6.513,16.244a1,1,0,0,0,0,1.414l2.83,2.83a1,1,0,0,0,1.414,0l1.119-1.118c.041.018.082.035.124.051V21a.984.984,0,0,0,.038.19c-.024.267-.038.537-.038.81a9.01,9.01,0,0,0,9,9H51a9,9,0,0,0,.963-17.949A11.995,11.995,0,0,0,29.851,7.611a6.969,6.969,0,0,0-6.913.7l.549-.55a1,1,0,0,0,0-1.414l-2.83-2.83a1,1,0,0,0-1.414,0L18.124,4.631c-.041-.018-.082-.035-.124-.051V3a1,1,0,0,0-1-1H13a1,1,0,0,0-1,1V4.58l-.124.051L10.757,3.513a1,1,0,0,0-1.414,0l-2.83,2.83a1,1,0,0,0,0,1.414L7.631,8.876,7.58,9H6Zm23.694.793a1,1,0,0,0,1.428-.382A10,10,0,0,1,50,14a1,1,0,0,0,1,1,7,7,0,0,1,0,14H21a7,7,0,0,1,0-14,1,1,0,0,0,1-1,4.994,4.994,0,0,1,7.694-4.207ZM15,14a2,2,0,1,1,2-2A2,2,0,0,1,15,14ZM8.29,11a1,1,0,0,0,.959-.715A5.664,5.664,0,0,1,9.718,9.15a1,1,0,0,0-.171-1.187L8.634,7.05,10.05,5.634l.913.913a1,1,0,0,0,1.188.17,5.745,5.745,0,0,1,1.136-.468A1,1,0,0,0,14,5.291V4h2v1.29a1,1,0,0,0,.714.958,5.745,5.745,0,0,1,1.136.468,1,1,0,0,0,1.188-.17l.913-.913L21.368,7.05l-.913.913a1,1,0,0,0-.171,1.187,5.723,5.723,0,0,1,.469,1.135.986.986,0,0,0,.146.3,6.95,6.95,0,0,0-.833,2.467,8.833,8.833,0,0,0-1.3.242A3.946,3.946,0,0,0,19,12a4,4,0,1,0-4.642,3.935,9.062,9.062,0,0,0-1.247,1.755,5.708,5.708,0,0,1-.961-.407,1,1,0,0,0-1.188.17l-.913.913L8.634,16.95l.913-.913a1,1,0,0,0,.171-1.187,5.723,5.723,0,0,1-.469-1.135A1,1,0,0,0,8.29,13H7V11Z"/>
        <path id="Trazado_1058131" data-name="Trazado 1058131" d="M55,40a1,1,0,0,0,1-1V37a1,1,0,0,0-1-1H35V34a1,1,0,0,0-2,0v2H11a1,1,0,0,0-1,1v2a1,1,0,0,0,2,0V38H33v1a1,1,0,0,0,2,0V38H54v1A1,1,0,0,0,55,40Z"/>
      </g>
    </g>
  </g>
</svg>
