<svg xmlns="http://www.w3.org/2000/svg" xmlns:xlink="http://www.w3.org/1999/xlink" width="113" height="113" viewBox="0 0 113 113">
  <defs>
    <filter id="Trazado_982547" x="0" y="0" width="113" height="113" filterUnits="userSpaceOnUse">
      <feOffset dy="3" input="SourceAlpha"/>
      <feGaussianBlur stdDeviation="3" result="blur"/>
      <feFlood flood-opacity="0.161"/>
      <feComposite operator="in" in2="blur"/>
      <feComposite in="SourceGraphic"/>
    </filter>
  </defs>
  <g id="Grupo_1226682" data-name="Grupo 1226682" transform="translate(-4164.529 -7046.607)">
    <g id="Grupo_1226502" data-name="Grupo 1226502" transform="translate(3472 5453.761)">
      <g id="Grupo_1211209" data-name="Grupo 1211209" transform="translate(701.529 1598.846)">
        <g id="Grupo_1210737" data-name="Grupo 1210737" transform="translate(0)">
          <g id="Grupo_1210537" data-name="Grupo 1210537">
            <g id="Grupo_1164202" data-name="Grupo 1164202">
              <g id="Grupo_1158168" data-name="Grupo 1158168">
                <g id="Grupo_1152576" data-name="Grupo 1152576">
                  <g id="Grupo_1148633" data-name="Grupo 1148633">
                    <g id="Grupo_1148525" data-name="Grupo 1148525">
                      <g transform="matrix(1, 0, 0, 1, -9, -6)" filter="url(#Trazado_982547)">
                        <g id="Trazado_982547-2" data-name="Trazado 982547" transform="translate(9 6)" fill="#fdf6e4">
                          <path d="M 47.5 93.5 C 41.28937149047852 93.5 35.26533508300781 92.28397369384766 29.59518623352051 89.88570404052734 C 24.11771965026855 87.56893157958984 19.19813346862793 84.25196075439453 14.97309303283691 80.02691650390625 C 10.74804019927979 75.80186462402344 7.431066513061523 70.88229370117188 5.114293098449707 65.40481567382812 C 2.716026782989502 59.73468017578125 1.5 53.71062850952148 1.5 47.5 C 1.5 41.28937149047852 2.716026782989502 35.26533508300781 5.114293098449707 29.59518623352051 C 7.431066513061523 24.11771965026855 10.74804019927979 19.19813346862793 14.97309303283691 14.97309303283691 C 19.19813346862793 10.74804019927979 24.11771965026855 7.431066513061523 29.59518623352051 5.114293098449707 C 35.26533508300781 2.716026782989502 41.28937149047852 1.5 47.5 1.5 C 53.71062850952148 1.5 59.73468017578125 2.716026782989502 65.40481567382812 5.114293098449707 C 70.88229370117188 7.431066513061523 75.80186462402344 10.74804019927979 80.02691650390625 14.97309303283691 C 84.25196075439453 19.19813346862793 87.56893157958984 24.11771965026855 89.88570404052734 29.59518623352051 C 92.28397369384766 35.26533508300781 93.5 41.28937149047852 93.5 47.5 C 93.5 53.71062850952148 92.28397369384766 59.73468017578125 89.88570404052734 65.40481567382812 C 87.56893157958984 70.88229370117188 84.25196075439453 75.80186462402344 80.02691650390625 80.02691650390625 C 75.80186462402344 84.25196075439453 70.88229370117188 87.56893157958984 65.40481567382812 89.88570404052734 C 59.73468017578125 92.28397369384766 53.71062850952148 93.5 47.5 93.5 Z" stroke="none"/>
                          <path d="M 47.5 3 C 41.49121475219727 3 35.66376876831055 4.176155090332031 30.17950439453125 6.495796203613281 C 24.88084411621094 8.736953735351562 20.12152099609375 11.94598388671875 16.03375244140625 16.03375244140625 C 11.94598388671875 20.12152099609375 8.736953735351562 24.88084411621094 6.495796203613281 30.17950439453125 C 4.176155090332031 35.66376876831055 3 41.49121475219727 3 47.5 C 3 53.50878524780273 4.176155090332031 59.33623123168945 6.495796203613281 64.82049560546875 C 8.736953735351562 70.11915588378906 11.94598388671875 74.87847900390625 16.03375244140625 78.96624755859375 C 20.12152099609375 83.05401611328125 24.88084411621094 86.26304626464844 30.17950439453125 88.50419616699219 C 35.66376876831055 90.82384490966797 41.49121475219727 92 47.5 92 C 53.50878524780273 92 59.33623123168945 90.82384490966797 64.82049560546875 88.50419616699219 C 70.11915588378906 86.26304626464844 74.87847900390625 83.05401611328125 78.96624755859375 78.96624755859375 C 83.05401611328125 74.87847900390625 86.26304626464844 70.11915588378906 88.50419616699219 64.82049560546875 C 90.82384490966797 59.33623123168945 92 53.50878524780273 92 47.5 C 92 41.49121475219727 90.82384490966797 35.66376876831055 88.50419616699219 30.17950439453125 C 86.26304626464844 24.88084411621094 83.05401611328125 20.12152099609375 78.96624755859375 16.03375244140625 C 74.87847900390625 11.94598388671875 70.11915588378906 8.736953735351562 64.82049560546875 6.495796203613281 C 59.33623123168945 4.176155090332031 53.50878524780273 3 47.5 3 M 47.5 0 C 73.7335205078125 0 95 21.2664794921875 95 47.5 C 95 73.7335205078125 73.7335205078125 95 47.5 95 C 21.2664794921875 95 0 73.7335205078125 0 47.5 C 0 21.2664794921875 21.2664794921875 0 47.5 0 Z" stroke="none" fill="#f5b104"/>
                        </g>
                      </g>
                    </g>
                  </g>
                </g>
              </g>
            </g>
          </g>
        </g>
      </g>
    </g>
    <g id="operando_1_" data-name="operando (1)" transform="translate(4191.257 7070.335)">
      <g id="Grupo_1226680" data-name="Grupo 1226680" transform="translate(1.928 1.928)">
        <g id="Grupo_1226670" data-name="Grupo 1226670" transform="translate(44.55 0)">
          <path id="Trazado_1058386" data-name="Trazado 1058386" d="M53.675,16.85l-.009.009a.451.451,0,0,0-.1-.13l-.659-.659a1.917,1.917,0,0,0-2.228-.353,1.774,1.774,0,0,1-.678.195V2H61.138V16.85Z" transform="translate(-50 -2)" fill="#e6e9ed"/>
        </g>
        <g id="Grupo_1226671" data-name="Grupo 1226671" transform="translate(22.275)">
          <path id="Trazado_1058387" data-name="Trazado 1058387" d="M37.138,9.425v6.107a1.879,1.879,0,0,0-1.049.538l-.659.659a.451.451,0,0,0-.1.13l-.009-.009H26V2H37.138Z" transform="translate(-26 -2)" fill="#e6e9ed"/>
        </g>
        <g id="Grupo_1226672" data-name="Grupo 1226672" transform="translate(0 0)">
          <path id="Trazado_1058388" data-name="Trazado 1058388" d="M13.138,9.425V16.85H2V2H13.138Z" transform="translate(-2 -2)" fill="#e6e9ed"/>
        </g>
        <g id="Grupo_1226673" data-name="Grupo 1226673" transform="translate(28.772 11.138)">
          <path id="Trazado_1058389" data-name="Trazado 1058389" d="M34.327,22.845a1.9,1.9,0,0,0,1.169-1.1l.139-.334a1.818,1.818,0,0,0,.148-.733,1.875,1.875,0,0,0-.2-.863,1.887,1.887,0,0,1,.251-2.1.451.451,0,0,1,.1-.13l.659-.659a1.879,1.879,0,0,1,1.049-.538,1.709,1.709,0,0,1,.306-.028,1.952,1.952,0,0,1,.872.213,1.885,1.885,0,0,0,1.6.056l.334-.139a1.9,1.9,0,0,0,1.1-1.169A1.934,1.934,0,0,1,43.673,14H44.6a1.934,1.934,0,0,1,1.828,1.327,1.9,1.9,0,0,0,1.1,1.169l.334.139a1.818,1.818,0,0,0,.733.149,1.244,1.244,0,0,0,.186-.009,1.774,1.774,0,0,0,.678-.195,1.917,1.917,0,0,1,2.228.353l.659.659a.451.451,0,0,1,.1.13,1.834,1.834,0,0,1,.464,1.225,1.952,1.952,0,0,1-.213.872,1.885,1.885,0,0,0-.056,1.6l.139.334a1.9,1.9,0,0,0,1.169,1.1,1.934,1.934,0,0,1,1.327,1.828V25.6a1.934,1.934,0,0,1-1.327,1.828,1.9,1.9,0,0,0-1.169,1.1l-.139.334a1.818,1.818,0,0,0-.148.733,1.875,1.875,0,0,0,.2.863,1.917,1.917,0,0,1-.353,2.228l-.659.659a1.92,1.92,0,0,1-1.355.566,1.952,1.952,0,0,1-.872-.213,1.885,1.885,0,0,0-1.6-.056l-.334.139a1.9,1.9,0,0,0-1.1,1.169A1.934,1.934,0,0,1,44.6,36.275h-.928a1.921,1.921,0,0,1-1.392-.594v-5.29a5.57,5.57,0,1,0-3.713-5.253H33v-.464a1.934,1.934,0,0,1,1.327-1.828Z" transform="translate(-33 -14)" fill="#ffc729"/>
        </g>
        <g id="Grupo_1226674" data-name="Grupo 1226674" transform="translate(34.341 16.706)">
          <path id="Trazado_1058390" data-name="Trazado 1058390" d="M42.713,29.281A3.711,3.711,0,0,0,39,25.569a5.559,5.559,0,1,1,3.713,5.253Zm0-3.713a1.856,1.856,0,1,0,1.856-1.856A1.862,1.862,0,0,0,42.713,25.569Z" transform="translate(-39 -20)" fill="#fcd770"/>
        </g>
        <g id="Grupo_1226675" data-name="Grupo 1226675" transform="translate(0 48.263)">
          <path id="Trazado_1058391" data-name="Trazado 1058391" d="M40.981,54H3.856A1.87,1.87,0,0,0,2,55.856a5.573,5.573,0,0,0,5.569,5.569h29.7a5.577,5.577,0,0,0,5.569-5.569A1.862,1.862,0,0,0,40.981,54Z" transform="translate(-2 -54)" fill="#969faa"/>
        </g>
        <g id="Grupo_1226676" data-name="Grupo 1226676" transform="translate(14.85 48.263)">
          <path id="Trazado_1058392" data-name="Trazado 1058392" d="M29.138,54v1.856a1.862,1.862,0,0,1-1.856,1.856H19.856A1.862,1.862,0,0,1,18,55.856V54Z" transform="translate(-18 -54)" fill="#fcd770"/>
        </g>
        <g id="Grupo_1226677" data-name="Grupo 1226677" transform="translate(2.784 22.275)">
          <path id="Trazado_1058393" data-name="Trazado 1058393" d="M40.269,36.544V51.988H5V29.713A3.711,3.711,0,0,1,8.713,26H36.556a3.711,3.711,0,0,1,3.713,3.713v6.831Z" transform="translate(-5 -26)" fill="#ccd1d9"/>
        </g>
        <g id="Grupo_1226678" data-name="Grupo 1226678" transform="translate(6.497 25.988)">
          <path id="Trazado_1058394" data-name="Trazado 1058394" d="M36.844,30.928V47.634a.931.931,0,0,1-.928.928H9.928A.931.931,0,0,1,9,47.634V30.928A.931.931,0,0,1,9.928,30H35.916A.931.931,0,0,1,36.844,30.928Z" transform="translate(-9 -30)" fill="#69d6f4"/>
        </g>
        <g id="Grupo_1226679" data-name="Grupo 1226679" transform="translate(10.209 29.7)">
          <path id="Trazado_1058395" data-name="Trazado 1058395" d="M29.706,37.713a3.713,3.713,0,0,1,0,7.425H16.713a3.713,3.713,0,0,1,0-7.425,3.785,3.785,0,0,1,1.179.2,5.569,5.569,0,0,1,10.636,0A3.785,3.785,0,0,1,29.706,37.713Z" transform="translate(-13 -34)" fill="#e6e9ed"/>
        </g>
      </g>
      <g id="Grupo_1226681" data-name="Grupo 1226681" transform="translate(1 1)">
        <path id="Trazado_1058396" data-name="Trazado 1058396" d="M35.844,29H9.856A1.858,1.858,0,0,0,8,30.856V47.563a1.858,1.858,0,0,0,1.856,1.856H35.844A1.858,1.858,0,0,0,37.7,47.563V30.856A1.858,1.858,0,0,0,35.844,29ZM9.856,47.563V30.856H35.844V47.563Z" transform="translate(-1.503 -3.012)"/>
        <path id="Trazado_1058397" data-name="Trazado 1058397" d="M29.031,36.757a6.5,6.5,0,0,0-11.787,0,4.638,4.638,0,1,0-.6,9.237H29.634a4.638,4.638,0,1,0-.6-9.237Zm.6,7.38H16.641a2.784,2.784,0,1,1,0-5.569,2.75,2.75,0,0,1,.881.16l.9.3.281-.909a4.642,4.642,0,0,1,8.867,0l.281.91.9-.3a2.727,2.727,0,0,1,.881-.161,2.784,2.784,0,0,1,0,5.569Z" transform="translate(-1.791 -3.3)"/>
        <path id="Trazado_1058398" data-name="Trazado 1058398" d="M58.544,1H45.55V8.425H36.269V1H23.275V8.425H13.994V1H1V17.706H13.994V10.281h9.281v7.425h8.891a2.845,2.845,0,0,0,.284,1.6.954.954,0,0,1,.035.811c-.052.12-.1.241-.149.362a.95.95,0,0,1-.6.553,2.849,2.849,0,0,0-1.924,2.245H8.425a4.646,4.646,0,0,0-4.641,4.641V49.263A2.788,2.788,0,0,0,1,52.047a6.5,6.5,0,0,0,6.5,6.5H37.2a6.5,6.5,0,0,0,6.5-6.5,2.788,2.788,0,0,0-2.784-2.784V36.221a2.793,2.793,0,0,0,.466.048H42.3A2.849,2.849,0,0,0,45.011,34.3a.951.951,0,0,1,.551-.6c.123-.047.244-.1.365-.149a.952.952,0,0,1,.81.035,2.847,2.847,0,0,0,3.305-.529l.654-.653a2.847,2.847,0,0,0,.529-3.305.954.954,0,0,1-.035-.811c.052-.12.1-.241.149-.362a.95.95,0,0,1,.6-.553A2.851,2.851,0,0,0,53.9,24.665v-.924a2.849,2.849,0,0,0-1.964-2.711.951.951,0,0,1-.6-.551c-.047-.123-.1-.244-.149-.365a.956.956,0,0,1,.035-.81,2.844,2.844,0,0,0,.284-1.6h7.034ZM12.138,15.85H2.856V2.856h9.281ZM45.55,10.281v4.41a.951.951,0,0,1-.539-.592A2.849,2.849,0,0,0,42.3,12.138h-.924A2.849,2.849,0,0,0,38.664,14.1a.949.949,0,0,1-.553.6c-.122.047-.242.1-.363.149a.952.952,0,0,1-.81-.035,2.86,2.86,0,0,0-.669-.231v-4.3ZM25.131,2.856h9.281V14.794a2.829,2.829,0,0,0-.78.55l-.506.506h-8ZM41.838,52.047A4.646,4.646,0,0,1,37.2,56.688H7.5a4.646,4.646,0,0,1-4.641-4.641.93.93,0,0,1,.928-.928H15.85v.928a2.788,2.788,0,0,0,2.784,2.784h7.425a2.788,2.788,0,0,0,2.784-2.784v-.928H40.91A.93.93,0,0,1,41.838,52.047Zm-24.131-.928h9.281v.928a.93.93,0,0,1-.928.928H18.634a.93.93,0,0,1-.928-.928ZM5.641,49.263V27.916a2.788,2.788,0,0,1,2.784-2.784H36.269a2.788,2.788,0,0,1,2.784,2.784V49.263Zm35.106-22.5A2.784,2.784,0,1,0,39.053,24.2c0,.009,0,.017,0,.026a4.609,4.609,0,0,0-1.777-.836,4.673,4.673,0,1,1,3.631,5.348v-.825a4.575,4.575,0,0,0-.162-1.151ZM40.91,24.2a.928.928,0,1,1,.928.928A.93.93,0,0,1,40.91,24.2Zm10.452-1.41a1,1,0,0,1,.686.948v.924a1,1,0,0,1-.687.948,2.8,2.8,0,0,0-1.75,1.645c-.039.1-.08.2-.122.3a2.8,2.8,0,0,0,.081,2.387,1,1,0,0,1-.185,1.155l-.654.654a.993.993,0,0,1-1.155.185,2.8,2.8,0,0,0-2.386-.081q-.146.063-.3.123a2.8,2.8,0,0,0-1.644,1.751,1,1,0,0,1-.948.686h-.924a.982.982,0,0,1-.466-.132V30.622a6.578,6.578,0,0,0,.928.078,6.5,6.5,0,1,0-6.423-7.425H31.757a.988.988,0,0,1,.558-.482,2.8,2.8,0,0,0,1.751-1.645c.039-.1.08-.2.122-.3a2.8,2.8,0,0,0-.081-2.387,1,1,0,0,1,.185-1.156l.653-.653a.993.993,0,0,1,1.156-.185,2.8,2.8,0,0,0,2.386.081c.1-.043.2-.084.3-.122a2.808,2.808,0,0,0,1.645-1.751.993.993,0,0,1,.947-.687H42.3a1,1,0,0,1,.948.687,2.8,2.8,0,0,0,1.644,1.75c.1.039.2.08.3.122a2.806,2.806,0,0,0,2.387-.081,1,1,0,0,1,1.156.185l.653.653a1,1,0,0,1,.185,1.156,2.8,2.8,0,0,0-.081,2.386q.063.146.123.3a2.8,2.8,0,0,0,1.751,1.644Zm5.327-6.943h-6.14l-.5-.5a2.839,2.839,0,0,0-2.636-.76V2.856h9.281V15.85Z" transform="translate(-1 -1)"/>
        <path id="Trazado_1058399" data-name="Trazado 1058399" d="M5,5h5.569V6.856H5Z" transform="translate(-1.287 -1.287)"/>
        <path id="Trazado_1058400" data-name="Trazado 1058400" d="M5,9h5.569v1.856H5Z" transform="translate(-1.287 -1.575)"/>
        <path id="Trazado_1058401" data-name="Trazado 1058401" d="M5,13h5.569v1.856H5Z" transform="translate(-1.287 -1.862)"/>
        <path id="Trazado_1058402" data-name="Trazado 1058402" d="M29,5h5.569V6.856H29Z" transform="translate(-3.012 -1.287)"/>
        <path id="Trazado_1058403" data-name="Trazado 1058403" d="M29,9h5.569v1.856H29Z" transform="translate(-3.012 -1.575)"/>
        <path id="Trazado_1058404" data-name="Trazado 1058404" d="M29,13h5.569v1.856H29Z" transform="translate(-3.012 -1.862)"/>
        <path id="Trazado_1058405" data-name="Trazado 1058405" d="M53,5h5.569V6.856H53Z" transform="translate(-4.737 -1.287)"/>
        <path id="Trazado_1058406" data-name="Trazado 1058406" d="M53,9h5.569v1.856H53Z" transform="translate(-4.737 -1.575)"/>
        <path id="Trazado_1058407" data-name="Trazado 1058407" d="M53,13h5.569v1.856H53Z" transform="translate(-4.737 -1.862)"/>
      </g>
    </g>
  </g>
</svg>
