<svg xmlns="http://www.w3.org/2000/svg" xmlns:xlink="http://www.w3.org/1999/xlink" width="113" height="113" viewBox="0 0 113 113">
  <defs>
    <filter id="Trazado_982547" x="0" y="0" width="113" height="113" filterUnits="userSpaceOnUse">
      <feOffset dy="3" input="SourceAlpha"/>
      <feGaussianBlur stdDeviation="3" result="blur"/>
      <feFlood flood-opacity="0.161"/>
      <feComposite operator="in" in2="blur"/>
      <feComposite in="SourceGraphic"/>
    </filter>
  </defs>
  <g id="Grupo_1226659" data-name="Grupo 1226659" transform="translate(-4501.529 -7046.607)">
    <g id="Grupo_1226503" data-name="Grupo 1226503" transform="translate(3809 5453.761)">
      <g id="Grupo_1211209" data-name="Grupo 1211209" transform="translate(701.529 1598.846)">
        <g id="Grupo_1210737" data-name="Grupo 1210737" transform="translate(0)">
          <g id="Grupo_1210537" data-name="Grupo 1210537">
            <g id="Grupo_1164202" data-name="Grupo 1164202">
              <g id="Grupo_1158168" data-name="Grupo 1158168">
                <g id="Grupo_1152576" data-name="Grupo 1152576">
                  <g id="Grupo_1148633" data-name="Grupo 1148633">
                    <g id="Grupo_1148525" data-name="Grupo 1148525">
                      <g transform="matrix(1, 0, 0, 1, -9, -6)" filter="url(#Trazado_982547)">
                        <g id="Trazado_982547-2" data-name="Trazado 982547" transform="translate(9 6)" fill="#fdf6e4">
                          <path d="M 47.5 93.5 C 41.28937149047852 93.5 35.26533508300781 92.28397369384766 29.59518623352051 89.88570404052734 C 24.11771965026855 87.56893157958984 19.19813346862793 84.25196075439453 14.97309303283691 80.02691650390625 C 10.74804019927979 75.80186462402344 7.431066513061523 70.88229370117188 5.114293098449707 65.40481567382812 C 2.716026782989502 59.73468017578125 1.5 53.71062850952148 1.5 47.5 C 1.5 41.28937149047852 2.716026782989502 35.26533508300781 5.114293098449707 29.59518623352051 C 7.431066513061523 24.11771965026855 10.74804019927979 19.19813346862793 14.97309303283691 14.97309303283691 C 19.19813346862793 10.74804019927979 24.11771965026855 7.431066513061523 29.59518623352051 5.114293098449707 C 35.26533508300781 2.716026782989502 41.28937149047852 1.5 47.5 1.5 C 53.71062850952148 1.5 59.73468017578125 2.716026782989502 65.40481567382812 5.114293098449707 C 70.88229370117188 7.431066513061523 75.80186462402344 10.74804019927979 80.02691650390625 14.97309303283691 C 84.25196075439453 19.19813346862793 87.56893157958984 24.11771965026855 89.88570404052734 29.59518623352051 C 92.28397369384766 35.26533508300781 93.5 41.28937149047852 93.5 47.5 C 93.5 53.71062850952148 92.28397369384766 59.73468017578125 89.88570404052734 65.40481567382812 C 87.56893157958984 70.88229370117188 84.25196075439453 75.80186462402344 80.02691650390625 80.02691650390625 C 75.80186462402344 84.25196075439453 70.88229370117188 87.56893157958984 65.40481567382812 89.88570404052734 C 59.73468017578125 92.28397369384766 53.71062850952148 93.5 47.5 93.5 Z" stroke="none"/>
                          <path d="M 47.5 3 C 41.49121475219727 3 35.66376876831055 4.176155090332031 30.17950439453125 6.495796203613281 C 24.88084411621094 8.736953735351562 20.12152099609375 11.94598388671875 16.03375244140625 16.03375244140625 C 11.94598388671875 20.12152099609375 8.736953735351562 24.88084411621094 6.495796203613281 30.17950439453125 C 4.176155090332031 35.66376876831055 3 41.49121475219727 3 47.5 C 3 53.50878524780273 4.176155090332031 59.33623123168945 6.495796203613281 64.82049560546875 C 8.736953735351562 70.11915588378906 11.94598388671875 74.87847900390625 16.03375244140625 78.96624755859375 C 20.12152099609375 83.05401611328125 24.88084411621094 86.26304626464844 30.17950439453125 88.50419616699219 C 35.66376876831055 90.82384490966797 41.49121475219727 92 47.5 92 C 53.50878524780273 92 59.33623123168945 90.82384490966797 64.82049560546875 88.50419616699219 C 70.11915588378906 86.26304626464844 74.87847900390625 83.05401611328125 78.96624755859375 78.96624755859375 C 83.05401611328125 74.87847900390625 86.26304626464844 70.11915588378906 88.50419616699219 64.82049560546875 C 90.82384490966797 59.33623123168945 92 53.50878524780273 92 47.5 C 92 41.49121475219727 90.82384490966797 35.66376876831055 88.50419616699219 30.17950439453125 C 86.26304626464844 24.88084411621094 83.05401611328125 20.12152099609375 78.96624755859375 16.03375244140625 C 74.87847900390625 11.94598388671875 70.11915588378906 8.736953735351562 64.82049560546875 6.495796203613281 C 59.33623123168945 4.176155090332031 53.50878524780273 3 47.5 3 M 47.5 0 C 73.7335205078125 0 95 21.2664794921875 95 47.5 C 95 73.7335205078125 73.7335205078125 95 47.5 95 C 21.2664794921875 95 0 73.7335205078125 0 47.5 C 0 21.2664794921875 21.2664794921875 0 47.5 0 Z" stroke="none" fill="#f5b104"/>
                        </g>
                      </g>
                    </g>
                  </g>
                </g>
              </g>
            </g>
          </g>
        </g>
      </g>
    </g>
    <g id="distribuido-_2_" data-name="distribuido- (2)" transform="translate(4528.409 7073.487)">
      <g id="Grupo_1226658" data-name="Grupo 1226658" transform="translate(1.923 1.923)">
        <path id="Trazado_1058348" data-name="Trazado 1058348" d="M61.079,2V13.079H50V2Z" transform="translate(-5.686 -2)" fill="#ffeaa7"/>
        <path id="Trazado_1058349" data-name="Trazado 1058349" d="M37.079,7.539v5.539H26V2H37.079Z" transform="translate(-3.843 -2)" fill="#ffeaa7"/>
        <path id="Trazado_1058350" data-name="Trazado 1058350" d="M13.079,7.539v5.539H2V2H13.079Z" transform="translate(-2 -2)" fill="#ffeaa7"/>
      </g>
      <path id="Trazado_1058351" data-name="Trazado 1058351" d="M12,28V44.618a1.852,1.852,0,0,0,1.846,1.846H47.082a1.852,1.852,0,0,0,1.846-1.846V28Z" transform="translate(-0.845 -2.073)" fill="#e6e9ed"/>
      <path id="Trazado_1058352" data-name="Trazado 1058352" d="M48.929,21.846v5.539H12V23.693a1.852,1.852,0,0,1,1.846-1.846H32.311l1.3-1.3A1.852,1.852,0,0,1,34.923,20H47.082A1.852,1.852,0,0,1,48.929,21.846Z" transform="translate(-0.845 -1.459)" fill="#ff826e"/>
      <path id="Trazado_1058353" data-name="Trazado 1058353" d="M42.459,42.545a1.805,1.805,0,0,1,.545,1.3,1.852,1.852,0,0,1-1.846,1.846H20.846A1.86,1.86,0,0,1,19,43.846,1.852,1.852,0,0,1,20.846,42H41.157A1.805,1.805,0,0,1,42.459,42.545Z" transform="translate(-1.382 -3.148)" fill="#5cd6b3"/>
      <path id="Trazado_1058354" data-name="Trazado 1058354" d="M42.459,52.545a1.805,1.805,0,0,1,.545,1.3,1.852,1.852,0,0,1-1.846,1.846H20.846A1.86,1.86,0,0,1,19,53.846,1.852,1.852,0,0,1,20.846,52H41.157A1.805,1.805,0,0,1,42.459,52.545Z" transform="translate(-1.382 -3.916)" fill="#5cd6b3"/>
      <path id="Trazado_1058355" data-name="Trazado 1058355" d="M45.543,57.846v1.846A1.852,1.852,0,0,1,43.7,61.539H17.846A1.852,1.852,0,0,1,16,59.693V57.846A1.852,1.852,0,0,1,17.846,56H43.7A1.852,1.852,0,0,1,45.543,57.846Z" transform="translate(-1.152 -4.223)" fill="#fcd770"/>
      <path id="Trazado_1058356" data-name="Trazado 1058356" d="M45.543,47.846v1.846A1.852,1.852,0,0,1,43.7,51.539H17.846A1.852,1.852,0,0,1,16,49.693V47.846A1.852,1.852,0,0,1,17.846,46H43.7A1.852,1.852,0,0,1,45.543,47.846Z" transform="translate(-1.152 -3.455)" fill="#fcd770"/>
      <path id="Trazado_1058357" data-name="Trazado 1058357" d="M45.543,37.846v1.846A1.852,1.852,0,0,1,43.7,41.539H17.846A1.852,1.852,0,0,1,16,39.693V37.846A1.852,1.852,0,0,1,17.846,36H43.7A1.852,1.852,0,0,1,45.543,37.846Z" transform="translate(-1.152 -2.688)" fill="#fcd770"/>
      <path id="Trazado_1058358" data-name="Trazado 1058358" d="M47,23h1.846v1.846H47Z" transform="translate(-3.532 -1.689)"/>
      <path id="Trazado_1058359" data-name="Trazado 1058359" d="M43,23h1.846v1.846H43Z" transform="translate(-3.225 -1.689)"/>
      <path id="Trazado_1058360" data-name="Trazado 1058360" d="M39,23h1.846v1.846H39Z" transform="translate(-2.918 -1.689)"/>
      <path id="Trazado_1058361" data-name="Trazado 1058361" d="M5,5h5.539V6.846H5Z" transform="translate(-0.307 -0.307)"/>
      <path id="Trazado_1058362" data-name="Trazado 1058362" d="M5,9h5.539v1.846H5Z" transform="translate(-0.307 -0.614)"/>
      <path id="Trazado_1058363" data-name="Trazado 1058363" d="M29,5h5.539V6.846H29Z" transform="translate(-2.15 -0.307)"/>
      <path id="Trazado_1058364" data-name="Trazado 1058364" d="M29,9h5.539v1.846H29Z" transform="translate(-2.15 -0.614)"/>
      <path id="Trazado_1058365" data-name="Trazado 1058365" d="M58.239,13.925V1H45.314V6.539H36.082V1H23.157V6.539H13.925V1H1V13.925H13.925V8.386h9.232v5.539H28.7v5.539H13a2.773,2.773,0,0,0-2.77,2.77V42.545A2.773,2.773,0,0,0,13,45.314h.923v.923a2.773,2.773,0,0,0,2.77,2.77h.17a2.594,2.594,0,0,0,0,1.846h-.17a2.773,2.773,0,0,0-2.77,2.77V55.47a2.773,2.773,0,0,0,2.77,2.77h25.85a2.773,2.773,0,0,0,2.77-2.77V53.623a2.773,2.773,0,0,0-2.77-2.77h-.17a2.594,2.594,0,0,0,0-1.846h.17a2.773,2.773,0,0,0,2.77-2.77v-.923h.923a2.773,2.773,0,0,0,2.77-2.77V20.387a2.773,2.773,0,0,0-2.77-2.77H34.077a2.749,2.749,0,0,0-1.958.812l-1.035,1.035h-.541V13.925h5.539V8.386h9.232v5.539ZM12.079,12.079H2.846V2.846h9.232ZM43.468,53.623V55.47a.924.924,0,0,1-.923.923H16.695a.924.924,0,0,1-.923-.923V53.623a.924.924,0,0,1,.923-.923h25.85A.924.924,0,0,1,43.468,53.623ZM40.7,49.93a.924.924,0,0,1-.923.923H19.464a.923.923,0,0,1,0-1.846H39.775A.924.924,0,0,1,40.7,49.93Zm2.77-3.693a.924.924,0,0,1-.923.923H16.695a.924.924,0,0,1-.923-.923V44.391a.924.924,0,0,1,.923-.923h25.85a.924.924,0,0,1,.923.923ZM18.541,40.7a.924.924,0,0,1,.923-.923H39.775a.923.923,0,0,1,0,1.846H19.464A.924.924,0,0,1,18.541,40.7Zm21.234-2.77H16.695a.924.924,0,0,1-.923-.923V35.159a.924.924,0,0,1,.923-.923h25.85a.924.924,0,0,1,.923.923v1.846a.924.924,0,0,1-.923.923Zm6.462,5.539H45.144a2.766,2.766,0,0,0-2.6-1.846h-.17a2.594,2.594,0,0,0,0-1.846h.17a2.773,2.773,0,0,0,2.77-2.77V35.159a2.773,2.773,0,0,0-2.77-2.77H16.695a2.773,2.773,0,0,0-2.77,2.77v1.846a2.773,2.773,0,0,0,2.77,2.77h.17a2.594,2.594,0,0,0,0,1.846h-.17a2.766,2.766,0,0,0-2.6,1.846H13a.924.924,0,0,1-.923-.923V26.85H47.161V42.545A.924.924,0,0,1,46.237,43.468ZM31.848,21.311l1.576-1.576a.932.932,0,0,1,.653-.271H46.237a.924.924,0,0,1,.923.923V25H12.079v-2.77A.924.924,0,0,1,13,21.311Zm2.387-9.232H25V2.846h9.232ZM47.161,2.846h9.232v9.232H47.161Z"/>
      <path id="Trazado_1058366" data-name="Trazado 1058366" d="M53,5h5.539V6.846H53Z" transform="translate(-3.993 -0.307)"/>
      <path id="Trazado_1058367" data-name="Trazado 1058367" d="M53,9h5.539v1.846H53Z" transform="translate(-3.993 -0.614)"/>
      <path id="Trazado_1058368" data-name="Trazado 1058368" d="M15,31h1.846v1.846H15Z" transform="translate(-1.075 -2.304)"/>
      <path id="Trazado_1058369" data-name="Trazado 1058369" d="M19,31h1.846v1.846H19Z" transform="translate(-1.382 -2.304)"/>
      <path id="Trazado_1058370" data-name="Trazado 1058370" d="M23,31h1.846v1.846H23Z" transform="translate(-1.689 -2.304)"/>
    </g>
  </g>
</svg>
