<svg xmlns="http://www.w3.org/2000/svg" xmlns:xlink="http://www.w3.org/1999/xlink" width="113" height="113" viewBox="0 0 113 113">
  <defs>
    <filter id="Trazado_982547" x="0" y="0" width="113" height="113" filterUnits="userSpaceOnUse">
      <feOffset dy="3" input="SourceAlpha"/>
      <feGaussianBlur stdDeviation="3" result="blur"/>
      <feFlood flood-opacity="0.161"/>
      <feComposite operator="in" in2="blur"/>
      <feComposite in="SourceGraphic"/>
    </filter>
  </defs>
  <g id="Grupo_1226632" data-name="Grupo 1226632" transform="translate(-1329.853 -8016.473)">
    <g id="Grupo_1226378" data-name="Grupo 1226378" transform="translate(1338.853 8022.473)">
      <g id="Grupo_1211217" data-name="Grupo 1211217" transform="translate(0)">
        <g id="Grupo_1210736" data-name="Grupo 1210736">
          <g id="Grupo_1210537" data-name="Grupo 1210537">
            <g id="Grupo_1164202" data-name="Grupo 1164202">
              <g id="Grupo_1158168" data-name="Grupo 1158168">
                <g id="Grupo_1152576" data-name="Grupo 1152576">
                  <g id="Grupo_1148633" data-name="Grupo 1148633">
                    <g id="Grupo_1148525" data-name="Grupo 1148525">
                      <g transform="matrix(1, 0, 0, 1, -9, -6)" filter="url(#Trazado_982547)">
                        <g id="Trazado_982547-2" data-name="Trazado 982547" transform="translate(9 6)" fill="#fdf6e4">
                          <path d="M 47.5 93.5 C 41.28937149047852 93.5 35.26533508300781 92.28397369384766 29.59518623352051 89.88570404052734 C 24.11771965026855 87.56893157958984 19.19813346862793 84.25196075439453 14.97309303283691 80.02691650390625 C 10.74804019927979 75.80186462402344 7.431066513061523 70.88229370117188 5.114293098449707 65.40481567382812 C 2.716026782989502 59.73468017578125 1.5 53.71062850952148 1.5 47.5 C 1.5 41.28937149047852 2.716026782989502 35.26533508300781 5.114293098449707 29.59518623352051 C 7.431066513061523 24.11771965026855 10.74804019927979 19.19813346862793 14.97309303283691 14.97309303283691 C 19.19813346862793 10.74804019927979 24.11771965026855 7.431066513061523 29.59518623352051 5.114293098449707 C 35.26533508300781 2.716026782989502 41.28937149047852 1.5 47.5 1.5 C 53.71062850952148 1.5 59.73468017578125 2.716026782989502 65.40481567382812 5.114293098449707 C 70.88229370117188 7.431066513061523 75.80186462402344 10.74804019927979 80.02691650390625 14.97309303283691 C 84.25196075439453 19.19813346862793 87.56893157958984 24.11771965026855 89.88570404052734 29.59518623352051 C 92.28397369384766 35.26533508300781 93.5 41.28937149047852 93.5 47.5 C 93.5 53.71062850952148 92.28397369384766 59.73468017578125 89.88570404052734 65.40481567382812 C 87.56893157958984 70.88229370117188 84.25196075439453 75.80186462402344 80.02691650390625 80.02691650390625 C 75.80186462402344 84.25196075439453 70.88229370117188 87.56893157958984 65.40481567382812 89.88570404052734 C 59.73468017578125 92.28397369384766 53.71062850952148 93.5 47.5 93.5 Z" stroke="none"/>
                          <path d="M 47.5 3 C 41.49121475219727 3 35.66376876831055 4.176155090332031 30.17950439453125 6.495796203613281 C 24.88084411621094 8.736953735351562 20.12152099609375 11.94598388671875 16.03375244140625 16.03375244140625 C 11.94598388671875 20.12152099609375 8.736953735351562 24.88084411621094 6.495796203613281 30.17950439453125 C 4.176155090332031 35.66376876831055 3 41.49121475219727 3 47.5 C 3 53.50878524780273 4.176155090332031 59.33623123168945 6.495796203613281 64.82049560546875 C 8.736953735351562 70.11915588378906 11.94598388671875 74.87847900390625 16.03375244140625 78.96624755859375 C 20.12152099609375 83.05401611328125 24.88084411621094 86.26304626464844 30.17950439453125 88.50419616699219 C 35.66376876831055 90.82384490966797 41.49121475219727 92 47.5 92 C 53.50878524780273 92 59.33623123168945 90.82384490966797 64.82049560546875 88.50419616699219 C 70.11915588378906 86.26304626464844 74.87847900390625 83.05401611328125 78.96624755859375 78.96624755859375 C 83.05401611328125 74.87847900390625 86.26304626464844 70.11915588378906 88.50419616699219 64.82049560546875 C 90.82384490966797 59.33623123168945 92 53.50878524780273 92 47.5 C 92 41.49121475219727 90.82384490966797 35.66376876831055 88.50419616699219 30.17950439453125 C 86.26304626464844 24.88084411621094 83.05401611328125 20.12152099609375 78.96624755859375 16.03375244140625 C 74.87847900390625 11.94598388671875 70.11915588378906 8.736953735351562 64.82049560546875 6.495796203613281 C 59.33623123168945 4.176155090332031 53.50878524780273 3 47.5 3 M 47.5 0 C 73.7335205078125 0 95 21.2664794921875 95 47.5 C 95 73.7335205078125 73.7335205078125 95 47.5 95 C 21.2664794921875 95 0 73.7335205078125 0 47.5 C 0 21.2664794921875 21.2664794921875 0 47.5 0 Z" stroke="none" fill="#f5b104"/>
                        </g>
                      </g>
                    </g>
                  </g>
                </g>
              </g>
            </g>
          </g>
        </g>
      </g>
    </g>
    <g id="red_3_" data-name="red (3)" transform="translate(1350.74 8038.028)">
      <circle id="Elipse_13523" data-name="Elipse 13523" cx="22.901" cy="22.901" r="22.901" transform="translate(12.127 7.95)" fill="#4cbad8"/>
      <path id="Trazado_1058132" data-name="Trazado 1058132" d="M232.214,63.708a23.132,23.132,0,0,0-2.723.162,22.9,22.9,0,0,1,0,45.478,23.138,23.138,0,0,0,2.723.162,22.9,22.9,0,1,0,0-45.8Z" transform="translate(-197.186 -55.758)" fill="#37a6c4"/>
      <circle id="Elipse_13524" data-name="Elipse 13524" cx="13.169" cy="13.169" r="13.169" transform="translate(39.757 36.611)" fill="#e9f6ff"/>
      <path id="Trazado_1058133" data-name="Trazado 1058133" d="M375.647,293.4a13.221,13.221,0,0,0-2.723.283,13.172,13.172,0,0,1,0,25.773,13.17,13.17,0,1,0,2.723-26.056Z" transform="translate(-322.721 -256.789)" fill="#ccdfed"/>
      <g id="Grupo_1226631" data-name="Grupo 1226631" transform="translate(43.24 42.228)">
        <path id="Trazado_1058134" data-name="Trazado 1058134" d="M326.807,442.386a13.134,13.134,0,0,0,9.686-4.248,3.923,3.923,0,0,0-2.213-2.722l-4.167-1.883h0a5.3,5.3,0,0,1-6.612,0h0l-4.167,1.883a3.923,3.923,0,0,0-2.213,2.722A13.134,13.134,0,0,0,326.807,442.386Z" transform="translate(-317.121 -421.664)" fill="#45748c"/>
        <ellipse id="Elipse_13525" data-name="Elipse 13525" cx="4.648" cy="4.941" rx="4.648" ry="4.941" transform="translate(5.039)" fill="#45748c"/>
      </g>
      <circle id="Elipse_13526" data-name="Elipse 13526" cx="3.92" cy="3.92" r="3.92" transform="translate(52.926 20.036)" fill="#88dd76"/>
      <circle id="Elipse_13527" data-name="Elipse 13527" cx="3.92" cy="3.92" r="3.92" transform="translate(9.291 33.826)" fill="#fedb7a"/>
      <circle id="Elipse_13528" data-name="Elipse 13528" cx="3.92" cy="3.92" r="3.92" transform="translate(10.086 5.908)" fill="#d7446c"/>
      <path id="Trazado_1058135" data-name="Trazado 1058135" d="M87.333,85.85a23.934,23.934,0,0,0,.6-8.248,4.858,4.858,0,0,0-2.911-9.223A23.842,23.842,0,0,0,40.372,80.026a24.127,24.127,0,0,0,.123,2.423,4.858,4.858,0,0,0,2.911,9.223,23.77,23.77,0,0,0,20.8,12.194,24.028,24.028,0,0,0,4.519-.43,14.121,14.121,0,0,0,2.938,5,.985.985,0,0,0,.064.079,14.123,14.123,0,0,0,20.753,0,.96.96,0,0,0,.064-.079A14.1,14.1,0,0,0,87.333,85.85ZM58.6,58.792a17.307,17.307,0,0,0-3.162,4.622,29.464,29.464,0,0,0-1.852,4.926c-2.486-.3-4.88-.7-7.144-1.2A22.029,22.029,0,0,1,58.6,58.792ZM45.045,88.281c-.016.031-.033.063-.05.094a3,3,0,0,1-.293.43c-.026.032-.052.062-.078.091a3.015,3.015,0,0,1-.215.219q-.062.057-.128.111l-.053.041q-.05.039-.1.075l-.062.044-.036.024a2.989,2.989,0,0,1-.282.164l-.069.035-.063.029-.08.035a2.98,2.98,0,1,1-1.793-5.662l.111-.023.042-.007c.049-.008.1-.015.146-.021h0l.016,0c.046-.005.092-.009.14-.012l.027,0c.055,0,.111,0,.167,0a2.984,2.984,0,0,1,2.981,2.981c0,.037,0,.074,0,.11s0,.061-.005.1l0,.051c0,.031-.005.059-.008.086q-.008.071-.02.141c-.009.056-.02.111-.032.165-.005.023-.01.046-.016.068l-.013.049c-.016.06-.034.118-.053.176-.014.041-.028.082-.044.122s-.022.058-.034.086l-.007.016C45.109,88.153,45.078,88.218,45.045,88.281Zm1.129,4.276c-.365-.526-.711-1.069-1.032-1.631l.02-.014h0l.005,0a4.839,4.839,0,0,0,.533-.43l.02-.019c.082-.077.161-.156.233-.234l.009-.009c.074-.081.149-.167.22-.256l.023-.029c.069-.088.131-.171.189-.255l.01-.015c.06-.087.119-.181.176-.278l.027-.047c.054-.093.1-.181.143-.267l.013-.025c.034-.07.066-.142.1-.217l.015-.036.018-.041.025-.063.024-.063.02-.054c.02-.056.039-.111.057-.165l.009-.028c.02-.063.038-.13.057-.2q.012-.045.023-.091l.006-.024.017-.072.006-.028c.008-.035.015-.07.022-.106.011-.057.022-.113.03-.165l0-.026v0l0-.013c.008-.055.016-.114.022-.175,0-.041.009-.082.012-.123,0,0,0-.009,0-.014l.006-.08c0-.005,0-.01,0-.015,0-.042.005-.084.007-.126,0-.068,0-.133,0-.195q0-.126-.006-.25a4.855,4.855,0,0,0-4.852-4.609h-.051q-.05-.542-.073-1.084h9.8A43.233,43.233,0,0,0,53.482,91.34C50.941,91.64,48.49,92.048,46.174,92.557Zm1.284,1.675c2.1-.431,4.3-.779,6.582-1.039a28.035,28.035,0,0,0,1.4,3.444,17.3,17.3,0,0,0,3.167,4.627A21.855,21.855,0,0,1,47.458,94.232Zm15.8,7.644c-2.262-.466-4.4-2.581-6.113-6.075a25.778,25.778,0,0,1-1.164-2.807c2.373-.215,4.811-.337,7.276-.362v9.244Zm0-11.149c-2.665.027-5.3.164-7.86.409a41.01,41.01,0,0,1-1.426-10.158h9.286Zm0-11.654H53.973q.018-.91.074-1.8a.952.952,0,0,0-.923-1.012h0a.951.951,0,0,0-.976.891q-.059.954-.079,1.925h-9.8a21.813,21.813,0,0,1,3.05-10.239,73.664,73.664,0,0,0,7.79,1.366q-.264,1.168-.463,2.39a.951.951,0,1,0,1.879.3c.138-.846.3-1.674.487-2.478,2.677.267,5.441.417,8.244.445Zm0-10.12c-2.636-.027-5.236-.162-7.756-.4a27.269,27.269,0,0,1,1.643-4.3c1.709-3.494,3.851-5.61,6.113-6.075Zm20.146,2.763.01-.018c.018-.033.037-.066.057-.1s.035-.055.052-.082a3.037,3.037,0,0,1,.2-.27c.028-.034.056-.066.083-.1a2.989,2.989,0,0,1,.211-.214q.063-.058.129-.112l.05-.039q.051-.04.1-.078l.059-.042.043-.028.084-.054.005,0c.06-.036.121-.07.183-.1l.073-.037.061-.028.082-.036a2.98,2.98,0,1,1,1.792,5.662c-.044.01-.09.019-.141.028l-.011,0c-.049.008-.1.015-.147.021h-.009l-.011,0c-.046.005-.092.009-.14.012l-.021,0h-.006c-.055,0-.11,0-.166,0a2.984,2.984,0,0,1-2.981-2.981c0-.037,0-.073,0-.11s0-.063.005-.1l0-.049c0-.032.006-.061.009-.089s.008-.071.014-.106v0c.006-.038.013-.076.02-.114s.011-.053.017-.082.009-.042.014-.063l.014-.056c.016-.059.033-.117.053-.174.014-.041.028-.081.042-.119s.022-.058.034-.087l.008-.02C83.323,71.878,83.362,71.8,83.406,71.716Zm-.124-2.591-.018.013-.007.005c-.023.016-.046.035-.069.052q-.067.048-.132.1c-.037.029-.074.057-.11.087q-.1.079-.188.163l-.04.034-.014.013c-.082.077-.16.155-.232.233l-.011.011c-.074.081-.148.167-.218.253l-.024.03c-.07.088-.133.173-.187.252l-.013.019c-.06.087-.12.182-.176.278l-.027.046c-.052.091-.1.177-.143.268l0,.007-.009.018c-.033.067-.065.14-.1.215l-.017.041-.018.042-.024.061c-.008.021-.015.041-.023.062l-.021.057c-.02.056-.04.111-.056.162l-.009.029c-.019.062-.038.128-.056.2-.008.031-.016.062-.024.093l-.006.022c-.006.025-.012.051-.017.074l-.005.024c-.008.038-.016.075-.024.113-.011.056-.021.11-.029.162l0,.026c0,.013,0,.026-.005.039q-.01.073-.019.151c0,.042-.009.083-.012.125,0,0,0,.009,0,.014,0,.027,0,.054-.006.079v.012c0,.043-.005.087-.007.131,0,.067,0,.132,0,.194a4.864,4.864,0,0,0,4.858,4.858h.051q.05.542.073,1.084h-9.8A44.324,44.324,0,0,0,75.311,70.2a73.632,73.632,0,0,0,7.8-1.368C83.166,68.931,83.225,69.027,83.282,69.125Zm2.87,11.853a22,22,0,0,1-.608,4.291l-.145-.034-.177-.042-.194-.042-.208-.042-.174-.033c-.093-.017-.186-.032-.28-.048l-.106-.018q-.192-.029-.385-.053l-.13-.015-.271-.029-.149-.013-.259-.02-.148-.009c-.092-.005-.184-.009-.276-.013l-.128,0c-.134,0-.269-.006-.4-.006a14.022,14.022,0,0,0-6.158,1.417,46.389,46.389,0,0,0,.4-5.286ZM82,67.134c-2.267.5-4.666.908-7.156,1.206a29.465,29.465,0,0,0-1.852-4.926,17.3,17.3,0,0,0-3.167-4.627A21.865,21.865,0,0,1,82,67.134ZM65.164,58.175c2.262.466,4.4,2.581,6.113,6.075a27.285,27.285,0,0,1,1.643,4.3c-2.52.243-5.119.378-7.756.4Zm0,12.683c2.8-.028,5.567-.178,8.244-.445a42.236,42.236,0,0,1,1.042,8.66H65.164Zm0,10.12H74.45a43.619,43.619,0,0,1-.622,6.563,14.224,14.224,0,0,0-3.32,3.4c-1.759-.118-3.544-.191-5.345-.209ZM68,98.955q0,.175,0,.349c0,.045,0,.09,0,.136,0,.07,0,.141.008.211,0,.055.006.11.01.165s.007.12.011.18.01.118.015.177.008.094.012.141a6.31,6.31,0,0,1-2.9,1.563V92.632q2.151.022,4.265.143A14.019,14.019,0,0,0,68,98.955Zm20.741,10.271-.072.046-.113.071-.177.109-.014.008a12.261,12.261,0,0,1-5.952,1.722q-.152,0-.305,0t-.305,0a12.261,12.261,0,0,1-5.956-1.724l-.007,0-.185-.113-.106-.066-.079-.051a12.32,12.32,0,0,1-1.988-1.606,3,3,0,0,1,1.539-1.608l3.671-1.659a6.192,6.192,0,0,0,6.831,0L89.2,106.01a3,3,0,0,1,1.539,1.607A12.31,12.31,0,0,1,88.742,109.226Zm3.3-3.142a4.875,4.875,0,0,0-2.073-1.785L85.8,102.417a.938.938,0,0,0-.972.122,4.335,4.335,0,0,1-5.44,0,.939.939,0,0,0-.972-.122L74.25,104.3a4.875,4.875,0,0,0-2.073,1.785,12.185,12.185,0,0,1-1.909-4.064c-.008-.032-.016-.065-.024-.1q-.044-.175-.082-.352c-.014-.063-.027-.125-.04-.188s-.02-.1-.03-.155c-.013-.07-.026-.141-.038-.212-.008-.045-.015-.091-.023-.137q-.022-.136-.04-.273c0-.026-.008-.052-.011-.079q-.023-.179-.041-.359c0-.029-.005-.058-.008-.086q-.013-.139-.023-.278,0-.057-.007-.114-.008-.132-.013-.264c0-.036,0-.071,0-.107,0-.121-.006-.243-.006-.365A12.245,12.245,0,0,1,82.109,86.725c.144,0,.288,0,.432.008l.1,0c.141.006.282.014.422.025l.056,0q.188.015.374.037l.108.012q.2.024.4.055l.112.019q.156.026.312.056l.126.024q.181.037.361.079l.166.041.241.063q.142.039.283.081l.186.057a12.224,12.224,0,0,1,6.253,18.794Z" transform="translate(-29.183 -49.175)"/>
      <path id="Trazado_1058136" data-name="Trazado 1058136" d="M355.558,330.885a5.887,5.887,0,1,0,5.587,5.88A5.746,5.746,0,0,0,355.558,330.885Zm0,9.882a4.014,4.014,0,1,1,3.71-4A3.869,3.869,0,0,1,355.558,340.767Z" transform="translate(-302.632 -289.597)"/>
      <path id="Trazado_1058137" data-name="Trazado 1058137" d="M38.846,59.7a29.444,29.444,0,0,1-3.745.239A29.03,29.03,0,0,1,11.506,14a4.861,4.861,0,0,0,6.666-6.671,29.031,29.031,0,0,1,45.96,23.583,29.3,29.3,0,0,1-.5,5.381.939.939,0,1,0,1.845.346,31.181,31.181,0,0,0,.53-5.727A30.907,30.907,0,0,0,16.9,5.927a4.859,4.859,0,0,0-6.8,6.8A30.908,30.908,0,0,0,35.1,61.817a31.321,31.321,0,0,0,3.985-.255.939.939,0,1,0-.24-1.862ZM11.9,7.72a2.981,2.981,0,1,1-.873,2.108A2.972,2.972,0,0,1,11.9,7.72Z"/>
    </g>
  </g>
</svg>
