<svg xmlns="http://www.w3.org/2000/svg" xmlns:xlink="http://www.w3.org/1999/xlink" width="113" height="113" viewBox="0 0 113 113">
  <defs>
    <filter id="Trazado_982547" x="0" y="0" width="113" height="113" filterUnits="userSpaceOnUse">
      <feOffset dy="3" input="SourceAlpha"/>
      <feGaussianBlur stdDeviation="3" result="blur"/>
      <feFlood flood-opacity="0.161"/>
      <feComposite operator="in" in2="blur"/>
      <feComposite in="SourceGraphic"/>
    </filter>
  </defs>
  <g id="Grupo_1226657" data-name="Grupo 1226657" transform="translate(-4164.529 -7420.607)">
    <g id="Grupo_1226504" data-name="Grupo 1226504" transform="translate(3472 5827.761)">
      <g id="Grupo_1211209" data-name="Grupo 1211209" transform="translate(701.529 1598.846)">
        <g id="Grupo_1210737" data-name="Grupo 1210737" transform="translate(0)">
          <g id="Grupo_1210537" data-name="Grupo 1210537">
            <g id="Grupo_1164202" data-name="Grupo 1164202">
              <g id="Grupo_1158168" data-name="Grupo 1158168">
                <g id="Grupo_1152576" data-name="Grupo 1152576">
                  <g id="Grupo_1148633" data-name="Grupo 1148633">
                    <g id="Grupo_1148525" data-name="Grupo 1148525">
                      <g transform="matrix(1, 0, 0, 1, -9, -6)" filter="url(#Trazado_982547)">
                        <g id="Trazado_982547-2" data-name="Trazado 982547" transform="translate(9 6)" fill="#fdf6e4">
                          <path d="M 47.5 93.5 C 41.28937149047852 93.5 35.26533508300781 92.28397369384766 29.59518623352051 89.88570404052734 C 24.11771965026855 87.56893157958984 19.19813346862793 84.25196075439453 14.97309303283691 80.02691650390625 C 10.74804019927979 75.80186462402344 7.431066513061523 70.88229370117188 5.114293098449707 65.40481567382812 C 2.716026782989502 59.73468017578125 1.5 53.71062850952148 1.5 47.5 C 1.5 41.28937149047852 2.716026782989502 35.26533508300781 5.114293098449707 29.59518623352051 C 7.431066513061523 24.11771965026855 10.74804019927979 19.19813346862793 14.97309303283691 14.97309303283691 C 19.19813346862793 10.74804019927979 24.11771965026855 7.431066513061523 29.59518623352051 5.114293098449707 C 35.26533508300781 2.716026782989502 41.28937149047852 1.5 47.5 1.5 C 53.71062850952148 1.5 59.73468017578125 2.716026782989502 65.40481567382812 5.114293098449707 C 70.88229370117188 7.431066513061523 75.80186462402344 10.74804019927979 80.02691650390625 14.97309303283691 C 84.25196075439453 19.19813346862793 87.56893157958984 24.11771965026855 89.88570404052734 29.59518623352051 C 92.28397369384766 35.26533508300781 93.5 41.28937149047852 93.5 47.5 C 93.5 53.71062850952148 92.28397369384766 59.73468017578125 89.88570404052734 65.40481567382812 C 87.56893157958984 70.88229370117188 84.25196075439453 75.80186462402344 80.02691650390625 80.02691650390625 C 75.80186462402344 84.25196075439453 70.88229370117188 87.56893157958984 65.40481567382812 89.88570404052734 C 59.73468017578125 92.28397369384766 53.71062850952148 93.5 47.5 93.5 Z" stroke="none"/>
                          <path d="M 47.5 3 C 41.49121475219727 3 35.66376876831055 4.176155090332031 30.17950439453125 6.495796203613281 C 24.88084411621094 8.736953735351562 20.12152099609375 11.94598388671875 16.03375244140625 16.03375244140625 C 11.94598388671875 20.12152099609375 8.736953735351562 24.88084411621094 6.495796203613281 30.17950439453125 C 4.176155090332031 35.66376876831055 3 41.49121475219727 3 47.5 C 3 53.50878524780273 4.176155090332031 59.33623123168945 6.495796203613281 64.82049560546875 C 8.736953735351562 70.11915588378906 11.94598388671875 74.87847900390625 16.03375244140625 78.96624755859375 C 20.12152099609375 83.05401611328125 24.88084411621094 86.26304626464844 30.17950439453125 88.50419616699219 C 35.66376876831055 90.82384490966797 41.49121475219727 92 47.5 92 C 53.50878524780273 92 59.33623123168945 90.82384490966797 64.82049560546875 88.50419616699219 C 70.11915588378906 86.26304626464844 74.87847900390625 83.05401611328125 78.96624755859375 78.96624755859375 C 83.05401611328125 74.87847900390625 86.26304626464844 70.11915588378906 88.50419616699219 64.82049560546875 C 90.82384490966797 59.33623123168945 92 53.50878524780273 92 47.5 C 92 41.49121475219727 90.82384490966797 35.66376876831055 88.50419616699219 30.17950439453125 C 86.26304626464844 24.88084411621094 83.05401611328125 20.12152099609375 78.96624755859375 16.03375244140625 C 74.87847900390625 11.94598388671875 70.11915588378906 8.736953735351562 64.82049560546875 6.495796203613281 C 59.33623123168945 4.176155090332031 53.50878524780273 3 47.5 3 M 47.5 0 C 73.7335205078125 0 95 21.2664794921875 95 47.5 C 95 73.7335205078125 73.7335205078125 95 47.5 95 C 21.2664794921875 95 0 73.7335205078125 0 47.5 C 0 21.2664794921875 21.2664794921875 0 47.5 0 Z" stroke="none" fill="#f5b104"/>
                        </g>
                      </g>
                    </g>
                  </g>
                </g>
              </g>
            </g>
          </g>
        </g>
      </g>
    </g>
    <g id="database" transform="translate(4189 7442)">
      <path id="Trazado_1058313" data-name="Trazado 1058313" d="M39,28V38c0,2.76-8.06,5-18,5S3,40.76,3,38V28c0,2.76,8.06,5,18,5S39,30.76,39,28Z" fill="#c0ab91"/>
      <path id="Trazado_1058314" data-name="Trazado 1058314" d="M61,30v6l-4.56.76a13.086,13.086,0,0,1-.98,2.38l2.68,3.76L53.9,47.14l-3.19-2.27A2.014,2.014,0,0,0,52,43V35a1.97,1.97,0,0,0-.11-.65A8.579,8.579,0,0,0,52,33a8,8,0,0,0-13-6.24V21a13.009,13.009,0,0,1,1.24-.44L41,16h6l.76,4.56a13.086,13.086,0,0,1,2.38.98l3.76-2.68,4.24,4.24-2.68,3.76a13.086,13.086,0,0,1,.98,2.38Z" fill="#ffeb99"/>
      <rect id="Rect치ngulo_422537" data-name="Rect치ngulo 422537" width="40" height="12" rx="2" transform="translate(12 49)" fill="#57a4ff"/>
      <path id="Trazado_1058315" data-name="Trazado 1058315" d="M52,51v8a2.006,2.006,0,0,1-2,2H46a2.006,2.006,0,0,0,2-2V51a2.006,2.006,0,0,0-2-2h4A2.006,2.006,0,0,1,52,51Z" fill="#2488ff"/>
      <path id="Trazado_1058316" data-name="Trazado 1058316" d="M52,33a8.58,8.58,0,0,1-.11,1.35A2.013,2.013,0,0,0,50,33H39V26.76A8,8,0,0,1,52,33Z" fill="#c6c5ca"/>
      <path id="Trazado_1058317" data-name="Trazado 1058317" d="M52,33a8.58,8.58,0,0,1-.11,1.35A2.013,2.013,0,0,0,50,33H48a8.017,8.017,0,0,0-5.98-7.75A8,8,0,0,1,52,33Z" fill="#acabb1"/>
      <path id="Trazado_1058318" data-name="Trazado 1058318" d="M42,45h6v4H42Z" fill="#c6c5ca"/>
      <path id="Trazado_1058319" data-name="Trazado 1058319" d="M39,18V28c0,2.76-8.06,5-18,5S3,30.76,3,28V18c0,2.76,8.06,5,18,5S39,20.76,39,18Z" fill="#c0ab91"/>
      <path id="Trazado_1058320" data-name="Trazado 1058320" d="M39,8V18c0,2.76-8.06,5-18,5S3,20.76,3,18V8c0,2.76,8.06,5,18,5S39,10.76,39,8Z" fill="#c0ab91"/>
      <ellipse id="Elipse_13541" data-name="Elipse 13541" cx="18" cy="5" rx="18" ry="5" transform="translate(3 3)" fill="#ffcd00"/>
      <g id="Grupo_1226656" data-name="Grupo 1226656">
        <path id="Trazado_1058321" data-name="Trazado 1058321" d="M39,28V38c0,2.76-8.06,5-18,5-.68,0-1.34-.01-2-.04,9-.27,16-2.39,16-4.96V31.14C37.5,30.28,39,29.19,39,28Z" fill="#b39a7c"/>
        <path id="Trazado_1058322" data-name="Trazado 1058322" d="M39,18V28c0,1.19-1.5,2.28-4,3.14v-10C37.5,20.28,39,19.19,39,18Z" fill="#b39a7c"/>
        <path id="Trazado_1058323" data-name="Trazado 1058323" d="M39,8V18c0,1.19-1.5,2.28-4,3.14v-10c2.5-.86,4-1.95,4-3.14Z" fill="#b39a7c"/>
      </g>
      <path id="Trazado_1058324" data-name="Trazado 1058324" d="M39,8c0,2.76-8.06,5-18,5-.68,0-1.34-.01-2-.04,9-.27,16-2.39,16-4.96S28,3.31,19,3.04c.66-.03,1.32-.04,2-.04C30.94,3,39,5.24,39,8Z" fill="#ebbf00"/>
      <path id="Trazado_1058325" data-name="Trazado 1058325" d="M24,53h4v4H24Z" fill="#ffeb99"/>
      <rect id="Rect치ngulo_422538" data-name="Rect치ngulo 422538" width="40" height="12" rx="2" transform="translate(12 33)" fill="#57a4ff"/>
      <path id="Trazado_1058326" data-name="Trazado 1058326" d="M52,35v8a2.006,2.006,0,0,1-2,2H46a2.006,2.006,0,0,0,2-2V35a2.006,2.006,0,0,0-2-2h4A2.006,2.006,0,0,1,52,35Z" fill="#2488ff"/>
      <path id="Trazado_1058327" data-name="Trazado 1058327" d="M24,37h4v4H24Z" fill="#ffeb99"/>
      <path id="Trazado_1058328" data-name="Trazado 1058328" d="M16,45h6v4H16Z" fill="#c6c5ca"/>
      <path id="Trazado_1058329" data-name="Trazado 1058329" d="M16,53h4v4H16Z" fill="#ffeb99"/>
      <path id="Trazado_1058330" data-name="Trazado 1058330" d="M16,37h4v4H16Z" fill="#ffeb99"/>
      <path id="Trazado_1058331" data-name="Trazado 1058331" d="M20,36H16a1,1,0,0,0-1,1v4a1,1,0,0,0,1,1h4a1,1,0,0,0,1-1V37A1,1,0,0,0,20,36Zm-1,4H17V38h2Z"/>
      <path id="Trazado_1058332" data-name="Trazado 1058332" d="M28,36H24a1,1,0,0,0-1,1v4a1,1,0,0,0,1,1h4a1,1,0,0,0,1-1V37A1,1,0,0,0,28,36Zm-1,4H25V38h2Z"/>
      <path id="Trazado_1058333" data-name="Trazado 1058333" d="M31,36H45v2H31Z"/>
      <path id="Trazado_1058334" data-name="Trazado 1058334" d="M47,36h2v2H47Z"/>
      <path id="Trazado_1058335" data-name="Trazado 1058335" d="M31,40H45v2H31Z"/>
      <path id="Trazado_1058336" data-name="Trazado 1058336" d="M47,40h2v2H47Z"/>
      <path id="Trazado_1058337" data-name="Trazado 1058337" d="M16,58h4a1,1,0,0,0,1-1V53a1,1,0,0,0-1-1H16a1,1,0,0,0-1,1v4A1,1,0,0,0,16,58Zm1-4h2v2H17Z"/>
      <path id="Trazado_1058338" data-name="Trazado 1058338" d="M24,58h4a1,1,0,0,0,1-1V53a1,1,0,0,0-1-1H24a1,1,0,0,0-1,1v4A1,1,0,0,0,24,58Zm1-4h2v2H25Z"/>
      <path id="Trazado_1058339" data-name="Trazado 1058339" d="M31,52H45v2H31Z"/>
      <path id="Trazado_1058340" data-name="Trazado 1058340" d="M47,52h2v2H47Z"/>
      <path id="Trazado_1058341" data-name="Trazado 1058341" d="M31,56H45v2H31Z"/>
      <path id="Trazado_1058342" data-name="Trazado 1058342" d="M47,56h2v2H47Z"/>
      <path id="Trazado_1058343" data-name="Trazado 1058343" d="M61.16,29.01l-3.96-.66a11.452,11.452,0,0,0-.58-1.4l2.33-3.27a1,1,0,0,0-.1-1.29l-4.24-4.24a1,1,0,0,0-1.29-.1l-3.27,2.33a14.227,14.227,0,0,0-1.4-.58l-.66-3.96A1,1,0,0,0,47,15H41a1,1,0,0,0-.99.84l-.01.08V8c0-3.94-9.56-6-19-6S2,4.06,2,8V38c0,3.03,5.32,4.51,9.02,5.18A2.991,2.991,0,0,0,14,46h1v2H14a3.009,3.009,0,0,0-3,3v8a3.009,3.009,0,0,0,3,3H50a3.009,3.009,0,0,0,3-3V51a3.009,3.009,0,0,0-3-3H49V46h1a2.734,2.734,0,0,0,.5-.05l2.82,2.01a1.042,1.042,0,0,0,.58.18,1.024,1.024,0,0,0,.71-.29l4.24-4.24a1,1,0,0,0,.1-1.29l-2.33-3.27a11.451,11.451,0,0,0,.58-1.4l3.96-.66A1,1,0,0,0,62,36V30a1,1,0,0,0-.84-.99ZM40,27.29a6.959,6.959,0,0,1,10.95,4.88A3.012,3.012,0,0,0,50,32H40ZM21,4C32,4,38,6.64,38,8s-6,4-17,4S4,9.36,4,8,10,4,21,4ZM4,10.82C7.29,12.91,14.16,14,21,14s13.71-1.09,17-3.18V18c0,1.36-6,4-17,4S4,19.36,4,18ZM11,35v6.14C5.93,40.18,4,38.73,4,38V30.82a21.482,21.482,0,0,0,7.56,2.44A2.985,2.985,0,0,0,11,35ZM4,28V20.82C7.29,22.91,14.16,24,21,24s13.71-1.09,17-3.18V28c0,1.36-6,4-17,4S4,29.36,4,28Zm34,2.82V32H35.52A12.469,12.469,0,0,0,38,30.82ZM50,50a1,1,0,0,1,1,1v8a1,1,0,0,1-1,1H14a1,1,0,0,1-1-1V51a1,1,0,0,1,1-1ZM17,48V46h4v2Zm6,0V46H41v2Zm20,0V46h4v2Zm8-5a1,1,0,0,1-1,1H14a1,1,0,0,1-1-1V35a1,1,0,0,1,1-1H50a1,1,0,0,1,1,1Zm9-7.85-3.72.62a1.025,1.025,0,0,0-.8.7,11.81,11.81,0,0,1-.9,2.2.976.976,0,0,0,.07,1.05l2.18,3.07-3.04,3.04-1.42-1.01A2.972,2.972,0,0,0,53,43V35a2.844,2.844,0,0,0-.1-.72A9.318,9.318,0,0,0,53,33a8.98,8.98,0,0,0-13-8.05V21.71a4.928,4.928,0,0,1,.54-.19,1.028,1.028,0,0,0,.69-.8L41.85,17h4.3l.62,3.72a1.025,1.025,0,0,0,.7.8,12.1,12.1,0,0,1,2.2.9,1,1,0,0,0,1.05-.07l3.07-2.18,3.04,3.04-2.18,3.07a.976.976,0,0,0-.07,1.05,11.81,11.81,0,0,1,.9,2.2,1.025,1.025,0,0,0,.8.7l3.72.62Z"/>
      <path id="Trazado_1058344" data-name="Trazado 1058344" d="M6,48H4v8a1,1,0,0,0,1,1H9V55H6Z"/>
      <path id="Trazado_1058345" data-name="Trazado 1058345" d="M61,4H45V6H60v9.586l-2.707,2.707,1.414,1.414,3-3A1,1,0,0,0,62,16V5A1,1,0,0,0,61,4Z"/>
      <path id="Trazado_1058346" data-name="Trazado 1058346" d="M41,4h2V6H41Z"/>
      <path id="Trazado_1058347" data-name="Trazado 1058347" d="M4,44H6v2H4Z"/>
    </g>
  </g>
</svg>
