<svg xmlns="http://www.w3.org/2000/svg" xmlns:xlink="http://www.w3.org/1999/xlink" width="113" height="113" viewBox="0 0 113 113">
  <defs>
    <filter id="Trazado_982547" x="0" y="0" width="113" height="113" filterUnits="userSpaceOnUse">
      <feOffset dy="3" input="SourceAlpha"/>
      <feGaussianBlur stdDeviation="3" result="blur"/>
      <feFlood flood-opacity="0.161"/>
      <feComposite operator="in" in2="blur"/>
      <feComposite in="SourceGraphic"/>
    </filter>
  </defs>
  <g id="Grupo_1226689" data-name="Grupo 1226689" transform="translate(-813.166 -9887.012)">
    <g id="Grupo_1226509" data-name="Grupo 1226509" transform="translate(822.166 9893.012)">
      <g id="Grupo_1211208" data-name="Grupo 1211208" transform="translate(0)">
        <g id="Grupo_1210736" data-name="Grupo 1210736">
          <g id="Grupo_1210537" data-name="Grupo 1210537">
            <g id="Grupo_1164202" data-name="Grupo 1164202">
              <g id="Grupo_1158168" data-name="Grupo 1158168">
                <g id="Grupo_1152576" data-name="Grupo 1152576">
                  <g id="Grupo_1148633" data-name="Grupo 1148633">
                    <g id="Grupo_1148525" data-name="Grupo 1148525">
                      <g transform="matrix(1, 0, 0, 1, -9, -6)" filter="url(#Trazado_982547)">
                        <g id="Trazado_982547-2" data-name="Trazado 982547" transform="translate(9 6)" fill="#fdf6e4">
                          <path d="M 47.5 93.5 C 41.28937149047852 93.5 35.26533508300781 92.28397369384766 29.59518623352051 89.88570404052734 C 24.11771965026855 87.56893157958984 19.19813346862793 84.25196075439453 14.97309303283691 80.02691650390625 C 10.74804019927979 75.80186462402344 7.431066513061523 70.88229370117188 5.114293098449707 65.40481567382812 C 2.716026782989502 59.73468017578125 1.5 53.71062850952148 1.5 47.5 C 1.5 41.28937149047852 2.716026782989502 35.26533508300781 5.114293098449707 29.59518623352051 C 7.431066513061523 24.11771965026855 10.74804019927979 19.19813346862793 14.97309303283691 14.97309303283691 C 19.19813346862793 10.74804019927979 24.11771965026855 7.431066513061523 29.59518623352051 5.114293098449707 C 35.26533508300781 2.716026782989502 41.28937149047852 1.5 47.5 1.5 C 53.71062850952148 1.5 59.73468017578125 2.716026782989502 65.40481567382812 5.114293098449707 C 70.88229370117188 7.431066513061523 75.80186462402344 10.74804019927979 80.02691650390625 14.97309303283691 C 84.25196075439453 19.19813346862793 87.56893157958984 24.11771965026855 89.88570404052734 29.59518623352051 C 92.28397369384766 35.26533508300781 93.5 41.28937149047852 93.5 47.5 C 93.5 53.71062850952148 92.28397369384766 59.73468017578125 89.88570404052734 65.40481567382812 C 87.56893157958984 70.88229370117188 84.25196075439453 75.80186462402344 80.02691650390625 80.02691650390625 C 75.80186462402344 84.25196075439453 70.88229370117188 87.56893157958984 65.40481567382812 89.88570404052734 C 59.73468017578125 92.28397369384766 53.71062850952148 93.5 47.5 93.5 Z" stroke="none"/>
                          <path d="M 47.5 3 C 41.49121475219727 3 35.66376876831055 4.176155090332031 30.17950439453125 6.495796203613281 C 24.88084411621094 8.736953735351562 20.12152099609375 11.94598388671875 16.03375244140625 16.03375244140625 C 11.94598388671875 20.12152099609375 8.736953735351562 24.88084411621094 6.495796203613281 30.17950439453125 C 4.176155090332031 35.66376876831055 3 41.49121475219727 3 47.5 C 3 53.50878524780273 4.176155090332031 59.33623123168945 6.495796203613281 64.82049560546875 C 8.736953735351562 70.11915588378906 11.94598388671875 74.87847900390625 16.03375244140625 78.96624755859375 C 20.12152099609375 83.05401611328125 24.88084411621094 86.26304626464844 30.17950439453125 88.50419616699219 C 35.66376876831055 90.82384490966797 41.49121475219727 92 47.5 92 C 53.50878524780273 92 59.33623123168945 90.82384490966797 64.82049560546875 88.50419616699219 C 70.11915588378906 86.26304626464844 74.87847900390625 83.05401611328125 78.96624755859375 78.96624755859375 C 83.05401611328125 74.87847900390625 86.26304626464844 70.11915588378906 88.50419616699219 64.82049560546875 C 90.82384490966797 59.33623123168945 92 53.50878524780273 92 47.5 C 92 41.49121475219727 90.82384490966797 35.66376876831055 88.50419616699219 30.17950439453125 C 86.26304626464844 24.88084411621094 83.05401611328125 20.12152099609375 78.96624755859375 16.03375244140625 C 74.87847900390625 11.94598388671875 70.11915588378906 8.736953735351562 64.82049560546875 6.495796203613281 C 59.33623123168945 4.176155090332031 53.50878524780273 3 47.5 3 M 47.5 0 C 73.7335205078125 0 95 21.2664794921875 95 47.5 C 95 73.7335205078125 73.7335205078125 95 47.5 95 C 21.2664794921875 95 0 73.7335205078125 0 47.5 C 0 21.2664794921875 21.2664794921875 0 47.5 0 Z" stroke="none" fill="#f5b104"/>
                        </g>
                      </g>
                    </g>
                  </g>
                </g>
              </g>
            </g>
          </g>
        </g>
      </g>
    </g>
    <g id="server_15579308" transform="translate(836.88 9908.883)">
      <g id="Color" transform="translate(2.579 3.579)">
        <circle id="Elipse_13542" data-name="Elipse 13542" cx="4.315" cy="4.315" r="4.315" transform="translate(0 40.996)" fill="#ffc943"/>
        <circle id="Elipse_13543" data-name="Elipse 13543" cx="4.315" cy="4.315" r="4.315" transform="translate(51.784 40.996)" fill="#ffc943"/>
        <path id="Trazado_1058443" data-name="Trazado 1058443" d="M49.153,13.788V5.158A2.164,2.164,0,0,0,47,3H8.158A2.164,2.164,0,0,0,6,5.158v8.631a2.164,2.164,0,0,0,2.158,2.158A2.164,2.164,0,0,0,6,18.1v8.631a2.164,2.164,0,0,0,2.158,2.158H47a2.164,2.164,0,0,0,2.158-2.158V18.1A2.164,2.164,0,0,0,47,15.946,2.164,2.164,0,0,0,49.153,13.788ZM12.473,24.577a2.158,2.158,0,1,1,2.158-2.158A2.164,2.164,0,0,1,12.473,24.577Zm0-17.261a2.158,2.158,0,1,1-2.158,2.158A2.164,2.164,0,0,1,12.473,7.315Z" transform="translate(2.631 -3)" fill="#43b3ff"/>
        <circle id="Elipse_13544" data-name="Elipse 13544" cx="2.158" cy="2.158" r="2.158" transform="translate(12.946 4.315)" fill="#f2f2f2"/>
        <circle id="Elipse_13545" data-name="Elipse 13545" cx="2.158" cy="2.158" r="2.158" transform="translate(12.946 17.261)" fill="#f2f2f2"/>
        <circle id="Elipse_13546" data-name="Elipse 13546" cx="10.788" cy="10.788" r="10.788" transform="translate(19.419 34.523)" fill="#f45151"/>
      </g>
      <g id="Line" transform="translate(1.5 2.5)">
        <g id="Grupo_1226688" data-name="Grupo 1226688">
          <path id="Trazado_1058444" data-name="Trazado 1058444" d="M27.39,24.265a1.078,1.078,0,0,0,1.079,1.079H31.52A1.078,1.078,0,0,0,32.6,24.265V21.214a1.079,1.079,0,0,0-2.158,0v.5a11.811,11.811,0,1,0,3.793,8.65,1.079,1.079,0,0,0-2.158,0,9.8,9.8,0,1,1-3.229-7.181h-.379a1.078,1.078,0,0,0-1.079,1.079Z" transform="translate(8.919 16.023)" fill-rule="evenodd"/>
          <path id="Trazado_1058445" data-name="Trazado 1058445" d="M16.579,21.5A1.078,1.078,0,0,0,15.5,22.579v4.315a1.078,1.078,0,0,0,.316.763l2.158,2.158A1.079,1.079,0,0,0,19.5,28.289l-1.842-1.842V22.579A1.078,1.078,0,0,0,16.579,21.5Z" transform="translate(14.707 19.496)" fill-rule="evenodd"/>
          <path id="Trazado_1058446" data-name="Trazado 1058446" d="M1.5,26.894a5.394,5.394,0,0,0,10.679,1.079h5.5a1.079,1.079,0,1,0,0-2.158h-5.5A5.394,5.394,0,0,0,1.5,26.894Zm8.631,0a3.236,3.236,0,1,1-3.236-3.236A3.24,3.24,0,0,1,10.131,26.894Z" transform="translate(-1.5 19.496)" fill-rule="evenodd"/>
          <path id="Trazado_1058447" data-name="Trazado 1058447" d="M34.367,21.5a5.4,5.4,0,0,0-5.285,4.315h-5.5a1.079,1.079,0,1,0,0,2.158h5.5A5.394,5.394,0,1,0,34.367,21.5Zm0,8.631A3.236,3.236,0,1,1,37.6,26.894,3.24,3.24,0,0,1,34.367,30.131Z" transform="translate(22.811 19.496)" fill-rule="evenodd"/>
          <path id="Trazado_1058448" data-name="Trazado 1058448" d="M5.5,27.313A3.24,3.24,0,0,0,8.736,30.55h18.34v3.236a1.079,1.079,0,1,0,2.158,0V30.55h18.34a3.24,3.24,0,0,0,3.236-3.236V18.682a3.212,3.212,0,0,0-.842-2.158,3.212,3.212,0,0,0,.842-2.158V5.736A3.24,3.24,0,0,0,47.574,2.5H8.736A3.24,3.24,0,0,0,5.5,5.736v8.631a3.212,3.212,0,0,0,.842,2.158A3.212,3.212,0,0,0,5.5,18.682ZM7.658,5.736A1.08,1.08,0,0,1,8.736,4.658H47.574a1.08,1.08,0,0,1,1.079,1.079v8.631a1.08,1.08,0,0,1-1.079,1.079h-15.1a1.079,1.079,0,0,0,0,2.158h15.1a1.08,1.08,0,0,1,1.079,1.079v8.631a1.08,1.08,0,0,1-1.079,1.079H8.736a1.08,1.08,0,0,1-1.079-1.079V18.682A1.08,1.08,0,0,1,8.736,17.6h15.1a1.079,1.079,0,1,0,0-2.158H8.736a1.08,1.08,0,0,1-1.079-1.079Z" transform="translate(3.131 -2.5)" fill-rule="evenodd"/>
          <path id="Trazado_1058449" data-name="Trazado 1058449" d="M10.736,10.973A3.236,3.236,0,1,0,7.5,7.736,3.24,3.24,0,0,0,10.736,10.973Zm0-4.315A1.079,1.079,0,1,1,9.658,7.736,1.08,1.08,0,0,1,10.736,6.658Z" transform="translate(5.446 -0.185)" fill-rule="evenodd"/>
          <path id="Trazado_1058450" data-name="Trazado 1058450" d="M10.736,10.5a3.236,3.236,0,1,0,3.236,3.236A3.24,3.24,0,0,0,10.736,10.5Zm0,4.315a1.079,1.079,0,1,1,1.079-1.079A1.08,1.08,0,0,1,10.736,14.815Z" transform="translate(5.446 6.761)" fill-rule="evenodd"/>
          <path id="Trazado_1058451" data-name="Trazado 1058451" d="M12.579,7.658H38.471a1.079,1.079,0,1,0,0-2.158H12.579a1.079,1.079,0,0,0,0,2.158Z" transform="translate(10.077 0.973)" fill-rule="evenodd"/>
          <path id="Trazado_1058452" data-name="Trazado 1058452" d="M11.5,12.579a1.078,1.078,0,0,0,1.079,1.079H38.471a1.079,1.079,0,1,0,0-2.158H12.579A1.078,1.078,0,0,0,11.5,12.579Z" transform="translate(10.077 7.919)" fill-rule="evenodd"/>
        </g>
        <ellipse id="Elipse_13547" data-name="Elipse 13547" cx="0.616" cy="1.233" rx="0.616" ry="1.233" transform="translate(30.522 12.647)"/>
      </g>
    </g>
  </g>
</svg>
