<svg xmlns="http://www.w3.org/2000/svg" xmlns:xlink="http://www.w3.org/1999/xlink" width="113" height="113" viewBox="0 0 113 113">
  <defs>
    <filter id="Trazado_982547" x="0" y="0" width="113" height="113" filterUnits="userSpaceOnUse">
      <feOffset dy="3" input="SourceAlpha"/>
      <feGaussianBlur stdDeviation="3" result="blur"/>
      <feFlood flood-opacity="0.161"/>
      <feComposite operator="in" in2="blur"/>
      <feComposite in="SourceGraphic"/>
    </filter>
  </defs>
  <g id="Grupo_1226717" data-name="Grupo 1226717" transform="translate(-4176.51 -10269.607)">
    <g id="Grupo_1226514" data-name="Grupo 1226514" transform="translate(4185.51 10275.607)">
      <g id="Grupo_1211208" data-name="Grupo 1211208" transform="translate(0)">
        <g id="Grupo_1210736" data-name="Grupo 1210736">
          <g id="Grupo_1210537" data-name="Grupo 1210537">
            <g id="Grupo_1164202" data-name="Grupo 1164202">
              <g id="Grupo_1158168" data-name="Grupo 1158168">
                <g id="Grupo_1152576" data-name="Grupo 1152576">
                  <g id="Grupo_1148633" data-name="Grupo 1148633">
                    <g id="Grupo_1148525" data-name="Grupo 1148525">
                      <g transform="matrix(1, 0, 0, 1, -9, -6)" filter="url(#Trazado_982547)">
                        <g id="Trazado_982547-2" data-name="Trazado 982547" transform="translate(9 6)" fill="#fdf6e4">
                          <path d="M 47.5 93.5 C 41.28937149047852 93.5 35.26533508300781 92.28397369384766 29.59518623352051 89.88570404052734 C 24.11771965026855 87.56893157958984 19.19813346862793 84.25196075439453 14.97309303283691 80.02691650390625 C 10.74804019927979 75.80186462402344 7.431066513061523 70.88229370117188 5.114293098449707 65.40481567382812 C 2.716026782989502 59.73468017578125 1.5 53.71062850952148 1.5 47.5 C 1.5 41.28937149047852 2.716026782989502 35.26533508300781 5.114293098449707 29.59518623352051 C 7.431066513061523 24.11771965026855 10.74804019927979 19.19813346862793 14.97309303283691 14.97309303283691 C 19.19813346862793 10.74804019927979 24.11771965026855 7.431066513061523 29.59518623352051 5.114293098449707 C 35.26533508300781 2.716026782989502 41.28937149047852 1.5 47.5 1.5 C 53.71062850952148 1.5 59.73468017578125 2.716026782989502 65.40481567382812 5.114293098449707 C 70.88229370117188 7.431066513061523 75.80186462402344 10.74804019927979 80.02691650390625 14.97309303283691 C 84.25196075439453 19.19813346862793 87.56893157958984 24.11771965026855 89.88570404052734 29.59518623352051 C 92.28397369384766 35.26533508300781 93.5 41.28937149047852 93.5 47.5 C 93.5 53.71062850952148 92.28397369384766 59.73468017578125 89.88570404052734 65.40481567382812 C 87.56893157958984 70.88229370117188 84.25196075439453 75.80186462402344 80.02691650390625 80.02691650390625 C 75.80186462402344 84.25196075439453 70.88229370117188 87.56893157958984 65.40481567382812 89.88570404052734 C 59.73468017578125 92.28397369384766 53.71062850952148 93.5 47.5 93.5 Z" stroke="none"/>
                          <path d="M 47.5 3 C 41.49121475219727 3 35.66376876831055 4.176155090332031 30.17950439453125 6.495796203613281 C 24.88084411621094 8.736953735351562 20.12152099609375 11.94598388671875 16.03375244140625 16.03375244140625 C 11.94598388671875 20.12152099609375 8.736953735351562 24.88084411621094 6.495796203613281 30.17950439453125 C 4.176155090332031 35.66376876831055 3 41.49121475219727 3 47.5 C 3 53.50878524780273 4.176155090332031 59.33623123168945 6.495796203613281 64.82049560546875 C 8.736953735351562 70.11915588378906 11.94598388671875 74.87847900390625 16.03375244140625 78.96624755859375 C 20.12152099609375 83.05401611328125 24.88084411621094 86.26304626464844 30.17950439453125 88.50419616699219 C 35.66376876831055 90.82384490966797 41.49121475219727 92 47.5 92 C 53.50878524780273 92 59.33623123168945 90.82384490966797 64.82049560546875 88.50419616699219 C 70.11915588378906 86.26304626464844 74.87847900390625 83.05401611328125 78.96624755859375 78.96624755859375 C 83.05401611328125 74.87847900390625 86.26304626464844 70.11915588378906 88.50419616699219 64.82049560546875 C 90.82384490966797 59.33623123168945 92 53.50878524780273 92 47.5 C 92 41.49121475219727 90.82384490966797 35.66376876831055 88.50419616699219 30.17950439453125 C 86.26304626464844 24.88084411621094 83.05401611328125 20.12152099609375 78.96624755859375 16.03375244140625 C 74.87847900390625 11.94598388671875 70.11915588378906 8.736953735351562 64.82049560546875 6.495796203613281 C 59.33623123168945 4.176155090332031 53.50878524780273 3 47.5 3 M 47.5 0 C 73.7335205078125 0 95 21.2664794921875 95 47.5 C 95 73.7335205078125 73.7335205078125 95 47.5 95 C 21.2664794921875 95 0 73.7335205078125 0 47.5 C 0 21.2664794921875 21.2664794921875 0 47.5 0 Z" stroke="none" fill="#f5b104"/>
                        </g>
                      </g>
                    </g>
                  </g>
                </g>
              </g>
            </g>
          </g>
        </g>
      </g>
    </g>
    <g id="secure_1410398" transform="translate(4203.589 10293.686)">
      <path id="Trazado_1058521" data-name="Trazado 1058521" d="M61.006,401.066v4.9c0,1.079-2.2,1.961-4.9,1.961s-4.9-.883-4.9-1.961v-4.9c0,1.079,2.2,1.961,4.9,1.961S61.006,402.145,61.006,401.066Zm0,0" transform="translate(-45.315 -354.972)" fill="#607d8b"/>
      <path id="Trazado_1058522" data-name="Trazado 1058522" d="M61.006,443.734v4.9c0,1.079-2.2,1.961-4.9,1.961s-4.9-.883-4.9-1.961v-4.9c0,1.079,2.2,1.961,4.9,1.961S61.006,444.813,61.006,443.734Zm0,0" transform="translate(-45.315 -392.737)" fill="#37474f"/>
      <path id="Trazado_1058523" data-name="Trazado 1058523" d="M223.139,401.066v4.9c0,1.079-2.2,1.961-4.9,1.961s-4.9-.883-4.9-1.961v-4.9c0,1.079,2.2,1.961,4.9,1.961S223.139,402.145,223.139,401.066Zm0,0" transform="translate(-188.815 -354.972)" fill="#607d8b"/>
      <path id="Trazado_1058524" data-name="Trazado 1058524" d="M223.139,443.734v4.9c0,1.079-2.2,1.961-4.9,1.961s-4.9-.883-4.9-1.961v-4.9c0,1.079,2.2,1.961,4.9,1.961S223.139,444.813,223.139,443.734Zm0,0" transform="translate(-188.815 -392.737)" fill="#37474f"/>
      <path id="Trazado_1058525" data-name="Trazado 1058525" d="M385.272,401.066v4.9c0,1.079-2.2,1.961-4.9,1.961a11.61,11.61,0,0,1-1.461-.089h-.02c-1.981-.255-3.423-1-3.423-1.873v-4.9c0,.873,1.442,1.618,3.423,1.873h.02a11.609,11.609,0,0,0,1.461.088,11.177,11.177,0,0,0,1.961-.167C384.056,402.557,385.272,401.87,385.272,401.066Zm0,0" transform="translate(-332.314 -354.972)" fill="#37474f"/>
      <path id="Trazado_1058526" data-name="Trazado 1058526" d="M382.33,416.684v3.109c0,.873-1.442,1.618-3.423,1.873h-.02c-1.981-.255-3.423-1-3.423-1.873v-3.109a11.177,11.177,0,0,0,1.962.167,11.58,11.58,0,0,0,1.461-.088h.02a11.592,11.592,0,0,0,1.461.088,11.167,11.167,0,0,0,1.961-.167Zm0,0" transform="translate(-332.314 -368.795)" fill="#607d8b"/>
      <path id="Trazado_1058527" data-name="Trazado 1058527" d="M385.272,443.734v4.9c0,1.079-2.2,1.961-4.9,1.961s-4.9-.883-4.9-1.961v-4.9c0,1.079,2.2,1.961,4.9,1.961S385.272,444.813,385.272,443.734Zm0,0" transform="translate(-332.314 -392.737)" fill="#37474f"/>
      <path id="Trazado_1058528" data-name="Trazado 1058528" d="M337.31,50.514V69.147a.981.981,0,0,1-.98.981H317.7a.981.981,0,0,1-.981-.981V66.205l-.98-23.537h13.73Zm0,0" transform="translate(-279.448 -37.764)" fill="#f57c00"/>
      <path id="Trazado_1058529" data-name="Trazado 1058529" d="M334.368,50.514V69.147a.981.981,0,0,1-.981.981H317.7a.981.981,0,0,1-.981-.981V66.205l-.98-23.537h13.73Zm0,0" transform="translate(-279.448 -37.764)" fill="#ff9801"/>
      <path id="Trazado_1058530" data-name="Trazado 1058530" d="M61.006,385.961c0-1.083-2.2-1.961-4.9-1.961s-4.9.878-4.9,1.961,2.2,1.961,4.9,1.961S61.006,387.044,61.006,385.961Zm0,0" transform="translate(-45.315 -339.867)" fill="#607d8b"/>
      <path id="Trazado_1058531" data-name="Trazado 1058531" d="M223.139,385.961c0-1.083-2.2-1.961-4.9-1.961s-4.9.878-4.9,1.961,2.2,1.961,4.9,1.961S223.139,387.044,223.139,385.961Zm0,0" transform="translate(-188.815 -339.867)" fill="#607d8b"/>
      <path id="Trazado_1058532" data-name="Trazado 1058532" d="M385.272,385.961c0,1.079-2.2,1.961-4.9,1.961a11.592,11.592,0,0,1-1.461-.088h-.02c-1.981-.255-3.423-1-3.423-1.873s1.442-1.618,3.423-1.873h.02a11.6,11.6,0,0,1,1.461-.088C383.075,384,385.272,384.882,385.272,385.961Zm0,0" transform="translate(-332.314 -339.867)" fill="#37474f"/>
      <path id="Trazado_1058533" data-name="Trazado 1058533" d="M382.33,386.642c0,.873-1.442,1.618-3.423,1.873h-.02c-1.981-.255-3.423-1-3.423-1.873s1.442-1.618,3.423-1.873h.02C380.888,385.024,382.33,385.769,382.33,386.642Zm0,0" transform="translate(-332.314 -340.548)" fill="#607d8b"/>
      <path id="Trazado_1058534" data-name="Trazado 1058534" d="M29.13,66.205v2.942a.981.981,0,0,1-.981.981H9.515a.981.981,0,0,1-.98-.981v-25.5a.981.981,0,0,1,.98-.98H21.283l4.9,4.9Zm0,0" transform="translate(-7.554 -37.764)" fill="#ff9801"/>
      <path id="Trazado_1058535" data-name="Trazado 1058535" d="M119.465,42.668v6.865a.981.981,0,0,0,.981.981h4.9l.173-2.383Zm0,0" transform="translate(-105.736 -37.764)" fill="#f57c00"/>
      <path id="Trazado_1058536" data-name="Trazado 1058536" d="M443.045,50.514H436.16a.96.96,0,0,1-.96-.96V42.668Zm0,0" transform="translate(-385.183 -37.764)" fill="#f57c00"/>
      <path id="Trazado_1058537" data-name="Trazado 1058537" d="M183.709,16.381V35.015a.981.981,0,0,1-.981.98H163.114a.981.981,0,0,1-.981-.98V9.516a.981.981,0,0,1,.981-.98h12.749Zm0,0" transform="translate(-143.5 -7.554)" fill="#fec108"/>
      <path id="Trazado_1058538" data-name="Trazado 1058538" d="M281.6,8.535V15.4a.981.981,0,0,0,.98.981h6.865Zm0,0" transform="translate(-249.239 -7.554)" fill="#ffeb3a"/>
      <path id="Trazado_1058539" data-name="Trazado 1058539" d="M220.2,120.885c.981-.906,2.942-2.716,2.942-5.432v-3.622a13.737,13.737,0,0,0-9.807,0v3.621c0,2.717,1.961,4.527,2.942,5.433l1.961,1.811Zm0,0" transform="translate(-188.814 -98.177)" fill="#00bcd4"/>
      <path id="Trazado_1058540" data-name="Trazado 1058540" d="M175.177,29.422H155.563A1.961,1.961,0,0,1,153.6,27.46V1.962A1.961,1.961,0,0,1,155.563,0h12.749a.98.98,0,0,1,.693.287l7.846,7.846a.98.98,0,0,1,.287.694V27.46a1.961,1.961,0,0,1-1.961,1.961ZM155.563,1.962v25.5h19.614V9.807h-5.884a1.961,1.961,0,0,1-1.961-1.961V1.961Zm13.73,1.387v4.5h4.5Zm0,0" transform="translate(-135.949)"/>
      <path id="Trazado_1058541" data-name="Trazado 1058541" d="M248.446,263.156a.981.981,0,0,1-.981-.981v-13.73a.981.981,0,1,1,1.962,0v13.73A.981.981,0,0,1,248.446,263.156Zm0,0" transform="translate(-219.025 -219.024)"/>
      <path id="Trazado_1058542" data-name="Trazado 1058542" d="M123.58,331.131a.981.981,0,0,1-.98-.981v-2.942a.981.981,0,0,0-.981-.981H88.274a.981.981,0,0,0-.981.981v2.942a.981.981,0,1,1-1.961,0v-2.942a2.942,2.942,0,0,1,2.942-2.942h33.344a2.948,2.948,0,0,1,2.942,2.942v2.942A.981.981,0,0,1,123.58,331.131Zm0,0" transform="translate(-75.525 -286.998)"/>
      <path id="Trazado_1058543" data-name="Trazado 1058543" d="M48.552,381.349c-2.834,0-5.884-.92-5.884-2.942s3.05-2.942,5.884-2.942,5.884.92,5.884,2.942S51.386,381.349,48.552,381.349Zm-3.9-2.942c.252.321,1.6.981,3.9.981s3.646-.66,3.9-.981c-.252-.32-1.6-.98-3.9-.98S44.906,378.087,44.654,378.407Zm0,0" transform="translate(-37.765 -332.313)"/>
      <path id="Trazado_1058544" data-name="Trazado 1058544" d="M48.552,438.915c-2.834,0-5.884-.92-5.884-2.942a.981.981,0,1,1,1.961,0c.123.241,1.486.981,3.923.981s3.8-.739,3.932-1.033a.955.955,0,0,1,.98-.954,1,1,0,0,1,.972,1.007C54.436,438,51.386,438.915,48.552,438.915Zm0,0" transform="translate(-37.765 -384.976)"/>
      <path id="Trazado_1058545" data-name="Trazado 1058545" d="M48.552,406.265c-2.834,0-5.884-.92-5.884-2.942v-9.807a.981.981,0,0,1,1.961,0v9.807c.123.241,1.486.981,3.923.981s3.8-.739,3.932-1.034l-.009-9.754a.981.981,0,0,1,1.961,0v9.807C54.436,405.345,51.386,406.265,48.552,406.265Zm0,0" transform="translate(-37.765 -347.422)"/>
      <path id="Trazado_1058546" data-name="Trazado 1058546" d="M210.685,381.349c-2.834,0-5.884-.92-5.884-2.942s3.05-2.942,5.884-2.942,5.884.92,5.884,2.942S213.519,381.349,210.685,381.349Zm-3.9-2.942c.252.321,1.6.981,3.9.981s3.646-.66,3.9-.981c-.252-.32-1.6-.98-3.9-.98S207.039,378.087,206.786,378.407Zm0,0" transform="translate(-181.264 -332.313)"/>
      <path id="Trazado_1058547" data-name="Trazado 1058547" d="M210.685,438.915c-2.834,0-5.884-.92-5.884-2.942a.981.981,0,1,1,1.961,0c.123.241,1.487.981,3.923.981s3.8-.739,3.932-1.033a.955.955,0,0,1,.98-.954,1,1,0,0,1,.972,1.007C216.569,438,213.519,438.915,210.685,438.915Zm0,0" transform="translate(-181.264 -384.976)"/>
      <path id="Trazado_1058548" data-name="Trazado 1058548" d="M210.685,406.265c-2.834,0-5.884-.92-5.884-2.942v-9.807a.981.981,0,0,1,1.961,0v9.807c.123.241,1.487.981,3.923.981s3.8-.739,3.932-1.034l-.009-9.754a.981.981,0,0,1,1.961,0v9.807C216.569,405.345,213.519,406.265,210.685,406.265Zm0,0" transform="translate(-181.264 -347.422)"/>
      <path id="Trazado_1058549" data-name="Trazado 1058549" d="M372.818,381.349c-2.834,0-5.884-.92-5.884-2.942s3.05-2.942,5.884-2.942,5.884.92,5.884,2.942S375.652,381.349,372.818,381.349Zm-3.9-2.942c.252.321,1.6.981,3.9.981s3.646-.66,3.9-.981c-.252-.32-1.6-.98-3.9-.98S369.172,378.087,368.92,378.407Zm0,0" transform="translate(-324.763 -332.313)"/>
      <path id="Trazado_1058550" data-name="Trazado 1058550" d="M372.818,438.915c-2.834,0-5.884-.92-5.884-2.942a.981.981,0,1,1,1.961,0c.123.241,1.487.981,3.923.981s3.8-.739,3.932-1.033a.955.955,0,0,1,.981-.954,1,1,0,0,1,.972,1.007C378.7,438,375.652,438.915,372.818,438.915Zm0,0" transform="translate(-324.763 -384.976)"/>
      <path id="Trazado_1058551" data-name="Trazado 1058551" d="M372.818,406.265c-2.834,0-5.884-.92-5.884-2.942v-9.807a.981.981,0,0,1,1.961,0v9.807c.123.241,1.487.981,3.923.981s3.8-.739,3.932-1.034l-.009-9.754a.981.981,0,0,1,1.961,0v9.807C378.7,405.345,375.652,406.265,372.818,406.265Zm0,0" transform="translate(-324.763 -347.422)"/>
      <path id="Trazado_1058552" data-name="Trazado 1058552" d="M210.685,116.144a.98.98,0,0,1-.665-.26l-1.961-1.809c-1.059-.981-3.258-3.011-3.258-6.154V104.3a.98.98,0,0,1,.593-.9,14.7,14.7,0,0,1,10.576,0,.989.989,0,0,1,.6.94v3.585c0,3.143-2.2,5.175-3.255,6.151l-1.961,1.809a.982.982,0,0,1-.668.259Zm-3.923-11.155v2.932c0,2.285,1.707,3.863,2.625,4.707l1.3,1.2,1.3-1.2c.918-.847,2.625-2.425,2.625-4.708v-2.937a13.109,13.109,0,0,0-3.922-.612,13.261,13.261,0,0,0-3.923.614Zm0,0" transform="translate(-181.264 -90.645)"/>
      <path id="Trazado_1058553" data-name="Trazado 1058553" d="M20.595,63.555H1.961A1.961,1.961,0,0,1,0,61.593v-25.5a1.961,1.961,0,0,1,1.961-1.961H13.729a.98.98,0,0,1,.694.287l4.9,4.9L17.94,40.711l-4.616-4.616H1.961v25.5H20.594V58.651h1.961v2.942a1.961,1.961,0,0,1-1.961,1.961Zm0,0" transform="translate(0 -30.21)"/>
      <path id="Trazado_1058554" data-name="Trazado 1058554" d="M117.8,51.494h-4.9a1.961,1.961,0,0,1-1.961-1.961V42.668h1.961v6.865h4.9Zm0,0" transform="translate(-98.185 -37.764)"/>
      <path id="Trazado_1058555" data-name="Trazado 1058555" d="M40.017,95.829h-4.9a.981.981,0,1,1,0-1.961h4.9a.981.981,0,1,1,0,1.961Zm0,0" transform="translate(-30.21 -83.079)"/>
      <path id="Trazado_1058556" data-name="Trazado 1058556" d="M40.017,138.5h-4.9a.981.981,0,1,1,0-1.961h4.9a.981.981,0,1,1,0,1.961Zm0,0" transform="translate(-30.21 -120.844)"/>
      <path id="Trazado_1058557" data-name="Trazado 1058557" d="M44.921,181.161H35.114a.981.981,0,1,1,0-1.961h9.807a.981.981,0,1,1,0,1.961Zm0,0" transform="translate(-30.21 -158.604)"/>
      <path id="Trazado_1058558" data-name="Trazado 1058558" d="M44.921,223.829H35.114a.981.981,0,1,1,0-1.961h9.807a.981.981,0,1,1,0,1.961Zm0,0" transform="translate(-30.21 -196.369)"/>
      <path id="Trazado_1058559" data-name="Trazado 1058559" d="M435.494,51.494h-6.885a1.943,1.943,0,0,1-1.941-1.941V42.668h1.961v6.885l6.865-.021Zm0,0" transform="translate(-377.633 -37.764)"/>
      <path id="Trazado_1058560" data-name="Trazado 1058560" d="M378.407,95.829h-1.961a.981.981,0,1,1,0-1.961h1.961a.981.981,0,1,1,0,1.961Zm0,0" transform="translate(-332.314 -83.079)"/>
      <path id="Trazado_1058561" data-name="Trazado 1058561" d="M378.407,138.5h-1.961a.981.981,0,1,1,0-1.961h1.961a.981.981,0,1,1,0,1.961Zm0,0" transform="translate(-332.314 -120.844)"/>
      <path id="Trazado_1058562" data-name="Trazado 1058562" d="M386.253,181.161h-9.807a.981.981,0,1,1,0-1.961h9.807a.981.981,0,1,1,0,1.961Zm0,0" transform="translate(-332.314 -158.604)"/>
      <path id="Trazado_1058563" data-name="Trazado 1058563" d="M386.253,223.829h-9.807a.981.981,0,1,1,0-1.961h9.807a.981.981,0,1,1,0,1.961Zm0,0" transform="translate(-332.314 -196.369)"/>
      <path id="Trazado_1058564" data-name="Trazado 1058564" d="M336.329,63.554H317.7a1.961,1.961,0,0,1-1.961-1.961V58.65H317.7v2.942h18.634V43.365l-7.271-7.271H315.734V34.133h13.73a.98.98,0,0,1,.694.287L338,42.265a.981.981,0,0,1,.287.694V61.593a1.961,1.961,0,0,1-1.961,1.961Zm0,0" transform="translate(-279.448 -30.21)"/>
    </g>
  </g>
</svg>
