<svg xmlns="http://www.w3.org/2000/svg" xmlns:xlink="http://www.w3.org/1999/xlink" width="113" height="113" viewBox="0 0 113 113">
  <defs>
    <filter id="Trazado_982547" x="0" y="0" width="113" height="113" filterUnits="userSpaceOnUse">
      <feOffset dy="3" input="SourceAlpha"/>
      <feGaussianBlur stdDeviation="3" result="blur"/>
      <feFlood flood-opacity="0.161"/>
      <feComposite operator="in" in2="blur"/>
      <feComposite in="SourceGraphic"/>
    </filter>
  </defs>
  <g id="Grupo_1226727" data-name="Grupo 1226727" transform="translate(-4482.019 -11953.654)">
    <g id="Grupo_1226566" data-name="Grupo 1226566" transform="translate(4491.019 11959.654)">
      <g id="Grupo_1211209" data-name="Grupo 1211209">
        <g id="Grupo_1210737" data-name="Grupo 1210737">
          <g id="Grupo_1210537" data-name="Grupo 1210537">
            <g id="Grupo_1164202" data-name="Grupo 1164202">
              <g id="Grupo_1158168" data-name="Grupo 1158168">
                <g id="Grupo_1152576" data-name="Grupo 1152576">
                  <g id="Grupo_1148633" data-name="Grupo 1148633">
                    <g id="Grupo_1148525" data-name="Grupo 1148525">
                      <g transform="matrix(1, 0, 0, 1, -9, -6)" filter="url(#Trazado_982547)">
                        <g id="Trazado_982547-2" data-name="Trazado 982547" transform="translate(9 6)" fill="#fdf6e4">
                          <path d="M 47.5 93.5 C 41.28937149047852 93.5 35.26533508300781 92.28397369384766 29.59518623352051 89.88570404052734 C 24.11771965026855 87.56893157958984 19.19813346862793 84.25196075439453 14.97309303283691 80.02691650390625 C 10.74804019927979 75.80186462402344 7.431066513061523 70.88229370117188 5.114293098449707 65.40481567382812 C 2.716026782989502 59.73468017578125 1.5 53.71062850952148 1.5 47.5 C 1.5 41.28937149047852 2.716026782989502 35.26533508300781 5.114293098449707 29.59518623352051 C 7.431066513061523 24.11771965026855 10.74804019927979 19.19813346862793 14.97309303283691 14.97309303283691 C 19.19813346862793 10.74804019927979 24.11771965026855 7.431066513061523 29.59518623352051 5.114293098449707 C 35.26533508300781 2.716026782989502 41.28937149047852 1.5 47.5 1.5 C 53.71062850952148 1.5 59.73468017578125 2.716026782989502 65.40481567382812 5.114293098449707 C 70.88229370117188 7.431066513061523 75.80186462402344 10.74804019927979 80.02691650390625 14.97309303283691 C 84.25196075439453 19.19813346862793 87.56893157958984 24.11771965026855 89.88570404052734 29.59518623352051 C 92.28397369384766 35.26533508300781 93.5 41.28937149047852 93.5 47.5 C 93.5 53.71062850952148 92.28397369384766 59.73468017578125 89.88570404052734 65.40481567382812 C 87.56893157958984 70.88229370117188 84.25196075439453 75.80186462402344 80.02691650390625 80.02691650390625 C 75.80186462402344 84.25196075439453 70.88229370117188 87.56893157958984 65.40481567382812 89.88570404052734 C 59.73468017578125 92.28397369384766 53.71062850952148 93.5 47.5 93.5 Z" stroke="none"/>
                          <path d="M 47.5 3 C 41.49121475219727 3 35.66376876831055 4.176155090332031 30.17950439453125 6.495796203613281 C 24.88084411621094 8.736953735351562 20.12152099609375 11.94598388671875 16.03375244140625 16.03375244140625 C 11.94598388671875 20.12152099609375 8.736953735351562 24.88084411621094 6.495796203613281 30.17950439453125 C 4.176155090332031 35.66376876831055 3 41.49121475219727 3 47.5 C 3 53.50878524780273 4.176155090332031 59.33623123168945 6.495796203613281 64.82049560546875 C 8.736953735351562 70.11915588378906 11.94598388671875 74.87847900390625 16.03375244140625 78.96624755859375 C 20.12152099609375 83.05401611328125 24.88084411621094 86.26304626464844 30.17950439453125 88.50419616699219 C 35.66376876831055 90.82384490966797 41.49121475219727 92 47.5 92 C 53.50878524780273 92 59.33623123168945 90.82384490966797 64.82049560546875 88.50419616699219 C 70.11915588378906 86.26304626464844 74.87847900390625 83.05401611328125 78.96624755859375 78.96624755859375 C 83.05401611328125 74.87847900390625 86.26304626464844 70.11915588378906 88.50419616699219 64.82049560546875 C 90.82384490966797 59.33623123168945 92 53.50878524780273 92 47.5 C 92 41.49121475219727 90.82384490966797 35.66376876831055 88.50419616699219 30.17950439453125 C 86.26304626464844 24.88084411621094 83.05401611328125 20.12152099609375 78.96624755859375 16.03375244140625 C 74.87847900390625 11.94598388671875 70.11915588378906 8.736953735351562 64.82049560546875 6.495796203613281 C 59.33623123168945 4.176155090332031 53.50878524780273 3 47.5 3 M 47.5 0 C 73.7335205078125 0 95 21.2664794921875 95 47.5 C 95 73.7335205078125 73.7335205078125 95 47.5 95 C 21.2664794921875 95 0 73.7335205078125 0 47.5 C 0 21.2664794921875 21.2664794921875 0 47.5 0 Z" stroke="none" fill="#f5b104"/>
                        </g>
                      </g>
                    </g>
                  </g>
                </g>
              </g>
            </g>
          </g>
        </g>
      </g>
    </g>
    <g id="cloud-server-shield-protect-database" transform="translate(4507 11971)">
      <path id="Trazado_1058621" data-name="Trazado 1058621" d="M17,33a10,10,0,0,1-.83-19.96A11.984,11.984,0,0,1,38.32,8.9a7.988,7.988,0,0,1,11.22,4.44A9.993,9.993,0,0,1,47,33Z" fill="#57a4ff"/>
      <g id="Grupo_1226726" data-name="Grupo 1226726">
        <path id="Trazado_1058622" data-name="Trazado 1058622" d="M37.73,8.01a7.95,7.95,0,0,0-3.41.89,11.97,11.97,0,0,0-8.33-5.73A11.955,11.955,0,0,1,37.73,8.01Z" fill="#2488ff"/>
        <path id="Trazado_1058623" data-name="Trazado 1058623" d="M57,23A10,10,0,0,1,47,33H43a9.993,9.993,0,0,0,2.54-19.66A8.008,8.008,0,0,0,40,8.26,7.779,7.779,0,0,1,42,8a8,8,0,0,1,7.54,5.34A9.991,9.991,0,0,1,57,23Z" fill="#2488ff"/>
        <path id="Trazado_1058624" data-name="Trazado 1058624" d="M40,8.26a8.1,8.1,0,0,0-1.68.64,10.548,10.548,0,0,0-.59-.89A2.437,2.437,0,0,1,38,8a7.779,7.779,0,0,1,2,.26Z" fill="#2488ff"/>
      </g>
      <path id="Trazado_1058625" data-name="Trazado 1058625" d="M10,49H54V61H10Z" fill="#fee9ab"/>
      <path id="Trazado_1058626" data-name="Trazado 1058626" d="M10,37H54V49H10Z" fill="#ff7956"/>
      <path id="Trazado_1058627" data-name="Trazado 1058627" d="M50,49h4V61H50Z" fill="#ffde55"/>
      <path id="Trazado_1058628" data-name="Trazado 1058628" d="M50,37h4V49H50Z" fill="#ff5023"/>
      <path id="Trazado_1058629" data-name="Trazado 1058629" d="M43,19v8.69a12.1,12.1,0,0,1-3.93,8.88L38.6,37,32,43l-6.6-6-.47-.43A12.1,12.1,0,0,1,21,27.69V19l11-4Z" fill="#ffde55"/>
      <circle id="Elipse_13558" data-name="Elipse 13558" cx="2" cy="2" r="2" transform="translate(30 53)" fill="#2488ff"/>
      <circle id="Elipse_13559" data-name="Elipse 13559" cx="2" cy="2" r="2" transform="translate(22 41)" fill="#9cdd05"/>
      <circle id="Elipse_13560" data-name="Elipse 13560" cx="2" cy="2" r="2" transform="translate(22 53)" fill="#ff3051"/>
      <circle id="Elipse_13561" data-name="Elipse 13561" cx="2" cy="2" r="2" transform="translate(14 41)" fill="#ff3051"/>
      <path id="Trazado_1058630" data-name="Trazado 1058630" d="M26,43a2,2,0,0,1-3,1.73,2,2,0,0,0,0-3.46A2,2,0,0,1,26,43Z" fill="#5eac24"/>
      <path id="Trazado_1058631" data-name="Trazado 1058631" d="M18,43a2,2,0,0,1-3,1.73,2,2,0,0,0,0-3.46A2,2,0,0,1,18,43Z" fill="#cd2a00"/>
      <path id="Trazado_1058632" data-name="Trazado 1058632" d="M26,55a2,2,0,0,1-3,1.73,2,2,0,0,0,0-3.46A2,2,0,0,1,26,55Z" fill="#cd2a00"/>
      <circle id="Elipse_13562" data-name="Elipse 13562" cx="2" cy="2" r="2" transform="translate(14 53)" fill="#9cdd05"/>
      <path id="Trazado_1058633" data-name="Trazado 1058633" d="M43,19v8.69a12,12,0,0,1-3.929,8.879L32,43l-2-1.82,5.07-4.61A12,12,0,0,0,39,27.69V19l-9-3.27L32,15Z" fill="#ebbf00"/>
      <path id="Trazado_1058634" data-name="Trazado 1058634" d="M18,55a2,2,0,0,1-3,1.73,2,2,0,0,0,0-3.46A2,2,0,0,1,18,55Z" fill="#5eac24"/>
      <path id="Trazado_1058635" data-name="Trazado 1058635" d="M34,55a2,2,0,0,1-3,1.73,2,2,0,0,0,0-3.46A2,2,0,0,1,34,55Z" fill="#006df0"/>
      <path id="Trazado_1058636" data-name="Trazado 1058636" d="M16,40a3,3,0,1,0,3,3A3,3,0,0,0,16,40Zm0,4a1,1,0,1,1,1-1A1,1,0,0,1,16,44Z"/>
      <path id="Trazado_1058637" data-name="Trazado 1058637" d="M54,36H40.98a13.675,13.675,0,0,0,1.38-2H47a10.991,10.991,0,0,0,3.29-21.48,8.991,8.991,0,0,0-11.6-4.89,12.979,12.979,0,0,0-23.36,4.5A11,11,0,0,0,17,34h4.64a13.675,13.675,0,0,0,1.38,2H10a1,1,0,0,0-1,1V61a1,1,0,0,0,1,1H54a1,1,0,0,0,1-1V37A1,1,0,0,0,54,36ZM20.75,32H17a9,9,0,0,1-.75-17.96,1.009,1.009,0,0,0,.91-.84,10.982,10.982,0,0,1,20.3-3.79,1,1,0,0,0,1.32.38,6.988,6.988,0,0,1,9.82,3.88,1.006,1.006,0,0,0,.69.64A8.992,8.992,0,0,1,47,32H43.25A13.065,13.065,0,0,0,44,27.69V19a.992.992,0,0,0-.66-.94l-11-4a.993.993,0,0,0-.68,0l-11,4A.992.992,0,0,0,20,19v8.69A13.065,13.065,0,0,0,20.75,32ZM22,27.69V19.7l10-3.64L42,19.7v7.99a11.02,11.02,0,0,1-3.6,8.14L32,41.65l-6.4-5.82A11.02,11.02,0,0,1,22,27.69ZM53,60H11V50H53Zm0-12H11V38H25.01l6.32,5.74a.993.993,0,0,0,1.34,0L38.99,38H53Z"/>
      <path id="Trazado_1058638" data-name="Trazado 1058638" d="M49,40h2v2H49Z"/>
      <path id="Trazado_1058639" data-name="Trazado 1058639" d="M49,44h2v2H49Z"/>
      <path id="Trazado_1058640" data-name="Trazado 1058640" d="M16,58a3,3,0,1,0-3-3A3,3,0,0,0,16,58Zm0-4a1,1,0,1,1-1,1A1,1,0,0,1,16,54Z"/>
      <path id="Trazado_1058641" data-name="Trazado 1058641" d="M24,58a3,3,0,1,0-3-3A3,3,0,0,0,24,58Zm0-4a1,1,0,1,1-1,1A1,1,0,0,1,24,54Z"/>
      <path id="Trazado_1058642" data-name="Trazado 1058642" d="M24,40a3,3,0,1,0,3,3A3,3,0,0,0,24,40Zm0,4a1,1,0,1,1,1-1A1,1,0,0,1,24,44Z"/>
      <path id="Trazado_1058643" data-name="Trazado 1058643" d="M32,58a3,3,0,1,0-3-3A3,3,0,0,0,32,58Zm0-4a1,1,0,1,1-1,1A1,1,0,0,1,32,54Z"/>
      <path id="Trazado_1058644" data-name="Trazado 1058644" d="M49,52h2v2H49Z"/>
      <path id="Trazado_1058645" data-name="Trazado 1058645" d="M49,56h2v2H49Z"/>
      <path id="Trazado_1058646" data-name="Trazado 1058646" d="M43,52h2v2H43Z"/>
      <path id="Trazado_1058647" data-name="Trazado 1058647" d="M43,56h2v2H43Z"/>
      <path id="Trazado_1058648" data-name="Trazado 1058648" d="M37,52h2v2H37Z"/>
      <path id="Trazado_1058649" data-name="Trazado 1058649" d="M37,56h2v2H37Z"/>
      <path id="Trazado_1058650" data-name="Trazado 1058650" d="M43,40h2v2H43Z"/>
      <path id="Trazado_1058651" data-name="Trazado 1058651" d="M43,44h2v2H43Z"/>
      <path id="Trazado_1058652" data-name="Trazado 1058652" d="M37,44h2v2H37Z"/>
      <path id="Trazado_1058653" data-name="Trazado 1058653" d="M2,42V55a1,1,0,0,0,1,1H7V54H4V43H7V41H3A1,1,0,0,0,2,42Z"/>
      <path id="Trazado_1058654" data-name="Trazado 1058654" d="M61,41H57v2h3V54H57v2h4a1,1,0,0,0,1-1V42A1,1,0,0,0,61,41Z"/>
      <path id="Trazado_1058655" data-name="Trazado 1058655" d="M27.707,27.293l-1.414,1.414,4,4a1,1,0,0,0,1.414,0l7-7-1.414-1.414L31,30.586Z"/>
    </g>
  </g>
</svg>
