<svg xmlns="http://www.w3.org/2000/svg" xmlns:xlink="http://www.w3.org/1999/xlink" width="113" height="113" viewBox="0 0 113 113">
  <defs>
    <filter id="Trazado_982547" x="0" y="0" width="113" height="113" filterUnits="userSpaceOnUse">
      <feOffset dy="3" input="SourceAlpha"/>
      <feGaussianBlur stdDeviation="3" result="blur"/>
      <feFlood flood-opacity="0.161"/>
      <feComposite operator="in" in2="blur"/>
      <feComposite in="SourceGraphic"/>
    </filter>
  </defs>
  <g id="Grupo_1226745" data-name="Grupo 1226745" transform="translate(-4481.528 -12308.773)">
    <g id="Grupo_1226568" data-name="Grupo 1226568" transform="translate(4490.528 12314.773)">
      <g id="Grupo_1211209" data-name="Grupo 1211209">
        <g id="Grupo_1210737" data-name="Grupo 1210737">
          <g id="Grupo_1210537" data-name="Grupo 1210537">
            <g id="Grupo_1164202" data-name="Grupo 1164202">
              <g id="Grupo_1158168" data-name="Grupo 1158168">
                <g id="Grupo_1152576" data-name="Grupo 1152576">
                  <g id="Grupo_1148633" data-name="Grupo 1148633">
                    <g id="Grupo_1148525" data-name="Grupo 1148525">
                      <g transform="matrix(1, 0, 0, 1, -9, -6)" filter="url(#Trazado_982547)">
                        <g id="Trazado_982547-2" data-name="Trazado 982547" transform="translate(9 6)" fill="#fdf6e4">
                          <path d="M 47.5 93.5 C 41.28937149047852 93.5 35.26533508300781 92.28397369384766 29.59518623352051 89.88570404052734 C 24.11771965026855 87.56893157958984 19.19813346862793 84.25196075439453 14.97309303283691 80.02691650390625 C 10.74804019927979 75.80186462402344 7.431066513061523 70.88229370117188 5.114293098449707 65.40481567382812 C 2.716026782989502 59.73468017578125 1.5 53.71062850952148 1.5 47.5 C 1.5 41.28937149047852 2.716026782989502 35.26533508300781 5.114293098449707 29.59518623352051 C 7.431066513061523 24.11771965026855 10.74804019927979 19.19813346862793 14.97309303283691 14.97309303283691 C 19.19813346862793 10.74804019927979 24.11771965026855 7.431066513061523 29.59518623352051 5.114293098449707 C 35.26533508300781 2.716026782989502 41.28937149047852 1.5 47.5 1.5 C 53.71062850952148 1.5 59.73468017578125 2.716026782989502 65.40481567382812 5.114293098449707 C 70.88229370117188 7.431066513061523 75.80186462402344 10.74804019927979 80.02691650390625 14.97309303283691 C 84.25196075439453 19.19813346862793 87.56893157958984 24.11771965026855 89.88570404052734 29.59518623352051 C 92.28397369384766 35.26533508300781 93.5 41.28937149047852 93.5 47.5 C 93.5 53.71062850952148 92.28397369384766 59.73468017578125 89.88570404052734 65.40481567382812 C 87.56893157958984 70.88229370117188 84.25196075439453 75.80186462402344 80.02691650390625 80.02691650390625 C 75.80186462402344 84.25196075439453 70.88229370117188 87.56893157958984 65.40481567382812 89.88570404052734 C 59.73468017578125 92.28397369384766 53.71062850952148 93.5 47.5 93.5 Z" stroke="none"/>
                          <path d="M 47.5 3 C 41.49121475219727 3 35.66376876831055 4.176155090332031 30.17950439453125 6.495796203613281 C 24.88084411621094 8.736953735351562 20.12152099609375 11.94598388671875 16.03375244140625 16.03375244140625 C 11.94598388671875 20.12152099609375 8.736953735351562 24.88084411621094 6.495796203613281 30.17950439453125 C 4.176155090332031 35.66376876831055 3 41.49121475219727 3 47.5 C 3 53.50878524780273 4.176155090332031 59.33623123168945 6.495796203613281 64.82049560546875 C 8.736953735351562 70.11915588378906 11.94598388671875 74.87847900390625 16.03375244140625 78.96624755859375 C 20.12152099609375 83.05401611328125 24.88084411621094 86.26304626464844 30.17950439453125 88.50419616699219 C 35.66376876831055 90.82384490966797 41.49121475219727 92 47.5 92 C 53.50878524780273 92 59.33623123168945 90.82384490966797 64.82049560546875 88.50419616699219 C 70.11915588378906 86.26304626464844 74.87847900390625 83.05401611328125 78.96624755859375 78.96624755859375 C 83.05401611328125 74.87847900390625 86.26304626464844 70.11915588378906 88.50419616699219 64.82049560546875 C 90.82384490966797 59.33623123168945 92 53.50878524780273 92 47.5 C 92 41.49121475219727 90.82384490966797 35.66376876831055 88.50419616699219 30.17950439453125 C 86.26304626464844 24.88084411621094 83.05401611328125 20.12152099609375 78.96624755859375 16.03375244140625 C 74.87847900390625 11.94598388671875 70.11915588378906 8.736953735351562 64.82049560546875 6.495796203613281 C 59.33623123168945 4.176155090332031 53.50878524780273 3 47.5 3 M 47.5 0 C 73.7335205078125 0 95 21.2664794921875 95 47.5 C 95 73.7335205078125 73.7335205078125 95 47.5 95 C 21.2664794921875 95 0 73.7335205078125 0 47.5 C 0 21.2664794921875 21.2664794921875 0 47.5 0 Z" stroke="none" fill="#f5b104"/>
                        </g>
                      </g>
                    </g>
                  </g>
                </g>
              </g>
            </g>
          </g>
        </g>
      </g>
    </g>
    <g id="modelos-predictivos_1_" data-name="modelos-predictivos (1)" transform="translate(4507 12334)">
      <circle id="Elipse_13563" data-name="Elipse 13563" cx="2" cy="2" r="2" transform="translate(57 41)" fill="#f6db40"/>
      <circle id="Elipse_13564" data-name="Elipse 13564" cx="2" cy="2" r="2" transform="translate(57 32)" fill="#f6db40"/>
      <circle id="Elipse_13565" data-name="Elipse 13565" cx="2" cy="2" r="2" transform="translate(3 41)" fill="#f6db40"/>
      <circle id="Elipse_13566" data-name="Elipse 13566" cx="2" cy="2" r="2" transform="translate(3 32)" fill="#f6db40"/>
      <path id="Trazado_1058678" data-name="Trazado 1058678" d="M41,49v8l-9,4V53Z" fill="#8360f4"/>
      <path id="Trazado_1058679" data-name="Trazado 1058679" d="M32,53v8l-9-4V49Z" fill="#8360f4"/>
      <path id="Trazado_1058680" data-name="Trazado 1058680" d="M32,45l9,4-9,4-9-4Z" fill="#db535b"/>
      <path id="Trazado_1058681" data-name="Trazado 1058681" d="M22.17,38a4.116,4.116,0,0,1-4.15-3.61c-.01-.13-.02-.26-.02-.39a3.995,3.995,0,0,1,4-4c.05,0,.1.01.15.01-.29-1.09-.29-2.3,1.31-3.87A3.658,3.658,0,0,1,26.1,25a3.947,3.947,0,0,1,2.14.69,3.973,3.973,0,0,1,7.52,0A3.947,3.947,0,0,1,37.9,25a3.658,3.658,0,0,1,2.64,1.14c1.6,1.57,1.6,2.78,1.31,3.87.05,0,.1-.01.15-.01a3.995,3.995,0,0,1,4,4c0,.13-.01.26-.02.39A4.116,4.116,0,0,1,41.83,38H41v6a4,4,0,0,1-4-4V38Z" fill="#f6db40"/>
      <path id="Trazado_1058682" data-name="Trazado 1058682" d="M61,9H55V3Z" fill="#8360f4"/>
      <path id="Trazado_1058683" data-name="Trazado 1058683" d="M40,9H34V3Z" fill="#8360f4"/>
      <path id="Trazado_1058684" data-name="Trazado 1058684" d="M19,9H13V3Z" fill="#8360f4"/>
      <path id="Trazado_1058685" data-name="Trazado 1058685" d="M61,9V19H45V3H55V9Z" fill="#6599ed"/>
      <path id="Trazado_1058686" data-name="Trazado 1058686" d="M40,9V19H24V3H34V9Z" fill="#6599ed"/>
      <path id="Trazado_1058687" data-name="Trazado 1058687" d="M19,9V19H3V3H13V9Z" fill="#6599ed"/>
      <g id="Grupo_1226744" data-name="Grupo 1226744">
        <path id="Trazado_1058688" data-name="Trazado 1058688" d="M15,37a1,1,0,0,0-.707.293L9.586,42H7.816a3,3,0,1,0,0,2H10a1,1,0,0,0,.707-.293L15.414,39H31v5.35l-8.406,3.736A1,1,0,0,0,22,49v8a1,1,0,0,0,.594.914l9,4a1,1,0,0,0,.812,0l9-4A1,1,0,0,0,42,57V49a1,1,0,0,0-.594-.914L33,44.35V39h3v1a5.006,5.006,0,0,0,5,5,1,1,0,0,0,1-1V39h6.586l4.707,4.707A1,1,0,0,0,54,44h2.184a3,3,0,1,0,0-2h-1.77l-4.707-4.707A1,1,0,0,0,49,37H45.958a4.826,4.826,0,0,0,.919-2h9.308a3,3,0,1,0,0-2H46.87a4.974,4.974,0,0,0-.715-1.741l7.552-7.552A1,1,0,0,0,54,23V20h7a1,1,0,0,0,1-1V9a1,1,0,0,0-.293-.707l-6-6A1,1,0,0,0,55,2H45a1,1,0,0,0-1,1V19a1,1,0,0,0,1,1h7v2.586l-7.255,7.255A5,5,0,0,0,43,29.1a4.9,4.9,0,0,0-1.753-3.678A4.61,4.61,0,0,0,37.877,24a4.989,4.989,0,0,0-1.667.329A5,5,0,0,0,33,22.113V20h7a1,1,0,0,0,1-1V9a1,1,0,0,0-.293-.707l-6-6A1,1,0,0,0,34,2H24a1,1,0,0,0-1,1V19a1,1,0,0,0,1,1h7v2.112a5,5,0,0,0-3.21,2.218A4.989,4.989,0,0,0,26.123,24a4.671,4.671,0,0,0-3.369,1.422A4.9,4.9,0,0,0,21,29.1a4.992,4.992,0,0,0-1.745.739L12,22.586V20h7a1,1,0,0,0,1-1V9a1,1,0,0,0-.293-.707l-6-6A1,1,0,0,0,13,2H3A1,1,0,0,0,2,3V19a1,1,0,0,0,1,1h7v3a1,1,0,0,0,.293.707l7.552,7.552A4.974,4.974,0,0,0,17.13,33H7.816a3,3,0,1,0,0,2h9.308a4.832,4.832,0,0,0,.919,2ZM5,44a1,1,0,1,1,1-1A1,1,0,0,1,5,44Zm19,6.539,7,3.111v5.812l-7-3.111Zm9,8.922V53.65l7-3.111v5.812ZM38.538,49,32,51.906,25.462,49,31,46.539V49h2V46.539ZM59,42a1,1,0,1,1-1,1A1,1,0,0,1,59,42ZM56,5.414,58.586,8H56ZM46,4h8V9a1,1,0,0,0,1,1h5v8H46ZM35,5.414,37.586,8H35ZM25,4h8V9a1,1,0,0,0,1,1h5v8H25ZM14,5.414,16.586,8H14ZM4,4h8V9a1,1,0,0,0,1,1h5v8H4ZM59,33a1,1,0,1,1-1,1A1,1,0,0,1,59,33ZM21.938,31c.034,0,.134.015.168.016a1,1,0,0,0,1.007-1.253c-.2-.755-.281-1.6,1.046-2.914A2.669,2.669,0,0,1,26.074,26a2.986,2.986,0,0,1,1.6.513,1,1,0,0,0,1.5-.5,2.976,2.976,0,0,1,5.634,0,1,1,0,0,0,1.505.5,2.991,2.991,0,0,1,1.6-.513,2.773,2.773,0,0,1,1.916.846c1.327,1.312,1.245,2.159,1.046,2.914a1,1,0,0,0,.188.88,1.008,1.008,0,0,0,.819.373A.275.275,0,0,0,42,31a3,3,0,0,1,2.986,3.3A3.119,3.119,0,0,1,41.828,37H41a1,1,0,0,0-1,1v4.829A3.006,3.006,0,0,1,38,40V38a1,1,0,0,0-1-1V35.414l1.707-1.707A1,1,0,0,0,39,33V30H37v2.586l-1.707,1.707A1,1,0,0,0,35,35v2H33V28H31v9H29V35a1,1,0,0,0-.293-.707L27,32.586V30H25v3a1,1,0,0,0,.293.707L27,35.414V37H22.172a3.119,3.119,0,0,1-3.158-2.7A3.005,3.005,0,0,1,21.938,31ZM5,35a1,1,0,1,1,1-1A1,1,0,0,1,5,35Z" fill="#1a1a1a"/>
        <path id="Trazado_1058689" data-name="Trazado 1058689" d="M45,52h2v2H45Z" fill="#1a1a1a"/>
        <path id="Trazado_1058690" data-name="Trazado 1058690" d="M49,52h2v2H49Z" fill="#1a1a1a"/>
        <path id="Trazado_1058691" data-name="Trazado 1058691" d="M49,56h2v2H49Z" fill="#1a1a1a"/>
        <path id="Trazado_1058692" data-name="Trazado 1058692" d="M49,48h2v2H49Z" fill="#1a1a1a"/>
        <path id="Trazado_1058693" data-name="Trazado 1058693" d="M17,52h2v2H17Z" fill="#1a1a1a"/>
        <path id="Trazado_1058694" data-name="Trazado 1058694" d="M13,52h2v2H13Z" fill="#1a1a1a"/>
        <path id="Trazado_1058695" data-name="Trazado 1058695" d="M13,56h2v2H13Z" fill="#1a1a1a"/>
        <path id="Trazado_1058696" data-name="Trazado 1058696" d="M13,48h2v2H13Z" fill="#1a1a1a"/>
      </g>
    </g>
  </g>
</svg>
