<svg xmlns="http://www.w3.org/2000/svg" xmlns:xlink="http://www.w3.org/1999/xlink" width="108" height="108" viewBox="0 0 108 108">
  <defs>
    <filter id="Trazado_904820" x="0" y="0" width="108" height="108" filterUnits="userSpaceOnUse">
      <feOffset dy="3" input="SourceAlpha"/>
      <feGaussianBlur stdDeviation="3" result="blur"/>
      <feFlood flood-opacity="0.161"/>
      <feComposite operator="in" in2="blur"/>
      <feComposite in="SourceGraphic"/>
    </filter>
  </defs>
  <g id="Grupo_1226640" data-name="Grupo 1226640" transform="translate(-619.656 -2981.617)">
    <g id="Grupo_1226492" data-name="Grupo 1226492" transform="translate(628.656 2987.617)">
      <g id="Grupo_1173585" data-name="Grupo 1173585" transform="translate(0 0)">
        <g id="Grupo_1173428" data-name="Grupo 1173428">
          <g id="Grupo_1171958" data-name="Grupo 1171958">
            <g id="Grupo_1167341" data-name="Grupo 1167341">
              <g id="Grupo_1166792" data-name="Grupo 1166792">
                <g transform="matrix(1, 0, 0, 1, -9, -6)" filter="url(#Trazado_904820)">
                  <g id="Trazado_904820-2" data-name="Trazado 904820" transform="translate(9 6)" fill="#ebfefd">
                    <path d="M 44.99999618530273 88.5 C 39.12687301635742 88.5 33.43022155761719 87.35007476806641 28.06829643249512 85.08216094970703 C 22.88852119445801 82.89131164550781 18.23629570007324 79.75458526611328 14.24084663391113 75.75913238525391 C 10.24540901184082 71.76368713378906 7.108683586120605 67.11145782470703 4.917821407318115 61.93169784545898 C 2.649921178817749 56.56975936889648 1.499996185302734 50.87311935424805 1.499996185302734 44.99999618530273 C 1.499996185302734 39.12687301635742 2.649921178817749 33.43022155761719 4.917821407318115 28.06829643249512 C 7.108683586120605 22.88852119445801 10.24540901184082 18.23629570007324 14.24084663391113 14.24084663391113 C 18.23629570007324 10.24540901184082 22.88852119445801 7.108683586120605 28.06829643249512 4.917821407318115 C 33.43022155761719 2.649921178817749 39.12687301635742 1.499996185302734 44.99999618530273 1.499996185302734 C 50.87311935424805 1.499996185302734 56.56977081298828 2.649921178817749 61.93169784545898 4.917821407318115 C 67.11147308349609 7.108683586120605 71.76369476318359 10.24540901184082 75.75914764404297 14.24084663391113 C 79.75458526611328 18.23629570007324 82.89131164550781 22.88852119445801 85.08216857910156 28.06829643249512 C 87.35007476806641 33.43022155761719 88.5 39.12687301635742 88.5 44.99999618530273 C 88.5 50.87311935424805 87.35007476806641 56.56975936889648 85.08216857910156 61.93169784545898 C 82.89131164550781 67.11145782470703 79.75458526611328 71.76368713378906 75.75914764404297 75.75913238525391 C 71.76369476318359 79.75458526611328 67.11147308349609 82.89131164550781 61.93169784545898 85.08216094970703 C 56.56977081298828 87.35007476806641 50.87311935424805 88.5 44.99999618530273 88.5 Z" stroke="none"/>
                    <path d="M 44.99999618530273 2.999992370605469 C 39.32870864868164 2.999992370605469 33.82865142822266 4.110054016113281 28.65262603759766 6.299339294433594 C 23.65165710449219 8.414566040039062 19.15968322753906 11.44333648681641 15.301513671875 15.301513671875 C 11.44333648681641 19.15968322753906 8.414566040039062 23.65165710449219 6.299339294433594 28.65262603759766 C 4.110054016113281 33.82865142822266 2.999992370605469 39.32870864868164 2.999992370605469 44.99999618530273 C 2.999992370605469 50.67128372192383 4.110054016113281 56.17132568359375 6.299339294433594 61.34736633300781 C 8.414566040039062 66.34834289550781 11.44333648681641 70.84029388427734 15.301513671875 74.69847869873047 C 19.15968322753906 78.55665588378906 23.65165710449219 81.58542633056641 28.65262603759766 83.70065307617188 C 33.82865142822266 85.88993835449219 39.32870864868164 87 44.99999618530273 87 C 50.67128372192383 87 56.17134094238281 85.88993835449219 61.34736633300781 83.70065307617188 C 66.34834289550781 81.58542633056641 70.84030914306641 78.55665588378906 74.69847869873047 74.69847869873047 C 78.55665588378906 70.84029388427734 81.58542633056641 66.34834289550781 83.70065307617188 61.34736633300781 C 85.88993835449219 56.17132568359375 87 50.67128372192383 87 44.99999618530273 C 87 39.32870864868164 85.88993835449219 33.82865142822266 83.70065307617188 28.65262603759766 C 81.58542633056641 23.65165710449219 78.55665588378906 19.15968322753906 74.69847869873047 15.301513671875 C 70.84030914306641 11.44333648681641 66.34834289550781 8.414566040039062 61.34736633300781 6.299339294433594 C 56.17134094238281 4.110054016113281 50.67128372192383 2.999992370605469 44.99999618530273 2.999992370605469 M 44.99999618530273 -7.62939453125e-06 C 69.85281372070312 -7.62939453125e-06 90 20.14717864990234 90 44.99999618530273 C 90 69.85279846191406 69.85281372070312 90 44.99999618530273 90 C 20.14717864990234 90 -7.62939453125e-06 69.85279846191406 -7.62939453125e-06 44.99999618530273 C -7.62939453125e-06 20.14717864990234 20.14717864990234 -7.62939453125e-06 44.99999618530273 -7.62939453125e-06 Z" stroke="none" fill="#268985"/>
                  </g>
                </g>
              </g>
            </g>
          </g>
        </g>
      </g>
    </g>
    <g id="Icons" transform="translate(640.305 2992.745)">
      <g id="Grupo_1226639" data-name="Grupo 1226639" transform="translate(1.851 10.5)">
        <path id="Trazado_1058172" data-name="Trazado 1058172" d="M66.1,45.955a8,8,0,0,1-8,8H17.15c-.072,0-.145,0-.215,0a12.8,12.8,0,0,1,.215-25.593c.215,0,.427,0,.64.015a20.479,20.479,0,0,1,39.812,9.6A8,8,0,0,1,66.1,45.955Z" transform="translate(-3.726 -12.375)" fill="#72c2e9"/>
        <path id="Trazado_1058173" data-name="Trazado 1058173" d="M84.269,74.426a4.438,4.438,0,1,0-8.564,1.635l-.785.785a18.209,18.209,0,0,0-9.883-4.1v-1.9a4.439,4.439,0,1,0-3.5,0v1.895a18.206,18.206,0,0,0-9.883,4.1l-1.329-1.329a4.438,4.438,0,1,0-2.475,2.475l1.33,1.33A18.217,18.217,0,0,0,45,90.952c.07,0,.142,0,.215,0H81.578a18.212,18.212,0,0,0-4.184-11.632l.779-.779A4.441,4.441,0,0,0,84.269,74.426Z" transform="translate(-31.787 -49.375)" fill="#4ba5c8"/>
        <circle id="Elipse_13530" data-name="Elipse 13530" cx="16.542" cy="16.542" r="16.542" transform="translate(14.958 25.037)" fill="#f0c020"/>
        <g id="Grupo_1226638" data-name="Grupo 1226638" transform="translate(11.728 14.707)">
          <circle id="Elipse_13531" data-name="Elipse 13531" cx="2.69" cy="2.69" r="2.69" transform="translate(17.082)" fill="#fc5d3d"/>
          <circle id="Elipse_13532" data-name="Elipse 13532" cx="2.69" cy="2.69" r="2.69" transform="translate(0 7.1)" fill="#fc5d3d"/>
          <circle id="Elipse_13533" data-name="Elipse 13533" cx="2.69" cy="2.69" r="2.69" transform="translate(33.624 7.654)" fill="#fc5d3d"/>
        </g>
        <path id="Trazado_1058174" data-name="Trazado 1058174" d="M211.735,192.985c-.821-.269-1.45-.449-1.874-2.276a.625.625,0,0,0-1.217,0c-.417,1.795-1,1.986-1.874,2.276a.626.626,0,0,0,0,1.187c1.458.482,1.623,1.2,1.874,2.276a.625.625,0,0,0,1.218,0c.416-1.794,1-1.986,1.874-2.276a.626.626,0,0,0,0-1.187Z" transform="translate(-155.223 -145.299)"/>
        <path id="Trazado_1058175" data-name="Trazado 1058175" d="M216.276,200.836a2.964,2.964,0,0,0-.8.9,3.085,3.085,0,0,0-.852-.9,2.918,2.918,0,0,0,.842-.947,3.06,3.06,0,0,0,.815.94Z" transform="translate(-161.431 -152.551)" fill="#f0c020"/>
        <path id="Trazado_1058176" data-name="Trazado 1058176" d="M31.487,192.985c-.821-.269-1.45-.449-1.874-2.276a.625.625,0,0,0-1.217,0c-.417,1.795-1,1.986-1.874,2.276a.626.626,0,0,0,0,1.187c1.458.482,1.623,1.2,1.874,2.276a.625.625,0,0,0,1.218,0c.416-1.794,1-1.986,1.874-2.276a.626.626,0,0,0,0-1.187Z" transform="translate(-20.034 -145.299)"/>
        <path id="Trazado_1058177" data-name="Trazado 1058177" d="M36.028,200.836a2.964,2.964,0,0,0-.8.9,3.085,3.085,0,0,0-.852-.9,2.917,2.917,0,0,0,.842-.947A3.06,3.06,0,0,0,36.028,200.836Z" transform="translate(-26.242 -152.551)" fill="#f0c020"/>
        <path id="Trazado_1058178" data-name="Trazado 1058178" d="M217.5,132.584a.625.625,0,1,1,0-1.25,4.915,4.915,0,0,0,.663-.045.625.625,0,0,1,.169,1.238A6.16,6.16,0,0,1,217.5,132.584Zm2.544-1.21a.625.625,0,0,1,.17-.867,4.872,4.872,0,0,0-2.706-8.92.625.625,0,1,1,0-1.25,6.122,6.122,0,0,1,3.4,11.207A.625.625,0,0,1,220.04,131.375Z" transform="translate(-163.12 -92.88)" fill="#c5e5fe"/>
        <path id="Trazado_1058179" data-name="Trazado 1058179" d="M142.772,36.966q-.044-.36-.1-.716a.625.625,0,0,1,1.233-.2q.063.382.111.768a.625.625,0,1,1-1.24.153Zm-.665-3.061a17.3,17.3,0,0,0-16.564-12.156,18.654,18.654,0,0,0-3.238.288.625.625,0,1,1-.217-1.231,19.921,19.921,0,0,1,3.456-.307A18.547,18.547,0,0,1,143.3,33.529a.625.625,0,0,1-1.192.376Z" transform="translate(-91.644 -17.999)" fill="#c5e5fe"/>
        <path id="Trazado_1058180" data-name="Trazado 1058180" d="M73.5,143.212c-9.113-9.113-2.794-25.032,10.371-25.032a14.652,14.652,0,0,1,7.717,2.186.625.625,0,0,1-.657,1.063,13.405,13.405,0,0,0-7.059-2c-12.046,0-17.822,14.565-9.487,22.9a.625.625,0,0,1-.884.884ZM93.36,123.353c-.168-.168-.343-.334-.52-.493a.625.625,0,1,1,.836-.929c.193.173.384.355.568.539a.625.625,0,0,1-.883.884Z" transform="translate(-52.373 -91.262)" fill="#f8e5b0"/>
        <path id="Trazado_1058181" data-name="Trazado 1058181" d="M82.678,16.53A19.854,19.854,0,0,1,95.6,11.75h0c11.83,0,22.034,10.521,19.364,24.229a.624.624,0,0,0,.5.732,7.668,7.668,0,0,1,4.735,1.255.625.625,0,0,0,.7-1.035,8.542,8.542,0,0,0-4.559-1.463A21.1,21.1,0,0,0,95.6,10.5h0a21.006,21.006,0,0,0-13.734,5.082.625.625,0,0,0,.815.947Z" transform="translate(-61.699 -10.5)"/>
        <path id="Trazado_1058182" data-name="Trazado 1058182" d="M75.558,38.25a.632.632,0,0,0-.04-.885.649.649,0,0,0-.885.04.626.626,0,1,0,.925.845Z" transform="translate(-56.317 -30.533)"/>
        <path id="Trazado_1058183" data-name="Trazado 1058183" d="M169.514,225.645l0,0a.626.626,0,0,0,.068-.882.647.647,0,0,0-.882-.068s0,0,0,0a.626.626,0,0,0,.815.95Z" transform="translate(-126.83 -171.041)"/>
        <path id="Trazado_1058184" data-name="Trazado 1058184" d="M243.064,123.717a.623.623,0,0,0,.1-.877.639.639,0,0,0-.877-.1.625.625,0,0,0,.772.982Z" transform="translate(-182.006 -94.582)"/>
        <path id="Trazado_1058185" data-name="Trazado 1058185" d="M63.521,66.587a.625.625,0,0,0-.372.8,7.378,7.378,0,0,1-6.922,9.922H50.5a17.1,17.1,0,0,0-4.586-11.056l2.11-2.11a3.314,3.314,0,1,0-.882-.886l-2.112,2.112a17.1,17.1,0,0,0-11.056-4.587V57.008a3.315,3.315,0,1,0-1.25,0v3.776A17.1,17.1,0,0,0,21.67,65.371l-2.658-2.658a3.319,3.319,0,1,0-.884.884l2.658,2.658A17.1,17.1,0,0,0,16.2,77.311c-.117,0-1.013,0-1.13,0a12.173,12.173,0,1,1,.824-24.329.627.627,0,0,0,.627-.475,19.727,19.727,0,0,1,3.046-6.549.624.624,0,0,0-.145-.87.641.641,0,0,0-.872.145,20.932,20.932,0,0,0-3.1,6.488,13.421,13.421,0,0,0-.408,26.839c.132,0,1.03,0,1.163,0A17.165,17.165,0,0,0,42.453,92.492a.624.624,0,0,0-.662-1.057,15.88,15.88,0,0,1-5.44,2.131c1.542-1.674,2.775-4.614,3.482-8.3h7.646a15.86,15.86,0,0,1-2.057,3.048.625.625,0,1,0,.947.815A17.113,17.113,0,0,0,50.5,78.561h5.723a8.633,8.633,0,0,0,8.1-11.6.638.638,0,0,0-.8-.37ZM38.792,84.012H27.911a40.946,40.946,0,0,1,0-12.152H38.792A40.955,40.955,0,0,1,38.792,84.012ZM18.642,71.86h8.011a41.645,41.645,0,0,0,0,12.152H18.642A15.889,15.889,0,0,1,18.642,71.86ZM30.35,62.306c-1.541,1.675-2.774,4.614-3.481,8.3H19.227A15.964,15.964,0,0,1,30.35,62.306Zm-2.219,8.3c1.055-5.33,3.189-8.592,5.221-8.592s4.166,3.261,5.221,8.592Zm8.222-8.3a15.963,15.963,0,0,1,11.123,8.3H39.834C39.126,66.92,37.894,63.98,36.352,62.306Zm13.541-2.963a2.065,2.065,0,1,1-2.065,2.065A2.067,2.067,0,0,1,49.893,59.343ZM31.286,53.754a2.065,2.065,0,1,1,2.065,2.065,2.067,2.067,0,0,1-2.065-2.065ZM14.2,60.853a2.065,2.065,0,1,1,2.065,2.065A2.067,2.067,0,0,1,14.2,60.853Zm5.024,24.408h7.641c.707,3.689,1.94,6.628,3.481,8.3a15.963,15.963,0,0,1-11.122-8.3Zm14.123,8.59c-2.032,0-4.165-3.261-5.22-8.59H38.571c-1.055,5.329-3.189,8.59-5.22,8.59Zm14.709-9.84H40.049a41.653,41.653,0,0,0,0-12.152H48.06A15.9,15.9,0,0,1,48.06,84.012Z" transform="translate(-1.851 -36.357)"/>
      </g>
    </g>
  </g>
</svg>
