<svg xmlns="http://www.w3.org/2000/svg" xmlns:xlink="http://www.w3.org/1999/xlink" width="600" height="298.393" viewBox="0 0 600 298.393">
  <defs>
    <clipPath id="clip-path">
      <rect id="Rectángulo_419388" data-name="Rectángulo 419388" width="600" height="298.393" transform="translate(810 2149.656)" fill="#fff" opacity="0.4"/>
    </clipPath>
    <clipPath id="clip-path-2">
      <rect id="Rectángulo_419389" data-name="Rectángulo 419389" width="321.199" height="298.393" transform="translate(0 0)" fill="none"/>
    </clipPath>
    <filter id="Trazado_1043752" x="115.011" y="44.451" width="98.618" height="97.598" filterUnits="userSpaceOnUse">
      <feOffset dy="3" input="SourceAlpha"/>
      <feGaussianBlur stdDeviation="3" result="blur"/>
      <feFlood flood-opacity="0.161"/>
      <feComposite operator="in" in2="blur"/>
      <feComposite in="SourceGraphic"/>
    </filter>
    <clipPath id="clip-path-3">
      <rect id="Rectángulo_419390" data-name="Rectángulo 419390" width="89.466" height="123.281" fill="none"/>
    </clipPath>
    <clipPath id="clip-path-4">
      <rect id="Rectángulo_419391" data-name="Rectángulo 419391" width="123.891" height="129.751" fill="none"/>
    </clipPath>
  </defs>
  <g id="Enmascarar_grupo_1098809" data-name="Enmascarar grupo 1098809" transform="translate(-810 -2149.656)" clip-path="url(#clip-path)">
    <rect id="Rectángulo_419387" data-name="Rectángulo 419387" width="505" height="110.934" rx="10" transform="translate(852.5 2312.033)" fill="#6ae2f6"/>
    <g id="Grupo_1226318" data-name="Grupo 1226318" transform="translate(-14.809)">
      <g id="Grupo_1203648" data-name="Grupo 1203648" transform="translate(986.453 2149.656)">
        <g id="Grupo_1203647" data-name="Grupo 1203647" transform="translate(0 0)" clip-path="url(#clip-path-2)">
          <path id="Trazado_1043624" data-name="Trazado 1043624" d="M2698.134,844.811c-1.441,2.835-2.987,5.651-3.574,8.807a8.675,8.675,0,0,0,2.813,8.275c1.726,1.628,3.412,3.3,5.117,4.949.715.228.959.873,1.278,1.449a4.044,4.044,0,0,0,.378.7c2.112,2.447,4.42,4.791,3.915,8.567a6.346,6.346,0,0,0,1.687-2.967,3.1,3.1,0,0,1,3.076-2.087c3.25-.024,6.5,0,9.75-.242a43.139,43.139,0,0,1,21.386,16.34c3.5,4.926,4.938,10.885,6.346,16.711a60.636,60.636,0,0,1,1.364,21.392,24.832,24.832,0,0,1-3.077,9,78.817,78.817,0,0,1-17.994,22.254A125.05,125.05,0,0,1,2719.676,967c-1.187-.121-1.373-1.132-1.7-1.972-4.748-12.093-8.939-24.386-13.2-36.655-2.323-6.688-5.933-12.793-9.279-19.013a156.321,156.321,0,0,0-10.047-16.554,14.242,14.242,0,0,0-3.2-3.542c-2.425-2.374-4.511-5.076-7.241-7.16-6.558-5.008-13.362-9.521-21.5-11.609-2.039-.523-2.492-1.211-2.373-3.082.265-4.172-.445-5.292-4.278-6.741a2.435,2.435,0,0,1-1.028-.6c-.685-1.053-.335-2.177-.269-3.3a11.967,11.967,0,0,0-3.209-9.121c-4.148-4.693-9.657-6.223-15.61-6.932-3.433-.409-6.885-.1-10.3-.573a1.177,1.177,0,0,1-.37-.53,2.955,2.955,0,0,1,.331-2.107,37.765,37.765,0,0,0,3.2-11.378,3.938,3.938,0,0,1,.455-1.5c.9-.872,1.276.073,1.7.55a14.518,14.518,0,0,0,3.1,3.025c.911.36,1.7-.111,2.53-.365,2.8-.692,3.714-2.579,4.061-5.349,1.2-9.588,3.428-19.006,5.076-28.523a9.593,9.593,0,0,0,.053-3.951c.921-2,2.374-2.192,3.664-.481a8.937,8.937,0,0,1,1.048,2.343c-.1,3.407-1.308,6.6-1.961,9.9-1.437,7.256-2.393,14.6-4.081,21.976.933,0,1.386-.654,2-.933.876-.314,1.492-1.068,2.354-1.405,1.174-.625,1.481-1.845,1.881-2.931a47.453,47.453,0,0,0,2.977-13.319c.11-1.682.988-3.351.213-5.072-.178-1.555-1.4-2.893-.966-4.578a2.055,2.055,0,0,1,.738-.929,27.142,27.142,0,0,1,14.381-4.867c1.3-.065,2.2.821,3.009,1.755,1.025,1.182,2.1,2.291,3.9,1.853a.684.684,0,0,1,.58.088c3.109,2.76,6.237.757,9.186-.2a7.23,7.23,0,0,1,5.946.243c10.716,5.511,17.826,13.953,21.108,25.619,2.195,7.8.626,15.047-2.844,22.083a35.571,35.571,0,0,0-1.59,3.649" transform="translate(-2437.188 -734.484)" fill="#64b1f1"/>
          <path id="Trazado_1043625" data-name="Trazado 1043625" d="M822.856,3580.922a304.982,304.982,0,0,1-32-3.318,339.237,339.237,0,0,1-43.892-9.614c-1.92-2.054-1.128-4.662-1.33-7.03a21.262,21.262,0,0,1,.2-4.743,40.965,40.965,0,0,1,1.455-8.217c2.237-6.914,5.344-13.3,10.758-18.381,4.1-3.845,8.568-5.959,14.449-4.877a122.277,122.277,0,0,1,16.385,4.28c.64.3,1.339.468,1.964.81a75.933,75.933,0,0,1,8.216,3.258c1.3.614,2.531,1.365,3.824,2,2.943,1.547,5.772,3.3,8.684,4.9a152.8,152.8,0,0,1,17.654,12.831,5.416,5.416,0,0,0,1.174.733c2.791,2.069,5.557,4.172,8.184,6.451q2.982,2.172,5.906,4.416c.626.478,1.343.889,1.6,1.717.1.962-.6,1.415-1.222,1.9-5.764,4.493-11.878,8.486-17.961,12.522-1.28.849-2.678.491-4.052.37" transform="translate(-694.615 -3283.555)" fill="#201f50"/>
          <path id="Trazado_1043626" data-name="Trazado 1043626" d="M2122.495,3674.7a312.214,312.214,0,0,1-43.664,7.394,445,445,0,0,1-53.258,2.534c-4.659-.071-9.316-.295-13.974-.448-.419-.713.178-.981.608-1.212,9.057-4.883,16.594-11.78,24.375-18.352,7.9-6.672,15.982-13.078,25.259-17.8,6.351-3.234,12.744-6.31,18.828-6.935a59.783,59.783,0,0,0-16.57,5.486c-2.363,1.165-5.049,1.66-7.451,2.837a1.267,1.267,0,0,1-1.493-.208c-.024-1.36,1.126-1.69,2-2.185,5.673-3.195,11.427-6.217,17.764-7.934a4.771,4.771,0,0,0,.545-.247c7.192-1.992,14.444-3.472,21.973-2.69a23.776,23.776,0,0,1,3.227.429c.593.167,1.209.253,1.8.444,1.1.443,2.267.678,3.356,1.151,1.308.489,2.5,1.219,3.786,1.762,7.818,4.626,12.084,11.6,13.544,20.444.37,2.24.474,4.5.66,6.762-.129,1.71-.158,3.422-.118,5.134a4.774,4.774,0,0,1-1.2,3.639" transform="translate(-1873.969 -3386.283)" fill="#201f50"/>
          <path id="Trazado_1043627" data-name="Trazado 1043627" d="M438.576,2299.927c-5.616-1.609-11.166-3.394-16.983-4.313a13.959,13.959,0,0,0-11.807,3.364,36.573,36.573,0,0,0-10.406,14.646c-.613,1.513-1.132,3.063-1.695,4.6-2.83-1.459-5.719-.257-8.575-.157-5.443.191-10.894.7-16.217-.993-1.639-2.127-2.22-4.669-2.709-7.212-1.684-8.756.2-17.093,3.054-25.315a26.675,26.675,0,0,0,1.653-5.11,2.847,2.847,0,0,1,.4-2.47c1.454-3.213,2.857-6.448,4.278-9.677.687-2.423,2.344-4.322,3.6-6.417,6.855-11.425,13.159-23.171,20.167-34.5,4.274-6.911,8.569-13.814,13.757-20.1.749-.908,1.39-2.241,3.018-1.679a28.179,28.179,0,0,0,3.927,4.507,6.64,6.64,0,0,1,1.72,2.43c2.644,7.43,4.935,14.936,4.824,22.944a14.161,14.161,0,0,1-.081,1.8c-.313,2.209-1.335,2.927-3.447,2.273-2.3-.712-4.668-1.1-6.993-1.68a9.606,9.606,0,0,0-4.548.072c-2.033.461-2.685,1.464-2.046,3.494,1.041,3.306,2.465,6.475,3.576,9.759a54.576,54.576,0,0,1,1.695,7.6,2.137,2.137,0,0,1-.47,2.054c-.994.524-1.661-.171-2.294-.709a66.081,66.081,0,0,1-8.947-9.854,41.455,41.455,0,0,1,2.839,4.363c2.118,4.208,5.264,7.639,8.42,11.05,1.718,1.857,3.6,3.563,5.337,5.4.637.672,1.443,1.42,1.02,2.426-.408.972-1.487,1.015-2.417,1.1-3.481.336-6.352-1.223-9.065-3.083a91.17,91.17,0,0,1-10.5-9.1c.565.692,1.278,1.3,1.9,1.99,1.174,1.571,2.931,2.642,3.826,4.453a24.456,24.456,0,0,0,1.312,2.464c1.269,2.053.711,3.573-1.571,4.323-2.533.833-5.163,1.359-7.672,2.266-5.527,2-11.048,4.023-15.3,8.364a14.416,14.416,0,0,0-2.141,2.632c-.426.712-1.406,1.5-.861,2.249.514.709,1.641.165,2.438-.023,2.14-.5,4.285-1.015,6.371-1.721,9.443-3.2,19.2-4.383,29.116-4.562,1.038-.019,2.164-.2,3.008.706-.126,1.086-1.039,1.048-1.781,1.215-3.9.882-7.882,1.275-11.815,1.971a102.559,102.559,0,0,0-22.021,6.375,3.214,3.214,0,0,0-1.979,1.375,3.734,3.734,0,0,0,2.58.72,40.944,40.944,0,0,0,10.522-.849c10.764-2.185,21.547-4.285,32.259-6.723,2.081-.474,4.083-1.223,6.15-1.741,2.123-.532,2.785.021,2.1,2.006a5.035,5.035,0,0,0,.807,5.047,17.25,17.25,0,0,1-.2,4.633c-.042.622-.27,1.309-1.142,1.319" transform="translate(-344.29 -2053.775)" fill="#fec53b"/>
          <path id="Trazado_1043628" data-name="Trazado 1043628" d="M3317.191,2381.914a65.25,65.25,0,0,0-1.177-8.883,26.741,26.741,0,0,0-11.252-16.588c-.49-.329-.942-.718-1.411-1.078a1.917,1.917,0,0,1-.7-1.566c.356-2.259,0-4.574.574-6.808.739-1.2,1.57-.651,2.342-.069a27.9,27.9,0,0,1,2.574,2.785c7.2,7.13,14.284,14.383,22.066,20.892a18.944,18.944,0,0,0,6.587,3.706,3.987,3.987,0,0,0,3.934-.726c6.126-4.917,8.233-15.111,4.553-22.048a16.548,16.548,0,0,0-2.582-3.292c-.552-.606-1.381-1.16-.912-2.213,1.193-.654,2.036.13,2.866.758a24.784,24.784,0,0,1,3.8,3.922c1.063-8.3-4.472-14.991-13.022-15.733-3.828-.332-7.73-.521-11.233,1.667-1.82.311-3.555-.319-5.328-.495a100.493,100.493,0,0,0-13.5-.806,3.565,3.565,0,0,1-1.555-.283c-1.091-.611-.653-1.447-.063-1.956a81.018,81.018,0,0,0,9.2-9.693.819.819,0,0,1,.929-.167c1.192.9.769,2.007.33,3.066a30.581,30.581,0,0,1-3.864,6.23,10.532,10.532,0,0,0,5.582-2.661,22.63,22.63,0,0,0,6.816-9.473,44.048,44.048,0,0,0,2.437-16.469c-.22-12.484-5.922-23.093-11.177-33.864-1.269-2.6-1.451-2.456-3.195-.147a55.034,55.034,0,0,0-8.248,14.318c-1.869,5.151-3.036,10.425-2.433,15.873a18.891,18.891,0,0,0,9.723,15.01,7.837,7.837,0,0,0,3.282.749c1.013.1,1.965.5,1.9,1.647-.1,1.7.18,3.481-.783,5.053a6.6,6.6,0,0,0-1.993,1.568,61.5,61.5,0,0,1-10.949,10.154c-.229-.029-.036.456-.038.189,0-.082.052-.092.135-.114.448-.117.787-.085.777.5-.905,1.123-1.956.469-2.972.25a4.34,4.34,0,0,1-2.8-1.715,17.493,17.493,0,0,1-1.236-5.029c-.586-3.686-1.59-7.293-2.05-11-.011-.775-.009-1.551-.01-2.325a91.337,91.337,0,0,1,8.577-39.461c1.484-3.194,3.353-6.2,5.112-9.257a12.514,12.514,0,0,0,1.618-3.412c1.086-2.5,2.294-4.914,4.955-6.153,1.6.633,2.36,2.1,3.285,3.379,5.909,8.185,10.439,17.176,15.182,26.042,4.938,9.231,7.375,19.408,11.06,29.113,2.339,6.164,4.578,12.367,6.882,18.545a6.958,6.958,0,0,0,.724,1.177c.75,3.193,2.323,6.084,3.354,9.177,2.575,7.733,3.094,15.5.673,23.37a10.943,10.943,0,0,0-.239,1.363c.4,1.966-.639,3.594-1.348,5.252-1.2,2.806-2.667,5.464-5.649,6.831a83.8,83.8,0,0,1-11.218,4.26c-4.062.057-7.92-1.334-11.927-1.683-1.509-.131-3-.489-4.514-.6a3.577,3.577,0,0,1-2.455-1.089" transform="translate(-3068.026 -2102.515)" fill="#f3a62f"/>
          <path id="Trazado_1043629" data-name="Trazado 1043629" d="M35.857,1351.282,30.6,1363.3c-2.314-.979-4.059-2.779-5.913-4.35a68.808,68.808,0,0,1-19.239-25.84A72.515,72.515,0,0,1,.2,1309.9c-1.326-17.651,3.855-33.213,14.859-46.894,5.458-6.787,12.133-12.252,19.328-17.157A137.78,137.78,0,0,1,71.6,1227.717a169.183,169.183,0,0,1,28.595-6.219,21.84,21.84,0,0,1,3.96-.377,3.522,3.522,0,0,1,1.983,4.035,2.661,2.661,0,0,1-2.011.7,169.3,169.3,0,0,0-57,16.4,77.886,77.886,0,0,0-24.6,18.891,85.057,85.057,0,0,0-13.6,19.914c-4.19,8.847-6.259,18.1-5.222,27.931a5.378,5.378,0,0,1,.051,1.4c-.975,6.073,1.955,10.857,5.2,15.478,6.449,9.169,14.72,16.469,23.839,22.869a12.069,12.069,0,0,1,3.056,2.544" transform="translate(0 -1137.644)" fill="#83c8f4"/>
          <path id="Trazado_1043630" data-name="Trazado 1043630" d="M1483.238,63.071c-.767-2.324-.476-4.746-.558-7.116-.218-6.277-.025-12.547,1.811-18.626,1.823-6.032,4.982-11.178,10.434-14.892-2.036-1.79-4.027-3.524-3.874-6.461a5.707,5.707,0,0,1,1.555-3.663c1.038,4.513,2.735,5.5,7.234,4.406,4.229-1.028,8.049-3.173,12.192-4.439,4.632-1.415,9.26-1.992,13.881-.01a2.684,2.684,0,0,0,2.109-.088,22.118,22.118,0,0,1,5.132-1.377c-1.458-1.822-2.868-3.467-4.144-5.21-1.427-1.951-1.014-2.743,1.432-3.017a12,12,0,0,1,8.768,2.665,32.362,32.362,0,0,1,4.718,4.377c-1.065-3.058-2.217-6.081-.718-9.616,3.446,6.166,8.738,8.894,15.135,9.971,3.41.574,6.6,1.657,8.457,5.189.25-1.912-.52-3.443-.783-5.077,2.317,1.09,3.317,2.869,3.456,6.086,1.438-1.693,1.661-2.635,1.808-7.848,2.238,1.618,2.62,3.8,2.39,6.186-.187,1.945-1.128,3.261-3.256,3.387.173.767.81.936,1.293,1.233,10.128,6.232,14.923,15.6,16.014,27.157.175,1.857.307,3.719.459,5.579,1.359,2.746.883,5.567.344,8.39-.388.666-.855,1.162-1.72.79-1.686-.793-1.762-2.338-1.811-3.893-.735-3.545-.294-7.167-.741-10.749-.825-6.623-2.76-12.73-6.995-18.014-1.862-2.323-4.365-3.87-6.443-5.741a22.6,22.6,0,0,1,3.322,4.829,29.479,29.479,0,0,0,4.1,6.133c1.539,1.685,1.256,2.485-.928,3.2-1.3,0-1.787-.963-2.306-1.916a36.468,36.468,0,0,0-9.988-12.061c-7.328-5.512-15.717-8.017-24.718-8.654a56.577,56.577,0,0,0-23.345,3.514,36.085,36.085,0,0,0-21.339,19.548c-.583,1.262-.991,2.694-2.75,2.8-2.133-.413-2.913-1.224-3.115-3.235a8.436,8.436,0,0,1,6.923-9.1c-1.775-.837-1.98-1.378-.992-2.6-5.348,5.64-8.774,12.207-9.236,20.053-.277,4.708-.973,9.429-.164,14.157a7.226,7.226,0,0,1,.274,2.147,2.791,2.791,0,0,1-1.982,2.313,1.335,1.335,0,0,1-1.339-.706" transform="translate(-1381.269 -0.004)" fill="#1f1f51"/>
          <path id="Trazado_1043631" data-name="Trazado 1043631" d="M3901.383,1701.228c-3.145.761-6.348.454-9.527.458-1.407,0-2.247.375-2.605,1.8a26.136,26.136,0,0,1-1.081,3c-.218.565-.476,1.181-1.236,1.059-.674-.108-.673-.726-.729-1.252-.049-.462-.1-.926-.121-1.389-.1-2.222-.456-4.207-2.609-5.6-1.265-.821-1.757-2.454-2.079-3.983,0-3.46,0-6.92.008-10.379.014-4.166,2.708-7.092,6.868-7.226,3.79-.123,7.587-.091,11.379-.022,2.886.053,5.842,2.321,6.024,5.159a60.444,60.444,0,0,1-.234,14.116,6.861,6.861,0,0,1-.4,1.122,3.571,3.571,0,0,1-3.658,3.147" transform="translate(-3616.093 -1562.953)" fill="#f4fefe"/>
          <path id="Trazado_1043632" data-name="Trazado 1043632" d="M4173.826,1980.069c1.518-.7,2.492-2.036,3.657-3.147,4.615,1.888,9.331,3.51,13.776,5.832,9.925,5.187,16.733,12.876,18.125,24.174a49.255,49.255,0,0,1-4.285,26.477,59.085,59.085,0,0,1-4.165,8.4c-.292.445-.484.954-1,1.213a45.32,45.32,0,0,0,2.762-16.622,68.291,68.291,0,0,0-6.793-28.088c-2.5-5.206-6.974-8.84-11.474-12.306a46.357,46.357,0,0,0-10.608-5.929" transform="translate(-3888.535 -1841.795)" fill="#82c8f4"/>
          <path id="Trazado_1043633" data-name="Trazado 1043633" d="M3023.935,756.053c.408-2.913.012-5.842.177-8.759a120.138,120.138,0,0,1,15.523-.83,57.534,57.534,0,0,1,29.321,7.913c9.828,5.88,15.219,14.67,16.427,26.144,1,9.462-1.863,17.677-7.241,25.239-.083-2.3,1.022-4.264,1.935-6.231,5.248-11.31,2.662-21.651-3.838-31.48a38.4,38.4,0,0,0-14.573-12.747c-1.847-.971-3.535-1.6-5.794-.426a16.923,16.923,0,0,1-9.073,1.525c-1.138-.084-.334-1.06-.571-1.68-1.876,1.717-3.464.1-4.087-.951-1.935-3.266-4.659-2.632-7.336-1.923-3.79,1-7.546,2.209-10.727,4.667a.314.314,0,0,1-.191-.277q0-.183.051-.183" transform="translate(-2817.194 -695.433)" fill="#82c7f4"/>
          <path id="Trazado_1043634" data-name="Trazado 1043634" d="M1929.077,3707.946c1.628.022,2.737-1.287,4.208-1.647,4.12-1.009,7.776-3.2,11.76-4.594,3.953-1.383,8.021-1.745,12.049-2.51a.831.831,0,0,1,.966.362c-.827.735-1.9.389-2.808.57-7.935,1.589-15.1,5.066-22.094,8.944-9.53,5.286-17.7,12.389-25.959,19.406-6.169,5.244-12.355,10.5-19.466,14.519-.718.405-1.745.309-2.172,1.219a90.847,90.847,0,0,1-9.389-.531c2.361.455,3.913-1.14,5.635-2.258,5.676-3.687,11.229-7.548,16.622-11.64.325-.247.647-.468.685-.916.054-.982.818-1.432,1.469-1.969,1.611-1.33,3.431-2.379,5-3.763a250.481,250.481,0,0,1,20.618-14.344c.856-.515,1.668-1.426,2.877-.846" transform="translate(-1747.93 -3446.315)" fill="#2a3272"/>
          <path id="Trazado_1043635" data-name="Trazado 1043635" d="M309.3,3907.906c-.126,4.02-.324,8.043.5,12.024-9.69-2.887-19.078-6.634-28.565-10.1a12.722,12.722,0,0,1-4.175-2.294c-1.058-.936-.948-1.578.3-2.219,2.888-1.484,6.045-1.968,9.175-2.556.578-.108,1.213.024,1.672-.482a.988.988,0,0,1,.779.033c4.19,2.726,9.151,2.541,13.771,3.631,1.484.349,3,.6,4.51.847a2.9,2.9,0,0,1,2.041,1.112" transform="translate(-257.442 -3635.496)" fill="#62b1f2"/>
          <path id="Trazado_1043636" data-name="Trazado 1043636" d="M441.729,3853.463c-5.177-.919-10.343-1.9-15.534-2.727a10.781,10.781,0,0,1-5.566-2.9c-.573-1.252-1.765-2.123-2.15-3.493.994-.9,2.024-.166,3.02-.032a71.832,71.832,0,0,0,17.968-.287c1.4-.165,3.282-.927,3.8,1.468l-1.542,7.965" transform="translate(-389.875 -3581.053)" fill="#f4a52c"/>
          <path id="Trazado_1043637" data-name="Trazado 1043637" d="M3636.589,4087.618a143.785,143.785,0,0,1,15.677,2.392c1.091.238,2.146.646,3.219.976-5.878,2.4-12.037,3.836-18.18,5.324l-1.355.329c.6-2.98.418-6.014.639-9.021" transform="translate(-3387.424 -3808.221)" fill="#61b1f3"/>
          <path id="Trazado_1043638" data-name="Trazado 1043638" d="M1475.754,922.683l1.18.414c1.1.315,1.529,1.258,1.926,2.163,3.412,7.782,5.792,15.827,6.1,24.387a3.014,3.014,0,0,1-.216,1.757c-1.832.766-2.349-.672-3.046-1.812-2.094-6.95-4.152-13.913-6.493-20.789a7.366,7.366,0,0,1-.606-3.111c-.086-1.185.788-2,1.159-3.01" transform="translate(-1373.785 -859.616)" fill="#385fb2"/>
          <path id="Trazado_1043639" data-name="Trazado 1043639" d="M4085.879,3909.868c3.734-3.215,5.378-7.641,7-12.083a27.773,27.773,0,0,1,7.591,2.349c2.415,1.233,2.445,2.509.032,3.974a51.078,51.078,0,0,1-9.657,4.285,24.448,24.448,0,0,1-4.963,1.474" transform="translate(-3806.6 -3631.363)" fill="#62b1f3"/>
          <path id="Trazado_1043641" data-name="Trazado 1043641" d="M1469.022,966.712c1.641,3.066,2.474,6.435,3.54,9.707,1.543,4.733,2.892,9.53,4.323,14.3-1.962.141-2.665-.536-2.719-2.621a19.055,19.055,0,0,0-1.8-3.984,87.513,87.513,0,0,1-3.612-14.5,3.762,3.762,0,0,1,.27-2.9" transform="translate(-1368.213 -900.635)" fill="#f4d23f"/>
          <path id="Trazado_1043642" data-name="Trazado 1043642" d="M1305.927,1580.451c-1.534,1.992-3.306,3.808-4.462,6.077a2.954,2.954,0,0,1-1.508,2.27c-2.228.224-2.828,2.272-3.849,3.683a32.7,32.7,0,0,0-5.424,12.1,2.69,2.69,0,0,1-.967,1.91c-3.312,1.611-3.977,1.458-6.1-1.575-2.439-3.488-4.568-7.213-7.673-9.827a39.561,39.561,0,0,1,3.823,17.469,11.319,11.319,0,0,1-.477,3.346,38.25,38.25,0,0,1-13.277,24.438,5.847,5.847,0,0,1-2.61,1.4c-4.034-1.265-7.92-2.727-9.465-7.253a104.777,104.777,0,0,1,.05-12.586,6.489,6.489,0,0,0-.093-1.79,7.518,7.518,0,0,1-.046-1.744c.385-2.533.129-4.882-1.927-6.719a5.94,5.94,0,0,0-4.233-1.444c-10.781,0-21.557.414-32.338.528-3.746.04-7.588-.189-11.331.613a3.267,3.267,0,0,0-1.466.55,14.981,14.981,0,0,0-3.215,3.9,6.447,6.447,0,0,0-.577,3.3c0,4.917.021,9.834-.007,14.75-.014,2.478-.725,3-3.2,2.671-3.367-.45-6.755-.893-9.821,1.188a6.874,6.874,0,0,0-2.6,2.286c-.5.716-1.014,1.369-2.029,1.2a35.655,35.655,0,0,1-11.381-10.2c-5.429-7.852-8.393-16.881-11.287-24.632.611,2.74,2.526,6.308,3.383,10.227a74.472,74.472,0,0,1,1.483,11.479,94.541,94.541,0,0,0,2.162,17.227,26.967,26.967,0,0,0,3.86,8.731c.438.645,1.172,1.316.763,2.141-.446.9-1.491.865-2.323.781-3.1-.312-6.249.337-9.33-.435a4.368,4.368,0,0,1-.933-1.011c-1.056-2.445-.835-5.075-1.115-7.635-.374-3.428-.963-6.828-1.394-10.249a4.535,4.535,0,0,0-.2-2.639c.025-2.127-.951-4.122-.838-6.261a7.766,7.766,0,0,0,.34-3.746c-.547-6.5-.778-13.037-2.144-19.441a98.554,98.554,0,0,0-10.892-29.082c-.242-.418-.434-.834-1.01-.792-.607-.309-1.348-.329-1.874-.834.081-1.181,1.065-1.635,1.84-2.221,5.716-4.321,11.7-8.177,18.514-10.581,1.441-.509,1.689-1.258,1.19-2.727-1.246-3.67-.3-6.778,2.506-8.97.908-.709,1.875-1.313,3.117-.857.164.492.152.976.742,1.359a33.4,33.4,0,0,1,5.711,4.611,15.586,15.586,0,0,1-3.815-4.3,5.857,5.857,0,0,0-2.528-2.425c-1.166-2.123-.793-4.271-.009-6.373,1.38-3.7,4.174-6.114,7.516-7.98,4.559-2.544,9.584-3.19,14.67-3.389,2.377-.093,4.8-.38,7.157.334a4.973,4.973,0,0,1,2.029,5.246,1.617,1.617,0,0,1-.377.57c-1.137.768-2.437.542-3.687.564-3.854.069-7.748-.33-11.5.927-2.16.724-4.35,1.442-5.231,3.893-.623,1.816.033,3.463.682,5.107.409,1.036,1.173,1.891,1.542,2.95a5.772,5.772,0,0,0,2.424,4.186c6.9,5.574,13.553,11.462,20.932,16.428,1.092.735,2.312,1.5,1.84,3.193a8.321,8.321,0,0,1-.991,1.448,3.1,3.1,0,0,0,.348,3.965c.534.64,1.326,1.1,1.446,2.038a1.229,1.229,0,0,1-1.661,1.231c-2.259-.712-4.635-.368-6.907-.979a24.689,24.689,0,0,1-6.52-2.937,4.8,4.8,0,0,0-2.772-.992,53.933,53.933,0,0,1-12.49-7.419c3.52,2.693,6.346,5.531,9.505,7.989a46.973,46.973,0,0,0,21.469,9.09,4.378,4.378,0,0,1,2.089.587,7.824,7.824,0,0,1,1.19,5.526,15.6,15.6,0,0,1-4.775,10.478,3.112,3.112,0,0,0-1.164,1.753,16.138,16.138,0,0,0,6.65-12.635c.08-1.434-.336-2.95.616-4.267a3.313,3.313,0,0,1,2.663-.545,89.185,89.185,0,0,0,11.363.662c.846-.023,1.764-.162,2.4.647.716,1.519.351,3.142.4,4.721a17.358,17.358,0,0,0,3.92,10.871,6.759,6.759,0,0,0,.954,1.018.608.608,0,0,0,.663.081c.2-.745-.482-1.1-.853-1.558a17.428,17.428,0,0,1-3.684-14.231,2.925,2.925,0,0,1,.864-1.961c6.665.281,12.361-2.572,18.026-5.554a64.455,64.455,0,0,0,16.567-12.365,22.057,22.057,0,0,0,4.02-5.317,18.6,18.6,0,0,0-5.013,1.973c-3.673,2.034-7.181,4.328-10.659,6.672a7.123,7.123,0,0,1-2.643,1.364c-1.341,0-2.358.833-3.414,1.45a50.136,50.136,0,0,1-8.355,3.527,2.282,2.282,0,0,1-2.989-.768,2.8,2.8,0,0,1-.351-1.117c-.158-1.437-.785-2.408-2.391-2.186a2.369,2.369,0,0,0-2.2,2.75,6.726,6.726,0,0,1-.006,1.377A3.235,3.235,0,0,1,1226.3,1584a5.62,5.62,0,0,0-1.46.622c-4.827,2.922-9.734,2.328-14.695.4a7.688,7.688,0,0,1-2.357-1.435,2.4,2.4,0,0,1-.57-2.886,24.88,24.88,0,0,0,.913-3.413,2.4,2.4,0,0,1,2.175-1.657c2.276.508,3.924,2.125,5.787,3.348,2.208,1.449,2.477,1.514,4.556-.008,2.189-1.6,4.3-3.308,6.344-5.088a8.939,8.939,0,0,1,.885-.7,9.892,9.892,0,0,1,2.994-2.093c1.96-.651,3.34-2.167,4.861-3.415,4.055-3.327,8.74-5.782,12.732-9.14,2.649-2.228,5.74-4.135,7.371-7.421.578-.894,1.3-1.682,1.909-2.548,2.962-4.186,1.545-8.769-3.292-10.54-2.852-1.044-5.881-.869-8.839-1.149-1.25-.119-2.52.009-3.779-.044a2.79,2.79,0,0,1-2.355-.824c-.614-1.154-.169-2.363-.191-3.548a1.172,1.172,0,0,1,.61-.883c8.467-.562,16.757-.241,24.042,4.935a6.1,6.1,0,0,1,2.277,2.446c2.554,4.961,2.075,9.627-1.482,13.91a72.6,72.6,0,0,1-16.488,14.37c-2.205,1.435-4.4,2.884-6.623,4.292,5.923-3.7,11.645-7.691,17.321-11.752a82.094,82.094,0,0,0,7.957-6.657c.709-.657,1.324-1.568,2.526-1.288,4.2-.14,6.784,3.03,5.794,7.183-.281,1.18-.393,2.008,1.147,2.355,8.26,1.86,15.152,6.371,21.8,11.356a44.728,44.728,0,0,1,7.762,7.718" transform="translate(-1060.571 -1426.196)" fill="#fec53d"/>
          <path id="Trazado_1043643" data-name="Trazado 1043643" d="M1879.168,637.787A55.136,55.136,0,0,1,1875,652.735c-4.015,6.573-9.6,11.156-17.115,13.091-10.17,2.62-20.383-2.15-25.959-10.342a7.086,7.086,0,0,0-2.414-2.948c-2.816-3.591-4.065-7.82-4.923-12.2-.126-.645-.232-1.295-.394-1.934-.164-1.366-.664-2.669-.777-4.045-.135-2.272-.861-4.437-1.2-6.671.3-2.711-.659-5.255-1.08-7.865-.82-5.081-1.513-10.153-.656-15.3a9.948,9.948,0,0,1,.286-1.369c.591-1.875,1.559-2.344,3.319-1.5a31.9,31.9,0,0,0,4.024,1.763,8.246,8.246,0,0,0,9.459-2.876,23.443,23.443,0,0,0,3.256-6.161c.942-2.38,1.607-2.785,4.127-2.2A13.178,13.178,0,0,0,1857.377,589c.635-.565,1.3-1.409,2.225-1.054,1.074.413,1.116,1.566,1.192,2.563a6.846,6.846,0,0,1-1.032,4.2,9.938,9.938,0,0,1-4.483,3.845c-.74.339-2.01.247-2.05,1.282-.044,1.153,1.019,1.8,1.962,2.322a8.035,8.035,0,0,0,6.217.424,16.5,16.5,0,0,0,10.082-7.042,10.894,10.894,0,0,1,1.8-2.39c.791-.7,1.428-.633,1.788.452a1.3,1.3,0,0,1,.1.386c.032,3.959,2.1,6.425,5.653,7.891a3.033,3.033,0,0,1,1.607,2.6c.609,3.664.066,7.3-.269,10.931-.122,1.318-.113,2.655-.335,3.967-.4,3.527-.946,7.039-1.033,10.6-.488,2.615-.109,5.412-1.631,7.811" transform="translate(-1695.684 -547.679)" fill="#febd84"/>
          <path id="Trazado_1043644" data-name="Trazado 1043644" d="M1653.251,339.74a40.642,40.642,0,0,1,.981-7.779c1.084-8.31,3.3-16.412,4.495-24.7-.649,4.4-1.514,8.75-2.466,13.086-.1.467.124,1.363-.924,1.037-.025-.008-.036-.105-.031-.159a1.023,1.023,0,0,1,.058-.191c.317-4.917,1.009-9.821.448-14.769-.1-.844-.134-1.571-1.116-1.86-4.451-1.311-6.192-4.507-6.162-8.922a5.489,5.489,0,0,0-.17-.82c-.917,1.388-1.646,2.612-2.492,3.749a17.21,17.21,0,0,1-12.594,7.264,6.923,6.923,0,0,1-6.974-3.37c-.678-1.07-.791-1.708.817-1.916a8.2,8.2,0,0,0,5.311-2.924,7.211,7.211,0,0,0,1.249-7.446c-.937.812-1.739,1.59-2.623,2.259a13.569,13.569,0,0,1-13.014,2.334c-1.284-.419-1.756-.194-2.126,1.061a20.888,20.888,0,0,1-3.284,6.805c-3.061,4.048-6.71,5.134-11.44,3.363a22.952,22.952,0,0,1-2.885-1.37c-2.389-1.3-2.48-1.285-2.95,1.527-.985,5.893-.1,11.692.927,17.484a23.272,23.272,0,0,1,.63,5.942c-1.323.091-1.376-1.071-1.675-1.84-2.136-5.495-3.652-11.188-5.266-16.848a16.467,16.467,0,0,1-.576-2.113c2.2,9.477,5.869,18.49,8.749,27.753a11.1,11.1,0,0,1,.693,3.957,5.672,5.672,0,0,1-2.531,4.215,1.671,1.671,0,0,1-2.012.2,4.613,4.613,0,0,1-1.113-2.3c-3.529-11.144-6.746-22.379-9.806-33.661-.379-1.4-.635-2.872-1.922-3.818.639-3.178-.569-5.6-2.89-7.744-1.4-1.3-1.226-3.118.187-5.264a4.638,4.638,0,0,1,3.272-2.342,7.372,7.372,0,0,1,2.465,1.244c1.719.947,1.973.9,2.772-.992a29.146,29.146,0,0,1,9.584-12.226,41.844,41.844,0,0,1,20.818-9.082,48.566,48.566,0,0,1,25.182,2.53,39.6,39.6,0,0,1,10.679,6.566,53.913,53.913,0,0,1,7.375,9.106c.674.979,1.147,1.837,2.3.472a1.446,1.446,0,0,1,2.143-.19,4.024,4.024,0,0,1,.8,2.8c.043,1.26-.033,2.522.044,3.78.172,2.8,1.111,5.164,3.7,6.625.745.419,1.631.9,1.261,1.972s-1.385,1.108-2.334,1.12a4.362,4.362,0,0,1-2.282-.609c-1.25-.733-1.667-.1-1.8,1.052q-3.2,17.059-5.992,34.183c-.153.926-.047,1.865-.186,2.785-.176,1.164-.107,2.42-1.1,3.314-2-.863-3.073-2.628-4.2-4.337" transform="translate(-1469.767 -249.631)" fill="#201f51"/>
          <path id="Trazado_1043645" data-name="Trazado 1043645" d="M2775.546,793.154c1.264,0,2.18.919,3.319,1.253a1.79,1.79,0,0,1,.827,2.142q-2.566,13.514-5.012,27.05a53.766,53.766,0,0,0-.8,5.52,3.1,3.1,0,0,1-2.652,3.176,16.077,16.077,0,0,0-2.042.742c-1.019-1.134-.8-2.5-.6-3.8,1.717-11.422,3.723-22.792,6.146-34.087a4.119,4.119,0,0,1,.817-2" transform="translate(-2579.19 -738.94)" fill="#3659ac"/>
          <path id="Trazado_1043646" data-name="Trazado 1043646" d="M4196.713,2744.32c1.782-1.94.418-3.644.451-5.253.024-1.219-.873-2.871.171-3.556,1.151-.755,2.77-.1,4.116.557,4.644,2.272,4.794,3.028,1.216,6.608a13.5,13.5,0,0,1-5.3,3.683c-1.323.438-2.417,1.6-3.582,2.475a2.24,2.24,0,0,1-2.923.026c-1.862-1.271-3.253-2.913-3.047-5.211a8.307,8.307,0,0,1,4.47-6.89,1.4,1.4,0,0,1,.187-.073c2.634-.951,3.364-1.945,3.313,2.146a31.909,31.909,0,0,0,.931,5.488" transform="translate(-3901.547 -2548.218)" fill="#93cdf8"/>
          <path id="Trazado_1043647" data-name="Trazado 1043647" d="M1993.04,1539.39c1.639,1.646,3.179,3.406,4.934,4.917,9.33,8.038,22.561,7.674,31.764-.881,2.186-2.031,4.168-4.28,6.245-6.43a.346.346,0,0,0,0,.331q-.088.423-.177.847c-2.2,8.725-12.04,16.635-21.01,16.778-1.82.029-3.734.718-5.479-.417-5.858-1.463-10.074-5.189-13.592-9.875-.757-1.008-1.454-2.06-2.193-3.081a2.063,2.063,0,0,1-.5-2.188" transform="translate(-1856.662 -1431.939)" fill="#1a1749"/>
          <path id="Trazado_1043648" data-name="Trazado 1043648" d="M2754.549,787.465a4.434,4.434,0,0,1-.121,2.537c-2.262,10.871-4.3,21.782-5.9,32.773-.219,1.508-.231,3.046-.339,4.572-.725.428-1.43.968-2.312.35.721-10.736,3.213-21.2,4.927-31.78.405-2.5.856-4.991,1.3-7.483.09-.5-.013-1.1.6-1.385l1.837.417" transform="translate(-2558.192 -733.252)" fill="#f9d444"/>
          <path id="Trazado_1043649" data-name="Trazado 1043649" d="M2927.8,885.726q.071.23.141.46c-.1,1.561,1.552,2.645,1.167,4.284-.419,3.243-1.649,6.283-2.363,9.455-.8,3.571-1.771,7.106-2.384,10.719a3.561,3.561,0,0,1-.845,1.982,5.61,5.61,0,0,1-1.928,1.232c-.971-.689-.823-1.741-.863-2.719-.227-5.423.942-10.685,1.9-15.967a44.924,44.924,0,0,1,1.829-7.517c.367-1,.688-2.281,2.278-1.965a.916.916,0,0,0,1.066.036" transform="translate(-2721.06 -825.106)" fill="#395cad"/>
          <path id="Trazado_1043650" data-name="Trazado 1043650" d="M2650.144,1662.684c-3.69,3.142-7.189,6.5-11.165,9.315-5.761,4.085-11.768,7.774-17.787,11.449-.2.125-.441.342-.793.008a11.933,11.933,0,0,1,3.3-2.4,116.256,116.256,0,0,0,19.135-15.287c4.209-4.238,6.2-8.875,4.229-14.776a5.455,5.455,0,0,1-.127-1.188,11.723,11.723,0,0,1,3.389,10.128,6.434,6.434,0,0,0-.179,2.747" transform="translate(-2441.288 -1537.041)" fill="#eea12e"/>
          <path id="Trazado_1043651" data-name="Trazado 1043651" d="M3168.6,1481.339c-3.4-.009-4.192-.507-4.73-2.708-.4-1.647,1.125-4.714,2.647-5.6.673-.393.961.223,1.449.275a5.514,5.514,0,0,1,4.076,2.874c1.682,2.666.969,4.3-2.071,4.973a12.521,12.521,0,0,1-1.372.188" transform="translate(-2947.556 -1372.222)" fill="#92cefa"/>
          <path id="Trazado_1043652" data-name="Trazado 1043652" d="M2890.481,835.834c-1.168.446-1.354,1.572-1.67,2.548a70.192,70.192,0,0,0-3.476,25.62l-3.552,2.49c1.026-5.294,2.013-10.155,2.9-15.034,1.143-6.274,2.3-12.543,3.735-18.76l.38-.571c-.217,1.587.644,2.686,1.679,3.707" transform="translate(-2684.806 -775.25)" fill="#222b70"/>
          <path id="Trazado_1043653" data-name="Trazado 1043653" d="M3809.584,2407.956a2.13,2.13,0,0,1-2.441-1.289,4.1,4.1,0,0,1,.6-4.3c1.867-2.32,6.493-1.805,7.926.795a1.407,1.407,0,0,1-.219,1.82,8.749,8.749,0,0,1-5.861,2.976" transform="translate(-3546.589 -2236.779)" fill="#95d0fb"/>
          <path id="Trazado_1043654" data-name="Trazado 1043654" d="M2961.345,978.453c-.266-2.707.722-5.218,1.287-7.782a115.016,115.016,0,0,1,3.219-12.277,5.094,5.094,0,0,1,1.086-2.1c.716,1.7.177,3.422.029,5.12a50.564,50.564,0,0,1-3.487,14.888c-.423,1.033-.937,1.913-2.134,2.147" transform="translate(-2758.889 -890.932)" fill="#f1d043"/>
          <path id="Trazado_1043655" data-name="Trazado 1043655" d="M3010.485,1322.287c1.778-1.779,1.557-3.978,1.469-6.141-.038-.956.659-1.2,1.343-1.488,2.514-1.052,5.043-2.072,7.533-3.178,1.179-.524,1.626-.225,1.491,1.021-.183,1.694-.384,3.386-.591,5.194-.765-.27-.794-.811-.918-1.283-.676-2.573-.676-2.575-3.068-1.7-.624.227-1.233.507-1.869.693-1.671.489-2.62,1.406-2.317,3.311.345,2.166-1.583,2.66-3.073,3.574" transform="translate(-2804.711 -1221.608)" fill="#cff2fa"/>
          <path id="Trazado_1043656" data-name="Trazado 1043656" d="M4201.93,2252.28c-1.513.069-2.1-.786-2.031-1.73a2.376,2.376,0,0,1,2.5-2.136c1.156-.009,2.491.863,2.384,1.981-.149,1.562-1.937,1.482-2.851,1.886" transform="translate(-3912.821 -2094.729)" fill="#98d0fa"/>
          <path id="Trazado_1043657" data-name="Trazado 1043657" d="M1704.774,3643.961c-6.151-4.761-12.256-9.588-18.863-13.724-2.2-1.691-2.153-2.225.471-3.272a43.42,43.42,0,0,0,7.672-3.833c3.476-2.261,7.54-1.9,11.407-2.366a2.529,2.529,0,0,1,2.042,1.1,7.418,7.418,0,0,0,3.782,3.325c3.7,1.034,7.3,2.42,11.123,3a41.759,41.759,0,0,0,19.614-1.969c1.407-.467,2.848-.564,4.239-.967.794-.117,1.716-.327,2.157.521.422.811-.191,1.545-.7,2.148a35.494,35.494,0,0,1-9.5,8.171c-6.328,3.612-12.882,6.717-20.314,7.34a8.608,8.608,0,0,1-2.387,0c-2.814-.55-5.685-.7-8.5-1.177-1.606-.273-2.313.05-2.249,1.7" transform="translate(-1569.206 -3373.268)" fill="#f3a630"/>
          <path id="Trazado_1043658" data-name="Trazado 1043658" d="M1966.524,3650.369a1.081,1.081,0,0,1-.052-.193c-.066-.862-1.712-1.222-1.012-2.084.628-.773,1.871-.354,2.849-.218,3.406.472,6.81,1.347,10.213,1.341a29.522,29.522,0,0,0,11.2-2.493c4.969-2.07,9.889-4.285,14.058-7.8a30.9,30.9,0,0,0,6.148-6.427c-.622-.586-1.233-.268-1.792-.318-1.807.2-3.613.361-5.407.7a3.876,3.876,0,0,1-3.2-.5c-.552-1.034.377-1.066.92-1.27a6.106,6.106,0,0,1,2.167-.181c3.577-.007,7.157-.075,10.731.019a9.618,9.618,0,0,0,7.72-2.917,2.78,2.78,0,0,1,2.1-.339,26.466,26.466,0,0,1,7.583,2.344,2.139,2.139,0,0,1,1.491,1.719,91.064,91.064,0,0,0-18.137,8.268c-.685.4-1.339.857-2.008,1.286a136.777,136.777,0,0,0-14.9,9.707c-2.764,1.973-5.375,4.16-8.3,5.9a34.5,34.5,0,0,1-14.249-.4q-3.286-2.514-6.573-5.026c-.507-.387-1.033-.749-1.55-1.122" transform="translate(-1830.955 -3379.676)" fill="#ed992f"/>
          <path id="Trazado_1043659" data-name="Trazado 1043659" d="M1383.137,2661.992h11.441c-5.744-7.111-6.6-15.376-7.065-23.688a93.134,93.134,0,0,0-4.4-24.82,12.884,12.884,0,0,1-.629-3.077c1.693,4.813,4.423,9.147,6.141,13.939,3.113,8.68,8.165,15.935,15.911,21.142a3.968,3.968,0,0,1,1.422,1.363.885.885,0,0,1,.032,1.1c-.989,1.462-1.977,2.923-2.909,4.423a1.2,1.2,0,0,1-1.169.583c-1.188-.621-1.706-1.834-2.445-2.838a81.641,81.641,0,0,1-6.234-9.516,6.661,6.661,0,0,0-1.678-1.956,30.666,30.666,0,0,0,3.947,12.563c1.228,2.133,2.708,4.11,3.832,6.306-.185,2.346-2.059,3.581-3.473,5.063-.991,1.038-2.134,1.954-3.176,2.961a2.506,2.506,0,0,1-1.615.714,1.37,1.37,0,0,1-.973-.638c-.342-.536.023-1.487-.774-1.694-.739-.191-1.149.547-1.583,1.011-2.9,3.107-5.232,6.48-5.244,11,0,1.074-.039,2.319-1.414,2.784l-1.676-.58c.859-1.96.306-4.118.859-6.121-.588-2.105.654-3.711,1.514-5.4a19.274,19.274,0,0,1,2.639-3.184c-.176-.755-1.595-.3-1.284-1.431" transform="translate(-1285.123 -2431.98)" fill="#f3a42f"/>
          <path id="Trazado_1043660" data-name="Trazado 1043660" d="M1528.575,3413.256l1.2-.766a1.725,1.725,0,0,1,.458,1.65c-.332,3.965.785,7.654,2.242,11.249,1.528,3.773,3.529,4.663,7.429,3.461a35.425,35.425,0,0,0,5.918-2.875c1.815-.953,3.492-1.513,5.658-.562,1.814.8,3.919-.192,5.9-.242.66-.016,1.317-.192,1.986-.164,1.466.062,2.279.674,1.9,2.28a1.37,1.37,0,0,1-.621,1.116c-1.618-2.186-3.711-.561-5.543-.581a16.319,16.319,0,0,0-9.78,3.42,25.35,25.35,0,0,1-5.093,2.243c-2.317.965-2.321.956-.9,2.721l-8.759-4.967c-3.5-4.985-3.84-10.641-3.443-16.436.054-.786.331-1.625,1.444-1.549" transform="translate(-1422.627 -3179.238)" fill="#f69b6c"/>
          <path id="Trazado_1043661" data-name="Trazado 1043661" d="M1403.922,3392.536c1.258-1.9.573-4.152,1.14-6.2,1.057-3.816,3.619-6.57,6.185-9.346a1.139,1.139,0,0,1,1.632-.084,1.855,1.855,0,0,1,.23,2.533,5.889,5.889,0,0,1-.749,2.039,16.225,16.225,0,0,0-.279,11.486c.32.963.925,1.971.238,3.041l-8.4-3.471" transform="translate(-1307.96 -3145.804)" fill="#fdc33d"/>
          <path id="Trazado_1043662" data-name="Trazado 1043662" d="M1500.05,3434.682c-1.241-3.716-2.581-7.4-1.65-11.453a9.614,9.614,0,0,1,2.44-5.113l.8.382c-.853.471-.771,1.292-.8,2.087-.216,5.277.326,10.4,2.893,15.151.1.18-.055.495-.091.746l-3.589-1.8" transform="translate(-1395.691 -3184.48)" fill="#ea744b"/>
          <path id="Trazado_1043663" data-name="Trazado 1043663" d="M2102.214,4045.289c1.289-.854,2.559.076,3.843.05,2.7-.051,5.4-.012,8.1-.013a4.415,4.415,0,0,1,2.31.361c-2.024,2.062-4.552,3.484-6.758,5.313a79.207,79.207,0,0,1-7.492-5.711" transform="translate(-1958.522 -3768.447)" fill="#e17f25"/>
          <path id="Trazado_1043664" data-name="Trazado 1043664" d="M2519.87,3099.386c-3.283-2.208-7.018-3.054-10.853-3.592a2.3,2.3,0,0,1-2.292.084,64.768,64.768,0,0,1-11.054-4.619,6.426,6.426,0,0,1-3.364-3.53c-.362-1.114-.58-2.25.774-2.937a51.26,51.26,0,0,0,9.567,2.56,68.046,68.046,0,0,0,14.7.346,4.86,4.86,0,0,0,3.2-1.329.622.622,0,0,0-.781-.221c-3.14,2.371-6.813,1.84-10.327,1.753a52.077,52.077,0,0,1-11.638-1.5c-1.676-.428-3.111-1.522-4.883-1.63-1.9-.139-2.956-1.417-3.741-2.915a3.223,3.223,0,0,1,.227-3.751c.97-1.177,2.221-.97,3.475-.556a10.757,10.757,0,0,0,5.753,1.331,58.834,58.834,0,0,0,17.939-2.165,10.541,10.541,0,0,0,4.68-2.5c-2.528.87-4.675,1.729-6.874,2.427-6.216,1.977-12.53,2.925-19.052,1.781a12.3,12.3,0,0,1-2.6-.925c-1.756-.412-2.333-1.662-2.218-3.289a4.062,4.062,0,0,1,3.556-3.538c2.313-.235,4.641-.373,6.963-.507a53.92,53.92,0,0,0,8.649-1.431,2.4,2.4,0,0,0,2.181-2.776c-.076-2.4-.041-4.794-.005-7.192.014-.921-.059-1.893.8-2.564a4.414,4.414,0,0,0,2.86,2.968c2.09.915,3.55,3,6,3.289a3.435,3.435,0,0,1,2.676,1.073,28.467,28.467,0,0,1,6.8,7.448,21.551,21.551,0,0,0,7.409,6.994c3.633,3.97,4.393,8.692,3.464,13.782-.308,1.685-1.2,3.322.389,4.815-7.637-.521-15.022.963-22.362,2.809" transform="translate(-2318.578 -2847.31)" fill="#fdbe87"/>
          <path id="Trazado_1043665" data-name="Trazado 1043665" d="M2985.1,2810.786c-4.357-1.545-6.389-5.45-8.927-8.83a27.886,27.886,0,0,0-7.44-6.885c8.787-6.306,13.472-15.047,15.182-25.555,1.291-.81,1.993.063,2.581.985a9.008,9.008,0,0,1,1,3.424c1.07,6.138.786,12.332.811,18.514,0,1.065-.065,2.134.042,3.192.122,1.2.373,2.38,1.632,2.978.945,1.137.742,2.491.572,3.77-.243,1.822-.261,3.664-.585,5.479a2.242,2.242,0,0,0,.561,2.361,13.7,13.7,0,0,0,1.126,1.17c4.406,4.827,4.362,10.736,4.019,16.7a2,2,0,0,1-1.438,1.964,2.655,2.655,0,0,1-1.531-.408c-.562-.618-.409-1.372-.393-2.1a46.7,46.7,0,0,0-.038-6.6c-.56-4.625-2.378-8.471-7.171-10.16" transform="translate(-2765.811 -2579.915)" fill="#ec962f"/>
          <path id="Trazado_1043666" data-name="Trazado 1043666" d="M3285.464,3369.568l-.777-.625c1.462-1.386,2.917-.754,4.373.013l2.391,1c3.344,2.636,4.383,6.371,4.922,10.342a1.993,1.993,0,0,1-.463,1.676c.188,2.944-.362,5.852-.413,8.784l-3.623-1.669c-.306-4.854-.728-9.688-2.635-14.244a11.115,11.115,0,0,0-3.774-5.275" transform="translate(-3060.171 -3137.906)" fill="#fde366"/>
          <path id="Trazado_1043667" data-name="Trazado 1043667" d="M3208.176,3376.768c2.968-.45,4.5,1.473,5.8,3.622,2.9,4.789,2.491,10,1.8,15.233a10.366,10.366,0,0,1-3.233-.459,1.283,1.283,0,0,0-1.082-.4c-1.105-.02-1.366-.447-.946-1.518a15.8,15.8,0,0,0-2.339-16.48" transform="translate(-2988.89 -3145.897)" fill="#fec33f"/>
          <path id="Trazado_1043668" data-name="Trazado 1043668" d="M3296.056,3389.241c3.109,1.373,4.1,4.348,5.209,7.136,1.382,3.472,1.36,7.248,1.971,10.887a1.534,1.534,0,0,1-.771,1.5l-3.283-1.045c1.075-1.741.967-3.687.859-5.59-.263-4.612-.414-9.284-3.985-12.883" transform="translate(-3070.763 -3157.578)" fill="#f8be3c"/>
          <path id="Trazado_1043669" data-name="Trazado 1043669" d="M161.658,884.083c2.292-.594,2.945-2.763,4.194-4.359.435,1.738.881,3.472,1.3,5.213a25.4,25.4,0,0,0,4.1,8.8.584.584,0,0,1-.1.778c-6.314-.036-12.645-.175-18.694,2.1a17.276,17.276,0,0,0-9.218,7.238,9.254,9.254,0,0,0-.837,7.863c.156.467-.073.734-.474.912-4.511.5-7.01,5.223-5.088,9.609,1,2.289,1.005,2.294-1.38,3.157A69.69,69.69,0,0,0,114.7,937.759a3.031,3.031,0,0,1-2.382,2.018c-2.581,1.98-4.284,4.713-6.132,7.3-7.725,10.808-14.288,22.337-20.889,33.842-4.174,7.273-8.435,14.5-12.657,21.743-2.526-.8-4.446-2.6-6.494-4.132A99.018,99.018,0,0,1,53.453,987.6c-5.188-5.472-10.042-11.211-12.987-18.277a8.694,8.694,0,0,1-.742-4.834c.336-2.105-.172-4.242-.225-6.356a53.471,53.471,0,0,1,3.325-20.745A87.455,87.455,0,0,1,82.95,893.284a150.7,150.7,0,0,1,25.257-9.951,137.594,137.594,0,0,1,19.717-4.991c4.92-.737,9.806-1.776,14.809-1.858.786,1,1.163,2.42,2.719,2.62a4.757,4.757,0,0,0,2.022,1.878c.876-.309,1.642.259,2.662.486-3.345-8.332-4.329-17.123-7.542-25.269a12.411,12.411,0,0,1-1.013-5.782c-.053-.654-.594-1.219-.349-1.927a1.932,1.932,0,0,1,2.527-1.483c1.315.868,1.446,2.339,1.781,3.666,2.215,8.782,4.54,17.533,7.077,26.228.056.192.095.388.15.58,1.48,5.133,1.481,5.133,6.767,6.277a5.82,5.82,0,0,1,2.123.325" transform="translate(-36.779 -789.022)" fill="#63b2f2"/>
          <path id="Trazado_1043670" data-name="Trazado 1043670" d="M910.943,2793.49c.615.683.282,1.536.414,2.306a3.036,3.036,0,0,0-1.517,2.19c-1.485,5.363-3.635,10.528-4.756,16a3.756,3.756,0,0,1-.767,1.6c-1.275.974-2.713.721-4.139.559a11.8,11.8,0,0,1-4.113-2.36c-4.5-3.431-8.551-7.393-12.935-10.961a20.951,20.951,0,0,1-3.447-4.118l-3.623-4c.54-1.433,1.088-.284,1.475.062,2.374,2.123,4.46,4.6,7.172,6.3,3.458,2.176,6.258,5.152,9.531,7.54a3.685,3.685,0,0,0,5.663-1.923c.929-2.913,1.08-5.969,1.57-8.385-.154,1.157-1.3,1.775-2.854,1.815a8.616,8.616,0,0,1-5.51-2.042c-4.282-3.268-7.444-7.543-10.573-11.842a8.269,8.269,0,0,0-1.245-1.547c-1.664-1.906-2.563-4.254-3.735-6.474,4.153,4.081,7.422,9,12.152,12.488,2.826.359,4.287-1.748,5.922-3.407.689-.7.047-1.652-.326-2.419-1.253-2.577-2.347-5.226-3.549-7.827-.359-.777-.81-1.672-.022-2.4.688-.64,1.523-.217,2.266.046,1.823.643,3.57,1.477,5.356,2.213,1.881.775,3.606.863,5.145-.727a1.7,1.7,0,0,1,1.8-.577c1,.578,1.085,1.6,1.247,2.588.787,4.784,2,9.484,2.866,14.252a1.479,1.479,0,0,0,.527,1.043" transform="translate(-816.179 -2584.685)" fill="#e9902b"/>
          <path id="Trazado_1043671" data-name="Trazado 1043671" d="M560.048,3131.2c4.061,3.591,8.091,7.216,12.193,10.758a48.939,48.939,0,0,0,7.846,6,3.8,3.8,0,0,1-4.8.075,97.253,97.253,0,0,0-32.559,4.717c-2.505.845-5.14,1.309-7.719,1.931-.65.156-1.388.321-1.847-.313-.494-.683.116-1.275.423-1.814a23.758,23.758,0,0,1,10.467-9.467,85.9,85.9,0,0,1,16.525-5.807c1.433-.386,1.65-1.031,1.223-2.3-.447-1.332-1.541-2.351-1.752-3.782" transform="translate(-496.545 -2917.173)" fill="#f3a52f"/>
          <path id="Trazado_1043672" data-name="Trazado 1043672" d="M1017.978,2217.344c-.13.026-.324.007-.382.087-2.6,3.544-5.636,2.151-8.681.783-1.275-.573-2.561-1.127-3.867-1.624-.388-.148-.9-.556-1.279-.065-.339.438.048.885.238,1.294,1.344,2.892,2.634,5.811,4.076,8.653.748,1.475.7,2.553-.638,3.653a33.391,33.391,0,0,0-3.28,2.552,1.7,1.7,0,0,1-2.6-.5c.595-.64.3-1.34.2-2.068-.792-5.929-3.226-11.341-5.242-16.888-1.033-2.843-.064-4.137,2.85-4.734,4-.82,7.6.737,11.282,1.667,2.457.621,2.774.535,2.937-2.116.377-6.155-1.2-11.991-2.753-17.838-.288-1.089-.777-2.131-1.006-3.229-.618-2.963-2.442-5.088-4.613-7.015a3.807,3.807,0,0,1-1.651-3.048,4.864,4.864,0,0,1,2.382-2.019c.606-.136,1.186-.175,1.6.425.694.112.954.664,1.216,1.206a89.208,89.208,0,0,1,7.106,18.836,6.433,6.433,0,0,1,.211,1.781c-.295,1.827.3,3.572.675,5.288.941,4.271.926,8.661,1.8,12.932a1.843,1.843,0,0,1-.582,1.988" transform="translate(-928.035 -2026.15)" fill="#f3a62f"/>
          <path id="Trazado_1043673" data-name="Trazado 1043673" d="M620.224,3355.737l4.8-.074c1.493-.071,3.015.29,4.475-.291.618-.751,1.452-.462,2.234-.487,2.437-.074,4.945.5,7.262-.746l.5.75c.785.852,1.944.038,3.057.81a16.245,16.245,0,0,0-5.925,9.208c-2.976-1.863-1.128-4.178-.5-6.611-2.9.8-5.635,1.674-8.422,2.3-12.11,2.718-24.241,5.357-36.485,7.394a20.827,20.827,0,0,1-8.534-.249c-.571-.146-1.345-.142-1.458-.823-.126-.757.6-1.19,1.169-1.452,1.93-.892,3.878-1.762,5.87-2.5a114.2,114.2,0,0,1,23.195-5.664,73.9,73.9,0,0,0,8.766-1.566" transform="translate(-541.482 -3124.876)" fill="#fadf61"/>
          <path id="Trazado_1043674" data-name="Trazado 1043674" d="M728.834,2297.838c.121,2.478-1.29,4.346-2.7,6.078-6.772,8.3-13.013,17-19.533,25.495a53.446,53.446,0,0,1-4.588,4.74c-.225.227-.489.545-.853.36-.452-.229-.377-.7-.232-1.051a18.813,18.813,0,0,1,1.125-2.341c4.348-7.4,8.626-14.844,13.109-22.161a63.623,63.623,0,0,1,8.994-12.175,5.474,5.474,0,0,1,.87-.823c.877-.548,1.749-1.548,2.848-.988,1.077.547.979,1.79.962,2.866" transform="translate(-652.911 -2137.952)" fill="#fce265"/>
          <path id="Trazado_1043675" data-name="Trazado 1043675" d="M840.27,2926.166c2.194.9,2.955,3.135,4.329,4.77a51.511,51.511,0,0,0,8.25,8.363,7.628,7.628,0,0,0,4.619,1.671c2.026.007,2.674-.728,2.512-2.824a2,2,0,0,1,.026-.589c.024-.107.153-.191.353-.423,1.019,2.313.468,4.583.185,6.807-.183,1.443-.684,2.844-.963,4.279-.325,1.671-.954,2.987-2.966,2.752-1.221-.142-.719.976-1.109,1.461-3.312-1.885-5.87-4.633-8.831-6.857a82.221,82.221,0,0,1-10.18-8.963c-.364-.381-.73-1.108-1.453-.43-.823-.775-1.659-1.535-2.462-2.33-.31-.305-.824-.661-.365-1.157s.941-.24,1.371.183c2.085,2.052,4.195,4.073,6.368,6.038a29.942,29.942,0,0,0,9.323,6,10.138,10.138,0,0,0,4.518.374c.468-.032,1.174-.066,1.332-.663.149-.566-.362-.96-.728-1.338-2.871-2.96-5.96-5.712-8.539-8.95-2.061-2.589-4.348-5.024-5.588-8.174" transform="translate(-775.16 -2726.156)" fill="#f3a52f"/>
          <path id="Trazado_1043676" data-name="Trazado 1043676" d="M3396.636,2460.4c.707-1.623.233-3.406.7-5.076.172-.624-.4-.917-1.015-.928-5.88-.114-8.954-4.12-11.565-8.558-3.672-6.245-3.017-12.9-1.4-19.563,1.894-7.806,6.145-14.364,10.933-20.647.9-1.181,1.486-1.24,2.2.106,4.8,9.062,9.618,18.174,11.475,28.35,1.755,9.618,1.588,19.252-3.484,28.065-2.46,4.275-5.776,7.817-10.9,9-.477.111-1.129.5-1.491-.041-.467-.694.3-1.052.669-1.462a25.773,25.773,0,0,0,3.93-6.223,2.19,2.19,0,0,0-.134-2.27.5.5,0,0,1,.084-.754" transform="translate(-3150.887 -2240.363)" fill="#fec53d"/>
          <path id="Trazado_1043677" data-name="Trazado 1043677" d="M3388.1,3403.039a23.552,23.552,0,0,0-4.459-12.017c.946.082,1.888.811,2.837.011a.77.77,0,0,1,1.155-.065,112.542,112.542,0,0,1,21.219,1.666,2.029,2.029,0,0,1,1.526.294,36.253,36.253,0,0,0,6.6,2.76,25.818,25.818,0,0,1,8.114,4.937c.591.5,1.3,1,1.039,1.969,1.218,1.4,2.723,2.636,3.6,4.221,3.513,6.33,3.226,12.713-.261,19a16.963,16.963,0,0,1-3.173,4.066c-2.27,2.166-3.7,2.447-6.641,1.156a28.057,28.057,0,0,1-7.6-5.068q-10.081-9.2-19.706-18.881c-.933-.94-1.735-2.008-2.63-2.988-.442-.484-.867-1.038-1.624-1.057" transform="translate(-3152.358 -3158.974)" fill="#fec53c"/>
          <path id="Trazado_1043678" data-name="Trazado 1043678" d="M3769.754,3399.561a27.3,27.3,0,0,0-12.186-7.291,14.371,14.371,0,0,1-5.095-2.67c.619-1.549,2.131-1.49,3.364-1.7,6.447-1.071,12.477-.27,17.534,4.333,2.632,2.4,4.275,5.228,3.983,8.958-.116,1.49-.019,3-.019,4.966-2.747-2.523-4.125-5.8-7.582-6.6" transform="translate(-3495.983 -3155.942)" fill="#ea8320"/>
          <path id="Trazado_1043679" data-name="Trazado 1043679" d="M3293.16,2347.735c.844-.437.948-1.442,1.571-2.048.593.571.014.948-.234,1.369-4.572,7.745-8.58,15.723-11.109,24.422a78.695,78.695,0,0,0-3.518,19.923c-.057,2.11-.382,4.225-.354,6.354-.221.282-.149.624-.2.943-.2,1.194-.628.685-1.059.134-.865-2.716.04-5.41.237-8.088.214-2.906.377-5.825.548-8.728a47.572,47.572,0,0,1,3-15.148c1.805-2.177,2.149-5.038,3.464-7.447a47.154,47.154,0,0,1,2.706-5.05c1.63-1.254,2.206-3.247,3.385-4.815.432-.574.667-1.3,1.295-1.727l.266-.094" transform="translate(-3053.837 -2185.354)" fill="#df7b1c"/>
          <path id="Trazado_1043680" data-name="Trazado 1043680" d="M3270.741,3152.85c-1.459.371-2.915-.225-4.373-.013-1.226-.1-1.457-.743-1.3-1.908a65.651,65.651,0,0,0,.866-10.31c-1.057-1.116-.565-2.3-.153-3.478.438-.642.832-1.419,1.793-.674q1.585,8.191,3.167,16.381" transform="translate(-3041.852 -2921.8)" fill="#62addc"/>
          <path id="Trazado_1043681" data-name="Trazado 1043681" d="M3408.971,3229.3l-1.155.066c-.39-.055-.927.03-1.138-.194-.383-.405.157-.709.421-.909a105.229,105.229,0,0,0,11.655-10.846c.2-.206.435-.306.694-.075q-.041.378-.084.755a71.266,71.266,0,0,1-10.393,11.2" transform="translate(-3173.7 -2997.302)" fill="#de7b1c"/>
          <path id="Trazado_1043682" data-name="Trazado 1043682" d="M3279.933,3109.711c-.674-.288-.9.246-1.187.653-.533-.687-.79-1.321.319-1.7.845-.022.193-1.057.825-1.222q.022,1.134.042,2.268" transform="translate(-3054.21 -2895.042)" fill="#ec962f"/>
          <path id="Trazado_1043683" data-name="Trazado 1043683" d="M1510.73,898.224q2.964,10.333,5.925,20.666a82.768,82.768,0,0,0,4.023,11.751,11.632,11.632,0,0,1-4.055-1.853,70.819,70.819,0,0,0-2.233-14.951,58.022,58.022,0,0,0-5.314-13.527,4.472,4.472,0,0,0,1.654-2.086" transform="translate(-1405.927 -836.828)" fill="#242d72"/>
          <path id="Trazado_1043685" data-name="Trazado 1043685" d="M2072,2754.613c-.032,3.6-.133,7.2-.059,10.792a2,2,0,0,1-1.793,2.337,58.571,58.571,0,0,1-15.037,1.871,4.647,4.647,0,0,0-3.4.845c-1.795,1.587-1.6,3.708.545,5.326.16.038.224.1.192.18s-.076.138-.121.138c-1.341-.063-2.861-.246-3.467,1.269-.644,1.611.141,2.978,1.413,4.036.662.55,1.37,1.043,2.058,1.562q.414.125.067.384c-.689,2.323-.185,3.65,2.06,5.168a39.435,39.435,0,0,0,7.725,3.573c2.022.806,4.125,1.411,6.191,2.1-1.107,2.806-3.556,3.383-6.133,3.479-4.438.165-8.883.153-13.325.234-.855.016-1.709.117-2.563.178-.611.929-1.579.889-2.508.893-6.2.028-12.4.068-18.6-.021-1.907-.027-3.783-.588-5.687-.808a5.733,5.733,0,0,1-3.6-3.272q0-.634.007-1.264a3.748,3.748,0,0,1,2.462-1.156,32.65,32.65,0,0,0,5.563-1.575,2.875,2.875,0,0,0,2.063-2.652,4,4,0,0,1,.83-2.218,2.771,2.771,0,0,0,.523-2.444,2.137,2.137,0,0,1,1.42-2.709c1.35-.623,2.152-1.521,1.686-3.148a1.709,1.709,0,0,1,.975-1.988c1.259-.8,2.183-1.86,1.9-3.436-.317-1.758-1.744-2.448-3.3-2.791-3.187-.7-6.449-.956-9.661-1.509-1.541-.265-3.232-.191-4.429-1.514a3.443,3.443,0,0,1-.252-1.755c.025-1.952.588-2.416,2.447-1.919a28.82,28.82,0,0,0,4.812,1.133,9.026,9.026,0,0,1,1.344.082,6.431,6.431,0,0,0,4.444-.143,9.419,9.419,0,0,0,2.629-.9,1.965,1.965,0,0,0,1.122-1.954c-.087-.911-.884-1.11-1.591-1.258-4.161-.866-8.292-1.867-12.443-2.778-2.713-.6-2.8-.7-2.776-3.387.051-5.178-.137-10.358.1-15.537,2.547-3.728,6.046-5.14,10.577-5.248q14.7-.352,29.4-.318a23.306,23.306,0,0,1,2.8.063c1.563.3,1.851,1.15.934,2.381a23.877,23.877,0,0,1-4.962,5.381c-2.7,1.964-4.487,4.847-6.733,7.274a108.014,108.014,0,0,0-6.9,8.472c-.748.432-1.511.839-2.292,1.206a6.764,6.764,0,0,0-3.524,6.976,7.066,7.066,0,0,0,6.772,5.7c.266,0,.532,0,.8-.015,3.2-.448,5.6-1.858,6.338-5.267a10.228,10.228,0,0,0,.358-3.489,3.094,3.094,0,0,1,1.444-2.274c6.537-5.524,12.7-11.447,18.787-17.46.722-.713,1.109-1.832,2.258-2.091q.057,7.632.115,15.264" transform="translate(-1877.933 -2545.715)" fill="#263173"/>
          <path id="Trazado_1043686" data-name="Trazado 1043686" d="M1593.3,2765.407c-.024,5.526-.025,11.053-.1,16.579-.013,1.019.532,1.188,1.307,1.352,4.689.988,9.376,1.982,14.053,3.021.834.185,2.012-.031,2.2,1.266a3,3,0,0,1-1.343,3.3,6.315,6.315,0,0,1-3.395,1.022,13.955,13.955,0,0,1-4.461,0l-1.167-.116c-.064-.269.119-.4.3-.525-2.716,0-5.128-1.25-7.7-1.842-2.326-.536-4.735-.952-6.983.422-.44.269-1.131.462-1.05,1.063s.77.621,1.3.687c2.17.614,4.427.887,6.546,1.691a3.362,3.362,0,0,1,.732.591c4.216.658,8.433,1.31,12.647,1.981a14.776,14.776,0,0,1,2.34.517c1.537.513,2.77,1.381,2.929,3.17a3.824,3.824,0,0,1-2.113,3.982c-.866.459-1.191.717-.667,1.813.657,1.371-.418,2.865-2.34,3.589-.961.363-2.1.483-.859,1.83a1.162,1.162,0,0,1,.157.572c.1.6.241,1.39-.236,1.716-2.158,1.471-.513,5.284-4.016,6.047-2.725.594-5.4,1.463-8.177,1.847.313-.942.208-1.569-1.019-1.449-1.784.174-3.584.232-5.354.5-1.515.228-2.953.731-4.248-.663-.5-.54-1.268-.118-1.87.181-2.381,1.183-4.745,2.4-7.139,3.555a10.962,10.962,0,0,1-3.272.833c-2.982.426-4.714-1.232-5.692-3.68-1.778-4.452-3.455-8.971-2.284-13.928,1.532-2.083,3.859-3.387,5.371-5.5a10.82,10.82,0,0,0,1.424-2.123,1.3,1.3,0,0,1,.351-.424c1.3-1,1.975-2.485,2.855-3.789,2.338-3.46,4.671-6.921,7.191-10.252,3.12-2.758,6.853-2.148,10.446-1.7,2.842.358,2.82.569,2.815-2.395-.007-5.123-.026-10.245-.023-15.368,0-1.05-.126-2.162.878-2.921.842,1.279.357,2.428-.347,3.556" transform="translate(-1455.187 -2573.073)" fill="#fdbe86"/>
          <path id="Trazado_1043687" data-name="Trazado 1043687" d="M1965.884,1532.767l.1-.777c.538.981,1.73,1.506,1.908,2.737,3.512,5.83,7.547,11.121,14.173,13.739.743.294,1.5.558,2.247.837.268.523.443,1.092,1.094,1.34a22.22,22.22,0,0,1,2.087,1.166c5.74,2.925,9.411,2.288,14.07-2.155,2.91-2.775,4.747-6.213,6.625-9.657a10.341,10.341,0,0,1,1.208-2.059c.577-.645,1.19-.87,1.8-.011a7.917,7.917,0,0,1,.358,3.53,52.682,52.682,0,0,0,.894,10.658c.089,2.065,2.152,2.842,2.929,4.458.878,1.775.321,3.264-.836,4.71a25.577,25.577,0,0,0-2.582,3.483c-2.049,1.669-4.036,3.414-6.208,4.929a35.7,35.7,0,0,1-6.869,1.962,4.1,4.1,0,0,1-2.723-.088c-1.089-1.821.2-3.348,1.253-4.132,2.013-1.5,1.006-3.341,1.145-5.019.068-.818-1.009-.707-1.6-.8-5.54-.84-10.331-3.35-14.824-6.544-5.31-3.774-9.1-8.889-12.6-14.263-.779-1.01-1.056-2.328-1.991-3.243a6.846,6.846,0,0,0-1.652-4.8" transform="translate(-1831.511 -1427.275)" fill="#f39a6d"/>
          <path id="Trazado_1043688" data-name="Trazado 1043688" d="M2381.957,2750.134c1.889-3.711,4.989-6.48,7.547-9.67,1.363-1.7,2.88-3.278,4.229-4.989.656-.833,1.628-1.106,2.379-1.714a31.32,31.32,0,0,0,4.638-5.415c.329-.42-.08-.537-.407-.624.15-.973.964-1.035,1.657-1.075a29.331,29.331,0,0,1,5.952.076c3.107.453,4.707,2.188,5.091,5.379q.025.851.051,1.7a4.852,4.852,0,0,1-1.75,2.505c-1.665,1.425-3.15,3.06-4.7,4.618-4.689,4.714-9.7,9.069-14.714,13.432a1.831,1.831,0,0,0-.8,1.09c-.875.042-1.051-.752-1.346-1.263-1.367-2.357-3.511-3.243-6.08-3.416-.645-.043-1.349.074-1.751-.637" transform="translate(-2219.144 -2540.169)" fill="#2d408a"/>
          <path id="Trazado_1043689" data-name="Trazado 1043689" d="M2622.005,1623.739c-1.137-2.567-.81-5.344-1.072-8.025-.232-2.375-.088-4.787-.11-7.182a.245.245,0,0,1,.07-.391,67.907,67.907,0,0,1,13.724.812,8.584,8.584,0,0,1,5.188,3.166,7.057,7.057,0,0,1-.11,8.55c-.737,1.022-1.605,1.948-2.414,2.918-1.019.851-1.5,2.377-3.123,2.473a37.2,37.2,0,0,1-9.8-1.016,3.445,3.445,0,0,1-2.35-1.306" transform="translate(-2441.621 -1498.206)" fill="#e6791c"/>
          <path id="Trazado_1043690" data-name="Trazado 1043690" d="M3140.229,2490.632c-.482.5-.348,1.108-.319,1.7q-.227,1.749-.454,3.5c-.488.556-.945.665-1.386-.064a6.18,6.18,0,0,1-1.027-3.363c.048-4.645.12-9.294-.016-13.935a50.994,50.994,0,0,0-1.2-9.617c-.273-1.223-.811-2.286-2.347-2.241,1.085-5.452-.119-10.67-1.533-15.89-.626-2.31-2.037-4.3-2.675-6.654a56.211,56.211,0,0,1,5.329,4.944,51.6,51.6,0,0,1,4.737,6.882c1.126,1.889,2.392,2.334,4.233,1.167.233-.148.457-.274.716-.061.429.407,0,.813,0,1.218a4.468,4.468,0,0,1-.374,1.935c-1.69,3.968-2.17,8.178-2.448,12.43-.4,6.018-.818,12.034-1.229,18.05" transform="translate(-2915.375 -2277.01)" fill="#f3a52f"/>
          <path id="Trazado_1043691" data-name="Trazado 1043691" d="M2473.893,2035.758c4.2-2.68,8.258-5.582,12.621-8.016a30.482,30.482,0,0,1,6.842-2.7c-.379,2.531-2.045,4.156-3.5,5.71a66.112,66.112,0,0,1-30.083,18.732,26.587,26.587,0,0,1-3.51.675,2,2,0,0,1-2.291-.784c-.922-1.365-.025-2.4.623-3.487,3.879-3.409,8.751-4.994,13.3-7.159,1.569-.746,3.015-1.682,4.537-2.5.473-.252.878-.6,1.46-.473" transform="translate(-2285.869 -1886.624)" fill="#f4a52e"/>
          <path id="Trazado_1043692" data-name="Trazado 1043692" d="M1679.471,1625.1a4.711,4.711,0,0,1,2.767-3.421,17.928,17.928,0,0,1,8.2-2.16c3.384-.124,6.776-.026,10.164-.025a2.016,2.016,0,0,1,.971,1.644,20.626,20.626,0,0,1-.968,10.9,2,2,0,0,1-.722.925c-1.8.795-3.631.365-5.469.142a33.922,33.922,0,0,1-9.752-2.623c-2.436-1.083-4.408-2.673-5.192-5.38" transform="translate(-1564.675 -1508.759)" fill="#e6791c"/>
          <path id="Trazado_1043693" data-name="Trazado 1043693" d="M2074.708,2709.848c-1.451-3.637-3-4.733-6.968-4.69-1.91.021-3.852-.34-5.731.311-8.055.035-16.114-.048-24.164.157-3.721.1-7.448.132-11.166.333-2.746.148-4.832,1.683-6.646,3.648-.275.3-.282,1.238-1.108.644-.352-1.232.131-2.381.347-3.557a8.947,8.947,0,0,1,2.582-3.183,4.77,4.77,0,0,1,2.531-.409c14.191-.35,28.385-.529,42.581-.425a21.352,21.352,0,0,1,5.895.491c2.462,1.717,1.907,4.267,1.848,6.681" transform="translate(-1880.81 -2517.915)" fill="#487bc9"/>
          <path id="Trazado_1043694" data-name="Trazado 1043694" d="M1171.265,2194.683c-1.449-5.538-2.862-11.077-5.655-16.158A53.782,53.782,0,0,1,1163.3,2173c1.119-1.6,1.358.082,1.644.546a76.639,76.639,0,0,1,6.337,13.124,90.943,90.943,0,0,1,6.127,25.914c.273,3.844.816,7.67.718,11.537-.018.714.2,1.482-.37,2.105-.894-.235-.933-1-1.1-1.714q-2.038-8.62-3.228-17.4c-.488-3.54-1.213-7.034-2.036-10.507a3.159,3.159,0,0,1-.124-1.928" transform="translate(-1083.784 -2023.843)" fill="#fce267"/>
          <path id="Trazado_1043695" data-name="Trazado 1043695" d="M2255.608,1557.921q-.026.2-.071.391c-1.05.218-1.142,1.218-1.522,1.941-2.1,3.994-4.234,7.911-7.607,11.081-5.795,5.445-10.85,4.353-17.175.045-.547-.372-.888-.85-.1-1.365a19.564,19.564,0,0,0,11.95-1.172c5.864-2.425,9.947-6.786,13.01-12.216.455-.807.927-1.6,1.391-2.4q.062,1.85.125,3.7" transform="translate(-2076.334 -1447.987)" fill="#ec845e"/>
          <path id="Trazado_1043696" data-name="Trazado 1043696" d="M1297.195,3095.233c.04,1.115-.569,1.518-1.6,1.468-2.63-.127-5.273.143-7.9-.237a79.213,79.213,0,0,1,3.07-11.526c.791-2.534,1.583-5.067,2.421-7.585.345-1.035.858-1.756,1.669-.271q1.168,9.075,2.336,18.151" transform="translate(-1199.681 -2865.969)" fill="#5fb0f0"/>
          <path id="Trazado_1043697" data-name="Trazado 1043697" d="M1893.571,1868.747c3.578.142,6.831-1.334,10.235-2.062-1.037,1.728-2.793,2.612-4.361,3.717l-2.744,1.906c-5.321.976-10.425-.084-15.5-1.583-6.633-1.958-12.311-5.6-17.689-9.812a16.127,16.127,0,0,1-4.352-4.571.857.857,0,0,1-.257,1.383c-.615.341-1.222-.148-1.482-.69-.678-1.413-2.245-2.687-.886-4.513a5.393,5.393,0,0,1,2.958-1.08,1.659,1.659,0,0,1,1.386.624c.355.59.044,1.386.6,1.918a24.529,24.529,0,0,0,10.169,9.28c6.077,2.99,12.406,5.077,19.31,4.862.9-.028,1.885-.165,2.618.622" transform="translate(-1729.135 -1724.891)" fill="#66a3e6"/>
          <path id="Trazado_1043698" data-name="Trazado 1043698" d="M2114.491,2681.769a.729.729,0,0,1-.848.631c-11.22-.681-22.452-.252-33.675-.191-3.365.019-6.756.227-10.138.271a26.249,26.249,0,0,1-6.345-.368c1.616-1.619,3.727-1.624,5.774-1.666,8.252-.167,16.505-.259,24.757-.409,5.257-.1,10.512-.26,15.769-.357a5.174,5.174,0,0,1,4.706,2.088" transform="translate(-1922.441 -2496.517)" fill="#62a7e8"/>
          <path id="Trazado_1043699" data-name="Trazado 1043699" d="M2061.871,2161.485a4.861,4.861,0,0,1-.853,3.547c-.745.92-.051,1.712.349,2.512a8.648,8.648,0,0,1,1.737,3.978c.332.854-.226,1.643-.183,2.477.353,5.206-.369,10.125-3.946,14.23a26.006,26.006,0,0,1-2.591,2.481c-.525.456-1.066,1.041-1.844.2-.928-1.009.158-1.3.587-1.671a15.316,15.316,0,0,0,5.549-14.243c-.094-.773-.316-1.531-.479-2.295-.64-.441-.585-1.221-.894-1.824a23.932,23.932,0,0,0-2.007-4.967c-.548-.461-1.133-.887-1.64-1.389-1.832-1.818-1.446-4.329.926-6.182a3.543,3.543,0,0,1,5.289,3.151" transform="translate(-1913.768 -2010.364)" fill="#1a1949"/>
          <path id="Trazado_1043700" data-name="Trazado 1043700" d="M2134.258,2099.182c-2.318,2.513-5.16,4.383-7.86,6.43-1,.759-1.854.362-2.731-.239-2.083-1.427-4.18-2.834-6.271-4.25a10.641,10.641,0,0,1-4.5-2.734c-.512-.438-1.193-.942-.619-1.8.1-.063.322-.177.317-.188-.242-.544-1.248-.859-.707-1.607.58-.8,1.37-.2,1.982.086a42.645,42.645,0,0,0,18.914,3.917c.513-.009,1.083-.128,1.473.383" transform="translate(-1967.39 -1951.24)" fill="#5fa4ec"/>
          <path id="Trazado_1043701" data-name="Trazado 1043701" d="M1683.173,2121.378a3.4,3.4,0,0,1,.317,1.877,40.4,40.4,0,0,1-17.6-5.212,62.507,62.507,0,0,1-15.345-12.26c-.166-.174-.285-.391-.715-.994l13.261,7.656c1.651.04,2.668,1.365,4.03,2,5.292,2.448,10.5,5.095,16.051,6.937" transform="translate(-1537.061 -1960.922)" fill="#f0a12f"/>
          <path id="Trazado_1043702" data-name="Trazado 1043702" d="M1693.946,1712.623l-3.171,1.142a6.676,6.676,0,0,1-3.887,1.6,10.666,10.666,0,0,1-6.156-4.907c-1.826-2.513-3.222-5.163-2.712-8.428,5.123,6.705,12.608,7.164,20.1,7.6.46,1.666-.806,2.264-1.851,3-.774.284-1.549-.163-2.326,0" transform="translate(-1563.225 -1585.69)" fill="#d05c14"/>
          <path id="Trazado_1043703" data-name="Trazado 1043703" d="M2420.5,2198.081a7.2,7.2,0,0,0-1.039,3.184c-1.758,6.9-.328,12.913,5.011,17.794-1.325,1.594-2.3,1.338-3.517-.165a19.519,19.519,0,0,1-4.392-13.763c.036-.731.042-1.464.063-2.2.031-1.407-.323-2.861.515-4.168a9.588,9.588,0,0,1,1.567-3.321,3.06,3.06,0,0,0,.581-2.561c-.553-2.363-.083-3.818,1.423-4.406,2.912-1.138,4.5.163,4.378,3.585a1.805,1.805,0,0,1-.942,1.842,17.846,17.846,0,0,0-3.648,4.177" transform="translate(-2251.355 -2038.515)" fill="#1e1b4b"/>
          <path id="Trazado_1043704" data-name="Trazado 1043704" d="M1806.752,1874.931c1.361-.355,2.61-1.092,4.048-1.183-.349,1.969,1.124,3.069,2.009,4.459.069-1.278-1.167-2.128-1.03-3.966,3.151,4.911,7.4,7.973,11.759,10.881,7.653,5.111,16.015,8,25.331,7.716a3.1,3.1,0,0,1,1.947.252l-.7.526c-7.638.1-15.085-.794-22.053-4.336.471,1.2,1.936,1.07,2.493,2.128-.957.457-1.742-.364-2.594-.15a2.366,2.366,0,0,1-2.346-.771c-5.659-4.636-11.7-8.776-17.412-13.335-.711-.567-1.547-1.1-1.454-2.221" transform="translate(-1683.25 -1745.673)" fill="#4886d6"/>
          <path id="Trazado_1043705" data-name="Trazado 1043705" d="M1724.485,1829.816c6.795,5.8,14.1,10.938,21.212,16.327l5.293,4.3a2.133,2.133,0,0,0-1.9,1.237c-1.046-2.254-2.709-3.471-5.289-3.152a2.466,2.466,0,0,0-1.163-1.884c-7.757-5.178-14.74-11.353-22-17.169-1.315-1.054-2.437-2.247-2.141-4.151l5.995,4.493" transform="translate(-1600.983 -1700.558)" fill="#f9dd5a"/>
          <path id="Trazado_1043706" data-name="Trazado 1043706" d="M2179.717,2258.432a1.2,1.2,0,0,1,.267,1.588c-.665,1.49-1.3,2.993-1.948,4.492-3.331,2.413-7.246,2.249-11.017,2.185-2.149-.036-4.541.125-6.445-1.42l-1.189-4.035c5.656,2.684,11.311,3.793,17.106.29,1.351-.816,3.2-.965,3.226-3.1" transform="translate(-2011.786 -2104.063)" fill="#fce265"/>
          <path id="Trazado_1043707" data-name="Trazado 1043707" d="M1275.563,2499.416c1.845,7.544,3.141,15.2,4.667,22.807.585,2.918,1.214,5.826,1.823,8.739q.4,3.209.794,6.418c-.365.936-.579.12-.647-.1a46.817,46.817,0,0,1-1.335-4.765c-.7-3.639-1.765-7.2-2.2-10.9a2.723,2.723,0,0,0-.64-1.844,144.79,144.79,0,0,0-2.491-18.08c-.172-.771-.562-1.521.028-2.273" transform="translate(-1188.083 -2328.575)" fill="#d8741e"/>
          <path id="Trazado_1043708" data-name="Trazado 1043708" d="M1863.91,2221.416c-.31.635-.745.3-1.174.168-6.8-2.012-12.882-5.493-18.909-9.1.954-.773,1.681.064,2.322.471,3.493,2.22,7.126,3.9,11.409,3.573.766-.058,1.385.44,2.079.652.713.219,1.46.374,1.688-.679,1.95,1.066,2.2,3.024,2.584,4.914" transform="translate(-1717.798 -2060.962)" fill="#fde061"/>
          <path id="Trazado_1043709" data-name="Trazado 1043709" d="M2176.774,2348.138a9.488,9.488,0,0,1,3.539.384c4.763.865,9.339-.115,13.925-1.151q-.493,1.986-.983,3.969c-.185-.809-.784-.479-1.271-.465a73.922,73.922,0,0,1-12.6-.724,2.31,2.31,0,0,0-2.24.406,5.241,5.241,0,0,1-.365-2.419" transform="translate(-2027.986 -2186.923)" fill="#f3a833"/>
          <path id="Trazado_1043710" data-name="Trazado 1043710" d="M3346.732,2386.882c-.39-.407.07-.812,0-1.218a50.538,50.538,0,0,1,3.963-10.791,34.936,34.936,0,0,1,4.944-6.727c.448-.484.942-1.133,1.508-.092v-.007c-1.74,2.1-2.772,4.656-4.408,6.823l-6.009,12.011" transform="translate(-3117.828 -2205.675)" fill="#fce164"/>
          <path id="Trazado_1043711" data-name="Trazado 1043711" d="M2491.66,1854.483l4.359-3.715,5.353-4.443c2.011-2.575,5.159-3.792,7.344-6.159,1.229-.891,2.339-1.929,3.539-2.857a2.89,2.89,0,0,1,1.956-.813l2.8-2.141c-.349,1.305-1.4,2.065-2.285,2.963-4.216,4.3-9.328,7.418-14.195,10.868-2.167,1.536-4.208,3.248-6.317,4.866a4.766,4.766,0,0,1-2.554,1.432" transform="translate(-2321.349 -1708.972)" fill="#f6e083"/>
          <path id="Trazado_1043712" data-name="Trazado 1043712" d="M2474.563,2188.027a5.988,5.988,0,0,1,3.069-4.521,7.15,7.15,0,0,0,1.519-1.5c.683.792,1.454.631,2.346.356a48.632,48.632,0,0,0,10.214-4.485c.542-.316,1.024-.992,1.733-.283-5.273,3.444-11.169,5.729-16.585,8.905-.791.464-1.533,1.015-2.3,1.526" transform="translate(-2305.42 -2028.461)" fill="#fbdc5f"/>
          <path id="Trazado_1043713" data-name="Trazado 1043713" d="M1922.361,1629.966c.765-.865,1.9-1.435,2.169-2.695,1.992-3.422,1.562-7.15,1.355-10.844-.044-.791-.213-1.575-.324-2.362.032-.145.063-.29.1-.435,1.979-.052,1.469,1.973,2.361,2.829.972,5.921-.6,10.992-5.062,15.087a2.317,2.317,0,0,1-1.732.847c-.535-.585-.249-1.056.209-1.5.113-.506.531-.706.929-.926" transform="translate(-1789.633 -1503.334)" fill="#fcd8ac"/>
          <path id="Trazado_1043714" data-name="Trazado 1043714" d="M1532.109,1789.758l.474-.912c.423-.087.792-.926,1.28-.069a43.25,43.25,0,0,0,6.313,8.3c-2.551-2.175-5.416-3.874-8.013-5.937-.558-.444-.774-.892-.054-1.381" transform="translate(-1426.959 -1666.154)" fill="#ec9d2b"/>
          <path id="Trazado_1043715" data-name="Trazado 1043715" d="M1681.8,3089.274c-.052,1.881-1.735,2.807-2.565,4.234-1.891,3.252-4.109,6.316-6.224,9.437-.276.407-.426,1.27-1.283.689-.1-2.067,1.025-3.453,2.564-4.608l4-6.041c1.268-1.144,2.021-2.773,3.506-3.711" transform="translate(-1557.458 -2878.115)" fill="#fcdaae"/>
          <path id="Trazado_1043716" data-name="Trazado 1043716" d="M2111.014,1396.694c4.07,0,8.139-.006,12.208.008.513,0,1.166-.226,1.5.263.386.566-.258.966-.514,1.382-2.225,3.609-4.922,6.753-9.311,7.624-6.339,1.258-12.931-.209-16.64-5.869a10.584,10.584,0,0,1-.751-1.406c-.6-1.329-.5-2.068,1.3-2.024,4.067.1,8.138.03,12.207.03Z" transform="translate(-1953.828 -1301.186)" fill="#f48c61"/>
          <path id="Trazado_1043717" data-name="Trazado 1043717" d="M1904.37,898.9a19.8,19.8,0,0,1,7.483,1.562c.952.4,1.911.944,1.574,2.195-.356,1.321-1.416,1.421-2.578,1.161a26.819,26.819,0,0,0-7.132-.825,18.9,18.9,0,0,0-7.461,2.068c-1.063.519-2.21.947-2.975-.389s.261-2.153,1.184-2.794a16.913,16.913,0,0,1,9.906-2.978" transform="translate(-1763.618 -837.462)" fill="#1a1850"/>
          <path id="Trazado_1043718" data-name="Trazado 1043718" d="M2426.1,901.817a4.337,4.337,0,0,1-2.092-.616,18.525,18.525,0,0,0-12.109-1.242c-1.158.242-2.732.994-3.267-.75s1.054-2.247,2.292-2.687a16.3,16.3,0,0,1,15.6,2.07,2,2,0,0,1,1.011,2.377c-.219.694-.809.815-1.434.848" transform="translate(-2243.897 -834.214)" fill="#19184e"/>
          <path id="Trazado_1043719" data-name="Trazado 1043719" d="M1742.239,860.662a101.613,101.613,0,0,1-5.823-15.448c-1.355-4.236-2.542-8.526-3.766-12.8-.157-.551-.845-1.435.111-1.678,1-.255.913.833,1.117,1.5,2.015,6.6,3.542,13.352,6.19,19.753a4.026,4.026,0,0,0,.94,1.724l1.231,6.951" transform="translate(-1613.859 -773.916)" fill="#3f5099"/>
          <path id="Trazado_1043720" data-name="Trazado 1043720" d="M2699.869,829.677c1.2-2.69,1.386-5.626,2.028-8.45.427-1.878.616-3.809.994-5.7.118-.591.13-1.375,1.2-1.62-.488,2.864-.9,5.636-1.441,8.385-1.167,5.941-2.395,11.871-3.61,17.8a1.831,1.831,0,0,1-.3.51c.162-3.664.621-7.3,1.132-10.927" transform="translate(-2514.272 -758.275)" fill="#424986"/>
          <path id="Trazado_1043721" data-name="Trazado 1043721" d="M2235.406,1272.9l1.2-1.046c.49,2.018-.5,3.692-2.648,4.6-2.883,1.224-6.853-.2-8.6-3.1.719-.476,1.216.354,1.854.312,2.8.488,5.635,1.4,8.186-.765" transform="translate(-2073.257 -1184.917)" fill="#24173e"/>
          <path id="Trazado_1043722" data-name="Trazado 1043722" d="M2409.041,1048.613c-1.993-1.028-2.062-1.641-.342-2.827,3.058-2.108,6.214-2.912,9.64-.833.6.367,1.081.639.213,1.211-.858.742-1.653-.072-2.428-.193a7.071,7.071,0,0,0-7.083,2.642" transform="translate(-2242.917 -972.4)" fill="#e99570"/>
          <path id="Trazado_1043723" data-name="Trazado 1043723" d="M1989.112,1071.4c-.989.051-1.554.32-.634,1.482-3.786-1.716-7.271-1.849-10.337,1.823.711-4.4,6.676-5.976,10.971-3.3" transform="translate(-1842.931 -996.948)" fill="#261c3c"/>
          <path id="Trazado_1043724" data-name="Trazado 1043724" d="M2429.091,1067.419c-.386-1.1.463-1.556,1.125-2.045,2.7-1.99,5.521-1.733,8.387-.4.565.474,1.364.74,1.594,1.859a15.619,15.619,0,0,0-4.995-1.422c-2.347-.085-4.072,1.365-6.11,2.012" transform="translate(-2262.967 -991.205)" fill="#201335"/>
          <path id="Trazado_1043725" data-name="Trazado 1043725" d="M2260.672,1287.161c-1.934,2.416-4.557,2.662-8.185.765,2.739-.142,5.534.317,8.185-.765" transform="translate(-2098.524 -1199.181)" fill="#d5886d"/>
          <path id="Trazado_1043726" data-name="Trazado 1043726" d="M1632.454,843.968a2.038,2.038,0,0,1-2.1.459,5.179,5.179,0,0,1-1.971-3.124c-3.132-10.116-5.773-20.369-8.608-30.567-.357-1.287-.829-2.528-1.3-3.774-.43-1.136-.511-2.224.67-3.016l-.011.041c1.639-.537,1.863.629,2.173,1.763,2.749,10.05,5.547,20.085,8.63,30.039q1.266,4.088,2.521,8.179" transform="translate(-1507.575 -748.907)" fill="#f6d44b"/>
          <path id="Trazado_1043727" data-name="Trazado 1043727" d="M2072,3692.329l26.789-.064,8.77.127c-6.679,1.892-13.279,4.131-20.406,3.581a33.12,33.12,0,0,1-11.751-2.7c-1.11-.522-2.416-.126-3.4-.943" transform="translate(-1930.378 -3439.89)" fill="#fac23a"/>
          <path id="Trazado_1043728" data-name="Trazado 1043728" d="M1557.426,3014.211l-2.564,4.609a2.053,2.053,0,0,0-.325.1,33.984,33.984,0,0,1-8.256-20.687c4.246,4.952,7.544,10.572,11.145,15.975" transform="translate(-1440.589 -2793.3)" fill="#e58223"/>
          <path id="Trazado_1043729" data-name="Trazado 1043729" d="M2550.375,3307.032a2.8,2.8,0,0,1-.071-.317c4.109,1.809,8.335,1.088,12.547.558a62.2,62.2,0,0,0,15.457-4.485,8.678,8.678,0,0,1,1.334-.41,2.241,2.241,0,0,1,.71.139,5.977,5.977,0,0,1-3.185,3.146,43.9,43.9,0,0,1-24.849,2.267,2.915,2.915,0,0,1-1.942-.9" transform="translate(-2375.985 -3076.646)" fill="#f39c6b"/>
          <path id="Trazado_1043730" data-name="Trazado 1043730" d="M2551.464,3471.426a1.045,1.045,0,0,1-.067-.385c3.5.733,6.97,1.674,10.5,2.15,4.986.671,10.019,1,15.014-.242.032-.544-.757-.219-.731-.674s.433-.421.743-.424c1.241-.014,2.481-.006,3.888-.006a5.174,5.174,0,0,1-4.567,3.046,63.554,63.554,0,0,1-12.682-.049c-1.908-.174-3.792-.607-5.7-.793-2.417-.233-4.156-2.03-6.4-2.625" transform="translate(-2377.003 -3233.788)" fill="#f6a16f"/>
          <path id="Trazado_1043731" data-name="Trazado 1043731" d="M1565.939,805.222a2.1,2.1,0,0,0-.334,2.056c3.469,8.9,5.157,18.325,8.005,27.408,1.154,3.68,1.925,7.485,3.539,11.017a14.333,14.333,0,0,0-2.919-.6c-2.344,0-3.068-1.438-3.675-3.376-3.1-9.894-5.617-19.942-8.217-29.971a7.63,7.63,0,0,0-1.262-3.306,14.278,14.278,0,0,1,4.863-3.232" transform="translate(-1454.373 -750.183)" fill="#385db2"/>
          <path id="Trazado_1043732" data-name="Trazado 1043732" d="M920.315,1720.13c-.423,6.914-1.761,6.723-7.131,5.2a10.945,10.945,0,0,1-5.439-3.521c-2.214-2.57-.473-8.274,2.821-9.169,4.157-1.13,9.755,3.171,9.75,7.49" transform="translate(-844.775 -1595.406)" fill="#91cdf9"/>
          <path id="Trazado_1043733" data-name="Trazado 1043733" d="M323.829,1958.247a10.676,10.676,0,0,1,5.908,1.8c2.4,1.544,2.817,3.492,1.27,5.941a18.908,18.908,0,0,1-2.221,2.8,4.663,4.663,0,0,1-6.427.487c-2.413-1.72-3.583-5.035-2.5-7.136a18.134,18.134,0,0,0,1.045-1.925c.564-1.54,1.548-2.275,2.928-1.967" transform="translate(-297.618 -1824.332)" fill="#92cefa"/>
          <path id="Trazado_1043734" data-name="Trazado 1043734" d="M428.331,2404.706a4.3,4.3,0,0,1,3.76,2.524,2.989,2.989,0,0,1-.556,3.668c-1.329,1.57-2.646,3.213-5.049,3.028-1.389-.107-2.87-.512-3.352-1.768a5.23,5.23,0,0,1,5.2-7.451" transform="translate(-393.767 -2240.337)" fill="#93cefa"/>
          <path id="Trazado_1043735" data-name="Trazado 1043735" d="M1120.443,1380.781c2.061-1.529,2.075-1.72-.06-2.868-.7-.378-1.057-.67-.7-1.515a6.058,6.058,0,0,1,6.453-3.256,3.535,3.535,0,0,1,2.51,4.636,6.615,6.615,0,0,1-4.761,4.575c-1.487.453-2.125-1.3-3.444-1.572" transform="translate(-1043.02 -1279.166)" fill="#93cef8"/>
          <path id="Trazado_1043736" data-name="Trazado 1043736" d="M611.562,2049.432c-.266.9-.524,1.933-1.734,1.761a1.928,1.928,0,0,1-1.778-2.036,1.515,1.515,0,0,1,1.759-1.474,1.664,1.664,0,0,1,1.753,1.749" transform="translate(-566.487 -1907.719)" fill="#93d0fa"/>
          <path id="Trazado_1043737" data-name="Trazado 1043737" d="M3522.5,3443.238l-11.688.788c.1.89.76,1.047,1.206,1.373,6.218,4.543,11.81,9.7,16.064,16.191a12.884,12.884,0,0,1,2.083,8.364c-.045.537-.027,1.134-.637,1.343-.566.194-1.007-.212-1.443-.514-1.216-.842-1.483-2.215-1.762-3.486-1.722-7.813-6.3-13.449-13.089-17.445a92.349,92.349,0,0,1-8.9-6.406c-.4-.308-.969-.646-.813-1.267.19-.757.9-.667,1.487-.686,4.935-.155,9.813.553,14.71.982.918.08,1.831.213,2.746.321.013.148.027.3.04.443" transform="translate(-3264.016 -3206.238)" fill="#fce46c"/>
          <path id="Trazado_1043738" data-name="Trazado 1043738" d="M3436.8,2382.366c1.143-2.486,2.141-5.064,4.408-6.823-1.238,2.424-2.331,4.941-4.408,6.823" transform="translate(-3201.89 -2213.169)" fill="#fec53d"/>
          <path id="Trazado_1043739" data-name="Trazado 1043739" d="M2312.4,3086.59c-.929,3.406-3.208,5.219-6.867,5.465-1.056-.621-2.321-.448-3.432-.954a6.828,6.828,0,0,1-3.882-8.886,7.213,7.213,0,0,1,8.791-4.288c4.123,1.224,5.858,4.014,5.389,8.664" transform="translate(-2140.699 -2867.267)" fill="#7ebaf0"/>
          <path id="Trazado_1043740" data-name="Trazado 1043740" d="M2304.239,3080.587c-.231-4.866-1.694-7.079-5.428-8.214a6.526,6.526,0,0,0-8.461,4.546c-1.018,3.808.935,6.983,4.849,8.044.759.206,1.826-.008,2.174,1.089a7.714,7.714,0,0,1-8.247-6.049c-.708-3.171,1.464-6.852,4.9-8.3.429-.181.877-.32,1.316-.478,4.273-.325,7.469,1.211,9.177,5.316-.036,1.352.421,2.739-.285,4.044" transform="translate(-2132.533 -2861.263)" fill="#6697da"/>
          <path id="Trazado_1043741" data-name="Trazado 1043741" d="M1885.408,3153.52l-.77-.07c-.07-.258.027.046-.11-.164-.584-.9.421-2.762-1.04-2.831-1.913-.091-4.113-.38-5.648,1.424l-2.619-.936c2.715-3.754,6.649-3.523,10.416-2.3a41.407,41.407,0,0,0,8.518,2.144c-.572.576-1.42.084-1.893.645a15.181,15.181,0,0,1-5.053-1.068c-1.468-.538-2.12-.32-1.881,1.365a17.9,17.9,0,0,1,.081,1.791" transform="translate(-1747.045 -2932.68)" fill="#eb966a"/>
          <path id="Trazado_1043742" data-name="Trazado 1043742" d="M2534.635,2795.413c1.015.051,1.489.458,1.47,1.5s-.735,1.278-1.422,1.252a1.413,1.413,0,0,1-1.5-1.521c.044-.912.714-1.188,1.453-1.232" transform="translate(-2360.031 -2604.341)" fill="#abc2e3"/>
          <path id="Trazado_1043743" data-name="Trazado 1043743" d="M2141.583,3202.056l4.462,0a7.325,7.325,0,0,1-4.462,0" transform="translate(-1995.201 -2983.188)" fill="#eb966a"/>
          <path id="Trazado_1043744" data-name="Trazado 1043744" d="M1870.8,3319.833a49.912,49.912,0,0,1,8.733.223c-1.218-1.041-2.786-.705-4.165-1a34.318,34.318,0,0,0-4.321-.186c6.257-1.183,11.863,1.235,17.635,3.273a2.091,2.091,0,0,1-2.026.766,132.769,132.769,0,0,1-15.473-2.68c-.053-.014-.089-.087-.382-.394" transform="translate(-1742.927 -3091.726)" fill="#f29b6b"/>
          <path id="Trazado_1043745" data-name="Trazado 1043745" d="M1910.087,3174.73c-.6-1.016-.063-1.492.866-1.653,1.61-.279,3.227-.546,4.852-.7,1.27-.118,1.486.788,1.476,1.823a3.731,3.731,0,0,1-.4,2.1l-6.8-1.571" transform="translate(-1779.292 -2955.532)" fill="#f5a736"/>
          <path id="Trazado_1043746" data-name="Trazado 1043746" d="M1925.177,1670.967c2.882-2.818,5.476-5.745,6.112-10.012.295-1.974-.035-4.011.683-5.923,2.612,3.436,4.884,7.147,8.009,10.17,5.776,5.59,12.42,9.562,20.539,10.6,1.5.193,1.857.592.78,1.774a.821.821,0,0,0,.118,1.36,1.212,1.212,0,0,1-.119,2.159c-1.807,1.1-2.291,3.038-3.274,4.663-12.082.515-22.7-2.782-31.071-11.929a8.761,8.761,0,0,1-1.776-2.867" transform="translate(-1793.587 -1541.907)" fill="#fdbe86"/>
          <path id="Trazado_1043747" data-name="Trazado 1043747" d="M2651.525,1838.546l-5.115,4.1c-1.874.3-3.356-.189-4.166-2.05-1.189-1.25-2.832-2.141-3.2-4.043a57.217,57.217,0,0,0,10.184,1.6c.775.03,1.613-.236,2.293.386" transform="translate(-2458.664 -1711.022)" fill="#d45e12"/>
          <path id="Trazado_1043748" data-name="Trazado 1043748" d="M2637.3,1895.706c1.037,1.4,2.87,1.177,4.166,2.049-2.155,2.474-5.042,3.963-7.724,5.728.587-1.575,1.8-2.728,2.743-4.063.753-1.067,1.722-2.115.382-3.418l.433-.3" transform="translate(-2453.723 -1766.13)" fill="#638bbc"/>
          <path id="Trazado_1043749" data-name="Trazado 1043749" d="M1914.409,1851.123c-.045.575-.46.776-.929.925-.219-.455-.7-.449-1.083-.622a2.411,2.411,0,0,1,2.012-.3" transform="translate(-1781.681 -1724.492)" fill="#fdbe86"/>
          <path id="Trazado_1043750" data-name="Trazado 1043750" d="M2125.006,1414.674c7.781-.108,15.278-.037,22.867-.492-3.616,6.975-18.354,7.368-22.867.492" transform="translate(-1979.757 -1317.52)" fill="#fcfbf9"/>
          <path id="Trazado_1043751" data-name="Trazado 1043751" d="M2548.008,2809.081a.738.738,0,0,1-.549.779.638.638,0,0,1-.848-.538.535.535,0,0,1,.505-.669.775.775,0,0,1,.892.428" transform="translate(-2372.529 -2616.662)" fill="#3d5181"/>
        </g>
      </g>
      <g id="Grupo_1203650" data-name="Grupo 1203650" transform="translate(948.82 2200.108)">
        <g id="Grupo_1203651" data-name="Grupo 1203651" transform="translate(0 0)">
          <g transform="matrix(1, 0, 0, 1, -124.01, -50.45)" filter="url(#Trazado_1043752)">
            <path id="Trazado_1043752-2" data-name="Trazado 1043752" d="M36.737.075A39.064,39.064,0,0,1,76.643,30.682c2.252,10.439-.08,20.719-5.843,29.6L80.617,79.6l-21-8.71-4.577,2.385a37.865,37.865,0,0,1-12.7,3.306c-10.417.809-20.467-2.044-28.453-8.924a39.911,39.911,0,0,1-13.8-27.2A37.926,37.926,0,0,1,8.981,13.424C16.249,5.079,25.8.865,36.737.075" transform="translate(124.01 50.45)" fill="#f6f3ef"/>
          </g>
          <path id="Trazado_1043753" data-name="Trazado 1043753" d="M88.408,59.45l.027.343c.3,6.174-3.777,14.049-7.885,18.4a31.185,31.185,0,0,1-21.509,9.854,30.41,30.41,0,0,1-22.173-8.205C31.149,74.387,27.153,66.526,27,58.546a29.459,29.459,0,0,1,8.289-21.794,31.122,31.122,0,0,1,43.7-.691c5.394,5.374,9.458,13.122,9.416,20.881a19.756,19.756,0,0,0,0,2.508" transform="translate(-19.027 -19.344)" fill="#fec53d"/>
          <path id="Trazado_1043754" data-name="Trazado 1043754" d="M95.5,107.236c-2.142,0-21.913-.163-22.1-.027a6.968,6.968,0,0,0-.6,1.324c-.856,1.893-1.871,5.113-3.479,6.385a2.132,2.132,0,0,1-1.741-.323,9.673,9.673,0,0,1-1.266-3.412L64.6,104.616l-2.458,8.527-1.281,5.512c-.215,1.094-.28,2.555-1.071,3.4a1.589,1.589,0,0,1-1.387-.188c-1.26-2.005-1.679-5.951-2.19-8.293L53.595,101.1c-.289,1.5-.478,3.646-1.186,4.987A1.915,1.915,0,0,1,51.2,107.2a19.3,19.3,0,0,1-3.278.042H40.705a12.788,12.788,0,0,1-2.883-.059,4.141,4.141,0,0,1-.691-.571A1.882,1.882,0,0,1,37.353,105c1.248-.495,2.983-.287,4.323-.287l8.679.023,1.983-8.711a1.9,1.9,0,0,1,1.481-.795,4.171,4.171,0,0,1,.714.509,6.774,6.774,0,0,1,.564,1.852l1.174,5.33,2.818,12.2,2.771-9.31c.39-1.388.859-4.41,1.791-5.449.519-.578.835-.493,1.573-.562,1.142.818,1.287,2.608,1.6,3.931l1.85,8.081a58.721,58.721,0,0,1,3.47-7.01,73.323,73.323,0,0,1,8.021-.094l15.339.015a19.758,19.758,0,0,0,0,2.508" transform="translate(-26.12 -67.129)" fill="#263173"/>
        </g>
      </g>
      <g id="Grupo_1203653" data-name="Grupo 1203653" transform="translate(1307.652 2291.2)">
        <g id="Grupo_1203652" data-name="Grupo 1203652" transform="translate(0 0)" clip-path="url(#clip-path-3)">
          <path id="Trazado_1043755" data-name="Trazado 1043755" d="M219.345,74.443c-.025-1.526-.476-4.793.6-5.9,1.113-1.139,5.889-.668,7.631-.663,1.047,0,3.594-.315,4.333.436a2.412,2.412,0,0,1,.708,1.286,30.574,30.574,0,0,1,.043,4.712l.02,11.879c.02,1.265.425,4.732-.252,5.674a3.957,3.957,0,0,1-2.094.119,11.948,11.948,0,0,0-2.774-.12l-6.06.031a3.486,3.486,0,0,1-1.887-.186l-.217-.794c-.359-2.588-.018-5.743-.008-8.386Z" transform="translate(-163.388 -50.517)" fill="#747eca"/>
          <path id="Trazado_1043756" data-name="Trazado 1043756" d="M233.177,140.079c.02,1.265.425,4.732-.252,5.674a3.957,3.957,0,0,1-2.094.119,11.948,11.948,0,0,0-2.774-.12l-6.06.031a3.486,3.486,0,0,1-1.888-.186l-.217-.794.025-4.651Z" transform="translate(-163.882 -104.398)" fill="#303a72"/>
          <path id="Trazado_1043757" data-name="Trazado 1043757" d="M163.806,437.239l5.706-.087a15.477,15.477,0,0,1,2.863.014l.173.016.066,2.111c.583.461,1.684.275,2.438.272l6.613-.01a23.542,23.542,0,0,1,3.9.124c5.212.911,8.108,4.491,9.56,9.333l-53.354.021a9.624,9.624,0,0,1,3.243-6.306c3.329-3.216,6.88-3.16,11.195-3.165l7.6.064Z" transform="translate(-105.66 -325.751)" fill="#303a72"/>
          <path id="Trazado_1043758" data-name="Trazado 1043758" d="M228.273,437.239l5.706-.087a15.477,15.477,0,0,1,2.863.014v2.24a1.605,1.605,0,0,1-.308.28c-.385.2-6.9.037-7.8,0l-.464-.057Z" transform="translate(-170.127 -325.751)" fill="#1a275f"/>
          <path id="Trazado_1043759" data-name="Trazado 1043759" d="M.113,36.518C.3,34.274.121,31.863.121,29.6l.005-14.6c0-3.1-.586-7.443.774-10.243A8.262,8.262,0,0,1,5.849.487,9.809,9.809,0,0,1,9.158.1L23.764.089c2.1,0,4.7-.292,6.709.169a8.073,8.073,0,0,1,5.864,5.766,28.1,28.1,0,0,1,.194,5.792l.033,12.113-.013,8.089-.023,9.433c0,1.974.273,4.341-.466,6.19a8.342,8.342,0,0,1-6.623,4.993,39.1,39.1,0,0,1-4.233.048l-8.189-.016-6.325,0a15.224,15.224,0,0,1-3.668-.205,9.077,9.077,0,0,1-4.529-2.43C-.768,46.668.126,40.857.113,36.518" transform="translate(0 0)" fill="#303a72"/>
          <path id="Trazado_1043760" data-name="Trazado 1043760" d="M228.093,162.325l6.06-.031a11.949,11.949,0,0,1,2.774.12l.013,9.118-8.867-.017Z" transform="translate(-169.978 -120.94)" fill="#1a275f"/>
          <path id="Trazado_1043761" data-name="Trazado 1043761" d="M143.505,93.933l19.394,0,.046,8.094H143.493Z" transform="translate(-106.942 -70.003)" fill="#6c58aa"/>
          <path id="Trazado_1043762" data-name="Trazado 1043762" d="M228.073,198.557l8.867.017-.074,60.837-.173-.016a15.48,15.48,0,0,0-2.863-.013l-5.706.087Z" transform="translate(-169.978 -147.98)" fill="#747eca"/>
        </g>
      </g>
      <g id="Grupo_1203655" data-name="Grupo 1203655" transform="translate(852.5 2284.73)">
        <g id="Grupo_1203654" data-name="Grupo 1203654" transform="translate(0 0)" clip-path="url(#clip-path-4)">
          <path id="Trazado_1043763" data-name="Trazado 1043763" d="M61.72,202.587c.271-.479,22.159-11.341,23.968-12.047a23.275,23.275,0,0,0,2.987,4.328l-15.29,7.62c-2.361,1.193-5.017,3-7.5,3.745a2.6,2.6,0,0,1-1.673-.133c-1.266-.443-1.786-1.881-2.283-3.009Z" transform="translate(-45.669 -140.988)" fill="#141e54"/>
          <path id="Trazado_1043764" data-name="Trazado 1043764" d="M75.9,144.989c-1.473,3.848-2.024,7.8-.306,11.7l.066.145c-1.81.706-23.7,11.568-23.968,12.047l-2.64-5.258c-.686-1.362-1.2-2.309-.66-3.834a3.119,3.119,0,0,1,1.227-1.6c2.444-1.647,5.6-2.851,8.261-4.2Z" transform="translate(-35.639 -107.283)" fill="#1a275f"/>
          <path id="Trazado_1043765" data-name="Trazado 1043765" d="M246.026,80.043l1.16-.693c.979,5.383,3.285,9.877,6.27,14.4l-19.491,9.942a18.5,18.5,0,0,0-.845-5.774c-1.2-3.637-3.806-5.875-6.988-7.789Z" transform="translate(-167.324 -58.714)" fill="#1a275f"/>
          <path id="Trazado_1043766" data-name="Trazado 1043766" d="M265.908,80.043l1.16-.693c.979,5.383,3.285,9.877,6.27,14.4l-19.491,9.942A18.5,18.5,0,0,0,253,97.921l16.344-8.288a38.871,38.871,0,0,1-3.438-9.591" transform="translate(-187.206 -58.714)" fill="#141e54"/>
          <path id="Trazado_1043767" data-name="Trazado 1043767" d="M305.736,38.77a10.379,10.379,0,0,1-.135-5.69c.985-3.03,3.977-4.076,6.556-5.409l6.22-3.163a36.551,36.551,0,0,0,.016,6.164,32.291,32.291,0,0,0,7.829,16.9,23.374,23.374,0,0,0,9.054,6.469l-11.97,6.338a5.939,5.939,0,0,1-3.036.264c-3.025-.507-6.561-5.028-8.264-7.466-2.985-4.526-5.291-9.02-6.27-14.4" transform="translate(-225.874 -18.134)" fill="#303a72"/>
          <path id="Trazado_1043768" data-name="Trazado 1043768" d="M150.908,122.815l.115-.233a13.422,13.422,0,0,1,7.91-6.9,13.916,13.916,0,0,1,10.524.845c3.182,1.914,5.786,4.152,6.988,7.789a18.5,18.5,0,0,1,.845,5.774,14.637,14.637,0,0,1-5.78,10.068,3.52,3.52,0,0,1-.929.561,7.531,7.531,0,0,1,.205,3.167l-.472.556a23.565,23.565,0,0,1-13.183.369,2.9,2.9,0,0,1-1.453-1.179c-.411-.789,0-2.191.248-2.981a15.5,15.5,0,0,1-2.271-1.663,23.276,23.276,0,0,1-2.987-4.328l-.066-.145c-1.718-3.9-1.167-7.853.306-11.7" transform="translate(-110.648 -85.109)" fill="#303a72"/>
          <path id="Trazado_1043769" data-name="Trazado 1043769" d="M172.9,213.576c3.705,1.866,7.233,2.708,11.3,1.395l3.358-1.328a7.531,7.531,0,0,1,.205,3.167l-.472.556a23.565,23.565,0,0,1-13.183.369,2.9,2.9,0,0,1-1.453-1.179c-.411-.789,0-2.191.248-2.981" transform="translate(-127.624 -158.033)" fill="#1a275f"/>
          <path id="Trazado_1043770" data-name="Trazado 1043770" d="M177.568,134.949a8.969,8.969,0,0,1,5.249,1.023,8.746,8.746,0,0,1,4.16,5.19,8.278,8.278,0,0,1-.842,6.46,8.44,8.44,0,0,1-12.086,2.876,8.363,8.363,0,0,1-3.592-5.219,8.536,8.536,0,0,1,1.15-6.442,8.951,8.951,0,0,1,5.962-3.889" transform="translate(-125.986 -99.825)" fill="#747eca"/>
          <path id="Trazado_1043771" data-name="Trazado 1043771" d="M46.483,228.522a23.565,23.565,0,0,0,13.183-.369c.708,1.752,2.246,3.461,3.284,5.074l24.336,34.655,21.841,30.687h-4.98L82.094,267.313,61.268,237.833c-.639-.939-3.647-5.852-4.477-5.942l-1.387.069c-.532,1.41-.171,3.949-.166,5.507l.038,13.776-.029,38.546L64,289.8a20.539,20.539,0,0,1,3.824.072,2.3,2.3,0,0,1,1.068.632c1.261,1.233.678,6.127.679,7.961l-31.376-.009c-.007-1.84-.58-6.663.691-7.982a3.077,3.077,0,0,1,.806-.566A10.669,10.669,0,0,1,43,289.732l8.3.073-.056-43.82.034-10.111c0-1,.255-3.036-.164-3.885a6.934,6.934,0,0,0-2.041,0l-44.1,66.45-4.969,0Z" transform="translate(0 -168.819)" fill="#303a72"/>
          <path id="Trazado_1043772" data-name="Trazado 1043772" d="M367.1,0a18.185,18.185,0,0,1,13.813,5.332,20,20,0,0,1,5.818,14.03c.017,3.621-1.17,8.037-3.818,10.634a7.229,7.229,0,0,1-1.674,1.231l-1.892.983-5.438,2.756-1.665.934a23.374,23.374,0,0,1-9.054-6.469,32.291,32.291,0,0,1-7.829-16.9,36.551,36.551,0,0,1-.016-6.164l1.722-1.035A.884.884,0,0,1,357.132,5C357.9,2.94,361.442,1.69,363.3.868l1.985-.634Z" transform="translate(-262.84 0)" fill="#303a72"/>
          <path id="Trazado_1043773" data-name="Trazado 1043773" d="M384.785,1.532,386.77.9c-.243,1.736-.677,3.448-.787,5.2a26.336,26.336,0,0,0,5.575,17.715,22.042,22.042,0,0,0,8.075,6.671,13.239,13.239,0,0,1,3.091,1.414l-1.892.983c-4.4-1.975-7.792-4.023-10.643-8.038-5.217-7.347-6.917-14.378-5.4-23.307" transform="translate(-284.325 -0.664)" fill="#141e54"/>
          <path id="Trazado_1043774" data-name="Trazado 1043774" d="M363.3,3.336c-1.512,8.929.188,15.96,5.4,23.307,2.851,4.015,6.242,6.063,10.643,8.038l-5.438,2.756-1.665.934a23.374,23.374,0,0,1-9.054-6.469,32.291,32.291,0,0,1-7.829-16.9,36.551,36.551,0,0,1-.016-6.164l1.722-1.035a.884.884,0,0,1,.066-.336c.767-2.064,4.309-3.314,6.168-4.136" transform="translate(-262.84 -2.468)" fill="#303a72"/>
          <path id="Trazado_1043775" data-name="Trazado 1043775" d="M355.344,21.565l1.722-1.035a40.422,40.422,0,0,0-.039,6.77,31.15,31.15,0,0,0,7.734,16.492,22.962,22.962,0,0,0,6.4,5.213,21.981,21.981,0,0,1,2.748,1.154l-1.665.934a23.374,23.374,0,0,1-9.054-6.469,32.291,32.291,0,0,1-7.829-16.9,36.551,36.551,0,0,1-.016-6.164" transform="translate(-262.84 -15.191)" fill="#141e54"/>
        </g>
      </g>
    </g>
  </g>
</svg>
